<REAPER_PROJECT 0.1 "6.51/win64" 1651857355
  <NOTES 0 2
  >
  RIPPLE 0
  GROUPOVERRIDE 0 0 0
  AUTOXFADE 1
  ENVATTACH 3
  POOLEDENVATTACH 0
  MIXERUIFLAGS 11 48
  PEAKGAIN 1
  FEEDBACK 0
  PANLAW 1
  PROJOFFS 0 0 0
  MAXPROJLEN 0 600
  GRID 3199 8 1 8 1 0 0 0
  TIMEMODE 1 5 -1 30 0 0 -1
  VIDEO_CONFIG 0 0 256
  PANMODE 3
  CURSOR 40.8
  ZOOM 18.09988511555571 0 0
  VZOOMEX 6 376
  USE_REC_CFG 0
  RECMODE 1
  SMPTESYNC 0 30 100 40 1000 300 0 0 1 0 0
  LOOP 1
  LOOPGRAN 0 4
  RECORD_PATH "" ""
  <RECORD_CFG
    ZXZhdxgAAA==
  >
  <APPLYFX_CFG
  >
  RENDER_FILE ""
  RENDER_PATTERN pruebaProyecto
  RENDER_FMT 0 2 44100
  RENDER_1X 0
  RENDER_RANGE 1 0 0 18 1000
  RENDER_RESAMPLE 3 0 1
  RENDER_ADDTOPROJ 0
  RENDER_STEMS 3
  RENDER_DITHER 0
  TIMELOCKMODE 1
  TEMPOENVLOCKMODE 1
  ITEMMIX 0
  DEFPITCHMODE 589824 0
  TAKELANE 1
  SAMPLERATE 44100 0 0
  <RENDER_CFG
    bDNwbYAAAAAAAAAAAgAAAP////8EAAAAgAAAAAAAAAA=
  >
  LOCK 1
  <METRONOME 6 2
    VOL 0.25 0.125
    FREQ 800 1600 1
    BEATLEN 4
    SAMPLES "" ""
    PATTERN 2863311530 2863311529
    MULT 1
  >
  GLOBAL_AUTO -1
  TEMPO 150 4 4
  PLAYRATE 1 0 0.25 4
  SELECTION 0 0
  SELECTION2 0 0
  MASTERAUTOMODE 0
  MASTERTRACKHEIGHT 0 0
  MASTERPEAKCOL 16576
  MASTERMUTESOLO 0
  MASTERTRACKVIEW 0 0.6667 0.5 0.5 -1 -1 -1 0 0 0 -1 -1 0
  MASTERHWOUT 0 0 1 0 0 0 0 -1
  MASTER_NCH 2 2
  MASTER_VOLUME 1 0 -1 -1 1
  MASTER_PANMODE 3
  MASTER_FX 1
  MASTER_SEL 0
  <MASTERPLAYSPEEDENV
    EGUID {3C5E3072-4A81-432C-879B-8E85CEB2C9B6}
    ACT 0 -1
    VIS 0 1 1
    LANEHEIGHT 0 0
    ARM 0
    DEFSHAPE 0 -1 -1
  >
  <TEMPOENVEX
    EGUID {675FF63C-4B0B-41BC-A36A-5B8BCD1E9FCB}
    ACT 1 -1
    VIS 1 0 1
    LANEHEIGHT 0 0
    ARM 0
    DEFSHAPE 1 -1 -1
    PT 0.000000000000 150.0000000000 1 262148 0 9 0 "" 2863311530 2863311529
  >
  <PROJBAY
  >
  <TRACK {172C0D3F-4866-4213-83C3-75AA196ECEE6}
    NAME ""
    PEAKCOL 16576
    BEAT -1
    AUTOMODE 0
    VOLPAN 1 0 -1 -1 1
    MUTESOLO 0 0 0
    IPHASE 0
    PLAYOFFS 0 1
    ISBUS 0 0
    BUSCOMP 0 0 0 0 0
    SHOWINMIX 1 0.6667 0.5 1 0.5 -1 -1 -1
    FREEMODE 0
    SEL 0
    REC 0 4096 1 0 0 0 0
    VU 2
    TRACKHEIGHT 0 0 0 0 0 0
    INQ 0 0 0 0.5 100 0 0 100
    NCHAN 2
    FX 1
    TRACKID {172C0D3F-4866-4213-83C3-75AA196ECEE6}
    PERF 0
    MIDIOUT -1
    MAINSEND 1 0
    <FXCHAIN
      WNDRECT 446 79 737 624
      SHOW 0
      LASTSEL 0
      DOCKED 0
      BYPASS 0 0 0
      <VST "VSTi: ReaSynth (Cockos)" reasynth.dll 0 "" 1919251321<5653547265737972656173796E746800> ""
        eXNlcu9e7f4AAAAAAgAAAAEAAAAAAAAAAgAAAAAAAABEAAAAAAAAAAAAEAA=
        776t3g3wrd4AAAAAF7fROtNNIj+DwEo+2/leP85NAD8r+jQ8AAAAAAAAAD8MIJk+nu/nPn9q/D4AAAAAAAAAAAAAAAA=
        AFByb2dyYW0gMQAQAAAA
      >
      PRESETNAME "Program 1"
      FLOATPOS 0 0 0 0
      FXID {C1F8F884-A3EE-4990-9FEE-7A9219B4E819}
      WAK 0 0
    >
  >
  <TRACK {8812B4C5-BAE0-464C-9957-4B68970BD3BB}
    NAME Piano
    PEAKCOL 16576
    BEAT -1
    AUTOMODE 0
    VOLPAN 0.43690161405325 0 -1 -1 1
    MUTESOLO 0 0 0
    IPHASE 0
    PLAYOFFS 0 1
    ISBUS 0 0
    BUSCOMP 0 0 0 0 0
    SHOWINMIX 1 0.6667 0.5 1 0.5 -1 -1 -1
    FREEMODE 0
    SEL 0
    REC 0 5056 1 0 0 0 0
    VU 2
    TRACKHEIGHT 0 0 0 0 0 0
    INQ 0 0 0 0.5 100 0 0 100
    NCHAN 2
    FX 1
    TRACKID {8812B4C5-BAE0-464C-9957-4B68970BD3BB}
    PERF 0
    MIDIOUT -1
    MAINSEND 1 0
    <FXCHAIN
      WNDRECT 478 111 737 624
      SHOW 0
      LASTSEL 0
      DOCKED 0
      BYPASS 0 0 0
      <VST "VSTi: ReaSynth (Cockos)" reasynth.dll 0 "" 1919251321<5653547265737972656173796E746800> ""
        eXNlcu9e7f4AAAAAAgAAAAEAAAAAAAAAAgAAAAAAAABEAAAAAAAAAAAAEAA=
        776t3g3wrd4AAAAAF7fROtNNIj+DwEo+2/leP85NAD8r+jQ8AAAAAAAAAD8MIJk+nu/nPn9q/D4AAAAAAAAAAAAAAAA=
        AFByb2dyYW0gMQAQAAAA
      >
      PRESETNAME "Program 1"
      FLOATPOS 0 0 0 0
      FXID {78D74DED-152F-4869-A455-155FFF056A02}
      WAK 0 0
    >
    <ITEM
      POSITION 0
      SNAPOFFS 0
      LENGTH 27.2
      LOOP 1
      ALLTAKES 0
      FADEIN 1 0 0 1 0 0 0
      FADEOUT 1 0 0 1 0 0 0
      MUTE 0 0
      SEL 0
      IGUID {5EBA16C4-8856-4524-A9F6-B82307CCCEF0}
      IID 1
      NAME "Piano - Tetris - Tetris Main Theme.mid"
      VOLPAN 1 0 1 -1
      SOFFS 0 0
      PLAYRATE 1 1 0 -1 0 0.0025
      CHANMODE 0
      GUID {C47889F4-AA0D-4A77-AA21-26B19297AD3F}
      <SOURCE MIDI
        HASDATA 1 1024 QN
        CCINTERP 32
        POOLEDEVTS {4C63EBCC-742D-4734-8C96-34ED3291EB10}
        <X 0 0 0 0 3 Piano
          /wNQaWFubw==
        >
        <X 0 0
          /1kCAAA=
        >
        <X 0 0 0 0 9 "Default MIDI Output Device"
          /wlEZWZhdWx0IE1JREkgT3V0cHV0IERldmljZQ==
        >
        E 0 c0 00 00
        E 0 b0 07 65
        E 0 b0 0a 40
        E 0 b0 07 66
        E 3 b0 65 00
        E 0 b0 64 00
        E 0 b0 65 00
        E 0 b0 64 00
        E 1 b0 06 0c
        E 0 b0 06 0c
        E 1 b0 26 00
        E 0 b0 26 00
        E 5 90 34 39
        E 536 90 40 34
        E 30 80 34 00
        E 478 90 34 35
        E 30 80 40 00
        E 475 90 40 34
        E 30 80 34 00
        E 480 90 34 37
        E 30 80 40 00
        E 480 90 40 34
        E 30 80 34 00
        E 475 90 34 35
        E 30 80 40 00
        E 475 90 40 34
        E 30 80 34 00
        E 481 90 2d 39
        E 26 80 40 00
        E 516 90 39 34
        E 30 80 2d 00
        E 478 90 2d 35
        E 30 80 39 00
        E 475 90 39 34
        E 30 80 2d 00
        E 480 90 2d 37
        E 30 80 39 00
        E 480 90 39 34
        E 30 80 2d 00
        E 475 90 2d 35
        E 30 80 39 00
        E 475 90 39 34
        E 30 80 2d 00
        E 481 90 2c 39
        E 26 80 39 00
        E 516 90 38 34
        E 30 80 2c 00
        E 478 90 2c 35
        E 30 80 38 00
        E 475 90 38 34
        E 30 80 2c 00
        E 480 90 2c 37
        E 30 80 38 00
        E 480 90 38 34
        E 30 80 2c 00
        E 475 90 2c 35
        E 30 80 38 00
        E 475 90 38 34
        E 30 80 2c 00
        E 481 90 2d 39
        E 26 80 38 00
        E 516 90 39 34
        E 30 80 2d 00
        E 478 90 2d 35
        E 30 80 39 00
        E 475 90 39 34
        E 30 80 2d 00
        E 480 90 2d 37
        E 30 80 39 00
        E 480 90 39 34
        E 30 80 2d 00
        E 475 90 2f 2d
        E 0 90 3b 3b
        E 30 80 39 00
        E 183 b0 07 6e
        E 229 80 3b 00
        E 63 90 30 2c
        E 0 90 3c 3a
        E 30 80 2f 00
        E 414 80 3c 00
        E 67 90 32 39
        E 26 80 30 00
        E 516 90 3e 34
        E 30 80 32 00
        E 478 90 32 35
        E 30 80 3e 00
        E 475 90 3e 34
        E 30 80 32 00
        E 480 90 32 37
        E 30 80 3e 00
        E 480 90 3e 34
        E 30 80 32 00
        E 475 90 32 35
        E 30 80 3e 00
        E 475 90 3e 34
        E 30 80 32 00
        E 481 90 32 39
        E 26 80 3e 00
        E 516 90 3e 34
        E 30 80 32 00
        E 478 90 30 35
        E 30 80 3e 00
        E 475 90 3c 34
        E 30 80 30 00
        E 480 90 30 37
        E 30 80 3c 00
        E 480 90 3c 34
        E 30 80 30 00
        E 475 90 30 35
        E 30 80 3c 00
        E 475 90 3c 34
        E 30 80 30 00
        E 481 90 30 39
        E 26 80 3c 00
        E 516 90 3c 34
        E 30 80 30 00
        E 478 90 30 35
        E 30 80 3c 00
        E 475 90 3c 34
        E 30 80 30 00
        E 480 90 2c 37
        E 30 80 3c 00
        E 480 90 38 34
        E 30 80 2c 00
        E 475 90 2c 35
        E 30 80 38 00
        E 475 90 38 34
        E 30 80 2c 00
        E 481 90 2c 39
        E 26 80 38 00
        E 516 90 38 34
        E 30 80 2c 00
        E 478 90 2c 35
        E 30 80 38 00
        E 475 90 38 34
        E 30 80 2c 00
        E 480 90 2d 37
        E 30 80 38 00
        E 480 90 39 34
        E 30 80 2d 00
        E 475 90 2d 35
        E 30 80 39 00
        E 475 90 39 34
        E 30 80 2d 00
        E 481 90 2d 39
        E 26 80 39 00
        E 516 90 39 34
        E 30 80 2d 00
        E 478 90 2d 35
        E 30 80 39 00
        E 475 90 39 34
        E 30 80 2d 00
        E 510 80 39 00
        E 174 b0 07 66
        E 1827 90 2d 39
        E 542 90 39 34
        E 30 80 2d 00
        E 478 90 2d 35
        E 30 80 39 00
        E 475 90 39 34
        E 30 80 2d 00
        E 480 90 2d 37
        E 30 80 39 00
        E 480 90 39 34
        E 30 80 2d 00
        E 475 90 2d 35
        E 30 80 39 00
        E 475 90 39 34
        E 30 80 2d 00
        E 481 90 2c 39
        E 26 80 39 00
        E 516 90 38 34
        E 30 80 2c 00
        E 478 90 2c 35
        E 30 80 38 00
        E 475 90 38 34
        E 30 80 2c 00
        E 480 90 2c 37
        E 30 80 38 00
        E 480 90 38 34
        E 30 80 2c 00
        E 475 90 2c 35
        E 30 80 38 00
        E 475 90 38 34
        E 30 80 2c 00
        E 481 90 2d 39
        E 26 80 38 00
        E 516 90 39 34
        E 30 80 2d 00
        E 478 90 2d 35
        E 30 80 39 00
        E 475 90 39 34
        E 30 80 2d 00
        E 480 90 2d 37
        E 30 80 39 00
        E 480 90 39 34
        E 30 80 2d 00
        E 475 90 2d 35
        E 30 80 39 00
        E 475 90 39 34
        E 30 80 2d 00
        E 481 90 2c 39
        E 26 80 39 00
        E 516 90 38 34
        E 30 80 2c 00
        E 478 90 2c 35
        E 30 80 38 00
        E 475 90 38 34
        E 30 80 2c 00
        E 480 90 2c 37
        E 30 80 38 00
        E 480 90 38 34
        E 30 80 2c 00
        E 475 90 2c 35
        E 30 80 38 00
        E 475 90 38 34
        E 30 80 2c 00
        E 481 90 2d 39
        E 26 80 38 00
        E 516 90 39 34
        E 30 80 2d 00
        E 478 90 2d 35
        E 30 80 39 00
        E 475 90 39 34
        E 30 80 2d 00
        E 480 90 2d 37
        E 30 80 39 00
        E 480 90 39 34
        E 30 80 2d 00
        E 475 90 2d 35
        E 30 80 39 00
        E 475 90 39 34
        E 30 80 2d 00
        E 481 90 2c 39
        E 26 80 39 00
        E 516 90 38 34
        E 30 80 2c 00
        E 478 90 2c 35
        E 30 80 38 00
        E 475 90 38 34
        E 30 80 2c 00
        E 480 90 2c 37
        E 30 80 38 00
        E 480 90 38 34
        E 30 80 2c 00
        E 475 90 2c 35
        E 30 80 38 00
        E 475 90 38 34
        E 30 80 2c 00
        E 481 90 2d 39
        E 26 80 38 00
        E 516 90 39 34
        E 30 80 2d 00
        E 478 90 2d 35
        E 30 80 39 00
        E 475 90 39 34
        E 30 80 2d 00
        E 480 90 2d 37
        E 30 80 39 00
        E 480 90 39 34
        E 30 80 2d 00
        E 475 90 2d 35
        E 30 80 39 00
        E 475 90 39 34
        E 30 80 2d 00
        E 481 90 2c 39
        E 26 80 39 00
        E 516 90 38 34
        E 30 80 2c 00
        E 478 90 2c 35
        E 30 80 38 00
        E 475 90 38 34
        E 30 80 2c 00
        E 480 90 2c 37
        E 30 80 38 00
        E 480 90 38 34
        E 30 80 2c 00
        E 475 90 2c 35
        E 30 80 38 00
        E 475 90 38 34
        E 30 80 2c 00
        E 507 80 38 00
        E 195 b0 07 66
        E 799 b0 7b 00
        CCINTERP 32
        CHASE_CC_TAKEOFFS 1
        GUID {3822175B-79E0-4FCF-94B5-BC0E9BC88E21}
        IGNTEMPO 0 120 4 4
        SRCCOLOR 5
        VELLANE -1 100 0
        CFGEDITVIEW 0 0.030521 49 12 0 -1 0 0 0 0.5
        KEYSNAP 0
        TRACKSEL 0
        EVTFILTER 0 -1 -1 -1 -1 0 0 0 0 -1 -1 -1 -1 0 -1 0 -1 -1
        CFGEDIT 1 1 0 1 0 0 1 1 1 1 1 0.125 630 186 1581 1015 0 0 0 0 0 0 0 0 0 0.5 0 0 1 64
      >
    >
  >
  <TRACK {5BDB184D-7DCC-4AF6-9408-008B2B59F90C}
    NAME Piano
    PEAKCOL 16576
    BEAT -1
    AUTOMODE 0
    VOLPAN 1 0 -1 -1 1
    MUTESOLO 0 0 0
    IPHASE 0
    PLAYOFFS 0 1
    ISBUS 0 0
    BUSCOMP 0 0 0 0 0
    SHOWINMIX 1 0.6667 0.5 1 0.5 -1 -1 -1
    FREEMODE 0
    SEL 0
    REC 0 4096 1 0 0 0 0
    VU 2
    TRACKHEIGHT 0 0 0 0 0 0
    INQ 0 0 0 0.5 100 0 0 100
    NCHAN 2
    FX 1
    TRACKID {5BDB184D-7DCC-4AF6-9408-008B2B59F90C}
    PERF 0
    MIDIOUT -1
    MAINSEND 1 0
    <FXCHAIN
      WNDRECT 478 111 737 624
      SHOW 0
      LASTSEL 0
      DOCKED 0
      BYPASS 0 0 0
      <VST "VSTi: ReaSynth (Cockos)" reasynth.dll 0 "" 1919251321<5653547265737972656173796E746800> ""
        eXNlcu9e7f4AAAAAAgAAAAEAAAAAAAAAAgAAAAAAAABEAAAAAAAAAAAAEAA=
        776t3g3wrd4AAAAAF7fROtNNIj+DwEo+2/leP85NAD8r+jQ8AAAAAAAAAD8MIJk+nu/nPn9q/D4AAAAAAAAAAAAAAAA=
        AFByb2dyYW0gMQAQAAAA
      >
      PRESETNAME "Program 1"
      FLOATPOS 0 0 0 0
      FXID {351E8C59-1994-4E88-82BE-08507E969044}
      WAK 0 0
    >
    <ITEM
      POSITION 0
      SNAPOFFS 0
      LENGTH 27.2
      LOOP 1
      ALLTAKES 0
      FADEIN 1 0 0 1 0 0 0
      FADEOUT 1 0 0 1 0 0 0
      MUTE 0 0
      SEL 0
      IGUID {7AB51080-91BB-413A-A39F-14166A044C7E}
      IID 3
      NAME "Piano untitled MIDI item"
      VOLPAN 1 0 1 -1
      SOFFS 0 0
      PLAYRATE 1 1 0 -1 0 0.0025
      CHANMODE 0
      GUID {67BACFB0-B9B9-4A3F-B764-E21AA49B7E50}
      <SOURCE MIDI
        HASDATA 1 960 QN
        CCINTERP 32
        POOLEDEVTS {CE29BCA7-9F9A-4EED-A736-7FB4CD3CE15B}
        e 0 b0 07 66
        e 0 90 4c 45
        e 978 80 4c 00
        e 1 90 47 41
        e 444 80 47 00
        e 29 90 48 40
        e 449 80 48 00
        e 29 90 4a 43
        e 951 80 4a 00
        e 1 90 48 41
        e 444 80 48 00
        e 29 90 47 40
        e 447 80 47 00
        e 32 90 45 45
        e 984 80 45 00
        e 1 90 45 41
        e 444 80 45 00
        e 29 90 48 40
        e 449 80 48 00
        e 29 90 4c 43
        e 951 80 4c 00
        e 1 90 4a 41
        e 444 80 4a 00
        e 29 90 48 40
        e 447 80 48 00
        e 32 90 47 45
        e 984 80 47 00
        e 1 90 47 41
        e 444 80 47 00
        e 29 90 48 40
        e 449 80 48 00
        e 29 90 4a 43
        e 951 80 4a 00
        e 1 90 4c 41
        e 948 80 4c 00
        e 4 90 48 45
        e 984 80 48 00
        e 1 90 45 41
        e 950 80 45 00
        e 1 90 45 43
        e 951 80 45 00
        e 1938 90 4a 41
        e 950 80 4a 00
        e 1 90 4d 43
        e 449 80 4d 00
        e 29 90 51 40
        e 918 80 51 00
        e 508 90 4f 45
        e 479 80 4f 00
        e 30 90 4d 40
        e 447 80 4d 00
        e 29 90 4c 41
        e 1902 80 4c 00
        e 1 90 48 41
        e 444 80 48 00
        e 29 90 4c 40
        e 1463 80 4c 00
        e 1 90 4a 41
        e 452 80 4a 00
        e 21 90 48 40
        e 449 80 48 00
        e 29 90 47 43
        e 1421 80 47 00
        e 4 90 48 40
        e 447 80 48 00
        e 32 90 4a 45
        e 956 80 4a 00
        e 29 90 4c 41
        e 950 80 4c 00
        e 1 90 48 43
        e 951 80 48 00
        e 1 90 45 41
        e 948 80 45 00
        e 4 90 45 45
        e 984 80 45 00
        e 2856 90 4c 45
        e 1935 80 4c 00
        e 1 90 48 43
        e 1900 80 48 00
        e 4 90 4a 45
        e 1935 80 4a 00
        e 1 90 47 43
        e 1900 80 47 00
        e 4 90 48 45
        e 1935 80 48 00
        e 1 90 45 43
        e 1900 80 45 00
        e 4 90 44 45
        e 1935 80 44 00
        e 1 90 47 43
        e 1900 80 47 00
        e 4 90 4c 45
        e 1935 80 4c 00
        e 1 90 48 43
        e 1900 80 48 00
        e 4 90 4a 45
        e 1935 80 4a 00
        e 1 90 47 43
        e 1900 80 47 00
        e 4 90 48 45
        e 984 80 48 00
        e 1 90 4c 41
        e 950 80 4c 00
        e 1 90 51 43
        e 1900 80 51 00
        e 4 90 50 40
        e 3836 80 50 00
        E 0 b0 7b 00 -65030
        CCINTERP 32
        CHASE_CC_TAKEOFFS 1
        GUID {8273EC02-033D-4E48-BB41-B5C40F09C4C6}
        IGNTEMPO 0 120 4 4
        SRCCOLOR 7
        VELLANE -1 100 0
        CFGEDITVIEW 0 0.033463 37 12 0 -1 0 0 0 0.5
        KEYSNAP 0
        TRACKSEL 0
        EVTFILTER 0 -1 -1 -1 -1 0 0 0 0 -1 -1 -1 -1 0 -1 0 -1 -1
        CFGEDIT 1 1 0 1 0 0 1 1 1 1 1 0.125 851 156 1802 985 0 0 0 0 0 0 0 0 0 0.5 0 0 1 64
      >
    >
  >
  <TRACK {3596D187-455B-4596-8940-4FE4A031AA04}
    NAME Piano
    PEAKCOL 16576
    BEAT -1
    AUTOMODE 0
    VOLPAN 1 0 -1 -1 1
    MUTESOLO 0 0 0
    IPHASE 0
    PLAYOFFS 0 1
    ISBUS 0 0
    BUSCOMP 0 0 0 0 0
    SHOWINMIX 1 0.6667 0.5 1 0.5 -1 -1 -1
    FREEMODE 0
    SEL 0
    REC 0 4096 1 0 0 0 0
    VU 2
    TRACKHEIGHT 0 0 0 0 0 0
    INQ 0 0 0 0.5 100 0 0 100
    NCHAN 2
    FX 1
    TRACKID {3596D187-455B-4596-8940-4FE4A031AA04}
    PERF 0
    MIDIOUT -1
    MAINSEND 1 0
    <FXCHAIN
      WNDRECT 478 111 737 624
      SHOW 0
      LASTSEL 0
      DOCKED 0
      BYPASS 0 0 0
      <VST "VSTi: ReaSynth (Cockos)" reasynth.dll 0 "" 1919251321<5653547265737972656173796E746800> ""
        eXNlcu9e7f4AAAAAAgAAAAEAAAAAAAAAAgAAAAAAAABEAAAAAAAAAAAAEAA=
        776t3g3wrd4AAAAAF7fROtNNIj+DwEo+2/leP85NAD8r+jQ8AAAAAAAAAD8MIJk+nu/nPn9q/D4AAAAAAAAAAAAAAAA=
        AFByb2dyYW0gMQAQAAAA
      >
      PRESETNAME "Program 1"
      FLOATPOS 0 0 0 0
      FXID {B5CD1AA7-8A9D-4795-8711-5A0F69F06FC4}
      WAK 0 0
    >
    <ITEM
      POSITION 0
      SNAPOFFS 0
      LENGTH 27.2
      LOOP 1
      ALLTAKES 0
      FADEIN 1 0 0 1 0 0 0
      FADEOUT 1 0 0 1 0 0 0
      MUTE 0 0
      SEL 0
      IGUID {F032114C-D49C-400E-B1C1-7D4F561CCBEE}
      IID 3
      NAME "Piano untitled MIDI item"
      VOLPAN 1 0 1 -1
      SOFFS 0 0
      PLAYRATE 1 1 0 -1 0 0.0025
      CHANMODE 0
      GUID {36BFE86C-E053-49E1-B649-69EFF2D19943}
      <SOURCE MIDI
        HASDATA 1 960 QN
        CCINTERP 32
        POOLEDEVTS {983CF0E3-F1BD-4CF8-9D65-5E3C37A18C67}
        E 0 90 40 45
        E 960 80 40 00
        E 0 90 39 42
        E 960 80 39 00
        E 0 90 40 42
        E 480 80 40 00
        E 0 90 39 42
        E 480 80 39 00
        E 0 90 3e 42
        E 960 80 3e 00
        E 0 90 3d 42
        E 480 80 3d 00
        E 0 90 3b 42
        E 960 80 3b 00
        E 0 90 3b 42
        E 480 80 3b 00
        E 0 90 3e 42
        E 480 80 3e 00
        E 0 90 40 45
        E 960 80 40 00
        E 0 90 39 42
        E 960 80 39 00
        E 0 90 40 42
        E 480 80 40 00
        E 0 90 39 42
        E 480 80 39 00
        E 0 90 3e 42
        E 960 80 3e 00
        E 0 90 3d 42
        E 480 80 3d 00
        E 0 90 3b 42
        E 960 80 3b 00
        E 0 90 3b 42
        E 480 80 3b 00
        E 0 90 3e 42
        E 480 80 3e 00
        E 6714 90 4f 45
        E 479 80 4f 00
        E 30 90 4d 40
        E 447 80 4d 00
        E 29 90 4c 41
        E 1902 80 4c 00
        E 1 90 48 41
        E 444 80 48 00
        E 29 90 4c 40
        E 1463 80 4c 00
        E 1 90 4a 41
        E 452 80 4a 00
        E 21 90 48 40
        E 449 80 48 00
        E 29 90 47 43
        E 1421 80 47 00
        E 4 90 48 40
        E 447 80 48 00
        E 32 90 4a 45
        E 956 80 4a 00
        E 29 90 4c 41
        E 950 80 4c 00
        E 1 90 48 43
        E 951 80 48 00
        E 1 90 45 41
        E 948 80 45 00
        E 4 90 45 45
        E 984 80 45 00
        E 2856 90 4c 45
        E 1935 80 4c 00
        E 1 90 48 43
        E 1900 80 48 00
        E 4 90 4a 45
        E 1935 80 4a 00
        E 1 90 47 43
        E 1900 80 47 00
        E 4 90 48 45
        E 1935 80 48 00
        E 1 90 45 43
        E 1900 80 45 00
        E 4 90 44 45
        E 1935 80 44 00
        E 1 90 47 43
        E 1900 80 47 00
        E 4 90 4c 45
        E 1935 80 4c 00
        E 1 90 48 43
        E 1900 80 48 00
        E 4 90 4a 45
        E 1935 80 4a 00
        E 1 90 47 43
        E 1900 80 47 00
        E 4 90 48 45
        E 984 80 48 00
        E 1 90 4c 41
        E 950 80 4c 00
        E 1 90 51 43
        E 1900 80 51 00
        E 4 90 50 40
        E 3836 80 50 00
        E 0 b0 7b 00
        CCINTERP 32
        CHASE_CC_TAKEOFFS 1
        GUID {8273EC02-033D-4E48-BB41-B5C40F09C4C6}
        IGNTEMPO 0 120 4 4
        SRCCOLOR 7
        VELLANE -1 100 0
        CFGEDITVIEW 11970.557823 0.05935 37 12 0 -1 0 0 0 0.5
        KEYSNAP 0
        TRACKSEL 0
        EVTFILTER 0 -1 -1 -1 -1 0 0 0 0 -1 -1 -1 -1 0 -1 0 -1 -1
        CFGEDIT 1 1 0 1 0 0 1 1 1 1 1 0.125 491 252 1442 1081 0 0 0 0 0 0 0 0 0 0.5 0 0 1 64
      >
    >
  >
  <TRACK {6DD9C7FA-B9BF-41B5-92A0-E3314AEFB6E8}
    NAME Melodia
    PEAKCOL 16576
    BEAT -1
    AUTOMODE 0
    VOLPAN 1 0 -1 -1 1
    MUTESOLO 0 2 0
    IPHASE 0
    PLAYOFFS 0 1
    ISBUS 0 0
    BUSCOMP 0 0 0 0 0
    SHOWINMIX 1 0.6667 0.5 1 0.5 -1 -1 -1
    FREEMODE 0
    SEL 0
    REC 0 4096 1 0 0 0 0
    VU 2
    TRACKHEIGHT 0 0 0 0 0 0
    INQ 0 0 0 0.5 100 0 0 100
    NCHAN 2
    FX 1
    TRACKID {6DD9C7FA-B9BF-41B5-92A0-E3314AEFB6E8}
    PERF 0
    MIDIOUT -1
    MAINSEND 1 0
    <FXCHAIN
      WNDRECT 927 114 737 624
      SHOW 0
      LASTSEL 0
      DOCKED 0
      BYPASS 0 0 0
      <VST "VSTi: ReaSynth (Cockos)" reasynth.dll 0 "" 1919251321<5653547265737972656173796E746800> ""
        eXNlcu9e7f4AAAAAAgAAAAEAAAAAAAAAAgAAAAAAAABEAAAAAAAAAAAAEAA=
        776t3g3wrd4AAAAAF7fROtNNIj+DwEo+2/leP85NAD8r+jQ8AAAAAAAAAD8MIJk+nu/nPgAAAD8AAAAAAAAAAAAAAAA=
        AAAQAAAA
      >
      FLOATPOS 0 0 0 0
      FXID {FCB63F24-3347-45E0-A21B-CC94F6E66133}
      WAK 0 0
    >
    <ITEM
      POSITION 0
      SNAPOFFS 0
      LENGTH 56.8
      LOOP 1
      ALLTAKES 0
      FADEIN 1 0 0 1 0 0 0
      FADEOUT 1 0 0 1 0 0 0
      MUTE 0 0
      SEL 0
      IGUID {F82827AA-D8A7-4BFD-A983-C3CBFB4DC6A4}
      IID 37
      NAME melodia
      VOLPAN 1 0 1 -1
      SOFFS 0 0
      PLAYRATE 1 1 0 -1 0 0.0025
      CHANMODE 0
      GUID {B8A35BE3-DBBC-49BA-ACCE-6634CCB3DBC6}
      <SOURCE MIDI
        HASDATA 1 960 QN
        CCINTERP 32
        POOLEDEVTS {058EA697-0951-48F7-A424-DBBDB2A22B21}
        e 0 90 49 40
        e 960 80 49 00
        e 0 90 4b 40
        e 960 80 4b 00
        e 0 90 4e 40
        e 960 80 4e 00
        e 0 90 50 40
        e 960 80 50 00
        e 0 90 50 40
        e 480 80 50 00
        e 480 90 4e 40
        e 480 80 4e 00
        e 0 90 4b 40
        e 480 80 4b 00
        e 480 90 50 40
        e 960 80 50 00
        e 0 90 50 40
        e 480 80 50 00
        e 480 90 4e 40
        e 480 80 4e 00
        e 0 90 50 40
        e 480 80 50 00
        e 480 90 4e 40
        e 480 80 4e 00
        e 480 90 4b 40
        e 960 80 4b 00
        e 0 90 4e 40
        e 960 80 4e 00
        e 0 90 50 40
        e 960 80 50 00
        e 0 90 50 40
        e 480 80 50 00
        e 480 90 4e 40
        e 480 80 4e 00
        e 0 90 4b 40
        e 480 80 4b 00
        e 480 90 50 40
        e 960 80 50 00
        e 0 90 50 40
        e 480 80 50 00
        e 480 90 4e 40
        e 480 80 4e 00
        e 0 90 50 40
        e 480 80 50 00
        e 480 90 4e 40
        e 480 80 4e 00
        e 480 90 4b 40
        e 960 80 4b 00
        e 0 90 49 40
        e 480 80 49 00
        e 0 90 46 40
        e 960 80 46 00
        e 0 90 44 40
        e 480 80 44 00
        e 0 90 44 40
        e 960 80 44 00
        e 480 90 44 40
        e 480 80 44 00
        e 0 90 46 40
        e 960 80 46 00
        e 0 90 42 40
        e 480 80 42 00
        e 0 90 42 40
        e 480 80 42 00
        e 0 90 42 40
        e 480 80 42 00
        e 480 90 3f 40
        e 480 80 3f 00
        e 0 90 3f 40
        e 480 80 3f 00
        e 0 90 3f 40
        e 480 80 3f 00
        e 480 90 3d 40
        e 480 80 3d 00
        e 0 90 3d 40
        e 480 80 3d 00
        e 0 90 3d 40
        e 480 80 3d 00
        e 480 90 3f 40
        e 480 80 3f 00
        e 0 90 42 40
        e 480 80 42 00
        e 0 90 44 40
        e 480 80 44 00
        e 0 90 46 40
        e 960 80 46 00
        e 0 90 46 40
        e 480 80 46 00
        E 0 b0 7b 00 -34320
        CCINTERP 32
        CHASE_CC_TAKEOFFS 1
        GUID {81B046A4-047B-483F-ACAE-2E11A51773FA}
        IGNTEMPO 0 120 4 4
        SRCCOLOR 132
        VELLANE -1 100 0
        CFGEDITVIEW 0 0.046854 28 12 0 -1 0 0 0 0.5
        KEYSNAP 0
        TRACKSEL 0
        EVTFILTER 0 -1 -1 -1 -1 0 0 0 0 -1 -1 -1 -1 0 -1 0 -1 -1
        CFGEDIT 1 1 0 1 0 0 1 1 1 1 1 0.125 622 2 1557 815 0 0 0 0 0 0 0 1 0 0.5 0 0 1 64
      >
    >
  >
  <TRACK {3EB059C9-49A7-49E1-B3AA-D7CDBA58AB30}
    NAME "R-Type - r-type1.mid R-Type [meta-events] R-Type [meta-events]"
    PEAKCOL 16576
    BEAT -1
    AUTOMODE 0
    VOLPAN 1 0 -1 -1 1
    MUTESOLO 0 0 0
    IPHASE 0
    PLAYOFFS 0 1
    ISBUS 0 0
    BUSCOMP 0 0 0 0 0
    SHOWINMIX 1 0.6667 0.5 1 0.5 -1 -1 -1
    FREEMODE 0
    SEL 0
    REC 0 0 1 0 0 0 0
    VU 2
    TRACKHEIGHT 0 0 0 0 0 0
    INQ 0 0 0 0.5 100 0 0 100
    NCHAN 2
    FX 1
    TRACKID {3EB059C9-49A7-49E1-B3AA-D7CDBA58AB30}
    PERF 0
    MIDIOUT -1
    MAINSEND 1 0
    <FXCHAIN
      WNDRECT 35 79 737 624
      SHOW 0
      LASTSEL 0
      DOCKED 0
      BYPASS 0 0 0
      <VST "VSTi: ReaSynth (Cockos)" reasynth.dll 0 "" 1919251321<5653547265737972656173796E746800> ""
        eXNlcu9e7f4AAAAAAgAAAAEAAAAAAAAAAgAAAAAAAABEAAAAAAAAAAAAEAA=
        776t3g3wrd6mm8Q7F7fROgAAAAAAAAAAAAAAAM5NAD/pZ4g9AAAAAAAAAD8AAIA/AACAPwAAAD8AAAAAAAAAAAAAAAA=
        AAAQAAAA
      >
      FLOATPOS 0 0 0 0
      FXID {C684156F-F83E-4022-8EA1-92569FE4B5E9}
      WAK 0 0
    >
  >
  <TRACK {1D105FA3-3F06-4E60-84C6-6BC6A5718422}
    NAME "R-Type - r-type1.mid [chan 1] [chan 1]"
    PEAKCOL 16576
    BEAT -1
    AUTOMODE 0
    VOLPAN 1 0 -1 -1 1
    MUTESOLO 0 0 0
    IPHASE 0
    PLAYOFFS 0 1
    ISBUS 0 0
    BUSCOMP 0 0 0 0 0
    SHOWINMIX 1 0.6667 0.5 1 0.5 -1 -1 -1
    FREEMODE 0
    SEL 0
    REC 0 0 1 0 0 0 0
    VU 2
    TRACKHEIGHT 0 0 0 0 0 0
    INQ 0 0 0 0.5 100 0 0 100
    NCHAN 2
    FX 1
    TRACKID {1D105FA3-3F06-4E60-84C6-6BC6A5718422}
    PERF 0
    MIDIOUT -1
    MAINSEND 1 0
    <FXCHAIN
      WNDRECT 23 51 737 624
      SHOW 0
      LASTSEL 0
      DOCKED 0
      BYPASS 0 0 0
      <VST "VSTi: ReaSynth (Cockos)" reasynth.dll 0 "" 1919251321<5653547265737972656173796E746800> ""
        eXNlcu9e7f4AAAAAAgAAAAEAAAAAAAAAAgAAAAAAAABEAAAAAAAAAAAAEAA=
        776t3g3wrd4AAAAAF7fROtNNIj+DwEo+2/leP85NAD8r+jQ8AAAAAAAAAD8MIJk+nu/nPgAAAD8AAAAAAAAAAAAAAAA=
        AAAQAAAA
      >
      FLOATPOS 0 0 0 0
      FXID {4CA783CD-AEFA-453A-A0AD-114669095314}
      WAK 0 0
    >
    <ITEM
      POSITION 35.59999999999047
      SNAPOFFS 0
      LENGTH 143.19999999999087
      LOOP 1
      ALLTAKES 0
      FADEIN 1 0 0 1 0 0 0
      FADEOUT 1 0 0 1 0 0 0
      MUTE 0 0
      SEL 0
      IGUID {F3B4155A-E11F-49D7-A0D3-ED9080F79B91}
      IID 28
      NAME "R-Type - r-type1.mid [chan 2]"
      VOLPAN 1 0 1 -1
      SOFFS 0 0
      PLAYRATE 1 1 0 -1 0 0.0025
      CHANMODE 0
      GUID {3A9BD41A-0ADD-4AE6-9282-581A2D261831}
      <SOURCE MIDI
        HASDATA 1 960 QN
        CCINTERP 32
        POOLEDEVTS {10E047B3-4FC8-477F-AFEF-9DD8C06B3EAA}
        E 0 c1 1d 00
        E 0 b1 0a 40
        E 0 b1 5b 21
        E 0 b1 5d 1b
        E 0 b1 07 02
        E 0 b1 64 00
        E 0 b1 65 00
        E 0 b1 06 20
        E 0 91 48 64
        E 60 b1 07 04
        E 60 b1 07 06
        E 60 b1 07 08
        E 60 b1 07 0a
        E 60 b1 07 0c
        E 60 b1 07 0e
        E 60 b1 07 10
        E 60 b1 07 12
        E 60 b1 07 14
        E 60 b1 07 16
        E 60 b1 07 18
        E 60 b1 07 1a
        E 60 b1 07 1c
        E 60 b1 07 1e
        E 60 b1 07 20
        E 60 b1 07 22
        E 60 b1 07 24
        E 60 b1 07 26
        E 60 b1 07 28
        E 60 b1 07 2a
        E 60 b1 07 2c
        E 60 b1 07 2e
        E 60 b1 07 30
        E 60 b1 07 32
        E 60 b1 07 34
        E 60 b1 07 36
        E 60 b1 07 38
        E 60 b1 07 3a
        E 60 b1 07 3c
        E 60 b1 07 3e
        E 60 b1 07 40
        E 60 b1 07 41
        E 60 b1 07 43
        E 60 b1 07 45
        E 60 b1 07 47
        E 60 b1 07 49
        E 60 b1 07 4b
        E 60 b1 07 4d
        E 60 b1 07 4f
        E 60 b1 07 51
        E 60 b1 07 53
        E 60 b1 07 55
        E 60 b1 07 57
        E 60 b1 07 59
        E 60 b1 07 5b
        E 60 b1 07 5d
        E 60 b1 07 5f
        E 60 b1 07 61
        E 60 b1 07 63
        E 60 b1 07 65
        E 60 b1 07 67
        E 60 b1 07 69
        E 60 b1 07 6b
        E 60 b1 07 6d
        E 60 b1 07 6f
        E 60 b1 07 71
        E 60 b1 07 73
        E 60 b1 07 75
        E 60 b1 07 77
        E 60 b1 07 79
        E 60 b1 07 7b
        E 60 b1 07 7d
        E 120 b1 07 7f
        E 0 81 48 50
        E 0 91 35 64
        E 120 81 35 50
        E 0 91 39 64
        E 120 81 39 50
        E 0 91 3e 64
        E 120 81 3e 50
        E 0 91 41 64
        E 120 81 41 50
        E 0 91 39 64
        E 120 81 39 50
        E 0 91 3e 64
        E 120 81 3e 50
        E 0 91 41 64
        E 120 81 41 50
        E 0 91 45 64
        E 120 81 45 50
        E 0 91 3e 64
        E 120 81 3e 50
        E 0 91 41 64
        E 120 81 41 50
        E 0 91 45 64
        E 120 81 45 50
        E 0 91 4a 64
        E 120 81 4a 50
        E 0 91 41 64
        E 120 81 41 50
        E 0 91 45 64
        E 120 81 45 50
        E 0 91 4a 64
        E 120 81 4a 50
        E 0 91 4d 64
        E 120 81 4d 50
        E 0 91 45 64
        E 120 81 45 50
        E 0 91 4a 64
        E 120 81 4a 50
        E 0 91 4d 64
        E 120 81 4d 50
        E 0 91 51 64
        E 120 81 51 50
        E 0 91 4a 64
        E 120 81 4a 50
        E 0 91 4d 64
        E 120 81 4d 50
        E 0 91 51 64
        E 120 81 51 50
        E 0 91 56 64
        E 120 81 56 50
        E 0 91 4d 64
        E 120 81 4d 50
        E 0 91 51 64
        E 120 81 51 50
        E 0 91 56 64
        E 120 81 56 50
        E 0 91 59 64
        E 120 81 59 50
        E 0 91 51 64
        E 120 81 51 50
        E 0 91 56 64
        E 120 81 56 50
        E 0 91 59 64
        E 120 81 59 50
        E 0 91 5d 64
        E 120 81 5d 50
        E 0 91 62 64
        E 634 81 62 50
        E 19 b1 0a 00
        E 0 91 4a 64
        E 0 91 45 64
        E 204 b1 0a 02
        E 204 b1 0a 04
        E 204 b1 0a 06
        E 204 b1 0a 08
        E 211 b1 0a 0a
        E 240 b1 0a 0c
        E 0 81 45 50
        E 0 91 4d 64
        E 0 91 48 64
        E 14 81 4a 50
        E 226 b1 0a 0e
        E 240 b1 0a 10
        E 240 b1 0a 12
        E 240 b1 0a 14
        E 240 b1 0a 16
        E 226 81 4d 50
        E 14 b1 0a 18
        E 0 81 48 50
        E 0 91 4f 64
        E 0 91 4a 64
        E 240 b1 0a 1a
        E 0 81 4f 50
        E 0 91 51 64
        E 240 b1 0a 1c
        E 0 81 51 50
        E 0 91 4f 64
        E 240 b1 0a 1e
        E 240 b1 0a 20
        E 240 b1 0a 22
        E 240 b1 0a 24
        E 240 b1 0a 26
        E 240 b1 0a 28
        E 240 b1 0a 2a
        E 240 b1 0a 2c
        E 240 b1 0a 2e
        E 240 b1 0a 30
        E 0 81 4a 50
        E 0 91 3e 64
        E 0 91 43 64
        E 240 b1 0a 32
        E 240 b1 0a 34
        E 240 b1 0a 36
        E 240 b1 0a 38
        E 0 81 3e 50
        E 0 81 43 50
        E 0 91 41 64
        E 0 91 3c 64
        E 240 b1 0a 3a
        E 240 b1 0a 3c
        E 240 b1 0a 3e
        E 240 b1 0a 40
        E 0 81 41 50
        E 0 81 3c 50
        E 0 91 45 64
        E 0 91 4a 64
        E 14 81 4f 50
        E 226 b1 0a 41
        E 240 b1 0a 43
        E 240 b1 0a 45
        E 240 b1 0a 47
        E 240 b1 0a 49
        E 240 b1 0a 4b
        E 0 81 45 50
        E 0 91 4d 64
        E 0 91 48 64
        E 14 81 4a 50
        E 226 b1 0a 4d
        E 240 b1 0a 4f
        E 240 b1 0a 51
        E 240 b1 0a 53
        E 240 b1 0a 55
        E 226 81 4d 50
        E 14 b1 0a 57
        E 0 81 48 50
        E 0 91 4f 64
        E 0 91 4a 64
        E 240 b1 0a 59
        E 0 81 4f 50
        E 0 91 51 64
        E 240 b1 0a 5b
        E 0 81 51 50
        E 0 91 4f 64
        E 240 b1 0a 5d
        E 240 b1 0a 5f
        E 240 b1 0a 61
        E 240 b1 0a 63
        E 240 b1 0a 65
        E 240 b1 0a 67
        E 240 b1 0a 69
        E 240 b1 0a 6b
        E 240 b1 0a 6d
        E 240 b1 0a 6f
        E 0 81 4a 50
        E 0 91 3e 64
        E 0 91 43 64
        E 240 b1 0a 71
        E 240 b1 0a 73
        E 240 b1 0a 75
        E 240 b1 0a 77
        E 0 81 3e 50
        E 0 81 43 50
        E 0 91 41 64
        E 0 91 3c 64
        E 240 b1 0a 79
        E 240 b1 0a 7b
        E 240 b1 0a 7d
        E 240 b1 0a 7f
        E 0 81 41 50
        E 0 81 3c 50
        E 0 91 45 64
        E 0 91 4a 64
        E 0 91 3e 64
        E 14 81 4f 50
        E 226 b1 0a 7d
        E 240 b1 0a 7b
        E 240 b1 0a 79
        E 240 b1 0a 77
        E 240 b1 0a 75
        E 226 81 3e 50
        E 14 b1 0a 73
        E 0 81 45 50
        E 0 91 4d 64
        E 0 91 48 64
        E 0 91 41 64
        E 14 81 4a 50
        E 226 b1 0a 71
        E 240 b1 0a 6f
        E 240 b1 0a 6d
        E 240 b1 0a 6b
        E 240 b1 0a 69
        E 226 81 4d 50
        E 14 b1 0a 67
        E 0 81 48 50
        E 0 91 4f 64
        E 0 91 4a 64
        E 0 91 43 64
        E 14 81 41 50
        E 226 b1 0a 65
        E 0 81 4f 50
        E 0 91 51 64
        E 240 b1 0a 63
        E 0 81 51 50
        E 0 91 4f 64
        E 240 b1 0a 61
        E 240 b1 0a 5f
        E 240 b1 0a 5d
        E 240 b1 0a 5b
        E 240 b1 0a 59
        E 240 b1 0a 57
        E 240 b1 0a 55
        E 240 b1 0a 53
        E 240 b1 0a 51
        E 240 b1 0a 4f
        E 0 81 4a 50
        E 0 81 43 50
        E 0 91 3e 64
        E 0 91 43 64
        E 240 b1 0a 4d
        E 240 b1 0a 4b
        E 240 b1 0a 49
        E 240 b1 0a 47
        E 0 81 3e 50
        E 0 81 43 50
        E 0 91 41 64
        E 0 91 3c 64
        E 240 b1 0a 45
        E 240 b1 0a 43
        E 240 b1 0a 41
        E 240 b1 0a 40
        E 0 81 41 50
        E 0 81 3c 50
        E 0 91 45 64
        E 0 91 4a 64
        E 0 91 3d 64
        E 14 81 4f 50
        E 106 81 3d 50
        E 0 91 3e 64
        E 120 b1 0a 3e
        E 240 b1 0a 3c
        E 240 b1 0a 3a
        E 240 b1 0a 38
        E 240 b1 0a 36
        E 240 b1 0a 34
        E 0 81 45 50
        E 0 91 4d 64
        E 0 91 48 64
        E 0 91 40 64
        E 4 81 3e 50
        E 10 81 4a 50
        E 106 81 40 50
        E 0 91 41 64
        E 120 b1 0a 32
        E 240 b1 0a 30
        E 240 b1 0a 2e
        E 240 b1 0a 2c
        E 240 b1 0a 2a
        E 226 81 4d 50
        E 14 b1 0a 28
        E 0 81 48 50
        E 0 91 4a 64
        E 0 91 5a 64
        E 0 91 55 64
        E 4 81 41 50
        E 116 81 5a 50
        E 0 81 55 50
        E 0 91 5b 64
        E 0 91 56 64
        E 120 b1 0a 26
        E 240 b1 0a 24
        E 240 b1 0a 22
        E 240 b1 0a 20
        E 240 b1 0a 1e
        E 240 b1 0a 1c
        E 240 b1 0a 1a
        E 240 b1 0a 18
        E 240 b1 0a 16
        E 240 b1 0a 14
        E 240 b1 0a 12
        E 240 b1 0a 10
        E 0 81 4a 50
        E 0 91 3e 64
        E 0 91 43 64
        E 240 b1 0a 0e
        E 240 b1 0a 0c
        E 240 b1 0a 0a
        E 240 b1 0a 08
        E 0 81 3e 50
        E 0 81 43 50
        E 0 91 41 64
        E 0 91 3c 64
        E 240 b1 0a 06
        E 240 b1 0a 04
        E 240 b1 0a 02
        E 230 81 56 50
        e 10 b1 0a 00
        E 0 81 41 50
        E 0 81 3c 50
        e 0 91 4d 64
        e 0 91 41 64
        e 0 91 35 64
        E 18 81 5b 50
        e 222 b1 0a 02
        e 0 81 4d 50
        e 0 81 41 50
        e 0 91 41 64
        e 0 91 4d 64
        e 240 b1 0a 04
        e 0 81 41 50
        e 240 b1 0a 06
        e 0 81 4d 50
        e 0 91 40 64
        e 0 91 4c 64
        e 240 b1 0a 08
        e 0 81 40 50
        e 0 81 4c 50
        e 0 91 40 64
        e 0 91 4c 64
        e 240 b1 0a 0a
        e 0 81 40 50
        e 240 b1 0a 0c
        e 0 81 4c 50
        e 0 91 3e 64
        e 0 91 4a 64
        e 240 b1 0a 0e
        e 0 81 3e 50
        e 0 81 4a 50
        e 0 91 3e 64
        e 0 91 4a 64
        e 240 b1 0a 10
        e 0 81 3e 50
        e 240 b1 0a 12
        e 0 81 4a 50
        e 0 91 3c 64
        e 0 91 48 64
        e 240 b1 0a 14
        e 0 81 3c 50
        e 0 81 48 50
        e 0 91 3c 64
        e 0 91 48 64
        e 240 b1 0a 16
        e 0 81 3c 50
        e 240 b1 0a 18
        e 0 81 48 50
        e 0 91 3b 64
        e 0 91 47 64
        e 240 b1 0a 1a
        e 226 81 3b 50
        e 0 81 47 50
        e 14 b1 0a 1c
        e 0 91 3c 64
        e 0 91 48 64
        e 240 b1 0a 1e
        e 240 b1 0a 20
        e 0 81 35 50
        e 0 91 41 64
        e 0 91 4d 64
        e 0 91 35 64
        e 14 81 3c 50
        e 0 81 48 50
        e 226 b1 0a 22
        e 0 81 41 50
        e 0 81 4d 50
        e 0 91 41 64
        e 0 91 4d 64
        e 240 b1 0a 24
        e 0 81 41 50
        e 240 b1 0a 26
        e 0 81 4d 50
        e 0 91 40 64
        e 0 91 4c 64
        e 240 b1 0a 28
        e 0 81 40 50
        e 0 81 4c 50
        e 0 91 40 64
        e 0 91 4c 64
        e 240 b1 0a 2a
        e 0 81 40 50
        e 240 b1 0a 2c
        e 0 81 4c 50
        e 0 91 3e 64
        e 0 91 4a 64
        e 240 b1 0a 2e
        e 0 81 3e 50
        e 0 81 4a 50
        e 0 91 3e 64
        e 0 91 4a 64
        e 240 b1 0a 30
        e 0 81 3e 50
        e 240 b1 0a 32
        e 0 81 4a 50
        e 0 91 3c 64
        e 0 91 48 64
        e 240 b1 0a 34
        e 0 81 3c 50
        e 0 81 48 50
        e 0 91 3c 64
        e 0 91 48 64
        e 240 b1 0a 36
        e 0 81 3c 50
        e 240 b1 0a 38
        e 0 81 48 50
        e 0 91 3b 64
        e 0 91 47 64
        e 240 b1 0a 3a
        e 226 81 3b 50
        e 0 81 47 50
        e 14 b1 0a 3c
        e 0 91 3c 64
        e 0 91 48 64
        e 240 b1 0a 3e
        e 240 b1 0a 40
        e 0 81 35 50
        e 0 91 4f 64
        e 0 91 43 64
        e 0 91 37 64
        e 14 81 3c 50
        e 0 81 48 50
        e 226 b1 0a 41
        e 0 81 4f 50
        e 0 81 43 50
        e 0 91 43 64
        e 0 91 4f 64
        e 240 b1 0a 43
        e 0 81 43 50
        e 240 b1 0a 45
        e 0 81 4f 50
        e 0 91 4d 64
        e 0 91 41 64
        e 240 b1 0a 47
        e 0 81 4d 50
        e 0 81 41 50
        e 0 91 4d 64
        e 0 91 41 64
        e 240 b1 0a 49
        e 0 81 41 50
        e 240 b1 0a 4b
        e 0 81 4d 50
        e 0 91 40 64
        e 0 91 4c 64
        e 240 b1 0a 4d
        e 0 81 40 50
        e 0 81 4c 50
        e 0 91 40 64
        e 0 91 4c 64
        e 240 b1 0a 4f
        e 0 81 40 50
        e 240 b1 0a 51
        e 0 81 4c 50
        e 0 91 3e 64
        e 0 91 4a 64
        e 240 b1 0a 53
        e 0 81 3e 50
        e 0 81 4a 50
        e 0 91 3e 64
        e 0 91 4a 64
        e 240 b1 0a 55
        e 0 81 3e 50
        e 240 b1 0a 57
        e 0 81 4a 50
        e 0 91 48 64
        e 0 91 3c 64
        e 240 b1 0a 59
        e 226 81 48 50
        e 0 81 3c 50
        e 14 b1 0a 5b
        e 0 91 3e 64
        e 0 91 4a 64
        e 240 b1 0a 5d
        e 240 b1 0a 5f
        e 0 81 37 50
        e 0 91 43 64
        e 0 91 4f 64
        e 0 91 37 64
        e 14 81 3e 50
        e 0 81 4a 50
        e 226 b1 0a 61
        e 0 81 43 50
        e 0 81 4f 50
        e 0 91 43 64
        e 0 91 4f 64
        e 240 b1 0a 63
        e 0 81 43 50
        e 240 b1 0a 65
        e 0 81 4f 50
        e 0 91 4d 64
        e 0 91 41 64
        e 240 b1 0a 67
        e 0 81 4d 50
        e 0 81 41 50
        e 0 91 4d 64
        e 0 91 41 64
        e 240 b1 0a 69
        e 0 81 41 50
        e 240 b1 0a 6b
        e 0 81 4d 50
        e 0 91 40 64
        e 0 91 4c 64
        e 240 b1 0a 6d
        e 0 81 40 50
        e 0 81 4c 50
        e 0 91 40 64
        e 0 91 4c 64
        e 240 b1 0a 6f
        e 0 81 40 50
        e 240 b1 0a 71
        e 0 81 4c 50
        e 0 91 3e 64
        e 0 91 4a 64
        e 240 b1 0a 73
        e 0 81 3e 50
        e 0 81 4a 50
        e 0 91 3e 64
        e 0 91 4a 64
        e 240 b1 0a 75
        e 0 81 3e 50
        e 240 b1 0a 77
        e 0 81 4a 50
        e 0 91 48 64
        e 0 91 3c 64
        e 240 b1 0a 79
        e 226 81 48 50
        e 0 81 3c 50
        e 14 b1 0a 7b
        e 0 91 3e 64
        e 0 91 4a 64
        e 240 b1 0a 7d
        e 240 b1 0a 7f
        e 0 81 37 50
        e 0 91 41 64
        e 0 91 4d 64
        e 0 91 35 64
        e 14 81 3e 50
        e 0 81 4a 50
        e 226 b1 0a 7d
        e 0 81 41 50
        e 0 81 4d 50
        e 0 91 41 64
        e 0 91 4d 64
        e 240 b1 0a 7b
        e 0 81 41 50
        e 240 b1 0a 79
        e 0 81 4d 50
        e 0 91 40 64
        e 0 91 4c 64
        e 240 b1 0a 77
        e 0 81 40 50
        e 0 81 4c 50
        e 0 91 40 64
        e 0 91 4c 64
        e 240 b1 0a 75
        e 0 81 40 50
        e 240 b1 0a 73
        e 0 81 4c 50
        e 0 91 3e 64
        e 0 91 4a 64
        e 240 b1 0a 71
        e 0 81 3e 50
        e 0 81 4a 50
        e 0 91 3e 64
        e 0 91 4a 64
        e 240 b1 0a 6f
        e 0 81 3e 50
        e 240 b1 0a 6d
        e 0 81 4a 50
        e 0 91 3c 64
        e 0 91 48 64
        e 240 b1 0a 6b
        e 0 81 3c 50
        e 0 81 48 50
        e 0 91 3c 64
        e 0 91 48 64
        e 240 b1 0a 69
        e 0 81 3c 50
        e 240 b1 0a 67
        e 0 81 48 50
        e 0 91 3b 64
        e 0 91 47 64
        e 240 b1 0a 65
        e 226 81 3b 50
        e 0 81 47 50
        e 14 b1 0a 63
        e 0 91 3c 64
        e 0 91 48 64
        e 240 b1 0a 61
        e 240 b1 0a 5f
        e 0 81 35 50
        e 0 91 41 64
        e 0 91 4d 64
        e 0 91 35 64
        e 14 81 3c 50
        e 0 81 48 50
        e 226 b1 0a 5d
        e 0 81 41 50
        e 0 81 4d 50
        e 0 91 41 64
        e 0 91 4d 64
        e 240 b1 0a 5b
        e 0 81 41 50
        e 240 b1 0a 59
        e 0 81 4d 50
        e 0 91 40 64
        e 0 91 4c 64
        e 240 b1 0a 57
        e 0 81 40 50
        e 0 81 4c 50
        e 0 91 40 64
        e 0 91 4c 64
        e 240 b1 0a 55
        e 0 81 40 50
        e 240 b1 0a 53
        e 0 81 4c 50
        e 0 91 3e 64
        e 0 91 4a 64
        e 240 b1 0a 51
        e 0 81 3e 50
        e 0 81 4a 50
        e 0 91 3e 64
        e 0 91 4a 64
        e 240 b1 0a 4f
        e 0 81 3e 50
        e 240 b1 0a 4d
        e 0 81 4a 50
        e 0 91 3c 64
        e 0 91 48 64
        e 240 b1 0a 4b
        e 0 81 3c 50
        e 0 81 48 50
        e 0 91 3c 64
        e 0 91 48 64
        e 240 b1 0a 49
        e 0 81 3c 50
        e 240 b1 0a 47
        e 0 81 48 50
        e 0 91 3b 64
        e 0 91 47 64
        e 240 b1 0a 45
        e 226 81 3b 50
        e 0 81 47 50
        e 14 b1 0a 43
        e 0 91 3c 64
        e 0 91 48 64
        e 240 b1 0a 41
        e 240 b1 0a 40
        e 0 81 35 50
        E 0 91 4f 64
        E 0 91 43 64
        E 0 91 37 64
        e 14 81 3c 50
        e 0 81 48 50
        E 226 b1 0a 3e
        E 0 81 4f 50
        E 0 81 43 50
        E 0 91 43 64
        E 0 91 4f 64
        E 240 b1 0a 3c
        E 0 81 43 50
        E 240 b1 0a 3a
        E 0 81 4f 50
        E 0 91 4d 64
        E 0 91 41 64
        E 240 b1 0a 38
        E 0 81 4d 50
        E 0 81 41 50
        E 0 91 4d 64
        E 0 91 41 64
        E 240 b1 0a 36
        E 0 81 41 50
        E 240 b1 0a 34
        E 0 81 4d 50
        E 0 91 40 64
        E 0 91 4c 64
        E 240 b1 0a 32
        E 0 81 40 50
        E 0 81 4c 50
        E 0 91 40 64
        E 0 91 4c 64
        E 240 b1 0a 30
        E 0 81 40 50
        E 240 b1 0a 2e
        E 0 81 4c 50
        E 0 91 4d 64
        E 0 91 41 64
        E 240 b1 0a 2c
        E 0 81 4d 50
        E 0 81 41 50
        E 0 91 41 64
        E 0 91 4d 64
        E 240 b1 0a 2a
        E 0 81 41 50
        E 240 b1 0a 28
        E 0 81 4d 50
        E 0 91 4d 64
        E 0 91 41 64
        E 240 b1 0a 26
        E 0 81 4d 50
        E 0 81 41 50
        E 0 91 4f 64
        E 0 91 43 64
        E 240 b1 0a 24
        E 0 81 4f 50
        E 0 81 43 50
        E 0 91 51 64
        E 0 91 45 64
        E 240 b1 0a 22
        E 0 81 51 50
        E 0 81 45 50
        E 0 91 53 64
        E 0 91 47 64
        E 240 b1 0a 20
        E 0 81 37 50
        E 0 81 53 50
        E 0 81 47 50
        E 0 91 4f 64
        E 0 91 43 64
        E 0 91 37 64
        E 240 b1 0a 1e
        E 0 81 4f 50
        E 0 81 43 50
        E 0 81 37 50
        E 0 91 4f 64
        E 0 91 43 64
        E 0 91 37 64
        E 240 b1 0a 1c
        E 0 81 4f 50
        E 0 81 43 50
        E 0 81 37 50
        E 0 91 4f 64
        E 0 91 43 64
        E 0 91 37 64
        E 240 b1 0a 1a
        E 0 81 4f 50
        E 0 81 43 50
        E 0 81 37 50
        E 240 b1 0a 18
        E 0 91 4f 64
        E 0 91 43 64
        E 0 91 37 64
        E 240 b1 0a 16
        E 0 81 4f 50
        E 0 81 43 50
        E 0 81 37 50
        E 240 b1 0a 14
        E 0 91 4f 64
        E 0 91 43 64
        E 0 91 37 64
        E 240 b1 0a 12
        E 0 81 4f 50
        E 0 81 43 50
        E 0 81 37 50
        E 0 91 4f 64
        E 0 91 43 64
        E 0 91 37 64
        E 240 b1 0a 10
        E 0 81 4f 50
        E 0 81 43 50
        E 0 81 37 50
        E 240 b1 0a 0e
        E 240 b1 0a 0c
        E 240 b1 0a 0a
        E 240 e1 00 40
        E 0 b1 0a 08
        E 0 91 43 64
        E 0 91 37 64
        E 40 e1 55 3f
        E 40 e1 57 3e
        E 40 e1 59 3d
        E 40 e1 5b 3c
        E 40 e1 07 3c
        E 40 e1 09 3b
        E 0 b1 0a 06
        E 40 e1 5f 3a
        E 40 e1 37 39
        E 40 e1 63 38
        E 40 e1 65 37
        E 40 e1 3d 36
        E 40 e1 3f 35
        E 0 b1 0a 04
        E 40 e1 6b 34
        E 40 e1 43 33
        E 40 e1 45 32
        E 40 e1 1d 31
        E 40 e1 75 2f
        E 40 e1 77 2e
        E 0 b1 0a 02
        E 40 e1 4f 2d
        E 40 e1 27 2c
        E 40 e1 7f 2a
        E 40 e1 00 2a
        E 40 e1 58 28
        E 40 e1 00 40
        E 0 b1 06 01
        E 0 e1 00 00
        E 0 b1 0a 00
        E 0 81 43 50
        E 0 81 37 50
        E 0 91 45 64
        E 0 91 40 64
        E 40 e1 14 0b
        E 40 e1 32 26
        E 40 e1 6d 33
        E 40 e1 61 39
        E 40 e1 2d 3e
        E 40 e1 00 40
        E 0 b1 0a 02
        E 240 b1 0a 04
        E 240 b1 0a 06
        E 240 e1 00 00
        E 0 b1 0a 08
        E 0 81 45 50
        E 0 81 40 50
        E 0 91 3e 64
        E 0 91 43 64
        E 40 e1 14 0b
        E 40 e1 32 26
        E 40 e1 6d 33
        E 40 e1 61 39
        E 40 e1 2d 3e
        E 40 e1 00 40
        E 0 b1 0a 0a
        E 240 b1 0a 0c
        E 220 81 3e 50
        E 0 81 43 50
        E 20 e1 00 00
        E 0 b1 0a 0e
        E 0 91 45 64
        E 0 91 40 64
        E 40 e1 14 0b
        E 40 e1 32 26
        E 40 e1 6d 33
        E 40 e1 61 39
        E 40 e1 2d 3e
        E 40 e1 00 40
        E 0 b1 0a 10
        E 240 b1 0a 12
        E 0 81 45 50
        E 0 81 40 50
        E 240 b1 0a 14
        E 240 b1 0a 16
        E 0 91 40 64
        E 0 91 3b 64
        E 240 b1 0a 18
        E 0 81 40 50
        E 0 81 3b 50
        E 0 91 41 64
        E 0 91 3c 64
        E 240 b1 0a 1a
        E 0 81 41 50
        E 0 81 3c 50
        E 0 91 43 64
        E 0 91 3e 64
        E 240 b1 0a 1c
        E 0 81 43 50
        E 0 81 3e 50
        E 0 91 45 64
        E 0 91 40 64
        E 240 b1 0a 1e
        E 0 81 45 50
        E 0 81 40 50
        E 0 91 39 64
        E 240 e1 00 00
        E 0 b1 0a 20
        E 0 81 39 50
        E 0 91 40 64
        E 0 91 45 64
        E 40 e1 14 0b
        E 40 e1 32 26
        E 40 e1 6d 33
        E 40 e1 61 39
        E 40 e1 2d 3e
        E 40 e1 00 40
        E 0 b1 0a 22
        E 240 b1 0a 24
        E 240 b1 0a 26
        E 240 e1 00 00
        E 0 b1 0a 28
        E 0 81 40 50
        E 0 81 45 50
        E 0 91 3e 64
        E 0 91 43 64
        E 40 e1 14 0b
        E 40 e1 32 26
        E 40 e1 6d 33
        E 40 e1 61 39
        E 40 e1 2d 3e
        E 40 e1 00 40
        E 0 b1 0a 2a
        E 240 b1 0a 2c
        E 220 81 3e 50
        E 0 81 43 50
        E 20 e1 00 00
        E 0 b1 0a 2e
        E 0 91 45 64
        E 0 91 40 64
        E 40 e1 14 0b
        E 40 e1 32 26
        E 40 e1 6d 33
        E 40 e1 61 39
        E 40 e1 2d 3e
        E 40 e1 00 40
        E 0 b1 0a 30
        E 240 b1 0a 32
        E 0 81 45 50
        E 0 81 40 50
        E 240 b1 0a 34
        E 240 b1 0a 36
        E 0 91 40 64
        E 0 91 3b 64
        E 240 b1 0a 38
        E 0 81 40 50
        E 0 81 3b 50
        E 0 91 3c 64
        E 0 91 41 64
        E 240 b1 0a 3a
        E 0 81 3c 50
        E 0 81 41 50
        E 0 91 3e 64
        E 0 91 43 64
        E 240 b1 0a 3c
        E 0 81 3e 50
        E 0 81 43 50
        E 0 91 40 64
        E 0 91 45 64
        E 240 b1 0a 3e
        E 0 81 40 50
        E 0 81 45 50
        E 0 91 39 64
        E 240 e1 00 00
        E 0 b1 0a 40
        E 0 81 39 50
        E 0 91 43 64
        E 0 91 3e 64
        E 40 e1 14 0b
        E 40 e1 32 26
        E 40 e1 6d 33
        E 40 e1 61 39
        E 40 e1 2d 3e
        E 40 e1 00 40
        E 0 b1 0a 41
        E 240 b1 0a 43
        E 240 b1 0a 45
        E 240 e1 00 00
        E 0 b1 0a 47
        E 0 81 43 50
        E 0 81 3e 50
        E 0 91 42 64
        E 0 91 3d 64
        E 40 e1 14 0b
        E 40 e1 32 26
        E 40 e1 6d 33
        E 40 e1 61 39
        E 40 e1 2d 3e
        E 40 e1 00 40
        E 0 b1 0a 49
        E 240 b1 0a 4b
        E 220 81 42 50
        E 0 81 3d 50
        E 20 e1 00 00
        E 0 b1 0a 4d
        E 0 91 43 64
        E 0 91 3e 64
        E 40 e1 14 0b
        E 40 e1 32 26
        E 40 e1 6d 33
        E 40 e1 61 39
        E 40 e1 2d 3e
        E 40 e1 00 40
        E 0 b1 0a 4f
        E 240 b1 0a 51
        E 0 81 43 50
        E 0 81 3e 50
        E 240 b1 0a 53
        E 240 b1 0a 55
        E 0 91 39 64
        E 0 91 3e 64
        E 240 b1 0a 57
        E 0 81 39 50
        E 0 81 3e 50
        E 0 91 40 64
        E 0 91 3b 64
        E 240 b1 0a 59
        E 0 81 40 50
        E 0 81 3b 50
        E 0 91 42 64
        E 0 91 3d 64
        E 240 b1 0a 5b
        E 0 81 42 50
        E 0 81 3d 50
        E 0 91 3e 64
        E 0 91 43 64
        E 240 b1 0a 5d
        E 0 81 3e 50
        E 0 81 43 50
        E 0 91 37 64
        E 240 e1 00 00
        E 0 b1 0a 5f
        E 0 81 37 50
        E 0 91 3e 64
        E 0 91 43 64
        E 40 e1 14 0b
        E 40 e1 32 26
        E 40 e1 6d 33
        E 40 e1 61 39
        E 40 e1 2d 3e
        E 40 e1 00 40
        E 0 b1 0a 61
        E 240 b1 0a 63
        E 240 b1 0a 65
        E 240 e1 00 00
        E 0 b1 0a 67
        E 0 81 3e 50
        E 0 81 43 50
        E 0 91 42 64
        E 0 91 3d 64
        E 40 e1 14 0b
        E 40 e1 32 26
        E 40 e1 6d 33
        E 40 e1 61 39
        E 40 e1 2d 3e
        E 40 e1 00 40
        E 0 b1 0a 69
        E 240 b1 0a 6b
        E 220 81 42 50
        E 0 81 3d 50
        E 20 e1 00 00
        E 0 b1 0a 6d
        E 0 91 43 64
        E 0 91 3e 64
        E 40 e1 14 0b
        E 40 e1 32 26
        E 40 e1 6d 33
        E 40 e1 61 39
        E 40 e1 2d 3e
        E 40 e1 00 40
        E 0 b1 0a 6f
        E 240 b1 0a 71
        E 0 81 43 50
        E 0 81 3e 50
        E 240 b1 0a 73
        E 240 b1 0a 75
        E 0 91 39 64
        E 0 91 3e 64
        E 240 b1 0a 77
        E 0 81 39 50
        E 0 81 3e 50
        E 0 91 40 64
        E 0 91 3b 64
        E 240 b1 0a 79
        E 0 81 40 50
        E 0 81 3b 50
        E 0 91 42 64
        E 0 91 3d 64
        E 240 b1 0a 7b
        E 0 81 42 50
        E 0 81 3d 50
        E 0 91 3e 64
        E 0 91 43 64
        E 240 b1 0a 7d
        E 0 81 3e 50
        E 0 81 43 50
        E 0 91 37 64
        E 240 e1 00 00
        E 0 b1 0a 7f
        E 0 81 37 50
        E 0 91 40 64
        E 0 91 45 64
        E 40 e1 14 0b
        E 40 e1 32 26
        E 40 e1 6d 33
        E 40 e1 61 39
        E 40 e1 2d 3e
        E 40 e1 00 40
        E 0 b1 0a 7d
        E 240 b1 0a 7b
        E 240 b1 0a 79
        E 240 e1 00 00
        E 0 b1 0a 77
        E 0 81 40 50
        E 0 81 45 50
        E 0 91 3e 64
        E 0 91 43 64
        E 40 e1 14 0b
        E 40 e1 32 26
        E 40 e1 6d 33
        E 40 e1 61 39
        E 40 e1 2d 3e
        E 40 e1 00 40
        E 0 b1 0a 75
        E 240 b1 0a 73
        E 220 81 3e 50
        E 0 81 43 50
        E 20 e1 00 00
        E 0 b1 0a 71
        E 0 91 45 64
        E 0 91 40 64
        E 40 e1 14 0b
        E 40 e1 32 26
        E 40 e1 6d 33
        E 40 e1 61 39
        E 40 e1 2d 3e
        E 40 e1 00 40
        E 0 b1 0a 6f
        E 240 b1 0a 6d
        E 0 81 45 50
        E 0 81 40 50
        E 240 b1 0a 6b
        E 240 b1 0a 69
        E 0 91 40 64
        E 0 91 3b 64
        E 240 b1 0a 67
        E 0 81 40 50
        E 0 81 3b 50
        E 0 91 41 64
        E 0 91 3c 64
        E 240 b1 0a 65
        E 0 81 41 50
        E 0 81 3c 50
        E 0 91 43 64
        E 0 91 3e 64
        E 240 b1 0a 63
        E 0 81 43 50
        E 0 81 3e 50
        E 0 91 45 64
        E 0 91 40 64
        E 240 b1 0a 61
        E 0 81 45 50
        E 0 81 40 50
        E 0 91 39 64
        E 240 e1 00 00
        E 0 b1 0a 5f
        E 0 81 39 50
        E 0 91 40 64
        E 0 91 45 64
        E 40 e1 14 0b
        E 40 e1 32 26
        E 40 e1 6d 33
        E 40 e1 61 39
        E 40 e1 2d 3e
        E 40 e1 00 40
        E 0 b1 0a 5d
        E 240 b1 0a 5b
        E 240 b1 0a 59
        E 240 e1 00 00
        E 0 b1 0a 57
        E 0 81 40 50
        E 0 81 45 50
        E 0 91 3e 64
        E 0 91 43 64
        E 40 e1 14 0b
        E 40 e1 32 26
        E 40 e1 6d 33
        E 40 e1 61 39
        E 40 e1 2d 3e
        E 40 e1 00 40
        E 0 b1 0a 55
        E 240 b1 0a 53
        E 220 81 3e 50
        E 0 81 43 50
        E 20 e1 00 00
        E 0 b1 0a 51
        E 0 91 45 64
        E 0 91 40 64
        E 40 e1 14 0b
        E 40 e1 32 26
        E 40 e1 6d 33
        E 40 e1 61 39
        E 40 e1 2d 3e
        E 40 b1 0a 4f
        E 240 b1 0a 4d
        E 0 81 45 50
        E 0 81 40 50
        E 0 91 42 64
        E 6 91 3d 64
        E 234 b1 0a 4b
        E 228 81 42 50
        E 12 b1 0a 49
        E 0 91 43 64
        E 6 91 3e 64
        E 14 81 3d 50
        E 220 b1 0a 47
        E 232 81 3e 50
        E 8 b1 0a 45
        E 0 91 44 64
        E 6 91 3f 64
        E 6 81 43 50
        E 228 b1 0a 43
        E 228 81 44 50
        E 12 b1 0a 41
        E 0 91 45 64
        E 0 91 40 64
        E 20 81 3f 50
        E 220 b1 0a 40
        E 0 81 45 50
        E 0 81 40 50
        E 0 91 41 64
        E 0 91 48 64
        E 240 b1 0a 3e
        E 240 b1 0a 3c
        E 240 b1 0a 3a
        E 240 b1 0a 38
        E 0 81 41 50
        E 0 81 48 50
        E 0 91 40 64
        E 0 91 47 64
        E 240 b1 0a 36
        E 226 81 40 50
        E 14 b1 0a 34
        E 0 91 40 64
        E 220 81 47 50
        E 20 b1 0a 32
        E 0 81 40 50
        E 0 91 41 64
        E 0 91 48 64
        E 240 b1 0a 30
        E 240 b1 0a 2e
        E 0 81 41 50
        E 0 91 45 64
        E 0 91 41 64
        E 12 81 48 50
        E 108 81 45 50
        E 0 91 46 64
        E 120 b1 0a 2c
        E 0 81 46 50
        E 0 91 47 64
        E 120 81 47 50
        E 0 91 48 64
        E 120 b1 0a 2a
        E 0 81 41 50
        E 0 91 41 64
        E 240 b1 0a 28
        E 0 81 41 50
        E 0 91 40 64
        E 240 b1 0a 26
        E 226 81 40 50
        E 14 b1 0a 24
        E 0 91 41 64
        E 240 b1 0a 22
        E 240 b1 0a 20
        E 0 91 43 64
        E 0 91 53 64
        E 0 91 4f 64
        E 4 81 48 50
        E 10 81 41 50
        E 226 b1 0a 1e
        E 240 b1 0a 1c
        E 240 b1 0a 1a
        E 240 b1 0a 18
        E 0 81 43 50
        E 0 91 41 64
        E 240 b1 0a 16
        E 226 81 41 50
        E 14 b1 0a 14
        E 0 91 41 64
        E 240 b1 0a 12
        E 0 81 41 50
        E 0 91 43 64
        E 240 b1 0a 10
        E 240 b1 0a 0e
        E 0 81 43 50
        E 0 91 43 64
        E 240 b1 0a 0c
        E 240 b1 0a 0a
        E 0 81 43 50
        E 0 91 43 64
        E 240 b1 0a 08
        E 0 81 53 50
        E 0 81 4f 50
        E 0 81 43 50
        E 0 91 41 64
        E 0 91 4a 64
        E 0 91 4f 64
        E 240 b1 0a 06
        E 0 81 4a 50
        E 0 81 4f 50
        E 0 91 4c 64
        E 0 91 51 64
        E 226 81 41 50
        E 14 b1 0a 04
        E 0 81 4c 50
        E 0 81 51 50
        E 0 91 43 64
        E 0 91 4e 64
        E 0 91 52 64
        E 240 b1 0a 02
        E 0 81 4e 50
        E 0 81 52 50
        E 0 91 4f 64
        E 0 91 53 64
        E 240 b1 0a 00
        E 0 81 4f 50
        E 0 81 53 50
        E 0 91 58 64
        E 0 91 45 64
        E 14 81 43 50
        E 226 b1 0a 02
        E 0 81 58 50
        E 0 91 57 64
        E 240 b1 0a 04
        E 0 81 57 50
        E 0 91 54 64
        E 220 81 45 50
        E 20 b1 0a 06
        E 0 81 54 50
        E 0 91 51 64
        E 0 91 43 64
        E 240 b1 0a 08
        E 0 81 51 50
        E 0 91 56 64
        E 240 b1 0a 0a
        E 0 81 43 50
        E 0 81 56 50
        E 0 91 54 64
        E 0 91 43 64
        E 240 b1 0a 0c
        E 0 81 54 50
        E 0 81 43 50
        E 0 91 51 64
        E 0 91 45 64
        E 240 b1 0a 0e
        E 0 81 51 50
        E 0 91 4f 64
        E 240 b1 0a 10
        E 0 81 4f 50
        E 0 91 4c 64
        E 0 91 48 64
        E 14 81 45 50
        E 226 b1 0a 12
        E 0 81 4c 50
        E 0 81 48 50
        E 0 91 4b 64
        E 0 91 47 64
        E 240 b1 0a 14
        E 0 81 4b 50
        E 0 81 47 50
        E 0 91 4a 64
        E 0 91 45 64
        E 240 b1 0a 16
        E 0 81 4a 50
        E 0 81 45 50
        E 0 91 48 64
        E 0 91 43 64
        E 240 b1 0a 18
        E 0 81 48 50
        E 0 81 43 50
        E 0 91 4a 64
        E 0 91 4e 64
        E 240 b1 0a 1a
        E 0 81 4a 50
        E 0 81 4e 50
        E 0 91 48 64
        E 0 91 4c 64
        E 240 b1 0a 1c
        E 0 81 48 50
        E 0 91 45 64
        E 240 b1 0a 1e
        E 0 81 45 50
        E 0 91 43 64
        E 240 b1 0a 20
        E 0 81 43 50
        E 0 91 45 64
        E 0 91 58 64
        E 8 81 4c 50
        E 232 b1 0a 22
        E 0 81 58 50
        E 0 91 57 64
        E 240 b1 0a 24
        E 0 81 57 50
        E 0 91 54 64
        E 220 81 45 50
        E 20 b1 0a 26
        E 0 81 54 50
        E 0 91 51 64
        E 0 91 43 64
        E 240 b1 0a 28
        E 0 81 51 50
        E 0 91 56 64
        E 240 b1 0a 2a
        E 0 81 43 50
        E 0 81 56 50
        E 0 91 54 64
        E 0 91 43 64
        E 240 b1 0a 2c
        E 0 81 54 50
        E 0 81 43 50
        E 0 91 51 64
        E 0 91 45 64
        E 240 b1 0a 2e
        E 0 81 51 50
        E 0 91 4f 64
        E 240 b1 0a 30
        E 0 81 4f 50
        E 0 91 4c 64
        E 0 91 48 64
        E 14 81 45 50
        E 226 b1 0a 32
        E 0 81 4c 50
        E 0 81 48 50
        E 0 91 4b 64
        E 0 91 47 64
        E 240 b1 0a 34
        E 0 81 4b 50
        E 0 81 47 50
        E 0 91 4a 64
        E 0 91 45 64
        E 240 b1 0a 36
        E 0 81 4a 50
        E 0 81 45 50
        E 0 91 48 64
        E 0 91 43 64
        E 240 b1 0a 38
        E 0 81 48 50
        E 0 81 43 50
        E 0 91 4a 64
        E 0 91 4e 64
        E 240 b1 0a 3a
        E 0 81 4a 50
        E 0 81 4e 50
        E 0 91 48 64
        E 0 91 4c 64
        E 240 b1 0a 3c
        E 0 81 48 50
        E 0 91 45 64
        E 240 b1 0a 3e
        E 0 81 45 50
        E 0 91 43 64
        E 240 e1 00 00
        E 0 b1 0a 40
        E 0 81 43 50
        E 0 91 51 64
        E 0 91 45 64
        E 8 81 4c 50
        E 32 e1 14 0b
        E 40 e1 32 26
        E 40 e1 6d 33
        E 40 e1 61 39
        E 40 e1 2d 3e
        E 40 e1 00 40
        E 0 b1 0a 41
        E 240 b1 0a 43
        E 240 b1 0a 45
        E 240 b1 0a 47
        E 0 81 51 50
        E 0 91 4f 64
        E 240 b1 0a 49
        E 240 b1 0a 4b
        E 220 81 4f 50
        E 20 b1 0a 4d
        E 0 91 51 64
        E 240 b1 0a 4f
        E 240 b1 0a 51
        E 0 81 51 50
        E 240 b1 0a 53
        E 240 b1 0a 55
        E 0 91 4c 64
        E 240 b1 0a 57
        E 0 81 45 50
        E 0 81 4c 50
        E 0 91 4d 64
        E 0 91 43 64
        E 240 b1 0a 59
        E 0 81 4d 50
        E 0 81 43 50
        E 0 91 4f 64
        E 0 91 45 64
        E 240 b1 0a 5b
        E 0 81 4f 50
        E 0 81 45 50
        E 0 91 51 64
        E 0 91 43 64
        E 240 b1 0a 5d
        E 0 81 51 50
        E 0 81 43 50
        E 0 91 45 64
        E 0 91 40 64
        E 240 e1 00 00
        E 0 b1 0a 5f
        E 0 81 45 50
        E 0 81 40 50
        E 0 91 4f 64
        E 0 91 43 64
        E 40 e1 14 0b
        E 40 e1 32 26
        E 40 e1 6d 33
        E 40 e1 61 39
        E 40 e1 2d 3e
        E 40 e1 00 40
        E 0 b1 0a 61
        E 240 b1 0a 63
        E 240 b1 0a 65
        E 240 b1 0a 67
        E 0 81 4f 50
        E 0 91 4e 64
        E 240 b1 0a 69
        E 240 b1 0a 6b
        E 220 81 4e 50
        E 20 b1 0a 6d
        E 0 91 4f 64
        E 240 b1 0a 6f
        E 240 b1 0a 71
        E 0 81 4f 50
        E 240 b1 0a 73
        E 240 b1 0a 75
        E 0 91 4a 64
        E 240 b1 0a 77
        E 0 81 43 50
        E 0 81 4a 50
        E 0 91 4c 64
        E 0 91 3e 64
        E 240 b1 0a 79
        E 0 81 4c 50
        E 0 81 3e 50
        E 0 91 4e 64
        E 0 91 43 64
        E 240 b1 0a 7b
        E 0 81 4e 50
        E 0 81 43 50
        E 0 91 4f 64
        E 0 91 41 64
        E 240 b1 0a 7d
        E 0 81 4f 50
        E 0 81 41 50
        E 0 91 42 64
        E 0 91 40 64
        E 240 e1 00 00
        E 0 b1 0a 7f
        E 0 81 42 50
        E 0 81 40 50
        E 0 91 4d 64
        E 0 91 41 64
        E 40 e1 14 0b
        E 40 e1 32 26
        E 40 e1 6d 33
        E 40 e1 61 39
        E 40 e1 2d 3e
        E 40 e1 00 40
        E 0 b1 0a 7d
        E 240 b1 0a 7b
        E 240 b1 0a 79
        E 240 b1 0a 77
        E 0 81 4d 50
        E 0 91 4c 64
        E 240 b1 0a 75
        E 240 b1 0a 73
        E 220 81 4c 50
        E 20 b1 0a 71
        E 0 91 4d 64
        E 240 b1 0a 6f
        E 240 b1 0a 6d
        E 0 81 4d 50
        E 240 b1 0a 6b
        E 240 b1 0a 69
        E 0 91 48 64
        E 240 b1 0a 67
        E 0 81 41 50
        E 0 81 48 50
        E 0 91 4a 64
        E 0 91 41 64
        E 240 b1 0a 65
        E 0 81 4a 50
        E 0 81 41 50
        E 0 91 4c 64
        E 0 91 45 64
        E 240 b1 0a 63
        E 0 81 4c 50
        E 0 81 45 50
        E 0 91 4d 64
        E 0 91 43 64
        E 240 b1 0a 61
        E 0 81 4d 50
        E 0 81 43 50
        E 0 91 41 64
        E 240 b1 0a 5f
        E 0 81 41 50
        E 0 91 4c 64
        E 0 91 40 64
        E 240 b1 0a 5d
        E 0 81 40 50
        E 0 91 44 64
        E 240 b1 0a 5b
        E 0 81 44 50
        E 0 91 47 64
        E 220 81 4c 50
        E 20 b1 0a 59
        E 0 81 47 50
        E 0 91 50 64
        E 0 91 44 64
        E 240 b1 0a 57
        E 0 81 44 50
        E 0 91 47 64
        E 240 b1 0a 55
        E 0 81 47 50
        E 0 91 4c 64
        E 240 b1 0a 53
        E 0 81 4c 50
        E 0 91 53 64
        E 0 91 47 64
        E 6 81 50 50
        E 234 b1 0a 51
        E 0 81 47 50
        E 0 91 44 64
        E 240 b1 0a 4f
        E 0 81 44 50
        E 0 91 40 64
        E 240 b1 0a 4d
        E 0 81 40 50
        E 0 91 56 64
        E 0 91 44 64
        E 6 81 53 50
        E 234 b1 0a 4b
        E 0 81 44 50
        E 0 91 47 64
        E 240 b1 0a 49
        E 0 81 47 50
        E 0 91 44 64
        E 240 b1 0a 47
        E 0 81 44 50
        E 0 91 58 64
        E 0 91 47 64
        E 8 81 56 50
        E 232 b1 0a 45
        E 0 81 47 50
        E 0 91 4c 64
        E 240 b1 0a 43
        E 0 81 4c 50
        E 0 91 4a 64
        E 240 b1 0a 41
        E 0 81 4a 50
        E 0 91 47 64
        E 240 b1 0a 40
        E 0 81 58 50
        E 0 81 47 50
        E 0 91 4d 64
        E 0 91 41 64
        E 0 91 48 64
        E 240 b1 0a 3e
        E 0 81 4d 50
        E 0 81 41 50
        E 0 81 48 50
        E 0 91 41 64
        E 0 91 4d 64
        E 0 91 48 64
        E 240 b1 0a 3c
        E 0 81 41 50
        E 240 b1 0a 3a
        E 0 81 4d 50
        E 0 81 48 50
        E 0 91 40 64
        E 0 91 4c 64
        E 0 91 47 64
        E 240 b1 0a 38
        E 0 81 40 50
        E 0 81 4c 50
        E 0 81 47 50
        E 0 91 40 64
        E 0 91 4c 64
        E 0 91 47 64
        E 240 b1 0a 36
        E 0 81 40 50
        E 240 b1 0a 34
        E 0 81 4c 50
        E 0 81 47 50
        E 0 91 3e 64
        E 0 91 4a 64
        E 0 91 45 64
        E 240 b1 0a 32
        E 0 81 3e 50
        E 0 81 4a 50
        E 0 81 45 50
        E 0 91 3e 64
        E 0 91 4a 64
        E 0 91 45 64
        E 240 b1 0a 30
        E 0 81 3e 50
        E 240 b1 0a 2e
        E 0 81 4a 50
        E 0 81 45 50
        E 0 91 3c 64
        E 0 91 48 64
        E 0 91 43 64
        E 240 b1 0a 2c
        E 0 81 3c 50
        E 0 81 48 50
        E 0 81 43 50
        E 0 91 3c 64
        E 0 91 48 64
        E 0 91 43 64
        E 240 b1 0a 2a
        E 0 81 3c 50
        E 240 b1 0a 28
        E 0 81 48 50
        E 0 81 43 50
        E 0 91 3b 64
        E 0 91 47 64
        E 0 91 42 64
        E 240 b1 0a 26
        E 226 81 3b 50
        E 0 81 47 50
        E 0 81 42 50
        E 14 b1 0a 24
        E 0 91 3c 64
        E 0 91 43 64
        E 0 91 48 64
        E 240 b1 0a 22
        E 240 b1 0a 20
        E 0 81 48 50
        E 0 91 41 64
        E 0 91 4d 64
        E 0 91 48 64
        E 14 81 3c 50
        E 0 81 43 50
        E 226 b1 0a 1e
        E 0 81 41 50
        E 0 81 4d 50
        E 0 81 48 50
        E 0 91 41 64
        E 0 91 4d 64
        E 0 91 48 64
        E 240 b1 0a 1c
        E 0 81 41 50
        E 240 b1 0a 1a
        E 0 81 4d 50
        E 0 81 48 50
        E 0 91 40 64
        E 0 91 4c 64
        E 0 91 47 64
        E 240 b1 0a 18
        E 0 81 40 50
        E 0 81 4c 50
        E 0 81 47 50
        E 0 91 40 64
        E 0 91 4c 64
        E 0 91 47 64
        E 240 b1 0a 16
        E 0 81 40 50
        E 240 b1 0a 14
        E 0 81 4c 50
        E 0 81 47 50
        E 0 91 3e 64
        E 0 91 4a 64
        E 0 91 45 64
        E 240 b1 0a 12
        E 0 81 3e 50
        E 0 81 4a 50
        E 0 81 45 50
        E 0 91 3e 64
        E 0 91 4a 64
        E 0 91 45 64
        E 240 b1 0a 10
        E 0 81 3e 50
        E 240 b1 0a 0e
        E 0 81 4a 50
        E 0 81 45 50
        E 0 91 3c 64
        E 0 91 48 64
        E 0 91 43 64
        E 240 b1 0a 0c
        E 0 81 3c 50
        E 0 81 48 50
        E 0 81 43 50
        E 0 91 3c 64
        E 0 91 48 64
        E 0 91 43 64
        E 240 b1 0a 0a
        E 0 81 3c 50
        E 240 b1 0a 08
        E 0 81 48 50
        E 0 81 43 50
        E 0 91 3b 64
        E 0 91 47 64
        E 0 91 42 64
        E 240 b1 0a 06
        E 226 81 3b 50
        E 0 81 47 50
        E 0 81 42 50
        E 14 b1 0a 04
        E 0 91 3c 64
        E 0 91 48 64
        E 0 91 43 64
        E 240 b1 0a 02
        E 240 b1 0a 3f
        E 0 81 43 50
        E 0 91 3e 64
        E 0 91 45 64
        E 0 91 4a 64
        E 14 81 3c 50
        E 0 81 48 50
        E 2866 81 3e 50
        E 0 81 45 50
        E 0 81 4a 50
        E 0 91 41 64
        E 0 91 48 64
        E 0 91 4d 64
        E 240 81 41 50
        E 0 81 48 50
        E 0 81 4d 50
        E 0 91 43 64
        E 0 91 4a 64
        E 0 91 4f 64
        E 240 81 43 50
        E 0 81 4a 50
        E 0 81 4f 50
        E 0 91 45 64
        E 0 91 4c 64
        E 0 91 51 64
        E 240 81 45 50
        E 0 81 4c 50
        E 0 81 51 50
        E 0 91 47 64
        E 0 91 4e 64
        E 0 91 53 64
        E 240 81 47 50
        E 0 81 4e 50
        E 0 81 53 50
        E 0 91 43 64
        E 0 91 4f 64
        E 0 91 4c 64
        E 240 81 43 50
        E 0 81 4f 50
        E 0 81 4c 50
        E 0 91 43 64
        E 0 91 4f 64
        E 0 91 4c 64
        E 240 81 43 50
        E 240 81 4f 50
        E 0 81 4c 50
        E 0 91 4f 64
        E 0 91 43 64
        E 0 91 4c 64
        E 240 81 4f 50
        E 0 81 43 50
        E 0 81 4c 50
        E 0 91 43 64
        E 0 91 4f 64
        E 0 91 4c 64
        E 240 81 43 50
        E 240 81 4f 50
        E 0 81 4c 50
        E 0 91 4c 64
        E 0 91 4f 64
        E 0 91 43 64
        E 240 81 4c 50
        E 0 81 4f 50
        E 0 81 43 50
        E 0 91 43 64
        E 0 91 4f 64
        E 0 91 4c 64
        E 240 81 43 50
        E 240 81 4f 50
        E 0 81 4c 50
        E 0 91 4f 64
        E 0 91 43 64
        E 0 91 4c 64
        E 240 81 4f 50
        E 0 81 43 50
        E 0 81 4c 50
        E 0 91 43 64
        E 0 91 4f 64
        E 0 91 4c 64
        E 240 81 43 50
        E 240 81 4f 50
        E 0 81 4c 50
        E 0 91 4c 64
        E 0 91 47 64
        E 0 91 40 64
        E 960 e1 00 40
        E 0 b1 06 01
        E 0 e1 00 00
        E 0 b1 0a 00
        E 0 81 4c 50
        E 0 81 47 50
        E 0 81 40 50
        E 0 91 45 64
        E 0 91 40 64
        E 40 e1 14 0b
        E 40 e1 32 26
        E 40 e1 6d 33
        E 40 e1 61 39
        E 40 e1 2d 3e
        E 40 e1 00 40
        E 0 b1 0a 02
        E 240 b1 0a 04
        E 240 b1 0a 06
        E 240 e1 00 00
        E 0 b1 0a 08
        E 0 81 45 50
        E 0 81 40 50
        E 0 91 3e 64
        E 0 91 43 64
        E 40 e1 14 0b
        E 40 e1 32 26
        E 40 e1 6d 33
        E 40 e1 61 39
        E 40 e1 2d 3e
        E 40 e1 00 40
        E 0 b1 0a 0a
        E 240 b1 0a 0c
        E 220 81 3e 50
        E 0 81 43 50
        E 20 e1 00 00
        E 0 b1 0a 0e
        E 0 91 45 64
        E 0 91 40 64
        E 40 e1 14 0b
        E 40 e1 32 26
        E 40 e1 6d 33
        E 40 e1 61 39
        E 40 e1 2d 3e
        E 40 e1 00 40
        E 0 b1 0a 10
        E 240 b1 0a 12
        E 0 81 45 50
        E 0 81 40 50
        E 240 b1 0a 14
        E 240 b1 0a 16
        E 0 91 40 64
        E 0 91 3b 64
        E 240 b1 0a 18
        E 0 81 40 50
        E 0 81 3b 50
        E 0 91 41 64
        E 0 91 3c 64
        E 240 b1 0a 1a
        E 0 81 41 50
        E 0 81 3c 50
        E 0 91 43 64
        E 0 91 3e 64
        E 240 b1 0a 1c
        E 0 81 43 50
        E 0 81 3e 50
        E 0 91 45 64
        E 0 91 40 64
        E 240 b1 0a 1e
        E 0 81 45 50
        E 0 81 40 50
        E 0 91 39 64
        E 240 e1 00 00
        E 0 b1 0a 20
        E 0 81 39 50
        E 0 91 40 64
        E 0 91 45 64
        E 40 e1 14 0b
        E 40 e1 32 26
        E 40 e1 6d 33
        E 40 e1 61 39
        E 40 e1 2d 3e
        E 40 e1 00 40
        E 0 b1 0a 22
        E 240 b1 0a 24
        E 240 b1 0a 26
        E 240 e1 00 00
        E 0 b1 0a 28
        E 0 81 40 50
        E 0 81 45 50
        E 0 91 3e 64
        E 0 91 43 64
        E 40 e1 14 0b
        E 40 e1 32 26
        E 40 e1 6d 33
        E 40 e1 61 39
        E 40 e1 2d 3e
        E 40 e1 00 40
        E 0 b1 0a 2a
        E 240 b1 0a 2c
        E 220 81 3e 50
        E 0 81 43 50
        E 20 e1 00 00
        E 0 b1 0a 2e
        E 0 91 45 64
        E 0 91 40 64
        E 40 e1 14 0b
        E 40 e1 32 26
        E 40 e1 6d 33
        E 40 e1 61 39
        E 40 e1 2d 3e
        E 40 e1 00 40
        E 0 b1 0a 30
        E 240 b1 0a 32
        E 0 81 45 50
        E 0 81 40 50
        E 240 b1 0a 34
        E 240 b1 0a 36
        E 0 91 40 64
        E 0 91 3b 64
        E 240 b1 0a 38
        E 0 81 40 50
        E 0 81 3b 50
        E 0 91 3c 64
        E 0 91 41 64
        E 240 b1 0a 3a
        E 0 81 3c 50
        E 0 81 41 50
        E 0 91 3e 64
        E 0 91 43 64
        E 240 b1 0a 3c
        E 0 81 3e 50
        E 0 81 43 50
        E 0 91 40 64
        E 0 91 45 64
        E 240 b1 0a 3e
        E 0 81 40 50
        E 0 81 45 50
        E 0 91 39 64
        E 240 e1 00 00
        E 0 b1 0a 40
        E 0 81 39 50
        E 0 91 43 64
        E 0 91 3e 64
        E 40 e1 14 0b
        E 40 e1 32 26
        E 40 e1 6d 33
        E 40 e1 61 39
        E 40 e1 2d 3e
        E 40 e1 00 40
        E 0 b1 0a 41
        E 240 b1 0a 43
        E 240 b1 0a 45
        E 240 e1 00 00
        E 0 b1 0a 47
        E 0 81 43 50
        E 0 81 3e 50
        E 0 91 42 64
        E 0 91 3d 64
        E 40 e1 14 0b
        E 40 e1 32 26
        E 40 e1 6d 33
        E 40 e1 61 39
        E 40 e1 2d 3e
        E 40 e1 00 40
        E 0 b1 0a 49
        E 240 b1 0a 4b
        E 220 81 42 50
        E 0 81 3d 50
        E 20 e1 00 00
        E 0 b1 0a 4d
        E 0 91 43 64
        E 0 91 3e 64
        E 40 e1 14 0b
        E 40 e1 32 26
        E 40 e1 6d 33
        E 40 e1 61 39
        E 40 e1 2d 3e
        E 40 e1 00 40
        E 0 b1 0a 4f
        E 240 b1 0a 51
        E 0 81 43 50
        E 0 81 3e 50
        E 240 b1 0a 53
        E 240 b1 0a 55
        E 0 91 39 64
        E 0 91 3e 64
        E 240 b1 0a 57
        E 0 81 39 50
        E 0 81 3e 50
        E 0 91 40 64
        E 0 91 3b 64
        E 240 b1 0a 59
        E 0 81 40 50
        E 0 81 3b 50
        E 0 91 42 64
        E 0 91 3d 64
        E 240 b1 0a 5b
        E 0 81 42 50
        E 0 81 3d 50
        E 0 91 3e 64
        E 0 91 43 64
        E 240 b1 0a 5d
        E 0 81 3e 50
        E 0 81 43 50
        E 0 91 37 64
        E 240 e1 00 00
        E 0 b1 0a 5f
        E 0 81 37 50
        E 0 91 3e 64
        E 0 91 43 64
        E 40 e1 14 0b
        E 40 e1 32 26
        E 40 e1 6d 33
        E 40 e1 61 39
        E 40 e1 2d 3e
        E 40 e1 00 40
        E 0 b1 0a 61
        E 240 b1 0a 63
        E 240 b1 0a 65
        E 240 e1 00 00
        E 0 b1 0a 67
        E 0 81 3e 50
        E 0 81 43 50
        E 0 91 42 64
        E 0 91 3d 64
        E 40 e1 14 0b
        E 40 e1 32 26
        E 40 e1 6d 33
        E 40 e1 61 39
        E 40 e1 2d 3e
        E 40 e1 00 40
        E 0 b1 0a 69
        E 240 b1 0a 6b
        E 220 81 42 50
        E 0 81 3d 50
        E 20 e1 00 00
        E 0 b1 0a 6d
        E 0 91 43 64
        E 0 91 3e 64
        E 40 e1 14 0b
        E 40 e1 32 26
        E 40 e1 6d 33
        E 40 e1 61 39
        E 40 e1 2d 3e
        E 40 e1 00 40
        E 0 b1 0a 6f
        E 240 b1 0a 71
        E 0 81 43 50
        E 0 81 3e 50
        E 240 b1 0a 73
        E 240 b1 0a 75
        E 0 91 39 64
        E 0 91 3e 64
        E 240 b1 0a 77
        E 0 81 39 50
        E 0 81 3e 50
        E 0 91 40 64
        E 0 91 3b 64
        E 240 b1 0a 79
        E 0 81 40 50
        E 0 81 3b 50
        E 0 91 42 64
        E 0 91 3d 64
        E 240 b1 0a 7b
        E 0 81 42 50
        E 0 81 3d 50
        E 0 91 3e 64
        E 0 91 43 64
        E 240 b1 0a 7d
        E 0 81 3e 50
        E 0 81 43 50
        E 0 91 37 64
        E 240 e1 00 00
        E 0 b1 0a 7f
        E 0 81 37 50
        E 0 91 40 64
        E 0 91 45 64
        E 40 e1 14 0b
        E 40 e1 32 26
        E 40 e1 6d 33
        E 40 e1 61 39
        E 40 e1 2d 3e
        E 40 e1 00 40
        E 0 b1 0a 7d
        E 240 b1 0a 7b
        E 240 b1 0a 79
        E 240 e1 00 00
        E 0 b1 0a 77
        E 0 81 40 50
        E 0 81 45 50
        E 0 91 3e 64
        E 0 91 43 64
        E 40 e1 14 0b
        E 40 e1 32 26
        E 40 e1 6d 33
        E 40 e1 61 39
        E 40 e1 2d 3e
        E 40 e1 00 40
        E 0 b1 0a 75
        E 240 b1 0a 73
        E 220 81 3e 50
        E 0 81 43 50
        E 20 e1 00 00
        E 0 b1 0a 71
        E 0 91 45 64
        E 0 91 40 64
        E 40 e1 14 0b
        E 40 e1 32 26
        E 40 e1 6d 33
        E 40 e1 61 39
        E 40 e1 2d 3e
        E 40 e1 00 40
        E 0 b1 0a 6f
        E 240 b1 0a 6d
        E 0 81 45 50
        E 0 81 40 50
        E 240 b1 0a 6b
        E 240 b1 0a 69
        E 0 91 40 64
        E 0 91 3b 64
        E 240 b1 0a 67
        E 0 81 40 50
        E 0 81 3b 50
        E 0 91 41 64
        E 0 91 3c 64
        E 240 b1 0a 65
        E 0 81 41 50
        E 0 81 3c 50
        E 0 91 43 64
        E 0 91 3e 64
        E 240 b1 0a 63
        E 0 81 43 50
        E 0 81 3e 50
        E 0 91 45 64
        E 0 91 40 64
        E 240 b1 0a 61
        E 0 81 45 50
        E 0 81 40 50
        E 0 91 39 64
        E 240 e1 00 00
        E 0 b1 0a 5f
        E 0 81 39 50
        E 0 91 40 64
        E 0 91 45 64
        E 40 e1 14 0b
        E 40 e1 32 26
        E 40 e1 6d 33
        E 40 e1 61 39
        E 40 e1 2d 3e
        E 40 e1 00 40
        E 0 b1 0a 5d
        E 240 b1 0a 5b
        E 240 b1 0a 59
        E 240 e1 00 00
        E 0 b1 0a 57
        E 0 81 40 50
        E 0 81 45 50
        E 0 91 3e 64
        E 0 91 43 64
        E 40 e1 14 0b
        E 40 e1 32 26
        E 40 e1 6d 33
        E 40 e1 61 39
        E 40 e1 2d 3e
        E 40 e1 00 40
        E 0 b1 0a 55
        E 240 b1 0a 53
        E 220 81 3e 50
        E 0 81 43 50
        E 20 e1 00 00
        E 0 b1 0a 51
        E 0 91 45 64
        E 0 91 40 64
        E 40 e1 14 0b
        E 40 e1 32 26
        E 40 e1 6d 33
        E 40 e1 61 39
        E 40 e1 2d 3e
        E 40 b1 0a 4f
        E 240 b1 0a 4d
        E 0 81 45 50
        E 0 81 40 50
        E 0 91 42 64
        E 6 91 3d 64
        E 234 b1 0a 4b
        E 228 81 42 50
        E 12 b1 0a 49
        E 0 91 43 64
        E 6 91 3e 64
        E 14 81 3d 50
        E 220 b1 0a 47
        E 232 81 3e 50
        E 8 b1 0a 45
        E 0 91 44 64
        E 6 91 3f 64
        E 6 81 43 50
        E 228 b1 0a 43
        E 228 81 44 50
        E 12 b1 0a 41
        E 0 91 45 64
        E 0 91 40 64
        E 20 81 3f 50
        E 220 b1 0a 40
        E 0 81 45 50
        E 0 81 40 50
        E 0 91 41 64
        E 0 91 48 64
        E 240 b1 0a 3e
        E 240 b1 0a 3c
        E 240 b1 0a 3a
        E 240 b1 0a 38
        E 0 81 41 50
        E 0 81 48 50
        E 0 91 40 64
        E 0 91 47 64
        E 240 b1 0a 36
        E 226 81 40 50
        E 14 b1 0a 34
        E 0 91 40 64
        E 220 81 47 50
        E 20 b1 0a 32
        E 0 81 40 50
        E 0 91 41 64
        E 0 91 48 64
        E 240 b1 0a 30
        E 240 b1 0a 2e
        E 0 81 41 50
        E 0 91 45 64
        E 0 91 41 64
        E 12 81 48 50
        E 108 81 45 50
        E 0 91 46 64
        E 120 b1 0a 2c
        E 0 81 46 50
        E 0 91 47 64
        E 120 81 47 50
        E 0 91 48 64
        E 120 b1 0a 2a
        E 0 81 41 50
        E 0 91 41 64
        E 240 b1 0a 28
        E 0 81 41 50
        E 0 91 40 64
        E 240 b1 0a 26
        E 226 81 40 50
        E 14 b1 0a 24
        E 0 91 41 64
        E 240 b1 0a 22
        E 240 b1 0a 20
        E 0 91 43 64
        E 0 91 53 64
        E 0 91 4f 64
        E 4 81 48 50
        E 10 81 41 50
        E 226 b1 0a 1e
        E 240 b1 0a 1c
        E 240 b1 0a 1a
        E 240 b1 0a 18
        E 0 81 43 50
        E 0 91 41 64
        E 240 b1 0a 16
        E 226 81 41 50
        E 14 b1 0a 14
        E 0 91 41 64
        E 240 b1 0a 12
        E 0 81 41 50
        E 0 91 43 64
        E 240 b1 0a 10
        E 240 b1 0a 0e
        E 0 81 43 50
        E 0 91 43 64
        E 240 b1 0a 0c
        E 240 b1 0a 0a
        E 0 81 43 50
        E 0 91 43 64
        E 240 b1 0a 08
        E 0 81 53 50
        E 0 81 4f 50
        E 0 81 43 50
        E 0 91 41 64
        E 0 91 4a 64
        E 0 91 4f 64
        E 240 b1 0a 06
        E 0 81 4a 50
        E 0 81 4f 50
        E 0 91 4c 64
        E 0 91 51 64
        E 226 81 41 50
        E 14 b1 0a 04
        E 0 81 4c 50
        E 0 81 51 50
        E 0 91 43 64
        E 0 91 4e 64
        E 0 91 52 64
        E 240 b1 0a 02
        E 0 81 4e 50
        E 0 81 52 50
        E 0 91 4f 64
        E 0 91 53 64
        E 240 b1 0a 00
        E 0 81 4f 50
        E 0 81 53 50
        E 0 91 58 64
        E 0 91 45 64
        E 14 81 43 50
        E 226 b1 0a 02
        E 0 81 58 50
        E 0 91 57 64
        E 240 b1 0a 04
        E 0 81 57 50
        E 0 91 54 64
        E 220 81 45 50
        E 20 b1 0a 06
        E 0 81 54 50
        E 0 91 51 64
        E 0 91 43 64
        E 240 b1 0a 08
        E 0 81 51 50
        E 0 91 56 64
        E 240 b1 0a 0a
        E 0 81 43 50
        E 0 81 56 50
        E 0 91 54 64
        E 0 91 43 64
        E 240 b1 0a 0c
        E 0 81 54 50
        E 0 81 43 50
        E 0 91 51 64
        E 0 91 45 64
        E 240 b1 0a 0e
        E 0 81 51 50
        E 0 91 4f 64
        E 240 b1 0a 10
        E 0 81 4f 50
        E 0 91 4c 64
        E 0 91 48 64
        E 14 81 45 50
        E 226 b1 0a 12
        E 0 81 4c 50
        E 0 81 48 50
        E 0 91 4b 64
        E 0 91 47 64
        E 240 b1 0a 14
        E 0 81 4b 50
        E 0 81 47 50
        E 0 91 4a 64
        E 0 91 45 64
        E 240 b1 0a 16
        E 0 81 4a 50
        E 0 81 45 50
        E 0 91 48 64
        E 0 91 43 64
        E 240 b1 0a 18
        E 0 81 48 50
        E 0 81 43 50
        E 0 91 4a 64
        E 0 91 4e 64
        E 240 b1 0a 1a
        E 0 81 4a 50
        E 0 81 4e 50
        E 0 91 48 64
        E 0 91 4c 64
        E 240 b1 0a 1c
        E 0 81 48 50
        E 0 91 45 64
        E 240 b1 0a 1e
        E 0 81 45 50
        E 0 91 43 64
        E 240 b1 0a 20
        E 0 81 43 50
        E 0 91 45 64
        E 0 91 58 64
        E 8 81 4c 50
        E 232 b1 0a 22
        E 0 81 58 50
        E 0 91 57 64
        E 240 b1 0a 24
        E 0 81 57 50
        E 0 91 54 64
        E 220 81 45 50
        E 20 b1 0a 26
        E 0 81 54 50
        E 0 91 51 64
        E 0 91 43 64
        E 240 b1 0a 28
        E 0 81 51 50
        E 0 91 56 64
        E 240 b1 0a 2a
        E 0 81 43 50
        E 0 81 56 50
        E 0 91 54 64
        E 0 91 43 64
        E 240 b1 0a 2c
        E 0 81 54 50
        E 0 81 43 50
        E 0 91 51 64
        E 0 91 45 64
        E 240 b1 0a 2e
        E 0 81 51 50
        E 0 91 4f 64
        E 240 b1 0a 30
        E 0 81 4f 50
        E 0 91 4c 64
        E 0 91 48 64
        E 14 81 45 50
        E 226 b1 0a 32
        E 0 81 4c 50
        E 0 81 48 50
        E 0 91 4b 64
        E 0 91 47 64
        E 240 b1 0a 34
        E 0 81 4b 50
        E 0 81 47 50
        E 0 91 4a 64
        E 0 91 45 64
        E 240 b1 0a 36
        E 0 81 4a 50
        E 0 81 45 50
        E 0 91 48 64
        E 0 91 43 64
        E 240 b1 0a 38
        E 0 81 48 50
        E 0 81 43 50
        E 0 91 4a 64
        E 0 91 4e 64
        E 240 b1 0a 3a
        E 0 81 4a 50
        E 0 81 4e 50
        E 0 91 48 64
        E 0 91 4c 64
        E 240 b1 0a 3c
        E 0 81 48 50
        E 0 91 45 64
        E 240 b1 0a 3e
        E 0 81 45 50
        E 0 91 43 64
        E 240 e1 00 00
        E 0 b1 0a 40
        E 0 81 43 50
        E 0 91 51 64
        E 0 91 45 64
        E 8 81 4c 50
        E 32 e1 14 0b
        E 40 e1 32 26
        E 40 e1 6d 33
        E 40 e1 61 39
        E 40 e1 2d 3e
        E 40 e1 00 40
        E 0 b1 0a 41
        E 240 b1 0a 43
        E 240 b1 0a 45
        E 240 b1 0a 47
        E 0 81 51 50
        E 0 91 4f 64
        E 240 b1 0a 49
        E 240 b1 0a 4b
        E 220 81 4f 50
        E 20 b1 0a 4d
        E 0 91 51 64
        E 240 b1 0a 4f
        E 240 b1 0a 51
        E 0 81 51 50
        E 240 b1 0a 53
        E 240 b1 0a 55
        E 0 91 4c 64
        E 240 b1 0a 57
        E 0 81 45 50
        E 0 81 4c 50
        E 0 91 4d 64
        E 0 91 43 64
        E 240 b1 0a 59
        E 0 81 4d 50
        E 0 81 43 50
        E 0 91 4f 64
        E 0 91 45 64
        E 240 b1 0a 5b
        E 0 81 4f 50
        E 0 81 45 50
        E 0 91 51 64
        E 0 91 43 64
        E 240 b1 0a 5d
        E 0 81 51 50
        E 0 81 43 50
        E 0 91 45 64
        E 0 91 40 64
        E 240 e1 00 00
        E 0 b1 0a 5f
        E 0 81 45 50
        E 0 81 40 50
        E 0 91 4f 64
        E 0 91 43 64
        E 40 e1 14 0b
        E 40 e1 32 26
        E 40 e1 6d 33
        E 40 e1 61 39
        E 40 e1 2d 3e
        E 40 e1 00 40
        E 0 b1 0a 61
        E 240 b1 0a 63
        E 240 b1 0a 65
        E 240 b1 0a 67
        E 0 81 4f 50
        E 0 91 4e 64
        E 240 b1 0a 69
        E 240 b1 0a 6b
        E 220 81 4e 50
        E 20 b1 0a 6d
        E 0 91 4f 64
        E 240 b1 0a 6f
        E 240 b1 0a 71
        E 0 81 4f 50
        E 240 b1 0a 73
        E 240 b1 0a 75
        E 0 91 4a 64
        E 240 b1 0a 77
        E 0 81 43 50
        E 0 81 4a 50
        E 0 91 4c 64
        E 0 91 3e 64
        E 240 b1 0a 79
        E 0 81 4c 50
        E 0 81 3e 50
        E 0 91 4e 64
        E 0 91 43 64
        E 240 b1 0a 7b
        E 0 81 4e 50
        E 0 81 43 50
        E 0 91 4f 64
        E 0 91 41 64
        E 240 b1 0a 7d
        E 0 81 4f 50
        E 0 81 41 50
        E 0 91 42 64
        E 0 91 40 64
        E 240 e1 00 00
        E 0 b1 0a 7f
        E 0 81 42 50
        E 0 81 40 50
        E 0 91 4d 64
        E 0 91 41 64
        E 40 e1 14 0b
        E 40 e1 32 26
        E 40 e1 6d 33
        E 40 e1 61 39
        E 40 e1 2d 3e
        E 40 e1 00 40
        E 0 b1 0a 7d
        E 240 b1 0a 7b
        E 240 b1 0a 79
        E 240 b1 0a 77
        E 0 81 4d 50
        E 0 91 4c 64
        E 240 b1 0a 75
        E 240 b1 0a 73
        E 220 81 4c 50
        E 20 b1 0a 71
        E 0 91 4d 64
        E 240 b1 0a 6f
        E 240 b1 0a 6d
        E 0 81 4d 50
        E 240 b1 0a 6b
        E 240 b1 0a 69
        E 0 91 48 64
        E 240 b1 0a 67
        E 0 81 41 50
        E 0 81 48 50
        E 0 91 4a 64
        E 0 91 41 64
        E 240 b1 0a 65
        E 0 81 4a 50
        E 0 81 41 50
        E 0 91 4c 64
        E 0 91 45 64
        E 240 b1 0a 63
        E 0 81 4c 50
        E 0 81 45 50
        E 0 91 4d 64
        E 0 91 43 64
        E 240 b1 0a 61
        E 0 81 4d 50
        E 0 81 43 50
        E 0 91 41 64
        E 240 b1 0a 5f
        E 0 81 41 50
        E 0 91 4c 64
        E 0 91 40 64
        E 240 b1 0a 5d
        E 0 81 40 50
        E 0 91 44 64
        E 240 b1 0a 5b
        E 0 81 44 50
        E 0 91 47 64
        E 220 81 4c 50
        E 20 b1 0a 59
        E 0 81 47 50
        E 0 91 50 64
        E 0 91 44 64
        E 240 b1 0a 57
        E 0 81 44 50
        E 0 91 47 64
        E 240 b1 0a 55
        E 0 81 47 50
        E 0 91 4c 64
        E 240 b1 0a 53
        E 0 81 4c 50
        E 0 91 53 64
        E 0 91 47 64
        E 6 81 50 50
        E 234 b1 0a 51
        E 0 81 47 50
        E 0 91 44 64
        E 240 b1 0a 4f
        E 0 81 44 50
        E 0 91 40 64
        E 240 b1 0a 4d
        E 0 81 40 50
        E 0 91 56 64
        E 0 91 44 64
        E 6 81 53 50
        E 234 b1 0a 4b
        E 0 81 44 50
        E 0 91 47 64
        E 240 b1 0a 49
        E 0 81 47 50
        E 0 91 44 64
        E 240 b1 0a 47
        E 0 81 44 50
        E 0 91 58 64
        E 0 91 47 64
        E 8 81 56 50
        E 232 b1 0a 45
        E 0 81 47 50
        E 0 91 4c 64
        E 240 b1 0a 43
        E 0 81 4c 50
        E 0 91 4a 64
        E 240 b1 0a 41
        E 0 81 4a 50
        E 0 91 47 64
        E 240 b1 0a 40
        E 0 81 58 50
        E 0 81 47 50
        E 0 91 4d 64
        E 0 91 41 64
        E 0 91 48 64
        E 240 b1 0a 3e
        E 0 81 4d 50
        E 0 81 41 50
        E 0 81 48 50
        E 0 91 41 64
        E 0 91 4d 64
        E 0 91 48 64
        E 240 b1 0a 3c
        E 0 81 41 50
        E 240 b1 0a 3a
        E 0 81 4d 50
        E 0 81 48 50
        E 0 91 40 64
        E 0 91 4c 64
        E 0 91 47 64
        E 240 b1 0a 38
        E 0 81 40 50
        E 0 81 4c 50
        E 0 81 47 50
        E 0 91 40 64
        E 0 91 4c 64
        E 0 91 47 64
        E 240 b1 0a 36
        E 0 81 40 50
        E 240 b1 0a 34
        E 0 81 4c 50
        E 0 81 47 50
        E 0 91 3e 64
        E 0 91 4a 64
        E 0 91 45 64
        E 240 b1 0a 32
        E 0 81 3e 50
        E 0 81 4a 50
        E 0 81 45 50
        E 0 91 3e 64
        E 0 91 4a 64
        E 0 91 45 64
        E 240 b1 0a 30
        E 0 81 3e 50
        E 240 b1 0a 2e
        E 0 81 4a 50
        E 0 81 45 50
        E 0 91 3c 64
        E 0 91 48 64
        E 0 91 43 64
        E 240 b1 0a 2c
        E 0 81 3c 50
        E 0 81 48 50
        E 0 81 43 50
        E 0 91 3c 64
        E 0 91 48 64
        E 0 91 43 64
        E 240 b1 0a 2a
        E 0 81 3c 50
        E 240 b1 0a 28
        E 0 81 48 50
        E 0 81 43 50
        E 0 91 3b 64
        E 0 91 47 64
        E 0 91 42 64
        E 240 b1 0a 26
        E 226 81 3b 50
        E 0 81 47 50
        E 0 81 42 50
        E 14 b1 0a 24
        E 0 91 3c 64
        E 0 91 43 64
        E 0 91 48 64
        E 240 b1 0a 22
        E 240 b1 0a 20
        E 0 81 48 50
        E 0 91 41 64
        E 0 91 4d 64
        E 0 91 48 64
        E 14 81 3c 50
        E 0 81 43 50
        E 226 b1 0a 1e
        E 0 81 41 50
        E 0 81 4d 50
        E 0 81 48 50
        E 0 91 41 64
        E 0 91 4d 64
        E 0 91 48 64
        E 240 b1 0a 1c
        E 0 81 41 50
        E 240 b1 0a 1a
        E 0 81 4d 50
        E 0 81 48 50
        E 0 91 40 64
        E 0 91 4c 64
        E 0 91 47 64
        E 240 b1 0a 18
        E 0 81 40 50
        E 0 81 4c 50
        E 0 81 47 50
        E 0 91 40 64
        E 0 91 4c 64
        E 0 91 47 64
        E 240 b1 0a 16
        E 0 81 40 50
        E 240 b1 0a 14
        E 0 81 4c 50
        E 0 81 47 50
        E 0 91 3e 64
        E 0 91 4a 64
        E 0 91 45 64
        E 240 b1 0a 12
        E 0 81 3e 50
        E 0 81 4a 50
        E 0 81 45 50
        E 0 91 3e 64
        E 0 91 4a 64
        E 0 91 45 64
        E 240 b1 0a 10
        E 0 81 3e 50
        E 240 b1 0a 0e
        E 0 81 4a 50
        E 0 81 45 50
        E 0 91 3c 64
        E 0 91 48 64
        E 0 91 43 64
        E 240 b1 0a 0c
        E 0 81 3c 50
        E 0 81 48 50
        E 0 81 43 50
        E 0 91 3c 64
        E 0 91 48 64
        E 0 91 43 64
        E 240 b1 0a 0a
        E 0 81 3c 50
        E 240 b1 0a 08
        E 0 81 48 50
        E 0 81 43 50
        E 0 91 3b 64
        E 0 91 47 64
        E 0 91 42 64
        E 240 b1 0a 06
        E 226 81 3b 50
        E 0 81 47 50
        E 0 81 42 50
        E 14 b1 0a 04
        E 0 91 3c 64
        E 0 91 48 64
        E 0 91 43 64
        E 240 b1 0a 02
        E 240 b1 0a 3f
        E 0 81 43 50
        E 0 91 3e 64
        E 0 91 45 64
        E 0 91 4a 64
        E 14 81 3c 50
        E 0 81 48 50
        E 2866 81 3e 50
        E 0 81 45 50
        E 0 81 4a 50
        E 0 91 41 64
        E 0 91 48 64
        E 0 91 4d 64
        E 240 81 41 50
        E 0 81 48 50
        E 0 81 4d 50
        E 0 91 43 64
        E 0 91 4a 64
        E 0 91 4f 64
        E 240 81 43 50
        E 0 81 4a 50
        E 0 81 4f 50
        E 0 91 45 64
        E 0 91 4c 64
        E 0 91 51 64
        E 240 81 45 50
        E 0 81 4c 50
        E 0 81 51 50
        E 0 91 47 64
        E 0 91 4e 64
        E 0 91 53 64
        E 240 81 47 50
        E 0 81 4e 50
        E 0 81 53 50
        E 0 91 43 64
        E 0 91 4f 64
        E 0 91 4c 64
        E 240 81 43 50
        E 0 81 4f 50
        E 0 81 4c 50
        E 0 91 43 64
        E 0 91 4f 64
        E 0 91 4c 64
        E 240 81 43 50
        E 240 81 4f 50
        E 0 81 4c 50
        E 0 91 4f 64
        E 0 91 43 64
        E 0 91 4c 64
        E 240 81 4f 50
        E 0 81 43 50
        E 0 81 4c 50
        E 0 91 43 64
        E 0 91 4f 64
        E 0 91 4c 64
        E 240 81 43 50
        E 240 81 4f 50
        E 0 81 4c 50
        E 0 91 4c 64
        E 0 91 4f 64
        E 0 91 43 64
        E 240 81 4c 50
        E 0 81 4f 50
        E 0 81 43 50
        E 0 91 43 64
        E 0 91 4f 64
        E 0 91 4c 64
        E 240 81 43 50
        E 240 81 4f 50
        E 0 81 4c 50
        E 0 91 4f 64
        E 0 91 43 64
        E 0 91 4c 64
        E 240 81 4f 50
        E 0 81 43 50
        E 0 81 4c 50
        E 0 91 43 64
        E 0 91 4f 64
        E 0 91 4c 64
        E 240 81 43 50
        E 240 81 4f 50
        E 0 81 4c 50
        E 0 91 4c 64
        E 0 91 47 64
        E 0 91 40 64
        E 960 e1 00 40
        E 0 b1 06 01
        E 0 e1 00 00
        E 0 b1 0a 00
        E 0 81 4c 50
        E 0 81 47 50
        E 0 81 40 50
        E 0 91 45 64
        E 0 91 40 64
        E 40 e1 14 0b
        E 40 e1 32 26
        E 40 e1 6d 33
        E 40 e1 61 39
        E 40 e1 2d 3e
        E 40 e1 00 40
        E 0 b1 0a 02
        E 240 b1 0a 04
        E 240 b1 0a 06
        E 240 e1 00 00
        E 0 b1 0a 08
        E 0 81 45 50
        E 0 81 40 50
        E 0 91 3e 64
        E 0 91 43 64
        E 40 e1 14 0b
        E 40 e1 32 26
        E 40 e1 6d 33
        E 40 e1 61 39
        E 40 e1 2d 3e
        E 40 e1 00 40
        E 0 b1 0a 0a
        E 240 b1 0a 0c
        E 220 81 3e 50
        E 0 81 43 50
        E 20 e1 00 00
        E 0 b1 0a 0e
        E 0 91 45 64
        E 0 91 40 64
        E 40 e1 14 0b
        E 40 e1 32 26
        E 40 e1 6d 33
        E 40 e1 61 39
        E 40 e1 2d 3e
        E 40 e1 00 40
        E 0 b1 0a 10
        E 240 b1 0a 12
        E 0 81 45 50
        E 0 81 40 50
        E 240 b1 0a 14
        E 240 b1 0a 16
        E 0 91 40 64
        E 0 91 3b 64
        E 240 b1 0a 18
        E 0 81 40 50
        E 0 81 3b 50
        E 0 91 41 64
        E 0 91 3c 64
        E 240 b1 0a 1a
        E 0 81 41 50
        E 0 81 3c 50
        E 0 91 43 64
        E 0 91 3e 64
        E 240 b1 0a 1c
        E 0 81 43 50
        E 0 81 3e 50
        E 0 91 45 64
        E 0 91 40 64
        E 240 b1 0a 1e
        E 0 81 45 50
        E 0 81 40 50
        E 0 91 39 64
        E 240 e1 00 00
        E 0 b1 0a 20
        E 0 81 39 50
        E 0 91 40 64
        E 0 91 45 64
        E 40 e1 14 0b
        E 40 e1 32 26
        E 40 e1 6d 33
        E 40 e1 61 39
        E 40 e1 2d 3e
        E 40 e1 00 40
        E 0 b1 0a 22
        E 240 b1 0a 24
        E 240 b1 0a 26
        E 240 e1 00 00
        E 0 b1 0a 28
        E 0 81 40 50
        E 0 81 45 50
        E 0 91 3e 64
        E 0 91 43 64
        E 40 e1 14 0b
        E 40 e1 32 26
        E 40 e1 6d 33
        E 40 e1 61 39
        E 40 e1 2d 3e
        E 40 e1 00 40
        E 0 b1 0a 2a
        E 240 b1 0a 2c
        E 220 81 3e 50
        E 0 81 43 50
        E 20 e1 00 00
        E 0 b1 0a 2e
        E 0 91 45 64
        E 0 91 40 64
        E 40 e1 14 0b
        E 40 e1 32 26
        E 40 e1 6d 33
        E 40 e1 61 39
        E 40 e1 2d 3e
        E 40 e1 00 40
        E 0 b1 0a 30
        E 240 b1 0a 32
        E 0 81 45 50
        E 0 81 40 50
        E 240 b1 0a 34
        E 240 b1 0a 36
        E 0 91 40 64
        E 0 91 3b 64
        E 240 b1 0a 38
        E 0 81 40 50
        E 0 81 3b 50
        E 0 91 3c 64
        E 0 91 41 64
        E 240 b1 0a 3a
        E 0 81 3c 50
        E 0 81 41 50
        E 0 91 3e 64
        E 0 91 43 64
        E 240 b1 0a 3c
        E 0 81 3e 50
        E 0 81 43 50
        E 0 91 40 64
        E 0 91 45 64
        E 240 b1 0a 3e
        E 0 81 40 50
        E 0 81 45 50
        E 0 91 39 64
        E 240 e1 00 00
        E 0 b1 0a 40
        E 0 81 39 50
        E 0 91 43 64
        E 0 91 3e 64
        E 40 e1 14 0b
        E 40 e1 32 26
        E 40 e1 6d 33
        E 40 e1 61 39
        E 40 e1 2d 3e
        E 40 e1 00 40
        E 0 b1 0a 41
        E 240 b1 0a 43
        E 240 b1 0a 45
        E 240 e1 00 00
        E 0 b1 0a 47
        E 0 81 43 50
        E 0 81 3e 50
        E 0 91 42 64
        E 0 91 3d 64
        E 40 e1 14 0b
        E 40 e1 32 26
        E 40 e1 6d 33
        E 40 e1 61 39
        E 40 e1 2d 3e
        E 40 e1 00 40
        E 0 b1 0a 49
        E 240 b1 0a 4b
        E 220 81 42 50
        E 0 81 3d 50
        E 20 e1 00 00
        E 0 b1 0a 4d
        E 0 91 43 64
        E 0 91 3e 64
        E 40 e1 14 0b
        E 40 e1 32 26
        E 40 e1 6d 33
        E 40 e1 61 39
        E 40 e1 2d 3e
        E 40 e1 00 40
        E 0 b1 0a 4f
        E 240 b1 0a 51
        E 0 81 43 50
        E 0 81 3e 50
        E 240 b1 0a 53
        E 240 b1 0a 55
        E 0 91 39 64
        E 0 91 3e 64
        E 240 b1 0a 57
        E 0 81 39 50
        E 0 81 3e 50
        E 0 91 40 64
        E 0 91 3b 64
        E 240 b1 0a 59
        E 0 81 40 50
        E 0 81 3b 50
        E 0 91 42 64
        E 0 91 3d 64
        E 240 b1 0a 5b
        E 0 81 42 50
        E 0 81 3d 50
        E 0 91 3e 64
        E 0 91 43 64
        E 240 b1 0a 5d
        E 0 81 3e 50
        E 0 81 43 50
        E 0 91 37 64
        E 240 e1 00 00
        E 0 b1 0a 5f
        E 0 81 37 50
        E 0 91 3e 64
        E 0 91 43 64
        E 40 e1 14 0b
        E 40 e1 32 26
        E 40 e1 6d 33
        E 40 e1 61 39
        E 40 e1 2d 3e
        E 40 e1 00 40
        E 0 b1 0a 61
        E 240 b1 0a 63
        E 240 b1 0a 65
        E 240 e1 00 00
        E 0 b1 0a 67
        E 0 81 3e 50
        E 0 81 43 50
        E 0 91 42 64
        E 0 91 3d 64
        E 40 e1 14 0b
        E 40 e1 32 26
        E 40 e1 6d 33
        E 40 e1 61 39
        E 40 e1 2d 3e
        E 40 e1 00 40
        E 0 b1 0a 69
        E 240 b1 0a 6b
        E 220 81 42 50
        E 0 81 3d 50
        E 20 e1 00 00
        E 0 b1 0a 6d
        E 0 91 43 64
        E 0 91 3e 64
        E 40 e1 14 0b
        E 40 e1 32 26
        E 40 e1 6d 33
        E 40 e1 61 39
        E 40 e1 2d 3e
        E 40 e1 00 40
        E 0 b1 0a 6f
        E 240 b1 0a 71
        E 0 81 43 50
        E 0 81 3e 50
        E 240 b1 0a 73
        E 240 b1 0a 75
        E 0 91 39 64
        E 0 91 3e 64
        E 240 b1 0a 77
        E 0 81 39 50
        E 0 81 3e 50
        E 0 91 40 64
        E 0 91 3b 64
        E 240 b1 0a 79
        E 0 81 40 50
        E 0 81 3b 50
        E 0 91 42 64
        E 0 91 3d 64
        E 240 b1 0a 7b
        E 0 81 42 50
        E 0 81 3d 50
        E 0 91 3e 64
        E 0 91 43 64
        E 240 b1 0a 7d
        E 0 81 3e 50
        E 0 81 43 50
        E 0 91 37 64
        E 240 e1 00 00
        E 0 b1 0a 7f
        E 0 81 37 50
        E 0 91 40 64
        E 0 91 45 64
        E 40 e1 14 0b
        E 40 e1 32 26
        E 40 e1 6d 33
        E 40 e1 61 39
        E 40 e1 2d 3e
        E 40 e1 00 40
        E 0 b1 0a 7d
        E 240 b1 0a 7b
        E 240 b1 0a 79
        E 240 e1 00 00
        E 0 b1 0a 77
        E 0 81 40 50
        E 0 81 45 50
        E 0 91 3e 64
        E 0 91 43 64
        E 40 e1 14 0b
        E 40 e1 32 26
        E 40 e1 6d 33
        E 40 e1 61 39
        E 40 e1 2d 3e
        E 40 e1 00 40
        E 0 b1 0a 75
        E 240 b1 0a 73
        E 220 81 3e 50
        E 0 81 43 50
        E 20 e1 00 00
        E 0 b1 0a 71
        E 0 91 45 64
        E 0 91 40 64
        E 40 e1 14 0b
        E 40 e1 32 26
        E 40 e1 6d 33
        E 40 e1 61 39
        E 40 e1 2d 3e
        E 40 e1 00 40
        E 0 b1 0a 6f
        E 240 b1 0a 6d
        E 0 81 45 50
        E 0 81 40 50
        E 240 b1 0a 6b
        E 240 b1 0a 69
        E 0 91 40 64
        E 0 91 3b 64
        E 240 b1 0a 67
        E 0 81 40 50
        E 0 81 3b 50
        E 0 91 41 64
        E 0 91 3c 64
        E 240 b1 0a 65
        E 0 81 41 50
        E 0 81 3c 50
        E 0 91 43 64
        E 0 91 3e 64
        E 240 b1 0a 63
        E 0 81 43 50
        E 0 81 3e 50
        E 0 91 45 64
        E 0 91 40 64
        E 240 b1 0a 61
        E 0 81 45 50
        E 0 81 40 50
        E 0 91 39 64
        E 240 e1 00 00
        E 0 b1 0a 5f
        E 0 81 39 50
        E 0 91 40 64
        E 0 91 45 64
        E 40 e1 14 0b
        E 40 e1 32 26
        E 40 e1 6d 33
        E 40 e1 61 39
        E 40 e1 2d 3e
        E 40 e1 00 40
        E 0 b1 0a 5d
        E 240 b1 0a 5b
        E 240 b1 0a 59
        E 240 e1 00 00
        E 0 b1 0a 57
        E 0 81 40 50
        E 0 81 45 50
        E 0 91 3e 64
        E 0 91 43 64
        E 40 e1 14 0b
        E 40 e1 32 26
        E 40 e1 6d 33
        E 40 e1 61 39
        E 40 e1 2d 3e
        E 40 e1 00 40
        E 0 b1 0a 55
        E 240 b1 0a 53
        E 220 81 3e 50
        E 0 81 43 50
        E 20 e1 00 00
        E 0 b1 0a 51
        E 0 91 45 64
        E 0 91 40 64
        E 40 e1 14 0b
        E 40 e1 32 26
        E 40 e1 6d 33
        E 40 e1 61 39
        E 40 e1 2d 3e
        E 40 b1 0a 4f
        E 240 b1 0a 4d
        E 0 81 45 50
        E 0 81 40 50
        E 0 91 42 64
        E 6 91 3d 64
        E 234 b1 0a 4b
        E 228 81 42 50
        E 12 b1 0a 49
        E 0 91 43 64
        E 6 91 3e 64
        E 14 81 3d 50
        E 220 b1 0a 47
        E 232 81 3e 50
        E 8 b1 0a 45
        E 0 91 44 64
        E 6 91 3f 64
        E 6 81 43 50
        E 228 b1 0a 43
        E 228 81 44 50
        E 12 b1 0a 41
        E 0 91 45 64
        E 0 91 40 64
        E 20 81 3f 50
        E 220 b1 0a 40
        E 0 81 45 50
        E 0 81 40 50
        E 0 91 41 64
        E 0 91 48 64
        E 240 b1 0a 3e
        E 240 b1 0a 3c
        E 240 b1 0a 3a
        E 240 b1 0a 38
        E 0 81 41 50
        E 0 81 48 50
        E 0 91 40 64
        E 0 91 47 64
        E 240 b1 0a 36
        E 226 81 40 50
        E 14 b1 0a 34
        E 0 91 40 64
        E 220 81 47 50
        E 20 b1 0a 32
        E 0 81 40 50
        E 0 91 41 64
        E 0 91 48 64
        E 240 b1 0a 30
        E 240 b1 0a 2e
        E 0 81 41 50
        E 0 91 45 64
        E 0 91 41 64
        E 12 81 48 50
        E 108 81 45 50
        E 0 91 46 64
        E 120 b1 0a 2c
        E 0 81 46 50
        E 0 91 47 64
        E 120 81 47 50
        E 0 91 48 64
        E 120 b1 0a 2a
        E 0 81 41 50
        E 0 91 41 64
        E 240 b1 0a 28
        E 0 81 41 50
        E 0 91 40 64
        E 240 b1 0a 26
        E 226 81 40 50
        E 14 b1 0a 24
        E 0 91 41 64
        E 240 b1 0a 22
        E 240 b1 0a 20
        E 0 91 43 64
        E 0 91 53 64
        E 0 91 4f 64
        E 4 81 48 50
        E 10 81 41 50
        E 226 b1 0a 1e
        E 240 b1 0a 1c
        E 240 b1 0a 1a
        E 240 b1 0a 18
        E 0 81 43 50
        E 0 91 41 64
        E 240 b1 0a 16
        E 226 81 41 50
        E 14 b1 0a 14
        E 0 91 41 64
        E 240 b1 0a 12
        E 0 81 41 50
        E 0 91 43 64
        E 240 b1 0a 10
        E 240 b1 0a 0e
        E 0 81 43 50
        E 0 91 43 64
        E 240 b1 0a 0c
        E 240 b1 0a 0a
        E 0 81 43 50
        E 0 91 43 64
        E 240 b1 0a 08
        E 0 81 53 50
        E 0 81 4f 50
        E 0 81 43 50
        E 0 91 41 64
        E 0 91 4a 64
        E 0 91 4f 64
        E 240 b1 0a 06
        E 0 81 4a 50
        E 0 81 4f 50
        E 0 91 4c 64
        E 0 91 51 64
        E 226 81 41 50
        E 14 b1 0a 04
        E 0 81 4c 50
        E 0 81 51 50
        E 0 91 43 64
        E 0 91 4e 64
        E 0 91 52 64
        E 240 b1 0a 02
        E 0 81 4e 50
        E 0 81 52 50
        E 0 91 4f 64
        E 0 91 53 64
        E 240 b1 0a 00
        E 0 81 4f 50
        E 0 81 53 50
        E 0 91 58 64
        E 0 91 45 64
        E 14 81 43 50
        E 226 b1 0a 02
        E 0 81 58 50
        E 0 91 57 64
        E 240 b1 0a 04
        E 0 81 57 50
        E 0 91 54 64
        E 220 81 45 50
        E 20 b1 0a 06
        E 0 81 54 50
        E 0 91 51 64
        E 0 91 43 64
        E 240 b1 0a 08
        E 0 81 51 50
        E 0 91 56 64
        E 240 b1 0a 0a
        E 0 81 43 50
        E 0 81 56 50
        E 0 91 54 64
        E 0 91 43 64
        E 240 b1 0a 0c
        E 0 81 54 50
        E 0 81 43 50
        E 0 91 51 64
        E 0 91 45 64
        E 240 b1 0a 0e
        E 0 81 51 50
        E 0 91 4f 64
        E 240 b1 0a 10
        E 0 81 4f 50
        E 0 91 4c 64
        E 0 91 48 64
        E 14 81 45 50
        E 226 b1 0a 12
        E 0 81 4c 50
        E 0 81 48 50
        E 0 91 4b 64
        E 0 91 47 64
        E 240 b1 0a 14
        E 0 81 4b 50
        E 0 81 47 50
        E 0 91 4a 64
        E 0 91 45 64
        E 240 b1 0a 16
        E 0 81 4a 50
        E 0 81 45 50
        E 0 91 48 64
        E 0 91 43 64
        E 240 b1 0a 18
        E 0 81 48 50
        E 0 81 43 50
        E 0 91 4a 64
        E 0 91 4e 64
        E 240 b1 0a 1a
        E 0 81 4a 50
        E 0 81 4e 50
        E 0 91 48 64
        E 0 91 4c 64
        E 240 b1 0a 1c
        E 0 81 48 50
        E 0 91 45 64
        E 240 b1 0a 1e
        E 0 81 45 50
        E 0 91 43 64
        E 240 b1 0a 20
        E 0 81 43 50
        E 0 91 45 64
        E 0 91 58 64
        E 8 81 4c 50
        E 232 b1 0a 22
        E 0 81 58 50
        E 0 91 57 64
        E 240 b1 0a 24
        E 0 81 57 50
        E 0 91 54 64
        E 220 81 45 50
        E 20 b1 0a 26
        E 0 81 54 50
        E 0 91 51 64
        E 0 91 43 64
        E 240 b1 0a 28
        E 0 81 51 50
        E 0 91 56 64
        E 240 b1 0a 2a
        E 0 81 43 50
        E 0 81 56 50
        E 0 91 54 64
        E 0 91 43 64
        E 240 b1 0a 2c
        E 0 81 54 50
        E 0 81 43 50
        E 0 91 51 64
        E 0 91 45 64
        E 240 b1 0a 2e
        E 0 81 51 50
        E 0 91 4f 64
        E 240 b1 0a 30
        E 0 81 4f 50
        E 0 91 4c 64
        E 0 91 48 64
        E 14 81 45 50
        E 226 b1 0a 32
        E 0 81 4c 50
        E 0 81 48 50
        E 0 91 4b 64
        E 0 91 47 64
        E 240 b1 0a 34
        E 0 81 4b 50
        E 0 81 47 50
        E 0 91 4a 64
        E 0 91 45 64
        E 240 b1 0a 36
        E 0 81 4a 50
        E 0 81 45 50
        E 0 91 48 64
        E 0 91 43 64
        E 240 b1 0a 38
        E 0 81 48 50
        E 0 81 43 50
        E 0 91 4a 64
        E 0 91 4e 64
        E 240 b1 0a 3a
        E 0 81 4a 50
        E 0 81 4e 50
        E 0 91 48 64
        E 0 91 4c 64
        E 240 b1 0a 3c
        E 0 81 48 50
        E 0 91 45 64
        E 240 b1 0a 3e
        E 0 81 45 50
        E 0 91 43 64
        E 240 e1 00 00
        E 0 b1 0a 40
        E 0 81 43 50
        E 0 91 51 64
        E 0 91 45 64
        E 8 81 4c 50
        E 32 e1 14 0b
        E 40 e1 32 26
        E 40 e1 6d 33
        E 40 e1 61 39
        E 40 e1 2d 3e
        E 40 e1 00 40
        E 0 b1 0a 41
        E 240 b1 0a 43
        E 240 b1 0a 45
        E 240 b1 0a 47
        E 0 81 51 50
        E 0 91 4f 64
        E 240 b1 0a 49
        E 240 b1 0a 4b
        E 220 81 4f 50
        E 20 b1 0a 4d
        E 0 91 51 64
        E 240 b1 0a 4f
        E 240 b1 0a 51
        E 0 81 51 50
        E 240 b1 0a 53
        E 240 b1 0a 55
        E 0 91 4c 64
        E 240 b1 0a 57
        E 0 81 45 50
        E 0 81 4c 50
        E 0 91 4d 64
        E 0 91 43 64
        E 240 b1 0a 59
        E 0 81 4d 50
        E 0 81 43 50
        E 0 91 4f 64
        E 0 91 45 64
        E 240 b1 0a 5b
        E 0 81 4f 50
        E 0 81 45 50
        E 0 91 51 64
        E 0 91 43 64
        E 240 b1 0a 5d
        E 0 81 51 50
        E 0 81 43 50
        E 0 91 45 64
        E 0 91 40 64
        E 240 e1 00 00
        E 0 b1 0a 5f
        E 0 81 45 50
        E 0 81 40 50
        E 0 91 4f 64
        E 0 91 43 64
        E 40 e1 14 0b
        E 40 e1 32 26
        E 40 e1 6d 33
        E 40 e1 61 39
        E 40 e1 2d 3e
        E 40 e1 00 40
        E 0 b1 0a 61
        E 240 b1 0a 63
        E 240 b1 0a 65
        E 240 b1 0a 67
        E 0 81 4f 50
        E 0 91 4e 64
        E 240 b1 0a 69
        E 240 b1 0a 6b
        E 220 81 4e 50
        E 20 b1 0a 6d
        E 0 91 4f 64
        E 240 b1 0a 6f
        E 240 b1 0a 71
        E 0 81 4f 50
        E 240 b1 0a 73
        E 240 b1 0a 75
        E 0 91 4a 64
        E 240 b1 0a 77
        E 0 81 43 50
        E 0 81 4a 50
        E 0 91 4c 64
        E 0 91 3e 64
        E 240 b1 0a 79
        E 0 81 4c 50
        E 0 81 3e 50
        E 0 91 4e 64
        E 0 91 43 64
        E 240 b1 0a 7b
        E 0 81 4e 50
        E 0 81 43 50
        E 0 91 4f 64
        E 0 91 41 64
        E 240 b1 0a 7d
        E 0 81 4f 50
        E 0 81 41 50
        E 0 91 42 64
        E 0 91 40 64
        E 240 e1 00 00
        E 0 b1 0a 7f
        E 0 81 42 50
        E 0 81 40 50
        E 0 91 4d 64
        E 0 91 41 64
        E 40 e1 14 0b
        E 40 e1 32 26
        E 40 e1 6d 33
        E 40 e1 61 39
        E 40 e1 2d 3e
        E 40 e1 00 40
        E 0 b1 0a 7d
        E 240 b1 0a 7b
        E 240 b1 0a 79
        E 240 b1 0a 77
        E 0 81 4d 50
        E 0 91 4c 64
        E 240 b1 0a 75
        E 240 b1 0a 73
        E 220 81 4c 50
        E 20 b1 0a 71
        E 0 91 4d 64
        E 240 b1 0a 6f
        E 240 b1 0a 6d
        E 0 81 4d 50
        E 240 b1 0a 6b
        E 240 b1 0a 69
        E 0 91 48 64
        E 240 b1 0a 67
        E 0 81 41 50
        E 0 81 48 50
        E 0 91 4a 64
        E 0 91 41 64
        E 240 b1 0a 65
        E 0 81 4a 50
        E 0 81 41 50
        E 0 91 4c 64
        E 0 91 45 64
        E 240 b1 0a 63
        E 0 81 4c 50
        E 0 81 45 50
        E 0 91 4d 64
        E 0 91 43 64
        E 240 b1 0a 61
        E 0 81 4d 50
        E 0 81 43 50
        E 0 91 41 64
        E 240 b1 0a 5f
        E 0 81 41 50
        E 0 91 4c 64
        E 0 91 40 64
        E 240 b1 0a 5d
        E 0 81 40 50
        E 0 91 44 64
        E 240 b1 0a 5b
        E 0 81 44 50
        E 0 91 47 64
        E 220 81 4c 50
        E 20 b1 0a 59
        E 0 81 47 50
        E 0 91 50 64
        E 0 91 44 64
        E 240 b1 0a 57
        E 0 81 44 50
        E 0 91 47 64
        E 240 b1 0a 55
        E 0 81 47 50
        E 0 91 4c 64
        E 240 b1 0a 53
        E 0 81 4c 50
        E 0 91 53 64
        E 0 91 47 64
        E 6 81 50 50
        E 234 b1 0a 51
        E 0 81 47 50
        E 0 91 44 64
        E 240 b1 0a 4f
        E 0 81 44 50
        E 0 91 40 64
        E 240 b1 0a 4d
        E 0 81 40 50
        E 0 91 56 64
        E 0 91 44 64
        E 6 81 53 50
        E 234 b1 0a 4b
        E 0 81 44 50
        E 0 91 47 64
        E 240 b1 0a 49
        E 0 81 47 50
        E 0 91 44 64
        E 240 b1 0a 47
        E 0 81 44 50
        E 0 91 58 64
        E 0 91 47 64
        E 8 81 56 50
        E 232 b1 0a 45
        E 0 81 47 50
        E 0 91 4c 64
        E 240 b1 0a 43
        E 0 81 4c 50
        E 0 91 4a 64
        E 240 b1 0a 41
        E 0 81 4a 50
        E 0 91 47 64
        E 240 b1 0a 40
        E 0 81 58 50
        E 0 81 47 50
        E 0 91 4d 64
        E 0 91 41 64
        E 0 91 48 64
        E 240 b1 0a 3e
        E 0 81 4d 50
        E 0 81 41 50
        E 0 81 48 50
        E 0 91 41 64
        E 0 91 4d 64
        E 0 91 48 64
        E 240 b1 0a 3c
        E 0 81 41 50
        E 240 b1 0a 3a
        E 0 81 4d 50
        E 0 81 48 50
        E 0 91 40 64
        E 0 91 4c 64
        E 0 91 47 64
        E 240 b1 0a 38
        E 0 81 40 50
        E 0 81 4c 50
        E 0 81 47 50
        E 0 91 40 64
        E 0 91 4c 64
        E 0 91 47 64
        E 240 b1 0a 36
        E 0 81 40 50
        E 240 b1 0a 34
        E 0 81 4c 50
        E 0 81 47 50
        E 0 91 3e 64
        E 0 91 4a 64
        E 0 91 45 64
        E 240 b1 0a 32
        E 0 81 3e 50
        E 0 81 4a 50
        E 0 81 45 50
        E 0 91 3e 64
        E 0 91 4a 64
        E 0 91 45 64
        E 240 b1 0a 30
        E 0 81 3e 50
        E 240 b1 0a 2e
        E 0 81 4a 50
        E 0 81 45 50
        E 0 91 3c 64
        E 0 91 48 64
        E 0 91 43 64
        E 240 b1 0a 2c
        E 0 81 3c 50
        E 0 81 48 50
        E 0 81 43 50
        E 0 91 3c 64
        E 0 91 48 64
        E 0 91 43 64
        E 240 b1 0a 2a
        E 0 81 3c 50
        E 240 b1 0a 28
        E 0 81 48 50
        E 0 81 43 50
        E 0 91 3b 64
        E 0 91 47 64
        E 0 91 42 64
        E 240 b1 0a 26
        E 226 81 3b 50
        E 0 81 47 50
        E 0 81 42 50
        E 14 b1 0a 24
        E 0 91 3c 64
        E 0 91 43 64
        E 0 91 48 64
        E 240 b1 0a 22
        E 240 b1 0a 20
        E 0 81 48 50
        E 0 91 41 64
        E 0 91 4d 64
        E 0 91 48 64
        E 14 81 3c 50
        E 0 81 43 50
        E 226 b1 0a 1e
        E 0 81 41 50
        E 0 81 4d 50
        E 0 81 48 50
        E 0 91 41 64
        E 0 91 4d 64
        E 0 91 48 64
        E 240 b1 0a 1c
        E 0 81 41 50
        E 240 b1 0a 1a
        E 0 81 4d 50
        E 0 81 48 50
        E 0 91 40 64
        E 0 91 4c 64
        E 0 91 47 64
        E 240 b1 0a 18
        E 0 81 40 50
        E 0 81 4c 50
        E 0 81 47 50
        E 0 91 40 64
        E 0 91 4c 64
        E 0 91 47 64
        E 240 b1 0a 16
        E 0 81 40 50
        E 240 b1 0a 14
        E 0 81 4c 50
        E 0 81 47 50
        E 0 91 3e 64
        E 0 91 4a 64
        E 0 91 45 64
        E 240 b1 0a 12
        E 0 81 3e 50
        E 0 81 4a 50
        E 0 81 45 50
        E 0 91 3e 64
        E 0 91 4a 64
        E 0 91 45 64
        E 240 b1 0a 10
        E 0 81 3e 50
        E 240 b1 0a 0e
        E 0 81 4a 50
        E 0 81 45 50
        E 0 91 3c 64
        E 0 91 48 64
        E 0 91 43 64
        E 240 b1 0a 0c
        E 0 81 3c 50
        E 0 81 48 50
        E 0 81 43 50
        E 0 91 3c 64
        E 0 91 48 64
        E 0 91 43 64
        E 240 b1 0a 0a
        E 0 81 3c 50
        E 240 b1 0a 08
        E 0 81 48 50
        E 0 81 43 50
        E 0 91 3b 64
        E 0 91 47 64
        E 0 91 42 64
        E 240 b1 0a 06
        E 226 81 3b 50
        E 0 81 47 50
        E 0 81 42 50
        E 14 b1 0a 04
        E 0 91 3c 64
        E 0 91 48 64
        E 0 91 43 64
        E 240 b1 0a 02
        E 240 b1 0a 3f
        E 0 81 43 50
        E 0 91 3e 64
        E 0 91 45 64
        E 0 91 4a 64
        E 14 81 3c 50
        E 0 81 48 50
        E 2866 81 3e 50
        E 0 81 45 50
        E 0 81 4a 50
        E 0 91 41 64
        E 0 91 48 64
        E 0 91 4d 64
        E 240 81 41 50
        E 0 81 48 50
        E 0 81 4d 50
        E 0 91 43 64
        E 0 91 4a 64
        E 0 91 4f 64
        E 240 81 43 50
        E 0 81 4a 50
        E 0 81 4f 50
        E 0 91 45 64
        E 0 91 4c 64
        E 0 91 51 64
        E 240 81 45 50
        E 0 81 4c 50
        E 0 81 51 50
        E 0 91 47 64
        E 0 91 4e 64
        E 0 91 53 64
        E 240 81 47 50
        E 0 81 4e 50
        E 0 81 53 50
        E 0 91 43 64
        E 0 91 4f 64
        E 0 91 4c 64
        E 240 81 43 50
        E 0 81 4f 50
        E 0 81 4c 50
        E 0 91 43 64
        E 0 91 4f 64
        E 0 91 4c 64
        E 240 81 43 50
        E 240 81 4f 50
        E 0 81 4c 50
        E 0 91 4f 64
        E 0 91 43 64
        E 0 91 4c 64
        E 240 81 4f 50
        E 0 81 43 50
        E 0 81 4c 50
        E 0 91 43 64
        E 0 91 4f 64
        E 0 91 4c 64
        E 240 81 43 50
        E 240 81 4f 50
        E 0 81 4c 50
        E 0 91 4c 64
        E 0 91 4f 64
        E 0 91 43 64
        E 240 81 4c 50
        E 0 81 4f 50
        E 0 81 43 50
        E 0 91 43 64
        E 0 91 4f 64
        E 0 91 4c 64
        E 240 81 43 50
        E 240 81 4f 50
        E 0 81 4c 50
        E 0 91 4f 64
        E 0 91 43 64
        E 0 91 4c 64
        E 240 81 4f 50
        E 0 81 43 50
        E 0 81 4c 50
        E 0 91 43 64
        E 0 91 4f 64
        E 0 91 4c 64
        E 240 81 43 50
        E 240 81 4f 50
        E 0 81 4c 50
        E 0 91 4c 64
        E 0 91 47 64
        E 0 91 40 64
        E 960 e1 00 40
        E 0 b1 06 01
        E 0 e1 00 00
        E 0 b1 0a 00
        E 0 81 4c 50
        E 0 81 47 50
        E 0 81 40 50
        E 0 91 45 64
        E 0 91 40 64
        E 40 e1 14 0b
        E 40 e1 32 26
        E 40 e1 6d 33
        E 40 e1 61 39
        E 40 e1 2d 3e
        E 40 e1 00 40
        E 0 b1 0a 02
        E 240 b1 0a 04
        E 240 b1 0a 06
        E 240 e1 00 00
        E 0 b1 0a 08
        E 0 81 45 50
        E 0 81 40 50
        E 0 91 3e 64
        E 0 91 43 64
        E 40 e1 14 0b
        E 40 e1 32 26
        E 40 e1 6d 33
        E 40 e1 61 39
        E 40 e1 2d 3e
        E 40 e1 00 40
        E 0 b1 0a 0a
        E 240 b1 0a 0c
        E 220 81 3e 50
        E 0 81 43 50
        E 20 e1 00 00
        E 0 b1 0a 0e
        E 0 91 45 64
        E 0 91 40 64
        E 40 e1 14 0b
        E 40 e1 32 26
        E 40 e1 6d 33
        E 40 e1 61 39
        E 40 e1 2d 3e
        E 40 e1 00 40
        E 0 b1 0a 10
        E 240 b1 0a 12
        E 0 81 45 50
        E 0 81 40 50
        E 240 b1 0a 14
        E 240 b1 0a 16
        E 0 91 40 64
        E 0 91 3b 64
        E 240 b1 0a 18
        E 0 81 40 50
        E 0 81 3b 50
        E 0 91 41 64
        E 0 91 3c 64
        E 240 b1 0a 1a
        E 0 81 41 50
        E 0 81 3c 50
        E 0 91 43 64
        E 0 91 3e 64
        E 240 b1 0a 1c
        E 0 81 43 50
        E 0 81 3e 50
        E 0 91 45 64
        E 0 91 40 64
        E 240 b1 0a 1e
        E 0 81 45 50
        E 0 81 40 50
        E 0 91 39 64
        E 240 e1 00 00
        E 0 b1 0a 20
        E 0 81 39 50
        E 0 91 40 64
        E 0 91 45 64
        E 40 e1 14 0b
        E 40 e1 32 26
        E 40 e1 6d 33
        E 40 e1 61 39
        E 40 e1 2d 3e
        E 40 e1 00 40
        E 0 b1 0a 22
        E 240 b1 0a 24
        E 240 b1 0a 26
        E 240 e1 00 00
        E 0 b1 0a 28
        E 0 81 40 50
        E 0 81 45 50
        E 0 91 3e 64
        E 0 91 43 64
        E 40 e1 14 0b
        E 40 e1 32 26
        E 40 e1 6d 33
        E 40 e1 61 39
        E 40 e1 2d 3e
        E 40 e1 00 40
        E 0 b1 0a 2a
        E 240 b1 0a 2c
        E 220 81 3e 50
        E 0 81 43 50
        E 20 e1 00 00
        E 0 b1 0a 2e
        E 0 91 45 64
        E 0 91 40 64
        E 40 e1 14 0b
        E 40 e1 32 26
        E 40 e1 6d 33
        E 40 e1 61 39
        E 40 e1 2d 3e
        E 40 e1 00 40
        E 0 b1 0a 30
        E 240 b1 0a 32
        E 0 81 45 50
        E 0 81 40 50
        E 240 b1 0a 34
        E 240 b1 0a 36
        E 0 91 40 64
        E 0 91 3b 64
        E 240 b1 0a 38
        E 0 81 40 50
        E 0 81 3b 50
        E 0 91 3c 64
        E 0 91 41 64
        E 240 b1 0a 3a
        E 0 81 3c 50
        E 0 81 41 50
        E 0 91 3e 64
        E 0 91 43 64
        E 240 b1 0a 3c
        E 0 81 3e 50
        E 0 81 43 50
        E 0 91 40 64
        E 0 91 45 64
        E 240 b1 0a 3e
        E 0 81 40 50
        E 0 81 45 50
        E 0 91 39 64
        E 240 e1 00 00
        E 0 b1 0a 40
        E 0 81 39 50
        E 0 91 43 64
        E 0 91 3e 64
        E 40 e1 14 0b
        E 40 e1 32 26
        E 40 e1 6d 33
        E 40 e1 61 39
        E 40 e1 2d 3e
        E 40 e1 00 40
        E 0 b1 0a 41
        E 240 b1 0a 43
        E 240 b1 0a 45
        E 240 e1 00 00
        E 0 b1 0a 47
        E 0 81 43 50
        E 0 81 3e 50
        E 0 91 42 64
        E 0 91 3d 64
        E 40 e1 14 0b
        E 40 e1 32 26
        E 40 e1 6d 33
        E 40 e1 61 39
        E 40 e1 2d 3e
        E 40 e1 00 40
        E 0 b1 0a 49
        E 240 b1 0a 4b
        E 220 81 42 50
        E 0 81 3d 50
        E 20 e1 00 00
        E 0 b1 0a 4d
        E 0 91 43 64
        E 0 91 3e 64
        E 40 e1 14 0b
        E 40 e1 32 26
        E 40 e1 6d 33
        E 40 e1 61 39
        E 40 e1 2d 3e
        E 40 e1 00 40
        E 0 b1 0a 4f
        E 240 b1 0a 51
        E 0 81 43 50
        E 0 81 3e 50
        E 240 b1 0a 53
        E 240 b1 0a 55
        E 0 91 39 64
        E 0 91 3e 64
        E 240 b1 0a 57
        E 0 81 39 50
        E 0 81 3e 50
        E 0 91 40 64
        E 0 91 3b 64
        E 240 b1 0a 59
        E 0 81 40 50
        E 0 81 3b 50
        E 0 91 42 64
        E 0 91 3d 64
        E 240 b1 0a 5b
        E 0 81 42 50
        E 0 81 3d 50
        E 0 91 3e 64
        E 0 91 43 64
        E 240 b1 0a 5d
        E 0 81 3e 50
        E 0 81 43 50
        E 0 91 37 64
        E 240 e1 00 00
        E 0 b1 0a 5f
        E 0 81 37 50
        E 0 91 3e 64
        E 0 91 43 64
        E 40 e1 14 0b
        E 40 e1 32 26
        E 40 e1 6d 33
        E 40 e1 61 39
        E 40 e1 2d 3e
        E 40 e1 00 40
        E 0 b1 0a 61
        E 240 b1 0a 63
        E 240 b1 0a 65
        E 240 e1 00 00
        E 0 b1 0a 67
        E 0 81 3e 50
        E 0 81 43 50
        E 0 91 42 64
        E 0 91 3d 64
        E 40 e1 14 0b
        E 40 e1 32 26
        E 40 e1 6d 33
        E 40 e1 61 39
        E 40 e1 2d 3e
        E 40 e1 00 40
        E 0 b1 0a 69
        E 240 b1 0a 6b
        E 220 81 42 50
        E 0 81 3d 50
        E 20 e1 00 00
        E 0 b1 0a 6d
        E 0 91 43 64
        E 0 91 3e 64
        E 40 e1 14 0b
        E 40 e1 32 26
        E 40 e1 6d 33
        E 40 e1 61 39
        E 40 e1 2d 3e
        E 40 e1 00 40
        E 0 b1 0a 6f
        E 240 b1 0a 71
        E 0 81 43 50
        E 0 81 3e 50
        E 240 b1 0a 73
        E 240 b1 0a 75
        E 0 91 39 64
        E 0 91 3e 64
        E 240 b1 0a 77
        E 0 81 39 50
        E 0 81 3e 50
        E 0 91 40 64
        E 0 91 3b 64
        E 240 b1 0a 79
        E 0 81 40 50
        E 0 81 3b 50
        E 0 91 42 64
        E 0 91 3d 64
        E 240 b1 0a 7b
        E 0 81 42 50
        E 0 81 3d 50
        E 0 91 3e 64
        E 0 91 43 64
        E 240 b1 0a 7d
        E 0 81 3e 50
        E 0 81 43 50
        E 0 91 37 64
        E 240 e1 00 00
        E 0 b1 0a 7f
        E 0 81 37 50
        E 0 91 40 64
        E 0 91 45 64
        E 40 e1 14 0b
        E 40 e1 32 26
        E 40 e1 6d 33
        E 40 e1 61 39
        E 40 e1 2d 3e
        E 40 e1 00 40
        E 0 b1 0a 7d
        E 240 b1 0a 7b
        E 240 b1 0a 79
        E 240 e1 00 00
        E 0 b1 0a 77
        E 0 81 40 50
        E 0 81 45 50
        E 0 91 3e 64
        E 0 91 43 64
        E 40 e1 14 0b
        E 40 e1 32 26
        E 40 e1 6d 33
        E 40 e1 61 39
        E 40 e1 2d 3e
        E 40 e1 00 40
        E 0 b1 0a 75
        E 240 b1 0a 73
        E 220 81 3e 50
        E 0 81 43 50
        E 20 e1 00 00
        E 0 b1 0a 71
        E 0 91 45 64
        E 0 91 40 64
        E 40 e1 14 0b
        E 40 e1 32 26
        E 40 e1 6d 33
        E 40 e1 61 39
        E 40 e1 2d 3e
        E 40 e1 00 40
        E 0 b1 0a 6f
        E 240 b1 0a 6d
        E 0 81 45 50
        E 0 81 40 50
        E 240 b1 0a 6b
        E 240 b1 0a 69
        E 0 91 40 64
        E 0 91 3b 64
        E 240 b1 0a 67
        E 0 81 40 50
        E 0 81 3b 50
        E 0 91 41 64
        E 0 91 3c 64
        E 240 b1 0a 65
        E 0 81 41 50
        E 0 81 3c 50
        E 0 91 43 64
        E 0 91 3e 64
        E 240 b1 0a 63
        E 0 81 43 50
        E 0 81 3e 50
        E 0 91 45 64
        E 0 91 40 64
        E 240 b1 0a 61
        E 0 81 45 50
        E 0 81 40 50
        E 0 91 39 64
        E 240 e1 00 00
        E 0 b1 0a 5f
        E 0 81 39 50
        E 0 91 40 64
        E 0 91 45 64
        E 40 e1 14 0b
        E 40 e1 32 26
        E 40 e1 6d 33
        E 40 e1 61 39
        E 40 e1 2d 3e
        E 40 e1 00 40
        E 0 b1 0a 5d
        E 240 b1 0a 5b
        E 240 b1 0a 59
        E 240 e1 00 00
        E 0 b1 0a 57
        E 0 81 40 50
        E 0 81 45 50
        E 0 91 3e 64
        E 0 91 43 64
        E 40 e1 14 0b
        E 40 e1 32 26
        E 40 e1 6d 33
        E 40 e1 61 39
        E 40 e1 2d 3e
        E 40 e1 00 40
        E 0 b1 0a 55
        E 240 b1 0a 53
        E 220 81 3e 50
        E 0 81 43 50
        E 20 e1 00 00
        E 0 b1 0a 51
        E 0 91 45 64
        E 0 91 40 64
        E 40 e1 14 0b
        E 40 e1 32 26
        E 40 e1 6d 33
        E 40 e1 61 39
        E 40 e1 2d 3e
        E 40 b1 0a 4f
        E 240 b1 0a 4d
        E 0 81 45 50
        E 0 81 40 50
        E 0 91 42 64
        E 6 91 3d 64
        E 234 b1 0a 4b
        E 228 81 42 50
        E 12 b1 0a 49
        E 0 91 43 64
        E 6 91 3e 64
        E 14 81 3d 50
        E 220 b1 0a 47
        E 232 81 3e 50
        E 8 b1 0a 45
        E 0 91 44 64
        E 6 91 3f 64
        E 6 81 43 50
        E 228 b1 0a 43
        E 228 81 44 50
        E 12 b1 0a 41
        E 0 91 45 64
        E 0 91 40 64
        E 20 81 3f 50
        E 220 b1 0a 40
        E 0 81 45 50
        E 0 81 40 50
        E 0 91 41 64
        E 0 91 48 64
        E 240 b1 0a 3e
        E 240 b1 0a 3c
        E 240 b1 0a 3a
        E 240 b1 0a 38
        E 0 81 41 50
        E 0 81 48 50
        E 0 91 40 64
        E 0 91 47 64
        E 240 b1 0a 36
        E 226 81 40 50
        E 14 b1 0a 34
        E 0 91 40 64
        E 220 81 47 50
        E 20 b1 0a 32
        E 0 81 40 50
        E 0 91 41 64
        E 0 91 48 64
        E 240 b1 0a 30
        E 240 b1 0a 2e
        E 0 81 41 50
        E 0 91 45 64
        E 0 91 41 64
        E 12 81 48 50
        E 108 81 45 50
        E 0 91 46 64
        E 120 b1 0a 2c
        E 0 81 46 50
        E 0 91 47 64
        E 120 81 47 50
        E 0 91 48 64
        E 120 b1 0a 2a
        E 0 81 41 50
        E 0 91 41 64
        E 240 b1 0a 28
        E 0 81 41 50
        E 0 91 40 64
        E 240 b1 0a 26
        E 226 81 40 50
        E 14 b1 0a 24
        E 0 91 41 64
        E 240 b1 0a 22
        E 240 b1 0a 20
        E 0 91 43 64
        E 0 91 53 64
        E 0 91 4f 64
        E 4 81 48 50
        E 10 81 41 50
        E 226 b1 0a 1e
        E 240 b1 0a 1c
        E 240 b1 0a 1a
        E 240 b1 0a 18
        E 0 81 43 50
        E 0 91 41 64
        E 240 b1 0a 16
        E 226 81 41 50
        E 14 b1 0a 14
        E 0 91 41 64
        E 240 b1 0a 12
        E 0 81 41 50
        E 0 91 43 64
        E 240 b1 0a 10
        E 240 b1 0a 0e
        E 0 81 43 50
        E 0 91 43 64
        E 240 b1 0a 0c
        E 240 b1 0a 0a
        E 0 81 43 50
        E 0 91 43 64
        E 240 b1 0a 08
        E 0 81 53 50
        E 0 81 4f 50
        E 0 81 43 50
        E 0 91 41 64
        E 0 91 4a 64
        E 0 91 4f 64
        E 240 b1 0a 06
        E 0 81 4a 50
        E 0 81 4f 50
        E 0 91 4c 64
        E 0 91 51 64
        E 226 81 41 50
        E 14 b1 0a 04
        E 0 81 4c 50
        E 0 81 51 50
        E 0 91 43 64
        E 0 91 4e 64
        E 0 91 52 64
        E 240 b1 0a 02
        E 0 81 4e 50
        E 0 81 52 50
        E 0 91 4f 64
        E 0 91 53 64
        E 240 b1 0a 00
        E 0 81 4f 50
        E 0 81 53 50
        E 0 91 58 64
        E 0 91 45 64
        E 14 81 43 50
        E 226 b1 0a 02
        E 0 81 58 50
        E 0 91 57 64
        E 240 b1 0a 04
        E 0 81 57 50
        E 0 91 54 64
        E 220 81 45 50
        E 20 b1 0a 06
        E 0 81 54 50
        E 0 91 51 64
        E 0 91 43 64
        E 240 b1 0a 08
        E 0 81 51 50
        E 0 91 56 64
        E 240 b1 0a 0a
        E 0 81 43 50
        E 0 81 56 50
        E 0 91 54 64
        E 0 91 43 64
        E 240 b1 0a 0c
        E 0 81 54 50
        E 0 81 43 50
        E 0 91 51 64
        E 0 91 45 64
        E 240 b1 0a 0e
        E 0 81 51 50
        E 0 91 4f 64
        E 240 b1 0a 10
        E 0 81 4f 50
        E 0 91 4c 64
        E 0 91 48 64
        E 14 81 45 50
        E 226 b1 0a 12
        E 0 81 4c 50
        E 0 81 48 50
        E 0 91 4b 64
        E 0 91 47 64
        E 240 b1 0a 14
        E 0 81 4b 50
        E 0 81 47 50
        E 0 91 4a 64
        E 0 91 45 64
        E 240 b1 0a 16
        E 0 81 4a 50
        E 0 81 45 50
        E 0 91 48 64
        E 0 91 43 64
        E 240 b1 0a 18
        E 0 81 48 50
        E 0 81 43 50
        E 0 91 4a 64
        E 0 91 4e 64
        E 240 b1 0a 1a
        E 0 81 4a 50
        E 0 81 4e 50
        E 0 91 48 64
        E 0 91 4c 64
        E 240 b1 0a 1c
        E 0 81 48 50
        E 0 91 45 64
        E 240 b1 0a 1e
        E 0 81 45 50
        E 0 91 43 64
        E 240 b1 0a 20
        E 0 81 43 50
        E 0 91 45 64
        E 0 91 58 64
        E 8 81 4c 50
        E 232 b1 0a 22
        E 0 81 58 50
        E 0 91 57 64
        E 240 b1 0a 24
        E 0 81 57 50
        E 0 91 54 64
        E 220 81 45 50
        E 20 b1 0a 26
        E 0 81 54 50
        E 0 91 51 64
        E 0 91 43 64
        E 240 b1 0a 28
        E 0 81 51 50
        E 0 91 56 64
        E 240 b1 0a 2a
        E 0 81 43 50
        E 0 81 56 50
        E 0 91 54 64
        E 0 91 43 64
        E 240 b1 0a 2c
        E 0 81 54 50
        E 0 81 43 50
        E 0 91 51 64
        E 0 91 45 64
        E 240 b1 0a 2e
        E 0 81 51 50
        E 0 91 4f 64
        E 240 b1 0a 30
        E 0 81 4f 50
        E 0 91 4c 64
        E 0 91 48 64
        E 14 81 45 50
        E 226 b1 0a 32
        E 0 81 4c 50
        E 0 81 48 50
        E 0 91 4b 64
        E 0 91 47 64
        E 240 b1 0a 34
        E 0 81 4b 50
        E 0 81 47 50
        E 0 91 4a 64
        E 0 91 45 64
        E 240 b1 0a 36
        E 0 81 4a 50
        E 0 81 45 50
        E 0 91 48 64
        E 0 91 43 64
        E 240 b1 0a 38
        E 0 81 48 50
        E 0 81 43 50
        E 0 91 4a 64
        E 0 91 4e 64
        E 240 b1 0a 3a
        E 0 81 4a 50
        E 0 81 4e 50
        E 0 91 48 64
        E 0 91 4c 64
        E 240 b1 0a 3c
        E 0 81 48 50
        E 0 91 45 64
        E 240 b1 0a 3e
        E 0 81 45 50
        E 0 91 43 64
        E 240 e1 00 00
        E 0 b1 0a 40
        E 0 81 43 50
        E 0 91 51 64
        E 0 91 45 64
        E 8 81 4c 50
        E 32 e1 14 0b
        E 40 e1 32 26
        E 40 e1 6d 33
        E 40 e1 61 39
        E 40 e1 2d 3e
        E 40 e1 00 40
        E 0 b1 0a 41
        E 240 b1 0a 43
        E 240 b1 0a 45
        E 240 b1 0a 47
        E 0 81 51 50
        E 0 91 4f 64
        E 240 b1 0a 49
        E 240 b1 0a 4b
        E 220 81 4f 50
        E 20 b1 0a 4d
        E 0 91 51 64
        E 240 b1 0a 4f
        E 240 b1 0a 51
        E 0 81 51 50
        E 240 b1 0a 53
        E 240 b1 0a 55
        E 0 91 4c 64
        E 240 b1 0a 57
        E 0 81 45 50
        E 0 81 4c 50
        E 0 91 4d 64
        E 0 91 43 64
        E 240 b1 0a 59
        E 0 81 4d 50
        E 0 81 43 50
        E 0 91 4f 64
        E 0 91 45 64
        E 240 b1 0a 5b
        E 0 81 4f 50
        E 0 81 45 50
        E 0 91 51 64
        E 0 91 43 64
        E 240 b1 0a 5d
        E 0 81 51 50
        E 0 81 43 50
        E 0 91 45 64
        E 0 91 40 64
        E 240 e1 00 00
        E 0 b1 0a 5f
        E 0 81 45 50
        E 0 81 40 50
        E 0 91 4f 64
        E 0 91 43 64
        E 40 e1 14 0b
        E 40 e1 32 26
        E 40 e1 6d 33
        E 40 e1 61 39
        E 40 e1 2d 3e
        E 40 e1 00 40
        E 0 b1 0a 61
        E 240 b1 0a 63
        E 240 b1 0a 65
        E 240 b1 0a 67
        E 0 81 4f 50
        E 0 91 4e 64
        E 240 b1 0a 69
        E 240 b1 0a 6b
        E 220 81 4e 50
        E 20 b1 0a 6d
        E 0 91 4f 64
        E 240 b1 0a 6f
        E 240 b1 0a 71
        E 0 81 4f 50
        E 240 b1 0a 73
        E 240 b1 0a 75
        E 0 91 4a 64
        E 240 b1 0a 77
        E 0 81 43 50
        E 0 81 4a 50
        E 0 91 4c 64
        E 0 91 3e 64
        E 240 b1 0a 79
        E 0 81 4c 50
        E 0 81 3e 50
        E 0 91 4e 64
        E 0 91 43 64
        E 240 b1 0a 7b
        E 0 81 4e 50
        E 0 81 43 50
        E 0 91 4f 64
        E 0 91 41 64
        E 240 b1 0a 7d
        E 0 81 4f 50
        E 0 81 41 50
        E 0 91 42 64
        E 0 91 40 64
        E 240 e1 00 00
        E 0 b1 0a 7f
        E 0 81 42 50
        E 0 81 40 50
        E 0 91 4d 64
        E 0 91 41 64
        E 40 e1 14 0b
        E 40 e1 32 26
        E 40 e1 6d 33
        E 40 e1 61 39
        E 40 e1 2d 3e
        E 40 e1 00 40
        E 0 b1 0a 7d
        E 240 b1 0a 7b
        E 240 b1 0a 79
        E 240 b1 0a 77
        E 0 81 4d 50
        E 0 91 4c 64
        E 240 b1 0a 75
        E 240 b1 0a 73
        E 220 81 4c 50
        E 20 b1 0a 71
        E 0 91 4d 64
        E 240 b1 0a 6f
        E 240 b1 0a 6d
        E 0 81 4d 50
        E 240 b1 0a 6b
        E 240 b1 0a 69
        E 0 91 48 64
        E 240 b1 0a 67
        E 0 81 41 50
        E 0 81 48 50
        E 0 91 4a 64
        E 0 91 41 64
        E 240 b1 0a 65
        E 0 81 4a 50
        E 0 81 41 50
        E 0 91 4c 64
        E 0 91 45 64
        E 240 b1 0a 63
        E 0 81 4c 50
        E 0 81 45 50
        E 0 91 4d 64
        E 0 91 43 64
        E 240 b1 0a 61
        E 0 81 4d 50
        E 0 81 43 50
        E 0 91 41 64
        E 240 b1 0a 5f
        E 0 81 41 50
        E 0 91 4c 64
        E 0 91 40 64
        E 240 b1 0a 5d
        E 0 81 40 50
        E 0 91 44 64
        E 240 b1 0a 5b
        E 0 81 44 50
        E 0 91 47 64
        E 220 81 4c 50
        E 20 b1 0a 59
        E 0 81 47 50
        E 0 91 50 64
        E 0 91 44 64
        E 240 b1 0a 57
        E 0 81 44 50
        E 0 91 47 64
        E 240 b1 0a 55
        E 0 81 47 50
        E 0 91 4c 64
        E 240 b1 0a 53
        E 0 81 4c 50
        E 0 91 53 64
        E 0 91 47 64
        E 6 81 50 50
        E 234 b1 0a 51
        E 0 81 47 50
        E 0 91 44 64
        E 240 b1 0a 4f
        E 0 81 44 50
        E 0 91 40 64
        E 240 b1 0a 4d
        E 0 81 40 50
        E 0 91 56 64
        E 0 91 44 64
        E 6 81 53 50
        E 234 b1 0a 4b
        E 0 81 44 50
        E 0 91 47 64
        E 240 b1 0a 49
        E 0 81 47 50
        E 0 91 44 64
        E 240 b1 0a 47
        E 0 81 44 50
        E 0 91 58 64
        E 0 91 47 64
        E 8 81 56 50
        E 232 b1 0a 45
        E 0 81 47 50
        E 0 91 4c 64
        E 240 b1 0a 43
        E 0 81 4c 50
        E 0 91 4a 64
        E 240 b1 0a 41
        E 0 81 4a 50
        E 0 91 47 64
        E 240 b1 0a 40
        E 0 81 58 50
        E 0 81 47 50
        E 0 91 4d 64
        E 0 91 41 64
        E 0 91 48 64
        E 240 b1 0a 3e
        E 0 81 4d 50
        E 0 81 41 50
        E 0 81 48 50
        E 0 91 41 64
        E 0 91 4d 64
        E 0 91 48 64
        E 240 b1 0a 3c
        E 0 81 41 50
        E 240 b1 0a 3a
        E 0 81 4d 50
        E 0 81 48 50
        E 0 91 40 64
        E 0 91 4c 64
        E 0 91 47 64
        E 240 b1 0a 38
        E 0 81 40 50
        E 0 81 4c 50
        E 0 81 47 50
        E 0 91 40 64
        E 0 91 4c 64
        E 0 91 47 64
        E 240 b1 0a 36
        E 0 81 40 50
        E 240 b1 0a 34
        E 0 81 4c 50
        E 0 81 47 50
        E 0 91 3e 64
        E 0 91 4a 64
        E 0 91 45 64
        E 240 b1 0a 32
        E 0 81 3e 50
        E 0 81 4a 50
        E 0 81 45 50
        E 0 91 3e 64
        E 0 91 4a 64
        E 0 91 45 64
        E 240 b1 0a 30
        E 0 81 3e 50
        E 240 b1 0a 2e
        E 0 81 4a 50
        E 0 81 45 50
        E 0 91 3c 64
        E 0 91 48 64
        E 0 91 43 64
        E 240 b1 0a 2c
        E 0 81 3c 50
        E 0 81 48 50
        E 0 81 43 50
        E 0 91 3c 64
        E 0 91 48 64
        E 0 91 43 64
        E 240 b1 0a 2a
        E 0 81 3c 50
        E 240 b1 0a 28
        E 0 81 48 50
        E 0 81 43 50
        E 0 91 3b 64
        E 0 91 47 64
        E 0 91 42 64
        E 240 b1 0a 26
        E 226 81 3b 50
        E 0 81 47 50
        E 0 81 42 50
        E 14 b1 0a 24
        E 0 91 3c 64
        E 0 91 43 64
        E 0 91 48 64
        E 240 b1 0a 22
        E 240 b1 0a 20
        E 0 81 48 50
        E 0 91 41 64
        E 0 91 4d 64
        E 0 91 48 64
        E 14 81 3c 50
        E 0 81 43 50
        E 226 b1 0a 1e
        E 0 81 41 50
        E 0 81 4d 50
        E 0 81 48 50
        E 0 91 41 64
        E 0 91 4d 64
        E 0 91 48 64
        E 240 b1 0a 1c
        E 0 81 41 50
        E 240 b1 0a 1a
        E 0 81 4d 50
        E 0 81 48 50
        E 0 91 40 64
        E 0 91 4c 64
        E 0 91 47 64
        E 240 b1 0a 18
        E 0 81 40 50
        E 0 81 4c 50
        E 0 81 47 50
        E 0 91 40 64
        E 0 91 4c 64
        E 0 91 47 64
        E 240 b1 0a 16
        E 0 81 40 50
        E 240 b1 0a 14
        E 0 81 4c 50
        E 0 81 47 50
        E 0 91 3e 64
        E 0 91 4a 64
        E 0 91 45 64
        E 240 b1 0a 12
        E 0 81 3e 50
        E 0 81 4a 50
        E 0 81 45 50
        E 0 91 3e 64
        E 0 91 4a 64
        E 0 91 45 64
        E 240 b1 0a 10
        E 0 81 3e 50
        E 240 b1 0a 0e
        E 0 81 4a 50
        E 0 81 45 50
        E 0 91 3c 64
        E 0 91 48 64
        E 0 91 43 64
        E 240 b1 0a 0c
        E 0 81 3c 50
        E 0 81 48 50
        E 0 81 43 50
        E 0 91 3c 64
        E 0 91 48 64
        E 0 91 43 64
        E 240 b1 0a 0a
        E 0 81 3c 50
        E 240 b1 0a 08
        E 0 81 48 50
        E 0 81 43 50
        E 0 91 3b 64
        E 0 91 47 64
        E 0 91 42 64
        E 240 b1 0a 06
        E 226 81 3b 50
        E 0 81 47 50
        E 0 81 42 50
        E 14 b1 0a 04
        E 0 91 3c 64
        E 0 91 48 64
        E 0 91 43 64
        E 240 b1 0a 02
        E 240 b1 0a 3f
        E 0 81 43 50
        E 0 91 3e 64
        E 0 91 45 64
        E 0 91 4a 64
        E 14 81 3c 50
        E 0 81 48 50
        E 2866 81 3e 50
        E 0 81 45 50
        E 0 81 4a 50
        E 0 91 41 64
        E 0 91 48 64
        E 0 91 4d 64
        E 240 81 41 50
        E 0 81 48 50
        E 0 81 4d 50
        E 0 91 43 64
        E 0 91 4a 64
        E 0 91 4f 64
        E 240 81 43 50
        E 0 81 4a 50
        E 0 81 4f 50
        E 0 91 45 64
        E 0 91 4c 64
        E 0 91 51 64
        E 240 81 45 50
        E 0 81 4c 50
        E 0 81 51 50
        E 0 91 47 64
        E 0 91 4e 64
        E 0 91 53 64
        E 240 81 47 50
        E 0 81 4e 50
        E 0 81 53 50
        E 0 91 43 64
        E 0 91 4f 64
        E 0 91 4c 64
        E 240 81 43 50
        E 0 81 4f 50
        E 0 81 4c 50
        E 0 91 43 64
        E 0 91 4f 64
        E 0 91 4c 64
        E 240 81 43 50
        E 240 81 4f 50
        E 0 81 4c 50
        E 0 91 4f 64
        E 0 91 43 64
        E 0 91 4c 64
        E 240 81 4f 50
        E 0 81 43 50
        E 0 81 4c 50
        E 0 91 43 64
        E 0 91 4f 64
        E 0 91 4c 64
        E 240 81 43 50
        E 240 81 4f 50
        E 0 81 4c 50
        E 0 b0 7b 00
        CCINTERP 32
        CHASE_CC_TAKEOFFS 1
        GUID {9038D494-AEF6-4979-ACDA-3D54807CBD8F}
        IGNTEMPO 0 120 4 4
        SRCCOLOR 115
        VELLANE -1 100 0
        CFGEDITVIEW 27203.123611 0.035467 32 12 0 -1 0 0 0 0.5
        KEYSNAP 0
        TRACKSEL 0
        EVTFILTER 0 -1 -1 -1 -1 0 0 0 0 -1 -1 -1 -1 0 -1 0 -1 -1
        CFGEDIT 1 1 0 1 0 0 1 1 1 1 1 0.125 491 252 1442 1081 0 0 0 0 0 0 0 1 0 0.5 0 0 1 64
      >
    >
  >
  <TRACK {BE2B3D60-4413-45B7-9997-0B4E47908BA4}
    NAME "R-Type - r-type1.mid [chan 2] [chan 2]"
    PEAKCOL 16576
    BEAT -1
    AUTOMODE 0
    VOLPAN 1 0 -1 -1 1
    MUTESOLO 0 0 0
    IPHASE 0
    PLAYOFFS 0 1
    ISBUS 0 0
    BUSCOMP 0 0 0 0 0
    SHOWINMIX 1 0.6667 0.5 1 0.5 -1 -1 -1
    FREEMODE 0
    SEL 0
    REC 0 4096 1 0 0 0 0
    VU 2
    TRACKHEIGHT 0 0 0 0 0 0
    INQ 0 0 0 0.5 100 0 0 100
    NCHAN 2
    FX 1
    TRACKID {BE2B3D60-4413-45B7-9997-0B4E47908BA4}
    PERF 0
    MIDIOUT -1
    MAINSEND 1 0
    <FXCHAIN
      WNDRECT 446 163 737 624
      SHOW 0
      LASTSEL 0
      DOCKED 0
      BYPASS 0 0 0
      <VST "VSTi: ReaSynth (Cockos)" reasynth.dll 0 "" 1919251321<5653547265737972656173796E746800> ""
        eXNlcu9e7f4AAAAAAgAAAAEAAAAAAAAAAgAAAAAAAABEAAAAAAAAAAAAEAA=
        776t3g3wrd4AAAAAF7fROgAAAADVeOk9TmJQP0il1z4HAUE8AAAAAAAAAD9gOwM+wcrhPgAAAD8AAAAAAAAAAAAAAAA=
        AAAQAAAA
      >
      FLOATPOS 0 0 0 0
      FXID {B941850D-5377-4524-8F5E-58A85F984F0A}
      WAK 0 0
    >
    <ITEM
      POSITION 36
      SNAPOFFS 0
      LENGTH 13.95
      LOOP 1
      ALLTAKES 0
      FADEIN 1 0 0 1 0 0 0
      FADEOUT 1 0 0 1 0 0 0
      MUTE 0 0
      SEL 0
      IGUID {21926894-146A-44DC-A3A4-8D6331326456}
      IID 35
      NAME "R-Type - r-type1.mid [chan 2] [chan 2] untitled MIDI item"
      VOLPAN 1 0 1 -1
      SOFFS 0 0
      PLAYRATE 1 1 0 -1 0 0.0025
      CHANMODE 0
      GUID {F36F2431-F5E2-4DD1-B718-06B1717F3983}
      <SOURCE MIDI
        HASDATA 1 960 QN
        CCINTERP 32
        POOLEDEVTS {3593A7CB-C9C8-4099-A7E9-DBE5E979EA6F}
        E 0 91 4d 64
        E 0 91 35 64
        E 240 81 4d 50
        E 0 91 4d 64
        E 480 81 4d 50
        E 0 91 4c 64
        E 240 81 4c 50
        E 0 91 4c 64
        E 480 81 4c 50
        E 0 91 4a 64
        E 240 81 4a 50
        E 0 91 4a 64
        E 480 81 4a 50
        E 0 91 48 64
        E 240 81 48 50
        E 0 91 48 64
        E 480 81 48 50
        E 0 91 47 64
        E 466 81 47 50
        E 14 91 48 64
        E 480 81 35 50
        E 0 91 4d 64
        E 0 91 35 64
        E 14 81 48 50
        E 226 81 4d 50
        E 0 91 4d 64
        E 480 81 4d 50
        E 0 91 4c 64
        E 240 81 4c 50
        E 0 91 4c 64
        E 480 81 4c 50
        E 0 91 4a 64
        E 240 81 4a 50
        E 0 91 4a 64
        E 480 81 4a 50
        E 0 91 48 64
        E 240 81 48 50
        E 0 91 48 64
        E 480 81 48 50
        E 0 91 47 64
        E 466 81 47 50
        E 14 91 48 64
        E 480 81 35 50
        E 0 91 4f 64
        E 0 91 37 64
        E 14 81 48 50
        E 226 81 4f 50
        E 0 91 4f 64
        E 480 81 4f 50
        E 0 91 4d 64
        E 240 81 4d 50
        E 0 91 4d 64
        E 480 81 4d 50
        E 0 91 4c 64
        E 240 81 4c 50
        E 0 91 4c 64
        E 480 81 4c 50
        E 0 91 4a 64
        E 240 81 4a 50
        E 0 91 4a 64
        E 480 81 4a 50
        E 0 91 48 64
        E 466 81 48 50
        E 14 91 4a 64
        E 480 81 37 50
        E 0 91 4f 64
        E 0 91 37 64
        E 14 81 4a 50
        E 226 81 4f 50
        E 0 91 4f 64
        E 480 81 4f 50
        E 0 91 4d 64
        E 240 81 4d 50
        E 0 91 4d 64
        E 480 81 4d 50
        E 0 91 4c 64
        E 240 81 4c 50
        E 0 91 4c 64
        E 480 81 4c 50
        E 0 91 4a 64
        E 240 81 4a 50
        E 0 91 4a 64
        E 480 81 4a 50
        E 0 91 48 64
        E 466 81 48 50
        E 14 91 4a 64
        E 480 81 37 50
        E 0 91 4d 64
        E 0 91 35 64
        E 14 81 4a 50
        E 226 81 4d 50
        E 0 91 4d 64
        E 480 81 4d 50
        E 0 91 4c 64
        E 240 81 4c 50
        E 0 91 4c 64
        E 480 81 4c 50
        E 0 91 4a 64
        E 240 81 4a 50
        E 0 91 4a 64
        E 480 81 4a 50
        E 0 91 48 64
        E 240 81 48 50
        E 0 91 48 64
        E 480 81 48 50
        E 0 91 47 64
        E 466 81 47 50
        E 14 91 48 64
        E 480 81 35 50
        E 14 81 48 50
        E 1906 90 37 60
        E 480 80 37 00
        E 0 90 38 60
        E 480 80 38 00
        E 0 90 39 60
        E 480 80 39 00
        E 0 90 30 60
        E 480 80 30 00
        E 0 90 37 60
        E 480 80 37 00
        E 0 90 38 60
        E 480 80 38 00
        E 0 90 39 60
        E 480 80 39 00
        E 0 90 30 60
        E 480 80 30 00
        E 0 90 37 60
        E 480 80 37 00
        E 0 90 38 60
        E 480 80 38 00
        E 0 90 39 60
        E 480 80 39 00
        E 0 90 30 60
        E 480 80 30 00
        E 0 90 34 60
        E 480 80 34 00
        E 0 90 35 60
        E 480 80 35 00
        E 0 90 37 60
        E 480 80 37 00
        E 0 90 2f 60
        E 480 80 2f 00
        E 0 90 34 60
        E 480 80 34 00
        E 0 90 35 60
        E 480 80 35 00
        E 0 90 37 60
        E 480 80 37 00
        E 0 90 2f 60
        E 480 80 2f 00
        E 1560 b0 7b 00
        CCINTERP 32
        CHASE_CC_TAKEOFFS 1
        GUID {15DB35EF-34CC-4090-8421-991813EDA9D8}
        IGNTEMPO 0 120 4 4
        SRCCOLOR 128
        VELLANE -1 100 0
        CFGEDITVIEW 10400.010056 0.052741 42 13 0 -1 0 0 0 0.5
        KEYSNAP 0
        TRACKSEL 0
        EVTFILTER 0 -1 -1 -1 -1 0 0 0 0 -1 -1 -1 -1 0 -1 0 -1 -1
        CFGEDIT 1 1 0 1 0 0 1 1 1 1 1 0.125 606 -14 1557 815 0 0 0 0 0 0 0 1 0 0.5 0 0 1 64
      >
    >
    <ITEM
      POSITION 51.4
      SNAPOFFS 0
      LENGTH 37.6
      LOOP 1
      ALLTAKES 0
      FADEIN 1 0 0 1 0 0 0
      FADEOUT 1 0 0 1 0 0 0
      MUTE 0 0
      SEL 0
      IGUID {E63BF268-58AF-4680-BC8F-56A1EAEC0C57}
      IID 36
      NAME "08-R-Type - r-type1.mid [chan 2] [chan 2]-Recorded MIDI"
      VOLPAN 1 0 1 -1
      SOFFS 0 0
      PLAYRATE 1 1 0 -1 0 0.0025
      CHANMODE 0
      GUID {683916E3-40E2-4298-860C-45CF9A7A28AE}
      RECPASS 7
      <SOURCE MIDI
        HASDATA 1 960 QN
        CCINTERP 32
        POOLEDEVTS {20956375-17C8-495F-A6BB-E9E30870D14A}
        E 1685 90 45 40
        E 1394 90 47 40
        E 20 90 45 00
        E 2098 90 4a 40
        E 207 90 47 00
        E 698 90 4c 40
        E 56 90 4a 00
        E 342 90 4c 00
        E 197 90 4d 40
        E 493 90 4d 00
        E 213 90 4c 40
        E 399 90 4c 00
        E 169 90 4a 40
        E 434 90 4a 00
        E 66 90 48 40
        E 360 90 48 00
        E 126 90 4c 40
        E 330 90 4c 00
        E 244 90 4d 40
        E 490 90 4d 00
        E 36 90 48 40
        E 366 90 48 00
        E 45 90 4c 40
        E 461 90 4c 00
        E 74 90 4a 40
        E 484 90 4a 00
        E 29 90 4f 40
        E 795 90 4c 40
        E 15 90 4f 00
        E 1053 90 4c 00
        E 114 90 4d 40
        E 463 90 4d 00
        E 33 90 4a 40
        E 504 90 4c 40
        E 20 90 4a 00
        E 540 90 48 40
        E 112 90 4c 00
        E 1009 90 4a 40
        E 6 90 48 00
        E 446 90 4a 00
        E 18 90 47 40
        E 341 90 47 00
        E 35 90 4c 40
        E 402 90 48 40
        E 119 90 4c 00
        E 342 90 48 00
        E 44 90 4a 40
        E 1325 90 4a 00
        E 150 90 4c 40
        E 334 90 4c 00
        E 336 90 4d 40
        E 312 90 4d 00
        E 25 90 48 40
        E 51 90 4a 40
        E 318 90 4a 00
        E 40 90 4c 40
        E 59 90 48 00
        E 569 90 4c 00
        E 634 90 4f 40
        E 0 90 3e 41
        E 240 90 4f 00
        E 0 90 4c 40
        E 240 90 4c 00
        E 0 90 4d 40
        E 240 90 4f 40
        E 24 90 4d 00
        E 216 80 3e 00
        E 0 90 4f 00
        E 0 90 4c 40
        E 0 90 40 41
        E 240 90 4c 00
        E 0 90 4d 40
        E 240 90 4f 40
        E 2 90 4d 00
        E 238 90 4f 00
        E 0 90 50 40
        E 240 80 40 00
        E 0 80 50 00
        E 0 90 41 41
        E 360 90 4a 40
        E 238 90 4c 40
        E 2 90 4a 00
        E 240 90 4c 00
        E 0 90 4d 40
        E 120 80 41 00
        E 120 90 4d 00
        E 0 90 4a 40
        E 240 90 4a 00
        E 0 90 4c 40
        E 240 90 4c 00
        E 0 90 4c 41
        E 120 90 4c 00
        E 0 90 4f 41
        E 360 90 4f 00
        E 0 90 4a 41
        E 237 90 4d 41
        E 3 90 4a 00
        E 240 90 4d 00
        E 0 90 4f 41
        E 240 90 4f 00
        E 0 90 4c 41
        E 240 90 4c 00
        E 0 90 4d 41
        E 240 90 4d 00
        E 0 90 4a 41
        E 240 90 4a 00
        E 0 90 4f 41
        E 360 90 4f 00
        E 0 90 4c 41
        E 234 90 4d 41
        E 6 90 4c 00
        E 240 90 4d 00
        E 11 90 4f 41
        E 229 90 4f 00
        e 1680 90 49 40
        e 960 80 49 00
        e 0 90 4b 40
        e 960 80 4b 00
        e 0 90 4e 40
        e 960 80 4e 00
        e 0 90 50 40
        e 960 80 50 00
        e 0 90 50 40
        e 480 80 50 00
        e 480 90 4e 40
        e 480 80 4e 00
        e 0 90 4b 40
        e 480 80 4b 00
        e 480 90 50 40
        e 960 80 50 00
        e 0 90 50 40
        e 480 80 50 00
        e 480 90 4e 40
        e 480 80 4e 00
        e 0 90 50 40
        e 480 80 50 00
        e 480 90 4e 40
        e 480 80 4e 00
        e 480 90 4b 40
        e 960 80 4b 00
        e 0 90 4e 40
        e 960 80 4e 00
        e 0 90 50 40
        e 960 80 50 00
        e 0 90 50 40
        e 480 80 50 00
        e 480 90 4e 40
        e 480 80 4e 00
        e 0 90 4b 40
        e 480 80 4b 00
        e 480 90 50 40
        e 960 80 50 00
        e 0 90 50 40
        e 480 80 50 00
        e 480 90 4e 40
        e 480 80 4e 00
        e 0 90 50 40
        e 480 80 50 00
        e 480 90 4e 40
        e 480 80 4e 00
        e 480 90 4b 40
        e 960 80 4b 00
        e 0 90 49 40
        e 480 80 49 00
        e 0 90 46 40
        e 960 80 46 00
        e 0 90 44 40
        e 480 80 44 00
        e 0 90 44 40
        e 960 80 44 00
        e 480 90 44 40
        e 480 80 44 00
        e 0 90 46 40
        e 960 80 46 00
        e 0 90 42 40
        e 480 80 42 00
        e 0 90 42 40
        e 480 80 42 00
        e 0 90 42 40
        e 480 80 42 00
        e 480 90 3f 40
        e 480 80 3f 00
        e 0 90 3f 40
        e 480 80 3f 00
        e 0 90 3f 40
        e 480 80 3f 00
        e 480 90 3d 40
        e 480 80 3d 00
        e 0 90 3d 40
        e 480 80 3d 00
        e 0 90 3d 40
        e 480 80 3d 00
        e 480 90 3f 40
        e 480 80 3f 00
        e 0 90 42 40
        e 480 80 42 00
        e 0 90 44 40
        e 480 80 44 00
        e 0 90 46 40
        e 960 80 46 00
        e 0 90 46 40
        e 480 80 46 00
        E 16320 b0 7b 00
        CCINTERP 32
        CHASE_CC_TAKEOFFS 1
        GUID {8F2692A1-0553-42A1-A8A4-E714BEE2C227}
        IGNTEMPO 0 120 4 4
        SRCCOLOR 131
        VELLANE -1 100 0
        CFGEDITVIEW 22754.379105 0.03187 31 12 0 -1 0 0 0 0.5
        KEYSNAP 0
        TRACKSEL 0
        EVTFILTER 0 -1 -1 -1 -1 0 0 0 0 -1 -1 -1 -1 0 -1 0 -1 -1
        CFGEDIT 1 1 0 1 0 0 1 1 1 1 1 0.125 350 253 1285 1066 0 0 0 0 0 0 0 1 0 0.5 0 0 1 64
      >
    >
    <ITEM
      POSITION 89.6
      SNAPOFFS 0
      LENGTH 56.8
      LOOP 1
      ALLTAKES 0
      FADEIN 1 0 0 1 0 0 0
      FADEOUT 1 0 0 1 0 0 0
      MUTE 0 0
      SEL 0
      IGUID {E4A162DC-804C-4688-8E11-F37B908F31A7}
      IID 37
      NAME "R-Type - r-type1.mid [chan 2] [chan 2] untitled MIDI item"
      VOLPAN 1 0 1 -1
      SOFFS 0 0
      PLAYRATE 1 1 0 -1 0 0.0025
      CHANMODE 0
      GUID {77560157-C088-4C74-B06E-E6858CB6C1B2}
      <SOURCE MIDI
        HASDATA 1 960 QN
        CCINTERP 32
        POOLEDEVTS {B0C511F9-9CD9-4E1C-90F5-5DB96C4740A1}
        e 0 90 49 40
        e 960 80 49 00
        e 0 90 4b 40
        e 960 80 4b 00
        e 0 90 4e 40
        e 960 80 4e 00
        e 0 90 50 40
        e 960 80 50 00
        e 0 90 50 40
        e 480 80 50 00
        e 480 90 4e 40
        e 480 80 4e 00
        e 0 90 4b 40
        e 480 80 4b 00
        e 480 90 50 40
        e 960 80 50 00
        e 0 90 50 40
        e 480 80 50 00
        e 480 90 4e 40
        e 480 80 4e 00
        e 0 90 50 40
        e 480 80 50 00
        e 480 90 4e 40
        e 480 80 4e 00
        e 480 90 4b 40
        e 960 80 4b 00
        e 0 90 4e 40
        e 960 80 4e 00
        e 0 90 50 40
        e 960 80 50 00
        e 0 90 50 40
        e 480 80 50 00
        e 480 90 4e 40
        e 480 80 4e 00
        e 0 90 4b 40
        e 480 80 4b 00
        e 480 90 50 40
        e 960 80 50 00
        e 0 90 50 40
        e 480 80 50 00
        e 480 90 4e 40
        e 480 80 4e 00
        e 0 90 50 40
        e 480 80 50 00
        e 480 90 4e 40
        e 480 80 4e 00
        e 480 90 4b 40
        e 960 80 4b 00
        e 0 90 49 40
        e 480 80 49 00
        e 0 90 46 40
        e 960 80 46 00
        e 0 90 44 40
        e 480 80 44 00
        e 0 90 44 40
        e 960 80 44 00
        e 480 90 44 40
        e 480 80 44 00
        e 0 90 46 40
        e 960 80 46 00
        e 0 90 42 40
        e 480 80 42 00
        e 0 90 42 40
        e 480 80 42 00
        e 0 90 42 40
        e 480 80 42 00
        e 480 90 3f 40
        e 480 80 3f 00
        e 0 90 3f 40
        e 480 80 3f 00
        e 0 90 3f 40
        e 480 80 3f 00
        e 480 90 3d 40
        e 480 80 3d 00
        e 0 90 3d 40
        e 480 80 3d 00
        e 0 90 3d 40
        e 480 80 3d 00
        e 480 90 3f 40
        e 480 80 3f 00
        e 0 90 42 40
        e 480 80 42 00
        e 0 90 44 40
        e 480 80 44 00
        e 0 90 46 40
        e 960 80 46 00
        e 0 90 46 40
        e 480 80 46 00
        E 0 b0 7b 00 -34320
        CCINTERP 32
        CHASE_CC_TAKEOFFS 1
        GUID {81B046A4-047B-483F-ACAE-2E11A51773FA}
        IGNTEMPO 0 120 4 4
        SRCCOLOR 132
        VELLANE -1 100 0
        CFGEDITVIEW -6767.673127 0.035182 28 12 0 -1 0 0 0 0.5
        KEYSNAP 0
        TRACKSEL 0
        EVTFILTER 0 -1 -1 -1 -1 0 0 0 0 -1 -1 -1 -1 0 -1 0 -1 -1
        CFGEDIT 1 1 0 1 0 0 1 1 1 1 1 0.125 622 2 1557 815 0 0 0 0 0 0 0 1 0 0.5 0 0 1 64
      >
    >
  >
  <TRACK {684A9D74-E298-45EF-B482-085350F8E243}
    NAME "R-Type - r-type1.mid [chan 3] [chan 3]"
    PEAKCOL 16576
    BEAT -1
    AUTOMODE 0
    VOLPAN 1 0 -1 -1 1
    MUTESOLO 0 0 0
    IPHASE 0
    PLAYOFFS 0 1
    ISBUS 0 0
    BUSCOMP 0 0 0 0 0
    SHOWINMIX 1 0.6667 0.5 1 0.5 -1 -1 -1
    FREEMODE 0
    SEL 1
    REC 0 4096 1 0 0 0 0
    VU 2
    TRACKHEIGHT 0 0 0 0 0 0
    INQ 0 0 0 0.5 100 0 0 100
    NCHAN 2
    FX 1
    TRACKID {684A9D74-E298-45EF-B482-085350F8E243}
    PERF 0
    MIDIOUT -1
    MAINSEND 1 0
    <FXCHAIN
      WNDRECT 202 88 737 624
      SHOW 0
      LASTSEL 0
      DOCKED 0
      BYPASS 0 0 0
      <VST "VSTi: ReaSynth (Cockos)" reasynth.dll 0 "" 1919251321<5653547265737972656173796E746800> ""
        eXNlcu9e7f4AAAAAAgAAAAEAAAAAAAAAAgAAAAAAAABEAAAAAAAAAAAAEAA=
        776t3g3wrd4AAAAAF7fROtNNIj+DwEo+2/leP85NAD8r+jQ8AAAAAAAAAD8MIJk+nu/nPgAAAD8AAAAAAAAAAAAAAAA=
        AAAQAAAA
      >
      FLOATPOS 0 0 0 0
      FXID {A0114EC2-5FC4-4F19-BAD5-F34405A8ECD6}
      WAK 0 0
    >
    <ITEM
      POSITION 35.59999999999047
      SNAPOFFS 0
      LENGTH 143.19999999999087
      LOOP 1
      ALLTAKES 0
      FADEIN 1 0 0 1 0 0 0
      FADEOUT 1 0 0 1 0 0 0
      MUTE 0 0
      SEL 1
      IGUID {26BA4556-BD44-4B51-ABCA-499F2AE82C40}
      IID 29
      NAME "R-Type - r-type1.mid [chan 3]"
      VOLPAN 1 0 1 -1
      SOFFS 0 0
      PLAYRATE 1 1 0 -1 0 0.0025
      CHANMODE 0
      GUID {97B30CEC-C761-41D3-9435-3C4A8062BD19}
      <SOURCE MIDI
        HASDATA 1 960 QN
        CCINTERP 32
        POOLEDEVTS {DB6065B1-8A8B-4472-8A46-78AD70EEB0B9}
        E 0 c2 25 00
        E 0 b2 07 7f
        E 0 b2 0a 30
        E 0 b2 5b 1f
        E 0 b2 5d 00
        E 0 b2 64 00
        E 0 b2 65 00
        E 0 b2 06 20
        E 0 92 28 64
        E 3840 82 28 50
        E 0 92 1a 64
        E 120 82 1a 50
        E 0 92 1d 64
        E 120 82 1d 50
        E 0 92 21 64
        E 120 82 21 50
        E 0 92 26 64
        E 120 82 26 50
        E 0 92 1d 64
        E 120 82 1d 50
        E 0 92 21 64
        E 120 82 21 50
        E 0 92 26 64
        E 120 82 26 50
        E 0 92 29 64
        E 120 82 29 50
        E 0 92 21 64
        E 120 82 21 50
        E 0 92 26 64
        E 120 82 26 50
        E 0 92 29 64
        E 120 82 29 50
        E 0 92 2d 64
        E 120 82 2d 50
        E 0 92 26 64
        E 120 82 26 50
        E 0 92 29 64
        E 120 82 29 50
        E 0 92 2d 64
        E 120 82 2d 50
        E 0 92 32 64
        E 120 82 32 50
        E 0 92 29 64
        E 120 82 29 50
        E 0 92 2d 64
        E 120 82 2d 50
        E 0 92 32 64
        E 120 82 32 50
        E 0 92 35 64
        E 120 82 35 50
        E 0 92 2d 64
        E 120 82 2d 50
        E 0 92 32 64
        E 120 82 32 50
        E 0 92 35 64
        E 120 82 35 50
        E 0 92 39 64
        E 120 82 39 50
        E 0 92 32 64
        E 120 82 32 50
        E 0 92 35 64
        E 120 82 35 50
        E 0 92 39 64
        E 120 82 39 50
        E 0 92 3e 64
        E 120 82 3e 50
        E 0 92 35 64
        E 120 82 35 50
        E 0 92 39 64
        E 120 82 39 50
        E 0 92 3e 64
        E 120 82 3e 50
        E 0 92 41 64
        E 120 82 41 50
        E 0 92 45 64
        e 533 92 26 64
        E 101 82 45 50
        e 103 82 26 50
        e 0 92 26 64
        e 204 82 26 50
        e 0 92 32 64
        e 204 82 32 50
        e 0 92 26 64
        e 204 82 26 50
        e 0 92 26 64
        e 211 82 26 50
        e 0 92 29 64
        e 240 82 29 50
        e 0 92 35 64
        e 240 82 35 50
        e 0 92 29 64
        e 240 82 29 50
        e 0 92 29 64
        e 240 82 29 50
        e 0 92 29 64
        e 240 82 29 50
        e 0 92 35 64
        e 240 82 35 50
        e 0 92 29 64
        e 240 82 29 50
        e 0 92 2b 64
        e 240 82 2b 50
        e 0 92 2b 64
        e 240 82 2b 50
        e 240 92 2b 64
        e 240 82 2b 50
        e 0 92 2b 64
        e 240 82 2b 50
        e 0 92 2b 64
        e 240 82 2b 50
        e 0 92 37 64
        e 240 82 37 50
        e 0 92 2b 64
        e 240 82 2b 50
        e 0 92 2b 64
        e 240 82 2b 50
        e 0 92 2b 64
        e 240 82 2b 50
        e 0 92 37 64
        e 240 82 37 50
        e 0 92 2b 64
        e 240 82 2b 50
        e 0 92 2b 64
        e 240 82 2b 50
        e 0 92 2b 64
        e 240 82 2b 50
        e 0 92 37 64
        e 240 82 37 50
        e 0 92 2b 64
        e 240 82 2b 50
        e 0 92 2b 64
        e 240 82 2b 50
        e 0 92 2b 64
        e 240 82 2b 50
        e 0 92 37 64
        e 240 82 37 50
        e 0 92 2b 64
        e 240 82 2b 50
        e 0 92 26 64
        e 240 82 26 50
        e 0 92 26 64
        e 240 82 26 50
        e 0 92 32 64
        e 240 82 32 50
        e 0 92 26 64
        e 240 82 26 50
        e 0 92 26 64
        e 240 82 26 50
        e 0 92 29 64
        e 240 82 29 50
        e 0 92 35 64
        e 240 82 35 50
        e 0 92 29 64
        e 240 82 29 50
        e 0 92 29 64
        e 240 82 29 50
        e 0 92 29 64
        e 240 82 29 50
        e 0 92 35 64
        e 240 82 35 50
        e 0 92 29 64
        e 240 82 29 50
        e 0 92 2b 64
        e 240 82 2b 50
        e 0 92 2b 64
        e 240 82 2b 50
        e 0 92 37 64
        e 240 82 37 50
        e 0 92 2b 64
        e 240 82 2b 50
        e 0 92 2b 64
        e 240 82 2b 50
        e 0 92 2b 64
        e 240 82 2b 50
        e 0 92 37 64
        e 240 82 37 50
        e 0 92 2b 64
        e 240 82 2b 50
        e 0 92 2b 64
        e 240 82 2b 50
        e 0 92 2b 64
        e 240 82 2b 50
        e 0 92 37 64
        e 240 82 37 50
        e 0 92 2b 64
        e 240 82 2b 50
        E 120 92 1f 64
        E 240 82 1f 50
        E 0 92 1f 64
        E 240 82 1f 50
        E 0 92 2b 64
        E 240 82 2b 50
        E 0 92 1f 64
        E 240 82 1f 50
        E 0 92 1f 64
        E 240 82 1f 50
        E 0 92 1f 64
        E 240 82 1f 50
        E 0 92 2b 64
        E 240 82 2b 50
        E 0 92 1f 64
        E 240 82 1f 50
        E 0 92 1a 64
        E 240 82 1a 50
        E 0 92 1a 64
        E 240 82 1a 50
        E 0 92 26 64
        E 240 82 26 50
        E 0 92 1a 64
        E 240 82 1a 50
        E 0 92 1a 64
        E 240 82 1a 50
        E 0 92 1d 64
        E 240 82 1d 50
        E 0 92 29 64
        E 240 82 29 50
        E 0 92 1d 64
        E 240 82 1d 50
        E 0 92 1d 64
        E 240 82 1d 50
        E 0 92 1d 64
        E 240 82 1d 50
        E 0 92 29 64
        E 240 82 29 50
        E 0 92 1d 64
        E 240 82 1d 50
        E 0 92 1f 64
        E 240 82 1f 50
        E 0 92 1f 64
        E 240 82 1f 50
        E 0 92 2b 64
        E 240 82 2b 50
        E 0 92 1f 64
        E 240 82 1f 50
        E 0 92 1f 64
        E 240 82 1f 50
        E 0 92 1f 64
        E 240 82 1f 50
        E 0 92 2b 64
        E 240 82 2b 50
        E 0 92 1f 64
        E 240 82 1f 50
        E 0 92 1f 64
        E 240 82 1f 50
        E 0 92 1f 64
        E 240 82 1f 50
        E 0 92 2b 64
        E 240 82 2b 50
        E 0 92 1f 64
        E 240 82 1f 50
        E 0 92 1f 64
        E 240 82 1f 50
        E 0 92 1f 64
        E 240 82 1f 50
        E 0 92 2b 64
        E 240 82 2b 50
        E 0 92 1f 64
        E 240 82 1f 50
        E 0 92 1f 64
        E 240 82 1f 50
        E 0 92 1f 64
        E 240 82 1f 50
        E 0 92 2b 64
        E 240 82 2b 50
        E 0 92 1f 64
        E 240 82 1f 50
        E 0 92 1a 64
        E 240 82 1a 50
        E 0 92 1a 64
        E 240 82 1a 50
        E 0 92 26 64
        E 240 82 26 50
        E 0 92 1a 64
        E 240 82 1a 50
        E 0 92 1a 64
        E 240 82 1a 50
        E 0 92 1d 64
        E 240 82 1d 50
        E 0 92 29 64
        E 240 82 29 50
        E 0 92 1d 64
        E 240 82 1d 50
        E 0 92 1d 64
        E 240 82 1d 50
        E 0 92 1d 64
        E 240 82 1d 50
        E 0 92 29 64
        E 240 82 29 50
        E 0 92 1d 64
        E 240 82 1d 50
        E 0 92 1f 64
        E 240 82 1f 50
        E 0 92 1f 64
        E 240 82 1f 50
        E 0 92 2b 64
        E 240 82 2b 50
        E 0 92 1f 64
        E 240 82 1f 50
        E 0 92 1f 64
        E 240 82 1f 50
        E 0 92 1f 64
        E 240 82 1f 50
        E 0 92 2b 64
        E 240 82 2b 50
        E 0 92 1f 64
        E 240 82 1f 50
        E 0 92 1f 64
        E 240 82 1f 50
        E 0 92 1f 64
        E 240 82 1f 50
        E 0 92 2b 64
        E 240 82 2b 50
        E 0 92 1f 64
        E 240 82 1f 50
        E 0 92 1f 64
        E 240 82 1f 50
        E 0 92 1f 64
        E 240 82 1f 50
        E 0 92 2b 64
        E 240 82 2b 50
        E 0 92 1f 64
        E 240 82 1f 50
        E 0 92 1f 64
        E 240 82 1f 50
        E 0 92 1f 64
        E 240 82 1f 50
        E 0 92 2b 64
        E 240 82 2b 50
        E 0 92 1f 64
        E 240 82 1f 50
        E 0 92 1d 64
        E 240 82 1d 50
        E 0 92 1d 64
        E 240 82 1d 50
        E 0 92 29 64
        E 240 82 29 50
        E 0 92 1d 64
        E 240 82 1d 50
        E 0 92 1d 64
        E 240 82 1d 50
        E 0 92 1d 64
        E 240 82 1d 50
        E 0 92 29 64
        E 240 82 29 50
        E 0 92 1d 64
        E 240 82 1d 50
        E 0 92 1d 64
        E 240 82 1d 50
        E 0 92 1d 64
        E 240 82 1d 50
        E 0 92 29 64
        E 240 82 29 50
        E 0 92 1d 64
        E 240 82 1d 50
        E 0 92 1d 64
        E 240 82 1d 50
        E 0 92 1d 64
        E 240 82 1d 50
        E 0 92 29 64
        E 240 82 29 50
        E 0 92 1d 64
        E 240 82 1d 50
        E 0 92 1d 64
        E 240 82 1d 50
        E 0 92 1d 64
        E 240 82 1d 50
        E 0 92 29 64
        E 240 82 29 50
        E 0 92 1d 64
        E 240 82 1d 50
        E 0 92 1d 64
        E 240 82 1d 50
        E 0 92 1d 64
        E 240 82 1d 50
        E 0 92 29 64
        E 240 82 29 50
        E 0 92 1d 64
        E 240 82 1d 50
        E 0 92 1d 64
        E 240 82 1d 50
        E 0 92 1d 64
        E 240 82 1d 50
        E 0 92 29 64
        E 240 82 29 50
        E 0 92 1d 64
        E 240 82 1d 50
        E 0 92 1d 64
        E 240 82 1d 50
        E 0 92 1d 64
        E 240 82 1d 50
        E 0 92 29 64
        E 240 82 29 50
        E 0 92 1d 64
        E 240 82 1d 50
        E 0 92 1f 64
        E 240 82 1f 50
        E 0 92 1f 64
        E 240 82 1f 50
        E 0 92 2b 64
        E 240 82 2b 50
        E 0 92 1f 64
        E 240 82 1f 50
        E 0 92 1f 64
        E 240 82 1f 50
        E 0 92 1f 64
        E 240 82 1f 50
        E 0 92 2b 64
        E 240 82 2b 50
        E 0 92 1f 64
        E 240 82 1f 50
        E 0 92 1f 64
        E 240 82 1f 50
        E 0 92 1f 64
        E 240 82 1f 50
        E 0 92 2b 64
        E 240 82 2b 50
        E 0 92 1f 64
        E 240 82 1f 50
        E 0 92 1f 64
        E 240 82 1f 50
        E 0 92 1f 64
        E 240 82 1f 50
        E 0 92 2b 64
        E 240 82 2b 50
        E 0 92 1f 64
        E 240 82 1f 50
        E 0 92 1f 64
        E 240 82 1f 50
        E 0 92 1f 64
        E 240 82 1f 50
        E 0 92 2b 64
        E 240 82 2b 50
        E 0 92 1f 64
        E 240 82 1f 50
        E 0 92 1f 64
        E 240 82 1f 50
        E 0 92 1f 64
        E 240 82 1f 50
        E 0 92 2b 64
        E 240 82 2b 50
        E 0 92 1f 64
        E 240 82 1f 50
        E 0 92 1f 64
        E 240 82 1f 50
        E 0 92 1f 64
        E 240 82 1f 50
        E 0 92 2b 64
        E 240 82 2b 50
        E 0 92 1f 64
        E 240 82 1f 50
        E 0 92 1f 64
        E 240 82 1f 50
        E 0 92 1f 64
        E 240 82 1f 50
        E 0 92 2b 64
        E 240 82 2b 50
        E 0 92 1f 64
        E 240 82 1f 50
        E 0 92 1d 64
        E 240 82 1d 50
        E 0 92 1d 64
        E 240 82 1d 50
        E 0 92 29 64
        E 240 82 29 50
        E 0 92 1d 64
        E 240 82 1d 50
        E 0 92 1d 64
        E 240 82 1d 50
        E 0 92 1d 64
        E 240 82 1d 50
        E 0 92 29 64
        E 240 82 29 50
        E 0 92 1d 64
        E 240 82 1d 50
        E 0 92 1d 64
        E 240 82 1d 50
        E 0 92 1d 64
        E 240 82 1d 50
        E 0 92 29 64
        E 240 82 29 50
        E 0 92 1d 64
        E 240 82 1d 50
        E 0 92 1d 64
        E 240 82 1d 50
        E 0 92 1d 64
        E 240 82 1d 50
        E 0 92 29 64
        E 240 82 29 50
        E 0 92 1d 64
        E 240 82 1d 50
        E 0 92 1d 64
        E 240 82 1d 50
        E 0 92 1d 64
        E 240 82 1d 50
        E 0 92 29 64
        E 240 82 29 50
        E 0 92 1d 64
        E 240 82 1d 50
        E 0 92 1d 64
        E 240 82 1d 50
        E 0 92 1d 64
        E 240 82 1d 50
        E 0 92 29 64
        E 240 82 29 50
        E 0 92 1d 64
        E 240 82 1d 50
        E 0 92 1d 64
        E 240 82 1d 50
        E 0 92 1d 64
        E 240 82 1d 50
        E 0 92 29 64
        E 240 82 29 50
        E 0 92 1d 64
        E 240 82 1d 50
        E 0 92 1d 64
        E 240 82 1d 50
        E 0 92 1d 64
        E 240 82 1d 50
        E 0 92 29 64
        E 240 82 29 50
        E 0 92 1d 64
        E 240 82 1d 50
        E 0 92 1f 64
        E 240 82 1f 50
        E 0 92 1f 64
        E 240 82 1f 50
        E 0 92 2b 64
        E 240 82 2b 50
        E 0 92 1f 64
        E 240 82 1f 50
        E 0 92 1f 64
        E 240 82 1f 50
        E 0 92 1f 64
        E 240 82 1f 50
        E 0 92 2b 64
        E 240 82 2b 50
        E 0 92 1f 64
        E 240 82 1f 50
        E 0 92 1f 64
        E 240 82 1f 50
        E 0 92 1f 64
        E 240 82 1f 50
        E 0 92 2b 64
        E 240 82 2b 50
        E 0 92 1f 64
        E 240 82 1f 50
        E 0 92 1f 64
        E 240 82 1f 50
        E 0 92 1f 64
        E 240 82 1f 50
        E 0 92 2b 64
        E 240 82 2b 50
        E 0 92 1f 64
        E 240 82 1f 50
        E 0 92 1f 64
        E 240 82 1f 50
        E 0 92 1f 64
        E 240 82 1f 50
        E 0 92 1f 64
        E 240 82 1f 50
        E 240 92 1f 64
        E 240 82 1f 50
        E 240 92 1f 64
        E 240 82 1f 50
        E 0 92 1f 64
        E 240 82 1f 50
        E 968 92 1f 64
        E 240 82 1f 50
        E 0 92 24 64
        E 240 82 24 50
        E 0 92 26 64
        E 240 82 26 50
        E 0 92 29 64
        E 232 92 21 64
        E 8 82 29 50
        E 458 82 21 50
        E 14 92 2d 64
        E 240 82 2d 50
        E 0 92 2d 64
        E 240 82 2d 50
        E 0 92 21 64
        E 466 82 21 50
        E 14 92 2d 64
        E 240 82 2d 50
        E 0 92 2d 64
        E 240 82 2d 50
        E 0 92 21 64
        E 466 82 21 50
        E 14 92 2d 64
        E 240 82 2d 50
        E 0 92 2d 64
        E 240 82 2d 50
        E 0 92 21 64
        E 466 82 21 50
        E 14 92 2b 64
        E 240 82 2b 50
        E 0 92 2d 64
        E 240 82 2d 50
        E 0 92 21 64
        E 466 82 21 50
        E 14 92 2d 64
        E 240 82 2d 50
        E 0 92 2d 64
        E 240 82 2d 50
        E 0 92 21 64
        E 466 82 21 50
        E 14 92 2d 64
        E 240 82 2d 50
        E 0 92 2d 64
        E 240 82 2d 50
        E 0 92 21 64
        E 466 82 21 50
        E 14 92 2d 64
        E 240 82 2d 50
        E 0 92 2d 64
        E 240 82 2d 50
        E 0 92 21 64
        E 466 82 21 50
        E 14 92 2b 64
        E 240 82 2b 50
        E 0 92 2d 64
        E 240 82 2d 50
        E 0 92 1f 64
        E 466 82 1f 50
        E 14 92 2b 64
        E 240 82 2b 50
        E 0 92 2b 64
        E 240 82 2b 50
        E 0 92 1f 64
        E 466 82 1f 50
        E 14 92 2b 64
        E 240 82 2b 50
        E 0 92 2b 64
        E 240 82 2b 50
        E 0 92 1f 64
        E 466 82 1f 50
        E 14 92 2b 64
        E 240 82 2b 50
        E 0 92 2b 64
        E 240 82 2b 50
        E 0 92 1f 64
        E 466 82 1f 50
        E 14 92 2a 64
        E 240 82 2a 50
        E 0 92 2b 64
        E 240 82 2b 50
        E 0 92 1f 64
        E 466 82 1f 50
        E 14 92 2b 64
        E 240 82 2b 50
        E 0 92 2b 64
        E 240 82 2b 50
        E 0 92 1f 64
        E 466 82 1f 50
        E 14 92 2b 64
        E 240 82 2b 50
        E 0 92 2b 64
        E 240 82 2b 50
        E 0 92 1f 64
        E 466 82 1f 50
        E 14 92 2b 64
        E 240 82 2b 50
        E 0 92 2b 64
        E 240 82 2b 50
        E 0 92 1f 64
        E 466 82 1f 50
        E 14 92 2a 64
        E 240 82 2a 50
        E 0 92 2b 64
        E 240 82 2b 50
        E 0 92 21 64
        E 466 82 21 50
        E 14 92 2d 64
        E 240 82 2d 50
        E 0 92 2d 64
        E 240 82 2d 50
        E 0 92 21 64
        E 466 82 21 50
        E 14 92 2d 64
        E 240 82 2d 50
        E 0 92 2d 64
        E 240 82 2d 50
        E 0 92 21 64
        E 466 82 21 50
        E 14 92 2d 64
        E 240 82 2d 50
        E 0 92 2d 64
        E 240 82 2d 50
        E 0 92 21 64
        E 466 82 21 50
        E 14 92 2b 64
        E 240 82 2b 50
        E 0 92 2d 64
        E 240 82 2d 50
        E 0 92 21 64
        E 466 82 21 50
        E 14 92 2d 64
        E 240 82 2d 50
        E 0 92 2d 64
        E 240 82 2d 50
        E 0 92 21 64
        E 466 82 21 50
        E 14 92 2d 64
        E 240 82 2d 50
        E 0 92 2d 64
        E 240 82 2d 50
        E 0 92 21 64
        E 466 82 21 50
        E 14 92 2d 64
        E 240 82 2d 50
        E 0 92 2d 64
        E 240 82 2d 50
        E 0 92 21 64
        E 466 82 21 50
        E 14 92 2b 64
        E 240 82 2b 50
        E 0 92 2d 64
        E 240 82 2d 50
        E 0 92 1d 64
        E 466 82 1d 50
        E 14 92 29 64
        E 240 82 29 50
        E 0 92 29 64
        E 240 82 29 50
        E 0 92 1d 64
        E 466 82 1d 50
        E 14 92 29 64
        E 240 82 29 50
        E 0 92 29 64
        E 240 82 29 50
        E 0 92 1d 64
        E 466 82 1d 50
        E 14 92 29 64
        E 240 82 29 50
        E 0 92 29 64
        E 240 82 29 50
        E 0 92 1d 64
        E 466 82 1d 50
        E 14 92 29 64
        E 240 82 29 50
        E 0 92 29 64
        E 240 82 29 50
        E 0 92 1f 64
        E 466 82 1f 50
        E 14 92 2b 64
        E 240 82 2b 50
        E 0 92 2b 64
        E 240 82 2b 50
        E 0 92 1f 64
        E 466 82 1f 50
        E 14 92 2b 64
        E 240 82 2b 50
        E 0 92 2b 64
        E 240 82 2b 50
        E 0 92 1f 64
        E 466 82 1f 50
        E 14 92 2b 64
        E 240 82 2b 50
        E 0 92 2b 64
        E 240 82 2b 50
        E 0 92 1f 64
        E 466 82 1f 50
        E 14 92 2b 64
        E 240 82 2b 50
        E 0 92 2b 64
        E 240 82 2b 50
        E 0 92 21 64
        E 466 82 21 50
        E 14 92 2d 64
        E 240 82 2d 50
        E 0 92 2d 64
        E 240 82 2d 50
        E 0 92 21 64
        E 466 82 21 50
        E 14 92 2d 64
        E 240 82 2d 50
        E 0 92 2d 64
        E 240 82 2d 50
        E 0 92 21 64
        E 466 82 21 50
        E 14 92 2d 64
        E 240 82 2d 50
        E 0 92 2d 64
        E 240 82 2d 50
        E 0 92 21 64
        E 466 82 21 50
        E 14 92 2d 64
        E 240 82 2d 50
        E 0 92 2d 64
        E 240 82 2d 50
        E 0 92 21 64
        E 466 82 21 50
        E 14 92 2d 64
        E 240 82 2d 50
        E 0 92 2d 64
        E 240 82 2d 50
        E 0 92 21 64
        E 466 82 21 50
        E 14 92 2d 64
        E 240 82 2d 50
        E 0 92 2d 64
        E 240 82 2d 50
        E 0 92 21 64
        E 466 82 21 50
        E 14 92 2d 64
        E 240 82 2d 50
        E 0 92 2d 64
        E 240 82 2d 50
        E 0 92 21 64
        E 466 82 21 50
        E 14 92 2d 64
        E 240 82 2d 50
        E 0 92 2d 64
        E 240 82 2d 50
        E 0 92 21 64
        E 466 82 21 50
        E 14 92 2d 64
        E 240 82 2d 50
        E 0 92 2d 64
        E 240 82 2d 50
        E 0 92 21 64
        E 466 82 21 50
        E 14 92 2d 64
        E 240 82 2d 50
        E 0 92 2d 64
        E 240 82 2d 50
        E 0 92 21 64
        E 466 82 21 50
        E 14 92 2d 64
        E 240 82 2d 50
        E 0 92 2d 64
        E 240 82 2d 50
        E 0 92 21 64
        E 466 82 21 50
        E 14 92 2b 64
        E 240 82 2b 50
        E 0 92 2d 64
        E 240 82 2d 50
        E 0 92 1f 64
        E 466 82 1f 50
        E 14 92 2b 64
        E 240 82 2b 50
        E 0 92 2b 64
        E 240 82 2b 50
        E 0 92 1f 64
        E 466 82 1f 50
        E 14 92 2b 64
        E 240 82 2b 50
        E 0 92 2b 64
        E 240 82 2b 50
        E 0 92 1f 64
        E 466 82 1f 50
        E 14 92 2b 64
        E 240 82 2b 50
        E 0 92 2b 64
        E 240 82 2b 50
        E 0 92 1f 64
        E 466 82 1f 50
        E 14 92 2a 64
        E 240 82 2a 50
        E 0 92 2b 64
        E 240 82 2b 50
        E 0 92 1d 64
        E 466 82 1d 50
        E 14 92 29 64
        E 240 82 29 50
        E 0 92 29 64
        E 240 82 29 50
        E 0 92 1d 64
        E 466 82 1d 50
        E 14 92 29 64
        E 240 82 29 50
        E 0 92 29 64
        E 240 82 29 50
        E 0 92 1d 64
        E 466 82 1d 50
        E 14 92 29 64
        E 240 82 29 50
        E 0 92 29 64
        E 240 82 29 50
        E 0 92 1d 64
        E 466 82 1d 50
        E 14 92 28 64
        E 240 82 28 50
        E 0 92 29 64
        E 240 82 29 50
        E 0 92 1c 64
        E 466 82 1c 50
        E 14 92 28 64
        E 240 82 28 50
        E 0 92 28 64
        E 240 82 28 50
        E 0 92 1c 64
        E 466 82 1c 50
        E 14 92 28 64
        E 240 82 28 50
        E 0 92 28 64
        E 240 82 28 50
        E 0 92 1c 64
        E 466 82 1c 50
        E 14 92 28 64
        E 240 82 28 50
        E 0 92 28 64
        E 240 82 28 50
        E 0 92 1c 64
        E 466 82 1c 50
        E 14 92 28 64
        E 240 82 28 50
        E 0 92 28 64
        E 240 82 28 50
        E 0 92 1d 64
        E 466 82 1d 50
        E 14 92 29 64
        E 240 82 29 50
        E 0 92 29 64
        E 240 82 29 50
        E 0 92 1d 64
        E 466 82 1d 50
        E 14 92 29 64
        E 240 82 29 50
        E 0 92 29 64
        E 240 82 29 50
        E 0 92 1d 64
        E 466 82 1d 50
        E 14 92 29 64
        E 240 82 29 50
        E 0 92 29 64
        E 240 82 29 50
        E 0 92 1d 64
        E 466 82 1d 50
        E 14 92 29 64
        E 240 82 29 50
        E 0 92 29 64
        E 240 82 29 50
        E 0 92 1d 64
        E 466 82 1d 50
        E 14 92 29 64
        E 240 82 29 50
        E 0 92 29 64
        E 240 82 29 50
        E 0 92 1d 64
        E 466 82 1d 50
        E 14 92 29 64
        E 240 82 29 50
        E 0 92 29 64
        E 240 82 29 50
        E 0 92 1d 64
        E 466 82 1d 50
        E 14 92 29 64
        E 240 82 29 50
        E 0 92 29 64
        E 240 82 29 50
        E 0 92 1d 64
        E 466 82 1d 50
        E 14 92 29 64
        E 240 82 29 50
        E 0 92 29 64
        E 240 82 29 50
        E 0 92 1a 64
        E 466 82 1a 50
        E 14 92 26 64
        E 240 82 26 50
        E 0 92 26 64
        E 240 82 26 50
        E 0 92 1a 64
        E 466 82 1a 50
        E 14 92 26 64
        E 240 82 26 50
        E 0 92 26 64
        E 240 82 26 50
        E 0 92 1a 64
        E 466 82 1a 50
        E 14 92 26 64
        E 240 82 26 50
        E 0 92 26 64
        E 240 82 26 50
        E 0 92 1a 64
        E 466 82 1a 50
        E 14 92 26 64
        E 240 82 26 50
        E 0 92 26 64
        E 240 82 26 50
        E 0 92 28 64
        E 240 82 28 50
        E 0 92 34 64
        E 480 82 34 50
        E 0 92 28 64
        E 240 92 34 64
        E 20 82 28 50
        E 460 82 34 50
        E 0 92 28 64
        E 240 82 28 50
        E 0 92 34 64
        E 480 82 34 50
        E 0 92 28 64
        E 240 82 28 50
        E 0 92 34 64
        E 480 82 34 50
        E 0 92 28 64
        E 960 82 28 50
        E 0 92 21 64
        E 466 82 21 50
        E 14 92 2d 64
        E 240 82 2d 50
        E 0 92 2d 64
        E 240 82 2d 50
        E 0 92 21 64
        E 466 82 21 50
        E 14 92 2d 64
        E 240 82 2d 50
        E 0 92 2d 64
        E 240 82 2d 50
        E 0 92 21 64
        E 466 82 21 50
        E 14 92 2d 64
        E 240 82 2d 50
        E 0 92 2d 64
        E 240 82 2d 50
        E 0 92 21 64
        E 466 82 21 50
        E 14 92 2b 64
        E 240 82 2b 50
        E 0 92 2d 64
        E 240 82 2d 50
        E 0 92 21 64
        E 466 82 21 50
        E 14 92 2d 64
        E 240 82 2d 50
        E 0 92 2d 64
        E 240 82 2d 50
        E 0 92 21 64
        E 466 82 21 50
        E 14 92 2d 64
        E 240 82 2d 50
        E 0 92 2d 64
        E 240 82 2d 50
        E 0 92 21 64
        E 466 82 21 50
        E 14 92 2d 64
        E 240 82 2d 50
        E 0 92 2d 64
        E 240 82 2d 50
        E 0 92 21 64
        E 466 82 21 50
        E 14 92 2b 64
        E 240 82 2b 50
        E 0 92 2d 64
        E 240 82 2d 50
        E 0 92 1f 64
        E 466 82 1f 50
        E 14 92 2b 64
        E 240 82 2b 50
        E 0 92 2b 64
        E 240 82 2b 50
        E 0 92 1f 64
        E 466 82 1f 50
        E 14 92 2b 64
        E 240 82 2b 50
        E 0 92 2b 64
        E 240 82 2b 50
        E 0 92 1f 64
        E 466 82 1f 50
        E 14 92 2b 64
        E 240 82 2b 50
        E 0 92 2b 64
        E 240 82 2b 50
        E 0 92 1f 64
        E 466 82 1f 50
        E 14 92 2a 64
        E 240 82 2a 50
        E 0 92 2b 64
        E 240 82 2b 50
        E 0 92 1f 64
        E 466 82 1f 50
        E 14 92 2b 64
        E 240 82 2b 50
        E 0 92 2b 64
        E 240 82 2b 50
        E 0 92 1f 64
        E 466 82 1f 50
        E 14 92 2b 64
        E 240 82 2b 50
        E 0 92 2b 64
        E 240 82 2b 50
        E 0 92 1f 64
        E 466 82 1f 50
        E 14 92 2b 64
        E 240 82 2b 50
        E 0 92 2b 64
        E 240 82 2b 50
        E 0 92 1f 64
        E 466 82 1f 50
        E 14 92 2a 64
        E 240 82 2a 50
        E 0 92 2b 64
        E 240 82 2b 50
        E 0 92 21 64
        E 466 82 21 50
        E 14 92 2d 64
        E 240 82 2d 50
        E 0 92 2d 64
        E 240 82 2d 50
        E 0 92 21 64
        E 466 82 21 50
        E 14 92 2d 64
        E 240 82 2d 50
        E 0 92 2d 64
        E 240 82 2d 50
        E 0 92 21 64
        E 466 82 21 50
        E 14 92 2d 64
        E 240 82 2d 50
        E 0 92 2d 64
        E 240 82 2d 50
        E 0 92 21 64
        E 466 82 21 50
        E 14 92 2b 64
        E 240 82 2b 50
        E 0 92 2d 64
        E 240 82 2d 50
        E 0 92 21 64
        E 466 82 21 50
        E 14 92 2d 64
        E 240 82 2d 50
        E 0 92 2d 64
        E 240 82 2d 50
        E 0 92 21 64
        E 466 82 21 50
        E 14 92 2d 64
        E 240 82 2d 50
        E 0 92 2d 64
        E 240 82 2d 50
        E 0 92 21 64
        E 466 82 21 50
        E 14 92 2d 64
        E 240 82 2d 50
        E 0 92 2d 64
        E 240 82 2d 50
        E 0 92 21 64
        E 466 82 21 50
        E 14 92 2b 64
        E 240 82 2b 50
        E 0 92 2d 64
        E 240 82 2d 50
        E 0 92 1d 64
        E 466 82 1d 50
        E 14 92 29 64
        E 240 82 29 50
        E 0 92 29 64
        E 240 82 29 50
        E 0 92 1d 64
        E 466 82 1d 50
        E 14 92 29 64
        E 240 82 29 50
        E 0 92 29 64
        E 240 82 29 50
        E 0 92 1d 64
        E 466 82 1d 50
        E 14 92 29 64
        E 240 82 29 50
        E 0 92 29 64
        E 240 82 29 50
        E 0 92 1d 64
        E 466 82 1d 50
        E 14 92 29 64
        E 240 82 29 50
        E 0 92 29 64
        E 240 82 29 50
        E 0 92 1f 64
        E 466 82 1f 50
        E 14 92 2b 64
        E 240 82 2b 50
        E 0 92 2b 64
        E 240 82 2b 50
        E 0 92 1f 64
        E 466 82 1f 50
        E 14 92 2b 64
        E 240 82 2b 50
        E 0 92 2b 64
        E 240 82 2b 50
        E 0 92 1f 64
        E 466 82 1f 50
        E 14 92 2b 64
        E 240 82 2b 50
        E 0 92 2b 64
        E 240 82 2b 50
        E 0 92 1f 64
        E 466 82 1f 50
        E 14 92 2b 64
        E 240 82 2b 50
        E 0 92 2b 64
        E 240 82 2b 50
        E 0 92 21 64
        E 466 82 21 50
        E 14 92 2d 64
        E 240 82 2d 50
        E 0 92 2d 64
        E 240 82 2d 50
        E 0 92 21 64
        E 466 82 21 50
        E 14 92 2d 64
        E 240 82 2d 50
        E 0 92 2d 64
        E 240 82 2d 50
        E 0 92 21 64
        E 466 82 21 50
        E 14 92 2d 64
        E 240 82 2d 50
        E 0 92 2d 64
        E 240 82 2d 50
        E 0 92 21 64
        E 466 82 21 50
        E 14 92 2d 64
        E 240 82 2d 50
        E 0 92 2d 64
        E 240 82 2d 50
        E 0 92 21 64
        E 466 82 21 50
        E 14 92 2d 64
        E 240 82 2d 50
        E 0 92 2d 64
        E 240 82 2d 50
        E 0 92 21 64
        E 466 82 21 50
        E 14 92 2d 64
        E 240 82 2d 50
        E 0 92 2d 64
        E 240 82 2d 50
        E 0 92 21 64
        E 466 82 21 50
        E 14 92 2d 64
        E 240 82 2d 50
        E 0 92 2d 64
        E 240 82 2d 50
        E 0 92 21 64
        E 466 82 21 50
        E 14 92 2d 64
        E 240 82 2d 50
        E 0 92 2d 64
        E 240 82 2d 50
        E 0 92 21 64
        E 466 82 21 50
        E 14 92 2d 64
        E 240 82 2d 50
        E 0 92 2d 64
        E 240 82 2d 50
        E 0 92 21 64
        E 466 82 21 50
        E 14 92 2d 64
        E 240 82 2d 50
        E 0 92 2d 64
        E 240 82 2d 50
        E 0 92 21 64
        E 466 82 21 50
        E 14 92 2d 64
        E 240 82 2d 50
        E 0 92 2d 64
        E 240 82 2d 50
        E 0 92 21 64
        E 466 82 21 50
        E 14 92 2b 64
        E 240 82 2b 50
        E 0 92 2d 64
        E 240 82 2d 50
        E 0 92 1f 64
        E 466 82 1f 50
        E 14 92 2b 64
        E 240 82 2b 50
        E 0 92 2b 64
        E 240 82 2b 50
        E 0 92 1f 64
        E 466 82 1f 50
        E 14 92 2b 64
        E 240 82 2b 50
        E 0 92 2b 64
        E 240 82 2b 50
        E 0 92 1f 64
        E 466 82 1f 50
        E 14 92 2b 64
        E 240 82 2b 50
        E 0 92 2b 64
        E 240 82 2b 50
        E 0 92 1f 64
        E 466 82 1f 50
        E 14 92 2a 64
        E 240 82 2a 50
        E 0 92 2b 64
        E 240 82 2b 50
        E 0 92 1d 64
        E 466 82 1d 50
        E 14 92 29 64
        E 240 82 29 50
        E 0 92 29 64
        E 240 82 29 50
        E 0 92 1d 64
        E 466 82 1d 50
        E 14 92 29 64
        E 240 82 29 50
        E 0 92 29 64
        E 240 82 29 50
        E 0 92 1d 64
        E 466 82 1d 50
        E 14 92 29 64
        E 240 82 29 50
        E 0 92 29 64
        E 240 82 29 50
        E 0 92 1d 64
        E 466 82 1d 50
        E 14 92 28 64
        E 240 82 28 50
        E 0 92 29 64
        E 240 82 29 50
        E 0 92 1c 64
        E 466 82 1c 50
        E 14 92 28 64
        E 240 82 28 50
        E 0 92 28 64
        E 240 82 28 50
        E 0 92 1c 64
        E 466 82 1c 50
        E 14 92 28 64
        E 240 82 28 50
        E 0 92 28 64
        E 240 82 28 50
        E 0 92 1c 64
        E 466 82 1c 50
        E 14 92 28 64
        E 240 82 28 50
        E 0 92 28 64
        E 240 82 28 50
        E 0 92 1c 64
        E 466 82 1c 50
        E 14 92 28 64
        E 240 82 28 50
        E 0 92 28 64
        E 240 82 28 50
        E 0 92 1d 64
        E 466 82 1d 50
        E 14 92 29 64
        E 240 82 29 50
        E 0 92 29 64
        E 240 82 29 50
        E 0 92 1d 64
        E 466 82 1d 50
        E 14 92 29 64
        E 240 82 29 50
        E 0 92 29 64
        E 240 82 29 50
        E 0 92 1d 64
        E 466 82 1d 50
        E 14 92 29 64
        E 240 82 29 50
        E 0 92 29 64
        E 240 82 29 50
        E 0 92 1d 64
        E 466 82 1d 50
        E 14 92 29 64
        E 240 82 29 50
        E 0 92 29 64
        E 240 82 29 50
        E 0 92 1d 64
        E 466 82 1d 50
        E 14 92 29 64
        E 240 82 29 50
        E 0 92 29 64
        E 240 82 29 50
        E 0 92 1d 64
        E 466 82 1d 50
        E 14 92 29 64
        E 240 82 29 50
        E 0 92 29 64
        E 240 82 29 50
        E 0 92 1d 64
        E 466 82 1d 50
        E 14 92 29 64
        E 240 82 29 50
        E 0 92 29 64
        E 240 82 29 50
        E 0 92 1d 64
        E 466 82 1d 50
        E 14 92 29 64
        E 240 82 29 50
        E 0 92 29 64
        E 240 82 29 50
        E 0 92 1a 64
        E 466 82 1a 50
        E 14 92 26 64
        E 240 82 26 50
        E 0 92 26 64
        E 240 82 26 50
        E 0 92 1a 64
        E 466 82 1a 50
        E 14 92 26 64
        E 240 82 26 50
        E 0 92 26 64
        E 240 82 26 50
        E 0 92 1a 64
        E 466 82 1a 50
        E 14 92 26 64
        E 240 82 26 50
        E 0 92 26 64
        E 240 82 26 50
        E 0 92 1a 64
        E 466 82 1a 50
        E 14 92 26 64
        E 240 82 26 50
        E 0 92 26 64
        E 240 82 26 50
        E 0 92 28 64
        E 240 82 28 50
        E 0 92 34 64
        E 480 82 34 50
        E 0 92 28 64
        E 240 92 34 64
        E 20 82 28 50
        E 460 82 34 50
        E 0 92 28 64
        E 240 82 28 50
        E 0 92 34 64
        E 480 82 34 50
        E 0 92 28 64
        E 240 82 28 50
        E 0 92 34 64
        E 480 82 34 50
        E 0 92 28 64
        E 960 82 28 50
        E 0 92 21 64
        E 466 82 21 50
        E 14 92 2d 64
        E 240 82 2d 50
        E 0 92 2d 64
        E 240 82 2d 50
        E 0 92 21 64
        E 466 82 21 50
        E 14 92 2d 64
        E 240 82 2d 50
        E 0 92 2d 64
        E 240 82 2d 50
        E 0 92 21 64
        E 466 82 21 50
        E 14 92 2d 64
        E 240 82 2d 50
        E 0 92 2d 64
        E 240 82 2d 50
        E 0 92 21 64
        E 466 82 21 50
        E 14 92 2b 64
        E 240 82 2b 50
        E 0 92 2d 64
        E 240 82 2d 50
        E 0 92 21 64
        E 466 82 21 50
        E 14 92 2d 64
        E 240 82 2d 50
        E 0 92 2d 64
        E 240 82 2d 50
        E 0 92 21 64
        E 466 82 21 50
        E 14 92 2d 64
        E 240 82 2d 50
        E 0 92 2d 64
        E 240 82 2d 50
        E 0 92 21 64
        E 466 82 21 50
        E 14 92 2d 64
        E 240 82 2d 50
        E 0 92 2d 64
        E 240 82 2d 50
        E 0 92 21 64
        E 466 82 21 50
        E 14 92 2b 64
        E 240 82 2b 50
        E 0 92 2d 64
        E 240 82 2d 50
        E 0 92 1f 64
        E 466 82 1f 50
        E 14 92 2b 64
        E 240 82 2b 50
        E 0 92 2b 64
        E 240 82 2b 50
        E 0 92 1f 64
        E 466 82 1f 50
        E 14 92 2b 64
        E 240 82 2b 50
        E 0 92 2b 64
        E 240 82 2b 50
        E 0 92 1f 64
        E 466 82 1f 50
        E 14 92 2b 64
        E 240 82 2b 50
        E 0 92 2b 64
        E 240 82 2b 50
        E 0 92 1f 64
        E 466 82 1f 50
        E 14 92 2a 64
        E 240 82 2a 50
        E 0 92 2b 64
        E 240 82 2b 50
        E 0 92 1f 64
        E 466 82 1f 50
        E 14 92 2b 64
        E 240 82 2b 50
        E 0 92 2b 64
        E 240 82 2b 50
        E 0 92 1f 64
        E 466 82 1f 50
        E 14 92 2b 64
        E 240 82 2b 50
        E 0 92 2b 64
        E 240 82 2b 50
        E 0 92 1f 64
        E 466 82 1f 50
        E 14 92 2b 64
        E 240 82 2b 50
        E 0 92 2b 64
        E 240 82 2b 50
        E 0 92 1f 64
        E 466 82 1f 50
        E 14 92 2a 64
        E 240 82 2a 50
        E 0 92 2b 64
        E 240 82 2b 50
        E 0 92 21 64
        E 466 82 21 50
        E 14 92 2d 64
        E 240 82 2d 50
        E 0 92 2d 64
        E 240 82 2d 50
        E 0 92 21 64
        E 466 82 21 50
        E 14 92 2d 64
        E 240 82 2d 50
        E 0 92 2d 64
        E 240 82 2d 50
        E 0 92 21 64
        E 466 82 21 50
        E 14 92 2d 64
        E 240 82 2d 50
        E 0 92 2d 64
        E 240 82 2d 50
        E 0 92 21 64
        E 466 82 21 50
        E 14 92 2b 64
        E 240 82 2b 50
        E 0 92 2d 64
        E 240 82 2d 50
        E 0 92 21 64
        E 466 82 21 50
        E 14 92 2d 64
        E 240 82 2d 50
        E 0 92 2d 64
        E 240 82 2d 50
        E 0 92 21 64
        E 466 82 21 50
        E 14 92 2d 64
        E 240 82 2d 50
        E 0 92 2d 64
        E 240 82 2d 50
        E 0 92 21 64
        E 466 82 21 50
        E 14 92 2d 64
        E 240 82 2d 50
        E 0 92 2d 64
        E 240 82 2d 50
        E 0 92 21 64
        E 466 82 21 50
        E 14 92 2b 64
        E 240 82 2b 50
        E 0 92 2d 64
        E 240 82 2d 50
        E 0 92 1d 64
        E 466 82 1d 50
        E 14 92 29 64
        E 240 82 29 50
        E 0 92 29 64
        E 240 82 29 50
        E 0 92 1d 64
        E 466 82 1d 50
        E 14 92 29 64
        E 240 82 29 50
        E 0 92 29 64
        E 240 82 29 50
        E 0 92 1d 64
        E 466 82 1d 50
        E 14 92 29 64
        E 240 82 29 50
        E 0 92 29 64
        E 240 82 29 50
        E 0 92 1d 64
        E 466 82 1d 50
        E 14 92 29 64
        E 240 82 29 50
        E 0 92 29 64
        E 240 82 29 50
        E 0 92 1f 64
        E 466 82 1f 50
        E 14 92 2b 64
        E 240 82 2b 50
        E 0 92 2b 64
        E 240 82 2b 50
        E 0 92 1f 64
        E 466 82 1f 50
        E 14 92 2b 64
        E 240 82 2b 50
        E 0 92 2b 64
        E 240 82 2b 50
        E 0 92 1f 64
        E 466 82 1f 50
        E 14 92 2b 64
        E 240 82 2b 50
        E 0 92 2b 64
        E 240 82 2b 50
        E 0 92 1f 64
        E 466 82 1f 50
        E 14 92 2b 64
        E 240 82 2b 50
        E 0 92 2b 64
        E 240 82 2b 50
        E 0 92 21 64
        E 466 82 21 50
        E 14 92 2d 64
        E 240 82 2d 50
        E 0 92 2d 64
        E 240 82 2d 50
        E 0 92 21 64
        E 466 82 21 50
        E 14 92 2d 64
        E 240 82 2d 50
        E 0 92 2d 64
        E 240 82 2d 50
        E 0 92 21 64
        E 466 82 21 50
        E 14 92 2d 64
        E 240 82 2d 50
        E 0 92 2d 64
        E 240 82 2d 50
        E 0 92 21 64
        E 466 82 21 50
        E 14 92 2d 64
        E 240 82 2d 50
        E 0 92 2d 64
        E 240 82 2d 50
        E 0 92 21 64
        E 466 82 21 50
        E 14 92 2d 64
        E 240 82 2d 50
        E 0 92 2d 64
        E 240 82 2d 50
        E 0 92 21 64
        E 466 82 21 50
        E 14 92 2d 64
        E 240 82 2d 50
        E 0 92 2d 64
        E 240 82 2d 50
        E 0 92 21 64
        E 466 82 21 50
        E 14 92 2d 64
        E 240 82 2d 50
        E 0 92 2d 64
        E 240 82 2d 50
        E 0 92 21 64
        E 466 82 21 50
        E 14 92 2d 64
        E 240 82 2d 50
        E 0 92 2d 64
        E 240 82 2d 50
        E 0 92 21 64
        E 466 82 21 50
        E 14 92 2d 64
        E 240 82 2d 50
        E 0 92 2d 64
        E 240 82 2d 50
        E 0 92 21 64
        E 466 82 21 50
        E 14 92 2d 64
        E 240 82 2d 50
        E 0 92 2d 64
        E 240 82 2d 50
        E 0 92 21 64
        E 466 82 21 50
        E 14 92 2d 64
        E 240 82 2d 50
        E 0 92 2d 64
        E 240 82 2d 50
        E 0 92 21 64
        E 466 82 21 50
        E 14 92 2b 64
        E 240 82 2b 50
        E 0 92 2d 64
        E 240 82 2d 50
        E 0 92 1f 64
        E 466 82 1f 50
        E 14 92 2b 64
        E 240 82 2b 50
        E 0 92 2b 64
        E 240 82 2b 50
        E 0 92 1f 64
        E 466 82 1f 50
        E 14 92 2b 64
        E 240 82 2b 50
        E 0 92 2b 64
        E 240 82 2b 50
        E 0 92 1f 64
        E 466 82 1f 50
        E 14 92 2b 64
        E 240 82 2b 50
        E 0 92 2b 64
        E 240 82 2b 50
        E 0 92 1f 64
        E 466 82 1f 50
        E 14 92 2a 64
        E 240 82 2a 50
        E 0 92 2b 64
        E 240 82 2b 50
        E 0 92 1d 64
        E 466 82 1d 50
        E 14 92 29 64
        E 240 82 29 50
        E 0 92 29 64
        E 240 82 29 50
        E 0 92 1d 64
        E 466 82 1d 50
        E 14 92 29 64
        E 240 82 29 50
        E 0 92 29 64
        E 240 82 29 50
        E 0 92 1d 64
        E 466 82 1d 50
        E 14 92 29 64
        E 240 82 29 50
        E 0 92 29 64
        E 240 82 29 50
        E 0 92 1d 64
        E 466 82 1d 50
        E 14 92 28 64
        E 240 82 28 50
        E 0 92 29 64
        E 240 82 29 50
        E 0 92 1c 64
        E 466 82 1c 50
        E 14 92 28 64
        E 240 82 28 50
        E 0 92 28 64
        E 240 82 28 50
        E 0 92 1c 64
        E 466 82 1c 50
        E 14 92 28 64
        E 240 82 28 50
        E 0 92 28 64
        E 240 82 28 50
        E 0 92 1c 64
        E 466 82 1c 50
        E 14 92 28 64
        E 240 82 28 50
        E 0 92 28 64
        E 240 82 28 50
        E 0 92 1c 64
        E 466 82 1c 50
        E 14 92 28 64
        E 240 82 28 50
        E 0 92 28 64
        E 240 82 28 50
        E 0 92 1d 64
        E 466 82 1d 50
        E 14 92 29 64
        E 240 82 29 50
        E 0 92 29 64
        E 240 82 29 50
        E 0 92 1d 64
        E 466 82 1d 50
        E 14 92 29 64
        E 240 82 29 50
        E 0 92 29 64
        E 240 82 29 50
        E 0 92 1d 64
        E 466 82 1d 50
        E 14 92 29 64
        E 240 82 29 50
        E 0 92 29 64
        E 240 82 29 50
        E 0 92 1d 64
        E 466 82 1d 50
        E 14 92 29 64
        E 240 82 29 50
        E 0 92 29 64
        E 240 82 29 50
        E 0 92 1d 64
        E 466 82 1d 50
        E 14 92 29 64
        E 240 82 29 50
        E 0 92 29 64
        E 240 82 29 50
        E 0 92 1d 64
        E 466 82 1d 50
        E 14 92 29 64
        E 240 82 29 50
        E 0 92 29 64
        E 240 82 29 50
        E 0 92 1d 64
        E 466 82 1d 50
        E 14 92 29 64
        E 240 82 29 50
        E 0 92 29 64
        E 240 82 29 50
        E 0 92 1d 64
        E 466 82 1d 50
        E 14 92 29 64
        E 240 82 29 50
        E 0 92 29 64
        E 240 82 29 50
        E 0 92 1a 64
        E 466 82 1a 50
        E 14 92 26 64
        E 240 82 26 50
        E 0 92 26 64
        E 240 82 26 50
        E 0 92 1a 64
        E 466 82 1a 50
        E 14 92 26 64
        E 240 82 26 50
        E 0 92 26 64
        E 240 82 26 50
        E 0 92 1a 64
        E 466 82 1a 50
        E 14 92 26 64
        E 240 82 26 50
        E 0 92 26 64
        E 240 82 26 50
        E 0 92 1a 64
        E 466 82 1a 50
        E 14 92 26 64
        E 240 82 26 50
        E 0 92 26 64
        E 240 82 26 50
        E 0 92 28 64
        E 240 82 28 50
        E 0 92 34 64
        E 480 82 34 50
        E 0 92 28 64
        E 240 92 34 64
        E 20 82 28 50
        E 460 82 34 50
        E 0 92 28 64
        E 240 82 28 50
        E 0 92 34 64
        E 480 82 34 50
        E 0 92 28 64
        E 240 82 28 50
        E 0 92 34 64
        E 480 82 34 50
        E 0 92 28 64
        E 960 82 28 50
        E 0 92 21 64
        E 466 82 21 50
        E 14 92 2d 64
        E 240 82 2d 50
        E 0 92 2d 64
        E 240 82 2d 50
        E 0 92 21 64
        E 466 82 21 50
        E 14 92 2d 64
        E 240 82 2d 50
        E 0 92 2d 64
        E 240 82 2d 50
        E 0 92 21 64
        E 466 82 21 50
        E 14 92 2d 64
        E 240 82 2d 50
        E 0 92 2d 64
        E 240 82 2d 50
        E 0 92 21 64
        E 466 82 21 50
        E 14 92 2b 64
        E 240 82 2b 50
        E 0 92 2d 64
        E 240 82 2d 50
        E 0 92 21 64
        E 466 82 21 50
        E 14 92 2d 64
        E 240 82 2d 50
        E 0 92 2d 64
        E 240 82 2d 50
        E 0 92 21 64
        E 466 82 21 50
        E 14 92 2d 64
        E 240 82 2d 50
        E 0 92 2d 64
        E 240 82 2d 50
        E 0 92 21 64
        E 466 82 21 50
        E 14 92 2d 64
        E 240 82 2d 50
        E 0 92 2d 64
        E 240 82 2d 50
        E 0 92 21 64
        E 466 82 21 50
        E 14 92 2b 64
        E 240 82 2b 50
        E 0 92 2d 64
        E 240 82 2d 50
        E 0 92 1f 64
        E 466 82 1f 50
        E 14 92 2b 64
        E 240 82 2b 50
        E 0 92 2b 64
        E 240 82 2b 50
        E 0 92 1f 64
        E 466 82 1f 50
        E 14 92 2b 64
        E 240 82 2b 50
        E 0 92 2b 64
        E 240 82 2b 50
        E 0 92 1f 64
        E 466 82 1f 50
        E 14 92 2b 64
        E 240 82 2b 50
        E 0 92 2b 64
        E 240 82 2b 50
        E 0 92 1f 64
        E 466 82 1f 50
        E 14 92 2a 64
        E 240 82 2a 50
        E 0 92 2b 64
        E 240 82 2b 50
        E 0 92 1f 64
        E 466 82 1f 50
        E 14 92 2b 64
        E 240 82 2b 50
        E 0 92 2b 64
        E 240 82 2b 50
        E 0 92 1f 64
        E 466 82 1f 50
        E 14 92 2b 64
        E 240 82 2b 50
        E 0 92 2b 64
        E 240 82 2b 50
        E 0 92 1f 64
        E 466 82 1f 50
        E 14 92 2b 64
        E 240 82 2b 50
        E 0 92 2b 64
        E 240 82 2b 50
        E 0 92 1f 64
        E 466 82 1f 50
        E 14 92 2a 64
        E 240 82 2a 50
        E 0 92 2b 64
        E 240 82 2b 50
        E 0 92 21 64
        E 466 82 21 50
        E 14 92 2d 64
        E 240 82 2d 50
        E 0 92 2d 64
        E 240 82 2d 50
        E 0 92 21 64
        E 466 82 21 50
        E 14 92 2d 64
        E 240 82 2d 50
        E 0 92 2d 64
        E 240 82 2d 50
        E 0 92 21 64
        E 466 82 21 50
        E 14 92 2d 64
        E 240 82 2d 50
        E 0 92 2d 64
        E 240 82 2d 50
        E 0 92 21 64
        E 466 82 21 50
        E 14 92 2b 64
        E 240 82 2b 50
        E 0 92 2d 64
        E 240 82 2d 50
        E 0 92 21 64
        E 466 82 21 50
        E 14 92 2d 64
        E 240 82 2d 50
        E 0 92 2d 64
        E 240 82 2d 50
        E 0 92 21 64
        E 466 82 21 50
        E 14 92 2d 64
        E 240 82 2d 50
        E 0 92 2d 64
        E 240 82 2d 50
        E 0 92 21 64
        E 466 82 21 50
        E 14 92 2d 64
        E 240 82 2d 50
        E 0 92 2d 64
        E 240 82 2d 50
        E 0 92 21 64
        E 466 82 21 50
        E 14 92 2b 64
        E 240 82 2b 50
        E 0 92 2d 64
        E 240 82 2d 50
        E 0 92 1d 64
        E 466 82 1d 50
        E 14 92 29 64
        E 240 82 29 50
        E 0 92 29 64
        E 240 82 29 50
        E 0 92 1d 64
        E 466 82 1d 50
        E 14 92 29 64
        E 240 82 29 50
        E 0 92 29 64
        E 240 82 29 50
        E 0 92 1d 64
        E 466 82 1d 50
        E 14 92 29 64
        E 240 82 29 50
        E 0 92 29 64
        E 240 82 29 50
        E 0 92 1d 64
        E 466 82 1d 50
        E 14 92 29 64
        E 240 82 29 50
        E 0 92 29 64
        E 240 82 29 50
        E 0 92 1f 64
        E 466 82 1f 50
        E 14 92 2b 64
        E 240 82 2b 50
        E 0 92 2b 64
        E 240 82 2b 50
        E 0 92 1f 64
        E 466 82 1f 50
        E 14 92 2b 64
        E 240 82 2b 50
        E 0 92 2b 64
        E 240 82 2b 50
        E 0 92 1f 64
        E 466 82 1f 50
        E 14 92 2b 64
        E 240 82 2b 50
        E 0 92 2b 64
        E 240 82 2b 50
        E 0 92 1f 64
        E 466 82 1f 50
        E 14 92 2b 64
        E 240 82 2b 50
        E 0 92 2b 64
        E 240 82 2b 50
        E 0 92 21 64
        E 466 82 21 50
        E 14 92 2d 64
        E 240 82 2d 50
        E 0 92 2d 64
        E 240 82 2d 50
        E 0 92 21 64
        E 466 82 21 50
        E 14 92 2d 64
        E 240 82 2d 50
        E 0 92 2d 64
        E 240 82 2d 50
        E 0 92 21 64
        E 466 82 21 50
        E 14 92 2d 64
        E 240 82 2d 50
        E 0 92 2d 64
        E 240 82 2d 50
        E 0 92 21 64
        E 466 82 21 50
        E 14 92 2d 64
        E 240 82 2d 50
        E 0 92 2d 64
        E 240 82 2d 50
        E 0 92 21 64
        E 466 82 21 50
        E 14 92 2d 64
        E 240 82 2d 50
        E 0 92 2d 64
        E 240 82 2d 50
        E 0 92 21 64
        E 466 82 21 50
        E 14 92 2d 64
        E 240 82 2d 50
        E 0 92 2d 64
        E 240 82 2d 50
        E 0 92 21 64
        E 466 82 21 50
        E 14 92 2d 64
        E 240 82 2d 50
        E 0 92 2d 64
        E 240 82 2d 50
        E 0 92 21 64
        E 466 82 21 50
        E 14 92 2d 64
        E 240 82 2d 50
        E 0 92 2d 64
        E 240 82 2d 50
        E 0 92 21 64
        E 466 82 21 50
        E 14 92 2d 64
        E 240 82 2d 50
        E 0 92 2d 64
        E 240 82 2d 50
        E 0 92 21 64
        E 466 82 21 50
        E 14 92 2d 64
        E 240 82 2d 50
        E 0 92 2d 64
        E 240 82 2d 50
        E 0 92 21 64
        E 466 82 21 50
        E 14 92 2d 64
        E 240 82 2d 50
        E 0 92 2d 64
        E 240 82 2d 50
        E 0 92 21 64
        E 466 82 21 50
        E 14 92 2b 64
        E 240 82 2b 50
        E 0 92 2d 64
        E 240 82 2d 50
        E 0 92 1f 64
        E 466 82 1f 50
        E 14 92 2b 64
        E 240 82 2b 50
        E 0 92 2b 64
        E 240 82 2b 50
        E 0 92 1f 64
        E 466 82 1f 50
        E 14 92 2b 64
        E 240 82 2b 50
        E 0 92 2b 64
        E 240 82 2b 50
        E 0 92 1f 64
        E 466 82 1f 50
        E 14 92 2b 64
        E 240 82 2b 50
        E 0 92 2b 64
        E 240 82 2b 50
        E 0 92 1f 64
        E 466 82 1f 50
        E 14 92 2a 64
        E 240 82 2a 50
        E 0 92 2b 64
        E 240 82 2b 50
        E 0 92 1d 64
        E 466 82 1d 50
        E 14 92 29 64
        E 240 82 29 50
        E 0 92 29 64
        E 240 82 29 50
        E 0 92 1d 64
        E 466 82 1d 50
        E 14 92 29 64
        E 240 82 29 50
        E 0 92 29 64
        E 240 82 29 50
        E 0 92 1d 64
        E 466 82 1d 50
        E 14 92 29 64
        E 240 82 29 50
        E 0 92 29 64
        E 240 82 29 50
        E 0 92 1d 64
        E 466 82 1d 50
        E 14 92 28 64
        E 240 82 28 50
        E 0 92 29 64
        E 240 82 29 50
        E 0 92 1c 64
        E 466 82 1c 50
        E 14 92 28 64
        E 240 82 28 50
        E 0 92 28 64
        E 240 82 28 50
        E 0 92 1c 64
        E 466 82 1c 50
        E 14 92 28 64
        E 240 82 28 50
        E 0 92 28 64
        E 240 82 28 50
        E 0 92 1c 64
        E 466 82 1c 50
        E 14 92 28 64
        E 240 82 28 50
        E 0 92 28 64
        E 240 82 28 50
        E 0 92 1c 64
        E 466 82 1c 50
        E 14 92 28 64
        E 240 82 28 50
        E 0 92 28 64
        E 240 82 28 50
        E 0 92 1d 64
        E 466 82 1d 50
        E 14 92 29 64
        E 240 82 29 50
        E 0 92 29 64
        E 240 82 29 50
        E 0 92 1d 64
        E 466 82 1d 50
        E 14 92 29 64
        E 240 82 29 50
        E 0 92 29 64
        E 240 82 29 50
        E 0 92 1d 64
        E 466 82 1d 50
        E 14 92 29 64
        E 240 82 29 50
        E 0 92 29 64
        E 240 82 29 50
        E 0 92 1d 64
        E 466 82 1d 50
        E 14 92 29 64
        E 240 82 29 50
        E 0 92 29 64
        E 240 82 29 50
        E 0 92 1d 64
        E 466 82 1d 50
        E 14 92 29 64
        E 240 82 29 50
        E 0 92 29 64
        E 240 82 29 50
        E 0 92 1d 64
        E 466 82 1d 50
        E 14 92 29 64
        E 240 82 29 50
        E 0 92 29 64
        E 240 82 29 50
        E 0 92 1d 64
        E 466 82 1d 50
        E 14 92 29 64
        E 240 82 29 50
        E 0 92 29 64
        E 240 82 29 50
        E 0 92 1d 64
        E 466 82 1d 50
        E 14 92 29 64
        E 240 82 29 50
        E 0 92 29 64
        E 240 82 29 50
        E 0 92 1a 64
        E 466 82 1a 50
        E 14 92 26 64
        E 240 82 26 50
        E 0 92 26 64
        E 240 82 26 50
        E 0 92 1a 64
        E 466 82 1a 50
        E 14 92 26 64
        E 240 82 26 50
        E 0 92 26 64
        E 240 82 26 50
        E 0 92 1a 64
        E 466 82 1a 50
        E 14 92 26 64
        E 240 82 26 50
        E 0 92 26 64
        E 240 82 26 50
        E 0 92 1a 64
        E 466 82 1a 50
        E 14 92 26 64
        E 240 82 26 50
        E 0 92 26 64
        E 240 82 26 50
        E 0 92 28 64
        E 240 82 28 50
        E 0 92 34 64
        E 480 82 34 50
        E 0 92 28 64
        E 240 92 34 64
        E 20 82 28 50
        E 460 82 34 50
        E 0 b0 7b 00
        CCINTERP 32
        CHASE_CC_TAKEOFFS 1
        GUID {B9C5BDAD-02D2-4566-86AF-58E2B4693E7D}
        IGNTEMPO 0 120 4 4
        SRCCOLOR 117
        VELLANE -1 100 0
        CFGEDITVIEW 21813.855782 0.110123 58 12 0 -1 0 0 0 0.5
        KEYSNAP 0
        TRACKSEL 0
        EVTFILTER 0 -1 -1 -1 -1 0 0 0 0 -1 -1 -1 -1 0 -1 0 -1 -1
        CFGEDIT 1 1 0 1 0 0 1 1 1 1 1 0.125 491 252 1442 1081 0 0 0 0 0 0 0 1 0 0.5 0 0 1 64
      >
    >
  >
  <TRACK {70143D2F-471D-4193-8BCD-B3F91ED57E02}
    NAME "R-Type - r-type1.mid [chan 4] [chan 4]"
    PEAKCOL 16576
    BEAT -1
    AUTOMODE 0
    VOLPAN 1 0 -1 -1 1
    MUTESOLO 0 0 0
    IPHASE 0
    PLAYOFFS 0 1
    ISBUS 0 0
    BUSCOMP 0 0 0 0 0
    SHOWINMIX 1 0.6667 0.5 1 0.5 -1 -1 -1
    FREEMODE 0
    SEL 0
    REC 0 0 1 0 0 0 0
    VU 2
    TRACKHEIGHT 0 0 0 0 0 0
    INQ 0 0 0 0.5 100 0 0 100
    NCHAN 2
    FX 1
    TRACKID {70143D2F-471D-4193-8BCD-B3F91ED57E02}
    PERF 0
    MIDIOUT -1
    MAINSEND 1 0
    <FXCHAIN
      WNDRECT 23 51 737 624
      SHOW 0
      LASTSEL 0
      DOCKED 0
      BYPASS 0 0 0
      <VST "VSTi: ReaSynth (Cockos)" reasynth.dll 0 "" 1919251321<5653547265737972656173796E746800> ""
        eXNlcu9e7f4AAAAAAgAAAAEAAAAAAAAAAgAAAAAAAABEAAAAAAAAAAAAEAA=
        776t3g3wrd4AAAAAF7fROtNNIj+DwEo+2/leP85NAD8r+jQ8AAAAAAAAAD8MIJk+nu/nPgAAAD8AAAAAAAAAAAAAAAA=
        AAAQAAAA
      >
      FLOATPOS 0 0 0 0
      FXID {4620D94B-987A-4536-8CEA-CD368F25D8F2}
      WAK 0 0
    >
    <ITEM
      POSITION 35.59999999999047
      SNAPOFFS 0
      LENGTH 143.19999999999087
      LOOP 1
      ALLTAKES 0
      FADEIN 1 0 0 1 0 0 0
      FADEOUT 1 0 0 1 0 0 0
      MUTE 0 0
      SEL 0
      IGUID {D946CABF-4190-4937-BB30-6D9E50D5A580}
      IID 30
      NAME "R-Type - r-type1.mid [chan 4]"
      VOLPAN 1 0 1 -1
      SOFFS 0 0
      PLAYRATE 1 1 0 -1 0 0.0025
      CHANMODE 0
      GUID {D728251F-7A5D-4789-B369-57F4384B519E}
      <SOURCE MIDI
        HASDATA 1 960 QN
        CCINTERP 32
        POOLEDEVTS {D5E87F7B-FF22-475A-A1FA-A00CCE13A856}
        E 0 c3 57 00
        E 0 b3 07 6b
        E 0 b3 0a 40
        E 0 b3 5b 33
        E 0 b3 5d 0c
        E 69600 b3 0a 7f
        E 0 93 45 64
        E 208 83 45 50
        E 32 b3 0a 00
        E 0 93 45 64
        E 202 83 45 50
        E 38 b3 0a 7f
        E 0 93 51 64
        E 196 83 51 50
        E 44 b3 0a 00
        E 0 93 51 64
        E 190 83 51 50
        E 50 b3 0a 7f
        E 0 93 45 64
        E 208 83 45 50
        E 32 b3 0a 00
        E 0 93 45 64
        E 202 83 45 50
        E 38 b3 0a 7f
        E 0 93 4f 64
        E 196 83 4f 50
        E 44 b3 0a 00
        E 0 93 51 64
        E 190 83 51 50
        E 1970 b3 0a 00
        E 0 93 45 64
        E 208 83 45 50
        E 32 b3 0a 7f
        E 0 93 45 64
        E 202 83 45 50
        E 38 b3 0a 00
        E 0 93 51 64
        E 196 83 51 50
        E 44 b3 0a 7f
        E 0 93 51 64
        E 190 83 51 50
        E 50 b3 0a 00
        E 0 93 45 64
        E 208 83 45 50
        E 32 b3 0a 7f
        E 0 93 45 64
        E 202 83 45 50
        E 38 b3 0a 00
        E 0 93 4f 64
        E 196 83 4f 50
        E 44 b3 0a 7f
        E 0 93 51 64
        E 190 83 51 50
        E 1970 b3 0a 7f
        E 0 93 43 64
        E 208 83 43 50
        E 32 b3 0a 00
        E 0 93 43 64
        E 202 83 43 50
        E 38 b3 0a 7f
        E 0 93 4f 64
        E 196 83 4f 50
        E 44 b3 0a 00
        E 0 93 4f 64
        E 190 83 4f 50
        E 50 b3 0a 7f
        E 0 93 43 64
        E 208 83 43 50
        E 32 b3 0a 00
        E 0 93 43 64
        E 202 83 43 50
        E 38 b3 0a 7f
        E 0 93 4e 64
        E 196 83 4e 50
        E 44 b3 0a 00
        E 0 93 4f 64
        E 190 83 4f 50
        E 1970 b3 0a 00
        E 0 93 43 64
        E 208 83 43 50
        E 32 b3 0a 7f
        E 0 93 43 64
        E 202 83 43 50
        E 38 b3 0a 00
        E 0 93 4f 64
        E 196 83 4f 50
        E 44 b3 0a 7f
        E 0 93 4f 64
        E 190 83 4f 50
        E 50 b3 0a 00
        E 0 93 43 64
        E 208 83 43 50
        E 32 b3 0a 7f
        E 0 93 43 64
        E 202 83 43 50
        E 38 b3 0a 00
        E 0 93 4e 64
        E 196 83 4e 50
        E 44 b3 0a 7f
        E 0 93 4f 64
        E 190 83 4f 50
        E 1970 b3 0a 7f
        E 0 93 45 64
        E 180 83 45 50
        E 60 b3 0a 00
        E 0 93 45 64
        E 174 83 45 50
        E 66 b3 0a 7f
        E 0 93 51 64
        E 168 83 51 50
        E 72 b3 0a 00
        E 0 93 51 64
        E 188 83 51 50
        E 52 b3 0a 7f
        E 0 93 45 64
        E 180 83 45 50
        E 60 b3 0a 00
        E 0 93 45 64
        E 174 83 45 50
        E 66 b3 0a 7f
        E 0 93 4f 64
        E 168 83 4f 50
        E 72 b3 0a 00
        E 0 93 51 64
        E 188 83 51 50
        E 1972 b3 0a 00
        E 0 93 45 64
        E 180 83 45 50
        E 60 b3 0a 7f
        E 0 93 45 64
        E 174 83 45 50
        E 66 b3 0a 00
        E 0 93 51 64
        E 168 83 51 50
        E 72 b3 0a 7f
        E 0 93 51 64
        E 188 83 51 50
        E 52 b3 0a 00
        E 0 93 45 64
        E 180 83 45 50
        E 60 b3 0a 7f
        E 0 93 45 64
        E 174 83 45 50
        E 66 b3 0a 00
        E 0 93 4f 64
        E 168 83 4f 50
        E 72 b3 0a 7f
        E 0 93 51 64
        E 188 83 51 50
        E 1972 b3 0a 7f
        E 0 93 48 64
        E 180 83 48 50
        E 60 b3 0a 00
        E 0 93 48 64
        E 174 83 48 50
        E 66 b3 0a 7f
        E 0 93 54 64
        E 168 83 54 50
        E 72 b3 0a 00
        E 0 93 54 64
        E 188 83 54 50
        E 52 b3 0a 7f
        E 0 93 48 64
        E 180 83 48 50
        E 60 b3 0a 00
        E 0 93 48 64
        E 174 83 48 50
        E 66 b3 0a 7f
        E 0 93 53 64
        E 168 83 53 50
        E 72 b3 0a 00
        E 0 93 54 64
        E 188 83 54 50
        E 1972 b3 0a 00
        E 0 93 4a 64
        E 180 83 4a 50
        E 60 b3 0a 7f
        E 0 93 4a 64
        E 174 83 4a 50
        E 66 b3 0a 00
        E 0 93 56 64
        E 168 83 56 50
        E 72 b3 0a 7f
        E 0 93 56 64
        E 188 83 56 50
        E 52 b3 0a 00
        E 0 93 4a 64
        E 180 83 4a 50
        E 60 b3 0a 7f
        E 0 93 4a 64
        E 174 83 4a 50
        E 66 b3 0a 00
        E 0 93 54 64
        E 168 83 54 50
        E 72 b3 0a 7f
        E 0 93 56 64
        E 188 83 56 50
        E 40372 b3 0a 7f
        E 0 93 45 64
        E 208 83 45 50
        E 32 b3 0a 00
        E 0 93 45 64
        E 202 83 45 50
        E 38 b3 0a 7f
        E 0 93 51 64
        E 196 83 51 50
        E 44 b3 0a 00
        E 0 93 51 64
        E 190 83 51 50
        E 50 b3 0a 7f
        E 0 93 45 64
        E 208 83 45 50
        E 32 b3 0a 00
        E 0 93 45 64
        E 202 83 45 50
        E 38 b3 0a 7f
        E 0 93 4f 64
        E 196 83 4f 50
        E 44 b3 0a 00
        E 0 93 51 64
        E 190 83 51 50
        E 1970 b3 0a 00
        E 0 93 45 64
        E 208 83 45 50
        E 32 b3 0a 7f
        E 0 93 45 64
        E 202 83 45 50
        E 38 b3 0a 00
        E 0 93 51 64
        E 196 83 51 50
        E 44 b3 0a 7f
        E 0 93 51 64
        E 190 83 51 50
        E 50 b3 0a 00
        E 0 93 45 64
        E 208 83 45 50
        E 32 b3 0a 7f
        E 0 93 45 64
        E 202 83 45 50
        E 38 b3 0a 00
        E 0 93 4f 64
        E 196 83 4f 50
        E 44 b3 0a 7f
        E 0 93 51 64
        E 190 83 51 50
        E 1970 b3 0a 7f
        E 0 93 43 64
        E 208 83 43 50
        E 32 b3 0a 00
        E 0 93 43 64
        E 202 83 43 50
        E 38 b3 0a 7f
        E 0 93 4f 64
        E 196 83 4f 50
        E 44 b3 0a 00
        E 0 93 4f 64
        E 190 83 4f 50
        E 50 b3 0a 7f
        E 0 93 43 64
        E 208 83 43 50
        E 32 b3 0a 00
        E 0 93 43 64
        E 202 83 43 50
        E 38 b3 0a 7f
        E 0 93 4e 64
        E 196 83 4e 50
        E 44 b3 0a 00
        E 0 93 4f 64
        E 190 83 4f 50
        E 1970 b3 0a 00
        E 0 93 43 64
        E 208 83 43 50
        E 32 b3 0a 7f
        E 0 93 43 64
        E 202 83 43 50
        E 38 b3 0a 00
        E 0 93 4f 64
        E 196 83 4f 50
        E 44 b3 0a 7f
        E 0 93 4f 64
        E 190 83 4f 50
        E 50 b3 0a 00
        E 0 93 43 64
        E 208 83 43 50
        E 32 b3 0a 7f
        E 0 93 43 64
        E 202 83 43 50
        E 38 b3 0a 00
        E 0 93 4e 64
        E 196 83 4e 50
        E 44 b3 0a 7f
        E 0 93 4f 64
        E 190 83 4f 50
        E 1970 b3 0a 7f
        E 0 93 45 64
        E 180 83 45 50
        E 60 b3 0a 00
        E 0 93 45 64
        E 174 83 45 50
        E 66 b3 0a 7f
        E 0 93 51 64
        E 168 83 51 50
        E 72 b3 0a 00
        E 0 93 51 64
        E 188 83 51 50
        E 52 b3 0a 7f
        E 0 93 45 64
        E 180 83 45 50
        E 60 b3 0a 00
        E 0 93 45 64
        E 174 83 45 50
        E 66 b3 0a 7f
        E 0 93 4f 64
        E 168 83 4f 50
        E 72 b3 0a 00
        E 0 93 51 64
        E 188 83 51 50
        E 1972 b3 0a 00
        E 0 93 45 64
        E 180 83 45 50
        E 60 b3 0a 7f
        E 0 93 45 64
        E 174 83 45 50
        E 66 b3 0a 00
        E 0 93 51 64
        E 168 83 51 50
        E 72 b3 0a 7f
        E 0 93 51 64
        E 188 83 51 50
        E 52 b3 0a 00
        E 0 93 45 64
        E 180 83 45 50
        E 60 b3 0a 7f
        E 0 93 45 64
        E 174 83 45 50
        E 66 b3 0a 00
        E 0 93 4f 64
        E 168 83 4f 50
        E 72 b3 0a 7f
        E 0 93 51 64
        E 188 83 51 50
        E 1972 b3 0a 7f
        E 0 93 48 64
        E 180 83 48 50
        E 60 b3 0a 00
        E 0 93 48 64
        E 174 83 48 50
        E 66 b3 0a 7f
        E 0 93 54 64
        E 168 83 54 50
        E 72 b3 0a 00
        E 0 93 54 64
        E 188 83 54 50
        E 52 b3 0a 7f
        E 0 93 48 64
        E 180 83 48 50
        E 60 b3 0a 00
        E 0 93 48 64
        E 174 83 48 50
        E 66 b3 0a 7f
        E 0 93 53 64
        E 168 83 53 50
        E 72 b3 0a 00
        E 0 93 54 64
        E 188 83 54 50
        E 1972 b3 0a 00
        E 0 93 4a 64
        E 180 83 4a 50
        E 60 b3 0a 7f
        E 0 93 4a 64
        E 174 83 4a 50
        E 66 b3 0a 00
        E 0 93 56 64
        E 168 83 56 50
        E 72 b3 0a 7f
        E 0 93 56 64
        E 188 83 56 50
        E 52 b3 0a 00
        E 0 93 4a 64
        E 180 83 4a 50
        E 60 b3 0a 7f
        E 0 93 4a 64
        E 174 83 4a 50
        E 66 b3 0a 00
        E 0 93 54 64
        E 168 83 54 50
        E 72 b3 0a 7f
        E 0 93 56 64
        E 188 83 56 50
        E 40372 b3 0a 7f
        E 0 93 45 64
        E 208 83 45 50
        E 32 b3 0a 00
        E 0 93 45 64
        E 202 83 45 50
        E 38 b3 0a 7f
        E 0 93 51 64
        E 196 83 51 50
        E 44 b3 0a 00
        E 0 93 51 64
        E 190 83 51 50
        E 50 b3 0a 7f
        E 0 93 45 64
        E 208 83 45 50
        E 32 b3 0a 00
        E 0 93 45 64
        E 202 83 45 50
        E 38 b3 0a 7f
        E 0 93 4f 64
        E 196 83 4f 50
        E 44 b3 0a 00
        E 0 93 51 64
        E 190 83 51 50
        E 1970 b3 0a 00
        E 0 93 45 64
        E 208 83 45 50
        E 32 b3 0a 7f
        E 0 93 45 64
        E 202 83 45 50
        E 38 b3 0a 00
        E 0 93 51 64
        E 196 83 51 50
        E 44 b3 0a 7f
        E 0 93 51 64
        E 190 83 51 50
        E 50 b3 0a 00
        E 0 93 45 64
        E 208 83 45 50
        E 32 b3 0a 7f
        E 0 93 45 64
        E 202 83 45 50
        E 38 b3 0a 00
        E 0 93 4f 64
        E 196 83 4f 50
        E 44 b3 0a 7f
        E 0 93 51 64
        E 190 83 51 50
        E 1970 b3 0a 7f
        E 0 93 43 64
        E 208 83 43 50
        E 32 b3 0a 00
        E 0 93 43 64
        E 202 83 43 50
        E 38 b3 0a 7f
        E 0 93 4f 64
        E 196 83 4f 50
        E 44 b3 0a 00
        E 0 93 4f 64
        E 190 83 4f 50
        E 50 b3 0a 7f
        E 0 93 43 64
        E 208 83 43 50
        E 32 b3 0a 00
        E 0 93 43 64
        E 202 83 43 50
        E 38 b3 0a 7f
        E 0 93 4e 64
        E 196 83 4e 50
        E 44 b3 0a 00
        E 0 93 4f 64
        E 190 83 4f 50
        E 1970 b3 0a 00
        E 0 93 43 64
        E 208 83 43 50
        E 32 b3 0a 7f
        E 0 93 43 64
        E 202 83 43 50
        E 38 b3 0a 00
        E 0 93 4f 64
        E 196 83 4f 50
        E 44 b3 0a 7f
        E 0 93 4f 64
        E 190 83 4f 50
        E 50 b3 0a 00
        E 0 93 43 64
        E 208 83 43 50
        E 32 b3 0a 7f
        E 0 93 43 64
        E 202 83 43 50
        E 38 b3 0a 00
        E 0 93 4e 64
        E 196 83 4e 50
        E 44 b3 0a 7f
        E 0 93 4f 64
        E 190 83 4f 50
        E 1970 b3 0a 7f
        E 0 93 45 64
        E 180 83 45 50
        E 60 b3 0a 00
        E 0 93 45 64
        E 174 83 45 50
        E 66 b3 0a 7f
        E 0 93 51 64
        E 168 83 51 50
        E 72 b3 0a 00
        E 0 93 51 64
        E 188 83 51 50
        E 52 b3 0a 7f
        E 0 93 45 64
        E 180 83 45 50
        E 60 b3 0a 00
        E 0 93 45 64
        E 174 83 45 50
        E 66 b3 0a 7f
        E 0 93 4f 64
        E 168 83 4f 50
        E 72 b3 0a 00
        E 0 93 51 64
        E 188 83 51 50
        E 1972 b3 0a 00
        E 0 93 45 64
        E 180 83 45 50
        E 60 b3 0a 7f
        E 0 93 45 64
        E 174 83 45 50
        E 66 b3 0a 00
        E 0 93 51 64
        E 168 83 51 50
        E 72 b3 0a 7f
        E 0 93 51 64
        E 188 83 51 50
        E 52 b3 0a 00
        E 0 93 45 64
        E 180 83 45 50
        E 60 b3 0a 7f
        E 0 93 45 64
        E 174 83 45 50
        E 66 b3 0a 00
        E 0 93 4f 64
        E 168 83 4f 50
        E 72 b3 0a 7f
        E 0 93 51 64
        E 188 83 51 50
        E 1972 b3 0a 7f
        E 0 93 48 64
        E 180 83 48 50
        E 60 b3 0a 00
        E 0 93 48 64
        E 174 83 48 50
        E 66 b3 0a 7f
        E 0 93 54 64
        E 168 83 54 50
        E 72 b3 0a 00
        E 0 93 54 64
        E 188 83 54 50
        E 52 b3 0a 7f
        E 0 93 48 64
        E 180 83 48 50
        E 60 b3 0a 00
        E 0 93 48 64
        E 174 83 48 50
        E 66 b3 0a 7f
        E 0 93 53 64
        E 168 83 53 50
        E 72 b3 0a 00
        E 0 93 54 64
        E 188 83 54 50
        E 1972 b3 0a 00
        E 0 93 4a 64
        E 180 83 4a 50
        E 60 b3 0a 7f
        E 0 93 4a 64
        E 174 83 4a 50
        E 66 b3 0a 00
        E 0 93 56 64
        E 168 83 56 50
        E 72 b3 0a 7f
        E 0 93 56 64
        E 188 83 56 50
        E 52 b3 0a 00
        E 0 93 4a 64
        E 180 83 4a 50
        E 60 b3 0a 7f
        E 0 93 4a 64
        E 174 83 4a 50
        E 66 b3 0a 00
        E 0 93 54 64
        E 168 83 54 50
        E 72 b3 0a 7f
        E 0 93 56 64
        E 188 83 56 50
        E 40372 b3 0a 7f
        E 0 93 45 64
        E 208 83 45 50
        E 32 b3 0a 00
        E 0 93 45 64
        E 202 83 45 50
        E 38 b3 0a 7f
        E 0 93 51 64
        E 196 83 51 50
        E 44 b3 0a 00
        E 0 93 51 64
        E 190 83 51 50
        E 50 b3 0a 7f
        E 0 93 45 64
        E 208 83 45 50
        E 32 b3 0a 00
        E 0 93 45 64
        E 202 83 45 50
        E 38 b3 0a 7f
        E 0 93 4f 64
        E 196 83 4f 50
        E 44 b3 0a 00
        E 0 93 51 64
        E 190 83 51 50
        E 1970 b3 0a 00
        E 0 93 45 64
        E 208 83 45 50
        E 32 b3 0a 7f
        E 0 93 45 64
        E 202 83 45 50
        E 38 b3 0a 00
        E 0 93 51 64
        E 196 83 51 50
        E 44 b3 0a 7f
        E 0 93 51 64
        E 190 83 51 50
        E 50 b3 0a 00
        E 0 93 45 64
        E 208 83 45 50
        E 32 b3 0a 7f
        E 0 93 45 64
        E 202 83 45 50
        E 38 b3 0a 00
        E 0 93 4f 64
        E 196 83 4f 50
        E 44 b3 0a 7f
        E 0 93 51 64
        E 190 83 51 50
        E 1970 b3 0a 7f
        E 0 93 43 64
        E 208 83 43 50
        E 32 b3 0a 00
        E 0 93 43 64
        E 202 83 43 50
        E 38 b3 0a 7f
        E 0 93 4f 64
        E 196 83 4f 50
        E 44 b3 0a 00
        E 0 93 4f 64
        E 190 83 4f 50
        E 50 b3 0a 7f
        E 0 93 43 64
        E 208 83 43 50
        E 32 b3 0a 00
        E 0 93 43 64
        E 202 83 43 50
        E 38 b3 0a 7f
        E 0 93 4e 64
        E 196 83 4e 50
        E 44 b3 0a 00
        E 0 93 4f 64
        E 190 83 4f 50
        E 1970 b3 0a 00
        E 0 93 43 64
        E 208 83 43 50
        E 32 b3 0a 7f
        E 0 93 43 64
        E 202 83 43 50
        E 38 b3 0a 00
        E 0 93 4f 64
        E 196 83 4f 50
        E 44 b3 0a 7f
        E 0 93 4f 64
        E 190 83 4f 50
        E 50 b3 0a 00
        E 0 93 43 64
        E 208 83 43 50
        E 32 b3 0a 7f
        E 0 93 43 64
        E 202 83 43 50
        E 38 b3 0a 00
        E 0 93 4e 64
        E 196 83 4e 50
        E 44 b3 0a 7f
        E 0 93 4f 64
        E 190 83 4f 50
        E 1970 b3 0a 7f
        E 0 93 45 64
        E 180 83 45 50
        E 60 b3 0a 00
        E 0 93 45 64
        E 174 83 45 50
        E 66 b3 0a 7f
        E 0 93 51 64
        E 168 83 51 50
        E 72 b3 0a 00
        E 0 93 51 64
        E 188 83 51 50
        E 52 b3 0a 7f
        E 0 93 45 64
        E 180 83 45 50
        E 60 b3 0a 00
        E 0 93 45 64
        E 174 83 45 50
        E 66 b3 0a 7f
        E 0 93 4f 64
        E 168 83 4f 50
        E 72 b3 0a 00
        E 0 93 51 64
        E 188 83 51 50
        E 1972 b3 0a 00
        E 0 93 45 64
        E 180 83 45 50
        E 60 b3 0a 7f
        E 0 93 45 64
        E 174 83 45 50
        E 66 b3 0a 00
        E 0 93 51 64
        E 168 83 51 50
        E 72 b3 0a 7f
        E 0 93 51 64
        E 188 83 51 50
        E 52 b3 0a 00
        E 0 93 45 64
        E 180 83 45 50
        E 60 b3 0a 7f
        E 0 93 45 64
        E 174 83 45 50
        E 66 b3 0a 00
        E 0 93 4f 64
        E 168 83 4f 50
        E 72 b3 0a 7f
        E 0 93 51 64
        E 188 83 51 50
        E 1972 b3 0a 7f
        E 0 93 48 64
        E 180 83 48 50
        E 60 b3 0a 00
        E 0 93 48 64
        E 174 83 48 50
        E 66 b3 0a 7f
        E 0 93 54 64
        E 168 83 54 50
        E 72 b3 0a 00
        E 0 93 54 64
        E 188 83 54 50
        E 52 b3 0a 7f
        E 0 93 48 64
        E 180 83 48 50
        E 60 b3 0a 00
        E 0 93 48 64
        E 174 83 48 50
        E 66 b3 0a 7f
        E 0 93 53 64
        E 168 83 53 50
        E 72 b3 0a 00
        E 0 93 54 64
        E 188 83 54 50
        E 1972 b3 0a 00
        E 0 93 4a 64
        E 180 83 4a 50
        E 60 b3 0a 7f
        E 0 93 4a 64
        E 174 83 4a 50
        E 66 b3 0a 00
        E 0 93 56 64
        E 168 83 56 50
        E 72 b3 0a 7f
        E 0 93 56 64
        E 188 83 56 50
        E 52 b3 0a 00
        E 0 93 4a 64
        E 180 83 4a 50
        E 60 b3 0a 7f
        E 0 93 4a 64
        E 174 83 4a 50
        E 66 b3 0a 00
        E 0 93 54 64
        E 168 83 54 50
        E 72 b3 0a 7f
        E 0 93 56 64
        E 188 83 56 50
        E 37972 b0 7b 00
        CCINTERP 32
        CHASE_CC_TAKEOFFS 1
        GUID {6EF90D0E-2463-421C-A21A-5BBF992D437A}
        IGNTEMPO 0 120 4 4
        SRCCOLOR 119
      >
    >
  >
  <TRACK {941C5673-50DD-4D48-BC1A-34004B29EE4E}
    NAME "R-Type - r-type1.mid [chan 5] [chan 5]"
    PEAKCOL 16576
    BEAT -1
    AUTOMODE 0
    VOLPAN 1 0 -1 -1 1
    MUTESOLO 0 0 0
    IPHASE 0
    PLAYOFFS 0 1
    ISBUS 0 0
    BUSCOMP 0 0 0 0 0
    SHOWINMIX 1 0.6667 0.5 1 0.5 -1 -1 -1
    FREEMODE 0
    SEL 0
    REC 0 0 1 0 0 0 0
    VU 2
    TRACKHEIGHT 0 0 0 0 0 0
    INQ 0 0 0 0.5 100 0 0 100
    NCHAN 2
    FX 1
    TRACKID {941C5673-50DD-4D48-BC1A-34004B29EE4E}
    PERF 0
    MIDIOUT -1
    MAINSEND 1 0
    <FXCHAIN
      WNDRECT 23 51 737 624
      SHOW 0
      LASTSEL 0
      DOCKED 0
      BYPASS 0 0 0
      <VST "VSTi: ReaSynth (Cockos)" reasynth.dll 0 "" 1919251321<5653547265737972656173796E746800> ""
        eXNlcu9e7f4AAAAAAgAAAAEAAAAAAAAAAgAAAAAAAABEAAAAAAAAAAAAEAA=
        776t3g3wrd4AAAAAF7fROtNNIj+DwEo+2/leP85NAD8r+jQ8AAAAAAAAAD8MIJk+nu/nPgAAAD8AAAAAAAAAAAAAAAA=
        AAAQAAAA
      >
      FLOATPOS 0 0 0 0
      FXID {C72254D4-1DAA-4C7C-9DFE-71B8B8FBF782}
      WAK 0 0
    >
    <ITEM
      POSITION 35.59999999999047
      SNAPOFFS 0
      LENGTH 143.19999999999087
      LOOP 1
      ALLTAKES 0
      FADEIN 1 0 0 1 0 0 0
      FADEOUT 1 0 0 1 0 0 0
      MUTE 0 0
      SEL 0
      IGUID {B74C20A8-A4CD-48B1-9195-72BDC40B1745}
      IID 31
      NAME "R-Type - r-type1.mid [chan 5]"
      VOLPAN 1 0 1 -1
      SOFFS 0 0
      PLAYRATE 1 1 0 -1 0 0.0025
      CHANMODE 0
      GUID {29F3B254-EB1E-4002-B3BF-94EF379BBAD0}
      <SOURCE MIDI
        HASDATA 1 960 QN
        CCINTERP 32
        POOLEDEVTS {07E14E0F-1189-4040-AAEA-7DEEEE9AA911}
        E 0 c4 24 00
        E 0 b4 07 7f
        E 0 b4 0a 52
        E 0 b4 5b 1d
        E 0 b4 5d 00
        E 0 b4 64 00
        E 0 b4 65 00
        E 0 b4 06 20
        E 0 94 28 64
        E 3840 84 28 50
        E 0 94 1a 64
        E 120 84 1a 50
        E 0 94 1d 64
        E 120 84 1d 50
        E 0 94 21 64
        E 120 84 21 50
        E 0 94 26 64
        E 120 84 26 50
        E 0 94 1d 64
        E 120 84 1d 50
        E 0 94 21 64
        E 120 84 21 50
        E 0 94 26 64
        E 120 84 26 50
        E 0 94 29 64
        E 120 84 29 50
        E 0 94 21 64
        E 120 84 21 50
        E 0 94 26 64
        E 120 84 26 50
        E 0 94 29 64
        E 120 84 29 50
        E 0 94 2d 64
        E 120 84 2d 50
        E 0 94 26 64
        E 120 84 26 50
        E 0 94 29 64
        E 120 84 29 50
        E 0 94 2d 64
        E 120 84 2d 50
        E 0 94 32 64
        E 120 84 32 50
        E 0 94 29 64
        E 120 84 29 50
        E 0 94 2d 64
        E 120 84 2d 50
        E 0 94 32 64
        E 120 84 32 50
        E 0 94 35 64
        E 120 84 35 50
        E 0 94 2d 64
        E 120 84 2d 50
        E 0 94 32 64
        E 120 84 32 50
        E 0 94 35 64
        E 120 84 35 50
        E 0 94 39 64
        E 120 84 39 50
        E 0 94 32 64
        E 120 84 32 50
        E 0 94 35 64
        E 120 84 35 50
        E 0 94 39 64
        E 120 84 39 50
        E 0 94 3e 64
        E 120 84 3e 50
        E 0 94 35 64
        E 120 84 35 50
        E 0 94 39 64
        E 120 84 39 50
        E 0 94 3e 64
        E 120 84 3e 50
        E 0 94 41 64
        E 120 84 41 50
        E 0 94 45 64
        E 634 84 45 50
        E 19 94 1a 64
        E 204 84 1a 50
        E 0 94 1a 64
        E 204 84 1a 50
        E 0 94 26 64
        E 204 84 26 50
        E 0 94 1a 64
        E 204 84 1a 50
        E 0 94 1a 64
        E 211 84 1a 50
        E 0 94 1d 64
        E 240 84 1d 50
        E 0 94 29 64
        E 240 84 29 50
        E 0 94 1d 64
        E 240 84 1d 50
        E 0 94 1d 64
        E 240 84 1d 50
        E 0 94 1d 64
        E 240 84 1d 50
        E 0 94 29 64
        E 240 84 29 50
        E 0 94 1d 64
        E 240 84 1d 50
        E 0 94 1f 64
        E 240 84 1f 50
        E 0 94 1f 64
        E 240 84 1f 50
        E 0 94 2b 64
        E 240 84 2b 50
        E 0 94 1f 64
        E 240 84 1f 50
        E 0 94 1f 64
        E 240 84 1f 50
        E 0 94 1f 64
        E 240 84 1f 50
        E 0 94 2b 64
        E 240 84 2b 50
        E 0 94 1f 64
        E 240 84 1f 50
        E 0 94 1f 64
        E 240 84 1f 50
        E 0 94 1f 64
        E 240 84 1f 50
        E 0 94 2b 64
        E 240 84 2b 50
        E 0 94 1f 64
        E 240 84 1f 50
        E 0 94 1f 64
        E 240 84 1f 50
        E 0 94 1f 64
        E 240 84 1f 50
        E 0 94 2b 64
        E 240 84 2b 50
        E 0 94 1f 64
        E 240 84 1f 50
        E 0 94 1f 64
        E 240 84 1f 50
        E 0 94 1f 64
        E 240 84 1f 50
        E 0 94 2b 64
        E 240 84 2b 50
        E 0 94 1f 64
        E 240 84 1f 50
        E 0 94 1a 64
        E 240 84 1a 50
        E 0 94 1a 64
        E 240 84 1a 50
        E 0 94 26 64
        E 240 84 26 50
        E 0 94 1a 64
        E 240 84 1a 50
        E 0 94 1a 64
        E 240 84 1a 50
        E 0 94 1d 64
        E 240 84 1d 50
        E 0 94 29 64
        E 240 84 29 50
        E 0 94 1d 64
        E 240 84 1d 50
        E 0 94 1d 64
        E 240 84 1d 50
        E 0 94 1d 64
        E 240 84 1d 50
        E 0 94 29 64
        E 240 84 29 50
        E 0 94 1d 64
        E 240 84 1d 50
        E 0 94 1f 64
        E 240 84 1f 50
        E 0 94 1f 64
        E 240 84 1f 50
        E 0 94 2b 64
        E 240 84 2b 50
        E 0 94 1f 64
        E 240 84 1f 50
        E 0 94 1f 64
        E 240 84 1f 50
        E 0 94 1f 64
        E 240 84 1f 50
        E 0 94 2b 64
        E 240 84 2b 50
        E 0 94 1f 64
        E 240 84 1f 50
        E 0 94 1f 64
        E 240 84 1f 50
        E 0 94 1f 64
        E 240 84 1f 50
        E 0 94 2b 64
        E 240 84 2b 50
        E 0 94 1f 64
        E 240 84 1f 50
        E 0 94 1f 64
        E 240 84 1f 50
        E 0 94 1f 64
        E 240 84 1f 50
        E 0 94 2b 64
        E 240 84 2b 50
        E 0 94 1f 64
        E 240 84 1f 50
        E 0 94 1f 64
        E 240 84 1f 50
        E 0 94 1f 64
        E 240 84 1f 50
        E 0 94 2b 64
        E 240 84 2b 50
        E 0 94 1f 64
        E 240 84 1f 50
        E 0 94 1a 64
        E 240 84 1a 50
        E 0 94 1a 64
        E 240 84 1a 50
        E 0 94 26 64
        E 240 84 26 50
        E 0 94 1a 64
        E 240 84 1a 50
        E 0 94 1a 64
        E 240 84 1a 50
        E 0 94 1d 64
        E 240 84 1d 50
        E 0 94 29 64
        E 240 84 29 50
        E 0 94 1d 64
        E 240 84 1d 50
        E 0 94 1d 64
        E 240 84 1d 50
        E 0 94 1d 64
        E 240 84 1d 50
        E 0 94 29 64
        E 240 84 29 50
        E 0 94 1d 64
        E 240 84 1d 50
        E 0 94 1f 64
        E 240 84 1f 50
        E 0 94 1f 64
        E 240 84 1f 50
        E 0 94 2b 64
        E 240 84 2b 50
        E 0 94 1f 64
        E 240 84 1f 50
        E 0 94 1f 64
        E 240 84 1f 50
        E 0 94 1f 64
        E 240 84 1f 50
        E 0 94 2b 64
        E 240 84 2b 50
        E 0 94 1f 64
        E 240 84 1f 50
        E 0 94 1f 64
        E 240 84 1f 50
        E 0 94 1f 64
        E 240 84 1f 50
        E 0 94 2b 64
        E 240 84 2b 50
        E 0 94 1f 64
        E 240 84 1f 50
        E 0 94 1f 64
        E 240 84 1f 50
        E 0 94 1f 64
        E 240 84 1f 50
        E 0 94 2b 64
        E 240 84 2b 50
        E 0 94 1f 64
        E 240 84 1f 50
        E 0 94 1f 64
        E 240 84 1f 50
        E 0 94 1f 64
        E 240 84 1f 50
        E 0 94 2b 64
        E 240 84 2b 50
        E 0 94 1f 64
        E 240 84 1f 50
        E 0 94 1a 64
        E 240 84 1a 50
        E 0 94 1a 64
        E 240 84 1a 50
        E 0 94 26 64
        E 240 84 26 50
        E 0 94 1a 64
        E 240 84 1a 50
        E 0 94 1a 64
        E 240 84 1a 50
        E 0 94 1d 64
        E 240 84 1d 50
        E 0 94 29 64
        E 240 84 29 50
        E 0 94 1d 64
        E 240 84 1d 50
        E 0 94 1d 64
        E 240 84 1d 50
        E 0 94 1d 64
        E 240 84 1d 50
        E 0 94 29 64
        E 240 84 29 50
        E 0 94 1d 64
        E 240 84 1d 50
        E 0 94 1f 64
        E 240 84 1f 50
        E 0 94 1f 64
        E 240 84 1f 50
        E 0 94 2b 64
        E 240 84 2b 50
        E 0 94 1f 64
        E 240 84 1f 50
        E 0 94 1f 64
        E 240 84 1f 50
        E 0 94 1f 64
        E 240 84 1f 50
        E 0 94 2b 64
        E 240 84 2b 50
        E 0 94 1f 64
        E 240 84 1f 50
        E 0 94 1f 64
        E 240 84 1f 50
        E 0 94 1f 64
        E 240 84 1f 50
        E 0 94 2b 64
        E 240 84 2b 50
        E 0 94 1f 64
        E 240 84 1f 50
        E 0 94 1f 64
        E 240 84 1f 50
        E 0 94 1f 64
        E 240 84 1f 50
        E 0 94 2b 64
        E 240 84 2b 50
        E 0 94 1f 64
        E 240 84 1f 50
        E 0 94 1f 64
        E 240 84 1f 50
        E 0 94 1f 64
        E 240 84 1f 50
        E 0 94 2b 64
        E 240 84 2b 50
        E 0 94 1f 64
        E 240 84 1f 50
        E 0 94 1d 64
        E 240 84 1d 50
        E 0 94 1d 64
        E 240 84 1d 50
        E 0 94 29 64
        E 240 84 29 50
        E 0 94 1d 64
        E 240 84 1d 50
        E 0 94 1d 64
        E 240 84 1d 50
        E 0 94 1d 64
        E 240 84 1d 50
        E 0 94 29 64
        E 240 84 29 50
        E 0 94 1d 64
        E 240 84 1d 50
        E 0 94 1d 64
        E 240 84 1d 50
        E 0 94 1d 64
        E 240 84 1d 50
        E 0 94 29 64
        E 240 84 29 50
        E 0 94 1d 64
        E 240 84 1d 50
        E 0 94 1d 64
        E 240 84 1d 50
        E 0 94 1d 64
        E 240 84 1d 50
        E 0 94 29 64
        E 240 84 29 50
        E 0 94 1d 64
        E 240 84 1d 50
        E 0 94 1d 64
        E 240 84 1d 50
        E 0 94 1d 64
        E 240 84 1d 50
        E 0 94 29 64
        E 240 84 29 50
        E 0 94 1d 64
        E 240 84 1d 50
        E 0 94 1d 64
        E 240 84 1d 50
        E 0 94 1d 64
        E 240 84 1d 50
        E 0 94 29 64
        E 240 84 29 50
        E 0 94 1d 64
        E 240 84 1d 50
        E 0 94 1d 64
        E 240 84 1d 50
        E 0 94 1d 64
        E 240 84 1d 50
        E 0 94 29 64
        E 240 84 29 50
        E 0 94 1d 64
        E 240 84 1d 50
        E 0 94 1d 64
        E 240 84 1d 50
        E 0 94 1d 64
        E 240 84 1d 50
        E 0 94 29 64
        E 240 84 29 50
        E 0 94 1d 64
        E 240 84 1d 50
        E 0 94 1f 64
        E 240 84 1f 50
        E 0 94 1f 64
        E 240 84 1f 50
        E 0 94 2b 64
        E 240 84 2b 50
        E 0 94 1f 64
        E 240 84 1f 50
        E 0 94 1f 64
        E 240 84 1f 50
        E 0 94 1f 64
        E 240 84 1f 50
        E 0 94 2b 64
        E 240 84 2b 50
        E 0 94 1f 64
        E 240 84 1f 50
        E 0 94 1f 64
        E 240 84 1f 50
        E 0 94 1f 64
        E 240 84 1f 50
        E 0 94 2b 64
        E 240 84 2b 50
        E 0 94 1f 64
        E 240 84 1f 50
        E 0 94 1f 64
        E 240 84 1f 50
        E 0 94 1f 64
        E 240 84 1f 50
        E 0 94 2b 64
        E 240 84 2b 50
        E 0 94 1f 64
        E 240 84 1f 50
        E 0 94 1f 64
        E 240 84 1f 50
        E 0 94 1f 64
        E 240 84 1f 50
        E 0 94 2b 64
        E 240 84 2b 50
        E 0 94 1f 64
        E 240 84 1f 50
        E 0 94 1f 64
        E 240 84 1f 50
        E 0 94 1f 64
        E 240 84 1f 50
        E 0 94 2b 64
        E 240 84 2b 50
        E 0 94 1f 64
        E 240 84 1f 50
        E 0 94 1f 64
        E 240 84 1f 50
        E 0 94 1f 64
        E 240 84 1f 50
        E 0 94 2b 64
        E 240 84 2b 50
        E 0 94 1f 64
        E 240 84 1f 50
        E 0 94 1f 64
        E 240 84 1f 50
        E 0 94 1f 64
        E 240 84 1f 50
        E 0 94 2b 64
        E 240 84 2b 50
        E 0 94 1f 64
        E 240 84 1f 50
        E 0 94 1d 64
        E 240 84 1d 50
        E 0 94 1d 64
        E 240 84 1d 50
        E 0 94 29 64
        E 240 84 29 50
        E 0 94 1d 64
        E 240 84 1d 50
        E 0 94 1d 64
        E 240 84 1d 50
        E 0 94 1d 64
        E 240 84 1d 50
        E 0 94 29 64
        E 240 84 29 50
        E 0 94 1d 64
        E 240 84 1d 50
        E 0 94 1d 64
        E 240 84 1d 50
        E 0 94 1d 64
        E 240 84 1d 50
        E 0 94 29 64
        E 240 84 29 50
        E 0 94 1d 64
        E 240 84 1d 50
        E 0 94 1d 64
        E 240 84 1d 50
        E 0 94 1d 64
        E 240 84 1d 50
        E 0 94 29 64
        E 240 84 29 50
        E 0 94 1d 64
        E 240 84 1d 50
        E 0 94 1d 64
        E 240 84 1d 50
        E 0 94 1d 64
        E 240 84 1d 50
        E 0 94 29 64
        E 240 84 29 50
        E 0 94 1d 64
        E 240 84 1d 50
        E 0 94 1d 64
        E 240 84 1d 50
        E 0 94 1d 64
        E 240 84 1d 50
        E 0 94 29 64
        E 240 84 29 50
        E 0 94 1d 64
        E 240 84 1d 50
        E 0 94 1d 64
        E 240 84 1d 50
        E 0 94 1d 64
        E 240 84 1d 50
        E 0 94 29 64
        E 240 84 29 50
        E 0 94 1d 64
        E 240 84 1d 50
        E 0 94 1d 64
        E 240 84 1d 50
        E 0 94 1d 64
        E 240 84 1d 50
        E 0 94 29 64
        E 240 84 29 50
        E 0 94 1d 64
        E 240 84 1d 50
        E 0 94 1f 64
        E 240 84 1f 50
        E 0 94 1f 64
        E 240 84 1f 50
        E 0 94 2b 64
        E 240 84 2b 50
        E 0 94 1f 64
        E 240 84 1f 50
        E 0 94 1f 64
        E 240 84 1f 50
        E 0 94 1f 64
        E 240 84 1f 50
        E 0 94 2b 64
        E 240 84 2b 50
        E 0 94 1f 64
        E 240 84 1f 50
        E 0 94 1f 64
        E 240 84 1f 50
        E 0 94 1f 64
        E 240 84 1f 50
        E 0 94 2b 64
        E 240 84 2b 50
        E 0 94 1f 64
        E 240 84 1f 50
        E 0 94 1f 64
        E 240 84 1f 50
        E 0 94 1f 64
        E 240 84 1f 50
        E 0 94 2b 64
        E 240 84 2b 50
        E 0 94 1f 64
        E 240 84 1f 50
        E 0 94 1f 64
        E 240 84 1f 50
        E 0 94 1f 64
        E 240 84 1f 50
        E 0 94 1f 64
        E 240 84 1f 50
        E 240 94 1f 64
        E 240 84 1f 50
        E 240 94 1f 64
        E 240 84 1f 50
        E 0 94 1f 64
        E 240 84 1f 50
        E 968 94 1f 64
        E 240 84 1f 50
        E 0 94 24 64
        E 240 84 24 50
        E 0 94 26 64
        E 240 84 26 50
        E 0 94 29 64
        E 232 94 21 64
        E 8 84 29 50
        E 458 84 21 50
        E 14 94 2d 64
        E 240 84 2d 50
        E 0 94 2d 64
        E 240 84 2d 50
        E 0 94 21 64
        E 466 84 21 50
        E 14 94 2d 64
        E 240 84 2d 50
        E 0 94 2d 64
        E 240 84 2d 50
        E 0 94 21 64
        E 466 84 21 50
        E 14 94 2d 64
        E 240 84 2d 50
        E 0 94 2d 64
        E 240 84 2d 50
        E 0 94 21 64
        E 466 84 21 50
        E 14 94 2b 64
        E 240 84 2b 50
        E 0 94 2d 64
        E 240 84 2d 50
        E 0 94 21 64
        E 466 84 21 50
        E 14 94 2d 64
        E 240 84 2d 50
        E 0 94 2d 64
        E 240 84 2d 50
        E 0 94 21 64
        E 466 84 21 50
        E 14 94 2d 64
        E 240 84 2d 50
        E 0 94 2d 64
        E 240 84 2d 50
        E 0 94 21 64
        E 466 84 21 50
        E 14 94 2d 64
        E 240 84 2d 50
        E 0 94 2d 64
        E 240 84 2d 50
        E 0 94 21 64
        E 466 84 21 50
        E 14 94 2b 64
        E 240 84 2b 50
        E 0 94 2d 64
        E 240 84 2d 50
        E 0 94 1f 64
        E 466 84 1f 50
        E 14 94 2b 64
        E 240 84 2b 50
        E 0 94 2b 64
        E 240 84 2b 50
        E 0 94 1f 64
        E 466 84 1f 50
        E 14 94 2b 64
        E 240 84 2b 50
        E 0 94 2b 64
        E 240 84 2b 50
        E 0 94 1f 64
        E 466 84 1f 50
        E 14 94 2b 64
        E 240 84 2b 50
        E 0 94 2b 64
        E 240 84 2b 50
        E 0 94 1f 64
        E 466 84 1f 50
        E 14 94 2a 64
        E 240 84 2a 50
        E 0 94 2b 64
        E 240 84 2b 50
        E 0 94 1f 64
        E 466 84 1f 50
        E 14 94 2b 64
        E 240 84 2b 50
        E 0 94 2b 64
        E 240 84 2b 50
        E 0 94 1f 64
        E 466 84 1f 50
        E 14 94 2b 64
        E 240 84 2b 50
        E 0 94 2b 64
        E 240 84 2b 50
        E 0 94 1f 64
        E 466 84 1f 50
        E 14 94 2b 64
        E 240 84 2b 50
        E 0 94 2b 64
        E 240 84 2b 50
        E 0 94 1f 64
        E 466 84 1f 50
        E 14 94 2a 64
        E 240 84 2a 50
        E 0 94 2b 64
        E 240 84 2b 50
        E 0 94 21 64
        E 466 84 21 50
        E 14 94 2d 64
        E 240 84 2d 50
        E 0 94 2d 64
        E 240 84 2d 50
        E 0 94 21 64
        E 466 84 21 50
        E 14 94 2d 64
        E 240 84 2d 50
        E 0 94 2d 64
        E 240 84 2d 50
        E 0 94 21 64
        E 466 84 21 50
        E 14 94 2d 64
        E 240 84 2d 50
        E 0 94 2d 64
        E 240 84 2d 50
        E 0 94 21 64
        E 466 84 21 50
        E 14 94 2b 64
        E 240 84 2b 50
        E 0 94 2d 64
        E 240 84 2d 50
        E 0 94 21 64
        E 466 84 21 50
        E 14 94 2d 64
        E 240 84 2d 50
        E 0 94 2d 64
        E 240 84 2d 50
        E 0 94 21 64
        E 466 84 21 50
        E 14 94 2d 64
        E 240 84 2d 50
        E 0 94 2d 64
        E 240 84 2d 50
        E 0 94 21 64
        E 466 84 21 50
        E 14 94 2d 64
        E 240 84 2d 50
        E 0 94 2d 64
        E 240 84 2d 50
        E 0 94 21 64
        E 466 84 21 50
        E 14 94 2b 64
        E 240 84 2b 50
        E 0 94 2d 64
        E 240 84 2d 50
        E 0 94 1d 64
        E 466 84 1d 50
        E 14 94 29 64
        E 240 84 29 50
        E 0 94 29 64
        E 240 84 29 50
        E 0 94 1d 64
        E 466 84 1d 50
        E 14 94 29 64
        E 240 84 29 50
        E 0 94 29 64
        E 240 84 29 50
        E 0 94 1d 64
        E 466 84 1d 50
        E 14 94 29 64
        E 240 84 29 50
        E 0 94 29 64
        E 240 84 29 50
        E 0 94 1d 64
        E 466 84 1d 50
        E 14 94 29 64
        E 240 84 29 50
        E 0 94 29 64
        E 240 84 29 50
        E 0 94 1f 64
        E 466 84 1f 50
        E 14 94 2b 64
        E 240 84 2b 50
        E 0 94 2b 64
        E 240 84 2b 50
        E 0 94 1f 64
        E 466 84 1f 50
        E 14 94 2b 64
        E 240 84 2b 50
        E 0 94 2b 64
        E 240 84 2b 50
        E 0 94 1f 64
        E 466 84 1f 50
        E 14 94 2b 64
        E 240 84 2b 50
        E 0 94 2b 64
        E 240 84 2b 50
        E 0 94 1f 64
        E 466 84 1f 50
        E 14 94 2b 64
        E 240 84 2b 50
        E 0 94 2b 64
        E 240 84 2b 50
        E 0 94 21 64
        E 466 84 21 50
        E 14 94 2d 64
        E 240 84 2d 50
        E 0 94 2d 64
        E 240 84 2d 50
        E 0 94 21 64
        E 466 84 21 50
        E 14 94 2d 64
        E 240 84 2d 50
        E 0 94 2d 64
        E 240 84 2d 50
        E 0 94 21 64
        E 466 84 21 50
        E 14 94 2d 64
        E 240 84 2d 50
        E 0 94 2d 64
        E 240 84 2d 50
        E 0 94 21 64
        E 466 84 21 50
        E 14 94 2d 64
        E 240 84 2d 50
        E 0 94 2d 64
        E 240 84 2d 50
        E 0 94 21 64
        E 466 84 21 50
        E 14 94 2d 64
        E 240 84 2d 50
        E 0 94 2d 64
        E 240 84 2d 50
        E 0 94 21 64
        E 466 84 21 50
        E 14 94 2d 64
        E 240 84 2d 50
        E 0 94 2d 64
        E 240 84 2d 50
        E 0 94 21 64
        E 466 84 21 50
        E 14 94 2d 64
        E 240 84 2d 50
        E 0 94 2d 64
        E 240 84 2d 50
        E 0 94 21 64
        E 466 84 21 50
        E 14 94 2d 64
        E 240 84 2d 50
        E 0 94 2d 64
        E 240 84 2d 50
        E 0 94 21 64
        E 466 84 21 50
        E 14 94 2d 64
        E 240 84 2d 50
        E 0 94 2d 64
        E 240 84 2d 50
        E 0 94 21 64
        E 466 84 21 50
        E 14 94 2d 64
        E 240 84 2d 50
        E 0 94 2d 64
        E 240 84 2d 50
        E 0 94 21 64
        E 466 84 21 50
        E 14 94 2d 64
        E 240 84 2d 50
        E 0 94 2d 64
        E 240 84 2d 50
        E 0 94 21 64
        E 466 84 21 50
        E 14 94 2b 64
        E 240 84 2b 50
        E 0 94 2d 64
        E 240 84 2d 50
        E 0 94 1f 64
        E 466 84 1f 50
        E 14 94 2b 64
        E 240 84 2b 50
        E 0 94 2b 64
        E 240 84 2b 50
        E 0 94 1f 64
        E 466 84 1f 50
        E 14 94 2b 64
        E 240 84 2b 50
        E 0 94 2b 64
        E 240 84 2b 50
        E 0 94 1f 64
        E 466 84 1f 50
        E 14 94 2b 64
        E 240 84 2b 50
        E 0 94 2b 64
        E 240 84 2b 50
        E 0 94 1f 64
        E 466 84 1f 50
        E 14 94 2a 64
        E 240 84 2a 50
        E 0 94 2b 64
        E 240 84 2b 50
        E 0 94 1d 64
        E 466 84 1d 50
        E 14 94 29 64
        E 240 84 29 50
        E 0 94 29 64
        E 240 84 29 50
        E 0 94 1d 64
        E 466 84 1d 50
        E 14 94 29 64
        E 240 84 29 50
        E 0 94 29 64
        E 240 84 29 50
        E 0 94 1d 64
        E 466 84 1d 50
        E 14 94 29 64
        E 240 84 29 50
        E 0 94 29 64
        E 240 84 29 50
        E 0 94 1d 64
        E 466 84 1d 50
        E 14 94 28 64
        E 240 84 28 50
        E 0 94 29 64
        E 240 84 29 50
        E 0 94 1c 64
        E 466 84 1c 50
        E 14 94 28 64
        E 240 84 28 50
        E 0 94 28 64
        E 240 84 28 50
        E 0 94 1c 64
        E 466 84 1c 50
        E 14 94 28 64
        E 240 84 28 50
        E 0 94 28 64
        E 240 84 28 50
        E 0 94 1c 64
        E 466 84 1c 50
        E 14 94 28 64
        E 240 84 28 50
        E 0 94 28 64
        E 240 84 28 50
        E 0 94 1c 64
        E 466 84 1c 50
        E 14 94 28 64
        E 240 84 28 50
        E 0 94 28 64
        E 240 84 28 50
        E 0 94 1d 64
        E 466 84 1d 50
        E 14 94 29 64
        E 240 84 29 50
        E 0 94 29 64
        E 240 84 29 50
        E 0 94 1d 64
        E 466 84 1d 50
        E 14 94 29 64
        E 240 84 29 50
        E 0 94 29 64
        E 240 84 29 50
        E 0 94 1d 64
        E 466 84 1d 50
        E 14 94 29 64
        E 240 84 29 50
        E 0 94 29 64
        E 240 84 29 50
        E 0 94 1d 64
        E 466 84 1d 50
        E 14 94 29 64
        E 240 84 29 50
        E 0 94 29 64
        E 240 84 29 50
        E 0 94 1d 64
        E 466 84 1d 50
        E 14 94 29 64
        E 240 84 29 50
        E 0 94 29 64
        E 240 84 29 50
        E 0 94 1d 64
        E 466 84 1d 50
        E 14 94 29 64
        E 240 84 29 50
        E 0 94 29 64
        E 240 84 29 50
        E 0 94 1d 64
        E 466 84 1d 50
        E 14 94 29 64
        E 240 84 29 50
        E 0 94 29 64
        E 240 84 29 50
        E 0 94 1d 64
        E 466 84 1d 50
        E 14 94 29 64
        E 240 84 29 50
        E 0 94 29 64
        E 240 84 29 50
        E 0 94 1a 64
        E 466 84 1a 50
        E 14 94 26 64
        E 240 84 26 50
        E 0 94 26 64
        E 240 84 26 50
        E 0 94 1a 64
        E 466 84 1a 50
        E 14 94 26 64
        E 240 84 26 50
        E 0 94 26 64
        E 240 84 26 50
        E 0 94 1a 64
        E 466 84 1a 50
        E 14 94 26 64
        E 240 84 26 50
        E 0 94 26 64
        E 240 84 26 50
        E 0 94 1a 64
        E 466 84 1a 50
        E 14 94 26 64
        E 240 84 26 50
        E 0 94 26 64
        E 240 84 26 50
        E 0 94 28 64
        E 240 84 28 50
        E 0 94 34 64
        E 480 84 34 50
        E 0 94 28 64
        E 240 94 34 64
        E 20 84 28 50
        E 460 84 34 50
        E 0 94 28 64
        E 240 84 28 50
        E 0 94 34 64
        E 480 84 34 50
        E 0 94 28 64
        E 240 84 28 50
        E 0 94 34 64
        E 480 84 34 50
        E 0 94 28 64
        E 960 84 28 50
        E 0 94 21 64
        E 466 84 21 50
        E 14 94 2d 64
        E 240 84 2d 50
        E 0 94 2d 64
        E 240 84 2d 50
        E 0 94 21 64
        E 466 84 21 50
        E 14 94 2d 64
        E 240 84 2d 50
        E 0 94 2d 64
        E 240 84 2d 50
        E 0 94 21 64
        E 466 84 21 50
        E 14 94 2d 64
        E 240 84 2d 50
        E 0 94 2d 64
        E 240 84 2d 50
        E 0 94 21 64
        E 466 84 21 50
        E 14 94 2b 64
        E 240 84 2b 50
        E 0 94 2d 64
        E 240 84 2d 50
        E 0 94 21 64
        E 466 84 21 50
        E 14 94 2d 64
        E 240 84 2d 50
        E 0 94 2d 64
        E 240 84 2d 50
        E 0 94 21 64
        E 466 84 21 50
        E 14 94 2d 64
        E 240 84 2d 50
        E 0 94 2d 64
        E 240 84 2d 50
        E 0 94 21 64
        E 466 84 21 50
        E 14 94 2d 64
        E 240 84 2d 50
        E 0 94 2d 64
        E 240 84 2d 50
        E 0 94 21 64
        E 466 84 21 50
        E 14 94 2b 64
        E 240 84 2b 50
        E 0 94 2d 64
        E 240 84 2d 50
        E 0 94 1f 64
        E 466 84 1f 50
        E 14 94 2b 64
        E 240 84 2b 50
        E 0 94 2b 64
        E 240 84 2b 50
        E 0 94 1f 64
        E 466 84 1f 50
        E 14 94 2b 64
        E 240 84 2b 50
        E 0 94 2b 64
        E 240 84 2b 50
        E 0 94 1f 64
        E 466 84 1f 50
        E 14 94 2b 64
        E 240 84 2b 50
        E 0 94 2b 64
        E 240 84 2b 50
        E 0 94 1f 64
        E 466 84 1f 50
        E 14 94 2a 64
        E 240 84 2a 50
        E 0 94 2b 64
        E 240 84 2b 50
        E 0 94 1f 64
        E 466 84 1f 50
        E 14 94 2b 64
        E 240 84 2b 50
        E 0 94 2b 64
        E 240 84 2b 50
        E 0 94 1f 64
        E 466 84 1f 50
        E 14 94 2b 64
        E 240 84 2b 50
        E 0 94 2b 64
        E 240 84 2b 50
        E 0 94 1f 64
        E 466 84 1f 50
        E 14 94 2b 64
        E 240 84 2b 50
        E 0 94 2b 64
        E 240 84 2b 50
        E 0 94 1f 64
        E 466 84 1f 50
        E 14 94 2a 64
        E 240 84 2a 50
        E 0 94 2b 64
        E 240 84 2b 50
        E 0 94 21 64
        E 466 84 21 50
        E 14 94 2d 64
        E 240 84 2d 50
        E 0 94 2d 64
        E 240 84 2d 50
        E 0 94 21 64
        E 466 84 21 50
        E 14 94 2d 64
        E 240 84 2d 50
        E 0 94 2d 64
        E 240 84 2d 50
        E 0 94 21 64
        E 466 84 21 50
        E 14 94 2d 64
        E 240 84 2d 50
        E 0 94 2d 64
        E 240 84 2d 50
        E 0 94 21 64
        E 466 84 21 50
        E 14 94 2b 64
        E 240 84 2b 50
        E 0 94 2d 64
        E 240 84 2d 50
        E 0 94 21 64
        E 466 84 21 50
        E 14 94 2d 64
        E 240 84 2d 50
        E 0 94 2d 64
        E 240 84 2d 50
        E 0 94 21 64
        E 466 84 21 50
        E 14 94 2d 64
        E 240 84 2d 50
        E 0 94 2d 64
        E 240 84 2d 50
        E 0 94 21 64
        E 466 84 21 50
        E 14 94 2d 64
        E 240 84 2d 50
        E 0 94 2d 64
        E 240 84 2d 50
        E 0 94 21 64
        E 466 84 21 50
        E 14 94 2b 64
        E 240 84 2b 50
        E 0 94 2d 64
        E 240 84 2d 50
        E 0 94 1d 64
        E 466 84 1d 50
        E 14 94 29 64
        E 240 84 29 50
        E 0 94 29 64
        E 240 84 29 50
        E 0 94 1d 64
        E 466 84 1d 50
        E 14 94 29 64
        E 240 84 29 50
        E 0 94 29 64
        E 240 84 29 50
        E 0 94 1d 64
        E 466 84 1d 50
        E 14 94 29 64
        E 240 84 29 50
        E 0 94 29 64
        E 240 84 29 50
        E 0 94 1d 64
        E 466 84 1d 50
        E 14 94 29 64
        E 240 84 29 50
        E 0 94 29 64
        E 240 84 29 50
        E 0 94 1f 64
        E 466 84 1f 50
        E 14 94 2b 64
        E 240 84 2b 50
        E 0 94 2b 64
        E 240 84 2b 50
        E 0 94 1f 64
        E 466 84 1f 50
        E 14 94 2b 64
        E 240 84 2b 50
        E 0 94 2b 64
        E 240 84 2b 50
        E 0 94 1f 64
        E 466 84 1f 50
        E 14 94 2b 64
        E 240 84 2b 50
        E 0 94 2b 64
        E 240 84 2b 50
        E 0 94 1f 64
        E 466 84 1f 50
        E 14 94 2b 64
        E 240 84 2b 50
        E 0 94 2b 64
        E 240 84 2b 50
        E 0 94 21 64
        E 466 84 21 50
        E 14 94 2d 64
        E 240 84 2d 50
        E 0 94 2d 64
        E 240 84 2d 50
        E 0 94 21 64
        E 466 84 21 50
        E 14 94 2d 64
        E 240 84 2d 50
        E 0 94 2d 64
        E 240 84 2d 50
        E 0 94 21 64
        E 466 84 21 50
        E 14 94 2d 64
        E 240 84 2d 50
        E 0 94 2d 64
        E 240 84 2d 50
        E 0 94 21 64
        E 466 84 21 50
        E 14 94 2d 64
        E 240 84 2d 50
        E 0 94 2d 64
        E 240 84 2d 50
        E 0 94 21 64
        E 466 84 21 50
        E 14 94 2d 64
        E 240 84 2d 50
        E 0 94 2d 64
        E 240 84 2d 50
        E 0 94 21 64
        E 466 84 21 50
        E 14 94 2d 64
        E 240 84 2d 50
        E 0 94 2d 64
        E 240 84 2d 50
        E 0 94 21 64
        E 466 84 21 50
        E 14 94 2d 64
        E 240 84 2d 50
        E 0 94 2d 64
        E 240 84 2d 50
        E 0 94 21 64
        E 466 84 21 50
        E 14 94 2d 64
        E 240 84 2d 50
        E 0 94 2d 64
        E 240 84 2d 50
        E 0 94 21 64
        E 466 84 21 50
        E 14 94 2d 64
        E 240 84 2d 50
        E 0 94 2d 64
        E 240 84 2d 50
        E 0 94 21 64
        E 466 84 21 50
        E 14 94 2d 64
        E 240 84 2d 50
        E 0 94 2d 64
        E 240 84 2d 50
        E 0 94 21 64
        E 466 84 21 50
        E 14 94 2d 64
        E 240 84 2d 50
        E 0 94 2d 64
        E 240 84 2d 50
        E 0 94 21 64
        E 466 84 21 50
        E 14 94 2b 64
        E 240 84 2b 50
        E 0 94 2d 64
        E 240 84 2d 50
        E 0 94 1f 64
        E 466 84 1f 50
        E 14 94 2b 64
        E 240 84 2b 50
        E 0 94 2b 64
        E 240 84 2b 50
        E 0 94 1f 64
        E 466 84 1f 50
        E 14 94 2b 64
        E 240 84 2b 50
        E 0 94 2b 64
        E 240 84 2b 50
        E 0 94 1f 64
        E 466 84 1f 50
        E 14 94 2b 64
        E 240 84 2b 50
        E 0 94 2b 64
        E 240 84 2b 50
        E 0 94 1f 64
        E 466 84 1f 50
        E 14 94 2a 64
        E 240 84 2a 50
        E 0 94 2b 64
        E 240 84 2b 50
        E 0 94 1d 64
        E 466 84 1d 50
        E 14 94 29 64
        E 240 84 29 50
        E 0 94 29 64
        E 240 84 29 50
        E 0 94 1d 64
        E 466 84 1d 50
        E 14 94 29 64
        E 240 84 29 50
        E 0 94 29 64
        E 240 84 29 50
        E 0 94 1d 64
        E 466 84 1d 50
        E 14 94 29 64
        E 240 84 29 50
        E 0 94 29 64
        E 240 84 29 50
        E 0 94 1d 64
        E 466 84 1d 50
        E 14 94 28 64
        E 240 84 28 50
        E 0 94 29 64
        E 240 84 29 50
        E 0 94 1c 64
        E 466 84 1c 50
        E 14 94 28 64
        E 240 84 28 50
        E 0 94 28 64
        E 240 84 28 50
        E 0 94 1c 64
        E 466 84 1c 50
        E 14 94 28 64
        E 240 84 28 50
        E 0 94 28 64
        E 240 84 28 50
        E 0 94 1c 64
        E 466 84 1c 50
        E 14 94 28 64
        E 240 84 28 50
        E 0 94 28 64
        E 240 84 28 50
        E 0 94 1c 64
        E 466 84 1c 50
        E 14 94 28 64
        E 240 84 28 50
        E 0 94 28 64
        E 240 84 28 50
        E 0 94 1d 64
        E 466 84 1d 50
        E 14 94 29 64
        E 240 84 29 50
        E 0 94 29 64
        E 240 84 29 50
        E 0 94 1d 64
        E 466 84 1d 50
        E 14 94 29 64
        E 240 84 29 50
        E 0 94 29 64
        E 240 84 29 50
        E 0 94 1d 64
        E 466 84 1d 50
        E 14 94 29 64
        E 240 84 29 50
        E 0 94 29 64
        E 240 84 29 50
        E 0 94 1d 64
        E 466 84 1d 50
        E 14 94 29 64
        E 240 84 29 50
        E 0 94 29 64
        E 240 84 29 50
        E 0 94 1d 64
        E 466 84 1d 50
        E 14 94 29 64
        E 240 84 29 50
        E 0 94 29 64
        E 240 84 29 50
        E 0 94 1d 64
        E 466 84 1d 50
        E 14 94 29 64
        E 240 84 29 50
        E 0 94 29 64
        E 240 84 29 50
        E 0 94 1d 64
        E 466 84 1d 50
        E 14 94 29 64
        E 240 84 29 50
        E 0 94 29 64
        E 240 84 29 50
        E 0 94 1d 64
        E 466 84 1d 50
        E 14 94 29 64
        E 240 84 29 50
        E 0 94 29 64
        E 240 84 29 50
        E 0 94 1a 64
        E 466 84 1a 50
        E 14 94 26 64
        E 240 84 26 50
        E 0 94 26 64
        E 240 84 26 50
        E 0 94 1a 64
        E 466 84 1a 50
        E 14 94 26 64
        E 240 84 26 50
        E 0 94 26 64
        E 240 84 26 50
        E 0 94 1a 64
        E 466 84 1a 50
        E 14 94 26 64
        E 240 84 26 50
        E 0 94 26 64
        E 240 84 26 50
        E 0 94 1a 64
        E 466 84 1a 50
        E 14 94 26 64
        E 240 84 26 50
        E 0 94 26 64
        E 240 84 26 50
        E 0 94 28 64
        E 240 84 28 50
        E 0 94 34 64
        E 480 84 34 50
        E 0 94 28 64
        E 240 94 34 64
        E 20 84 28 50
        E 460 84 34 50
        E 0 94 28 64
        E 240 84 28 50
        E 0 94 34 64
        E 480 84 34 50
        E 0 94 28 64
        E 240 84 28 50
        E 0 94 34 64
        E 480 84 34 50
        E 0 94 28 64
        E 960 84 28 50
        E 0 94 21 64
        E 466 84 21 50
        E 14 94 2d 64
        E 240 84 2d 50
        E 0 94 2d 64
        E 240 84 2d 50
        E 0 94 21 64
        E 466 84 21 50
        E 14 94 2d 64
        E 240 84 2d 50
        E 0 94 2d 64
        E 240 84 2d 50
        E 0 94 21 64
        E 466 84 21 50
        E 14 94 2d 64
        E 240 84 2d 50
        E 0 94 2d 64
        E 240 84 2d 50
        E 0 94 21 64
        E 466 84 21 50
        E 14 94 2b 64
        E 240 84 2b 50
        E 0 94 2d 64
        E 240 84 2d 50
        E 0 94 21 64
        E 466 84 21 50
        E 14 94 2d 64
        E 240 84 2d 50
        E 0 94 2d 64
        E 240 84 2d 50
        E 0 94 21 64
        E 466 84 21 50
        E 14 94 2d 64
        E 240 84 2d 50
        E 0 94 2d 64
        E 240 84 2d 50
        E 0 94 21 64
        E 466 84 21 50
        E 14 94 2d 64
        E 240 84 2d 50
        E 0 94 2d 64
        E 240 84 2d 50
        E 0 94 21 64
        E 466 84 21 50
        E 14 94 2b 64
        E 240 84 2b 50
        E 0 94 2d 64
        E 240 84 2d 50
        E 0 94 1f 64
        E 466 84 1f 50
        E 14 94 2b 64
        E 240 84 2b 50
        E 0 94 2b 64
        E 240 84 2b 50
        E 0 94 1f 64
        E 466 84 1f 50
        E 14 94 2b 64
        E 240 84 2b 50
        E 0 94 2b 64
        E 240 84 2b 50
        E 0 94 1f 64
        E 466 84 1f 50
        E 14 94 2b 64
        E 240 84 2b 50
        E 0 94 2b 64
        E 240 84 2b 50
        E 0 94 1f 64
        E 466 84 1f 50
        E 14 94 2a 64
        E 240 84 2a 50
        E 0 94 2b 64
        E 240 84 2b 50
        E 0 94 1f 64
        E 466 84 1f 50
        E 14 94 2b 64
        E 240 84 2b 50
        E 0 94 2b 64
        E 240 84 2b 50
        E 0 94 1f 64
        E 466 84 1f 50
        E 14 94 2b 64
        E 240 84 2b 50
        E 0 94 2b 64
        E 240 84 2b 50
        E 0 94 1f 64
        E 466 84 1f 50
        E 14 94 2b 64
        E 240 84 2b 50
        E 0 94 2b 64
        E 240 84 2b 50
        E 0 94 1f 64
        E 466 84 1f 50
        E 14 94 2a 64
        E 240 84 2a 50
        E 0 94 2b 64
        E 240 84 2b 50
        E 0 94 21 64
        E 466 84 21 50
        E 14 94 2d 64
        E 240 84 2d 50
        E 0 94 2d 64
        E 240 84 2d 50
        E 0 94 21 64
        E 466 84 21 50
        E 14 94 2d 64
        E 240 84 2d 50
        E 0 94 2d 64
        E 240 84 2d 50
        E 0 94 21 64
        E 466 84 21 50
        E 14 94 2d 64
        E 240 84 2d 50
        E 0 94 2d 64
        E 240 84 2d 50
        E 0 94 21 64
        E 466 84 21 50
        E 14 94 2b 64
        E 240 84 2b 50
        E 0 94 2d 64
        E 240 84 2d 50
        E 0 94 21 64
        E 466 84 21 50
        E 14 94 2d 64
        E 240 84 2d 50
        E 0 94 2d 64
        E 240 84 2d 50
        E 0 94 21 64
        E 466 84 21 50
        E 14 94 2d 64
        E 240 84 2d 50
        E 0 94 2d 64
        E 240 84 2d 50
        E 0 94 21 64
        E 466 84 21 50
        E 14 94 2d 64
        E 240 84 2d 50
        E 0 94 2d 64
        E 240 84 2d 50
        E 0 94 21 64
        E 466 84 21 50
        E 14 94 2b 64
        E 240 84 2b 50
        E 0 94 2d 64
        E 240 84 2d 50
        E 0 94 1d 64
        E 466 84 1d 50
        E 14 94 29 64
        E 240 84 29 50
        E 0 94 29 64
        E 240 84 29 50
        E 0 94 1d 64
        E 466 84 1d 50
        E 14 94 29 64
        E 240 84 29 50
        E 0 94 29 64
        E 240 84 29 50
        E 0 94 1d 64
        E 466 84 1d 50
        E 14 94 29 64
        E 240 84 29 50
        E 0 94 29 64
        E 240 84 29 50
        E 0 94 1d 64
        E 466 84 1d 50
        E 14 94 29 64
        E 240 84 29 50
        E 0 94 29 64
        E 240 84 29 50
        E 0 94 1f 64
        E 466 84 1f 50
        E 14 94 2b 64
        E 240 84 2b 50
        E 0 94 2b 64
        E 240 84 2b 50
        E 0 94 1f 64
        E 466 84 1f 50
        E 14 94 2b 64
        E 240 84 2b 50
        E 0 94 2b 64
        E 240 84 2b 50
        E 0 94 1f 64
        E 466 84 1f 50
        E 14 94 2b 64
        E 240 84 2b 50
        E 0 94 2b 64
        E 240 84 2b 50
        E 0 94 1f 64
        E 466 84 1f 50
        E 14 94 2b 64
        E 240 84 2b 50
        E 0 94 2b 64
        E 240 84 2b 50
        E 0 94 21 64
        E 466 84 21 50
        E 14 94 2d 64
        E 240 84 2d 50
        E 0 94 2d 64
        E 240 84 2d 50
        E 0 94 21 64
        E 466 84 21 50
        E 14 94 2d 64
        E 240 84 2d 50
        E 0 94 2d 64
        E 240 84 2d 50
        E 0 94 21 64
        E 466 84 21 50
        E 14 94 2d 64
        E 240 84 2d 50
        E 0 94 2d 64
        E 240 84 2d 50
        E 0 94 21 64
        E 466 84 21 50
        E 14 94 2d 64
        E 240 84 2d 50
        E 0 94 2d 64
        E 240 84 2d 50
        E 0 94 21 64
        E 466 84 21 50
        E 14 94 2d 64
        E 240 84 2d 50
        E 0 94 2d 64
        E 240 84 2d 50
        E 0 94 21 64
        E 466 84 21 50
        E 14 94 2d 64
        E 240 84 2d 50
        E 0 94 2d 64
        E 240 84 2d 50
        E 0 94 21 64
        E 466 84 21 50
        E 14 94 2d 64
        E 240 84 2d 50
        E 0 94 2d 64
        E 240 84 2d 50
        E 0 94 21 64
        E 466 84 21 50
        E 14 94 2d 64
        E 240 84 2d 50
        E 0 94 2d 64
        E 240 84 2d 50
        E 0 94 21 64
        E 466 84 21 50
        E 14 94 2d 64
        E 240 84 2d 50
        E 0 94 2d 64
        E 240 84 2d 50
        E 0 94 21 64
        E 466 84 21 50
        E 14 94 2d 64
        E 240 84 2d 50
        E 0 94 2d 64
        E 240 84 2d 50
        E 0 94 21 64
        E 466 84 21 50
        E 14 94 2d 64
        E 240 84 2d 50
        E 0 94 2d 64
        E 240 84 2d 50
        E 0 94 21 64
        E 466 84 21 50
        E 14 94 2b 64
        E 240 84 2b 50
        E 0 94 2d 64
        E 240 84 2d 50
        E 0 94 1f 64
        E 466 84 1f 50
        E 14 94 2b 64
        E 240 84 2b 50
        E 0 94 2b 64
        E 240 84 2b 50
        E 0 94 1f 64
        E 466 84 1f 50
        E 14 94 2b 64
        E 240 84 2b 50
        E 0 94 2b 64
        E 240 84 2b 50
        E 0 94 1f 64
        E 466 84 1f 50
        E 14 94 2b 64
        E 240 84 2b 50
        E 0 94 2b 64
        E 240 84 2b 50
        E 0 94 1f 64
        E 466 84 1f 50
        E 14 94 2a 64
        E 240 84 2a 50
        E 0 94 2b 64
        E 240 84 2b 50
        E 0 94 1d 64
        E 466 84 1d 50
        E 14 94 29 64
        E 240 84 29 50
        E 0 94 29 64
        E 240 84 29 50
        E 0 94 1d 64
        E 466 84 1d 50
        E 14 94 29 64
        E 240 84 29 50
        E 0 94 29 64
        E 240 84 29 50
        E 0 94 1d 64
        E 466 84 1d 50
        E 14 94 29 64
        E 240 84 29 50
        E 0 94 29 64
        E 240 84 29 50
        E 0 94 1d 64
        E 466 84 1d 50
        E 14 94 28 64
        E 240 84 28 50
        E 0 94 29 64
        E 240 84 29 50
        E 0 94 1c 64
        E 466 84 1c 50
        E 14 94 28 64
        E 240 84 28 50
        E 0 94 28 64
        E 240 84 28 50
        E 0 94 1c 64
        E 466 84 1c 50
        E 14 94 28 64
        E 240 84 28 50
        E 0 94 28 64
        E 240 84 28 50
        E 0 94 1c 64
        E 466 84 1c 50
        E 14 94 28 64
        E 240 84 28 50
        E 0 94 28 64
        E 240 84 28 50
        E 0 94 1c 64
        E 466 84 1c 50
        E 14 94 28 64
        E 240 84 28 50
        E 0 94 28 64
        E 240 84 28 50
        E 0 94 1d 64
        E 466 84 1d 50
        E 14 94 29 64
        E 240 84 29 50
        E 0 94 29 64
        E 240 84 29 50
        E 0 94 1d 64
        E 466 84 1d 50
        E 14 94 29 64
        E 240 84 29 50
        E 0 94 29 64
        E 240 84 29 50
        E 0 94 1d 64
        E 466 84 1d 50
        E 14 94 29 64
        E 240 84 29 50
        E 0 94 29 64
        E 240 84 29 50
        E 0 94 1d 64
        E 466 84 1d 50
        E 14 94 29 64
        E 240 84 29 50
        E 0 94 29 64
        E 240 84 29 50
        E 0 94 1d 64
        E 466 84 1d 50
        E 14 94 29 64
        E 240 84 29 50
        E 0 94 29 64
        E 240 84 29 50
        E 0 94 1d 64
        E 466 84 1d 50
        E 14 94 29 64
        E 240 84 29 50
        E 0 94 29 64
        E 240 84 29 50
        E 0 94 1d 64
        E 466 84 1d 50
        E 14 94 29 64
        E 240 84 29 50
        E 0 94 29 64
        E 240 84 29 50
        E 0 94 1d 64
        E 466 84 1d 50
        E 14 94 29 64
        E 240 84 29 50
        E 0 94 29 64
        E 240 84 29 50
        E 0 94 1a 64
        E 466 84 1a 50
        E 14 94 26 64
        E 240 84 26 50
        E 0 94 26 64
        E 240 84 26 50
        E 0 94 1a 64
        E 466 84 1a 50
        E 14 94 26 64
        E 240 84 26 50
        E 0 94 26 64
        E 240 84 26 50
        E 0 94 1a 64
        E 466 84 1a 50
        E 14 94 26 64
        E 240 84 26 50
        E 0 94 26 64
        E 240 84 26 50
        E 0 94 1a 64
        E 466 84 1a 50
        E 14 94 26 64
        E 240 84 26 50
        E 0 94 26 64
        E 240 84 26 50
        E 0 94 28 64
        E 240 84 28 50
        E 0 94 34 64
        E 480 84 34 50
        E 0 94 28 64
        E 240 94 34 64
        E 20 84 28 50
        E 460 84 34 50
        E 0 94 28 64
        E 240 84 28 50
        E 0 94 34 64
        E 480 84 34 50
        E 0 94 28 64
        E 240 84 28 50
        E 0 94 34 64
        E 480 84 34 50
        E 0 94 28 64
        E 960 84 28 50
        E 0 94 21 64
        E 466 84 21 50
        E 14 94 2d 64
        E 240 84 2d 50
        E 0 94 2d 64
        E 240 84 2d 50
        E 0 94 21 64
        E 466 84 21 50
        E 14 94 2d 64
        E 240 84 2d 50
        E 0 94 2d 64
        E 240 84 2d 50
        E 0 94 21 64
        E 466 84 21 50
        E 14 94 2d 64
        E 240 84 2d 50
        E 0 94 2d 64
        E 240 84 2d 50
        E 0 94 21 64
        E 466 84 21 50
        E 14 94 2b 64
        E 240 84 2b 50
        E 0 94 2d 64
        E 240 84 2d 50
        E 0 94 21 64
        E 466 84 21 50
        E 14 94 2d 64
        E 240 84 2d 50
        E 0 94 2d 64
        E 240 84 2d 50
        E 0 94 21 64
        E 466 84 21 50
        E 14 94 2d 64
        E 240 84 2d 50
        E 0 94 2d 64
        E 240 84 2d 50
        E 0 94 21 64
        E 466 84 21 50
        E 14 94 2d 64
        E 240 84 2d 50
        E 0 94 2d 64
        E 240 84 2d 50
        E 0 94 21 64
        E 466 84 21 50
        E 14 94 2b 64
        E 240 84 2b 50
        E 0 94 2d 64
        E 240 84 2d 50
        E 0 94 1f 64
        E 466 84 1f 50
        E 14 94 2b 64
        E 240 84 2b 50
        E 0 94 2b 64
        E 240 84 2b 50
        E 0 94 1f 64
        E 466 84 1f 50
        E 14 94 2b 64
        E 240 84 2b 50
        E 0 94 2b 64
        E 240 84 2b 50
        E 0 94 1f 64
        E 466 84 1f 50
        E 14 94 2b 64
        E 240 84 2b 50
        E 0 94 2b 64
        E 240 84 2b 50
        E 0 94 1f 64
        E 466 84 1f 50
        E 14 94 2a 64
        E 240 84 2a 50
        E 0 94 2b 64
        E 240 84 2b 50
        E 0 94 1f 64
        E 466 84 1f 50
        E 14 94 2b 64
        E 240 84 2b 50
        E 0 94 2b 64
        E 240 84 2b 50
        E 0 94 1f 64
        E 466 84 1f 50
        E 14 94 2b 64
        E 240 84 2b 50
        E 0 94 2b 64
        E 240 84 2b 50
        E 0 94 1f 64
        E 466 84 1f 50
        E 14 94 2b 64
        E 240 84 2b 50
        E 0 94 2b 64
        E 240 84 2b 50
        E 0 94 1f 64
        E 466 84 1f 50
        E 14 94 2a 64
        E 240 84 2a 50
        E 0 94 2b 64
        E 240 84 2b 50
        E 0 94 21 64
        E 466 84 21 50
        E 14 94 2d 64
        E 240 84 2d 50
        E 0 94 2d 64
        E 240 84 2d 50
        E 0 94 21 64
        E 466 84 21 50
        E 14 94 2d 64
        E 240 84 2d 50
        E 0 94 2d 64
        E 240 84 2d 50
        E 0 94 21 64
        E 466 84 21 50
        E 14 94 2d 64
        E 240 84 2d 50
        E 0 94 2d 64
        E 240 84 2d 50
        E 0 94 21 64
        E 466 84 21 50
        E 14 94 2b 64
        E 240 84 2b 50
        E 0 94 2d 64
        E 240 84 2d 50
        E 0 94 21 64
        E 466 84 21 50
        E 14 94 2d 64
        E 240 84 2d 50
        E 0 94 2d 64
        E 240 84 2d 50
        E 0 94 21 64
        E 466 84 21 50
        E 14 94 2d 64
        E 240 84 2d 50
        E 0 94 2d 64
        E 240 84 2d 50
        E 0 94 21 64
        E 466 84 21 50
        E 14 94 2d 64
        E 240 84 2d 50
        E 0 94 2d 64
        E 240 84 2d 50
        E 0 94 21 64
        E 466 84 21 50
        E 14 94 2b 64
        E 240 84 2b 50
        E 0 94 2d 64
        E 240 84 2d 50
        E 0 94 1d 64
        E 466 84 1d 50
        E 14 94 29 64
        E 240 84 29 50
        E 0 94 29 64
        E 240 84 29 50
        E 0 94 1d 64
        E 466 84 1d 50
        E 14 94 29 64
        E 240 84 29 50
        E 0 94 29 64
        E 240 84 29 50
        E 0 94 1d 64
        E 466 84 1d 50
        E 14 94 29 64
        E 240 84 29 50
        E 0 94 29 64
        E 240 84 29 50
        E 0 94 1d 64
        E 466 84 1d 50
        E 14 94 29 64
        E 240 84 29 50
        E 0 94 29 64
        E 240 84 29 50
        E 0 94 1f 64
        E 466 84 1f 50
        E 14 94 2b 64
        E 240 84 2b 50
        E 0 94 2b 64
        E 240 84 2b 50
        E 0 94 1f 64
        E 466 84 1f 50
        E 14 94 2b 64
        E 240 84 2b 50
        E 0 94 2b 64
        E 240 84 2b 50
        E 0 94 1f 64
        E 466 84 1f 50
        E 14 94 2b 64
        E 240 84 2b 50
        E 0 94 2b 64
        E 240 84 2b 50
        E 0 94 1f 64
        E 466 84 1f 50
        E 14 94 2b 64
        E 240 84 2b 50
        E 0 94 2b 64
        E 240 84 2b 50
        E 0 94 21 64
        E 466 84 21 50
        E 14 94 2d 64
        E 240 84 2d 50
        E 0 94 2d 64
        E 240 84 2d 50
        E 0 94 21 64
        E 466 84 21 50
        E 14 94 2d 64
        E 240 84 2d 50
        E 0 94 2d 64
        E 240 84 2d 50
        E 0 94 21 64
        E 466 84 21 50
        E 14 94 2d 64
        E 240 84 2d 50
        E 0 94 2d 64
        E 240 84 2d 50
        E 0 94 21 64
        E 466 84 21 50
        E 14 94 2d 64
        E 240 84 2d 50
        E 0 94 2d 64
        E 240 84 2d 50
        E 0 94 21 64
        E 466 84 21 50
        E 14 94 2d 64
        E 240 84 2d 50
        E 0 94 2d 64
        E 240 84 2d 50
        E 0 94 21 64
        E 466 84 21 50
        E 14 94 2d 64
        E 240 84 2d 50
        E 0 94 2d 64
        E 240 84 2d 50
        E 0 94 21 64
        E 466 84 21 50
        E 14 94 2d 64
        E 240 84 2d 50
        E 0 94 2d 64
        E 240 84 2d 50
        E 0 94 21 64
        E 466 84 21 50
        E 14 94 2d 64
        E 240 84 2d 50
        E 0 94 2d 64
        E 240 84 2d 50
        E 0 94 21 64
        E 466 84 21 50
        E 14 94 2d 64
        E 240 84 2d 50
        E 0 94 2d 64
        E 240 84 2d 50
        E 0 94 21 64
        E 466 84 21 50
        E 14 94 2d 64
        E 240 84 2d 50
        E 0 94 2d 64
        E 240 84 2d 50
        E 0 94 21 64
        E 466 84 21 50
        E 14 94 2d 64
        E 240 84 2d 50
        E 0 94 2d 64
        E 240 84 2d 50
        E 0 94 21 64
        E 466 84 21 50
        E 14 94 2b 64
        E 240 84 2b 50
        E 0 94 2d 64
        E 240 84 2d 50
        E 0 94 1f 64
        E 466 84 1f 50
        E 14 94 2b 64
        E 240 84 2b 50
        E 0 94 2b 64
        E 240 84 2b 50
        E 0 94 1f 64
        E 466 84 1f 50
        E 14 94 2b 64
        E 240 84 2b 50
        E 0 94 2b 64
        E 240 84 2b 50
        E 0 94 1f 64
        E 466 84 1f 50
        E 14 94 2b 64
        E 240 84 2b 50
        E 0 94 2b 64
        E 240 84 2b 50
        E 0 94 1f 64
        E 466 84 1f 50
        E 14 94 2a 64
        E 240 84 2a 50
        E 0 94 2b 64
        E 240 84 2b 50
        E 0 94 1d 64
        E 466 84 1d 50
        E 14 94 29 64
        E 240 84 29 50
        E 0 94 29 64
        E 240 84 29 50
        E 0 94 1d 64
        E 466 84 1d 50
        E 14 94 29 64
        E 240 84 29 50
        E 0 94 29 64
        E 240 84 29 50
        E 0 94 1d 64
        E 466 84 1d 50
        E 14 94 29 64
        E 240 84 29 50
        E 0 94 29 64
        E 240 84 29 50
        E 0 94 1d 64
        E 466 84 1d 50
        E 14 94 28 64
        E 240 84 28 50
        E 0 94 29 64
        E 240 84 29 50
        E 0 94 1c 64
        E 466 84 1c 50
        E 14 94 28 64
        E 240 84 28 50
        E 0 94 28 64
        E 240 84 28 50
        E 0 94 1c 64
        E 466 84 1c 50
        E 14 94 28 64
        E 240 84 28 50
        E 0 94 28 64
        E 240 84 28 50
        E 0 94 1c 64
        E 466 84 1c 50
        E 14 94 28 64
        E 240 84 28 50
        E 0 94 28 64
        E 240 84 28 50
        E 0 94 1c 64
        E 466 84 1c 50
        E 14 94 28 64
        E 240 84 28 50
        E 0 94 28 64
        E 240 84 28 50
        E 0 94 1d 64
        E 466 84 1d 50
        E 14 94 29 64
        E 240 84 29 50
        E 0 94 29 64
        E 240 84 29 50
        E 0 94 1d 64
        E 466 84 1d 50
        E 14 94 29 64
        E 240 84 29 50
        E 0 94 29 64
        E 240 84 29 50
        E 0 94 1d 64
        E 466 84 1d 50
        E 14 94 29 64
        E 240 84 29 50
        E 0 94 29 64
        E 240 84 29 50
        E 0 94 1d 64
        E 466 84 1d 50
        E 14 94 29 64
        E 240 84 29 50
        E 0 94 29 64
        E 240 84 29 50
        E 0 94 1d 64
        E 466 84 1d 50
        E 14 94 29 64
        E 240 84 29 50
        E 0 94 29 64
        E 240 84 29 50
        E 0 94 1d 64
        E 466 84 1d 50
        E 14 94 29 64
        E 240 84 29 50
        E 0 94 29 64
        E 240 84 29 50
        E 0 94 1d 64
        E 466 84 1d 50
        E 14 94 29 64
        E 240 84 29 50
        E 0 94 29 64
        E 240 84 29 50
        E 0 94 1d 64
        E 466 84 1d 50
        E 14 94 29 64
        E 240 84 29 50
        E 0 94 29 64
        E 240 84 29 50
        E 0 94 1a 64
        E 466 84 1a 50
        E 14 94 26 64
        E 240 84 26 50
        E 0 94 26 64
        E 240 84 26 50
        E 0 94 1a 64
        E 466 84 1a 50
        E 14 94 26 64
        E 240 84 26 50
        E 0 94 26 64
        E 240 84 26 50
        E 0 94 1a 64
        E 466 84 1a 50
        E 14 94 26 64
        E 240 84 26 50
        E 0 94 26 64
        E 240 84 26 50
        E 0 94 1a 64
        E 466 84 1a 50
        E 14 94 26 64
        E 240 84 26 50
        E 0 94 26 64
        E 240 84 26 50
        E 0 94 28 64
        E 240 84 28 50
        E 0 94 34 64
        E 480 84 34 50
        E 0 94 28 64
        E 240 94 34 64
        E 20 84 28 50
        E 460 84 34 50
        E 0 94 28 64
        E 0 b0 7b 00
        CCINTERP 32
        CHASE_CC_TAKEOFFS 1
        GUID {92FCE36E-C732-47D8-9B03-2BB13F118C94}
        IGNTEMPO 0 120 4 4
        SRCCOLOR 121
      >
    >
  >
  <TRACK {F02972EF-E124-4A97-9A82-E3B407A6AEA0}
    NAME "R-Type - r-type1.mid [chan 6] [chan 6]"
    PEAKCOL 16576
    BEAT -1
    AUTOMODE 0
    VOLPAN 1 0 -1 -1 1
    MUTESOLO 0 0 0
    IPHASE 0
    PLAYOFFS 0 1
    ISBUS 0 0
    BUSCOMP 0 0 0 0 0
    SHOWINMIX 1 0.6667 0.5 1 0.5 -1 -1 -1
    FREEMODE 0
    SEL 0
    REC 0 0 1 0 0 0 0
    VU 2
    TRACKHEIGHT 0 0 0 0 0 0
    INQ 0 0 0 0.5 100 0 0 100
    NCHAN 2
    FX 1
    TRACKID {F02972EF-E124-4A97-9A82-E3B407A6AEA0}
    PERF 0
    MIDIOUT -1
    MAINSEND 1 0
    <FXCHAIN
      WNDRECT 23 51 737 624
      SHOW 0
      LASTSEL 0
      DOCKED 0
      BYPASS 0 0 0
      <VST "VSTi: ReaSynth (Cockos)" reasynth.dll 0 "" 1919251321<5653547265737972656173796E746800> ""
        eXNlcu9e7f4AAAAAAgAAAAEAAAAAAAAAAgAAAAAAAABEAAAAAAAAAAAAEAA=
        776t3g3wrd4AAAAAF7fROtNNIj+DwEo+2/leP85NAD8r+jQ8AAAAAAAAAD8MIJk+nu/nPgAAAD8AAAAAAAAAAAAAAAA=
        AAAQAAAA
      >
      FLOATPOS 0 0 0 0
      FXID {3C3ECF15-1428-41A3-AECD-3D1151089385}
      WAK 0 0
    >
    <ITEM
      POSITION 35.59999999999047
      SNAPOFFS 0
      LENGTH 143.19999999999087
      LOOP 1
      ALLTAKES 0
      FADEIN 1 0 0 1 0 0 0
      FADEOUT 1 0 0 1 0 0 0
      MUTE 0 0
      SEL 0
      IGUID {FF5BA629-7DC9-4CFF-A173-3B7C174E2A3B}
      IID 32
      NAME "R-Type - r-type1.mid [chan 6]"
      VOLPAN 1 0 1 -1
      SOFFS 0 0
      PLAYRATE 1 1 0 -1 0 0.0025
      CHANMODE 0
      GUID {406DC3AF-EBC7-40BD-8444-1D972132E88B}
      <SOURCE MIDI
        HASDATA 1 960 QN
        CCINTERP 32
        POOLEDEVTS {9BD12C1C-52C6-48E0-AE93-8D39247A492F}
        E 0 c5 5a 00
        E 0 b5 0a 40
        E 0 b5 07 02
        E 0 b5 64 00
        E 0 b5 65 00
        E 0 b5 06 20
        E 0 95 48 64
        E 60 b5 07 04
        E 60 b5 07 06
        E 60 b5 07 08
        E 60 b5 07 0a
        E 60 b5 07 0c
        E 60 b5 07 0e
        E 60 b5 07 10
        E 60 b5 07 12
        E 60 b5 07 14
        E 60 b5 07 16
        E 60 b5 07 18
        E 60 b5 07 1a
        E 60 b5 07 1c
        E 60 b5 07 1e
        E 60 b5 07 20
        E 60 b5 07 22
        E 60 b5 07 24
        E 60 b5 07 26
        E 60 b5 07 28
        E 60 b5 07 2a
        E 60 b5 07 2c
        E 60 b5 07 2e
        E 60 b5 07 30
        E 60 b5 07 32
        E 60 b5 07 34
        E 60 b5 07 36
        E 60 b5 07 38
        E 60 b5 07 3a
        E 60 b5 07 3c
        E 60 b5 07 3e
        E 60 b5 07 40
        E 60 b5 07 41
        E 60 b5 07 43
        E 60 b5 07 45
        E 60 b5 07 47
        E 60 b5 07 49
        E 60 b5 07 4b
        E 60 b5 07 4d
        E 60 b5 07 4f
        E 60 b5 07 51
        E 60 b5 07 53
        E 60 b5 07 55
        E 60 b5 07 57
        E 60 b5 07 59
        E 60 b5 07 5b
        E 60 b5 07 5d
        E 60 b5 07 5f
        E 60 b5 07 61
        E 60 b5 07 63
        E 60 b5 07 65
        E 60 b5 07 67
        E 60 b5 07 69
        E 60 b5 07 6b
        E 60 b5 07 6d
        E 60 b5 07 6f
        E 60 b5 07 71
        E 60 b5 07 73
        E 60 b5 07 75
        E 60 b5 07 77
        E 60 b5 07 79
        E 60 b5 07 7b
        E 60 b5 07 7d
        E 120 b5 07 7f
        E 0 85 48 50
        E 0 95 35 64
        E 120 85 35 50
        E 0 95 39 64
        E 120 85 39 50
        E 0 95 3e 64
        E 120 85 3e 50
        E 0 95 41 64
        E 120 85 41 50
        E 0 95 39 64
        E 120 85 39 50
        E 0 95 3e 64
        E 120 85 3e 50
        E 0 95 41 64
        E 120 85 41 50
        E 0 95 45 64
        E 120 85 45 50
        E 0 95 3e 64
        E 120 85 3e 50
        E 0 95 41 64
        E 120 85 41 50
        E 0 95 45 64
        E 120 85 45 50
        E 0 95 4a 64
        E 120 85 4a 50
        E 0 95 41 64
        E 120 85 41 50
        E 0 95 45 64
        E 120 85 45 50
        E 0 95 4a 64
        E 120 85 4a 50
        E 0 95 4d 64
        E 120 85 4d 50
        E 0 95 45 64
        E 120 85 45 50
        E 0 95 4a 64
        E 120 85 4a 50
        E 0 95 4d 64
        E 120 85 4d 50
        E 0 95 51 64
        E 120 85 51 50
        E 0 95 4a 64
        E 120 85 4a 50
        E 0 95 4d 64
        E 120 85 4d 50
        E 0 95 51 64
        E 120 85 51 50
        E 0 95 56 64
        E 120 85 56 50
        E 0 95 4d 64
        E 120 85 4d 50
        E 0 95 51 64
        E 120 85 51 50
        E 0 95 56 64
        E 120 85 56 50
        E 0 95 59 64
        E 120 85 59 50
        E 0 95 51 64
        E 120 85 51 50
        E 0 95 56 64
        E 120 85 56 50
        E 0 95 59 64
        E 120 85 59 50
        E 0 95 5d 64
        E 120 85 5d 50
        E 0 95 62 64
        E 634 85 62 50
        E 19 b5 0a 7f
        E 0 95 4a 64
        E 0 95 45 64
        E 204 b5 0a 7d
        E 204 b5 0a 7b
        E 204 b5 0a 79
        E 204 b5 0a 77
        E 211 b5 0a 75
        E 240 b5 0a 73
        E 0 85 45 50
        E 0 95 4d 64
        E 0 95 48 64
        E 14 85 4a 50
        E 226 b5 0a 71
        E 240 b5 0a 6f
        E 240 b5 0a 6d
        E 240 b5 0a 6b
        E 240 b5 0a 69
        E 226 85 4d 50
        E 14 b5 0a 67
        E 0 85 48 50
        E 0 95 4f 64
        E 0 95 4a 64
        E 240 b5 0a 65
        E 0 85 4f 50
        E 0 95 51 64
        E 240 b5 0a 63
        E 0 85 51 50
        E 0 95 4f 64
        E 240 b5 0a 61
        E 240 b5 0a 5f
        E 240 b5 0a 5d
        E 240 b5 0a 5b
        E 240 b5 0a 59
        E 240 b5 0a 57
        E 240 b5 0a 55
        E 240 b5 0a 53
        E 240 b5 0a 51
        E 240 b5 0a 4f
        E 0 85 4a 50
        E 0 95 3e 64
        E 0 95 43 64
        E 240 b5 0a 4d
        E 240 b5 0a 4b
        E 240 b5 0a 49
        E 240 b5 0a 47
        E 0 85 43 50
        E 0 85 3e 50
        E 0 95 41 64
        E 0 95 3c 64
        E 240 b5 0a 45
        E 240 b5 0a 43
        E 240 b5 0a 41
        E 240 b5 0a 40
        E 0 85 3c 50
        E 0 85 41 50
        E 0 95 45 64
        E 0 95 4a 64
        E 14 85 4f 50
        E 226 b5 0a 3e
        E 240 b5 0a 3c
        E 240 b5 0a 3a
        E 240 b5 0a 38
        E 240 b5 0a 36
        E 240 b5 0a 34
        E 0 85 45 50
        E 0 95 4d 64
        E 0 95 48 64
        E 14 85 4a 50
        E 226 b5 0a 32
        E 240 b5 0a 30
        E 240 b5 0a 2e
        E 240 b5 0a 2c
        E 240 b5 0a 2a
        E 226 85 4d 50
        E 14 b5 0a 28
        E 0 85 48 50
        E 0 95 4f 64
        E 0 95 4a 64
        E 240 b5 0a 26
        E 0 85 4f 50
        E 0 95 51 64
        E 240 b5 0a 24
        E 0 85 51 50
        E 0 95 4f 64
        E 240 b5 0a 22
        E 240 b5 0a 20
        E 240 b5 0a 1e
        E 240 b5 0a 1c
        E 240 b5 0a 1a
        E 240 b5 0a 18
        E 240 b5 0a 16
        E 240 b5 0a 14
        E 240 b5 0a 12
        E 240 b5 0a 10
        E 0 85 4a 50
        E 0 95 3e 64
        E 0 95 43 64
        E 240 b5 0a 0e
        E 240 b5 0a 0c
        E 240 b5 0a 0a
        E 240 b5 0a 08
        E 0 85 43 50
        E 0 85 3e 50
        E 0 95 41 64
        E 0 95 3c 64
        E 240 b5 0a 06
        E 240 b5 0a 04
        E 240 b5 0a 02
        E 240 85 3c 50
        E 0 85 41 50
        E 0 95 45 64
        E 0 95 4a 64
        E 0 95 3e 64
        E 14 85 4f 50
        E 226 b5 0a 02
        E 240 b5 0a 04
        E 240 b5 0a 06
        E 240 b5 0a 08
        E 240 b5 0a 0a
        E 226 85 3e 50
        E 14 b5 0a 0c
        E 0 85 45 50
        E 0 95 4d 64
        E 0 95 48 64
        E 0 95 41 64
        E 14 85 4a 50
        E 226 b5 0a 0e
        E 240 b5 0a 10
        E 240 b5 0a 12
        E 240 b5 0a 14
        E 240 b5 0a 16
        E 226 85 4d 50
        E 14 b5 0a 18
        E 0 85 48 50
        E 0 95 4f 64
        E 0 95 4a 64
        E 0 95 43 64
        E 14 85 41 50
        E 226 b5 0a 1a
        E 0 85 4f 50
        E 0 95 51 64
        E 240 b5 0a 1c
        E 0 85 51 50
        E 0 95 4f 64
        E 240 b5 0a 1e
        E 240 b5 0a 20
        E 240 b5 0a 22
        E 240 b5 0a 24
        E 240 b5 0a 26
        E 240 b5 0a 28
        E 240 b5 0a 2a
        E 240 b5 0a 2c
        E 240 b5 0a 2e
        E 240 b5 0a 30
        E 0 85 4a 50
        E 0 85 43 50
        E 0 95 3e 64
        E 0 95 43 64
        E 240 b5 0a 32
        E 240 b5 0a 34
        E 240 b5 0a 36
        E 240 b5 0a 38
        E 0 85 43 50
        E 0 85 3e 50
        E 0 95 41 64
        E 0 95 3c 64
        E 240 b5 0a 3a
        E 240 b5 0a 3c
        E 240 b5 0a 3e
        E 240 b5 0a 40
        E 0 85 3c 50
        E 0 85 41 50
        E 0 95 45 64
        E 0 95 4a 64
        E 0 95 3d 64
        E 14 85 4f 50
        E 106 85 3d 50
        E 0 95 3e 64
        E 120 b5 0a 41
        E 240 b5 0a 43
        E 240 b5 0a 45
        E 240 b5 0a 47
        E 240 b5 0a 49
        E 240 b5 0a 4b
        E 0 85 45 50
        E 0 95 4d 64
        E 0 95 48 64
        E 0 95 40 64
        E 4 85 3e 50
        E 10 85 4a 50
        E 106 85 40 50
        E 0 95 41 64
        E 120 b5 0a 4d
        E 240 b5 0a 4f
        E 240 b5 0a 51
        E 240 b5 0a 53
        E 240 b5 0a 55
        E 226 85 4d 50
        E 14 b5 0a 57
        E 0 85 48 50
        E 0 95 4a 64
        E 0 95 5a 64
        E 0 95 55 64
        E 4 85 41 50
        E 116 85 5a 50
        E 0 85 55 50
        E 0 95 5b 64
        E 0 95 56 64
        E 120 b5 0a 59
        E 240 b5 0a 5b
        E 240 b5 0a 5d
        E 240 b5 0a 5f
        E 240 b5 0a 61
        E 240 b5 0a 63
        E 240 b5 0a 65
        E 240 b5 0a 67
        E 240 b5 0a 69
        E 240 b5 0a 6b
        E 240 b5 0a 6d
        E 240 b5 0a 6f
        E 0 85 4a 50
        E 0 95 3e 64
        E 0 95 43 64
        E 240 b5 0a 71
        E 240 b5 0a 73
        E 240 b5 0a 75
        E 240 b5 0a 77
        E 0 85 43 50
        E 0 85 3e 50
        E 0 95 41 64
        E 0 95 3c 64
        E 240 b5 0a 79
        E 240 b5 0a 7b
        E 240 b5 0a 7d
        E 230 85 56 50
        E 10 b5 0a 7f
        E 0 85 41 50
        E 0 85 3c 50
        E 0 95 4d 64
        E 0 95 41 64
        E 0 95 35 64
        E 18 85 5b 50
        E 222 b5 0a 7d
        E 0 85 4d 50
        E 0 85 41 50
        E 0 95 41 64
        E 0 95 4d 64
        E 240 b5 0a 7b
        E 0 85 41 50
        E 240 b5 0a 79
        E 0 85 4d 50
        E 0 95 40 64
        E 0 95 4c 64
        E 240 b5 0a 77
        E 0 85 4c 50
        E 0 85 40 50
        E 0 95 40 64
        E 0 95 4c 64
        E 240 b5 0a 75
        E 0 85 40 50
        E 240 b5 0a 73
        E 0 85 4c 50
        E 0 95 3e 64
        E 0 95 4a 64
        E 240 b5 0a 71
        E 0 85 4a 50
        E 0 85 3e 50
        E 0 95 3e 64
        E 0 95 4a 64
        E 240 b5 0a 6f
        E 0 85 3e 50
        E 240 b5 0a 6d
        E 0 85 4a 50
        E 0 95 3c 64
        E 0 95 48 64
        E 240 b5 0a 6b
        E 0 85 48 50
        E 0 85 3c 50
        E 0 95 3c 64
        E 0 95 48 64
        E 240 b5 0a 69
        E 0 85 3c 50
        E 240 b5 0a 67
        E 0 85 48 50
        E 0 95 3b 64
        E 0 95 47 64
        E 240 b5 0a 65
        E 226 85 47 50
        E 0 85 3b 50
        E 14 b5 0a 63
        E 0 95 3c 64
        E 0 95 48 64
        E 240 b5 0a 61
        E 240 b5 0a 5f
        E 0 85 35 50
        E 0 95 41 64
        E 0 95 4d 64
        E 0 95 35 64
        E 14 85 3c 50
        E 0 85 48 50
        E 226 b5 0a 5d
        E 0 85 41 50
        E 0 85 4d 50
        E 0 95 41 64
        E 0 95 4d 64
        E 240 b5 0a 5b
        E 0 85 41 50
        E 240 b5 0a 59
        E 0 85 4d 50
        E 0 95 40 64
        E 0 95 4c 64
        E 240 b5 0a 57
        E 0 85 4c 50
        E 0 85 40 50
        E 0 95 40 64
        E 0 95 4c 64
        E 240 b5 0a 55
        E 0 85 40 50
        E 240 b5 0a 53
        E 0 85 4c 50
        E 0 95 3e 64
        E 0 95 4a 64
        E 240 b5 0a 51
        E 0 85 4a 50
        E 0 85 3e 50
        E 0 95 3e 64
        E 0 95 4a 64
        E 240 b5 0a 4f
        E 0 85 3e 50
        E 240 b5 0a 4d
        E 0 85 4a 50
        E 0 95 3c 64
        E 0 95 48 64
        E 240 b5 0a 4b
        E 0 85 48 50
        E 0 85 3c 50
        E 0 95 3c 64
        E 0 95 48 64
        E 240 b5 0a 49
        E 0 85 3c 50
        E 240 b5 0a 47
        E 0 85 48 50
        E 0 95 3b 64
        E 0 95 47 64
        E 240 b5 0a 45
        E 226 85 47 50
        E 0 85 3b 50
        E 14 b5 0a 43
        E 0 95 3c 64
        E 0 95 48 64
        E 240 b5 0a 41
        E 240 b5 0a 40
        E 0 85 35 50
        E 0 95 4f 64
        E 0 95 43 64
        E 0 95 37 64
        E 14 85 3c 50
        E 0 85 48 50
        E 226 b5 0a 3e
        E 0 85 4f 50
        E 0 85 43 50
        E 0 95 43 64
        E 0 95 4f 64
        E 240 b5 0a 3c
        E 0 85 43 50
        E 240 b5 0a 3a
        E 0 85 4f 50
        E 0 95 4d 64
        E 0 95 41 64
        E 240 b5 0a 38
        E 0 85 41 50
        E 0 85 4d 50
        E 0 95 4d 64
        E 0 95 41 64
        E 240 b5 0a 36
        E 0 85 41 50
        E 240 b5 0a 34
        E 0 85 4d 50
        E 0 95 40 64
        E 0 95 4c 64
        E 240 b5 0a 32
        E 0 85 4c 50
        E 0 85 40 50
        E 0 95 40 64
        E 0 95 4c 64
        E 240 b5 0a 30
        E 0 85 40 50
        E 240 b5 0a 2e
        E 0 85 4c 50
        E 0 95 3e 64
        E 0 95 4a 64
        E 240 b5 0a 2c
        E 0 85 4a 50
        E 0 85 3e 50
        E 0 95 3e 64
        E 0 95 4a 64
        E 240 b5 0a 2a
        E 0 85 3e 50
        E 240 b5 0a 28
        E 0 85 4a 50
        E 0 95 48 64
        E 0 95 3c 64
        E 240 b5 0a 26
        E 226 85 3c 50
        E 0 85 48 50
        E 14 b5 0a 24
        E 0 95 3e 64
        E 0 95 4a 64
        E 240 b5 0a 22
        E 240 b5 0a 20
        E 0 85 37 50
        E 0 95 43 64
        E 0 95 4f 64
        E 0 95 37 64
        E 14 85 3e 50
        E 0 85 4a 50
        E 226 b5 0a 1e
        E 0 85 43 50
        E 0 85 4f 50
        E 0 95 43 64
        E 0 95 4f 64
        E 240 b5 0a 1c
        E 0 85 43 50
        E 240 b5 0a 1a
        E 0 85 4f 50
        E 0 95 4d 64
        E 0 95 41 64
        E 240 b5 0a 18
        E 0 85 41 50
        E 0 85 4d 50
        E 0 95 4d 64
        E 0 95 41 64
        E 240 b5 0a 16
        E 0 85 41 50
        E 240 b5 0a 14
        E 0 85 4d 50
        E 0 95 40 64
        E 0 95 4c 64
        E 240 b5 0a 12
        E 0 85 4c 50
        E 0 85 40 50
        E 0 95 40 64
        E 0 95 4c 64
        E 240 b5 0a 10
        E 0 85 40 50
        E 240 b5 0a 0e
        E 0 85 4c 50
        E 0 95 3e 64
        E 0 95 4a 64
        E 240 b5 0a 0c
        E 0 85 4a 50
        E 0 85 3e 50
        E 0 95 3e 64
        E 0 95 4a 64
        E 240 b5 0a 0a
        E 0 85 3e 50
        E 240 b5 0a 08
        E 0 85 4a 50
        E 0 95 48 64
        E 0 95 3c 64
        E 240 b5 0a 06
        E 226 85 3c 50
        E 0 85 48 50
        E 14 b5 0a 04
        E 0 95 3e 64
        E 0 95 4a 64
        E 240 b5 0a 02
        E 240 85 37 50
        E 0 95 41 64
        E 0 95 4d 64
        E 0 95 35 64
        E 14 85 3e 50
        E 0 85 4a 50
        E 226 b5 0a 02
        E 0 85 41 50
        E 0 85 4d 50
        E 0 95 41 64
        E 0 95 4d 64
        E 240 b5 0a 04
        E 0 85 41 50
        E 240 b5 0a 06
        E 0 85 4d 50
        E 0 95 40 64
        E 0 95 4c 64
        E 240 b5 0a 08
        E 0 85 4c 50
        E 0 85 40 50
        E 0 95 40 64
        E 0 95 4c 64
        E 240 b5 0a 0a
        E 0 85 40 50
        E 240 b5 0a 0c
        E 0 85 4c 50
        E 0 95 3e 64
        E 0 95 4a 64
        E 240 b5 0a 0e
        E 0 85 4a 50
        E 0 85 3e 50
        E 0 95 3e 64
        E 0 95 4a 64
        E 240 b5 0a 10
        E 0 85 3e 50
        E 240 b5 0a 12
        E 0 85 4a 50
        E 0 95 3c 64
        E 0 95 48 64
        E 240 b5 0a 14
        E 0 85 48 50
        E 0 85 3c 50
        E 0 95 3c 64
        E 0 95 48 64
        E 240 b5 0a 16
        E 0 85 3c 50
        E 240 b5 0a 18
        E 0 85 48 50
        E 0 95 3b 64
        E 0 95 47 64
        E 240 b5 0a 1a
        E 226 85 47 50
        E 0 85 3b 50
        E 14 b5 0a 1c
        E 0 95 3c 64
        E 0 95 48 64
        E 240 b5 0a 1e
        E 240 b5 0a 20
        E 0 85 35 50
        E 0 95 41 64
        E 0 95 4d 64
        E 0 95 35 64
        E 14 85 3c 50
        E 0 85 48 50
        E 226 b5 0a 22
        E 0 85 41 50
        E 0 85 4d 50
        E 0 95 41 64
        E 0 95 4d 64
        E 240 b5 0a 24
        E 0 85 41 50
        E 240 b5 0a 26
        E 0 85 4d 50
        E 0 95 40 64
        E 0 95 4c 64
        E 240 b5 0a 28
        E 0 85 4c 50
        E 0 85 40 50
        E 0 95 40 64
        E 0 95 4c 64
        E 240 b5 0a 2a
        E 0 85 40 50
        E 240 b5 0a 2c
        E 0 85 4c 50
        E 0 95 3e 64
        E 0 95 4a 64
        E 240 b5 0a 2e
        E 0 85 4a 50
        E 0 85 3e 50
        E 0 95 3e 64
        E 0 95 4a 64
        E 240 b5 0a 30
        E 0 85 3e 50
        E 240 b5 0a 32
        E 0 85 4a 50
        E 0 95 3c 64
        E 0 95 48 64
        E 240 b5 0a 34
        E 0 85 48 50
        E 0 85 3c 50
        E 0 95 3c 64
        E 0 95 48 64
        E 240 b5 0a 36
        E 0 85 3c 50
        E 240 b5 0a 38
        E 0 85 48 50
        E 0 95 3b 64
        E 0 95 47 64
        E 240 b5 0a 3a
        E 226 85 47 50
        E 0 85 3b 50
        E 14 b5 0a 3c
        E 0 95 3c 64
        E 0 95 48 64
        E 240 b5 0a 3e
        E 240 b5 0a 40
        E 0 85 35 50
        E 0 95 4f 64
        E 0 95 43 64
        E 0 95 37 64
        E 14 85 3c 50
        E 0 85 48 50
        E 226 b5 0a 41
        E 0 85 4f 50
        E 0 85 43 50
        E 0 95 43 64
        E 0 95 4f 64
        E 240 b5 0a 43
        E 0 85 43 50
        E 240 b5 0a 45
        E 0 85 4f 50
        E 0 95 4d 64
        E 0 95 41 64
        E 240 b5 0a 47
        E 0 85 41 50
        E 0 85 4d 50
        E 0 95 4d 64
        E 0 95 41 64
        E 240 b5 0a 49
        E 0 85 41 50
        E 240 b5 0a 4b
        E 0 85 4d 50
        E 0 95 40 64
        E 0 95 4c 64
        E 240 b5 0a 4d
        E 0 85 4c 50
        E 0 85 40 50
        E 0 95 40 64
        E 0 95 4c 64
        E 240 b5 0a 4f
        E 0 85 40 50
        E 240 b5 0a 51
        E 0 85 4c 50
        E 0 95 4d 64
        E 0 95 41 64
        E 240 b5 0a 53
        E 0 85 41 50
        E 0 85 4d 50
        E 0 95 41 64
        E 0 95 4d 64
        E 240 b5 0a 55
        E 0 85 41 50
        E 240 b5 0a 57
        E 0 85 4d 50
        E 0 95 4d 64
        E 0 95 41 64
        E 240 b5 0a 59
        E 0 85 41 50
        E 0 85 4d 50
        E 0 95 4f 64
        E 0 95 43 64
        E 240 b5 0a 5b
        E 0 85 43 50
        E 0 85 4f 50
        E 0 95 51 64
        E 0 95 45 64
        E 240 b5 0a 5d
        E 0 85 45 50
        E 0 85 51 50
        E 0 95 53 64
        E 0 95 47 64
        E 240 b5 0a 5f
        E 0 85 47 50
        E 0 85 37 50
        E 0 85 53 50
        E 0 95 4f 64
        E 0 95 43 64
        E 0 95 37 64
        E 240 b5 0a 61
        E 0 85 37 50
        E 0 85 43 50
        E 0 85 4f 50
        E 0 95 4f 64
        E 0 95 43 64
        E 0 95 37 64
        E 240 b5 0a 63
        E 0 85 37 50
        E 0 85 43 50
        E 0 85 4f 50
        E 0 95 4f 64
        E 0 95 43 64
        E 0 95 37 64
        E 240 b5 0a 65
        E 0 85 37 50
        E 0 85 43 50
        E 0 85 4f 50
        E 240 b5 0a 67
        E 0 95 4f 64
        E 0 95 43 64
        E 0 95 37 64
        E 240 b5 0a 69
        E 0 85 37 50
        E 0 85 43 50
        E 0 85 4f 50
        E 240 b5 0a 6b
        E 0 95 4f 64
        E 0 95 43 64
        E 0 95 37 64
        E 240 b5 0a 6d
        E 0 85 37 50
        E 0 85 43 50
        E 0 85 4f 50
        E 0 95 4f 64
        E 0 95 43 64
        E 0 95 37 64
        E 240 b5 0a 6f
        E 0 85 37 50
        E 0 85 43 50
        E 0 85 4f 50
        E 240 b5 0a 71
        E 240 b5 0a 73
        E 240 b5 0a 75
        E 240 e5 00 40
        E 0 b5 0a 77
        E 0 95 43 64
        E 0 95 37 64
        E 40 e5 55 3f
        E 40 e5 57 3e
        E 40 e5 59 3d
        E 40 e5 5b 3c
        E 40 e5 07 3c
        E 40 e5 09 3b
        E 0 b5 0a 79
        E 40 e5 5f 3a
        E 40 e5 37 39
        E 40 e5 63 38
        E 40 e5 65 37
        E 40 e5 3d 36
        E 40 e5 3f 35
        E 0 b5 0a 7b
        E 40 e5 6b 34
        E 40 e5 43 33
        E 40 e5 45 32
        E 40 e5 1d 31
        E 40 e5 75 2f
        E 40 e5 77 2e
        E 0 b5 0a 7d
        E 40 e5 4f 2d
        E 40 e5 27 2c
        E 40 e5 7f 2a
        E 40 e5 00 2a
        E 40 e5 58 28
        E 40 e5 00 40
        E 0 b5 06 01
        E 0 e5 00 00
        E 0 b5 0a 7f
        E 0 85 37 50
        E 0 85 43 50
        E 0 95 45 64
        E 0 95 40 64
        E 40 e5 14 0b
        E 40 e5 32 26
        E 40 e5 6d 33
        E 40 e5 61 39
        E 40 e5 2d 3e
        E 40 e5 00 40
        E 0 b5 0a 7d
        E 240 b5 0a 7b
        E 240 b5 0a 79
        E 240 e5 00 00
        E 0 b5 0a 77
        E 0 85 40 50
        E 0 85 45 50
        E 0 95 3e 64
        E 0 95 43 64
        E 40 e5 14 0b
        E 40 e5 32 26
        E 40 e5 6d 33
        E 40 e5 61 39
        E 40 e5 2d 3e
        E 40 e5 00 40
        E 0 b5 0a 75
        E 240 b5 0a 73
        E 220 85 43 50
        E 0 85 3e 50
        E 20 e5 00 00
        E 0 b5 0a 71
        E 0 95 45 64
        E 0 95 40 64
        E 40 e5 14 0b
        E 40 e5 32 26
        E 40 e5 6d 33
        E 40 e5 61 39
        E 40 e5 2d 3e
        E 40 e5 00 40
        E 0 b5 0a 6f
        E 240 b5 0a 6d
        E 0 85 40 50
        E 0 85 45 50
        E 240 b5 0a 6b
        E 240 b5 0a 69
        E 0 95 40 64
        E 0 95 3b 64
        E 240 b5 0a 67
        E 0 85 3b 50
        E 0 85 40 50
        E 0 95 41 64
        E 0 95 3c 64
        E 240 b5 0a 65
        E 0 85 3c 50
        E 0 85 41 50
        E 0 95 43 64
        E 0 95 3e 64
        E 240 b5 0a 63
        E 0 85 3e 50
        E 0 85 43 50
        E 0 95 45 64
        E 0 95 40 64
        E 240 b5 0a 61
        E 0 85 40 50
        E 0 85 45 50
        E 0 95 39 64
        E 240 e5 00 00
        E 0 b5 0a 5f
        E 0 85 39 50
        E 0 95 40 64
        E 0 95 45 64
        E 40 e5 14 0b
        E 40 e5 32 26
        E 40 e5 6d 33
        E 40 e5 61 39
        E 40 e5 2d 3e
        E 40 e5 00 40
        E 0 b5 0a 5d
        E 240 b5 0a 5b
        E 240 b5 0a 59
        E 240 e5 00 00
        E 0 b5 0a 57
        E 0 85 45 50
        E 0 85 40 50
        E 0 95 3e 64
        E 0 95 43 64
        E 40 e5 14 0b
        E 40 e5 32 26
        E 40 e5 6d 33
        E 40 e5 61 39
        E 40 e5 2d 3e
        E 40 e5 00 40
        E 0 b5 0a 55
        E 240 b5 0a 53
        E 220 85 43 50
        E 0 85 3e 50
        E 20 e5 00 00
        E 0 b5 0a 51
        E 0 95 45 64
        E 0 95 40 64
        E 40 e5 14 0b
        E 40 e5 32 26
        E 40 e5 6d 33
        E 40 e5 61 39
        E 40 e5 2d 3e
        E 40 e5 00 40
        E 0 b5 0a 4f
        E 240 b5 0a 4d
        E 0 85 40 50
        E 0 85 45 50
        E 240 b5 0a 4b
        E 240 b5 0a 49
        E 0 95 40 64
        E 0 95 3b 64
        E 240 b5 0a 47
        E 0 85 3b 50
        E 0 85 40 50
        E 0 95 3c 64
        E 0 95 41 64
        E 240 b5 0a 45
        E 0 85 41 50
        E 0 85 3c 50
        E 0 95 3e 64
        E 0 95 43 64
        E 240 b5 0a 43
        E 0 85 43 50
        E 0 85 3e 50
        E 0 95 40 64
        E 0 95 45 64
        E 240 b5 0a 41
        E 0 85 45 50
        E 0 85 40 50
        E 0 95 39 64
        E 240 e5 00 00
        E 0 b5 0a 40
        E 0 85 39 50
        E 0 95 43 64
        E 0 95 3e 64
        E 40 e5 14 0b
        E 40 e5 32 26
        E 40 e5 6d 33
        E 40 e5 61 39
        E 40 e5 2d 3e
        E 40 e5 00 40
        E 0 b5 0a 3e
        E 240 b5 0a 3c
        E 240 b5 0a 3a
        E 240 e5 00 00
        E 0 b5 0a 38
        E 0 85 3e 50
        E 0 85 43 50
        E 0 95 42 64
        E 0 95 3d 64
        E 40 e5 14 0b
        E 40 e5 32 26
        E 40 e5 6d 33
        E 40 e5 61 39
        E 40 e5 2d 3e
        E 40 e5 00 40
        E 0 b5 0a 36
        E 240 b5 0a 34
        E 220 85 3d 50
        E 0 85 42 50
        E 20 e5 00 00
        E 0 b5 0a 32
        E 0 95 43 64
        E 0 95 3e 64
        E 40 e5 14 0b
        E 40 e5 32 26
        E 40 e5 6d 33
        E 40 e5 61 39
        E 40 e5 2d 3e
        E 40 e5 00 40
        E 0 b5 0a 30
        E 240 b5 0a 2e
        E 0 85 3e 50
        E 0 85 43 50
        E 240 b5 0a 2c
        E 240 b5 0a 2a
        E 0 95 39 64
        E 0 95 3e 64
        E 240 b5 0a 28
        E 0 85 3e 50
        E 0 85 39 50
        E 0 95 40 64
        E 0 95 3b 64
        E 240 b5 0a 26
        E 0 85 3b 50
        E 0 85 40 50
        E 0 95 42 64
        E 0 95 3d 64
        E 240 b5 0a 24
        E 0 85 3d 50
        E 0 85 42 50
        E 0 95 3e 64
        E 0 95 43 64
        E 240 b5 0a 22
        E 0 85 43 50
        E 0 85 3e 50
        E 0 95 37 64
        E 240 e5 00 00
        E 0 b5 0a 20
        E 0 85 37 50
        E 0 95 3e 64
        E 0 95 43 64
        E 40 e5 14 0b
        E 40 e5 32 26
        E 40 e5 6d 33
        E 40 e5 61 39
        E 40 e5 2d 3e
        E 40 e5 00 40
        E 0 b5 0a 1e
        E 240 b5 0a 1c
        E 240 b5 0a 1a
        E 240 e5 00 00
        E 0 b5 0a 18
        E 0 85 43 50
        E 0 85 3e 50
        E 0 95 42 64
        E 0 95 3d 64
        E 40 e5 14 0b
        E 40 e5 32 26
        E 40 e5 6d 33
        E 40 e5 61 39
        E 40 e5 2d 3e
        E 40 e5 00 40
        E 0 b5 0a 16
        E 240 b5 0a 14
        E 220 85 3d 50
        E 0 85 42 50
        E 20 e5 00 00
        E 0 b5 0a 12
        E 0 95 43 64
        E 0 95 3e 64
        E 40 e5 14 0b
        E 40 e5 32 26
        E 40 e5 6d 33
        E 40 e5 61 39
        E 40 e5 2d 3e
        E 40 e5 00 40
        E 0 b5 0a 10
        E 240 b5 0a 0e
        E 0 85 3e 50
        E 0 85 43 50
        E 240 b5 0a 0c
        E 240 b5 0a 0a
        E 0 95 39 64
        E 0 95 3e 64
        E 240 b5 0a 08
        E 0 85 3e 50
        E 0 85 39 50
        E 0 95 40 64
        E 0 95 3b 64
        E 240 b5 0a 06
        E 0 85 3b 50
        E 0 85 40 50
        E 0 95 42 64
        E 0 95 3d 64
        E 240 b5 0a 04
        E 0 85 3d 50
        E 0 85 42 50
        E 0 95 3e 64
        E 0 95 43 64
        E 240 b5 0a 02
        E 0 85 43 50
        E 0 85 3e 50
        E 0 95 37 64
        E 240 e5 00 00
        E 0 85 37 50
        E 0 95 40 64
        E 0 95 45 64
        E 40 e5 14 0b
        E 40 e5 32 26
        E 40 e5 6d 33
        E 40 e5 61 39
        E 40 e5 2d 3e
        E 40 e5 00 40
        E 0 b5 0a 02
        E 240 b5 0a 04
        E 240 b5 0a 06
        E 240 e5 00 00
        E 0 b5 0a 08
        E 0 85 45 50
        E 0 85 40 50
        E 0 95 3e 64
        E 0 95 43 64
        E 40 e5 14 0b
        E 40 e5 32 26
        E 40 e5 6d 33
        E 40 e5 61 39
        E 40 e5 2d 3e
        E 40 e5 00 40
        E 0 b5 0a 0a
        E 240 b5 0a 0c
        E 220 85 43 50
        E 0 85 3e 50
        E 20 e5 00 00
        E 0 b5 0a 0e
        E 0 95 45 64
        E 0 95 40 64
        E 40 e5 14 0b
        E 40 e5 32 26
        E 40 e5 6d 33
        E 40 e5 61 39
        E 40 e5 2d 3e
        E 40 e5 00 40
        E 0 b5 0a 10
        E 240 b5 0a 12
        E 0 85 40 50
        E 0 85 45 50
        E 240 b5 0a 14
        E 240 b5 0a 16
        E 0 95 40 64
        E 0 95 3b 64
        E 240 b5 0a 18
        E 0 85 3b 50
        E 0 85 40 50
        E 0 95 41 64
        E 0 95 3c 64
        E 240 b5 0a 1a
        E 0 85 3c 50
        E 0 85 41 50
        E 0 95 43 64
        E 0 95 3e 64
        E 240 b5 0a 1c
        E 0 85 3e 50
        E 0 85 43 50
        E 0 95 45 64
        E 0 95 40 64
        E 240 b5 0a 1e
        E 0 85 40 50
        E 0 85 45 50
        E 0 95 39 64
        E 240 e5 00 00
        E 0 b5 0a 20
        E 0 85 39 50
        E 0 95 40 64
        E 0 95 45 64
        E 40 e5 14 0b
        E 40 e5 32 26
        E 40 e5 6d 33
        E 40 e5 61 39
        E 40 e5 2d 3e
        E 40 e5 00 40
        E 0 b5 0a 22
        E 240 b5 0a 24
        E 240 b5 0a 26
        E 240 e5 00 00
        E 0 b5 0a 28
        E 0 85 45 50
        E 0 85 40 50
        E 0 95 3e 64
        E 0 95 43 64
        E 40 e5 14 0b
        E 40 e5 32 26
        E 40 e5 6d 33
        E 40 e5 61 39
        E 40 e5 2d 3e
        E 40 e5 00 40
        E 0 b5 0a 2a
        E 240 b5 0a 2c
        E 220 85 43 50
        E 0 85 3e 50
        E 20 e5 00 00
        E 0 b5 0a 2e
        E 0 95 45 64
        E 0 95 40 64
        E 40 e5 14 0b
        E 40 e5 32 26
        E 40 e5 6d 33
        E 40 e5 61 39
        E 40 e5 2d 3e
        E 40 b5 0a 30
        E 240 b5 0a 32
        E 0 85 40 50
        E 0 85 45 50
        E 0 95 42 64
        E 6 95 3d 64
        E 234 b5 0a 34
        E 228 85 42 50
        E 12 b5 0a 36
        E 0 95 43 64
        E 6 95 3e 64
        E 14 85 3d 50
        E 220 b5 0a 38
        E 232 85 3e 50
        E 8 b5 0a 3a
        E 0 95 44 64
        E 6 95 3f 64
        E 6 85 43 50
        E 228 b5 0a 3c
        E 228 85 44 50
        E 12 b5 0a 3e
        E 0 95 45 64
        E 0 95 40 64
        E 20 85 3f 50
        E 220 b5 0a 40
        E 0 85 45 50
        E 0 85 40 50
        E 0 95 41 64
        E 0 95 48 64
        E 240 b5 0a 41
        E 240 b5 0a 43
        E 240 b5 0a 45
        E 240 b5 0a 47
        E 0 85 48 50
        E 0 85 41 50
        E 0 95 40 64
        E 0 95 47 64
        E 240 b5 0a 49
        E 226 85 40 50
        E 14 b5 0a 4b
        E 0 95 40 64
        E 220 85 47 50
        E 20 b5 0a 4d
        E 0 85 40 50
        E 0 95 41 64
        E 0 95 48 64
        E 240 b5 0a 4f
        E 240 b5 0a 51
        E 0 85 41 50
        E 0 95 45 64
        E 0 95 41 64
        E 12 85 48 50
        E 108 85 45 50
        E 0 95 46 64
        E 120 b5 0a 53
        E 0 85 46 50
        E 0 95 47 64
        E 120 85 47 50
        E 0 95 48 64
        E 120 b5 0a 55
        E 0 85 41 50
        E 0 95 41 64
        E 240 b5 0a 57
        E 0 85 41 50
        E 0 95 40 64
        E 240 b5 0a 59
        E 226 85 40 50
        E 14 b5 0a 5b
        E 0 95 41 64
        E 240 b5 0a 5d
        E 240 b5 0a 5f
        E 0 95 43 64
        E 0 95 53 64
        E 0 95 4f 64
        E 4 85 48 50
        E 10 85 41 50
        E 226 b5 0a 61
        E 240 b5 0a 63
        E 240 b5 0a 65
        E 240 b5 0a 67
        E 0 85 43 50
        E 0 95 41 64
        E 240 b5 0a 69
        E 226 85 41 50
        E 14 b5 0a 6b
        E 0 95 41 64
        E 240 b5 0a 6d
        E 0 85 41 50
        E 0 95 43 64
        E 240 b5 0a 6f
        E 240 b5 0a 71
        E 0 85 43 50
        E 0 95 43 64
        E 240 b5 0a 73
        E 240 b5 0a 75
        E 0 85 43 50
        E 0 95 43 64
        E 240 b5 0a 77
        E 0 85 53 50
        E 0 85 4f 50
        E 0 85 43 50
        E 0 95 41 64
        E 0 95 4a 64
        E 0 95 4f 64
        E 240 b5 0a 79
        E 0 85 4f 50
        E 0 85 4a 50
        E 0 95 4c 64
        E 0 95 51 64
        E 226 85 41 50
        E 14 b5 0a 7b
        E 0 85 4c 50
        E 0 85 51 50
        E 0 95 43 64
        E 0 95 4e 64
        E 0 95 52 64
        E 240 b5 0a 7d
        E 0 85 52 50
        E 0 85 4e 50
        E 0 95 4f 64
        E 0 95 53 64
        E 240 b5 0a 7f
        E 0 85 53 50
        E 0 85 4f 50
        E 0 95 58 64
        E 0 95 45 64
        E 14 85 43 50
        E 226 b5 0a 7d
        E 0 85 58 50
        E 0 95 57 64
        E 240 b5 0a 7b
        E 0 85 57 50
        E 0 95 54 64
        E 220 85 45 50
        E 20 b5 0a 79
        E 0 85 54 50
        E 0 95 51 64
        E 0 95 43 64
        E 240 b5 0a 77
        E 0 85 51 50
        E 0 95 56 64
        E 240 b5 0a 75
        E 0 85 43 50
        E 0 85 56 50
        E 0 95 54 64
        E 0 95 43 64
        E 240 b5 0a 73
        E 0 85 43 50
        E 0 85 54 50
        E 0 95 51 64
        E 0 95 45 64
        E 240 b5 0a 71
        E 0 85 51 50
        E 0 95 4f 64
        E 240 b5 0a 6f
        E 0 85 4f 50
        E 0 95 4c 64
        E 0 95 48 64
        E 14 85 45 50
        E 226 b5 0a 6d
        E 0 85 4c 50
        E 0 85 48 50
        E 0 95 4b 64
        E 0 95 47 64
        E 240 b5 0a 6b
        E 0 85 47 50
        E 0 85 4b 50
        E 0 95 4a 64
        E 0 95 45 64
        E 240 b5 0a 69
        E 0 85 45 50
        E 0 85 4a 50
        E 0 95 48 64
        E 0 95 43 64
        E 240 b5 0a 67
        E 0 85 43 50
        E 0 85 48 50
        E 0 95 4a 64
        E 0 95 4e 64
        E 240 b5 0a 65
        E 0 85 4e 50
        E 0 85 4a 50
        E 0 95 48 64
        E 0 95 4c 64
        E 240 b5 0a 63
        E 0 85 48 50
        E 0 95 45 64
        E 240 b5 0a 61
        E 0 85 45 50
        E 0 95 43 64
        E 240 b5 0a 5f
        E 0 85 43 50
        E 0 95 45 64
        E 0 95 58 64
        E 8 85 4c 50
        E 232 b5 0a 5d
        E 0 85 58 50
        E 0 95 57 64
        E 240 b5 0a 5b
        E 0 85 57 50
        E 0 95 54 64
        E 220 85 45 50
        E 20 b5 0a 59
        E 0 85 54 50
        E 0 95 51 64
        E 0 95 43 64
        E 240 b5 0a 57
        E 0 85 51 50
        E 0 95 56 64
        E 240 b5 0a 55
        E 0 85 43 50
        E 0 85 56 50
        E 0 95 54 64
        E 0 95 43 64
        E 240 b5 0a 53
        E 0 85 43 50
        E 0 85 54 50
        E 0 95 51 64
        E 0 95 45 64
        E 240 b5 0a 51
        E 0 85 51 50
        E 0 95 4f 64
        E 240 b5 0a 4f
        E 0 85 4f 50
        E 0 95 4c 64
        E 0 95 48 64
        E 14 85 45 50
        E 226 b5 0a 4d
        E 0 85 4c 50
        E 0 85 48 50
        E 0 95 4b 64
        E 0 95 47 64
        E 240 b5 0a 4b
        E 0 85 47 50
        E 0 85 4b 50
        E 0 95 4a 64
        E 0 95 45 64
        E 240 b5 0a 49
        E 0 85 45 50
        E 0 85 4a 50
        E 0 95 48 64
        E 0 95 43 64
        E 240 b5 0a 47
        E 0 85 43 50
        E 0 85 48 50
        E 0 95 4a 64
        E 0 95 4e 64
        E 240 b5 0a 45
        E 0 85 4e 50
        E 0 85 4a 50
        E 0 95 48 64
        E 0 95 4c 64
        E 240 b5 0a 43
        E 0 85 48 50
        E 0 95 45 64
        E 240 b5 0a 41
        E 0 85 45 50
        E 0 95 43 64
        E 240 e5 00 00
        E 0 b5 0a 40
        E 0 85 43 50
        E 0 95 51 64
        E 0 95 45 64
        E 8 85 4c 50
        E 32 e5 14 0b
        E 40 e5 32 26
        E 40 e5 6d 33
        E 40 e5 61 39
        E 40 e5 2d 3e
        E 40 e5 00 40
        E 0 b5 0a 3e
        E 240 b5 0a 3c
        E 240 b5 0a 3a
        E 240 b5 0a 38
        E 0 85 51 50
        E 0 95 4f 64
        E 240 b5 0a 36
        E 240 b5 0a 34
        E 220 85 4f 50
        E 20 b5 0a 32
        E 0 95 51 64
        E 240 b5 0a 30
        E 240 b5 0a 2e
        E 0 85 51 50
        E 240 b5 0a 2c
        E 240 b5 0a 2a
        E 0 95 4c 64
        E 240 b5 0a 28
        E 0 85 4c 50
        E 0 85 45 50
        E 0 95 4d 64
        E 0 95 43 64
        E 240 b5 0a 26
        E 0 85 43 50
        E 0 85 4d 50
        E 0 95 4f 64
        E 0 95 45 64
        E 240 b5 0a 24
        E 0 85 45 50
        E 0 85 4f 50
        E 0 95 51 64
        E 0 95 43 64
        E 240 b5 0a 22
        E 0 85 43 50
        E 0 85 51 50
        E 0 95 45 64
        E 0 95 40 64
        E 240 e5 00 00
        E 0 b5 0a 20
        E 0 85 40 50
        E 0 85 45 50
        E 0 95 4f 64
        E 0 95 43 64
        E 40 e5 14 0b
        E 40 e5 32 26
        E 40 e5 6d 33
        E 40 e5 61 39
        E 40 e5 2d 3e
        E 40 e5 00 40
        E 0 b5 0a 1e
        E 240 b5 0a 1c
        E 240 b5 0a 1a
        E 240 b5 0a 18
        E 0 85 4f 50
        E 0 95 4e 64
        E 240 b5 0a 16
        E 240 b5 0a 14
        E 220 85 4e 50
        E 20 b5 0a 12
        E 0 95 4f 64
        E 240 b5 0a 10
        E 240 b5 0a 0e
        E 0 85 4f 50
        E 240 b5 0a 0c
        E 240 b5 0a 0a
        E 0 95 4a 64
        E 240 b5 0a 08
        E 0 85 4a 50
        E 0 85 43 50
        E 0 95 4c 64
        E 0 95 3e 64
        E 240 b5 0a 06
        E 0 85 3e 50
        E 0 85 4c 50
        E 0 95 4e 64
        E 0 95 43 64
        E 240 b5 0a 04
        E 0 85 43 50
        E 0 85 4e 50
        E 0 95 4f 64
        E 0 95 41 64
        E 240 b5 0a 02
        E 0 85 41 50
        E 0 85 4f 50
        E 0 95 42 64
        E 0 95 40 64
        E 240 e5 00 00
        E 0 85 40 50
        E 0 85 42 50
        E 0 95 4d 64
        E 0 95 41 64
        E 40 e5 14 0b
        E 40 e5 32 26
        E 40 e5 6d 33
        E 40 e5 61 39
        E 40 e5 2d 3e
        E 40 e5 00 40
        E 0 b5 0a 02
        E 240 b5 0a 04
        E 240 b5 0a 06
        E 240 b5 0a 08
        E 0 85 4d 50
        E 0 95 4c 64
        E 240 b5 0a 0a
        E 240 b5 0a 0c
        E 220 85 4c 50
        E 20 b5 0a 0e
        E 0 95 4d 64
        E 240 b5 0a 10
        E 240 b5 0a 12
        E 0 85 4d 50
        E 240 b5 0a 14
        E 240 b5 0a 16
        E 0 95 48 64
        E 240 b5 0a 18
        E 0 85 48 50
        E 0 85 41 50
        E 0 95 4a 64
        E 0 95 41 64
        E 240 b5 0a 1a
        E 0 85 41 50
        E 0 85 4a 50
        E 0 95 4c 64
        E 0 95 45 64
        E 240 b5 0a 1c
        E 0 85 45 50
        E 0 85 4c 50
        E 0 95 4d 64
        E 0 95 43 64
        E 240 b5 0a 1e
        E 0 85 43 50
        E 0 85 4d 50
        E 0 95 41 64
        E 240 b5 0a 20
        E 0 85 41 50
        E 0 95 4c 64
        E 0 95 40 64
        E 240 b5 0a 22
        E 0 85 40 50
        E 0 95 44 64
        E 240 b5 0a 24
        E 0 85 44 50
        E 0 95 47 64
        E 220 85 4c 50
        E 20 b5 0a 26
        E 0 85 47 50
        E 0 95 50 64
        E 0 95 44 64
        E 240 b5 0a 28
        E 0 85 44 50
        E 0 95 47 64
        E 240 b5 0a 2a
        E 0 85 47 50
        E 0 95 4c 64
        E 240 b5 0a 2c
        E 0 85 4c 50
        E 0 95 53 64
        E 0 95 47 64
        E 6 85 50 50
        E 234 b5 0a 2e
        E 0 85 47 50
        E 0 95 44 64
        E 240 b5 0a 30
        E 0 85 44 50
        E 0 95 40 64
        E 240 b5 0a 32
        E 0 85 40 50
        E 0 95 56 64
        E 0 95 44 64
        E 6 85 53 50
        E 234 b5 0a 34
        E 0 85 44 50
        E 0 95 47 64
        E 240 b5 0a 36
        E 0 85 47 50
        E 0 95 44 64
        E 240 b5 0a 38
        E 0 85 44 50
        E 0 95 58 64
        E 0 95 47 64
        E 8 85 56 50
        E 232 b5 0a 3a
        E 0 85 47 50
        E 0 95 4c 64
        E 240 b5 0a 3c
        E 0 85 4c 50
        E 0 95 4a 64
        E 240 b5 0a 3e
        E 0 85 4a 50
        E 0 95 47 64
        E 240 b5 0a 40
        E 0 85 58 50
        E 0 85 47 50
        E 0 95 4d 64
        E 0 95 41 64
        E 0 95 48 64
        E 240 b5 0a 41
        E 0 85 48 50
        E 0 85 41 50
        E 0 85 4d 50
        E 0 95 41 64
        E 0 95 4d 64
        E 0 95 48 64
        E 240 b5 0a 43
        E 0 85 41 50
        E 240 b5 0a 45
        E 0 85 4d 50
        E 0 85 48 50
        E 0 95 40 64
        E 0 95 4c 64
        E 0 95 47 64
        E 240 b5 0a 47
        E 0 85 47 50
        E 0 85 4c 50
        E 0 85 40 50
        E 0 95 40 64
        E 0 95 4c 64
        E 0 95 47 64
        E 240 b5 0a 49
        E 0 85 40 50
        E 240 b5 0a 4b
        E 0 85 4c 50
        E 0 85 47 50
        E 0 95 3e 64
        E 0 95 4a 64
        E 0 95 45 64
        E 240 b5 0a 4d
        E 0 85 45 50
        E 0 85 4a 50
        E 0 85 3e 50
        E 0 95 3e 64
        E 0 95 4a 64
        E 0 95 45 64
        E 240 b5 0a 4f
        E 0 85 3e 50
        E 240 b5 0a 51
        E 0 85 4a 50
        E 0 85 45 50
        E 0 95 3c 64
        E 0 95 48 64
        E 0 95 43 64
        E 240 b5 0a 53
        E 0 85 43 50
        E 0 85 48 50
        E 0 85 3c 50
        E 0 95 3c 64
        E 0 95 48 64
        E 0 95 43 64
        E 240 b5 0a 55
        E 0 85 3c 50
        E 240 b5 0a 57
        E 0 85 48 50
        E 0 85 43 50
        E 0 95 3b 64
        E 0 95 47 64
        E 0 95 42 64
        E 240 b5 0a 59
        E 226 85 42 50
        E 0 85 47 50
        E 0 85 3b 50
        E 14 b5 0a 5b
        E 0 95 3c 64
        E 0 95 43 64
        E 0 95 48 64
        E 240 b5 0a 5d
        E 240 b5 0a 5f
        E 0 85 48 50
        E 0 95 41 64
        E 0 95 4d 64
        E 0 95 48 64
        E 14 85 43 50
        E 0 85 3c 50
        E 226 b5 0a 61
        E 0 85 41 50
        E 0 85 4d 50
        E 0 85 48 50
        E 0 95 41 64
        E 0 95 4d 64
        E 0 95 48 64
        E 240 b5 0a 63
        E 0 85 41 50
        E 240 b5 0a 65
        E 0 85 4d 50
        E 0 85 48 50
        E 0 95 40 64
        E 0 95 4c 64
        E 0 95 47 64
        E 240 b5 0a 67
        E 0 85 47 50
        E 0 85 4c 50
        E 0 85 40 50
        E 0 95 40 64
        E 0 95 4c 64
        E 0 95 47 64
        E 240 b5 0a 69
        E 0 85 40 50
        E 240 b5 0a 6b
        E 0 85 4c 50
        E 0 85 47 50
        E 0 95 3e 64
        E 0 95 4a 64
        E 0 95 45 64
        E 240 b5 0a 6d
        E 0 85 45 50
        E 0 85 4a 50
        E 0 85 3e 50
        E 0 95 3e 64
        E 0 95 4a 64
        E 0 95 45 64
        E 240 b5 0a 6f
        E 0 85 3e 50
        E 240 b5 0a 71
        E 0 85 4a 50
        E 0 85 45 50
        E 0 95 3c 64
        E 0 95 48 64
        E 0 95 43 64
        E 240 b5 0a 73
        E 0 85 43 50
        E 0 85 48 50
        E 0 85 3c 50
        E 0 95 3c 64
        E 0 95 48 64
        E 0 95 43 64
        E 240 b5 0a 75
        E 0 85 3c 50
        E 240 b5 0a 77
        E 0 85 48 50
        E 0 85 43 50
        E 0 95 3b 64
        E 0 95 47 64
        E 0 95 42 64
        E 240 b5 0a 79
        E 226 85 42 50
        E 0 85 47 50
        E 0 85 3b 50
        E 14 b5 0a 7b
        E 0 95 3c 64
        E 0 95 48 64
        E 0 95 43 64
        E 240 b5 0a 7d
        E 240 b5 0a 3f
        E 0 85 43 50
        E 0 95 3e 64
        E 0 95 45 64
        E 0 95 4a 64
        E 14 85 48 50
        E 0 85 3c 50
        E 2866 85 3e 50
        E 0 85 45 50
        E 0 85 4a 50
        E 0 95 41 64
        E 0 95 48 64
        E 0 95 4d 64
        E 240 85 4d 50
        E 0 85 48 50
        E 0 85 41 50
        E 0 95 43 64
        E 0 95 4a 64
        E 0 95 4f 64
        E 240 85 4f 50
        E 0 85 4a 50
        E 0 85 43 50
        E 0 95 45 64
        E 0 95 4c 64
        E 0 95 51 64
        E 240 85 51 50
        E 0 85 4c 50
        E 0 85 45 50
        E 0 95 47 64
        E 0 95 4e 64
        E 0 95 53 64
        E 240 85 53 50
        E 0 85 4e 50
        E 0 85 47 50
        E 0 95 43 64
        E 0 95 4f 64
        E 0 95 4c 64
        E 240 85 4c 50
        E 0 85 4f 50
        E 0 85 43 50
        E 0 95 43 64
        E 0 95 4f 64
        E 0 95 4c 64
        E 240 85 43 50
        E 240 85 4f 50
        E 0 85 4c 50
        E 0 95 4f 64
        E 0 95 43 64
        E 0 95 4c 64
        E 240 85 4c 50
        E 0 85 43 50
        E 0 85 4f 50
        E 0 95 43 64
        E 0 95 4f 64
        E 0 95 4c 64
        E 240 85 43 50
        E 240 85 4f 50
        E 0 85 4c 50
        E 0 95 4c 64
        E 0 95 4f 64
        E 0 95 43 64
        E 240 85 43 50
        E 0 85 4f 50
        E 0 85 4c 50
        E 0 95 43 64
        E 0 95 4f 64
        E 0 95 4c 64
        E 240 85 43 50
        E 240 85 4f 50
        E 0 85 4c 50
        E 0 95 4f 64
        E 0 95 43 64
        E 0 95 4c 64
        E 240 85 4c 50
        E 0 85 43 50
        E 0 85 4f 50
        E 0 95 43 64
        E 0 95 4f 64
        E 0 95 4c 64
        E 240 85 43 50
        E 240 85 4f 50
        E 0 85 4c 50
        E 0 95 4c 64
        E 0 95 47 64
        E 0 95 40 64
        E 960 e5 00 40
        E 0 b5 06 01
        E 0 e5 00 00
        E 0 b5 0a 7f
        E 0 85 40 50
        E 0 85 47 50
        E 0 85 4c 50
        E 0 95 45 64
        E 0 95 40 64
        E 40 e5 14 0b
        E 40 e5 32 26
        E 40 e5 6d 33
        E 40 e5 61 39
        E 40 e5 2d 3e
        E 40 e5 00 40
        E 0 b5 0a 7d
        E 240 b5 0a 7b
        E 240 b5 0a 79
        E 240 e5 00 00
        E 0 b5 0a 77
        E 0 85 40 50
        E 0 85 45 50
        E 0 95 3e 64
        E 0 95 43 64
        E 40 e5 14 0b
        E 40 e5 32 26
        E 40 e5 6d 33
        E 40 e5 61 39
        E 40 e5 2d 3e
        E 40 e5 00 40
        E 0 b5 0a 75
        E 240 b5 0a 73
        E 220 85 43 50
        E 0 85 3e 50
        E 20 e5 00 00
        E 0 b5 0a 71
        E 0 95 45 64
        E 0 95 40 64
        E 40 e5 14 0b
        E 40 e5 32 26
        E 40 e5 6d 33
        E 40 e5 61 39
        E 40 e5 2d 3e
        E 40 e5 00 40
        E 0 b5 0a 6f
        E 240 b5 0a 6d
        E 0 85 40 50
        E 0 85 45 50
        E 240 b5 0a 6b
        E 240 b5 0a 69
        E 0 95 40 64
        E 0 95 3b 64
        E 240 b5 0a 67
        E 0 85 3b 50
        E 0 85 40 50
        E 0 95 41 64
        E 0 95 3c 64
        E 240 b5 0a 65
        E 0 85 3c 50
        E 0 85 41 50
        E 0 95 43 64
        E 0 95 3e 64
        E 240 b5 0a 63
        E 0 85 3e 50
        E 0 85 43 50
        E 0 95 45 64
        E 0 95 40 64
        E 240 b5 0a 61
        E 0 85 40 50
        E 0 85 45 50
        E 0 95 39 64
        E 240 e5 00 00
        E 0 b5 0a 5f
        E 0 85 39 50
        E 0 95 40 64
        E 0 95 45 64
        E 40 e5 14 0b
        E 40 e5 32 26
        E 40 e5 6d 33
        E 40 e5 61 39
        E 40 e5 2d 3e
        E 40 e5 00 40
        E 0 b5 0a 5d
        E 240 b5 0a 5b
        E 240 b5 0a 59
        E 240 e5 00 00
        E 0 b5 0a 57
        E 0 85 45 50
        E 0 85 40 50
        E 0 95 3e 64
        E 0 95 43 64
        E 40 e5 14 0b
        E 40 e5 32 26
        E 40 e5 6d 33
        E 40 e5 61 39
        E 40 e5 2d 3e
        E 40 e5 00 40
        E 0 b5 0a 55
        E 240 b5 0a 53
        E 220 85 43 50
        E 0 85 3e 50
        E 20 e5 00 00
        E 0 b5 0a 51
        E 0 95 45 64
        E 0 95 40 64
        E 40 e5 14 0b
        E 40 e5 32 26
        E 40 e5 6d 33
        E 40 e5 61 39
        E 40 e5 2d 3e
        E 40 e5 00 40
        E 0 b5 0a 4f
        E 240 b5 0a 4d
        E 0 85 40 50
        E 0 85 45 50
        E 240 b5 0a 4b
        E 240 b5 0a 49
        E 0 95 40 64
        E 0 95 3b 64
        E 240 b5 0a 47
        E 0 85 3b 50
        E 0 85 40 50
        E 0 95 3c 64
        E 0 95 41 64
        E 240 b5 0a 45
        E 0 85 41 50
        E 0 85 3c 50
        E 0 95 3e 64
        E 0 95 43 64
        E 240 b5 0a 43
        E 0 85 43 50
        E 0 85 3e 50
        E 0 95 40 64
        E 0 95 45 64
        E 240 b5 0a 41
        E 0 85 45 50
        E 0 85 40 50
        E 0 95 39 64
        E 240 e5 00 00
        E 0 b5 0a 40
        E 0 85 39 50
        E 0 95 43 64
        E 0 95 3e 64
        E 40 e5 14 0b
        E 40 e5 32 26
        E 40 e5 6d 33
        E 40 e5 61 39
        E 40 e5 2d 3e
        E 40 e5 00 40
        E 0 b5 0a 3e
        E 240 b5 0a 3c
        E 240 b5 0a 3a
        E 240 e5 00 00
        E 0 b5 0a 38
        E 0 85 3e 50
        E 0 85 43 50
        E 0 95 42 64
        E 0 95 3d 64
        E 40 e5 14 0b
        E 40 e5 32 26
        E 40 e5 6d 33
        E 40 e5 61 39
        E 40 e5 2d 3e
        E 40 e5 00 40
        E 0 b5 0a 36
        E 240 b5 0a 34
        E 220 85 3d 50
        E 0 85 42 50
        E 20 e5 00 00
        E 0 b5 0a 32
        E 0 95 43 64
        E 0 95 3e 64
        E 40 e5 14 0b
        E 40 e5 32 26
        E 40 e5 6d 33
        E 40 e5 61 39
        E 40 e5 2d 3e
        E 40 e5 00 40
        E 0 b5 0a 30
        E 240 b5 0a 2e
        E 0 85 3e 50
        E 0 85 43 50
        E 240 b5 0a 2c
        E 240 b5 0a 2a
        E 0 95 39 64
        E 0 95 3e 64
        E 240 b5 0a 28
        E 0 85 3e 50
        E 0 85 39 50
        E 0 95 40 64
        E 0 95 3b 64
        E 240 b5 0a 26
        E 0 85 3b 50
        E 0 85 40 50
        E 0 95 42 64
        E 0 95 3d 64
        E 240 b5 0a 24
        E 0 85 3d 50
        E 0 85 42 50
        E 0 95 3e 64
        E 0 95 43 64
        E 240 b5 0a 22
        E 0 85 43 50
        E 0 85 3e 50
        E 0 95 37 64
        E 240 e5 00 00
        E 0 b5 0a 20
        E 0 85 37 50
        E 0 95 3e 64
        E 0 95 43 64
        E 40 e5 14 0b
        E 40 e5 32 26
        E 40 e5 6d 33
        E 40 e5 61 39
        E 40 e5 2d 3e
        E 40 e5 00 40
        E 0 b5 0a 1e
        E 240 b5 0a 1c
        E 240 b5 0a 1a
        E 240 e5 00 00
        E 0 b5 0a 18
        E 0 85 43 50
        E 0 85 3e 50
        E 0 95 42 64
        E 0 95 3d 64
        E 40 e5 14 0b
        E 40 e5 32 26
        E 40 e5 6d 33
        E 40 e5 61 39
        E 40 e5 2d 3e
        E 40 e5 00 40
        E 0 b5 0a 16
        E 240 b5 0a 14
        E 220 85 3d 50
        E 0 85 42 50
        E 20 e5 00 00
        E 0 b5 0a 12
        E 0 95 43 64
        E 0 95 3e 64
        E 40 e5 14 0b
        E 40 e5 32 26
        E 40 e5 6d 33
        E 40 e5 61 39
        E 40 e5 2d 3e
        E 40 e5 00 40
        E 0 b5 0a 10
        E 240 b5 0a 0e
        E 0 85 3e 50
        E 0 85 43 50
        E 240 b5 0a 0c
        E 240 b5 0a 0a
        E 0 95 39 64
        E 0 95 3e 64
        E 240 b5 0a 08
        E 0 85 3e 50
        E 0 85 39 50
        E 0 95 40 64
        E 0 95 3b 64
        E 240 b5 0a 06
        E 0 85 3b 50
        E 0 85 40 50
        E 0 95 42 64
        E 0 95 3d 64
        E 240 b5 0a 04
        E 0 85 3d 50
        E 0 85 42 50
        E 0 95 3e 64
        E 0 95 43 64
        E 240 b5 0a 02
        E 0 85 43 50
        E 0 85 3e 50
        E 0 95 37 64
        E 240 e5 00 00
        E 0 85 37 50
        E 0 95 40 64
        E 0 95 45 64
        E 40 e5 14 0b
        E 40 e5 32 26
        E 40 e5 6d 33
        E 40 e5 61 39
        E 40 e5 2d 3e
        E 40 e5 00 40
        E 0 b5 0a 02
        E 240 b5 0a 04
        E 240 b5 0a 06
        E 240 e5 00 00
        E 0 b5 0a 08
        E 0 85 45 50
        E 0 85 40 50
        E 0 95 3e 64
        E 0 95 43 64
        E 40 e5 14 0b
        E 40 e5 32 26
        E 40 e5 6d 33
        E 40 e5 61 39
        E 40 e5 2d 3e
        E 40 e5 00 40
        E 0 b5 0a 0a
        E 240 b5 0a 0c
        E 220 85 43 50
        E 0 85 3e 50
        E 20 e5 00 00
        E 0 b5 0a 0e
        E 0 95 45 64
        E 0 95 40 64
        E 40 e5 14 0b
        E 40 e5 32 26
        E 40 e5 6d 33
        E 40 e5 61 39
        E 40 e5 2d 3e
        E 40 e5 00 40
        E 0 b5 0a 10
        E 240 b5 0a 12
        E 0 85 40 50
        E 0 85 45 50
        E 240 b5 0a 14
        E 240 b5 0a 16
        E 0 95 40 64
        E 0 95 3b 64
        E 240 b5 0a 18
        E 0 85 3b 50
        E 0 85 40 50
        E 0 95 41 64
        E 0 95 3c 64
        E 240 b5 0a 1a
        E 0 85 3c 50
        E 0 85 41 50
        E 0 95 43 64
        E 0 95 3e 64
        E 240 b5 0a 1c
        E 0 85 3e 50
        E 0 85 43 50
        E 0 95 45 64
        E 0 95 40 64
        E 240 b5 0a 1e
        E 0 85 40 50
        E 0 85 45 50
        E 0 95 39 64
        E 240 e5 00 00
        E 0 b5 0a 20
        E 0 85 39 50
        E 0 95 40 64
        E 0 95 45 64
        E 40 e5 14 0b
        E 40 e5 32 26
        E 40 e5 6d 33
        E 40 e5 61 39
        E 40 e5 2d 3e
        E 40 e5 00 40
        E 0 b5 0a 22
        E 240 b5 0a 24
        E 240 b5 0a 26
        E 240 e5 00 00
        E 0 b5 0a 28
        E 0 85 45 50
        E 0 85 40 50
        E 0 95 3e 64
        E 0 95 43 64
        E 40 e5 14 0b
        E 40 e5 32 26
        E 40 e5 6d 33
        E 40 e5 61 39
        E 40 e5 2d 3e
        E 40 e5 00 40
        E 0 b5 0a 2a
        E 240 b5 0a 2c
        E 220 85 43 50
        E 0 85 3e 50
        E 20 e5 00 00
        E 0 b5 0a 2e
        E 0 95 45 64
        E 0 95 40 64
        E 40 e5 14 0b
        E 40 e5 32 26
        E 40 e5 6d 33
        E 40 e5 61 39
        E 40 e5 2d 3e
        E 40 b5 0a 30
        E 240 b5 0a 32
        E 0 85 40 50
        E 0 85 45 50
        E 0 95 42 64
        E 6 95 3d 64
        E 234 b5 0a 34
        E 228 85 42 50
        E 12 b5 0a 36
        E 0 95 43 64
        E 6 95 3e 64
        E 14 85 3d 50
        E 220 b5 0a 38
        E 232 85 3e 50
        E 8 b5 0a 3a
        E 0 95 44 64
        E 6 95 3f 64
        E 6 85 43 50
        E 228 b5 0a 3c
        E 228 85 44 50
        E 12 b5 0a 3e
        E 0 95 45 64
        E 0 95 40 64
        E 20 85 3f 50
        E 220 b5 0a 40
        E 0 85 45 50
        E 0 85 40 50
        E 0 95 41 64
        E 0 95 48 64
        E 240 b5 0a 41
        E 240 b5 0a 43
        E 240 b5 0a 45
        E 240 b5 0a 47
        E 0 85 48 50
        E 0 85 41 50
        E 0 95 40 64
        E 0 95 47 64
        E 240 b5 0a 49
        E 226 85 40 50
        E 14 b5 0a 4b
        E 0 95 40 64
        E 220 85 47 50
        E 20 b5 0a 4d
        E 0 85 40 50
        E 0 95 41 64
        E 0 95 48 64
        E 240 b5 0a 4f
        E 240 b5 0a 51
        E 0 85 41 50
        E 0 95 45 64
        E 0 95 41 64
        E 12 85 48 50
        E 108 85 45 50
        E 0 95 46 64
        E 120 b5 0a 53
        E 0 85 46 50
        E 0 95 47 64
        E 120 85 47 50
        E 0 95 48 64
        E 120 b5 0a 55
        E 0 85 41 50
        E 0 95 41 64
        E 240 b5 0a 57
        E 0 85 41 50
        E 0 95 40 64
        E 240 b5 0a 59
        E 226 85 40 50
        E 14 b5 0a 5b
        E 0 95 41 64
        E 240 b5 0a 5d
        E 240 b5 0a 5f
        E 0 95 43 64
        E 0 95 53 64
        E 0 95 4f 64
        E 4 85 48 50
        E 10 85 41 50
        E 226 b5 0a 61
        E 240 b5 0a 63
        E 240 b5 0a 65
        E 240 b5 0a 67
        E 0 85 43 50
        E 0 95 41 64
        E 240 b5 0a 69
        E 226 85 41 50
        E 14 b5 0a 6b
        E 0 95 41 64
        E 240 b5 0a 6d
        E 0 85 41 50
        E 0 95 43 64
        E 240 b5 0a 6f
        E 240 b5 0a 71
        E 0 85 43 50
        E 0 95 43 64
        E 240 b5 0a 73
        E 240 b5 0a 75
        E 0 85 43 50
        E 0 95 43 64
        E 240 b5 0a 77
        E 0 85 53 50
        E 0 85 4f 50
        E 0 85 43 50
        E 0 95 41 64
        E 0 95 4a 64
        E 0 95 4f 64
        E 240 b5 0a 79
        E 0 85 4f 50
        E 0 85 4a 50
        E 0 95 4c 64
        E 0 95 51 64
        E 226 85 41 50
        E 14 b5 0a 7b
        E 0 85 4c 50
        E 0 85 51 50
        E 0 95 43 64
        E 0 95 4e 64
        E 0 95 52 64
        E 240 b5 0a 7d
        E 0 85 52 50
        E 0 85 4e 50
        E 0 95 4f 64
        E 0 95 53 64
        E 240 b5 0a 7f
        E 0 85 53 50
        E 0 85 4f 50
        E 0 95 58 64
        E 0 95 45 64
        E 14 85 43 50
        E 226 b5 0a 7d
        E 0 85 58 50
        E 0 95 57 64
        E 240 b5 0a 7b
        E 0 85 57 50
        E 0 95 54 64
        E 220 85 45 50
        E 20 b5 0a 79
        E 0 85 54 50
        E 0 95 51 64
        E 0 95 43 64
        E 240 b5 0a 77
        E 0 85 51 50
        E 0 95 56 64
        E 240 b5 0a 75
        E 0 85 43 50
        E 0 85 56 50
        E 0 95 54 64
        E 0 95 43 64
        E 240 b5 0a 73
        E 0 85 43 50
        E 0 85 54 50
        E 0 95 51 64
        E 0 95 45 64
        E 240 b5 0a 71
        E 0 85 51 50
        E 0 95 4f 64
        E 240 b5 0a 6f
        E 0 85 4f 50
        E 0 95 4c 64
        E 0 95 48 64
        E 14 85 45 50
        E 226 b5 0a 6d
        E 0 85 4c 50
        E 0 85 48 50
        E 0 95 4b 64
        E 0 95 47 64
        E 240 b5 0a 6b
        E 0 85 47 50
        E 0 85 4b 50
        E 0 95 4a 64
        E 0 95 45 64
        E 240 b5 0a 69
        E 0 85 45 50
        E 0 85 4a 50
        E 0 95 48 64
        E 0 95 43 64
        E 240 b5 0a 67
        E 0 85 43 50
        E 0 85 48 50
        E 0 95 4a 64
        E 0 95 4e 64
        E 240 b5 0a 65
        E 0 85 4e 50
        E 0 85 4a 50
        E 0 95 48 64
        E 0 95 4c 64
        E 240 b5 0a 63
        E 0 85 48 50
        E 0 95 45 64
        E 240 b5 0a 61
        E 0 85 45 50
        E 0 95 43 64
        E 240 b5 0a 5f
        E 0 85 43 50
        E 0 95 45 64
        E 0 95 58 64
        E 8 85 4c 50
        E 232 b5 0a 5d
        E 0 85 58 50
        E 0 95 57 64
        E 240 b5 0a 5b
        E 0 85 57 50
        E 0 95 54 64
        E 220 85 45 50
        E 20 b5 0a 59
        E 0 85 54 50
        E 0 95 51 64
        E 0 95 43 64
        E 240 b5 0a 57
        E 0 85 51 50
        E 0 95 56 64
        E 240 b5 0a 55
        E 0 85 43 50
        E 0 85 56 50
        E 0 95 54 64
        E 0 95 43 64
        E 240 b5 0a 53
        E 0 85 43 50
        E 0 85 54 50
        E 0 95 51 64
        E 0 95 45 64
        E 240 b5 0a 51
        E 0 85 51 50
        E 0 95 4f 64
        E 240 b5 0a 4f
        E 0 85 4f 50
        E 0 95 4c 64
        E 0 95 48 64
        E 14 85 45 50
        E 226 b5 0a 4d
        E 0 85 4c 50
        E 0 85 48 50
        E 0 95 4b 64
        E 0 95 47 64
        E 240 b5 0a 4b
        E 0 85 47 50
        E 0 85 4b 50
        E 0 95 4a 64
        E 0 95 45 64
        E 240 b5 0a 49
        E 0 85 45 50
        E 0 85 4a 50
        E 0 95 48 64
        E 0 95 43 64
        E 240 b5 0a 47
        E 0 85 43 50
        E 0 85 48 50
        E 0 95 4a 64
        E 0 95 4e 64
        E 240 b5 0a 45
        E 0 85 4e 50
        E 0 85 4a 50
        E 0 95 48 64
        E 0 95 4c 64
        E 240 b5 0a 43
        E 0 85 48 50
        E 0 95 45 64
        E 240 b5 0a 41
        E 0 85 45 50
        E 0 95 43 64
        E 240 e5 00 00
        E 0 b5 0a 40
        E 0 85 43 50
        E 0 95 51 64
        E 0 95 45 64
        E 8 85 4c 50
        E 32 e5 14 0b
        E 40 e5 32 26
        E 40 e5 6d 33
        E 40 e5 61 39
        E 40 e5 2d 3e
        E 40 e5 00 40
        E 0 b5 0a 3e
        E 240 b5 0a 3c
        E 240 b5 0a 3a
        E 240 b5 0a 38
        E 0 85 51 50
        E 0 95 4f 64
        E 240 b5 0a 36
        E 240 b5 0a 34
        E 220 85 4f 50
        E 20 b5 0a 32
        E 0 95 51 64
        E 240 b5 0a 30
        E 240 b5 0a 2e
        E 0 85 51 50
        E 240 b5 0a 2c
        E 240 b5 0a 2a
        E 0 95 4c 64
        E 240 b5 0a 28
        E 0 85 4c 50
        E 0 85 45 50
        E 0 95 4d 64
        E 0 95 43 64
        E 240 b5 0a 26
        E 0 85 43 50
        E 0 85 4d 50
        E 0 95 4f 64
        E 0 95 45 64
        E 240 b5 0a 24
        E 0 85 45 50
        E 0 85 4f 50
        E 0 95 51 64
        E 0 95 43 64
        E 240 b5 0a 22
        E 0 85 43 50
        E 0 85 51 50
        E 0 95 45 64
        E 0 95 40 64
        E 240 e5 00 00
        E 0 b5 0a 20
        E 0 85 40 50
        E 0 85 45 50
        E 0 95 4f 64
        E 0 95 43 64
        E 40 e5 14 0b
        E 40 e5 32 26
        E 40 e5 6d 33
        E 40 e5 61 39
        E 40 e5 2d 3e
        E 40 e5 00 40
        E 0 b5 0a 1e
        E 240 b5 0a 1c
        E 240 b5 0a 1a
        E 240 b5 0a 18
        E 0 85 4f 50
        E 0 95 4e 64
        E 240 b5 0a 16
        E 240 b5 0a 14
        E 220 85 4e 50
        E 20 b5 0a 12
        E 0 95 4f 64
        E 240 b5 0a 10
        E 240 b5 0a 0e
        E 0 85 4f 50
        E 240 b5 0a 0c
        E 240 b5 0a 0a
        E 0 95 4a 64
        E 240 b5 0a 08
        E 0 85 4a 50
        E 0 85 43 50
        E 0 95 4c 64
        E 0 95 3e 64
        E 240 b5 0a 06
        E 0 85 3e 50
        E 0 85 4c 50
        E 0 95 4e 64
        E 0 95 43 64
        E 240 b5 0a 04
        E 0 85 43 50
        E 0 85 4e 50
        E 0 95 4f 64
        E 0 95 41 64
        E 240 b5 0a 02
        E 0 85 41 50
        E 0 85 4f 50
        E 0 95 42 64
        E 0 95 40 64
        E 240 e5 00 00
        E 0 85 40 50
        E 0 85 42 50
        E 0 95 4d 64
        E 0 95 41 64
        E 40 e5 14 0b
        E 40 e5 32 26
        E 40 e5 6d 33
        E 40 e5 61 39
        E 40 e5 2d 3e
        E 40 e5 00 40
        E 0 b5 0a 02
        E 240 b5 0a 04
        E 240 b5 0a 06
        E 240 b5 0a 08
        E 0 85 4d 50
        E 0 95 4c 64
        E 240 b5 0a 0a
        E 240 b5 0a 0c
        E 220 85 4c 50
        E 20 b5 0a 0e
        E 0 95 4d 64
        E 240 b5 0a 10
        E 240 b5 0a 12
        E 0 85 4d 50
        E 240 b5 0a 14
        E 240 b5 0a 16
        E 0 95 48 64
        E 240 b5 0a 18
        E 0 85 48 50
        E 0 85 41 50
        E 0 95 4a 64
        E 0 95 41 64
        E 240 b5 0a 1a
        E 0 85 41 50
        E 0 85 4a 50
        E 0 95 4c 64
        E 0 95 45 64
        E 240 b5 0a 1c
        E 0 85 45 50
        E 0 85 4c 50
        E 0 95 4d 64
        E 0 95 43 64
        E 240 b5 0a 1e
        E 0 85 43 50
        E 0 85 4d 50
        E 0 95 41 64
        E 240 b5 0a 20
        E 0 85 41 50
        E 0 95 4c 64
        E 0 95 40 64
        E 240 b5 0a 22
        E 0 85 40 50
        E 0 95 44 64
        E 240 b5 0a 24
        E 0 85 44 50
        E 0 95 47 64
        E 220 85 4c 50
        E 20 b5 0a 26
        E 0 85 47 50
        E 0 95 50 64
        E 0 95 44 64
        E 240 b5 0a 28
        E 0 85 44 50
        E 0 95 47 64
        E 240 b5 0a 2a
        E 0 85 47 50
        E 0 95 4c 64
        E 240 b5 0a 2c
        E 0 85 4c 50
        E 0 95 53 64
        E 0 95 47 64
        E 6 85 50 50
        E 234 b5 0a 2e
        E 0 85 47 50
        E 0 95 44 64
        E 240 b5 0a 30
        E 0 85 44 50
        E 0 95 40 64
        E 240 b5 0a 32
        E 0 85 40 50
        E 0 95 56 64
        E 0 95 44 64
        E 6 85 53 50
        E 234 b5 0a 34
        E 0 85 44 50
        E 0 95 47 64
        E 240 b5 0a 36
        E 0 85 47 50
        E 0 95 44 64
        E 240 b5 0a 38
        E 0 85 44 50
        E 0 95 58 64
        E 0 95 47 64
        E 8 85 56 50
        E 232 b5 0a 3a
        E 0 85 47 50
        E 0 95 4c 64
        E 240 b5 0a 3c
        E 0 85 4c 50
        E 0 95 4a 64
        E 240 b5 0a 3e
        E 0 85 4a 50
        E 0 95 47 64
        E 240 b5 0a 40
        E 0 85 58 50
        E 0 85 47 50
        E 0 95 4d 64
        E 0 95 41 64
        E 0 95 48 64
        E 240 b5 0a 41
        E 0 85 48 50
        E 0 85 41 50
        E 0 85 4d 50
        E 0 95 41 64
        E 0 95 4d 64
        E 0 95 48 64
        E 240 b5 0a 43
        E 0 85 41 50
        E 240 b5 0a 45
        E 0 85 4d 50
        E 0 85 48 50
        E 0 95 40 64
        E 0 95 4c 64
        E 0 95 47 64
        E 240 b5 0a 47
        E 0 85 47 50
        E 0 85 4c 50
        E 0 85 40 50
        E 0 95 40 64
        E 0 95 4c 64
        E 0 95 47 64
        E 240 b5 0a 49
        E 0 85 40 50
        E 240 b5 0a 4b
        E 0 85 4c 50
        E 0 85 47 50
        E 0 95 3e 64
        E 0 95 4a 64
        E 0 95 45 64
        E 240 b5 0a 4d
        E 0 85 45 50
        E 0 85 4a 50
        E 0 85 3e 50
        E 0 95 3e 64
        E 0 95 4a 64
        E 0 95 45 64
        E 240 b5 0a 4f
        E 0 85 3e 50
        E 240 b5 0a 51
        E 0 85 4a 50
        E 0 85 45 50
        E 0 95 3c 64
        E 0 95 48 64
        E 0 95 43 64
        E 240 b5 0a 53
        E 0 85 43 50
        E 0 85 48 50
        E 0 85 3c 50
        E 0 95 3c 64
        E 0 95 48 64
        E 0 95 43 64
        E 240 b5 0a 55
        E 0 85 3c 50
        E 240 b5 0a 57
        E 0 85 48 50
        E 0 85 43 50
        E 0 95 3b 64
        E 0 95 47 64
        E 0 95 42 64
        E 240 b5 0a 59
        E 226 85 42 50
        E 0 85 47 50
        E 0 85 3b 50
        E 14 b5 0a 5b
        E 0 95 3c 64
        E 0 95 43 64
        E 0 95 48 64
        E 240 b5 0a 5d
        E 240 b5 0a 5f
        E 0 85 48 50
        E 0 95 41 64
        E 0 95 4d 64
        E 0 95 48 64
        E 14 85 43 50
        E 0 85 3c 50
        E 226 b5 0a 61
        E 0 85 41 50
        E 0 85 4d 50
        E 0 85 48 50
        E 0 95 41 64
        E 0 95 4d 64
        E 0 95 48 64
        E 240 b5 0a 63
        E 0 85 41 50
        E 240 b5 0a 65
        E 0 85 4d 50
        E 0 85 48 50
        E 0 95 40 64
        E 0 95 4c 64
        E 0 95 47 64
        E 240 b5 0a 67
        E 0 85 47 50
        E 0 85 4c 50
        E 0 85 40 50
        E 0 95 40 64
        E 0 95 4c 64
        E 0 95 47 64
        E 240 b5 0a 69
        E 0 85 40 50
        E 240 b5 0a 6b
        E 0 85 4c 50
        E 0 85 47 50
        E 0 95 3e 64
        E 0 95 4a 64
        E 0 95 45 64
        E 240 b5 0a 6d
        E 0 85 45 50
        E 0 85 4a 50
        E 0 85 3e 50
        E 0 95 3e 64
        E 0 95 4a 64
        E 0 95 45 64
        E 240 b5 0a 6f
        E 0 85 3e 50
        E 240 b5 0a 71
        E 0 85 4a 50
        E 0 85 45 50
        E 0 95 3c 64
        E 0 95 48 64
        E 0 95 43 64
        E 240 b5 0a 73
        E 0 85 43 50
        E 0 85 48 50
        E 0 85 3c 50
        E 0 95 3c 64
        E 0 95 48 64
        E 0 95 43 64
        E 240 b5 0a 75
        E 0 85 3c 50
        E 240 b5 0a 77
        E 0 85 48 50
        E 0 85 43 50
        E 0 95 3b 64
        E 0 95 47 64
        E 0 95 42 64
        E 240 b5 0a 79
        E 226 85 42 50
        E 0 85 47 50
        E 0 85 3b 50
        E 14 b5 0a 7b
        E 0 95 3c 64
        E 0 95 48 64
        E 0 95 43 64
        E 240 b5 0a 7d
        E 240 b5 0a 3f
        E 0 85 43 50
        E 0 95 3e 64
        E 0 95 45 64
        E 0 95 4a 64
        E 14 85 48 50
        E 0 85 3c 50
        E 2866 85 3e 50
        E 0 85 45 50
        E 0 85 4a 50
        E 0 95 41 64
        E 0 95 48 64
        E 0 95 4d 64
        E 240 85 4d 50
        E 0 85 48 50
        E 0 85 41 50
        E 0 95 43 64
        E 0 95 4a 64
        E 0 95 4f 64
        E 240 85 4f 50
        E 0 85 4a 50
        E 0 85 43 50
        E 0 95 45 64
        E 0 95 4c 64
        E 0 95 51 64
        E 240 85 51 50
        E 0 85 4c 50
        E 0 85 45 50
        E 0 95 47 64
        E 0 95 4e 64
        E 0 95 53 64
        E 240 85 53 50
        E 0 85 4e 50
        E 0 85 47 50
        E 0 95 43 64
        E 0 95 4f 64
        E 0 95 4c 64
        E 240 85 4c 50
        E 0 85 4f 50
        E 0 85 43 50
        E 0 95 43 64
        E 0 95 4f 64
        E 0 95 4c 64
        E 240 85 43 50
        E 240 85 4f 50
        E 0 85 4c 50
        E 0 95 4f 64
        E 0 95 43 64
        E 0 95 4c 64
        E 240 85 4c 50
        E 0 85 43 50
        E 0 85 4f 50
        E 0 95 43 64
        E 0 95 4f 64
        E 0 95 4c 64
        E 240 85 43 50
        E 240 85 4f 50
        E 0 85 4c 50
        E 0 95 4c 64
        E 0 95 4f 64
        E 0 95 43 64
        E 240 85 43 50
        E 0 85 4f 50
        E 0 85 4c 50
        E 0 95 43 64
        E 0 95 4f 64
        E 0 95 4c 64
        E 240 85 43 50
        E 240 85 4f 50
        E 0 85 4c 50
        E 0 95 4f 64
        E 0 95 43 64
        E 0 95 4c 64
        E 240 85 4c 50
        E 0 85 43 50
        E 0 85 4f 50
        E 0 95 43 64
        E 0 95 4f 64
        E 0 95 4c 64
        E 240 85 43 50
        E 240 85 4f 50
        E 0 85 4c 50
        E 0 95 4c 64
        E 0 95 47 64
        E 0 95 40 64
        E 960 e5 00 40
        E 0 b5 06 01
        E 0 e5 00 00
        E 0 b5 0a 7f
        E 0 85 40 50
        E 0 85 47 50
        E 0 85 4c 50
        E 0 95 45 64
        E 0 95 40 64
        E 40 e5 14 0b
        E 40 e5 32 26
        E 40 e5 6d 33
        E 40 e5 61 39
        E 40 e5 2d 3e
        E 40 e5 00 40
        E 0 b5 0a 7d
        E 240 b5 0a 7b
        E 240 b5 0a 79
        E 240 e5 00 00
        E 0 b5 0a 77
        E 0 85 40 50
        E 0 85 45 50
        E 0 95 3e 64
        E 0 95 43 64
        E 40 e5 14 0b
        E 40 e5 32 26
        E 40 e5 6d 33
        E 40 e5 61 39
        E 40 e5 2d 3e
        E 40 e5 00 40
        E 0 b5 0a 75
        E 240 b5 0a 73
        E 220 85 43 50
        E 0 85 3e 50
        E 20 e5 00 00
        E 0 b5 0a 71
        E 0 95 45 64
        E 0 95 40 64
        E 40 e5 14 0b
        E 40 e5 32 26
        E 40 e5 6d 33
        E 40 e5 61 39
        E 40 e5 2d 3e
        E 40 e5 00 40
        E 0 b5 0a 6f
        E 240 b5 0a 6d
        E 0 85 40 50
        E 0 85 45 50
        E 240 b5 0a 6b
        E 240 b5 0a 69
        E 0 95 40 64
        E 0 95 3b 64
        E 240 b5 0a 67
        E 0 85 3b 50
        E 0 85 40 50
        E 0 95 41 64
        E 0 95 3c 64
        E 240 b5 0a 65
        E 0 85 3c 50
        E 0 85 41 50
        E 0 95 43 64
        E 0 95 3e 64
        E 240 b5 0a 63
        E 0 85 3e 50
        E 0 85 43 50
        E 0 95 45 64
        E 0 95 40 64
        E 240 b5 0a 61
        E 0 85 40 50
        E 0 85 45 50
        E 0 95 39 64
        E 240 e5 00 00
        E 0 b5 0a 5f
        E 0 85 39 50
        E 0 95 40 64
        E 0 95 45 64
        E 40 e5 14 0b
        E 40 e5 32 26
        E 40 e5 6d 33
        E 40 e5 61 39
        E 40 e5 2d 3e
        E 40 e5 00 40
        E 0 b5 0a 5d
        E 240 b5 0a 5b
        E 240 b5 0a 59
        E 240 e5 00 00
        E 0 b5 0a 57
        E 0 85 45 50
        E 0 85 40 50
        E 0 95 3e 64
        E 0 95 43 64
        E 40 e5 14 0b
        E 40 e5 32 26
        E 40 e5 6d 33
        E 40 e5 61 39
        E 40 e5 2d 3e
        E 40 e5 00 40
        E 0 b5 0a 55
        E 240 b5 0a 53
        E 220 85 43 50
        E 0 85 3e 50
        E 20 e5 00 00
        E 0 b5 0a 51
        E 0 95 45 64
        E 0 95 40 64
        E 40 e5 14 0b
        E 40 e5 32 26
        E 40 e5 6d 33
        E 40 e5 61 39
        E 40 e5 2d 3e
        E 40 e5 00 40
        E 0 b5 0a 4f
        E 240 b5 0a 4d
        E 0 85 40 50
        E 0 85 45 50
        E 240 b5 0a 4b
        E 240 b5 0a 49
        E 0 95 40 64
        E 0 95 3b 64
        E 240 b5 0a 47
        E 0 85 3b 50
        E 0 85 40 50
        E 0 95 3c 64
        E 0 95 41 64
        E 240 b5 0a 45
        E 0 85 41 50
        E 0 85 3c 50
        E 0 95 3e 64
        E 0 95 43 64
        E 240 b5 0a 43
        E 0 85 43 50
        E 0 85 3e 50
        E 0 95 40 64
        E 0 95 45 64
        E 240 b5 0a 41
        E 0 85 45 50
        E 0 85 40 50
        E 0 95 39 64
        E 240 e5 00 00
        E 0 b5 0a 40
        E 0 85 39 50
        E 0 95 43 64
        E 0 95 3e 64
        E 40 e5 14 0b
        E 40 e5 32 26
        E 40 e5 6d 33
        E 40 e5 61 39
        E 40 e5 2d 3e
        E 40 e5 00 40
        E 0 b5 0a 3e
        E 240 b5 0a 3c
        E 240 b5 0a 3a
        E 240 e5 00 00
        E 0 b5 0a 38
        E 0 85 3e 50
        E 0 85 43 50
        E 0 95 42 64
        E 0 95 3d 64
        E 40 e5 14 0b
        E 40 e5 32 26
        E 40 e5 6d 33
        E 40 e5 61 39
        E 40 e5 2d 3e
        E 40 e5 00 40
        E 0 b5 0a 36
        E 240 b5 0a 34
        E 220 85 3d 50
        E 0 85 42 50
        E 20 e5 00 00
        E 0 b5 0a 32
        E 0 95 43 64
        E 0 95 3e 64
        E 40 e5 14 0b
        E 40 e5 32 26
        E 40 e5 6d 33
        E 40 e5 61 39
        E 40 e5 2d 3e
        E 40 e5 00 40
        E 0 b5 0a 30
        E 240 b5 0a 2e
        E 0 85 3e 50
        E 0 85 43 50
        E 240 b5 0a 2c
        E 240 b5 0a 2a
        E 0 95 39 64
        E 0 95 3e 64
        E 240 b5 0a 28
        E 0 85 3e 50
        E 0 85 39 50
        E 0 95 40 64
        E 0 95 3b 64
        E 240 b5 0a 26
        E 0 85 3b 50
        E 0 85 40 50
        E 0 95 42 64
        E 0 95 3d 64
        E 240 b5 0a 24
        E 0 85 3d 50
        E 0 85 42 50
        E 0 95 3e 64
        E 0 95 43 64
        E 240 b5 0a 22
        E 0 85 43 50
        E 0 85 3e 50
        E 0 95 37 64
        E 240 e5 00 00
        E 0 b5 0a 20
        E 0 85 37 50
        E 0 95 3e 64
        E 0 95 43 64
        E 40 e5 14 0b
        E 40 e5 32 26
        E 40 e5 6d 33
        E 40 e5 61 39
        E 40 e5 2d 3e
        E 40 e5 00 40
        E 0 b5 0a 1e
        E 240 b5 0a 1c
        E 240 b5 0a 1a
        E 240 e5 00 00
        E 0 b5 0a 18
        E 0 85 43 50
        E 0 85 3e 50
        E 0 95 42 64
        E 0 95 3d 64
        E 40 e5 14 0b
        E 40 e5 32 26
        E 40 e5 6d 33
        E 40 e5 61 39
        E 40 e5 2d 3e
        E 40 e5 00 40
        E 0 b5 0a 16
        E 240 b5 0a 14
        E 220 85 3d 50
        E 0 85 42 50
        E 20 e5 00 00
        E 0 b5 0a 12
        E 0 95 43 64
        E 0 95 3e 64
        E 40 e5 14 0b
        E 40 e5 32 26
        E 40 e5 6d 33
        E 40 e5 61 39
        E 40 e5 2d 3e
        E 40 e5 00 40
        E 0 b5 0a 10
        E 240 b5 0a 0e
        E 0 85 3e 50
        E 0 85 43 50
        E 240 b5 0a 0c
        E 240 b5 0a 0a
        E 0 95 39 64
        E 0 95 3e 64
        E 240 b5 0a 08
        E 0 85 3e 50
        E 0 85 39 50
        E 0 95 40 64
        E 0 95 3b 64
        E 240 b5 0a 06
        E 0 85 3b 50
        E 0 85 40 50
        E 0 95 42 64
        E 0 95 3d 64
        E 240 b5 0a 04
        E 0 85 3d 50
        E 0 85 42 50
        E 0 95 3e 64
        E 0 95 43 64
        E 240 b5 0a 02
        E 0 85 43 50
        E 0 85 3e 50
        E 0 95 37 64
        E 240 e5 00 00
        E 0 85 37 50
        E 0 95 40 64
        E 0 95 45 64
        E 40 e5 14 0b
        E 40 e5 32 26
        E 40 e5 6d 33
        E 40 e5 61 39
        E 40 e5 2d 3e
        E 40 e5 00 40
        E 0 b5 0a 02
        E 240 b5 0a 04
        E 240 b5 0a 06
        E 240 e5 00 00
        E 0 b5 0a 08
        E 0 85 45 50
        E 0 85 40 50
        E 0 95 3e 64
        E 0 95 43 64
        E 40 e5 14 0b
        E 40 e5 32 26
        E 40 e5 6d 33
        E 40 e5 61 39
        E 40 e5 2d 3e
        E 40 e5 00 40
        E 0 b5 0a 0a
        E 240 b5 0a 0c
        E 220 85 43 50
        E 0 85 3e 50
        E 20 e5 00 00
        E 0 b5 0a 0e
        E 0 95 45 64
        E 0 95 40 64
        E 40 e5 14 0b
        E 40 e5 32 26
        E 40 e5 6d 33
        E 40 e5 61 39
        E 40 e5 2d 3e
        E 40 e5 00 40
        E 0 b5 0a 10
        E 240 b5 0a 12
        E 0 85 40 50
        E 0 85 45 50
        E 240 b5 0a 14
        E 240 b5 0a 16
        E 0 95 40 64
        E 0 95 3b 64
        E 240 b5 0a 18
        E 0 85 3b 50
        E 0 85 40 50
        E 0 95 41 64
        E 0 95 3c 64
        E 240 b5 0a 1a
        E 0 85 3c 50
        E 0 85 41 50
        E 0 95 43 64
        E 0 95 3e 64
        E 240 b5 0a 1c
        E 0 85 3e 50
        E 0 85 43 50
        E 0 95 45 64
        E 0 95 40 64
        E 240 b5 0a 1e
        E 0 85 40 50
        E 0 85 45 50
        E 0 95 39 64
        E 240 e5 00 00
        E 0 b5 0a 20
        E 0 85 39 50
        E 0 95 40 64
        E 0 95 45 64
        E 40 e5 14 0b
        E 40 e5 32 26
        E 40 e5 6d 33
        E 40 e5 61 39
        E 40 e5 2d 3e
        E 40 e5 00 40
        E 0 b5 0a 22
        E 240 b5 0a 24
        E 240 b5 0a 26
        E 240 e5 00 00
        E 0 b5 0a 28
        E 0 85 45 50
        E 0 85 40 50
        E 0 95 3e 64
        E 0 95 43 64
        E 40 e5 14 0b
        E 40 e5 32 26
        E 40 e5 6d 33
        E 40 e5 61 39
        E 40 e5 2d 3e
        E 40 e5 00 40
        E 0 b5 0a 2a
        E 240 b5 0a 2c
        E 220 85 43 50
        E 0 85 3e 50
        E 20 e5 00 00
        E 0 b5 0a 2e
        E 0 95 45 64
        E 0 95 40 64
        E 40 e5 14 0b
        E 40 e5 32 26
        E 40 e5 6d 33
        E 40 e5 61 39
        E 40 e5 2d 3e
        E 40 b5 0a 30
        E 240 b5 0a 32
        E 0 85 40 50
        E 0 85 45 50
        E 0 95 42 64
        E 6 95 3d 64
        E 234 b5 0a 34
        E 228 85 42 50
        E 12 b5 0a 36
        E 0 95 43 64
        E 6 95 3e 64
        E 14 85 3d 50
        E 220 b5 0a 38
        E 232 85 3e 50
        E 8 b5 0a 3a
        E 0 95 44 64
        E 6 95 3f 64
        E 6 85 43 50
        E 228 b5 0a 3c
        E 228 85 44 50
        E 12 b5 0a 3e
        E 0 95 45 64
        E 0 95 40 64
        E 20 85 3f 50
        E 220 b5 0a 40
        E 0 85 45 50
        E 0 85 40 50
        E 0 95 41 64
        E 0 95 48 64
        E 240 b5 0a 41
        E 240 b5 0a 43
        E 240 b5 0a 45
        E 240 b5 0a 47
        E 0 85 48 50
        E 0 85 41 50
        E 0 95 40 64
        E 0 95 47 64
        E 240 b5 0a 49
        E 226 85 40 50
        E 14 b5 0a 4b
        E 0 95 40 64
        E 220 85 47 50
        E 20 b5 0a 4d
        E 0 85 40 50
        E 0 95 41 64
        E 0 95 48 64
        E 240 b5 0a 4f
        E 240 b5 0a 51
        E 0 85 41 50
        E 0 95 45 64
        E 0 95 41 64
        E 12 85 48 50
        E 108 85 45 50
        E 0 95 46 64
        E 120 b5 0a 53
        E 0 85 46 50
        E 0 95 47 64
        E 120 85 47 50
        E 0 95 48 64
        E 120 b5 0a 55
        E 0 85 41 50
        E 0 95 41 64
        E 240 b5 0a 57
        E 0 85 41 50
        E 0 95 40 64
        E 240 b5 0a 59
        E 226 85 40 50
        E 14 b5 0a 5b
        E 0 95 41 64
        E 240 b5 0a 5d
        E 240 b5 0a 5f
        E 0 95 43 64
        E 0 95 53 64
        E 0 95 4f 64
        E 4 85 48 50
        E 10 85 41 50
        E 226 b5 0a 61
        E 240 b5 0a 63
        E 240 b5 0a 65
        E 240 b5 0a 67
        E 0 85 43 50
        E 0 95 41 64
        E 240 b5 0a 69
        E 226 85 41 50
        E 14 b5 0a 6b
        E 0 95 41 64
        E 240 b5 0a 6d
        E 0 85 41 50
        E 0 95 43 64
        E 240 b5 0a 6f
        E 240 b5 0a 71
        E 0 85 43 50
        E 0 95 43 64
        E 240 b5 0a 73
        E 240 b5 0a 75
        E 0 85 43 50
        E 0 95 43 64
        E 240 b5 0a 77
        E 0 85 53 50
        E 0 85 4f 50
        E 0 85 43 50
        E 0 95 41 64
        E 0 95 4a 64
        E 0 95 4f 64
        E 240 b5 0a 79
        E 0 85 4f 50
        E 0 85 4a 50
        E 0 95 4c 64
        E 0 95 51 64
        E 226 85 41 50
        E 14 b5 0a 7b
        E 0 85 4c 50
        E 0 85 51 50
        E 0 95 43 64
        E 0 95 4e 64
        E 0 95 52 64
        E 240 b5 0a 7d
        E 0 85 52 50
        E 0 85 4e 50
        E 0 95 4f 64
        E 0 95 53 64
        E 240 b5 0a 7f
        E 0 85 53 50
        E 0 85 4f 50
        E 0 95 58 64
        E 0 95 45 64
        E 14 85 43 50
        E 226 b5 0a 7d
        E 0 85 58 50
        E 0 95 57 64
        E 240 b5 0a 7b
        E 0 85 57 50
        E 0 95 54 64
        E 220 85 45 50
        E 20 b5 0a 79
        E 0 85 54 50
        E 0 95 51 64
        E 0 95 43 64
        E 240 b5 0a 77
        E 0 85 51 50
        E 0 95 56 64
        E 240 b5 0a 75
        E 0 85 43 50
        E 0 85 56 50
        E 0 95 54 64
        E 0 95 43 64
        E 240 b5 0a 73
        E 0 85 43 50
        E 0 85 54 50
        E 0 95 51 64
        E 0 95 45 64
        E 240 b5 0a 71
        E 0 85 51 50
        E 0 95 4f 64
        E 240 b5 0a 6f
        E 0 85 4f 50
        E 0 95 4c 64
        E 0 95 48 64
        E 14 85 45 50
        E 226 b5 0a 6d
        E 0 85 4c 50
        E 0 85 48 50
        E 0 95 4b 64
        E 0 95 47 64
        E 240 b5 0a 6b
        E 0 85 47 50
        E 0 85 4b 50
        E 0 95 4a 64
        E 0 95 45 64
        E 240 b5 0a 69
        E 0 85 45 50
        E 0 85 4a 50
        E 0 95 48 64
        E 0 95 43 64
        E 240 b5 0a 67
        E 0 85 43 50
        E 0 85 48 50
        E 0 95 4a 64
        E 0 95 4e 64
        E 240 b5 0a 65
        E 0 85 4e 50
        E 0 85 4a 50
        E 0 95 48 64
        E 0 95 4c 64
        E 240 b5 0a 63
        E 0 85 48 50
        E 0 95 45 64
        E 240 b5 0a 61
        E 0 85 45 50
        E 0 95 43 64
        E 240 b5 0a 5f
        E 0 85 43 50
        E 0 95 45 64
        E 0 95 58 64
        E 8 85 4c 50
        E 232 b5 0a 5d
        E 0 85 58 50
        E 0 95 57 64
        E 240 b5 0a 5b
        E 0 85 57 50
        E 0 95 54 64
        E 220 85 45 50
        E 20 b5 0a 59
        E 0 85 54 50
        E 0 95 51 64
        E 0 95 43 64
        E 240 b5 0a 57
        E 0 85 51 50
        E 0 95 56 64
        E 240 b5 0a 55
        E 0 85 43 50
        E 0 85 56 50
        E 0 95 54 64
        E 0 95 43 64
        E 240 b5 0a 53
        E 0 85 43 50
        E 0 85 54 50
        E 0 95 51 64
        E 0 95 45 64
        E 240 b5 0a 51
        E 0 85 51 50
        E 0 95 4f 64
        E 240 b5 0a 4f
        E 0 85 4f 50
        E 0 95 4c 64
        E 0 95 48 64
        E 14 85 45 50
        E 226 b5 0a 4d
        E 0 85 4c 50
        E 0 85 48 50
        E 0 95 4b 64
        E 0 95 47 64
        E 240 b5 0a 4b
        E 0 85 47 50
        E 0 85 4b 50
        E 0 95 4a 64
        E 0 95 45 64
        E 240 b5 0a 49
        E 0 85 45 50
        E 0 85 4a 50
        E 0 95 48 64
        E 0 95 43 64
        E 240 b5 0a 47
        E 0 85 43 50
        E 0 85 48 50
        E 0 95 4a 64
        E 0 95 4e 64
        E 240 b5 0a 45
        E 0 85 4e 50
        E 0 85 4a 50
        E 0 95 48 64
        E 0 95 4c 64
        E 240 b5 0a 43
        E 0 85 48 50
        E 0 95 45 64
        E 240 b5 0a 41
        E 0 85 45 50
        E 0 95 43 64
        E 240 e5 00 00
        E 0 b5 0a 40
        E 0 85 43 50
        E 0 95 51 64
        E 0 95 45 64
        E 8 85 4c 50
        E 32 e5 14 0b
        E 40 e5 32 26
        E 40 e5 6d 33
        E 40 e5 61 39
        E 40 e5 2d 3e
        E 40 e5 00 40
        E 0 b5 0a 3e
        E 240 b5 0a 3c
        E 240 b5 0a 3a
        E 240 b5 0a 38
        E 0 85 51 50
        E 0 95 4f 64
        E 240 b5 0a 36
        E 240 b5 0a 34
        E 220 85 4f 50
        E 20 b5 0a 32
        E 0 95 51 64
        E 240 b5 0a 30
        E 240 b5 0a 2e
        E 0 85 51 50
        E 240 b5 0a 2c
        E 240 b5 0a 2a
        E 0 95 4c 64
        E 240 b5 0a 28
        E 0 85 4c 50
        E 0 85 45 50
        E 0 95 4d 64
        E 0 95 43 64
        E 240 b5 0a 26
        E 0 85 43 50
        E 0 85 4d 50
        E 0 95 4f 64
        E 0 95 45 64
        E 240 b5 0a 24
        E 0 85 45 50
        E 0 85 4f 50
        E 0 95 51 64
        E 0 95 43 64
        E 240 b5 0a 22
        E 0 85 43 50
        E 0 85 51 50
        E 0 95 45 64
        E 0 95 40 64
        E 240 e5 00 00
        E 0 b5 0a 20
        E 0 85 40 50
        E 0 85 45 50
        E 0 95 4f 64
        E 0 95 43 64
        E 40 e5 14 0b
        E 40 e5 32 26
        E 40 e5 6d 33
        E 40 e5 61 39
        E 40 e5 2d 3e
        E 40 e5 00 40
        E 0 b5 0a 1e
        E 240 b5 0a 1c
        E 240 b5 0a 1a
        E 240 b5 0a 18
        E 0 85 4f 50
        E 0 95 4e 64
        E 240 b5 0a 16
        E 240 b5 0a 14
        E 220 85 4e 50
        E 20 b5 0a 12
        E 0 95 4f 64
        E 240 b5 0a 10
        E 240 b5 0a 0e
        E 0 85 4f 50
        E 240 b5 0a 0c
        E 240 b5 0a 0a
        E 0 95 4a 64
        E 240 b5 0a 08
        E 0 85 4a 50
        E 0 85 43 50
        E 0 95 4c 64
        E 0 95 3e 64
        E 240 b5 0a 06
        E 0 85 3e 50
        E 0 85 4c 50
        E 0 95 4e 64
        E 0 95 43 64
        E 240 b5 0a 04
        E 0 85 43 50
        E 0 85 4e 50
        E 0 95 4f 64
        E 0 95 41 64
        E 240 b5 0a 02
        E 0 85 41 50
        E 0 85 4f 50
        E 0 95 42 64
        E 0 95 40 64
        E 240 e5 00 00
        E 0 85 40 50
        E 0 85 42 50
        E 0 95 4d 64
        E 0 95 41 64
        E 40 e5 14 0b
        E 40 e5 32 26
        E 40 e5 6d 33
        E 40 e5 61 39
        E 40 e5 2d 3e
        E 40 e5 00 40
        E 0 b5 0a 02
        E 240 b5 0a 04
        E 240 b5 0a 06
        E 240 b5 0a 08
        E 0 85 4d 50
        E 0 95 4c 64
        E 240 b5 0a 0a
        E 240 b5 0a 0c
        E 220 85 4c 50
        E 20 b5 0a 0e
        E 0 95 4d 64
        E 240 b5 0a 10
        E 240 b5 0a 12
        E 0 85 4d 50
        E 240 b5 0a 14
        E 240 b5 0a 16
        E 0 95 48 64
        E 240 b5 0a 18
        E 0 85 48 50
        E 0 85 41 50
        E 0 95 4a 64
        E 0 95 41 64
        E 240 b5 0a 1a
        E 0 85 41 50
        E 0 85 4a 50
        E 0 95 4c 64
        E 0 95 45 64
        E 240 b5 0a 1c
        E 0 85 45 50
        E 0 85 4c 50
        E 0 95 4d 64
        E 0 95 43 64
        E 240 b5 0a 1e
        E 0 85 43 50
        E 0 85 4d 50
        E 0 95 41 64
        E 240 b5 0a 20
        E 0 85 41 50
        E 0 95 4c 64
        E 0 95 40 64
        E 240 b5 0a 22
        E 0 85 40 50
        E 0 95 44 64
        E 240 b5 0a 24
        E 0 85 44 50
        E 0 95 47 64
        E 220 85 4c 50
        E 20 b5 0a 26
        E 0 85 47 50
        E 0 95 50 64
        E 0 95 44 64
        E 240 b5 0a 28
        E 0 85 44 50
        E 0 95 47 64
        E 240 b5 0a 2a
        E 0 85 47 50
        E 0 95 4c 64
        E 240 b5 0a 2c
        E 0 85 4c 50
        E 0 95 53 64
        E 0 95 47 64
        E 6 85 50 50
        E 234 b5 0a 2e
        E 0 85 47 50
        E 0 95 44 64
        E 240 b5 0a 30
        E 0 85 44 50
        E 0 95 40 64
        E 240 b5 0a 32
        E 0 85 40 50
        E 0 95 56 64
        E 0 95 44 64
        E 6 85 53 50
        E 234 b5 0a 34
        E 0 85 44 50
        E 0 95 47 64
        E 240 b5 0a 36
        E 0 85 47 50
        E 0 95 44 64
        E 240 b5 0a 38
        E 0 85 44 50
        E 0 95 58 64
        E 0 95 47 64
        E 8 85 56 50
        E 232 b5 0a 3a
        E 0 85 47 50
        E 0 95 4c 64
        E 240 b5 0a 3c
        E 0 85 4c 50
        E 0 95 4a 64
        E 240 b5 0a 3e
        E 0 85 4a 50
        E 0 95 47 64
        E 240 b5 0a 40
        E 0 85 58 50
        E 0 85 47 50
        E 0 95 4d 64
        E 0 95 41 64
        E 0 95 48 64
        E 240 b5 0a 41
        E 0 85 48 50
        E 0 85 41 50
        E 0 85 4d 50
        E 0 95 41 64
        E 0 95 4d 64
        E 0 95 48 64
        E 240 b5 0a 43
        E 0 85 41 50
        E 240 b5 0a 45
        E 0 85 4d 50
        E 0 85 48 50
        E 0 95 40 64
        E 0 95 4c 64
        E 0 95 47 64
        E 240 b5 0a 47
        E 0 85 47 50
        E 0 85 4c 50
        E 0 85 40 50
        E 0 95 40 64
        E 0 95 4c 64
        E 0 95 47 64
        E 240 b5 0a 49
        E 0 85 40 50
        E 240 b5 0a 4b
        E 0 85 4c 50
        E 0 85 47 50
        E 0 95 3e 64
        E 0 95 4a 64
        E 0 95 45 64
        E 240 b5 0a 4d
        E 0 85 45 50
        E 0 85 4a 50
        E 0 85 3e 50
        E 0 95 3e 64
        E 0 95 4a 64
        E 0 95 45 64
        E 240 b5 0a 4f
        E 0 85 3e 50
        E 240 b5 0a 51
        E 0 85 4a 50
        E 0 85 45 50
        E 0 95 3c 64
        E 0 95 48 64
        E 0 95 43 64
        E 240 b5 0a 53
        E 0 85 43 50
        E 0 85 48 50
        E 0 85 3c 50
        E 0 95 3c 64
        E 0 95 48 64
        E 0 95 43 64
        E 240 b5 0a 55
        E 0 85 3c 50
        E 240 b5 0a 57
        E 0 85 48 50
        E 0 85 43 50
        E 0 95 3b 64
        E 0 95 47 64
        E 0 95 42 64
        E 240 b5 0a 59
        E 226 85 42 50
        E 0 85 47 50
        E 0 85 3b 50
        E 14 b5 0a 5b
        E 0 95 3c 64
        E 0 95 43 64
        E 0 95 48 64
        E 240 b5 0a 5d
        E 240 b5 0a 5f
        E 0 85 48 50
        E 0 95 41 64
        E 0 95 4d 64
        E 0 95 48 64
        E 14 85 43 50
        E 0 85 3c 50
        E 226 b5 0a 61
        E 0 85 41 50
        E 0 85 4d 50
        E 0 85 48 50
        E 0 95 41 64
        E 0 95 4d 64
        E 0 95 48 64
        E 240 b5 0a 63
        E 0 85 41 50
        E 240 b5 0a 65
        E 0 85 4d 50
        E 0 85 48 50
        E 0 95 40 64
        E 0 95 4c 64
        E 0 95 47 64
        E 240 b5 0a 67
        E 0 85 47 50
        E 0 85 4c 50
        E 0 85 40 50
        E 0 95 40 64
        E 0 95 4c 64
        E 0 95 47 64
        E 240 b5 0a 69
        E 0 85 40 50
        E 240 b5 0a 6b
        E 0 85 4c 50
        E 0 85 47 50
        E 0 95 3e 64
        E 0 95 4a 64
        E 0 95 45 64
        E 240 b5 0a 6d
        E 0 85 45 50
        E 0 85 4a 50
        E 0 85 3e 50
        E 0 95 3e 64
        E 0 95 4a 64
        E 0 95 45 64
        E 240 b5 0a 6f
        E 0 85 3e 50
        E 240 b5 0a 71
        E 0 85 4a 50
        E 0 85 45 50
        E 0 95 3c 64
        E 0 95 48 64
        E 0 95 43 64
        E 240 b5 0a 73
        E 0 85 43 50
        E 0 85 48 50
        E 0 85 3c 50
        E 0 95 3c 64
        E 0 95 48 64
        E 0 95 43 64
        E 240 b5 0a 75
        E 0 85 3c 50
        E 240 b5 0a 77
        E 0 85 48 50
        E 0 85 43 50
        E 0 95 3b 64
        E 0 95 47 64
        E 0 95 42 64
        E 240 b5 0a 79
        E 226 85 42 50
        E 0 85 47 50
        E 0 85 3b 50
        E 14 b5 0a 7b
        E 0 95 3c 64
        E 0 95 48 64
        E 0 95 43 64
        E 240 b5 0a 7d
        E 240 b5 0a 3f
        E 0 85 43 50
        E 0 95 3e 64
        E 0 95 45 64
        E 0 95 4a 64
        E 14 85 48 50
        E 0 85 3c 50
        E 2866 85 3e 50
        E 0 85 45 50
        E 0 85 4a 50
        E 0 95 41 64
        E 0 95 48 64
        E 0 95 4d 64
        E 240 85 4d 50
        E 0 85 48 50
        E 0 85 41 50
        E 0 95 43 64
        E 0 95 4a 64
        E 0 95 4f 64
        E 240 85 4f 50
        E 0 85 4a 50
        E 0 85 43 50
        E 0 95 45 64
        E 0 95 4c 64
        E 0 95 51 64
        E 240 85 51 50
        E 0 85 4c 50
        E 0 85 45 50
        E 0 95 47 64
        E 0 95 4e 64
        E 0 95 53 64
        E 240 85 53 50
        E 0 85 4e 50
        E 0 85 47 50
        E 0 95 43 64
        E 0 95 4f 64
        E 0 95 4c 64
        E 240 85 4c 50
        E 0 85 4f 50
        E 0 85 43 50
        E 0 95 43 64
        E 0 95 4f 64
        E 0 95 4c 64
        E 240 85 43 50
        E 240 85 4f 50
        E 0 85 4c 50
        E 0 95 4f 64
        E 0 95 43 64
        E 0 95 4c 64
        E 240 85 4c 50
        E 0 85 43 50
        E 0 85 4f 50
        E 0 95 43 64
        E 0 95 4f 64
        E 0 95 4c 64
        E 240 85 43 50
        E 240 85 4f 50
        E 0 85 4c 50
        E 0 95 4c 64
        E 0 95 4f 64
        E 0 95 43 64
        E 240 85 43 50
        E 0 85 4f 50
        E 0 85 4c 50
        E 0 95 43 64
        E 0 95 4f 64
        E 0 95 4c 64
        E 240 85 43 50
        E 240 85 4f 50
        E 0 85 4c 50
        E 0 95 4f 64
        E 0 95 43 64
        E 0 95 4c 64
        E 240 85 4c 50
        E 0 85 43 50
        E 0 85 4f 50
        E 0 95 43 64
        E 0 95 4f 64
        E 0 95 4c 64
        E 240 85 43 50
        E 240 85 4f 50
        E 0 85 4c 50
        E 0 95 4c 64
        E 0 95 47 64
        E 0 95 40 64
        E 960 e5 00 40
        E 0 b5 06 01
        E 0 e5 00 00
        E 0 b5 0a 7f
        E 0 85 40 50
        E 0 85 47 50
        E 0 85 4c 50
        E 0 95 45 64
        E 0 95 40 64
        E 40 e5 14 0b
        E 40 e5 32 26
        E 40 e5 6d 33
        E 40 e5 61 39
        E 40 e5 2d 3e
        E 40 e5 00 40
        E 0 b5 0a 7d
        E 240 b5 0a 7b
        E 240 b5 0a 79
        E 240 e5 00 00
        E 0 b5 0a 77
        E 0 85 40 50
        E 0 85 45 50
        E 0 95 3e 64
        E 0 95 43 64
        E 40 e5 14 0b
        E 40 e5 32 26
        E 40 e5 6d 33
        E 40 e5 61 39
        E 40 e5 2d 3e
        E 40 e5 00 40
        E 0 b5 0a 75
        E 240 b5 0a 73
        E 220 85 43 50
        E 0 85 3e 50
        E 20 e5 00 00
        E 0 b5 0a 71
        E 0 95 45 64
        E 0 95 40 64
        E 40 e5 14 0b
        E 40 e5 32 26
        E 40 e5 6d 33
        E 40 e5 61 39
        E 40 e5 2d 3e
        E 40 e5 00 40
        E 0 b5 0a 6f
        E 240 b5 0a 6d
        E 0 85 40 50
        E 0 85 45 50
        E 240 b5 0a 6b
        E 240 b5 0a 69
        E 0 95 40 64
        E 0 95 3b 64
        E 240 b5 0a 67
        E 0 85 3b 50
        E 0 85 40 50
        E 0 95 41 64
        E 0 95 3c 64
        E 240 b5 0a 65
        E 0 85 3c 50
        E 0 85 41 50
        E 0 95 43 64
        E 0 95 3e 64
        E 240 b5 0a 63
        E 0 85 3e 50
        E 0 85 43 50
        E 0 95 45 64
        E 0 95 40 64
        E 240 b5 0a 61
        E 0 85 40 50
        E 0 85 45 50
        E 0 95 39 64
        E 240 e5 00 00
        E 0 b5 0a 5f
        E 0 85 39 50
        E 0 95 40 64
        E 0 95 45 64
        E 40 e5 14 0b
        E 40 e5 32 26
        E 40 e5 6d 33
        E 40 e5 61 39
        E 40 e5 2d 3e
        E 40 e5 00 40
        E 0 b5 0a 5d
        E 240 b5 0a 5b
        E 240 b5 0a 59
        E 240 e5 00 00
        E 0 b5 0a 57
        E 0 85 45 50
        E 0 85 40 50
        E 0 95 3e 64
        E 0 95 43 64
        E 40 e5 14 0b
        E 40 e5 32 26
        E 40 e5 6d 33
        E 40 e5 61 39
        E 40 e5 2d 3e
        E 40 e5 00 40
        E 0 b5 0a 55
        E 240 b5 0a 53
        E 220 85 43 50
        E 0 85 3e 50
        E 20 e5 00 00
        E 0 b5 0a 51
        E 0 95 45 64
        E 0 95 40 64
        E 40 e5 14 0b
        E 40 e5 32 26
        E 40 e5 6d 33
        E 40 e5 61 39
        E 40 e5 2d 3e
        E 40 e5 00 40
        E 0 b5 0a 4f
        E 240 b5 0a 4d
        E 0 85 40 50
        E 0 85 45 50
        E 240 b5 0a 4b
        E 240 b5 0a 49
        E 0 95 40 64
        E 0 95 3b 64
        E 240 b5 0a 47
        E 0 85 3b 50
        E 0 85 40 50
        E 0 95 3c 64
        E 0 95 41 64
        E 240 b5 0a 45
        E 0 85 41 50
        E 0 85 3c 50
        E 0 95 3e 64
        E 0 95 43 64
        E 240 b5 0a 43
        E 0 85 43 50
        E 0 85 3e 50
        E 0 95 40 64
        E 0 95 45 64
        E 240 b5 0a 41
        E 0 85 45 50
        E 0 85 40 50
        E 0 95 39 64
        E 240 e5 00 00
        E 0 b5 0a 40
        E 0 85 39 50
        E 0 95 43 64
        E 0 95 3e 64
        E 40 e5 14 0b
        E 40 e5 32 26
        E 40 e5 6d 33
        E 40 e5 61 39
        E 40 e5 2d 3e
        E 40 e5 00 40
        E 0 b5 0a 3e
        E 240 b5 0a 3c
        E 240 b5 0a 3a
        E 240 e5 00 00
        E 0 b5 0a 38
        E 0 85 3e 50
        E 0 85 43 50
        E 0 95 42 64
        E 0 95 3d 64
        E 40 e5 14 0b
        E 40 e5 32 26
        E 40 e5 6d 33
        E 40 e5 61 39
        E 40 e5 2d 3e
        E 40 e5 00 40
        E 0 b5 0a 36
        E 240 b5 0a 34
        E 220 85 3d 50
        E 0 85 42 50
        E 20 e5 00 00
        E 0 b5 0a 32
        E 0 95 43 64
        E 0 95 3e 64
        E 40 e5 14 0b
        E 40 e5 32 26
        E 40 e5 6d 33
        E 40 e5 61 39
        E 40 e5 2d 3e
        E 40 e5 00 40
        E 0 b5 0a 30
        E 240 b5 0a 2e
        E 0 85 3e 50
        E 0 85 43 50
        E 240 b5 0a 2c
        E 240 b5 0a 2a
        E 0 95 39 64
        E 0 95 3e 64
        E 240 b5 0a 28
        E 0 85 3e 50
        E 0 85 39 50
        E 0 95 40 64
        E 0 95 3b 64
        E 240 b5 0a 26
        E 0 85 3b 50
        E 0 85 40 50
        E 0 95 42 64
        E 0 95 3d 64
        E 240 b5 0a 24
        E 0 85 3d 50
        E 0 85 42 50
        E 0 95 3e 64
        E 0 95 43 64
        E 240 b5 0a 22
        E 0 85 43 50
        E 0 85 3e 50
        E 0 95 37 64
        E 240 e5 00 00
        E 0 b5 0a 20
        E 0 85 37 50
        E 0 95 3e 64
        E 0 95 43 64
        E 40 e5 14 0b
        E 40 e5 32 26
        E 40 e5 6d 33
        E 40 e5 61 39
        E 40 e5 2d 3e
        E 40 e5 00 40
        E 0 b5 0a 1e
        E 240 b5 0a 1c
        E 240 b5 0a 1a
        E 240 e5 00 00
        E 0 b5 0a 18
        E 0 85 43 50
        E 0 85 3e 50
        E 0 95 42 64
        E 0 95 3d 64
        E 40 e5 14 0b
        E 40 e5 32 26
        E 40 e5 6d 33
        E 40 e5 61 39
        E 40 e5 2d 3e
        E 40 e5 00 40
        E 0 b5 0a 16
        E 240 b5 0a 14
        E 220 85 3d 50
        E 0 85 42 50
        E 20 e5 00 00
        E 0 b5 0a 12
        E 0 95 43 64
        E 0 95 3e 64
        E 40 e5 14 0b
        E 40 e5 32 26
        E 40 e5 6d 33
        E 40 e5 61 39
        E 40 e5 2d 3e
        E 40 e5 00 40
        E 0 b5 0a 10
        E 240 b5 0a 0e
        E 0 85 3e 50
        E 0 85 43 50
        E 240 b5 0a 0c
        E 240 b5 0a 0a
        E 0 95 39 64
        E 0 95 3e 64
        E 240 b5 0a 08
        E 0 85 3e 50
        E 0 85 39 50
        E 0 95 40 64
        E 0 95 3b 64
        E 240 b5 0a 06
        E 0 85 3b 50
        E 0 85 40 50
        E 0 95 42 64
        E 0 95 3d 64
        E 240 b5 0a 04
        E 0 85 3d 50
        E 0 85 42 50
        E 0 95 3e 64
        E 0 95 43 64
        E 240 b5 0a 02
        E 0 85 43 50
        E 0 85 3e 50
        E 0 95 37 64
        E 240 e5 00 00
        E 0 85 37 50
        E 0 95 40 64
        E 0 95 45 64
        E 40 e5 14 0b
        E 40 e5 32 26
        E 40 e5 6d 33
        E 40 e5 61 39
        E 40 e5 2d 3e
        E 40 e5 00 40
        E 0 b5 0a 02
        E 240 b5 0a 04
        E 240 b5 0a 06
        E 240 e5 00 00
        E 0 b5 0a 08
        E 0 85 45 50
        E 0 85 40 50
        E 0 95 3e 64
        E 0 95 43 64
        E 40 e5 14 0b
        E 40 e5 32 26
        E 40 e5 6d 33
        E 40 e5 61 39
        E 40 e5 2d 3e
        E 40 e5 00 40
        E 0 b5 0a 0a
        E 240 b5 0a 0c
        E 220 85 43 50
        E 0 85 3e 50
        E 20 e5 00 00
        E 0 b5 0a 0e
        E 0 95 45 64
        E 0 95 40 64
        E 40 e5 14 0b
        E 40 e5 32 26
        E 40 e5 6d 33
        E 40 e5 61 39
        E 40 e5 2d 3e
        E 40 e5 00 40
        E 0 b5 0a 10
        E 240 b5 0a 12
        E 0 85 40 50
        E 0 85 45 50
        E 240 b5 0a 14
        E 240 b5 0a 16
        E 0 95 40 64
        E 0 95 3b 64
        E 240 b5 0a 18
        E 0 85 3b 50
        E 0 85 40 50
        E 0 95 41 64
        E 0 95 3c 64
        E 240 b5 0a 1a
        E 0 85 3c 50
        E 0 85 41 50
        E 0 95 43 64
        E 0 95 3e 64
        E 240 b5 0a 1c
        E 0 85 3e 50
        E 0 85 43 50
        E 0 95 45 64
        E 0 95 40 64
        E 240 b5 0a 1e
        E 0 85 40 50
        E 0 85 45 50
        E 0 95 39 64
        E 240 e5 00 00
        E 0 b5 0a 20
        E 0 85 39 50
        E 0 95 40 64
        E 0 95 45 64
        E 40 e5 14 0b
        E 40 e5 32 26
        E 40 e5 6d 33
        E 40 e5 61 39
        E 40 e5 2d 3e
        E 40 e5 00 40
        E 0 b5 0a 22
        E 240 b5 0a 24
        E 240 b5 0a 26
        E 240 e5 00 00
        E 0 b5 0a 28
        E 0 85 45 50
        E 0 85 40 50
        E 0 95 3e 64
        E 0 95 43 64
        E 40 e5 14 0b
        E 40 e5 32 26
        E 40 e5 6d 33
        E 40 e5 61 39
        E 40 e5 2d 3e
        E 40 e5 00 40
        E 0 b5 0a 2a
        E 240 b5 0a 2c
        E 220 85 43 50
        E 0 85 3e 50
        E 20 e5 00 00
        E 0 b5 0a 2e
        E 0 95 45 64
        E 0 95 40 64
        E 40 e5 14 0b
        E 40 e5 32 26
        E 40 e5 6d 33
        E 40 e5 61 39
        E 40 e5 2d 3e
        E 40 b5 0a 30
        E 240 b5 0a 32
        E 0 85 40 50
        E 0 85 45 50
        E 0 95 42 64
        E 6 95 3d 64
        E 234 b5 0a 34
        E 228 85 42 50
        E 12 b5 0a 36
        E 0 95 43 64
        E 6 95 3e 64
        E 14 85 3d 50
        E 220 b5 0a 38
        E 232 85 3e 50
        E 8 b5 0a 3a
        E 0 95 44 64
        E 6 95 3f 64
        E 6 85 43 50
        E 228 b5 0a 3c
        E 228 85 44 50
        E 12 b5 0a 3e
        E 0 95 45 64
        E 0 95 40 64
        E 20 85 3f 50
        E 220 b5 0a 40
        E 0 85 45 50
        E 0 85 40 50
        E 0 95 41 64
        E 0 95 48 64
        E 240 b5 0a 41
        E 240 b5 0a 43
        E 240 b5 0a 45
        E 240 b5 0a 47
        E 0 85 48 50
        E 0 85 41 50
        E 0 95 40 64
        E 0 95 47 64
        E 240 b5 0a 49
        E 226 85 40 50
        E 14 b5 0a 4b
        E 0 95 40 64
        E 220 85 47 50
        E 20 b5 0a 4d
        E 0 85 40 50
        E 0 95 41 64
        E 0 95 48 64
        E 240 b5 0a 4f
        E 240 b5 0a 51
        E 0 85 41 50
        E 0 95 45 64
        E 0 95 41 64
        E 12 85 48 50
        E 108 85 45 50
        E 0 95 46 64
        E 120 b5 0a 53
        E 0 85 46 50
        E 0 95 47 64
        E 120 85 47 50
        E 0 95 48 64
        E 120 b5 0a 55
        E 0 85 41 50
        E 0 95 41 64
        E 240 b5 0a 57
        E 0 85 41 50
        E 0 95 40 64
        E 240 b5 0a 59
        E 226 85 40 50
        E 14 b5 0a 5b
        E 0 95 41 64
        E 240 b5 0a 5d
        E 240 b5 0a 5f
        E 0 95 43 64
        E 0 95 53 64
        E 0 95 4f 64
        E 4 85 48 50
        E 10 85 41 50
        E 226 b5 0a 61
        E 240 b5 0a 63
        E 240 b5 0a 65
        E 240 b5 0a 67
        E 0 85 43 50
        E 0 95 41 64
        E 240 b5 0a 69
        E 226 85 41 50
        E 14 b5 0a 6b
        E 0 95 41 64
        E 240 b5 0a 6d
        E 0 85 41 50
        E 0 95 43 64
        E 240 b5 0a 6f
        E 240 b5 0a 71
        E 0 85 43 50
        E 0 95 43 64
        E 240 b5 0a 73
        E 240 b5 0a 75
        E 0 85 43 50
        E 0 95 43 64
        E 240 b5 0a 77
        E 0 85 53 50
        E 0 85 4f 50
        E 0 85 43 50
        E 0 95 41 64
        E 0 95 4a 64
        E 0 95 4f 64
        E 240 b5 0a 79
        E 0 85 4f 50
        E 0 85 4a 50
        E 0 95 4c 64
        E 0 95 51 64
        E 226 85 41 50
        E 14 b5 0a 7b
        E 0 85 4c 50
        E 0 85 51 50
        E 0 95 43 64
        E 0 95 4e 64
        E 0 95 52 64
        E 240 b5 0a 7d
        E 0 85 52 50
        E 0 85 4e 50
        E 0 95 4f 64
        E 0 95 53 64
        E 240 b5 0a 7f
        E 0 85 53 50
        E 0 85 4f 50
        E 0 95 58 64
        E 0 95 45 64
        E 14 85 43 50
        E 226 b5 0a 7d
        E 0 85 58 50
        E 0 95 57 64
        E 240 b5 0a 7b
        E 0 85 57 50
        E 0 95 54 64
        E 220 85 45 50
        E 20 b5 0a 79
        E 0 85 54 50
        E 0 95 51 64
        E 0 95 43 64
        E 240 b5 0a 77
        E 0 85 51 50
        E 0 95 56 64
        E 240 b5 0a 75
        E 0 85 43 50
        E 0 85 56 50
        E 0 95 54 64
        E 0 95 43 64
        E 240 b5 0a 73
        E 0 85 43 50
        E 0 85 54 50
        E 0 95 51 64
        E 0 95 45 64
        E 240 b5 0a 71
        E 0 85 51 50
        E 0 95 4f 64
        E 240 b5 0a 6f
        E 0 85 4f 50
        E 0 95 4c 64
        E 0 95 48 64
        E 14 85 45 50
        E 226 b5 0a 6d
        E 0 85 4c 50
        E 0 85 48 50
        E 0 95 4b 64
        E 0 95 47 64
        E 240 b5 0a 6b
        E 0 85 47 50
        E 0 85 4b 50
        E 0 95 4a 64
        E 0 95 45 64
        E 240 b5 0a 69
        E 0 85 45 50
        E 0 85 4a 50
        E 0 95 48 64
        E 0 95 43 64
        E 240 b5 0a 67
        E 0 85 43 50
        E 0 85 48 50
        E 0 95 4a 64
        E 0 95 4e 64
        E 240 b5 0a 65
        E 0 85 4e 50
        E 0 85 4a 50
        E 0 95 48 64
        E 0 95 4c 64
        E 240 b5 0a 63
        E 0 85 48 50
        E 0 95 45 64
        E 240 b5 0a 61
        E 0 85 45 50
        E 0 95 43 64
        E 240 b5 0a 5f
        E 0 85 43 50
        E 0 95 45 64
        E 0 95 58 64
        E 8 85 4c 50
        E 232 b5 0a 5d
        E 0 85 58 50
        E 0 95 57 64
        E 240 b5 0a 5b
        E 0 85 57 50
        E 0 95 54 64
        E 220 85 45 50
        E 20 b5 0a 59
        E 0 85 54 50
        E 0 95 51 64
        E 0 95 43 64
        E 240 b5 0a 57
        E 0 85 51 50
        E 0 95 56 64
        E 240 b5 0a 55
        E 0 85 43 50
        E 0 85 56 50
        E 0 95 54 64
        E 0 95 43 64
        E 240 b5 0a 53
        E 0 85 43 50
        E 0 85 54 50
        E 0 95 51 64
        E 0 95 45 64
        E 240 b5 0a 51
        E 0 85 51 50
        E 0 95 4f 64
        E 240 b5 0a 4f
        E 0 85 4f 50
        E 0 95 4c 64
        E 0 95 48 64
        E 14 85 45 50
        E 226 b5 0a 4d
        E 0 85 4c 50
        E 0 85 48 50
        E 0 95 4b 64
        E 0 95 47 64
        E 240 b5 0a 4b
        E 0 85 47 50
        E 0 85 4b 50
        E 0 95 4a 64
        E 0 95 45 64
        E 240 b5 0a 49
        E 0 85 45 50
        E 0 85 4a 50
        E 0 95 48 64
        E 0 95 43 64
        E 240 b5 0a 47
        E 0 85 43 50
        E 0 85 48 50
        E 0 95 4a 64
        E 0 95 4e 64
        E 240 b5 0a 45
        E 0 85 4e 50
        E 0 85 4a 50
        E 0 95 48 64
        E 0 95 4c 64
        E 240 b5 0a 43
        E 0 85 48 50
        E 0 95 45 64
        E 240 b5 0a 41
        E 0 85 45 50
        E 0 95 43 64
        E 240 e5 00 00
        E 0 b5 0a 40
        E 0 85 43 50
        E 0 95 51 64
        E 0 95 45 64
        E 8 85 4c 50
        E 32 e5 14 0b
        E 40 e5 32 26
        E 40 e5 6d 33
        E 40 e5 61 39
        E 40 e5 2d 3e
        E 40 e5 00 40
        E 0 b5 0a 3e
        E 240 b5 0a 3c
        E 240 b5 0a 3a
        E 240 b5 0a 38
        E 0 85 51 50
        E 0 95 4f 64
        E 240 b5 0a 36
        E 240 b5 0a 34
        E 220 85 4f 50
        E 20 b5 0a 32
        E 0 95 51 64
        E 240 b5 0a 30
        E 240 b5 0a 2e
        E 0 85 51 50
        E 240 b5 0a 2c
        E 240 b5 0a 2a
        E 0 95 4c 64
        E 240 b5 0a 28
        E 0 85 4c 50
        E 0 85 45 50
        E 0 95 4d 64
        E 0 95 43 64
        E 240 b5 0a 26
        E 0 85 43 50
        E 0 85 4d 50
        E 0 95 4f 64
        E 0 95 45 64
        E 240 b5 0a 24
        E 0 85 45 50
        E 0 85 4f 50
        E 0 95 51 64
        E 0 95 43 64
        E 240 b5 0a 22
        E 0 85 43 50
        E 0 85 51 50
        E 0 95 45 64
        E 0 95 40 64
        E 240 e5 00 00
        E 0 b5 0a 20
        E 0 85 40 50
        E 0 85 45 50
        E 0 95 4f 64
        E 0 95 43 64
        E 40 e5 14 0b
        E 40 e5 32 26
        E 40 e5 6d 33
        E 40 e5 61 39
        E 40 e5 2d 3e
        E 40 e5 00 40
        E 0 b5 0a 1e
        E 240 b5 0a 1c
        E 240 b5 0a 1a
        E 240 b5 0a 18
        E 0 85 4f 50
        E 0 95 4e 64
        E 240 b5 0a 16
        E 240 b5 0a 14
        E 220 85 4e 50
        E 20 b5 0a 12
        E 0 95 4f 64
        E 240 b5 0a 10
        E 240 b5 0a 0e
        E 0 85 4f 50
        E 240 b5 0a 0c
        E 240 b5 0a 0a
        E 0 95 4a 64
        E 240 b5 0a 08
        E 0 85 4a 50
        E 0 85 43 50
        E 0 95 4c 64
        E 0 95 3e 64
        E 240 b5 0a 06
        E 0 85 3e 50
        E 0 85 4c 50
        E 0 95 4e 64
        E 0 95 43 64
        E 240 b5 0a 04
        E 0 85 43 50
        E 0 85 4e 50
        E 0 95 4f 64
        E 0 95 41 64
        E 240 b5 0a 02
        E 0 85 41 50
        E 0 85 4f 50
        E 0 95 42 64
        E 0 95 40 64
        E 240 e5 00 00
        E 0 85 40 50
        E 0 85 42 50
        E 0 95 4d 64
        E 0 95 41 64
        E 40 e5 14 0b
        E 40 e5 32 26
        E 40 e5 6d 33
        E 40 e5 61 39
        E 40 e5 2d 3e
        E 40 e5 00 40
        E 0 b5 0a 02
        E 240 b5 0a 04
        E 240 b5 0a 06
        E 240 b5 0a 08
        E 0 85 4d 50
        E 0 95 4c 64
        E 240 b5 0a 0a
        E 240 b5 0a 0c
        E 220 85 4c 50
        E 20 b5 0a 0e
        E 0 95 4d 64
        E 240 b5 0a 10
        E 240 b5 0a 12
        E 0 85 4d 50
        E 240 b5 0a 14
        E 240 b5 0a 16
        E 0 95 48 64
        E 240 b5 0a 18
        E 0 85 48 50
        E 0 85 41 50
        E 0 95 4a 64
        E 0 95 41 64
        E 240 b5 0a 1a
        E 0 85 41 50
        E 0 85 4a 50
        E 0 95 4c 64
        E 0 95 45 64
        E 240 b5 0a 1c
        E 0 85 45 50
        E 0 85 4c 50
        E 0 95 4d 64
        E 0 95 43 64
        E 240 b5 0a 1e
        E 0 85 43 50
        E 0 85 4d 50
        E 0 95 41 64
        E 240 b5 0a 20
        E 0 85 41 50
        E 0 95 4c 64
        E 0 95 40 64
        E 240 b5 0a 22
        E 0 85 40 50
        E 0 95 44 64
        E 240 b5 0a 24
        E 0 85 44 50
        E 0 95 47 64
        E 220 85 4c 50
        E 20 b5 0a 26
        E 0 85 47 50
        E 0 95 50 64
        E 0 95 44 64
        E 240 b5 0a 28
        E 0 85 44 50
        E 0 95 47 64
        E 240 b5 0a 2a
        E 0 85 47 50
        E 0 95 4c 64
        E 240 b5 0a 2c
        E 0 85 4c 50
        E 0 95 53 64
        E 0 95 47 64
        E 6 85 50 50
        E 234 b5 0a 2e
        E 0 85 47 50
        E 0 95 44 64
        E 240 b5 0a 30
        E 0 85 44 50
        E 0 95 40 64
        E 240 b5 0a 32
        E 0 85 40 50
        E 0 95 56 64
        E 0 95 44 64
        E 6 85 53 50
        E 234 b5 0a 34
        E 0 85 44 50
        E 0 95 47 64
        E 240 b5 0a 36
        E 0 85 47 50
        E 0 95 44 64
        E 240 b5 0a 38
        E 0 85 44 50
        E 0 95 58 64
        E 0 95 47 64
        E 8 85 56 50
        E 232 b5 0a 3a
        E 0 85 47 50
        E 0 95 4c 64
        E 240 b5 0a 3c
        E 0 85 4c 50
        E 0 95 4a 64
        E 240 b5 0a 3e
        E 0 85 4a 50
        E 0 95 47 64
        E 240 b5 0a 40
        E 0 85 58 50
        E 0 85 47 50
        E 0 95 4d 64
        E 0 95 41 64
        E 0 95 48 64
        E 240 b5 0a 41
        E 0 85 48 50
        E 0 85 41 50
        E 0 85 4d 50
        E 0 95 41 64
        E 0 95 4d 64
        E 0 95 48 64
        E 240 b5 0a 43
        E 0 85 41 50
        E 240 b5 0a 45
        E 0 85 4d 50
        E 0 85 48 50
        E 0 95 40 64
        E 0 95 4c 64
        E 0 95 47 64
        E 240 b5 0a 47
        E 0 85 47 50
        E 0 85 4c 50
        E 0 85 40 50
        E 0 95 40 64
        E 0 95 4c 64
        E 0 95 47 64
        E 240 b5 0a 49
        E 0 85 40 50
        E 240 b5 0a 4b
        E 0 85 4c 50
        E 0 85 47 50
        E 0 95 3e 64
        E 0 95 4a 64
        E 0 95 45 64
        E 240 b5 0a 4d
        E 0 85 45 50
        E 0 85 4a 50
        E 0 85 3e 50
        E 0 95 3e 64
        E 0 95 4a 64
        E 0 95 45 64
        E 240 b5 0a 4f
        E 0 85 3e 50
        E 240 b5 0a 51
        E 0 85 4a 50
        E 0 85 45 50
        E 0 95 3c 64
        E 0 95 48 64
        E 0 95 43 64
        E 240 b5 0a 53
        E 0 85 43 50
        E 0 85 48 50
        E 0 85 3c 50
        E 0 95 3c 64
        E 0 95 48 64
        E 0 95 43 64
        E 240 b5 0a 55
        E 0 85 3c 50
        E 240 b5 0a 57
        E 0 85 48 50
        E 0 85 43 50
        E 0 95 3b 64
        E 0 95 47 64
        E 0 95 42 64
        E 240 b5 0a 59
        E 226 85 42 50
        E 0 85 47 50
        E 0 85 3b 50
        E 14 b5 0a 5b
        E 0 95 3c 64
        E 0 95 43 64
        E 0 95 48 64
        E 240 b5 0a 5d
        E 240 b5 0a 5f
        E 0 85 48 50
        E 0 95 41 64
        E 0 95 4d 64
        E 0 95 48 64
        E 14 85 43 50
        E 0 85 3c 50
        E 226 b5 0a 61
        E 0 85 41 50
        E 0 85 4d 50
        E 0 85 48 50
        E 0 95 41 64
        E 0 95 4d 64
        E 0 95 48 64
        E 240 b5 0a 63
        E 0 85 41 50
        E 240 b5 0a 65
        E 0 85 4d 50
        E 0 85 48 50
        E 0 95 40 64
        E 0 95 4c 64
        E 0 95 47 64
        E 240 b5 0a 67
        E 0 85 47 50
        E 0 85 4c 50
        E 0 85 40 50
        E 0 95 40 64
        E 0 95 4c 64
        E 0 95 47 64
        E 240 b5 0a 69
        E 0 85 40 50
        E 240 b5 0a 6b
        E 0 85 4c 50
        E 0 85 47 50
        E 0 95 3e 64
        E 0 95 4a 64
        E 0 95 45 64
        E 240 b5 0a 6d
        E 0 85 45 50
        E 0 85 4a 50
        E 0 85 3e 50
        E 0 95 3e 64
        E 0 95 4a 64
        E 0 95 45 64
        E 240 b5 0a 6f
        E 0 85 3e 50
        E 240 b5 0a 71
        E 0 85 4a 50
        E 0 85 45 50
        E 0 95 3c 64
        E 0 95 48 64
        E 0 95 43 64
        E 240 b5 0a 73
        E 0 85 43 50
        E 0 85 48 50
        E 0 85 3c 50
        E 0 95 3c 64
        E 0 95 48 64
        E 0 95 43 64
        E 240 b5 0a 75
        E 0 85 3c 50
        E 240 b5 0a 77
        E 0 85 48 50
        E 0 85 43 50
        E 0 95 3b 64
        E 0 95 47 64
        E 0 95 42 64
        E 240 b5 0a 79
        E 226 85 42 50
        E 0 85 47 50
        E 0 85 3b 50
        E 14 b5 0a 7b
        E 0 95 3c 64
        E 0 95 48 64
        E 0 95 43 64
        E 240 b5 0a 7d
        E 240 b5 0a 3f
        E 0 85 43 50
        E 0 95 3e 64
        E 0 95 45 64
        E 0 95 4a 64
        E 14 85 48 50
        E 0 85 3c 50
        E 2866 85 3e 50
        E 0 85 45 50
        E 0 85 4a 50
        E 0 95 41 64
        E 0 95 48 64
        E 0 95 4d 64
        E 240 85 4d 50
        E 0 85 48 50
        E 0 85 41 50
        E 0 95 43 64
        E 0 95 4a 64
        E 0 95 4f 64
        E 240 85 4f 50
        E 0 85 4a 50
        E 0 85 43 50
        E 0 95 45 64
        E 0 95 4c 64
        E 0 95 51 64
        E 240 85 51 50
        E 0 85 4c 50
        E 0 85 45 50
        E 0 95 47 64
        E 0 95 4e 64
        E 0 95 53 64
        E 240 85 53 50
        E 0 85 4e 50
        E 0 85 47 50
        E 0 95 43 64
        E 0 95 4f 64
        E 0 95 4c 64
        E 240 85 4c 50
        E 0 85 4f 50
        E 0 85 43 50
        E 0 95 43 64
        E 0 95 4f 64
        E 0 95 4c 64
        E 240 85 43 50
        E 240 85 4f 50
        E 0 85 4c 50
        E 0 95 4f 64
        E 0 95 43 64
        E 0 95 4c 64
        E 240 85 4c 50
        E 0 85 43 50
        E 0 85 4f 50
        E 0 95 43 64
        E 0 95 4f 64
        E 0 95 4c 64
        E 240 85 43 50
        E 240 85 4f 50
        E 0 85 4c 50
        E 0 95 4c 64
        E 0 95 4f 64
        E 0 95 43 64
        E 0 b0 7b 00
        CCINTERP 32
        CHASE_CC_TAKEOFFS 1
        GUID {943DEC79-B9D3-487F-9F9C-8547B9D0D494}
        IGNTEMPO 0 120 4 4
        SRCCOLOR 123
      >
    >
  >
  <TRACK {73BE05DA-AEA1-4F59-AABB-982BF98F2AFB}
    NAME "R-Type - r-type1.mid [chan 10] [chan 10]"
    PEAKCOL 16576
    BEAT -1
    AUTOMODE 0
    VOLPAN 1 0 -1 -1 1
    MUTESOLO 0 0 0
    IPHASE 0
    PLAYOFFS 0 1
    ISBUS 0 0
    BUSCOMP 0 0 0 0 0
    SHOWINMIX 1 0.6667 0.5 1 0.5 -1 -1 -1
    FREEMODE 0
    SEL 0
    REC 0 0 1 0 0 0 0
    VU 2
    TRACKHEIGHT 0 0 0 0 0 0
    INQ 0 0 0 0.5 100 0 0 100
    NCHAN 2
    FX 1
    TRACKID {73BE05DA-AEA1-4F59-AABB-982BF98F2AFB}
    PERF 0
    MIDIOUT -1
    MAINSEND 1 0
    <FXCHAIN
      WNDRECT 23 51 737 624
      SHOW 0
      LASTSEL 0
      DOCKED 0
      BYPASS 0 0 0
      <VST "VSTi: ReaSynth (Cockos)" reasynth.dll 0 "" 1919251321<5653547265737972656173796E746800> ""
        eXNlcu9e7f4AAAAAAgAAAAEAAAAAAAAAAgAAAAAAAABEAAAAAAAAAAAAEAA=
        776t3g3wrd4AAAAAF7fROtNNIj+DwEo+2/leP85NAD8r+jQ8AAAAAAAAAD8MIJk+nu/nPgAAAD8AAAAAAAAAAAAAAAA=
        AAAQAAAA
      >
      FLOATPOS 0 0 0 0
      FXID {99C96C2D-F9AC-4649-B42D-438630132103}
      WAK 0 0
    >
    <ITEM
      POSITION 35.59999999999047
      SNAPOFFS 0
      LENGTH 143.19999999999087
      LOOP 1
      ALLTAKES 0
      FADEIN 1 0 0 1 0 0 0
      FADEOUT 1 0 0 1 0 0 0
      MUTE 0 0
      SEL 0
      IGUID {BBF74DAB-CF55-4E7F-BB2E-76F53FA2259B}
      IID 33
      NAME "R-Type - r-type1.mid [chan 10]"
      VOLPAN 1 0 1 -1
      SOFFS 0 0
      PLAYRATE 1 1 0 -1 0 0.0025
      CHANMODE 0
      GUID {A393D7FC-60B9-4A5B-A035-EC395B649893}
      <SOURCE MIDI
        HASDATA 1 960 QN
        CCINTERP 32
        POOLEDEVTS {768FDDBA-DBB1-4E8B-8989-A14E5C9B8FC5}
        E 0 c9 10 00
        E 0 b9 07 7f
        E 0 b9 0a 40
        E 0 b9 5b 15
        E 0 b9 5d 00
        E 8333 99 2a 64
        E 0 99 24 64
        E 204 89 24 50
        E 0 89 2a 50
        E 0 99 2a 64
        E 204 89 2a 50
        E 0 99 2a 64
        E 204 89 2a 50
        E 0 99 2a 64
        E 204 89 2a 50
        E 0 99 26 64
        E 0 99 2e 64
        E 211 89 2e 50
        E 0 89 26 50
        E 0 99 2a 64
        E 240 89 2a 50
        E 0 99 2a 64
        E 240 89 2a 50
        E 0 99 2a 64
        E 0 99 24 64
        E 240 89 24 50
        E 0 89 2a 50
        E 0 99 24 64
        E 0 99 2a 64
        E 240 89 2a 50
        E 0 89 24 50
        E 0 99 2a 64
        E 240 89 2a 50
        E 0 99 2a 64
        E 240 89 2a 50
        E 0 99 2a 64
        E 240 89 2a 50
        E 0 99 26 64
        E 0 99 2e 64
        E 240 89 2e 50
        E 0 89 26 50
        E 0 99 2a 64
        E 240 89 2a 50
        E 0 99 2a 64
        E 240 89 2a 50
        E 0 99 2a 64
        E 0 99 26 40
        E 240 89 26 50
        E 0 89 2a 50
        E 0 99 24 64
        E 0 99 2a 64
        E 240 89 2a 50
        E 0 89 24 50
        E 0 99 2a 64
        E 240 89 2a 50
        E 0 99 2a 64
        E 240 89 2a 50
        E 0 99 2a 64
        E 240 89 2a 50
        E 0 99 26 64
        E 0 99 2e 64
        E 240 89 2e 50
        E 0 89 26 50
        E 0 99 2a 64
        E 240 89 2a 50
        E 0 99 2a 64
        E 240 89 2a 50
        E 0 99 2a 64
        E 240 89 2a 50
        E 0 99 24 64
        E 0 99 2a 64
        E 240 89 2a 50
        E 0 89 24 50
        E 0 99 2a 64
        E 240 89 2a 50
        E 0 99 2a 64
        E 240 89 2a 50
        E 0 99 2a 64
        E 240 89 2a 50
        E 0 99 26 64
        E 0 99 2e 64
        E 240 89 2e 50
        E 0 89 26 50
        E 0 99 2a 64
        E 0 99 26 50
        E 240 89 26 50
        E 0 89 2a 50
        E 0 99 2a 64
        E 0 99 26 50
        E 240 89 26 50
        E 0 89 2a 50
        E 0 99 2a 64
        E 240 89 2a 50
        E 0 99 24 64
        E 0 99 2a 64
        E 240 89 2a 50
        E 0 89 24 50
        E 0 99 2a 64
        E 240 89 2a 50
        E 0 99 2a 64
        E 240 89 2a 50
        E 0 99 2a 64
        E 240 89 2a 50
        E 0 99 26 64
        E 0 99 2e 64
        E 240 89 2e 50
        E 0 89 26 50
        E 0 99 2a 64
        E 240 89 2a 50
        E 0 99 2a 64
        E 240 89 2a 50
        E 0 99 2a 64
        E 0 99 24 64
        E 240 89 24 50
        E 0 89 2a 50
        E 0 99 24 64
        E 0 99 2a 64
        E 240 89 2a 50
        E 0 89 24 50
        E 0 99 2a 64
        E 240 89 2a 50
        E 0 99 2a 64
        E 240 89 2a 50
        E 0 99 2a 64
        E 240 89 2a 50
        E 0 99 26 64
        E 0 99 2e 64
        E 240 89 2e 50
        E 0 89 26 50
        E 0 99 2a 64
        E 240 89 2a 50
        E 0 99 2a 64
        E 240 89 2a 50
        E 0 99 2a 64
        E 240 89 2a 50
        E 0 99 24 64
        E 0 99 2a 64
        E 240 89 2a 50
        E 0 89 24 50
        E 0 99 2a 64
        E 240 89 2a 50
        E 0 99 2a 64
        E 240 89 2a 50
        E 0 99 2a 64
        E 240 89 2a 50
        E 0 99 26 64
        E 0 99 2e 64
        E 240 89 2e 50
        E 0 89 26 50
        E 0 99 2a 64
        E 240 89 2a 50
        E 0 99 2a 64
        E 240 89 2a 50
        E 0 99 2a 64
        E 240 89 2a 50
        E 0 99 24 64
        E 0 99 2a 64
        E 240 89 2a 50
        E 0 89 24 50
        E 0 99 2a 64
        E 240 89 2a 50
        E 0 99 2a 64
        E 240 89 2a 50
        E 0 99 2a 64
        E 240 89 2a 50
        E 0 99 26 64
        E 0 99 2e 64
        E 240 89 2e 50
        E 0 89 26 50
        E 0 99 2a 64
        E 0 99 26 50
        E 240 89 26 50
        E 0 89 2a 50
        E 0 99 2a 64
        E 240 89 2a 50
        E 0 99 2a 64
        E 0 99 26 64
        E 240 89 26 50
        E 0 89 2a 50
        E 0 99 24 64
        E 0 99 2a 64
        E 240 89 2a 50
        E 0 89 24 50
        E 0 99 2a 64
        E 240 89 2a 50
        E 0 99 2a 64
        E 240 89 2a 50
        E 0 99 2a 64
        E 240 89 2a 50
        E 0 99 26 64
        E 0 99 2e 64
        E 240 89 2e 50
        E 0 89 26 50
        E 0 99 2a 64
        E 240 89 2a 50
        E 0 99 2a 64
        E 240 89 2a 50
        E 0 99 2a 64
        E 0 99 24 64
        E 240 89 24 50
        E 0 89 2a 50
        E 0 99 24 64
        E 0 99 2a 64
        E 240 89 2a 50
        E 0 89 24 50
        E 0 99 2a 64
        E 240 89 2a 50
        E 0 99 2a 64
        E 240 89 2a 50
        E 0 99 2a 64
        E 240 89 2a 50
        E 0 99 26 64
        E 0 99 2e 64
        E 240 89 2e 50
        E 0 89 26 50
        E 0 99 2a 64
        E 240 89 2a 50
        E 0 99 2a 64
        E 240 89 2a 50
        E 0 99 2a 64
        E 0 99 26 40
        E 240 89 26 50
        E 0 89 2a 50
        E 0 99 24 64
        E 0 99 2a 64
        E 240 89 2a 50
        E 0 89 24 50
        E 0 99 2a 64
        E 240 89 2a 50
        E 0 99 2a 64
        E 240 89 2a 50
        E 0 99 2a 64
        E 240 89 2a 50
        E 0 99 26 64
        E 0 99 2e 64
        E 240 89 2e 50
        E 0 89 26 50
        E 0 99 2a 64
        E 240 89 2a 50
        E 0 99 2a 64
        E 240 89 2a 50
        E 0 99 2a 64
        E 240 89 2a 50
        E 0 99 24 64
        E 0 99 2a 64
        E 240 89 2a 50
        E 0 89 24 50
        E 0 99 2a 64
        E 240 89 2a 50
        E 0 99 2a 64
        E 240 89 2a 50
        E 0 99 2a 64
        E 240 89 2a 50
        E 0 99 26 64
        E 0 99 2e 64
        E 240 89 2e 50
        E 0 89 26 50
        E 0 99 2a 64
        E 0 99 26 50
        E 240 89 26 50
        E 0 89 2a 50
        E 0 99 2a 64
        E 0 99 26 50
        E 240 89 26 50
        E 0 89 2a 50
        E 0 99 2a 64
        E 240 89 2a 50
        E 0 99 24 64
        E 0 99 2a 64
        E 240 89 2a 50
        E 0 89 24 50
        E 0 99 2a 64
        E 240 89 2a 50
        E 0 99 2a 64
        E 240 89 2a 50
        E 0 99 2a 64
        E 240 89 2a 50
        E 0 99 26 64
        E 0 99 2e 64
        E 240 89 2e 50
        E 0 89 26 50
        E 0 99 2a 64
        E 240 89 2a 50
        E 0 99 2a 64
        E 240 89 2a 50
        E 0 99 2a 64
        E 0 99 24 64
        E 240 89 24 50
        E 0 89 2a 50
        E 0 99 24 64
        E 0 99 2a 64
        E 240 89 2a 50
        E 0 89 24 50
        E 0 99 2a 64
        E 240 89 2a 50
        E 0 99 2a 64
        E 240 89 2a 50
        E 0 99 2a 64
        E 240 89 2a 50
        E 0 99 26 64
        E 0 99 2e 64
        E 240 89 2e 50
        E 0 89 26 50
        E 0 99 2a 64
        E 240 89 2a 50
        E 0 99 2a 64
        E 240 89 2a 50
        E 0 99 2a 64
        E 240 89 2a 50
        E 0 99 24 64
        E 0 99 2a 64
        E 240 89 2a 50
        E 0 89 24 50
        E 0 99 2a 64
        E 240 89 2a 50
        E 0 99 2a 64
        E 240 89 2a 50
        E 0 99 2a 64
        E 240 89 2a 50
        E 0 99 26 64
        E 0 99 2e 64
        E 240 89 2e 50
        E 0 89 26 50
        E 0 99 2a 64
        E 240 89 2a 50
        E 0 99 2a 64
        E 240 89 2a 50
        E 0 99 2a 64
        E 240 89 2a 50
        E 0 99 24 64
        E 0 99 2a 64
        E 240 89 2a 50
        E 0 89 24 50
        E 0 99 2a 64
        E 240 89 2a 50
        E 0 99 2a 64
        E 240 89 2a 50
        E 0 99 2a 64
        E 240 89 2a 50
        E 0 99 26 64
        E 0 99 2e 64
        E 240 89 2e 50
        E 0 89 26 50
        E 0 99 2a 64
        E 0 99 26 50
        E 240 89 26 50
        E 0 89 2a 50
        E 0 99 2a 64
        E 240 89 2a 50
        E 0 99 2a 64
        E 0 99 26 64
        E 240 89 26 50
        E 0 89 2a 50
        E 0 99 24 64
        E 0 99 3b 64
        E 240 89 3b 50
        E 0 89 24 50
        E 0 99 3b 3c
        E 240 89 3b 50
        E 0 99 3b 50
        E 240 89 3b 50
        E 0 99 3b 64
        E 240 89 3b 50
        E 0 99 24 64
        E 0 99 3b 64
        E 240 89 3b 50
        E 0 89 24 50
        E 0 99 3b 3c
        E 240 89 3b 50
        E 0 99 3b 50
        E 240 89 3b 50
        E 0 99 3b 64
        E 240 89 3b 50
        E 0 99 24 64
        E 0 99 3b 64
        E 240 89 3b 50
        E 0 89 24 50
        E 0 99 3b 3c
        E 240 89 3b 50
        E 0 99 3b 50
        E 240 89 3b 50
        E 0 99 3b 64
        E 240 89 3b 50
        E 0 99 24 64
        E 0 99 3b 64
        E 240 89 3b 50
        E 0 89 24 50
        E 0 99 3b 3c
        E 240 89 3b 50
        E 0 99 3b 50
        E 240 89 3b 50
        E 0 99 3b 64
        E 240 89 3b 50
        E 0 99 24 64
        E 0 99 3b 64
        E 240 89 3b 50
        E 0 89 24 50
        E 0 99 3b 3c
        E 240 89 3b 50
        E 0 99 3b 50
        E 240 89 3b 50
        E 0 99 3b 64
        E 240 89 3b 50
        E 0 99 24 64
        E 0 99 3b 64
        E 240 89 3b 50
        E 0 89 24 50
        E 0 99 3b 3c
        E 240 89 3b 50
        E 0 99 3b 50
        E 240 89 3b 50
        E 0 99 3b 64
        E 240 89 3b 50
        E 0 99 24 64
        E 0 99 3b 64
        E 240 89 3b 50
        E 0 89 24 50
        E 0 99 3b 3c
        E 240 89 3b 50
        E 0 99 3b 50
        E 240 89 3b 50
        E 0 99 3b 64
        E 240 89 3b 50
        E 0 99 24 64
        E 0 99 3b 64
        E 240 89 3b 50
        E 0 89 24 50
        E 0 99 3b 3c
        E 240 89 3b 50
        E 0 99 3b 50
        E 0 99 26 64
        E 240 89 26 50
        E 0 89 3b 50
        E 0 99 3b 64
        E 240 89 3b 50
        E 0 99 24 64
        E 0 99 3b 64
        E 240 89 3b 50
        E 0 89 24 50
        E 0 99 3b 3c
        E 240 89 3b 50
        E 0 99 3b 50
        E 240 89 3b 50
        E 0 99 3b 64
        E 240 89 3b 50
        E 0 99 24 64
        E 0 99 3b 64
        E 240 89 3b 50
        E 0 89 24 50
        E 0 99 3b 3c
        E 240 89 3b 50
        E 0 99 3b 50
        E 240 89 3b 50
        E 0 99 3b 64
        E 240 89 3b 50
        E 0 99 24 64
        E 0 99 3b 64
        E 240 89 3b 50
        E 0 89 24 50
        E 0 99 3b 3c
        E 240 89 3b 50
        E 0 99 3b 50
        E 240 89 3b 50
        E 0 99 3b 64
        E 240 89 3b 50
        E 0 99 24 64
        E 0 99 3b 64
        E 240 89 3b 50
        E 0 89 24 50
        E 0 99 3b 3c
        E 240 89 3b 50
        E 0 99 3b 50
        E 240 89 3b 50
        E 0 99 3b 64
        E 240 89 3b 50
        E 0 99 24 64
        E 0 99 3b 64
        E 240 89 3b 50
        E 0 89 24 50
        E 0 99 3b 3c
        E 240 89 3b 50
        E 0 99 3b 50
        E 240 89 3b 50
        E 0 99 3b 64
        E 240 89 3b 50
        E 0 99 24 64
        E 0 99 3b 64
        E 240 89 3b 50
        E 0 89 24 50
        E 0 99 3b 3c
        E 240 89 3b 50
        E 0 99 3b 50
        E 240 89 3b 50
        E 0 99 3b 64
        E 0 99 24 64
        E 240 89 24 50
        E 0 89 3b 50
        E 0 99 3b 64
        E 240 89 3b 50
        E 0 99 3b 3c
        E 0 99 24 64
        E 240 89 24 50
        E 0 89 3b 50
        E 0 99 3b 50
        E 240 89 3b 50
        E 0 99 3b 64
        E 0 99 24 64
        E 240 89 24 50
        E 0 89 3b 50
        E 0 99 3b 64
        E 0 99 26 64
        E 240 89 26 50
        E 0 89 3b 50
        E 0 99 3b 3c
        E 0 99 26 64
        E 240 89 26 50
        E 0 89 3b 50
        E 0 99 3b 50
        E 0 99 26 64
        E 240 89 26 50
        E 0 89 3b 50
        E 0 99 3b 64
        E 0 99 26 64
        E 240 89 26 50
        E 0 89 3b 50
        E 0 99 24 64
        E 0 99 3b 64
        E 240 89 3b 50
        E 0 89 24 50
        E 0 99 24 64
        E 0 99 3b 3c
        E 240 89 3b 50
        E 0 89 24 50
        E 0 99 3b 50
        E 240 89 3b 50
        E 0 99 3b 64
        E 240 89 3b 50
        E 0 99 26 64
        E 0 99 3b 64
        E 240 89 3b 50
        E 0 89 26 50
        E 0 99 3b 3c
        E 240 89 3b 50
        E 0 99 3b 50
        E 240 89 3b 50
        E 0 99 24 64
        E 0 99 3b 64
        E 240 89 3b 50
        E 0 89 24 50
        E 0 99 3b 64
        E 240 89 3b 50
        E 0 99 24 64
        E 0 99 3b 3c
        E 240 89 3b 50
        E 0 89 24 50
        E 0 99 45 64
        E 0 99 3b 50
        E 240 89 3b 50
        E 0 89 45 50
        E 0 99 45 64
        E 0 99 3b 64
        E 240 89 3b 50
        E 0 89 45 50
        E 0 99 3b 64
        E 0 99 26 64
        E 240 89 26 50
        E 0 89 3b 50
        E 0 99 3b 3c
        E 240 89 3b 50
        E 0 99 24 64
        E 0 99 3b 50
        E 240 89 3b 50
        E 0 89 24 50
        E 0 99 24 64
        E 0 99 3b 64
        E 240 89 3b 50
        E 0 89 24 50
        E 0 99 24 64
        E 0 99 3b 64
        E 240 89 3b 50
        E 0 89 24 50
        E 0 99 24 64
        E 0 99 3b 3c
        E 240 89 3b 50
        E 0 89 24 50
        E 0 99 3b 50
        E 240 89 3b 50
        E 0 99 3b 64
        E 240 89 3b 50
        E 0 99 26 64
        E 0 99 3b 64
        E 240 89 3b 50
        E 0 89 26 50
        E 0 99 3b 3c
        E 240 89 3b 50
        E 0 99 3b 50
        E 240 89 3b 50
        E 0 99 24 64
        E 0 99 3b 64
        E 240 89 3b 50
        E 0 89 24 50
        E 0 99 3b 64
        E 240 89 3b 50
        E 0 99 24 64
        E 0 99 3b 3c
        E 240 89 3b 50
        E 0 89 24 50
        E 0 99 45 64
        E 0 99 3b 50
        E 240 89 3b 50
        E 0 89 45 50
        E 0 99 45 64
        E 0 99 3b 64
        E 240 89 3b 50
        E 0 89 45 50
        E 0 99 26 64
        E 0 99 3b 64
        E 240 89 3b 50
        E 0 89 26 50
        E 0 99 3b 3c
        E 240 89 3b 50
        E 0 99 24 64
        E 0 99 3b 50
        E 240 89 3b 50
        E 0 89 24 50
        E 0 99 24 64
        E 0 99 3b 64
        E 240 89 3b 50
        E 0 89 24 50
        E 0 99 24 64
        E 0 99 3b 64
        E 240 89 3b 50
        E 0 89 24 50
        E 0 99 24 64
        E 0 99 3b 3c
        E 240 89 3b 50
        E 0 89 24 50
        E 0 99 3b 50
        E 240 89 3b 50
        E 0 99 3b 64
        E 240 89 3b 50
        E 0 99 26 64
        E 0 99 3b 64
        E 240 89 3b 50
        E 0 89 26 50
        E 0 99 3b 3c
        E 240 89 3b 50
        E 0 99 3b 50
        E 240 89 3b 50
        E 0 99 24 64
        E 0 99 3b 64
        E 240 89 3b 50
        E 0 89 24 50
        E 0 99 3b 64
        E 240 89 3b 50
        E 0 99 24 64
        E 0 99 3b 3c
        E 240 89 3b 50
        E 0 89 24 50
        E 0 99 45 64
        E 0 99 3b 50
        E 240 89 3b 50
        E 0 89 45 50
        E 0 99 45 64
        E 0 99 3b 64
        E 240 89 3b 50
        E 0 89 45 50
        E 0 99 26 64
        E 0 99 3b 64
        E 240 89 3b 50
        E 0 89 26 50
        E 0 99 3b 3c
        E 240 89 3b 50
        E 0 99 3b 50
        E 240 89 3b 50
        E 0 99 3b 64
        E 240 89 3b 50
        E 0 99 26 64
        E 0 99 3b 64
        E 240 89 3b 50
        E 0 89 26 50
        E 0 99 26 64
        E 0 99 3b 3c
        E 240 89 3b 50
        E 0 89 26 50
        E 0 99 26 64
        E 0 99 3b 50
        E 240 89 3b 50
        E 0 89 26 50
        E 0 99 3b 64
        E 240 89 3b 50
        E 0 99 26 64
        E 0 99 3b 64
        E 240 89 3b 50
        E 0 89 26 50
        E 0 99 3b 3c
        E 240 89 3b 50
        E 0 99 26 64
        E 0 99 3b 50
        E 240 89 3b 50
        E 0 89 26 50
        E 0 99 26 64
        E 0 99 3b 64
        E 240 89 3b 50
        E 0 89 26 50
        E 0 99 3b 64
        E 240 89 3b 50
        E 0 99 3b 3c
        E 240 89 3b 50
        E 0 99 3b 50
        E 240 89 3b 50
        E 0 99 3b 64
        E 240 89 3b 50
        E 0 99 3b 64
        E 240 89 3b 50
        E 0 99 3b 3c
        E 240 89 3b 50
        E 0 99 3b 50
        E 240 89 3b 50
        E 0 99 3b 64
        E 240 89 3b 50
        E 0 99 24 64
        E 0 99 3b 64
        E 240 89 3b 50
        E 0 89 24 50
        E 0 99 3b 3c
        E 240 89 3b 50
        E 0 99 3b 50
        E 0 99 45 64
        E 240 89 45 50
        E 0 89 3b 50
        E 0 99 3b 64
        E 0 99 45 64
        E 240 89 45 50
        E 0 89 3b 50
        E 0 99 26 64
        E 0 99 3b 64
        E 240 89 3b 50
        E 0 89 26 50
        E 0 99 3b 3c
        E 240 89 3b 50
        E 0 99 3b 50
        E 0 99 45 64
        E 240 89 45 50
        E 0 89 3b 50
        E 0 99 24 64
        E 0 99 3b 64
        E 240 89 3b 50
        E 0 89 24 50
        E 0 99 3b 64
        E 240 89 3b 50
        E 0 99 24 64
        E 0 99 3b 3c
        E 240 89 3b 50
        E 0 89 24 50
        E 0 99 3b 50
        E 240 89 3b 50
        E 0 99 24 64
        E 0 99 3b 64
        E 240 89 3b 50
        E 0 89 24 50
        E 0 99 26 64
        E 0 99 3b 64
        E 240 89 3b 50
        E 0 89 26 50
        E 0 99 3b 3c
        E 240 89 3b 50
        E 0 99 3b 50
        E 240 89 3b 50
        E 0 99 3b 64
        E 240 89 3b 50
        E 0 99 24 64
        E 0 99 3b 64
        E 240 89 3b 50
        E 0 89 24 50
        E 0 99 3b 3c
        E 240 89 3b 50
        E 0 99 3b 50
        E 0 99 45 64
        E 240 89 45 50
        E 0 89 3b 50
        E 0 99 3b 64
        E 0 99 45 64
        E 240 89 45 50
        E 0 89 3b 50
        E 0 99 26 64
        E 0 99 3b 64
        E 240 89 3b 50
        E 0 89 26 50
        E 0 99 3b 3c
        E 240 89 3b 50
        E 0 99 3b 50
        E 0 99 45 64
        E 240 89 45 50
        E 0 89 3b 50
        E 0 99 24 64
        E 0 99 3b 64
        E 240 89 3b 50
        E 0 89 24 50
        E 0 99 3b 64
        E 240 89 3b 50
        E 0 99 26 64
        E 0 99 3b 3c
        E 240 89 3b 50
        E 0 89 26 50
        E 0 99 24 64
        E 0 99 3b 50
        E 240 89 3b 50
        E 0 89 24 50
        E 0 99 3b 64
        E 240 89 3b 50
        E 0 99 26 64
        E 0 99 3b 64
        E 240 89 3b 50
        E 0 89 26 50
        E 0 99 3b 3c
        E 240 89 3b 50
        E 0 99 3b 50
        E 240 89 3b 50
        E 0 99 26 64
        E 0 99 3b 64
        E 240 89 3b 50
        E 0 89 26 50
        E 0 99 24 64
        E 0 99 3b 64
        E 240 89 3b 50
        E 0 89 24 50
        E 0 99 3b 3c
        E 240 89 3b 50
        E 0 99 3b 50
        E 0 99 45 64
        E 240 89 45 50
        E 0 89 3b 50
        E 0 99 3b 64
        E 0 99 45 64
        E 240 89 45 50
        E 0 89 3b 50
        E 0 99 26 64
        E 0 99 3b 64
        E 240 89 3b 50
        E 0 89 26 50
        E 0 99 3b 3c
        E 240 89 3b 50
        E 0 99 3b 50
        E 0 99 45 64
        E 240 89 45 50
        E 0 89 3b 50
        E 0 99 24 64
        E 0 99 3b 64
        E 240 89 3b 50
        E 0 89 24 50
        E 0 99 3b 64
        E 240 89 3b 50
        E 0 99 24 64
        E 0 99 3b 3c
        E 240 89 3b 50
        E 0 89 24 50
        E 0 99 3b 50
        E 240 89 3b 50
        E 0 99 3b 64
        E 240 89 3b 50
        E 0 99 26 64
        E 0 99 3b 64
        E 240 89 3b 50
        E 0 89 26 50
        E 0 99 26 64
        E 0 99 3b 3c
        E 240 89 3b 50
        E 0 89 26 50
        E 0 99 3b 50
        E 240 89 3b 50
        E 0 99 3b 64
        E 0 99 24 64
        E 240 89 24 50
        E 0 89 3b 50
        E 0 99 24 64
        E 0 99 3b 64
        E 240 89 3b 50
        E 0 89 24 50
        E 0 99 3b 3c
        E 240 89 3b 50
        E 0 99 3b 50
        E 0 99 45 64
        E 240 89 45 50
        E 0 89 3b 50
        E 0 99 3b 64
        E 0 99 45 64
        E 240 89 45 50
        E 0 89 3b 50
        E 0 99 26 64
        E 0 99 3b 64
        E 240 89 3b 50
        E 0 89 26 50
        E 0 99 3b 3c
        E 240 89 3b 50
        E 0 99 3b 50
        E 0 99 45 64
        E 240 89 45 50
        E 0 89 3b 50
        E 0 99 24 64
        E 0 99 3b 64
        E 240 89 3b 50
        E 0 89 24 50
        E 0 99 3b 64
        E 240 89 3b 50
        E 0 99 24 64
        E 0 99 3b 3c
        E 240 89 3b 50
        E 0 89 24 50
        E 0 99 3b 50
        E 240 89 3b 50
        E 0 99 24 64
        E 0 99 3b 64
        E 240 89 3b 50
        E 0 89 24 50
        E 0 99 26 64
        E 0 99 3b 64
        E 240 89 3b 50
        E 0 89 26 50
        E 0 99 26 64
        E 0 99 3b 3c
        E 240 89 3b 50
        E 0 89 26 50
        E 0 99 26 64
        E 0 99 3b 50
        E 240 89 3b 50
        E 0 89 26 50
        E 0 99 26 64
        E 0 99 3b 64
        E 240 89 3b 50
        E 0 89 26 50
        E 0 99 3b 64
        E 0 99 24 64
        E 240 89 24 50
        E 0 89 3b 50
        E 0 99 3b 3c
        E 240 89 3b 50
        E 0 99 3b 50
        E 0 99 45 64
        E 240 89 45 50
        E 0 89 3b 50
        E 0 99 3b 64
        E 0 99 45 64
        E 240 89 45 50
        E 0 89 3b 50
        E 0 99 26 64
        E 0 99 3b 64
        E 240 89 3b 50
        E 0 89 26 50
        E 0 99 3b 3c
        E 240 89 3b 50
        E 0 99 3b 50
        E 0 99 45 64
        E 240 89 45 50
        E 0 89 3b 50
        E 0 99 24 64
        E 0 99 3b 64
        E 240 89 3b 50
        E 0 89 24 50
        E 0 99 3b 64
        E 240 89 3b 50
        E 0 99 24 64
        E 0 99 3b 3c
        E 240 89 3b 50
        E 0 89 24 50
        E 0 99 3b 50
        E 240 89 3b 50
        E 0 99 24 64
        E 0 99 3b 64
        E 240 89 3b 50
        E 0 89 24 50
        E 0 99 26 64
        E 0 99 3b 64
        E 240 89 3b 50
        E 0 89 26 50
        E 0 99 3b 3c
        E 240 89 3b 50
        E 0 99 3b 50
        E 240 89 3b 50
        E 0 99 3b 64
        E 240 89 3b 50
        E 0 99 3b 64
        E 0 99 24 64
        E 240 89 24 50
        E 0 89 3b 50
        E 0 99 3b 3c
        E 240 89 3b 50
        E 0 99 3b 50
        E 0 99 45 64
        E 240 89 45 50
        E 0 89 3b 50
        E 0 99 3b 64
        E 0 99 45 64
        E 240 89 45 50
        E 0 89 3b 50
        E 0 99 26 64
        E 0 99 3b 64
        E 240 89 3b 50
        E 0 89 26 50
        E 0 99 3b 3c
        E 240 89 3b 50
        E 0 99 3b 50
        E 0 99 45 64
        E 240 89 45 50
        E 0 89 3b 50
        E 0 99 24 64
        E 0 99 3b 64
        E 240 89 3b 50
        E 0 89 24 50
        E 0 99 3b 64
        E 240 89 3b 50
        E 0 99 3b 3c
        E 6 99 26 64
        E 234 89 3b 50
        E 0 99 3b 50
        E 6 89 26 50
        E 234 89 3b 50
        E 0 99 3b 64
        E 6 99 26 64
        E 234 89 3b 50
        E 0 99 3b 64
        E 6 89 26 50
        E 234 89 3b 50
        E 0 99 3b 3c
        E 6 99 26 64
        E 234 89 3b 50
        E 0 99 3b 50
        E 6 89 26 50
        E 226 99 26 64
        E 8 89 3b 50
        E 0 99 3b 64
        E 232 89 26 50
        E 8 89 3b 50
        E 0 99 3b 64
        E 0 99 24 64
        E 240 89 24 50
        E 0 89 3b 50
        E 0 99 3b 3c
        E 240 89 3b 50
        E 0 99 3b 50
        E 0 99 35 64
        E 240 89 35 50
        E 0 89 3b 50
        E 0 99 3b 64
        E 240 89 3b 50
        E 0 99 3b 64
        E 0 99 26 64
        E 240 89 26 50
        E 0 89 3b 50
        E 0 99 3b 3c
        E 240 89 3b 50
        E 0 99 3b 50
        E 0 99 35 64
        E 240 89 35 50
        E 0 89 3b 50
        E 0 99 3b 64
        E 0 99 24 64
        E 240 89 24 50
        E 0 89 3b 50
        E 0 99 3b 64
        E 240 89 3b 50
        E 0 99 3b 3c
        E 0 99 24 64
        E 240 89 24 50
        E 0 89 3b 50
        E 0 99 3b 50
        E 0 99 35 64
        E 240 89 35 50
        E 0 89 3b 50
        E 0 99 3b 64
        E 0 99 24 64
        E 240 89 24 50
        E 0 89 3b 50
        E 0 99 3b 64
        E 0 99 26 64
        E 240 89 26 50
        E 0 89 3b 50
        E 0 99 3b 3c
        E 240 89 3b 50
        E 0 99 3b 50
        E 0 99 26 64
        E 0 99 35 64
        E 240 89 35 50
        E 0 89 26 50
        E 0 89 3b 50
        E 0 99 3b 64
        E 240 89 3b 50
        E 0 99 3b 64
        E 0 99 24 64
        E 240 89 24 50
        E 0 89 3b 50
        E 0 99 3b 3c
        E 240 89 3b 50
        E 0 99 3b 50
        E 0 99 35 64
        E 240 89 35 50
        E 0 89 3b 50
        E 0 99 3b 64
        E 240 89 3b 50
        E 0 99 3b 64
        E 0 99 26 64
        E 240 89 26 50
        E 0 89 3b 50
        E 0 99 3b 3c
        E 240 89 3b 50
        E 0 99 3b 50
        E 0 99 35 64
        E 240 89 35 50
        E 0 89 3b 50
        E 0 99 3b 64
        E 0 99 24 64
        E 240 89 24 50
        E 0 89 3b 50
        E 0 99 3b 64
        E 240 89 3b 50
        E 0 99 3b 3c
        E 0 99 24 64
        E 240 89 24 50
        E 0 89 3b 50
        E 0 99 3b 50
        E 0 99 35 64
        E 240 89 35 50
        E 0 89 3b 50
        E 0 99 3b 64
        E 0 99 24 64
        E 240 89 24 50
        E 0 89 3b 50
        E 0 99 3b 64
        E 0 99 26 64
        E 240 89 26 50
        E 0 89 3b 50
        E 0 99 3b 3c
        E 240 89 3b 50
        E 0 99 3b 50
        E 0 99 26 64
        E 0 99 35 64
        E 240 89 35 50
        E 0 89 26 50
        E 0 89 3b 50
        E 0 99 3b 64
        E 240 89 3b 50
        E 0 99 3b 64
        E 0 99 26 64
        E 0 99 24 64
        E 240 89 24 50
        E 0 89 26 50
        E 0 89 3b 50
        E 0 99 3b 3c
        E 0 99 26 64
        E 240 89 26 50
        E 0 89 3b 50
        E 0 99 3b 50
        E 240 89 3b 50
        E 0 99 3b 64
        E 240 89 3b 50
        E 0 99 3b 64
        E 240 89 3b 50
        E 0 99 3b 3c
        E 240 89 3b 50
        E 0 99 3b 50
        E 240 89 3b 50
        E 0 99 3b 64
        E 240 89 3b 50
        E 0 99 3b 64
        E 240 89 3b 50
        E 0 99 3b 3c
        E 240 89 3b 50
        E 0 99 3b 50
        E 240 89 3b 50
        E 0 99 3b 64
        E 240 89 3b 50
        E 0 99 3b 64
        E 240 89 3b 50
        E 0 99 3b 3c
        E 240 89 3b 50
        E 0 99 3b 50
        E 240 89 3b 50
        E 0 99 3b 64
        E 240 89 3b 50
        E 0 99 3b 64
        E 0 99 26 64
        E 0 99 24 64
        E 240 89 24 50
        E 0 89 26 50
        E 0 89 3b 50
        E 0 99 3b 3c
        E 0 99 26 64
        E 240 89 26 50
        E 0 89 3b 50
        E 0 99 3b 50
        E 240 89 3b 50
        E 0 99 3b 64
        E 240 89 3b 50
        E 0 99 3b 64
        E 240 89 3b 50
        E 0 99 3b 3c
        E 240 89 3b 50
        E 0 99 3b 50
        E 240 89 3b 50
        E 0 99 3b 64
        E 240 89 3b 50
        E 0 99 3b 64
        E 240 89 3b 50
        E 0 99 3b 3c
        E 240 89 3b 50
        E 0 99 3b 50
        E 240 89 3b 50
        E 0 99 3b 64
        E 240 89 3b 50
        E 0 99 3b 64
        E 240 89 3b 50
        E 0 99 3b 3c
        E 240 89 3b 50
        E 0 99 3b 50
        E 0 99 26 64
        E 240 89 26 50
        E 0 89 3b 50
        E 0 99 3b 64
        E 0 99 26 64
        E 240 89 26 50
        E 0 89 3b 50
        E 0 99 24 64
        E 0 99 3b 64
        E 240 89 3b 50
        E 0 89 24 50
        E 0 99 3b 3c
        E 240 89 3b 50
        E 0 99 3b 50
        E 240 89 3b 50
        E 0 99 3b 64
        E 240 89 3b 50
        E 0 99 26 64
        E 0 99 3b 64
        E 240 89 3b 50
        E 0 89 26 50
        E 0 99 3b 3c
        E 240 89 3b 50
        E 0 99 3b 50
        E 240 89 3b 50
        E 0 99 24 64
        E 0 99 3b 64
        E 240 89 3b 50
        E 0 89 24 50
        E 0 99 3b 64
        E 240 89 3b 50
        E 0 99 3b 3c
        E 240 89 3b 50
        E 0 99 3b 50
        E 0 99 24 64
        E 240 89 24 50
        E 0 89 3b 50
        E 0 99 3b 64
        E 240 89 3b 50
        E 0 99 26 64
        E 0 99 3b 64
        E 240 89 3b 50
        E 0 89 26 50
        E 0 99 3b 3c
        E 240 89 3b 50
        E 0 99 3b 50
        E 240 89 3b 50
        E 0 99 3b 64
        E 240 89 3b 50
        E 0 99 24 64
        E 0 99 3b 64
        E 240 89 3b 50
        E 0 89 24 50
        E 0 99 3b 3c
        E 240 89 3b 50
        E 0 99 3b 50
        E 240 89 3b 50
        E 0 99 3b 64
        E 240 89 3b 50
        E 0 99 26 64
        E 0 99 3b 64
        E 240 89 3b 50
        E 0 89 26 50
        E 0 99 3b 3c
        E 240 89 3b 50
        E 0 99 3b 50
        E 240 89 3b 50
        E 0 99 24 64
        E 0 99 3b 64
        E 240 89 3b 50
        E 0 89 24 50
        E 0 99 3b 64
        E 240 89 3b 50
        E 0 99 26 64
        E 0 99 3b 3c
        E 240 89 3b 50
        E 0 89 26 50
        E 0 99 24 64
        E 0 99 3b 50
        E 240 89 3b 50
        E 0 89 24 50
        E 0 99 3b 64
        E 240 89 3b 50
        E 0 99 26 64
        E 0 99 3b 64
        E 240 89 3b 50
        E 0 89 26 50
        E 0 99 3b 3c
        E 240 89 3b 50
        E 0 99 3b 50
        E 240 89 3b 50
        E 0 99 26 64
        E 0 99 3b 64
        E 240 89 3b 50
        E 0 89 26 50
        E 0 99 24 64
        E 0 99 3b 64
        E 240 89 3b 50
        E 0 89 24 50
        E 0 99 3b 3c
        E 240 89 3b 50
        E 0 99 3b 50
        E 240 89 3b 50
        E 0 99 3b 64
        E 240 89 3b 50
        E 0 99 26 64
        E 0 99 3b 64
        E 240 89 3b 50
        E 0 89 26 50
        E 0 99 3b 3c
        E 0 99 24 64
        E 240 89 24 50
        E 0 89 3b 50
        E 0 99 3b 50
        E 240 89 3b 50
        E 0 99 3b 64
        E 240 89 3b 50
        E 0 99 3b 64
        E 0 99 24 64
        E 240 89 24 50
        E 0 89 3b 50
        E 0 99 3b 3c
        E 240 89 3b 50
        E 0 99 3b 50
        E 0 99 24 64
        E 240 89 24 50
        E 0 89 3b 50
        E 0 99 3b 64
        E 240 89 3b 50
        E 0 99 26 64
        E 0 99 3b 64
        E 240 89 3b 50
        E 0 89 26 50
        E 0 99 26 64
        E 0 99 3b 3c
        E 240 89 3b 50
        E 0 89 26 50
        E 0 99 3b 50
        E 240 89 3b 50
        E 0 99 3b 64
        E 0 99 24 64
        E 240 89 24 50
        E 0 89 3b 50
        E 0 99 24 64
        E 0 99 3b 64
        E 240 89 3b 50
        E 0 89 24 50
        E 0 99 3b 3c
        E 240 89 3b 50
        E 0 99 3b 50
        E 240 89 3b 50
        E 0 99 3b 64
        E 240 89 3b 50
        E 0 99 26 64
        E 0 99 3b 64
        E 240 89 3b 50
        E 0 89 26 50
        E 0 99 3b 3c
        E 240 89 3b 50
        E 0 99 3b 50
        E 240 89 3b 50
        E 0 99 24 64
        E 0 99 3b 64
        E 240 89 3b 50
        E 0 89 24 50
        E 0 99 3b 64
        E 240 89 3b 50
        E 0 99 24 64
        E 0 99 3b 3c
        E 240 89 3b 50
        E 0 89 24 50
        E 0 99 3b 50
        E 240 89 3b 50
        E 0 99 24 64
        E 0 99 3b 64
        E 240 89 3b 50
        E 0 89 24 50
        E 0 99 26 64
        E 0 99 3b 64
        E 240 89 3b 50
        E 0 89 26 50
        E 0 99 26 64
        E 0 99 3b 3c
        E 240 89 3b 50
        E 0 89 26 50
        E 0 99 26 64
        E 0 99 3b 50
        E 240 89 3b 50
        E 0 89 26 50
        E 0 99 26 64
        E 0 99 3b 64
        E 240 89 3b 50
        E 0 89 26 50
        E 0 99 24 64
        E 0 99 3b 64
        E 240 89 3b 50
        E 0 89 24 50
        E 0 99 24 64
        E 0 99 3b 3c
        E 240 89 3b 50
        E 0 89 24 50
        E 0 99 3b 50
        E 240 89 3b 50
        E 0 99 3b 64
        E 240 89 3b 50
        E 0 99 26 64
        E 0 99 3b 64
        E 240 89 3b 50
        E 0 89 26 50
        E 0 99 3b 3c
        E 240 89 3b 50
        E 0 99 3b 50
        E 240 89 3b 50
        E 0 99 24 64
        E 0 99 3b 64
        E 240 89 3b 50
        E 0 89 24 50
        E 0 99 3b 64
        E 240 89 3b 50
        E 0 99 24 64
        E 0 99 3b 3c
        E 240 89 3b 50
        E 0 89 24 50
        E 0 99 45 64
        E 0 99 3b 50
        E 240 89 3b 50
        E 0 89 45 50
        E 0 99 45 64
        E 0 99 3b 64
        E 240 89 3b 50
        E 0 89 45 50
        E 0 99 3b 64
        E 0 99 26 64
        E 240 89 26 50
        E 0 89 3b 50
        E 0 99 3b 3c
        E 240 89 3b 50
        E 0 99 24 64
        E 0 99 3b 50
        E 240 89 3b 50
        E 0 89 24 50
        E 0 99 24 64
        E 0 99 3b 64
        E 240 89 3b 50
        E 0 89 24 50
        E 0 99 24 64
        E 0 99 3b 64
        E 240 89 3b 50
        E 0 89 24 50
        E 0 99 24 64
        E 0 99 3b 3c
        E 240 89 3b 50
        E 0 89 24 50
        E 0 99 3b 50
        E 240 89 3b 50
        E 0 99 3b 64
        E 240 89 3b 50
        E 0 99 26 64
        E 0 99 3b 64
        E 240 89 3b 50
        E 0 89 26 50
        E 0 99 3b 3c
        E 240 89 3b 50
        E 0 99 3b 50
        E 240 89 3b 50
        E 0 99 24 64
        E 0 99 3b 64
        E 240 89 3b 50
        E 0 89 24 50
        E 0 99 3b 64
        E 240 89 3b 50
        E 0 99 24 64
        E 0 99 3b 3c
        E 240 89 3b 50
        E 0 89 24 50
        E 0 99 45 64
        E 0 99 3b 50
        E 240 89 3b 50
        E 0 89 45 50
        E 0 99 45 64
        E 0 99 3b 64
        E 240 89 3b 50
        E 0 89 45 50
        E 0 99 26 64
        E 0 99 3b 64
        E 240 89 3b 50
        E 0 89 26 50
        E 0 99 3b 3c
        E 240 89 3b 50
        E 0 99 24 64
        E 0 99 3b 50
        E 240 89 3b 50
        E 0 89 24 50
        E 0 99 24 64
        E 0 99 3b 64
        E 240 89 3b 50
        E 0 89 24 50
        E 0 99 24 64
        E 0 99 3b 64
        E 240 89 3b 50
        E 0 89 24 50
        E 0 99 24 64
        E 0 99 3b 3c
        E 240 89 3b 50
        E 0 89 24 50
        E 0 99 3b 50
        E 240 89 3b 50
        E 0 99 3b 64
        E 240 89 3b 50
        E 0 99 26 64
        E 0 99 3b 64
        E 240 89 3b 50
        E 0 89 26 50
        E 0 99 3b 3c
        E 240 89 3b 50
        E 0 99 3b 50
        E 240 89 3b 50
        E 0 99 24 64
        E 0 99 3b 64
        E 240 89 3b 50
        E 0 89 24 50
        E 0 99 3b 64
        E 240 89 3b 50
        E 0 99 24 64
        E 0 99 3b 3c
        E 240 89 3b 50
        E 0 89 24 50
        E 0 99 45 64
        E 0 99 3b 50
        E 240 89 3b 50
        E 0 89 45 50
        E 0 99 45 64
        E 0 99 3b 64
        E 240 89 3b 50
        E 0 89 45 50
        E 0 99 26 64
        E 0 99 3b 64
        E 240 89 3b 50
        E 0 89 26 50
        E 0 99 3b 3c
        E 240 89 3b 50
        E 0 99 3b 50
        E 240 89 3b 50
        E 0 99 3b 64
        E 240 89 3b 50
        E 0 99 26 64
        E 0 99 3b 64
        E 240 89 3b 50
        E 0 89 26 50
        E 0 99 26 64
        E 0 99 3b 3c
        E 240 89 3b 50
        E 0 89 26 50
        E 0 99 3b 50
        E 240 89 3b 50
        E 0 99 3b 64
        E 0 99 26 64
        E 240 89 26 50
        E 0 89 3b 50
        E 0 99 3b 64
        E 0 99 26 64
        E 240 89 26 50
        E 0 89 3b 50
        E 0 99 3b 3c
        E 240 89 3b 50
        E 0 99 3b 50
        E 0 99 26 64
        E 240 89 26 50
        E 0 89 3b 50
        E 0 99 3b 64
        E 0 99 26 64
        E 240 89 26 50
        E 0 89 3b 50
        E 0 99 3b 64
        E 240 89 3b 50
        E 0 99 3b 3c
        E 0 99 26 64
        E 240 89 26 50
        E 0 89 3b 50
        E 0 99 3b 50
        E 0 99 26 64
        E 240 89 26 50
        E 0 89 3b 50
        E 0 99 3b 64
        E 240 89 3b 50
        E 0 99 3b 64
        E 0 99 26 64
        E 240 89 26 50
        E 0 89 3b 50
        E 0 99 3b 3c
        E 240 89 3b 50
        E 0 99 3b 50
        E 240 89 3b 50
        E 0 99 3b 64
        E 240 89 3b 50
        E 0 99 24 64
        E 0 99 3b 64
        E 240 89 3b 50
        E 0 89 24 50
        E 0 99 3b 3c
        E 240 89 3b 50
        E 0 99 3b 50
        E 0 99 45 64
        E 240 89 45 50
        E 0 89 3b 50
        E 0 99 3b 64
        E 0 99 45 64
        E 240 89 45 50
        E 0 89 3b 50
        E 0 99 26 64
        E 0 99 3b 64
        E 240 89 3b 50
        E 0 89 26 50
        E 0 99 3b 3c
        E 240 89 3b 50
        E 0 99 3b 50
        E 0 99 45 64
        E 240 89 45 50
        E 0 89 3b 50
        E 0 99 24 64
        E 0 99 3b 64
        E 240 89 3b 50
        E 0 89 24 50
        E 0 99 3b 64
        E 240 89 3b 50
        E 0 99 24 64
        E 0 99 3b 3c
        E 240 89 3b 50
        E 0 89 24 50
        E 0 99 3b 50
        E 240 89 3b 50
        E 0 99 24 64
        E 0 99 3b 64
        E 240 89 3b 50
        E 0 89 24 50
        E 0 99 26 64
        E 0 99 3b 64
        E 240 89 3b 50
        E 0 89 26 50
        E 0 99 3b 3c
        E 240 89 3b 50
        E 0 99 3b 50
        E 240 89 3b 50
        E 0 99 3b 64
        E 240 89 3b 50
        E 0 99 24 64
        E 0 99 3b 64
        E 240 89 3b 50
        E 0 89 24 50
        E 0 99 3b 3c
        E 240 89 3b 50
        E 0 99 3b 50
        E 0 99 45 64
        E 240 89 45 50
        E 0 89 3b 50
        E 0 99 3b 64
        E 0 99 45 64
        E 240 89 45 50
        E 0 89 3b 50
        E 0 99 26 64
        E 0 99 3b 64
        E 240 89 3b 50
        E 0 89 26 50
        E 0 99 3b 3c
        E 240 89 3b 50
        E 0 99 3b 50
        E 0 99 45 64
        E 240 89 45 50
        E 0 89 3b 50
        E 0 99 24 64
        E 0 99 3b 64
        E 240 89 3b 50
        E 0 89 24 50
        E 0 99 3b 64
        E 240 89 3b 50
        E 0 99 26 64
        E 0 99 3b 3c
        E 240 89 3b 50
        E 0 89 26 50
        E 0 99 24 64
        E 0 99 3b 50
        E 240 89 3b 50
        E 0 89 24 50
        E 0 99 3b 64
        E 240 89 3b 50
        E 0 99 26 64
        E 0 99 3b 64
        E 240 89 3b 50
        E 0 89 26 50
        E 0 99 3b 3c
        E 240 89 3b 50
        E 0 99 3b 50
        E 240 89 3b 50
        E 0 99 26 64
        E 0 99 3b 64
        E 240 89 3b 50
        E 0 89 26 50
        E 0 99 24 64
        E 0 99 3b 64
        E 240 89 3b 50
        E 0 89 24 50
        E 0 99 3b 3c
        E 240 89 3b 50
        E 0 99 3b 50
        E 0 99 45 64
        E 240 89 45 50
        E 0 89 3b 50
        E 0 99 3b 64
        E 0 99 45 64
        E 240 89 45 50
        E 0 89 3b 50
        E 0 99 26 64
        E 0 99 3b 64
        E 240 89 3b 50
        E 0 89 26 50
        E 0 99 3b 3c
        E 240 89 3b 50
        E 0 99 3b 50
        E 0 99 45 64
        E 240 89 45 50
        E 0 89 3b 50
        E 0 99 24 64
        E 0 99 3b 64
        E 240 89 3b 50
        E 0 89 24 50
        E 0 99 3b 64
        E 240 89 3b 50
        E 0 99 24 64
        E 0 99 3b 3c
        E 240 89 3b 50
        E 0 89 24 50
        E 0 99 3b 50
        E 240 89 3b 50
        E 0 99 3b 64
        E 240 89 3b 50
        E 0 99 26 64
        E 0 99 3b 64
        E 240 89 3b 50
        E 0 89 26 50
        E 0 99 26 64
        E 0 99 3b 3c
        E 240 89 3b 50
        E 0 89 26 50
        E 0 99 3b 50
        E 240 89 3b 50
        E 0 99 3b 64
        E 0 99 24 64
        E 240 89 24 50
        E 0 89 3b 50
        E 0 99 24 64
        E 0 99 3b 64
        E 240 89 3b 50
        E 0 89 24 50
        E 0 99 3b 3c
        E 240 89 3b 50
        E 0 99 3b 50
        E 0 99 45 64
        E 240 89 45 50
        E 0 89 3b 50
        E 0 99 3b 64
        E 0 99 45 64
        E 240 89 45 50
        E 0 89 3b 50
        E 0 99 26 64
        E 0 99 3b 64
        E 240 89 3b 50
        E 0 89 26 50
        E 0 99 3b 3c
        E 240 89 3b 50
        E 0 99 3b 50
        E 0 99 45 64
        E 240 89 45 50
        E 0 89 3b 50
        E 0 99 24 64
        E 0 99 3b 64
        E 240 89 3b 50
        E 0 89 24 50
        E 0 99 3b 64
        E 240 89 3b 50
        E 0 99 24 64
        E 0 99 3b 3c
        E 240 89 3b 50
        E 0 89 24 50
        E 0 99 3b 50
        E 240 89 3b 50
        E 0 99 24 64
        E 0 99 3b 64
        E 240 89 3b 50
        E 0 89 24 50
        E 0 99 26 64
        E 0 99 3b 64
        E 240 89 3b 50
        E 0 89 26 50
        E 0 99 26 64
        E 0 99 3b 3c
        E 240 89 3b 50
        E 0 89 26 50
        E 0 99 26 64
        E 0 99 3b 50
        E 240 89 3b 50
        E 0 89 26 50
        E 0 99 26 64
        E 0 99 3b 64
        E 240 89 3b 50
        E 0 89 26 50
        E 0 99 3b 64
        E 0 99 24 64
        E 240 89 24 50
        E 0 89 3b 50
        E 0 99 3b 3c
        E 240 89 3b 50
        E 0 99 3b 50
        E 0 99 45 64
        E 240 89 45 50
        E 0 89 3b 50
        E 0 99 3b 64
        E 0 99 45 64
        E 240 89 45 50
        E 0 89 3b 50
        E 0 99 26 64
        E 0 99 3b 64
        E 240 89 3b 50
        E 0 89 26 50
        E 0 99 3b 3c
        E 240 89 3b 50
        E 0 99 3b 50
        E 0 99 45 64
        E 240 89 45 50
        E 0 89 3b 50
        E 0 99 24 64
        E 0 99 3b 64
        E 240 89 3b 50
        E 0 89 24 50
        E 0 99 3b 64
        E 240 89 3b 50
        E 0 99 24 64
        E 0 99 3b 3c
        E 240 89 3b 50
        E 0 89 24 50
        E 0 99 3b 50
        E 240 89 3b 50
        E 0 99 24 64
        E 0 99 3b 64
        E 240 89 3b 50
        E 0 89 24 50
        E 0 99 26 64
        E 0 99 3b 64
        E 240 89 3b 50
        E 0 89 26 50
        E 0 99 3b 3c
        E 240 89 3b 50
        E 0 99 3b 50
        E 240 89 3b 50
        E 0 99 3b 64
        E 240 89 3b 50
        E 0 99 3b 64
        E 0 99 24 64
        E 240 89 24 50
        E 0 89 3b 50
        E 0 99 3b 3c
        E 240 89 3b 50
        E 0 99 3b 50
        E 0 99 45 64
        E 240 89 45 50
        E 0 89 3b 50
        E 0 99 3b 64
        E 0 99 45 64
        E 240 89 45 50
        E 0 89 3b 50
        E 0 99 26 64
        E 0 99 3b 64
        E 240 89 3b 50
        E 0 89 26 50
        E 0 99 3b 3c
        E 240 89 3b 50
        E 0 99 3b 50
        E 0 99 45 64
        E 240 89 45 50
        E 0 89 3b 50
        E 0 99 24 64
        E 0 99 3b 64
        E 240 89 3b 50
        E 0 89 24 50
        E 0 99 3b 64
        E 240 89 3b 50
        E 0 99 3b 3c
        E 6 99 26 64
        E 234 89 3b 50
        E 0 99 3b 50
        E 6 89 26 50
        E 234 89 3b 50
        E 0 99 3b 64
        E 6 99 26 64
        E 234 89 3b 50
        E 0 99 3b 64
        E 6 89 26 50
        E 234 89 3b 50
        E 0 99 3b 3c
        E 6 99 26 64
        E 234 89 3b 50
        E 0 99 3b 50
        E 6 89 26 50
        E 226 99 26 64
        E 8 89 3b 50
        E 0 99 3b 64
        E 232 89 26 50
        E 8 89 3b 50
        E 0 99 3b 64
        E 0 99 24 64
        E 240 89 24 50
        E 0 89 3b 50
        E 0 99 3b 3c
        E 240 89 3b 50
        E 0 99 3b 50
        E 0 99 35 64
        E 240 89 35 50
        E 0 89 3b 50
        E 0 99 3b 64
        E 240 89 3b 50
        E 0 99 3b 64
        E 0 99 26 64
        E 240 89 26 50
        E 0 89 3b 50
        E 0 99 3b 3c
        E 240 89 3b 50
        E 0 99 3b 50
        E 0 99 35 64
        E 240 89 35 50
        E 0 89 3b 50
        E 0 99 3b 64
        E 0 99 24 64
        E 240 89 24 50
        E 0 89 3b 50
        E 0 99 3b 64
        E 240 89 3b 50
        E 0 99 3b 3c
        E 0 99 24 64
        E 240 89 24 50
        E 0 89 3b 50
        E 0 99 3b 50
        E 0 99 35 64
        E 240 89 35 50
        E 0 89 3b 50
        E 0 99 3b 64
        E 0 99 24 64
        E 240 89 24 50
        E 0 89 3b 50
        E 0 99 3b 64
        E 0 99 26 64
        E 240 89 26 50
        E 0 89 3b 50
        E 0 99 3b 3c
        E 240 89 3b 50
        E 0 99 3b 50
        E 0 99 26 64
        E 0 99 35 64
        E 240 89 35 50
        E 0 89 26 50
        E 0 89 3b 50
        E 0 99 3b 64
        E 240 89 3b 50
        E 0 99 3b 64
        E 0 99 24 64
        E 240 89 24 50
        E 0 89 3b 50
        E 0 99 3b 3c
        E 240 89 3b 50
        E 0 99 3b 50
        E 0 99 35 64
        E 240 89 35 50
        E 0 89 3b 50
        E 0 99 3b 64
        E 240 89 3b 50
        E 0 99 3b 64
        E 0 99 26 64
        E 240 89 26 50
        E 0 89 3b 50
        E 0 99 3b 3c
        E 240 89 3b 50
        E 0 99 3b 50
        E 0 99 35 64
        E 240 89 35 50
        E 0 89 3b 50
        E 0 99 3b 64
        E 0 99 24 64
        E 240 89 24 50
        E 0 89 3b 50
        E 0 99 3b 64
        E 240 89 3b 50
        E 0 99 3b 3c
        E 0 99 24 64
        E 240 89 24 50
        E 0 89 3b 50
        E 0 99 3b 50
        E 0 99 35 64
        E 240 89 35 50
        E 0 89 3b 50
        E 0 99 3b 64
        E 0 99 24 64
        E 240 89 24 50
        E 0 89 3b 50
        E 0 99 3b 64
        E 0 99 26 64
        E 240 89 26 50
        E 0 89 3b 50
        E 0 99 3b 3c
        E 240 89 3b 50
        E 0 99 3b 50
        E 0 99 26 64
        E 0 99 35 64
        E 240 89 35 50
        E 0 89 26 50
        E 0 89 3b 50
        E 0 99 3b 64
        E 240 89 3b 50
        E 0 99 3b 64
        E 0 99 26 64
        E 0 99 24 64
        E 240 89 24 50
        E 0 89 26 50
        E 0 89 3b 50
        E 0 99 3b 3c
        E 0 99 26 64
        E 240 89 26 50
        E 0 89 3b 50
        E 0 99 3b 50
        E 240 89 3b 50
        E 0 99 3b 64
        E 240 89 3b 50
        E 0 99 3b 64
        E 240 89 3b 50
        E 0 99 3b 3c
        E 240 89 3b 50
        E 0 99 3b 50
        E 240 89 3b 50
        E 0 99 3b 64
        E 240 89 3b 50
        E 0 99 3b 64
        E 240 89 3b 50
        E 0 99 3b 3c
        E 240 89 3b 50
        E 0 99 3b 50
        E 240 89 3b 50
        E 0 99 3b 64
        E 240 89 3b 50
        E 0 99 3b 64
        E 240 89 3b 50
        E 0 99 3b 3c
        E 240 89 3b 50
        E 0 99 3b 50
        E 240 89 3b 50
        E 0 99 3b 64
        E 240 89 3b 50
        E 0 99 3b 64
        E 0 99 26 64
        E 0 99 24 64
        E 240 89 24 50
        E 0 89 26 50
        E 0 89 3b 50
        E 0 99 3b 3c
        E 0 99 26 64
        E 240 89 26 50
        E 0 89 3b 50
        E 0 99 3b 50
        E 240 89 3b 50
        E 0 99 3b 64
        E 240 89 3b 50
        E 0 99 3b 64
        E 240 89 3b 50
        E 0 99 3b 3c
        E 240 89 3b 50
        E 0 99 3b 50
        E 240 89 3b 50
        E 0 99 3b 64
        E 240 89 3b 50
        E 0 99 3b 64
        E 240 89 3b 50
        E 0 99 3b 3c
        E 240 89 3b 50
        E 0 99 3b 50
        E 240 89 3b 50
        E 0 99 3b 64
        E 240 89 3b 50
        E 0 99 3b 64
        E 240 89 3b 50
        E 0 99 3b 3c
        E 240 89 3b 50
        E 0 99 3b 50
        E 0 99 26 64
        E 240 89 26 50
        E 0 89 3b 50
        E 0 99 3b 64
        E 0 99 26 64
        E 240 89 26 50
        E 0 89 3b 50
        E 0 99 24 64
        E 0 99 3b 64
        E 240 89 3b 50
        E 0 89 24 50
        E 0 99 3b 3c
        E 240 89 3b 50
        E 0 99 3b 50
        E 240 89 3b 50
        E 0 99 3b 64
        E 240 89 3b 50
        E 0 99 26 64
        E 0 99 3b 64
        E 240 89 3b 50
        E 0 89 26 50
        E 0 99 3b 3c
        E 240 89 3b 50
        E 0 99 3b 50
        E 240 89 3b 50
        E 0 99 24 64
        E 0 99 3b 64
        E 240 89 3b 50
        E 0 89 24 50
        E 0 99 3b 64
        E 240 89 3b 50
        E 0 99 3b 3c
        E 240 89 3b 50
        E 0 99 3b 50
        E 0 99 24 64
        E 240 89 24 50
        E 0 89 3b 50
        E 0 99 3b 64
        E 240 89 3b 50
        E 0 99 26 64
        E 0 99 3b 64
        E 240 89 3b 50
        E 0 89 26 50
        E 0 99 3b 3c
        E 240 89 3b 50
        E 0 99 3b 50
        E 240 89 3b 50
        E 0 99 3b 64
        E 240 89 3b 50
        E 0 99 24 64
        E 0 99 3b 64
        E 240 89 3b 50
        E 0 89 24 50
        E 0 99 3b 3c
        E 240 89 3b 50
        E 0 99 3b 50
        E 240 89 3b 50
        E 0 99 3b 64
        E 240 89 3b 50
        E 0 99 26 64
        E 0 99 3b 64
        E 240 89 3b 50
        E 0 89 26 50
        E 0 99 3b 3c
        E 240 89 3b 50
        E 0 99 3b 50
        E 240 89 3b 50
        E 0 99 24 64
        E 0 99 3b 64
        E 240 89 3b 50
        E 0 89 24 50
        E 0 99 3b 64
        E 240 89 3b 50
        E 0 99 26 64
        E 0 99 3b 3c
        E 240 89 3b 50
        E 0 89 26 50
        E 0 99 24 64
        E 0 99 3b 50
        E 240 89 3b 50
        E 0 89 24 50
        E 0 99 3b 64
        E 240 89 3b 50
        E 0 99 26 64
        E 0 99 3b 64
        E 240 89 3b 50
        E 0 89 26 50
        E 0 99 3b 3c
        E 240 89 3b 50
        E 0 99 3b 50
        E 240 89 3b 50
        E 0 99 26 64
        E 0 99 3b 64
        E 240 89 3b 50
        E 0 89 26 50
        E 0 99 24 64
        E 0 99 3b 64
        E 240 89 3b 50
        E 0 89 24 50
        E 0 99 3b 3c
        E 240 89 3b 50
        E 0 99 3b 50
        E 240 89 3b 50
        E 0 99 3b 64
        E 240 89 3b 50
        E 0 99 26 64
        E 0 99 3b 64
        E 240 89 3b 50
        E 0 89 26 50
        E 0 99 3b 3c
        E 0 99 24 64
        E 240 89 24 50
        E 0 89 3b 50
        E 0 99 3b 50
        E 240 89 3b 50
        E 0 99 3b 64
        E 240 89 3b 50
        E 0 99 3b 64
        E 0 99 24 64
        E 240 89 24 50
        E 0 89 3b 50
        E 0 99 3b 3c
        E 240 89 3b 50
        E 0 99 3b 50
        E 0 99 24 64
        E 240 89 24 50
        E 0 89 3b 50
        E 0 99 3b 64
        E 240 89 3b 50
        E 0 99 26 64
        E 0 99 3b 64
        E 240 89 3b 50
        E 0 89 26 50
        E 0 99 26 64
        E 0 99 3b 3c
        E 240 89 3b 50
        E 0 89 26 50
        E 0 99 3b 50
        E 240 89 3b 50
        E 0 99 3b 64
        E 0 99 24 64
        E 240 89 24 50
        E 0 89 3b 50
        E 0 99 24 64
        E 0 99 3b 64
        E 240 89 3b 50
        E 0 89 24 50
        E 0 99 3b 3c
        E 240 89 3b 50
        E 0 99 3b 50
        E 240 89 3b 50
        E 0 99 3b 64
        E 240 89 3b 50
        E 0 99 26 64
        E 0 99 3b 64
        E 240 89 3b 50
        E 0 89 26 50
        E 0 99 3b 3c
        E 240 89 3b 50
        E 0 99 3b 50
        E 240 89 3b 50
        E 0 99 24 64
        E 0 99 3b 64
        E 240 89 3b 50
        E 0 89 24 50
        E 0 99 3b 64
        E 240 89 3b 50
        E 0 99 24 64
        E 0 99 3b 3c
        E 240 89 3b 50
        E 0 89 24 50
        E 0 99 3b 50
        E 240 89 3b 50
        E 0 99 24 64
        E 0 99 3b 64
        E 240 89 3b 50
        E 0 89 24 50
        E 0 99 26 64
        E 0 99 3b 64
        E 240 89 3b 50
        E 0 89 26 50
        E 0 99 26 64
        E 0 99 3b 3c
        E 240 89 3b 50
        E 0 89 26 50
        E 0 99 26 64
        E 0 99 3b 50
        E 240 89 3b 50
        E 0 89 26 50
        E 0 99 26 64
        E 0 99 3b 64
        E 240 89 3b 50
        E 0 89 26 50
        E 0 99 24 64
        E 0 99 3b 64
        E 240 89 3b 50
        E 0 89 24 50
        E 0 99 24 64
        E 0 99 3b 3c
        E 240 89 3b 50
        E 0 89 24 50
        E 0 99 3b 50
        E 240 89 3b 50
        E 0 99 3b 64
        E 240 89 3b 50
        E 0 99 26 64
        E 0 99 3b 64
        E 240 89 3b 50
        E 0 89 26 50
        E 0 99 3b 3c
        E 240 89 3b 50
        E 0 99 3b 50
        E 240 89 3b 50
        E 0 99 24 64
        E 0 99 3b 64
        E 240 89 3b 50
        E 0 89 24 50
        E 0 99 3b 64
        E 240 89 3b 50
        E 0 99 24 64
        E 0 99 3b 3c
        E 240 89 3b 50
        E 0 89 24 50
        E 0 99 45 64
        E 0 99 3b 50
        E 240 89 3b 50
        E 0 89 45 50
        E 0 99 45 64
        E 0 99 3b 64
        E 240 89 3b 50
        E 0 89 45 50
        E 0 99 3b 64
        E 0 99 26 64
        E 240 89 26 50
        E 0 89 3b 50
        E 0 99 3b 3c
        E 240 89 3b 50
        E 0 99 24 64
        E 0 99 3b 50
        E 240 89 3b 50
        E 0 89 24 50
        E 0 99 24 64
        E 0 99 3b 64
        E 240 89 3b 50
        E 0 89 24 50
        E 0 99 24 64
        E 0 99 3b 64
        E 240 89 3b 50
        E 0 89 24 50
        E 0 99 24 64
        E 0 99 3b 3c
        E 240 89 3b 50
        E 0 89 24 50
        E 0 99 3b 50
        E 240 89 3b 50
        E 0 99 3b 64
        E 240 89 3b 50
        E 0 99 26 64
        E 0 99 3b 64
        E 240 89 3b 50
        E 0 89 26 50
        E 0 99 3b 3c
        E 240 89 3b 50
        E 0 99 3b 50
        E 240 89 3b 50
        E 0 99 24 64
        E 0 99 3b 64
        E 240 89 3b 50
        E 0 89 24 50
        E 0 99 3b 64
        E 240 89 3b 50
        E 0 99 24 64
        E 0 99 3b 3c
        E 240 89 3b 50
        E 0 89 24 50
        E 0 99 45 64
        E 0 99 3b 50
        E 240 89 3b 50
        E 0 89 45 50
        E 0 99 45 64
        E 0 99 3b 64
        E 240 89 3b 50
        E 0 89 45 50
        E 0 99 26 64
        E 0 99 3b 64
        E 240 89 3b 50
        E 0 89 26 50
        E 0 99 3b 3c
        E 240 89 3b 50
        E 0 99 24 64
        E 0 99 3b 50
        E 240 89 3b 50
        E 0 89 24 50
        E 0 99 24 64
        E 0 99 3b 64
        E 240 89 3b 50
        E 0 89 24 50
        E 0 99 24 64
        E 0 99 3b 64
        E 240 89 3b 50
        E 0 89 24 50
        E 0 99 24 64
        E 0 99 3b 3c
        E 240 89 3b 50
        E 0 89 24 50
        E 0 99 3b 50
        E 240 89 3b 50
        E 0 99 3b 64
        E 240 89 3b 50
        E 0 99 26 64
        E 0 99 3b 64
        E 240 89 3b 50
        E 0 89 26 50
        E 0 99 3b 3c
        E 240 89 3b 50
        E 0 99 3b 50
        E 240 89 3b 50
        E 0 99 24 64
        E 0 99 3b 64
        E 240 89 3b 50
        E 0 89 24 50
        E 0 99 3b 64
        E 240 89 3b 50
        E 0 99 24 64
        E 0 99 3b 3c
        E 240 89 3b 50
        E 0 89 24 50
        E 0 99 45 64
        E 0 99 3b 50
        E 240 89 3b 50
        E 0 89 45 50
        E 0 99 45 64
        E 0 99 3b 64
        E 240 89 3b 50
        E 0 89 45 50
        E 0 99 26 64
        E 0 99 3b 64
        E 240 89 3b 50
        E 0 89 26 50
        E 0 99 3b 3c
        E 240 89 3b 50
        E 0 99 3b 50
        E 240 89 3b 50
        E 0 99 3b 64
        E 240 89 3b 50
        E 0 99 26 64
        E 0 99 3b 64
        E 240 89 3b 50
        E 0 89 26 50
        E 0 99 26 64
        E 0 99 3b 3c
        E 240 89 3b 50
        E 0 89 26 50
        E 0 99 3b 50
        E 240 89 3b 50
        E 0 99 3b 64
        E 0 99 26 64
        E 240 89 26 50
        E 0 89 3b 50
        E 0 99 3b 64
        E 0 99 26 64
        E 240 89 26 50
        E 0 89 3b 50
        E 0 99 3b 3c
        E 240 89 3b 50
        E 0 99 3b 50
        E 0 99 26 64
        E 240 89 26 50
        E 0 89 3b 50
        E 0 99 3b 64
        E 0 99 26 64
        E 240 89 26 50
        E 0 89 3b 50
        E 0 99 3b 64
        E 240 89 3b 50
        E 0 99 3b 3c
        E 0 99 26 64
        E 240 89 26 50
        E 0 89 3b 50
        E 0 99 3b 50
        E 0 99 26 64
        E 240 89 26 50
        E 0 89 3b 50
        E 0 99 3b 64
        E 240 89 3b 50
        E 0 99 3b 64
        E 0 99 26 64
        E 240 89 26 50
        E 0 89 3b 50
        E 0 99 3b 3c
        E 240 89 3b 50
        E 0 99 3b 50
        E 240 89 3b 50
        E 0 99 3b 64
        E 240 89 3b 50
        E 0 99 24 64
        E 0 99 3b 64
        E 240 89 3b 50
        E 0 89 24 50
        E 0 99 3b 3c
        E 240 89 3b 50
        E 0 99 3b 50
        E 0 99 45 64
        E 240 89 45 50
        E 0 89 3b 50
        E 0 99 3b 64
        E 0 99 45 64
        E 240 89 45 50
        E 0 89 3b 50
        E 0 99 26 64
        E 0 99 3b 64
        E 240 89 3b 50
        E 0 89 26 50
        E 0 99 3b 3c
        E 240 89 3b 50
        E 0 99 3b 50
        E 0 99 45 64
        E 240 89 45 50
        E 0 89 3b 50
        E 0 99 24 64
        E 0 99 3b 64
        E 240 89 3b 50
        E 0 89 24 50
        E 0 99 3b 64
        E 240 89 3b 50
        E 0 99 24 64
        E 0 99 3b 3c
        E 240 89 3b 50
        E 0 89 24 50
        E 0 99 3b 50
        E 240 89 3b 50
        E 0 99 24 64
        E 0 99 3b 64
        E 240 89 3b 50
        E 0 89 24 50
        E 0 99 26 64
        E 0 99 3b 64
        E 240 89 3b 50
        E 0 89 26 50
        E 0 99 3b 3c
        E 240 89 3b 50
        E 0 99 3b 50
        E 240 89 3b 50
        E 0 99 3b 64
        E 240 89 3b 50
        E 0 99 24 64
        E 0 99 3b 64
        E 240 89 3b 50
        E 0 89 24 50
        E 0 99 3b 3c
        E 240 89 3b 50
        E 0 99 3b 50
        E 0 99 45 64
        E 240 89 45 50
        E 0 89 3b 50
        E 0 99 3b 64
        E 0 99 45 64
        E 240 89 45 50
        E 0 89 3b 50
        E 0 99 26 64
        E 0 99 3b 64
        E 240 89 3b 50
        E 0 89 26 50
        E 0 99 3b 3c
        E 240 89 3b 50
        E 0 99 3b 50
        E 0 99 45 64
        E 240 89 45 50
        E 0 89 3b 50
        E 0 99 24 64
        E 0 99 3b 64
        E 240 89 3b 50
        E 0 89 24 50
        E 0 99 3b 64
        E 240 89 3b 50
        E 0 99 26 64
        E 0 99 3b 3c
        E 240 89 3b 50
        E 0 89 26 50
        E 0 99 24 64
        E 0 99 3b 50
        E 240 89 3b 50
        E 0 89 24 50
        E 0 99 3b 64
        E 240 89 3b 50
        E 0 99 26 64
        E 0 99 3b 64
        E 240 89 3b 50
        E 0 89 26 50
        E 0 99 3b 3c
        E 240 89 3b 50
        E 0 99 3b 50
        E 240 89 3b 50
        E 0 99 26 64
        E 0 99 3b 64
        E 240 89 3b 50
        E 0 89 26 50
        E 0 99 24 64
        E 0 99 3b 64
        E 240 89 3b 50
        E 0 89 24 50
        E 0 99 3b 3c
        E 240 89 3b 50
        E 0 99 3b 50
        E 0 99 45 64
        E 240 89 45 50
        E 0 89 3b 50
        E 0 99 3b 64
        E 0 99 45 64
        E 240 89 45 50
        E 0 89 3b 50
        E 0 99 26 64
        E 0 99 3b 64
        E 240 89 3b 50
        E 0 89 26 50
        E 0 99 3b 3c
        E 240 89 3b 50
        E 0 99 3b 50
        E 0 99 45 64
        E 240 89 45 50
        E 0 89 3b 50
        E 0 99 24 64
        E 0 99 3b 64
        E 240 89 3b 50
        E 0 89 24 50
        E 0 99 3b 64
        E 240 89 3b 50
        E 0 99 24 64
        E 0 99 3b 3c
        E 240 89 3b 50
        E 0 89 24 50
        E 0 99 3b 50
        E 240 89 3b 50
        E 0 99 3b 64
        E 240 89 3b 50
        E 0 99 26 64
        E 0 99 3b 64
        E 240 89 3b 50
        E 0 89 26 50
        E 0 99 26 64
        E 0 99 3b 3c
        E 240 89 3b 50
        E 0 89 26 50
        E 0 99 3b 50
        E 240 89 3b 50
        E 0 99 3b 64
        E 0 99 24 64
        E 240 89 24 50
        E 0 89 3b 50
        E 0 99 24 64
        E 0 99 3b 64
        E 240 89 3b 50
        E 0 89 24 50
        E 0 99 3b 3c
        E 240 89 3b 50
        E 0 99 3b 50
        E 0 99 45 64
        E 240 89 45 50
        E 0 89 3b 50
        E 0 99 3b 64
        E 0 99 45 64
        E 240 89 45 50
        E 0 89 3b 50
        E 0 99 26 64
        E 0 99 3b 64
        E 240 89 3b 50
        E 0 89 26 50
        E 0 99 3b 3c
        E 240 89 3b 50
        E 0 99 3b 50
        E 0 99 45 64
        E 240 89 45 50
        E 0 89 3b 50
        E 0 99 24 64
        E 0 99 3b 64
        E 240 89 3b 50
        E 0 89 24 50
        E 0 99 3b 64
        E 240 89 3b 50
        E 0 99 24 64
        E 0 99 3b 3c
        E 240 89 3b 50
        E 0 89 24 50
        E 0 99 3b 50
        E 240 89 3b 50
        E 0 99 24 64
        E 0 99 3b 64
        E 240 89 3b 50
        E 0 89 24 50
        E 0 99 26 64
        E 0 99 3b 64
        E 240 89 3b 50
        E 0 89 26 50
        E 0 99 26 64
        E 0 99 3b 3c
        E 240 89 3b 50
        E 0 89 26 50
        E 0 99 26 64
        E 0 99 3b 50
        E 240 89 3b 50
        E 0 89 26 50
        E 0 99 26 64
        E 0 99 3b 64
        E 240 89 3b 50
        E 0 89 26 50
        E 0 99 3b 64
        E 0 99 24 64
        E 240 89 24 50
        E 0 89 3b 50
        E 0 99 3b 3c
        E 240 89 3b 50
        E 0 99 3b 50
        E 0 99 45 64
        E 240 89 45 50
        E 0 89 3b 50
        E 0 99 3b 64
        E 0 99 45 64
        E 240 89 45 50
        E 0 89 3b 50
        E 0 99 26 64
        E 0 99 3b 64
        E 240 89 3b 50
        E 0 89 26 50
        E 0 99 3b 3c
        E 240 89 3b 50
        E 0 99 3b 50
        E 0 99 45 64
        E 240 89 45 50
        E 0 89 3b 50
        E 0 99 24 64
        E 0 99 3b 64
        E 240 89 3b 50
        E 0 89 24 50
        E 0 99 3b 64
        E 240 89 3b 50
        E 0 99 24 64
        E 0 99 3b 3c
        E 240 89 3b 50
        E 0 89 24 50
        E 0 99 3b 50
        E 240 89 3b 50
        E 0 99 24 64
        E 0 99 3b 64
        E 240 89 3b 50
        E 0 89 24 50
        E 0 99 26 64
        E 0 99 3b 64
        E 240 89 3b 50
        E 0 89 26 50
        E 0 99 3b 3c
        E 240 89 3b 50
        E 0 99 3b 50
        E 240 89 3b 50
        E 0 99 3b 64
        E 240 89 3b 50
        E 0 99 3b 64
        E 0 99 24 64
        E 240 89 24 50
        E 0 89 3b 50
        E 0 99 3b 3c
        E 240 89 3b 50
        E 0 99 3b 50
        E 0 99 45 64
        E 240 89 45 50
        E 0 89 3b 50
        E 0 99 3b 64
        E 0 99 45 64
        E 240 89 45 50
        E 0 89 3b 50
        E 0 99 26 64
        E 0 99 3b 64
        E 240 89 3b 50
        E 0 89 26 50
        E 0 99 3b 3c
        E 240 89 3b 50
        E 0 99 3b 50
        E 0 99 45 64
        E 240 89 45 50
        E 0 89 3b 50
        E 0 99 24 64
        E 0 99 3b 64
        E 240 89 3b 50
        E 0 89 24 50
        E 0 99 3b 64
        E 240 89 3b 50
        E 0 99 3b 3c
        E 6 99 26 64
        E 234 89 3b 50
        E 0 99 3b 50
        E 6 89 26 50
        E 234 89 3b 50
        E 0 99 3b 64
        E 6 99 26 64
        E 234 89 3b 50
        E 0 99 3b 64
        E 6 89 26 50
        E 234 89 3b 50
        E 0 99 3b 3c
        E 6 99 26 64
        E 234 89 3b 50
        E 0 99 3b 50
        E 6 89 26 50
        E 226 99 26 64
        E 8 89 3b 50
        E 0 99 3b 64
        E 232 89 26 50
        E 8 89 3b 50
        E 0 99 3b 64
        E 0 99 24 64
        E 240 89 24 50
        E 0 89 3b 50
        E 0 99 3b 3c
        E 240 89 3b 50
        E 0 99 3b 50
        E 0 99 35 64
        E 240 89 35 50
        E 0 89 3b 50
        E 0 99 3b 64
        E 240 89 3b 50
        E 0 99 3b 64
        E 0 99 26 64
        E 240 89 26 50
        E 0 89 3b 50
        E 0 99 3b 3c
        E 240 89 3b 50
        E 0 99 3b 50
        E 0 99 35 64
        E 240 89 35 50
        E 0 89 3b 50
        E 0 99 3b 64
        E 0 99 24 64
        E 240 89 24 50
        E 0 89 3b 50
        E 0 99 3b 64
        E 240 89 3b 50
        E 0 99 3b 3c
        E 0 99 24 64
        E 240 89 24 50
        E 0 89 3b 50
        E 0 99 3b 50
        E 0 99 35 64
        E 240 89 35 50
        E 0 89 3b 50
        E 0 99 3b 64
        E 0 99 24 64
        E 240 89 24 50
        E 0 89 3b 50
        E 0 99 3b 64
        E 0 99 26 64
        E 240 89 26 50
        E 0 89 3b 50
        E 0 99 3b 3c
        E 240 89 3b 50
        E 0 99 3b 50
        E 0 99 26 64
        E 0 99 35 64
        E 240 89 35 50
        E 0 89 26 50
        E 0 89 3b 50
        E 0 99 3b 64
        E 240 89 3b 50
        E 0 99 3b 64
        E 0 99 24 64
        E 240 89 24 50
        E 0 89 3b 50
        E 0 99 3b 3c
        E 240 89 3b 50
        E 0 99 3b 50
        E 0 99 35 64
        E 240 89 35 50
        E 0 89 3b 50
        E 0 99 3b 64
        E 240 89 3b 50
        E 0 99 3b 64
        E 0 99 26 64
        E 240 89 26 50
        E 0 89 3b 50
        E 0 99 3b 3c
        E 240 89 3b 50
        E 0 99 3b 50
        E 0 99 35 64
        E 240 89 35 50
        E 0 89 3b 50
        E 0 99 3b 64
        E 0 99 24 64
        E 240 89 24 50
        E 0 89 3b 50
        E 0 99 3b 64
        E 240 89 3b 50
        E 0 99 3b 3c
        E 0 99 24 64
        E 240 89 24 50
        E 0 89 3b 50
        E 0 99 3b 50
        E 0 99 35 64
        E 240 89 35 50
        E 0 89 3b 50
        E 0 99 3b 64
        E 0 99 24 64
        E 240 89 24 50
        E 0 89 3b 50
        E 0 99 3b 64
        E 0 99 26 64
        E 240 89 26 50
        E 0 89 3b 50
        E 0 99 3b 3c
        E 240 89 3b 50
        E 0 99 3b 50
        E 0 99 26 64
        E 0 99 35 64
        E 240 89 35 50
        E 0 89 26 50
        E 0 89 3b 50
        E 0 99 3b 64
        E 240 89 3b 50
        E 0 99 3b 64
        E 0 99 26 64
        E 0 99 24 64
        E 240 89 24 50
        E 0 89 26 50
        E 0 89 3b 50
        E 0 99 3b 3c
        E 0 99 26 64
        E 240 89 26 50
        E 0 89 3b 50
        E 0 99 3b 50
        E 240 89 3b 50
        E 0 99 3b 64
        E 240 89 3b 50
        E 0 99 3b 64
        E 240 89 3b 50
        E 0 99 3b 3c
        E 240 89 3b 50
        E 0 99 3b 50
        E 240 89 3b 50
        E 0 99 3b 64
        E 240 89 3b 50
        E 0 99 3b 64
        E 240 89 3b 50
        E 0 99 3b 3c
        E 240 89 3b 50
        E 0 99 3b 50
        E 240 89 3b 50
        E 0 99 3b 64
        E 240 89 3b 50
        E 0 99 3b 64
        E 240 89 3b 50
        E 0 99 3b 3c
        E 240 89 3b 50
        E 0 99 3b 50
        E 240 89 3b 50
        E 0 99 3b 64
        E 240 89 3b 50
        E 0 99 3b 64
        E 0 99 26 64
        E 0 99 24 64
        E 240 89 24 50
        E 0 89 26 50
        E 0 89 3b 50
        E 0 99 3b 3c
        E 0 99 26 64
        E 240 89 26 50
        E 0 89 3b 50
        E 0 99 3b 50
        E 240 89 3b 50
        E 0 99 3b 64
        E 240 89 3b 50
        E 0 99 3b 64
        E 240 89 3b 50
        E 0 99 3b 3c
        E 240 89 3b 50
        E 0 99 3b 50
        E 240 89 3b 50
        E 0 99 3b 64
        E 240 89 3b 50
        E 0 99 3b 64
        E 240 89 3b 50
        E 0 99 3b 3c
        E 240 89 3b 50
        E 0 99 3b 50
        E 240 89 3b 50
        E 0 99 3b 64
        E 240 89 3b 50
        E 0 99 3b 64
        E 240 89 3b 50
        E 0 99 3b 3c
        E 240 89 3b 50
        E 0 99 3b 50
        E 0 99 26 64
        E 240 89 26 50
        E 0 89 3b 50
        E 0 99 3b 64
        E 0 99 26 64
        E 240 89 26 50
        E 0 89 3b 50
        E 0 99 24 64
        E 0 99 3b 64
        E 240 89 3b 50
        E 0 89 24 50
        E 0 99 3b 3c
        E 240 89 3b 50
        E 0 99 3b 50
        E 240 89 3b 50
        E 0 99 3b 64
        E 240 89 3b 50
        E 0 99 26 64
        E 0 99 3b 64
        E 240 89 3b 50
        E 0 89 26 50
        E 0 99 3b 3c
        E 240 89 3b 50
        E 0 99 3b 50
        E 240 89 3b 50
        E 0 99 24 64
        E 0 99 3b 64
        E 240 89 3b 50
        E 0 89 24 50
        E 0 99 3b 64
        E 240 89 3b 50
        E 0 99 3b 3c
        E 240 89 3b 50
        E 0 99 3b 50
        E 0 99 24 64
        E 240 89 24 50
        E 0 89 3b 50
        E 0 99 3b 64
        E 240 89 3b 50
        E 0 99 26 64
        E 0 99 3b 64
        E 240 89 3b 50
        E 0 89 26 50
        E 0 99 3b 3c
        E 240 89 3b 50
        E 0 99 3b 50
        E 240 89 3b 50
        E 0 99 3b 64
        E 240 89 3b 50
        E 0 99 24 64
        E 0 99 3b 64
        E 240 89 3b 50
        E 0 89 24 50
        E 0 99 3b 3c
        E 240 89 3b 50
        E 0 99 3b 50
        E 240 89 3b 50
        E 0 99 3b 64
        E 240 89 3b 50
        E 0 99 26 64
        E 0 99 3b 64
        E 240 89 3b 50
        E 0 89 26 50
        E 0 99 3b 3c
        E 240 89 3b 50
        E 0 99 3b 50
        E 240 89 3b 50
        E 0 99 24 64
        E 0 99 3b 64
        E 240 89 3b 50
        E 0 89 24 50
        E 0 99 3b 64
        E 240 89 3b 50
        E 0 99 26 64
        E 0 99 3b 3c
        E 240 89 3b 50
        E 0 89 26 50
        E 0 99 24 64
        E 0 99 3b 50
        E 240 89 3b 50
        E 0 89 24 50
        E 0 99 3b 64
        E 240 89 3b 50
        E 0 99 26 64
        E 0 99 3b 64
        E 240 89 3b 50
        E 0 89 26 50
        E 0 99 3b 3c
        E 240 89 3b 50
        E 0 99 3b 50
        E 240 89 3b 50
        E 0 99 26 64
        E 0 99 3b 64
        E 240 89 3b 50
        E 0 89 26 50
        E 0 99 24 64
        E 0 99 3b 64
        E 240 89 3b 50
        E 0 89 24 50
        E 0 99 3b 3c
        E 240 89 3b 50
        E 0 99 3b 50
        E 240 89 3b 50
        E 0 99 3b 64
        E 240 89 3b 50
        E 0 99 26 64
        E 0 99 3b 64
        E 240 89 3b 50
        E 0 89 26 50
        E 0 99 3b 3c
        E 0 99 24 64
        E 240 89 24 50
        E 0 89 3b 50
        E 0 99 3b 50
        E 240 89 3b 50
        E 0 99 3b 64
        E 240 89 3b 50
        E 0 99 3b 64
        E 0 99 24 64
        E 240 89 24 50
        E 0 89 3b 50
        E 0 99 3b 3c
        E 240 89 3b 50
        E 0 99 3b 50
        E 0 99 24 64
        E 240 89 24 50
        E 0 89 3b 50
        E 0 99 3b 64
        E 240 89 3b 50
        E 0 99 26 64
        E 0 99 3b 64
        E 240 89 3b 50
        E 0 89 26 50
        E 0 99 26 64
        E 0 99 3b 3c
        E 240 89 3b 50
        E 0 89 26 50
        E 0 99 3b 50
        E 240 89 3b 50
        E 0 99 3b 64
        E 0 99 24 64
        E 240 89 24 50
        E 0 89 3b 50
        E 0 99 24 64
        E 0 99 3b 64
        E 240 89 3b 50
        E 0 89 24 50
        E 0 99 3b 3c
        E 240 89 3b 50
        E 0 99 3b 50
        E 240 89 3b 50
        E 0 99 3b 64
        E 240 89 3b 50
        E 0 99 26 64
        E 0 99 3b 64
        E 240 89 3b 50
        E 0 89 26 50
        E 0 99 3b 3c
        E 240 89 3b 50
        E 0 99 3b 50
        E 240 89 3b 50
        E 0 99 24 64
        E 0 99 3b 64
        E 240 89 3b 50
        E 0 89 24 50
        E 0 99 3b 64
        E 240 89 3b 50
        E 0 99 24 64
        E 0 99 3b 3c
        E 240 89 3b 50
        E 0 89 24 50
        E 0 99 3b 50
        E 240 89 3b 50
        E 0 99 24 64
        E 0 99 3b 64
        E 240 89 3b 50
        E 0 89 24 50
        E 0 99 26 64
        E 0 99 3b 64
        E 240 89 3b 50
        E 0 89 26 50
        E 0 99 26 64
        E 0 99 3b 3c
        E 240 89 3b 50
        E 0 89 26 50
        E 0 99 26 64
        E 0 99 3b 50
        E 240 89 3b 50
        E 0 89 26 50
        E 0 99 26 64
        E 0 99 3b 64
        E 240 89 3b 50
        E 0 89 26 50
        E 0 99 24 64
        E 0 99 3b 64
        E 240 89 3b 50
        E 0 89 24 50
        E 0 99 24 64
        E 0 99 3b 3c
        E 240 89 3b 50
        E 0 89 24 50
        E 0 99 3b 50
        E 240 89 3b 50
        E 0 99 3b 64
        E 240 89 3b 50
        E 0 99 26 64
        E 0 99 3b 64
        E 240 89 3b 50
        E 0 89 26 50
        E 0 99 3b 3c
        E 240 89 3b 50
        E 0 99 3b 50
        E 240 89 3b 50
        E 0 99 24 64
        E 0 99 3b 64
        E 240 89 3b 50
        E 0 89 24 50
        E 0 99 3b 64
        E 240 89 3b 50
        E 0 99 24 64
        E 0 99 3b 3c
        E 240 89 3b 50
        E 0 89 24 50
        E 0 99 45 64
        E 0 99 3b 50
        E 240 89 3b 50
        E 0 89 45 50
        E 0 99 45 64
        E 0 99 3b 64
        E 240 89 3b 50
        E 0 89 45 50
        E 0 99 3b 64
        E 0 99 26 64
        E 240 89 26 50
        E 0 89 3b 50
        E 0 99 3b 3c
        E 240 89 3b 50
        E 0 99 24 64
        E 0 99 3b 50
        E 240 89 3b 50
        E 0 89 24 50
        E 0 99 24 64
        E 0 99 3b 64
        E 240 89 3b 50
        E 0 89 24 50
        E 0 99 24 64
        E 0 99 3b 64
        E 240 89 3b 50
        E 0 89 24 50
        E 0 99 24 64
        E 0 99 3b 3c
        E 240 89 3b 50
        E 0 89 24 50
        E 0 99 3b 50
        E 240 89 3b 50
        E 0 99 3b 64
        E 240 89 3b 50
        E 0 99 26 64
        E 0 99 3b 64
        E 240 89 3b 50
        E 0 89 26 50
        E 0 99 3b 3c
        E 240 89 3b 50
        E 0 99 3b 50
        E 240 89 3b 50
        E 0 99 24 64
        E 0 99 3b 64
        E 240 89 3b 50
        E 0 89 24 50
        E 0 99 3b 64
        E 240 89 3b 50
        E 0 99 24 64
        E 0 99 3b 3c
        E 240 89 3b 50
        E 0 89 24 50
        E 0 99 45 64
        E 0 99 3b 50
        E 240 89 3b 50
        E 0 89 45 50
        E 0 99 45 64
        E 0 99 3b 64
        E 240 89 3b 50
        E 0 89 45 50
        E 0 99 26 64
        E 0 99 3b 64
        E 240 89 3b 50
        E 0 89 26 50
        E 0 99 3b 3c
        E 240 89 3b 50
        E 0 99 24 64
        E 0 99 3b 50
        E 240 89 3b 50
        E 0 89 24 50
        E 0 99 24 64
        E 0 99 3b 64
        E 240 89 3b 50
        E 0 89 24 50
        E 0 99 24 64
        E 0 99 3b 64
        E 240 89 3b 50
        E 0 89 24 50
        E 0 99 24 64
        E 0 99 3b 3c
        E 240 89 3b 50
        E 0 89 24 50
        E 0 99 3b 50
        E 240 89 3b 50
        E 0 99 3b 64
        E 240 89 3b 50
        E 0 99 26 64
        E 0 99 3b 64
        E 240 89 3b 50
        E 0 89 26 50
        E 0 99 3b 3c
        E 240 89 3b 50
        E 0 99 3b 50
        E 240 89 3b 50
        E 0 99 24 64
        E 0 99 3b 64
        E 240 89 3b 50
        E 0 89 24 50
        E 0 99 3b 64
        E 240 89 3b 50
        E 0 99 24 64
        E 0 99 3b 3c
        E 240 89 3b 50
        E 0 89 24 50
        E 0 99 45 64
        E 0 99 3b 50
        E 240 89 3b 50
        E 0 89 45 50
        E 0 99 45 64
        E 0 99 3b 64
        E 240 89 3b 50
        E 0 89 45 50
        E 0 99 26 64
        E 0 99 3b 64
        E 240 89 3b 50
        E 0 89 26 50
        E 0 99 3b 3c
        E 240 89 3b 50
        E 0 99 3b 50
        E 240 89 3b 50
        E 0 99 3b 64
        E 240 89 3b 50
        E 0 99 26 64
        E 0 99 3b 64
        E 240 89 3b 50
        E 0 89 26 50
        E 0 99 26 64
        E 0 99 3b 3c
        E 240 89 3b 50
        E 0 89 26 50
        E 0 99 3b 50
        E 240 89 3b 50
        E 0 99 3b 64
        E 0 99 26 64
        E 240 89 26 50
        E 0 89 3b 50
        E 0 99 3b 64
        E 0 99 26 64
        E 240 89 26 50
        E 0 89 3b 50
        E 0 99 3b 3c
        E 240 89 3b 50
        E 0 99 3b 50
        E 0 99 26 64
        E 240 89 26 50
        E 0 89 3b 50
        E 0 99 3b 64
        E 0 99 26 64
        E 240 89 26 50
        E 0 89 3b 50
        E 0 99 3b 64
        E 240 89 3b 50
        E 0 99 3b 3c
        E 0 99 26 64
        E 240 89 26 50
        E 0 89 3b 50
        E 0 99 3b 50
        E 0 99 26 64
        E 240 89 26 50
        E 0 89 3b 50
        E 0 99 3b 64
        E 240 89 3b 50
        E 0 99 3b 64
        E 0 99 26 64
        E 240 89 26 50
        E 0 89 3b 50
        E 0 99 3b 3c
        E 240 89 3b 50
        E 0 99 3b 50
        E 240 89 3b 50
        E 0 99 3b 64
        E 240 89 3b 50
        E 0 99 24 64
        E 0 99 3b 64
        E 240 89 3b 50
        E 0 89 24 50
        E 0 99 3b 3c
        E 240 89 3b 50
        E 0 99 3b 50
        E 0 99 45 64
        E 240 89 45 50
        E 0 89 3b 50
        E 0 99 3b 64
        E 0 99 45 64
        E 240 89 45 50
        E 0 89 3b 50
        E 0 99 26 64
        E 0 99 3b 64
        E 240 89 3b 50
        E 0 89 26 50
        E 0 99 3b 3c
        E 240 89 3b 50
        E 0 99 3b 50
        E 0 99 45 64
        E 240 89 45 50
        E 0 89 3b 50
        E 0 99 24 64
        E 0 99 3b 64
        E 240 89 3b 50
        E 0 89 24 50
        E 0 99 3b 64
        E 240 89 3b 50
        E 0 99 24 64
        E 0 99 3b 3c
        E 240 89 3b 50
        E 0 89 24 50
        E 0 99 3b 50
        E 240 89 3b 50
        E 0 99 24 64
        E 0 99 3b 64
        E 240 89 3b 50
        E 0 89 24 50
        E 0 99 26 64
        E 0 99 3b 64
        E 240 89 3b 50
        E 0 89 26 50
        E 0 99 3b 3c
        E 240 89 3b 50
        E 0 99 3b 50
        E 240 89 3b 50
        E 0 99 3b 64
        E 240 89 3b 50
        E 0 99 24 64
        E 0 99 3b 64
        E 240 89 3b 50
        E 0 89 24 50
        E 0 99 3b 3c
        E 240 89 3b 50
        E 0 99 3b 50
        E 0 99 45 64
        E 240 89 45 50
        E 0 89 3b 50
        E 0 99 3b 64
        E 0 99 45 64
        E 240 89 45 50
        E 0 89 3b 50
        E 0 99 26 64
        E 0 99 3b 64
        E 240 89 3b 50
        E 0 89 26 50
        E 0 99 3b 3c
        E 240 89 3b 50
        E 0 99 3b 50
        E 0 99 45 64
        E 240 89 45 50
        E 0 89 3b 50
        E 0 99 24 64
        E 0 99 3b 64
        E 240 89 3b 50
        E 0 89 24 50
        E 0 99 3b 64
        E 240 89 3b 50
        E 0 99 26 64
        E 0 99 3b 3c
        E 240 89 3b 50
        E 0 89 26 50
        E 0 99 24 64
        E 0 99 3b 50
        E 240 89 3b 50
        E 0 89 24 50
        E 0 99 3b 64
        E 240 89 3b 50
        E 0 99 26 64
        E 0 99 3b 64
        E 240 89 3b 50
        E 0 89 26 50
        E 0 99 3b 3c
        E 240 89 3b 50
        E 0 99 3b 50
        E 240 89 3b 50
        E 0 99 26 64
        E 0 99 3b 64
        E 240 89 3b 50
        E 0 89 26 50
        E 0 99 24 64
        E 0 99 3b 64
        E 240 89 3b 50
        E 0 89 24 50
        E 0 99 3b 3c
        E 240 89 3b 50
        E 0 99 3b 50
        E 0 99 45 64
        E 240 89 45 50
        E 0 89 3b 50
        E 0 99 3b 64
        E 0 99 45 64
        E 240 89 45 50
        E 0 89 3b 50
        E 0 99 26 64
        E 0 99 3b 64
        E 240 89 3b 50
        E 0 89 26 50
        E 0 99 3b 3c
        E 240 89 3b 50
        E 0 99 3b 50
        E 0 99 45 64
        E 240 89 45 50
        E 0 89 3b 50
        E 0 99 24 64
        E 0 99 3b 64
        E 240 89 3b 50
        E 0 89 24 50
        E 0 99 3b 64
        E 240 89 3b 50
        E 0 99 24 64
        E 0 99 3b 3c
        E 240 89 3b 50
        E 0 89 24 50
        E 0 99 3b 50
        E 240 89 3b 50
        E 0 99 3b 64
        E 240 89 3b 50
        E 0 99 26 64
        E 0 99 3b 64
        E 240 89 3b 50
        E 0 89 26 50
        E 0 99 26 64
        E 0 99 3b 3c
        E 240 89 3b 50
        E 0 89 26 50
        E 0 99 3b 50
        E 240 89 3b 50
        E 0 99 3b 64
        E 0 99 24 64
        E 240 89 24 50
        E 0 89 3b 50
        E 0 99 24 64
        E 0 99 3b 64
        E 240 89 3b 50
        E 0 89 24 50
        E 0 99 3b 3c
        E 240 89 3b 50
        E 0 99 3b 50
        E 0 99 45 64
        E 240 89 45 50
        E 0 89 3b 50
        E 0 99 3b 64
        E 0 99 45 64
        E 240 89 45 50
        E 0 89 3b 50
        E 0 99 26 64
        E 0 99 3b 64
        E 240 89 3b 50
        E 0 89 26 50
        E 0 99 3b 3c
        E 240 89 3b 50
        E 0 99 3b 50
        E 0 99 45 64
        E 240 89 45 50
        E 0 89 3b 50
        E 0 99 24 64
        E 0 99 3b 64
        E 240 89 3b 50
        E 0 89 24 50
        E 0 99 3b 64
        E 240 89 3b 50
        E 0 99 24 64
        E 0 99 3b 3c
        E 240 89 3b 50
        E 0 89 24 50
        E 0 99 3b 50
        E 240 89 3b 50
        E 0 99 24 64
        E 0 99 3b 64
        E 240 89 3b 50
        E 0 89 24 50
        E 0 99 26 64
        E 0 99 3b 64
        E 240 89 3b 50
        E 0 89 26 50
        E 0 99 26 64
        E 0 99 3b 3c
        E 240 89 3b 50
        E 0 89 26 50
        E 0 99 26 64
        E 0 99 3b 50
        E 240 89 3b 50
        E 0 89 26 50
        E 0 99 26 64
        E 0 99 3b 64
        E 240 89 3b 50
        E 0 89 26 50
        E 0 99 3b 64
        E 0 99 24 64
        E 240 89 24 50
        E 0 89 3b 50
        E 0 99 3b 3c
        E 240 89 3b 50
        E 0 99 3b 50
        E 0 99 45 64
        E 240 89 45 50
        E 0 89 3b 50
        E 0 99 3b 64
        E 0 99 45 64
        E 240 89 45 50
        E 0 89 3b 50
        E 0 99 26 64
        E 0 99 3b 64
        E 240 89 3b 50
        E 0 89 26 50
        E 0 99 3b 3c
        E 240 89 3b 50
        E 0 99 3b 50
        E 0 99 45 64
        E 240 89 45 50
        E 0 89 3b 50
        E 0 99 24 64
        E 0 99 3b 64
        E 240 89 3b 50
        E 0 89 24 50
        E 0 99 3b 64
        E 240 89 3b 50
        E 0 99 24 64
        E 0 99 3b 3c
        E 240 89 3b 50
        E 0 89 24 50
        E 0 99 3b 50
        E 240 89 3b 50
        E 0 99 24 64
        E 0 99 3b 64
        E 240 89 3b 50
        E 0 89 24 50
        E 0 99 26 64
        E 0 99 3b 64
        E 240 89 3b 50
        E 0 89 26 50
        E 0 99 3b 3c
        E 240 89 3b 50
        E 0 99 3b 50
        E 240 89 3b 50
        E 0 99 3b 64
        E 240 89 3b 50
        E 0 99 3b 64
        E 0 99 24 64
        E 240 89 24 50
        E 0 89 3b 50
        E 0 99 3b 3c
        E 240 89 3b 50
        E 0 99 3b 50
        E 0 99 45 64
        E 240 89 45 50
        E 0 89 3b 50
        E 0 99 3b 64
        E 0 99 45 64
        E 240 89 45 50
        E 0 89 3b 50
        E 0 99 26 64
        E 0 99 3b 64
        E 240 89 3b 50
        E 0 89 26 50
        E 0 99 3b 3c
        E 240 89 3b 50
        E 0 99 3b 50
        E 0 99 45 64
        E 240 89 45 50
        E 0 89 3b 50
        E 0 99 24 64
        E 0 99 3b 64
        E 240 89 3b 50
        E 0 89 24 50
        E 0 99 3b 64
        E 240 89 3b 50
        E 0 99 3b 3c
        E 6 99 26 64
        E 234 89 3b 50
        E 0 99 3b 50
        E 6 89 26 50
        E 234 89 3b 50
        E 0 99 3b 64
        E 6 99 26 64
        E 234 89 3b 50
        E 0 99 3b 64
        E 6 89 26 50
        E 234 89 3b 50
        E 0 99 3b 3c
        E 6 99 26 64
        E 234 89 3b 50
        E 0 99 3b 50
        E 6 89 26 50
        E 226 99 26 64
        E 8 89 3b 50
        E 0 99 3b 64
        E 232 89 26 50
        E 8 89 3b 50
        E 0 99 3b 64
        E 0 99 24 64
        E 240 89 24 50
        E 0 89 3b 50
        E 0 99 3b 3c
        E 240 89 3b 50
        E 0 99 3b 50
        E 0 99 35 64
        E 240 89 35 50
        E 0 89 3b 50
        E 0 99 3b 64
        E 240 89 3b 50
        E 0 99 3b 64
        E 0 99 26 64
        E 240 89 26 50
        E 0 89 3b 50
        E 0 99 3b 3c
        E 240 89 3b 50
        E 0 99 3b 50
        E 0 99 35 64
        E 240 89 35 50
        E 0 89 3b 50
        E 0 99 3b 64
        E 0 99 24 64
        E 240 89 24 50
        E 0 89 3b 50
        E 0 99 3b 64
        E 240 89 3b 50
        E 0 99 3b 3c
        E 0 99 24 64
        E 240 89 24 50
        E 0 89 3b 50
        E 0 99 3b 50
        E 0 99 35 64
        E 240 89 35 50
        E 0 89 3b 50
        E 0 99 3b 64
        E 0 99 24 64
        E 240 89 24 50
        E 0 89 3b 50
        E 0 99 3b 64
        E 0 99 26 64
        E 240 89 26 50
        E 0 89 3b 50
        E 0 99 3b 3c
        E 240 89 3b 50
        E 0 99 3b 50
        E 0 99 26 64
        E 0 99 35 64
        E 240 89 35 50
        E 0 89 26 50
        E 0 89 3b 50
        E 0 99 3b 64
        E 240 89 3b 50
        E 0 99 3b 64
        E 0 99 24 64
        E 240 89 24 50
        E 0 89 3b 50
        E 0 99 3b 3c
        E 240 89 3b 50
        E 0 99 3b 50
        E 0 99 35 64
        E 240 89 35 50
        E 0 89 3b 50
        E 0 99 3b 64
        E 240 89 3b 50
        E 0 99 3b 64
        E 0 99 26 64
        E 240 89 26 50
        E 0 89 3b 50
        E 0 99 3b 3c
        E 240 89 3b 50
        E 0 99 3b 50
        E 0 99 35 64
        E 240 89 35 50
        E 0 89 3b 50
        E 0 99 3b 64
        E 0 99 24 64
        E 240 89 24 50
        E 0 89 3b 50
        E 0 99 3b 64
        E 240 89 3b 50
        E 0 99 3b 3c
        E 0 99 24 64
        E 240 89 24 50
        E 0 89 3b 50
        E 0 99 3b 50
        E 0 99 35 64
        E 240 89 35 50
        E 0 89 3b 50
        E 0 99 3b 64
        E 0 99 24 64
        E 240 89 24 50
        E 0 89 3b 50
        E 0 99 3b 64
        E 0 99 26 64
        E 240 89 26 50
        E 0 89 3b 50
        E 0 99 3b 3c
        E 240 89 3b 50
        E 0 99 3b 50
        E 0 99 26 64
        E 0 99 35 64
        E 240 89 35 50
        E 0 89 26 50
        E 0 89 3b 50
        E 0 99 3b 64
        E 240 89 3b 50
        E 0 99 3b 64
        E 0 99 26 64
        E 0 99 24 64
        E 240 89 24 50
        E 0 89 26 50
        E 0 89 3b 50
        E 0 99 3b 3c
        E 0 99 26 64
        E 240 89 26 50
        E 0 89 3b 50
        E 0 99 3b 50
        E 240 89 3b 50
        E 0 99 3b 64
        E 240 89 3b 50
        E 0 99 3b 64
        E 240 89 3b 50
        E 0 99 3b 3c
        E 240 89 3b 50
        E 0 99 3b 50
        E 240 89 3b 50
        E 0 99 3b 64
        E 240 89 3b 50
        E 0 99 3b 64
        E 240 89 3b 50
        E 0 99 3b 3c
        E 240 89 3b 50
        E 0 99 3b 50
        E 240 89 3b 50
        E 0 99 3b 64
        E 240 89 3b 50
        E 0 99 3b 64
        E 240 89 3b 50
        E 0 99 3b 3c
        E 240 89 3b 50
        E 0 99 3b 50
        E 240 89 3b 50
        E 0 99 3b 64
        E 240 89 3b 50
        E 0 99 3b 64
        E 0 99 26 64
        E 0 99 24 64
        E 240 89 24 50
        E 0 89 26 50
        E 0 89 3b 50
        E 0 99 3b 3c
        E 0 99 26 64
        E 240 89 26 50
        E 0 89 3b 50
        E 0 99 3b 50
        E 240 89 3b 50
        E 0 99 3b 64
        E 240 89 3b 50
        E 0 99 3b 64
        E 240 89 3b 50
        E 0 99 3b 3c
        E 240 89 3b 50
        E 0 99 3b 50
        E 240 89 3b 50
        E 0 99 3b 64
        E 240 89 3b 50
        E 0 99 3b 64
        E 240 89 3b 50
        E 0 99 3b 3c
        E 240 89 3b 50
        E 0 99 3b 50
        E 240 89 3b 50
        E 0 99 3b 64
        E 240 89 3b 50
        E 0 99 3b 64
        E 240 89 3b 50
        E 0 99 3b 3c
        E 240 89 3b 50
        E 0 99 3b 50
        E 0 99 26 64
        E 240 89 26 50
        E 0 89 3b 50
        E 0 99 3b 64
        E 0 99 26 64
        E 240 89 26 50
        E 0 89 3b 50
        E 0 99 24 64
        E 0 99 3b 64
        E 240 89 3b 50
        E 0 89 24 50
        E 0 99 3b 3c
        E 240 89 3b 50
        E 0 99 3b 50
        E 240 89 3b 50
        E 0 99 3b 64
        E 240 89 3b 50
        E 0 99 26 64
        E 0 99 3b 64
        E 240 89 3b 50
        E 0 89 26 50
        E 0 99 3b 3c
        E 240 89 3b 50
        E 0 99 3b 50
        E 240 89 3b 50
        E 0 99 24 64
        E 0 99 3b 64
        E 240 89 3b 50
        E 0 89 24 50
        E 0 99 3b 64
        E 240 89 3b 50
        E 0 99 3b 3c
        E 240 89 3b 50
        E 0 99 3b 50
        E 0 99 24 64
        E 240 89 24 50
        E 0 89 3b 50
        E 0 99 3b 64
        E 240 89 3b 50
        E 0 99 26 64
        E 0 99 3b 64
        E 240 89 3b 50
        E 0 89 26 50
        E 0 99 3b 3c
        E 240 89 3b 50
        E 0 99 3b 50
        E 240 89 3b 50
        E 0 99 3b 64
        E 240 89 3b 50
        E 0 99 24 64
        E 0 99 3b 64
        E 240 89 3b 50
        E 0 89 24 50
        E 0 99 3b 3c
        E 240 89 3b 50
        E 0 99 3b 50
        E 240 89 3b 50
        E 0 99 3b 64
        E 240 89 3b 50
        E 0 99 26 64
        E 0 99 3b 64
        E 240 89 3b 50
        E 0 89 26 50
        E 0 99 3b 3c
        E 240 89 3b 50
        E 0 99 3b 50
        E 240 89 3b 50
        E 0 99 24 64
        E 0 99 3b 64
        E 240 89 3b 50
        E 0 89 24 50
        E 0 99 3b 64
        E 240 89 3b 50
        E 0 99 26 64
        E 0 99 3b 3c
        E 240 89 3b 50
        E 0 89 26 50
        E 0 99 24 64
        E 0 99 3b 50
        E 240 89 3b 50
        E 0 89 24 50
        E 0 99 3b 64
        E 240 89 3b 50
        E 0 99 26 64
        E 0 99 3b 64
        E 240 89 3b 50
        E 0 89 26 50
        E 0 99 3b 3c
        E 240 89 3b 50
        E 0 99 3b 50
        E 240 89 3b 50
        E 0 99 26 64
        E 0 99 3b 64
        E 240 89 3b 50
        E 0 89 26 50
        E 0 99 24 64
        E 0 99 3b 64
        E 240 89 3b 50
        E 0 89 24 50
        E 0 99 3b 3c
        E 240 89 3b 50
        E 0 99 3b 50
        E 240 89 3b 50
        E 0 99 3b 64
        E 240 89 3b 50
        E 0 99 26 64
        E 0 99 3b 64
        E 240 89 3b 50
        E 0 89 26 50
        E 0 99 3b 3c
        E 0 99 24 64
        E 240 89 24 50
        E 0 89 3b 50
        E 0 99 3b 50
        E 240 89 3b 50
        E 0 99 3b 64
        E 240 89 3b 50
        E 0 99 3b 64
        E 0 99 24 64
        E 240 89 24 50
        E 0 89 3b 50
        E 0 99 3b 3c
        E 240 89 3b 50
        E 0 99 3b 50
        E 0 99 24 64
        E 240 89 24 50
        E 0 89 3b 50
        E 0 99 3b 64
        E 240 89 3b 50
        E 0 99 26 64
        E 0 99 3b 64
        E 240 89 3b 50
        E 0 89 26 50
        E 0 99 26 64
        E 0 99 3b 3c
        E 240 89 3b 50
        E 0 89 26 50
        E 0 99 3b 50
        E 240 89 3b 50
        E 0 99 3b 64
        E 0 99 24 64
        E 240 89 24 50
        E 0 89 3b 50
        E 0 99 24 64
        E 0 99 3b 64
        E 240 89 3b 50
        E 0 89 24 50
        E 0 99 3b 3c
        E 240 89 3b 50
        E 0 99 3b 50
        E 240 89 3b 50
        E 0 99 3b 64
        E 240 89 3b 50
        E 0 99 26 64
        E 0 99 3b 64
        E 240 89 3b 50
        E 0 89 26 50
        E 0 99 3b 3c
        E 240 89 3b 50
        E 0 99 3b 50
        E 240 89 3b 50
        E 0 99 24 64
        E 0 99 3b 64
        E 240 89 3b 50
        E 0 89 24 50
        E 0 99 3b 64
        E 240 89 3b 50
        E 0 99 24 64
        E 0 99 3b 3c
        E 240 89 3b 50
        E 0 89 24 50
        E 0 99 3b 50
        E 240 89 3b 50
        E 0 99 24 64
        E 0 99 3b 64
        E 240 89 3b 50
        E 0 89 24 50
        E 0 99 26 64
        E 0 99 3b 64
        E 240 89 3b 50
        E 0 89 26 50
        E 0 99 26 64
        E 0 99 3b 3c
        E 240 89 3b 50
        E 0 89 26 50
        E 0 99 26 64
        E 0 99 3b 50
        E 240 89 3b 50
        E 0 89 26 50
        E 0 99 26 64
        E 0 99 3b 64
        E 240 89 3b 50
        E 0 89 26 50
        E 0 99 24 64
        E 0 99 3b 64
        E 240 89 3b 50
        E 0 89 24 50
        E 0 99 24 64
        E 0 99 3b 3c
        E 240 89 3b 50
        E 0 89 24 50
        E 0 99 3b 50
        E 240 89 3b 50
        E 0 99 3b 64
        E 240 89 3b 50
        E 0 99 26 64
        E 0 99 3b 64
        E 240 89 3b 50
        E 0 89 26 50
        E 0 99 3b 3c
        E 240 89 3b 50
        E 0 99 3b 50
        E 240 89 3b 50
        E 0 99 24 64
        E 0 99 3b 64
        E 240 89 3b 50
        E 0 89 24 50
        E 0 99 3b 64
        E 240 89 3b 50
        E 0 99 24 64
        E 0 99 3b 3c
        E 240 89 3b 50
        E 0 89 24 50
        E 0 99 45 64
        E 0 99 3b 50
        E 240 89 3b 50
        E 0 89 45 50
        E 0 99 45 64
        E 0 99 3b 64
        E 240 89 3b 50
        E 0 89 45 50
        E 0 99 3b 64
        E 0 99 26 64
        E 240 89 26 50
        E 0 89 3b 50
        E 0 99 3b 3c
        E 240 89 3b 50
        E 0 99 24 64
        E 0 99 3b 50
        E 240 89 3b 50
        E 0 89 24 50
        E 0 99 24 64
        E 0 99 3b 64
        E 240 89 3b 50
        E 0 89 24 50
        E 0 99 24 64
        E 0 99 3b 64
        E 240 89 3b 50
        E 0 89 24 50
        E 0 99 24 64
        E 0 99 3b 3c
        E 240 89 3b 50
        E 0 89 24 50
        E 0 99 3b 50
        E 240 89 3b 50
        E 0 99 3b 64
        E 240 89 3b 50
        E 0 99 26 64
        E 0 99 3b 64
        E 240 89 3b 50
        E 0 89 26 50
        E 0 99 3b 3c
        E 240 89 3b 50
        E 0 99 3b 50
        E 240 89 3b 50
        E 0 99 24 64
        E 0 99 3b 64
        E 240 89 3b 50
        E 0 89 24 50
        E 0 99 3b 64
        E 240 89 3b 50
        E 0 99 24 64
        E 0 99 3b 3c
        E 240 89 3b 50
        E 0 89 24 50
        E 0 99 45 64
        E 0 99 3b 50
        E 240 89 3b 50
        E 0 89 45 50
        E 0 99 45 64
        E 0 99 3b 64
        E 240 89 3b 50
        E 0 89 45 50
        E 0 99 26 64
        E 0 99 3b 64
        E 240 89 3b 50
        E 0 89 26 50
        E 0 99 3b 3c
        E 240 89 3b 50
        E 0 99 24 64
        E 0 99 3b 50
        E 240 89 3b 50
        E 0 89 24 50
        E 0 99 24 64
        E 0 99 3b 64
        E 240 89 3b 50
        E 0 89 24 50
        E 0 99 24 64
        E 0 99 3b 64
        E 240 89 3b 50
        E 0 89 24 50
        E 0 99 24 64
        E 0 99 3b 3c
        E 240 89 3b 50
        E 0 89 24 50
        E 0 99 3b 50
        E 240 89 3b 50
        E 0 99 3b 64
        E 240 89 3b 50
        E 0 99 26 64
        E 0 99 3b 64
        E 240 89 3b 50
        E 0 89 26 50
        E 0 99 3b 3c
        E 240 89 3b 50
        E 0 99 3b 50
        E 240 89 3b 50
        E 0 99 24 64
        E 0 99 3b 64
        E 240 89 3b 50
        E 0 89 24 50
        E 0 99 3b 64
        E 240 89 3b 50
        E 0 99 24 64
        E 0 99 3b 3c
        E 240 89 3b 50
        E 0 89 24 50
        E 0 99 45 64
        E 0 99 3b 50
        E 240 89 3b 50
        E 0 89 45 50
        E 0 99 45 64
        E 0 99 3b 64
        E 240 89 3b 50
        E 0 89 45 50
        E 0 99 26 64
        E 0 99 3b 64
        E 240 89 3b 50
        E 0 89 26 50
        E 0 99 3b 3c
        E 240 89 3b 50
        E 0 99 3b 50
        E 240 89 3b 50
        E 0 99 3b 64
        E 240 89 3b 50
        E 0 99 26 64
        E 0 99 3b 64
        E 240 89 3b 50
        E 0 89 26 50
        E 0 99 26 64
        E 0 99 3b 3c
        E 240 89 3b 50
        E 0 89 26 50
        E 0 99 3b 50
        E 240 89 3b 50
        E 0 99 3b 64
        E 0 99 26 64
        E 240 89 26 50
        E 0 89 3b 50
        E 0 99 3b 64
        E 0 99 26 64
        E 240 89 26 50
        E 0 89 3b 50
        E 0 99 3b 3c
        E 240 89 3b 50
        E 0 99 3b 50
        E 0 99 26 64
        E 0 b0 7b 00
        CCINTERP 32
        CHASE_CC_TAKEOFFS 1
        GUID {61E82D3D-242F-4524-B29D-3C0A71D8DB97}
        IGNTEMPO 0 120 4 4
        SRCCOLOR 125
      >
    >
  >
  <TRACK {D033CFAC-BE63-44B1-A576-8B0E2547569B}
    NAME Piano
    PEAKCOL 16576
    BEAT -1
    AUTOMODE 0
    VOLPAN 1 0 -1 -1 1
    MUTESOLO 0 0 0
    IPHASE 0
    PLAYOFFS 0 1
    ISBUS 0 0
    BUSCOMP 0 0 0 0 0
    SHOWINMIX 1 0.6667 0.5 1 0.5 -1 -1 -1
    FREEMODE 0
    SEL 0
    REC 0 4096 1 0 0 0 0
    VU 2
    TRACKHEIGHT 0 0 0 0 0 0
    INQ 0 0 0 0.5 100 0 0 100
    NCHAN 2
    FX 1
    TRACKID {D033CFAC-BE63-44B1-A576-8B0E2547569B}
    PERF 0
    MIDIOUT -1
    MAINSEND 1 0
    <FXCHAIN
      WNDRECT 478 111 1187 696
      SHOW 0
      LASTSEL 0
      DOCKED 0
      BYPASS 0 0 0
      <VST "VSTi: BlueARP (omg-instruments)" BlueARP.dll 0 "" 1111585392<56535442417270626C75656172700000> ""
        cHJBQu5e7f4AAAAAAgAAAAEAAAAAAAAAAgAAAAAAAACmFgEAAQAAAAcAEABiYm5rnhYBAGZpeHAUAAAAEf8AAAABAHgHAwj/BQAAAAAAAABmcGdwKgAAAA8QWgQAAAB/
        AH8AQAABAAAAAAAAAAAAAAB/AAAAAQAAAAAAAQEBAAMAAGNobnAFAAAAAP////9jaG5zCAAAACIhISH/////Y2hubjAAAABZVCBQZXJmb3JtYW5jZSA3IG9wZW5pbmcA
        AAAAAAAAAAAAAAAAAAAAAAAAAAAAAABjaG5wBQAAAAD/////Y2hucwgAAAAp/////////2Nobm4wAAAAQXJtaW4gdmFuIEJ1dXJlbiBDb21tdW5pY2F0aW9uAAAAAAAA
        AAAAAAAAAAAAAAAAY2hucAUAAAAA/////2NobnMIAAAAJf////////9jaG5uMAAAAEJlbm55IEJlbmFzc2kgLyBJbGx1c2lvbgAAAAAAAAAAAAAAAAAAAAAAAAAAAAAA
        AGNobnAFAAAAAP////9jaG5zCAAAABMTFxf/////Y2hubjAAAAA5MCdzIGRhbmNlIHBpYW5vAAAAAAAAAAAAAAAAAAAAAAAAAAAAAAAAAAAAAAAAAABjaG5wBQAAAAD/
        ////Y2hucwgAAABu/////////2Nobm4wAAAAMi1rZXkgaGFybW9uaWMAAAAAAAAAAAAAAAAAAAAAAAAAAAAAAAAAAAAAAAAAAAAAY2hucAUAAAAA/////2NobnMIAAAA
        cnP///////9jaG5uMAAAAEtyYWZ0d2VyayBcIFJvYm90cwAAAAAAAAAAAAAAAAAAAAAAAAAAAAAAAAAAAAAAAGNobnAFAAAAAP////9jaG5zCAAAAEtLS0z/////Y2hu
        bjAAAABBY2lkIE1vbm8gc2VxLiB3aXRoIGdsaWRlcwBkZXMAAAAAAAAAAAAAAAAAAAAAAABjaG5wBQAAAAD/////Y2hucwgAAAA1NTU2/////2Nobm4wAAAATWFnaWMg
        U2NhbGVzIDEgb3BlbmluZyBzZXEuAAAAAAAAAAAAAAAAAAAAAAAAAAAAY2hucAUAAAAA/////2NobnMIAAAA//////////9jaG5uMAAAAENoYWluIDA5AAAAAAAAAAAA
        AAAAAAAAAAAAAAAAAAAAAAAAAAAAAAAAAAAAAAAAAGNobnAFAAAAAP////9jaG5zCAAAAP//////////Y2hubjAAAABDaGFpbiAxMAAAAAAAAAAAAAAAAAAAAAAAAAAA
        AAAAAAAAAAAAAAAAAAAAAAAAAABjaG5wBQAAAAD/////Y2hucwgAAAD//////////2Nobm4wAAAAQ2hhaW4gMTEAAAAAAAAAAAAAAAAAAAAAAAAAAAAAAAAAAAAAAAAA
        AAAAAAAAAAAAY2hucAUAAAAA/////2NobnMIAAAA//////////9jaG5uMAAAAENoYWluIDEyAAAAAAAAAAAAAAAAAAAAAAAAAAAAAAAAAAAAAAAAAAAAAAAAAAAAAGNo
        bnAFAAAAAP////9jaG5zCAAAAP//////////Y2hubjAAAABDaGFpbiAxMwAAAAAAAAAAAAAAAAAAAAAAAAAAAAAAAAAAAAAAAAAAAAAAAAAAAABjaG5wBQAAAAD/////
        Y2hucwgAAAD//////////2Nobm4wAAAAQ2hhaW4gMTQAAAAAAAAAAAAAAAAAAAAAAAAAAAAAAAAAAAAAAAAAAAAAAAAAAAAAY2hucAUAAAAA/////2NobnMIAAAA////
        //////9jaG5uMAAAAENoYWluIDE1AAAAAAAAAAAAAAAAAAAAAAAAAAAAAAAAAAAAAAAAAAAAAAAAAAAAAGNobnAFAAAAAP////9jaG5zCAAAAP//////////Y2hubjAA
        AABDaGFpbiAxNgAAAAAAAAAAAAAAAAAAAAAAAAAAAAAAAAAAAAAAAAAAAAAAAAAAAABwcm9nGgIAAHByZ3AqAAAAERBaBAAAAH8AfwBAAAEAAAAAAAAAAAAAAH8AAAAA
        AAAAAAAAAAAAAAAAcGdubTAAAAAtIEluaXRpYWwgcHJvZ3JhbSAtAMzMzMzMzMzMzMzMzMzMzMzMzMzMzMzMzMzMzMxzdHAwQAAAAAAAAAAAAAAAAAAAAAAAAAAAAAAA
        AAAAAAAAAAAAAAAAAAAAAAAAAAAAAAAAAAAAAAAAAAAAAAAAAAAAAAAAAABzdHAxQAAAAAgICAgICAgICAgICAgICAgICAgICAgICAgICAgICAgICAgICAgICAgICAgI
        CAgICAgICAgICAgICAgICAgICAhzdHAyQAAAAAEBAQEBAQEBAQEBAQEBAQEBAQEBAQEBAQEBAQEBAQEBAQEBAQEBAQEBAQEBAQEBAQEBAQEBAQEBAQEBAQEBAQFzdHAz
        QAAAAAQEBAQEBAQEBAQEBAQEBAQEBAQEBAQEBAQEBAQEBAQEBAQEBAQEBAQEBAQEBAQEBAQEBAQEBAQEBAQEBAQEBARzdHA0QAAAAGBgYGBgYGBgYGBgYGBgYGBgYGBg
        YGBgYGBgYGBgYGBgYGBgYGBgYGBgYGBgYGBgYGBgYGBgYGBgYGBgYGBgYGBzdHA1QAAAAAAAAAAAAAAAAAAAAAAAAAAAAAAAAAAAAAAAAAAAAAAAAAAAAAAAAAAAAAAA
        AAAAAAAAAAAAAAAAAAAAAAAAAABwcm9nGgIAAHByZ3AqAAAAEQhaBAAAAH8AfwBAAAEAAAAAAAAAAAAAAH8AAAAAAAAAAAAAAAAAAAAAcGdubTAAAAAtIFNpbGVudCBk
        dW1teSAtAAAAAAAAAAAAAAAAAAAAAAAAAAAAAAAAAAAAAAAAAABzdHAwQAAAAAAAAAAAAAAAAAAAAAAAAAAAAAAAAAAAAAAAAAAAAAAAAAAAAAAAAAAAAAAAAAAAAAAA
        AAAAAAAAAAAAAAAAAABzdHAxQAAAAAgICAgICAgICAgICAgICAgICAgICAgICAgICAgICAgICAgICAgICAgICAgICAgICAgICAgICAgICAgICAgICAhzdHAyQAAAAAAA
        AAAAAAAAAAAAAAAAAAABAQEBAQEBAQEBAQEBAQEBAQEBAQEBAQEBAQEBAQEBAQEBAQEBAQEBAQEBAQEBAQFzdHAzQAAAAAQEBAQEBAQEBAQEBAQEBAQEBAQEBAQEBAQE
        BAQEBAQEBAQEBAQEBAQEBAQEBAQEBAQEBAQEBAQEBAQEBAQEBARzdHA0QAAAAGBgYGBgYGBgYGBgYGBgYGBgYGBgYGBgYGBgYGBgYGBgYGBgYGBgYGBgYGBgYGBgYGBg
        YGBgYGBgYGBgYGBgYGBzdHA1QAAAAAAAAAAAAAAAAAAAAAAAAAAAAAAAAAAAAAAAAAAAAAAAAAAAAAAAAAAAAAAAAAAAAAAAAAAAAAAAAAAAAAAAAABwcm9nGgIAAHBy
        Z3AqAAAAEQBaBAAAAH8AfwBAAAAAAAAAAAAAAAAAAH8AAAAAAAAAAAAAAAAAAAAAcGdubTAAAAAtIE1JREkgVGhydSBkdW1teSAtAHMAzMzMzMzMzMzMzMzMzMzMzMzM
        zMzMzMzMzMxzdHAwQAAAAAAAAAAAAAAAAAAAAAAAAAAAAAAAAAAAAAAAAAAAAAAAAAAAAAAAAAAAAAAAAAAAAAAAAAAAAAAAAAAAAAAAAABzdHAxQAAAAAgICAgICAgI
        CAgICAgICAgICAgICAgICAgICAgICAgICAgICAgICAgICAgICAgICAgICAgICAgICAgICAgICAhzdHAyQAAAAAQBAQEBAQEBAQEBAQEBAQEBAQEBAQEBAQEBAQEBAQEB
        AQEBAQEBAQEBAQEBAQEBAQEBAQEBAQEBAQEBAQEBAQFzdHAzQAAAAAQEBAQEBAQEBAQEBAQEBAQEBAQEBAQEBAQEBAQEBAQEBAQEBAQEBAQEBAQEBAQEBAQEBAQEBAQE
        BAQEBAQEBARzdHA0QAAAAGBgYGBgYGBgYGBgYGBgYGBgYGBgYGBgYGBgYGBgYGBgYGBgYGBgYGBgYGBgYGBgYGBgYGBgYGBgYGBgYGBgYGBzdHA1QAAAAAAAAAAAAAAA
        AAAAAAAAAAAAAAAAAAAAAAAAAAAAAAAAAAAAAAAAAAAAAAAAAAAAAAAAAAAAAAAAAAAAAAAAAABwcm9nGgIAAHByZ3AqAAAAERAyBAADAH8AfwBAAAEAAAAAAAAAAAAA
        AH8AAAAAAAAAAAAAAAAAAAAAcGdubTAAAABTaW1wbGUgNGsgVXAgNCBiZWF0cwAAzMzMzMzMzMzMzMzMzMzMzMzMzMzMzMzMzMxzdHAwQAAAAAAAAAAAAAAAAAAAAAAA
        AAAAAAAAAAAAAAAAAAAAAAAAAAAAAAAAAAAAAAAAAAAAAAAAAAAAAAAAAAAAAAAAAABzdHAxQAAAAAgICAgICAgICAgICAgICAgICAgICAgICAgICAgICAgICAgICAgI
        CAgICAgICAgICAgICAgICAgICAgICAgICAhzdHAyQAAAAAEBAQEBAQEBAQEBAQEBAQEBAQEBAQEBAQEBAQEBAQEBAQEBAQEBAQEBAQEBAQEBAQEBAQEBAQEBAQEBAQEB
        AQFzdHAzQAAAAAQIECAECBAgBAgQIAQIECAEBAQEBAQEBAQEBAQEBAQEBAQEBAQEBAQEBAQEBAQEBAQEBAQEBAQEBAQEBAQEBARzdHA0QAAAAGBgYGBgYGBgYGBgYGBg
        YGBgYGBgYGBgYGBgYGBgYGBgYGBgYGBgYGBgYGBgYGBgYGBgYGBgYGBgYGBgYGBgYGBzdHA1QAAAAAAAAAAAAAAAAAAAAAAAAAAAAAAAAAAAAAAAAAAAAAAAAAAAAAAA
        AAAAAAAAAAAAAAAAAAAAAAAAAAAAAAAAAABwcm9nGgIAAHByZ3AqAAAAERAyBAACAH8AfwBAAAEAAAAAAAAAAAAAAH8AAAAAAAAAAAAAAAAAAAAAcGdubTAAAABTaW1w
        bGUgNGsgRG93biA0IGJlYXRzAAAAAAAAAAAAAAAAAAAAAAAAAAAAAAAAAABzdHAwQAAAAAAAAAAAAAAAAAAAAAAAAAAAAAAAAAAAAAAAAAAAAAAAAAAAAAAAAAAAAAAA
        AAAAAAAAAAAAAAAAAAAAAAAAAABzdHAxQAAAAAgICAgICAgICAgICAgICAgICAgICAgICAgICAgICAgICAgICAgICAgICAgICAgICAgICAgICAgICAgICAgICAhzdHAy
        QAAAAAEBAQEBAQEBAQEBAQEBAQEBAQEBAQEBAQEBAQEBAQEBAQEBAQEBAQEBAQEBAQEBAQEBAQEBAQEBAQEBAQEBAQFzdHAzQAAAACAQCAQgEAgEIBAIBCAQCAQEBAQE
        BAQEBAQEBAQEBAQEBAQEBAQEBAQEBAQEBAQEBAQEBAQEBAQEBAQEBAQEBARzdHA0QAAAAGBgYGBgYGBgYGBgYGBgYGBgYGBgYGBgYGBgYGBgYGBgYGBgYGBgYGBgYGBg
        YGBgYGBgYGBgYGBgYGBgYGBgYGBzdHA1QAAAAAAAAAAAAAAAAAAAAAAAAAAAAAAAAAAAAAAAAAAAAAAAAAAAAAAAAAAAAAAAAAAAAAAAAAAAAAAAAAAAAAAAAABwcm9n
        GgIAAHByZ3AqAAAAERAyBAADAH8AfwBAAAEAAAAAAAAAAAAAAH8AAAAAAAAAAAAAAAAAAAAAcGdubTAAAABTaW1wbGUgM2sgVXAgNCBiZWF0cwAAcnMAAAAAAAAAAAAA
        AAAAAAAAAAAAAAAAAABzdHAwQAAAAAAAAAAAAAAAAAAAAAAAAAAAAAAAAAAAAAAAAAAAAAAAAAAAAAAAAAAAAAAAAAAAAAAAAAAAAAAAAAAAAAAAAABzdHAxQAAAAAgI
        CAgICAgICAgICAgICAgICAgICAgICAgICAgICAgICAgICAgICAgICAgICAgICAgICAgICAgICAgICAgICAhzdHAyQAAAAAEBAQEBAQEBAQEBAQEBAQEBAQEBAQEBAQEB
        AQEBAQEBAQEBAQEBAQEBAQEBAQEBAQEBAQEBAQEBAQEBAQEBAQFzdHAzQAAAAAQIEAQIEAQIEAQIEAQIEAgEBAQEBAQEBAQEBAQEBAQEBAQEBAQEBAQEBAQEBAQEBAQE
        BAQEBAQEBAQEBAQEBARzdHA0QAAAAGBgYGBgYGBgYGBgYGBgYGBgYGBgYGBgYGBgYGBgYGBgYGBgYGBgYGBgYGBgYGBgYGBgYGBgYGBgYGBgYGBgYGBzdHA1QAAAAAAA
        AAAAAAAAAAAAAAAAAAAAAAAAAAAAAAAAAAAAAAAAAAAAAAAAAAAAAAAAAAAAAAAAAAAAAAAAAAAAAAAAAABwcm9nGgIAAHByZ3AqAAAAERAyBAADAH8AfwBAAAEAAAAA
        AAAAAAAAAH8AAAAAAAAAAAAAAAAAAAAAcGdubTAAAABTaW1wbGUgM2sgRG93biA0IGJlYXRzAHMAAAAAAAAAAAAAAAAAAAAAAAAAAAAAAABzdHAwQAAAAAAAAAAAAAAA
        AAAAAAAAAAAAAAAAAAAAAAAAAAAAAAAAAAAAAAAAAAAAAAAAAAAAAAAAAAAAAAAAAAAAAAAAAABzdHAxQAAAAAgICAgICAgICAgICAgICAgICAgICAgICAgICAgICAgI
        CAgICAgICAgICAgICAgICAgICAgICAgICAgICAgICAhzdHAyQAAAAAEBAQEBAQEBAQEBAQEBAQEBAQEBAQEBAQEBAQEBAQEBAQEBAQEBAQEBAQEBAQEBAQEBAQEBAQEB
        AQEBAQEBAQFzdHAzQAAAABAIBBAIBBAIBBAIBBAIBAgEBAQEBAQEBAQEBAQEBAQEBAQEBAQEBAQEBAQEBAQEBAQEBAQEBAQEBAQEBAQEBARzdHA0QAAAAGBgYGBgYGBg
        YGBgYGBgYGBgYGBgYGBgYGBgYGBgYGBgYGBgYGBgYGBgYGBgYGBgYGBgYGBgYGBgYGBgYGBgYGBzdHA1QAAAAAAAAAAAAAAAAAAAAAAAAAAAAAAAAAAAAAAAAAAAAAAA
        AAAAAAAAAAAAAAAAAAAAAAAAAAAAAAAAAAAAAAAAAABwcm9nGgIAAHByZ3AqAAAAERAyBAADAH8AfwBAAAEAAAAAAAAAAAAAAH8AAAAAAAAAAAAAAAAAAAAAcGdubTAA
        AABTaW1wbGUgM2sgVXAtRG93biA0IGJlYXRzAAAAAAAAAAAAAAAAAAAAAAAAAAAAAABzdHAwQAAAAAAAAAAAAAAAAAAAAAAAAAAAAAAAAAAAAAAAAAAAAAAAAAAAAAAA
        AAAAAAAAAAAAAAAAAAAAAAAAAAAAAAAAAABzdHAxQAAAAAgICAgICAgICAgICAgICAgICAgICAgICAgICAgICAgICAgICAgICAgICAgICAgICAgICAgICAgICAgICAgI
        CAhzdHAyQAAAAAEBAQEBAQEBAQEBAQEBAQEBAQEBAQEBAQEBAQEBAQEBAQEBAQEBAQEBAQEBAQEBAQEBAQEBAQEBAQEBAQEBAQFzdHAzQAAAAAQIEAgECBAIBAgQCAQI
        EAgEBAQEBAQEBAQEBAQEBAQEBAQEBAQEBAQEBAQEBAQEBAQEBAQEBAQEBAQEBAQEBARzdHA0QAAAAGBgYGBgYGBgYGBgYGBgYGBgYGBgYGBgYGBgYGBgYGBgYGBgYGBg
        YGBgYGBgYGBgYGBgYGBgYGBgYGBgYGBgYGBzdHA1QAAAAAAAAAAAAAAAAAAAAAAAAAAAAAAAAAAAAAAAAAAAAAAAAAAAAAAAAAAAAAAAAAAAAAAAAAAAAAAAAAAAAAAA
        AABwcm9nGgIAAHByZ3AqAAAAERBaBAABAH8AfwBAAAEAAAAAAAAAAAAAAH8AAAIAAAAAAAAAAAAAAAAAcGdubTAAAABSaWZmIDRrIFVwIDQgYmVhdHMAAHJzAGFyMQAA
        zMzMzMzMzMzMzMzMzMzMzMzMzMxzdHAwQAAAAAAAAAAAAAAAAAAAAAAAAAAAAAAAAAAAAAAAAAAAAAAAAAAAAAAAAAAAAAAAAAAAAAAAAAAAAAAAAAAAAAAAAABzdHAx
        QAAAAAgICAgICAgQCAgQEAgQEBAICAgICAgICAgICAgICAgICAgICAgICAgICAgICAgICAgICAgICAgICAgICAgICAhzdHAyQAAAAAEBAQEBAQEBAQEBAQEBAQEBAQEB
        AQEBAQEBAQEBAQEBAQEBAQEBAQEBAQEBAQEBAQEBAQEBAQEBAQEBAQEBAQFzdHAzQAAAAAQIECAIECAEECAECCAECBAEBAQEBAQEBAQEBAQEBAQEBAQEBAQEBAQEBAQE
        BAQEBAQEBAQEBAQEBAQEBAQEBARzdHA0QAAAAGBgYGBgYGBgYGBgYGBgYGBgYGBgYGBgYGBgYGBgYGBgYGBgYGBgYGBgYGBgYGBgYGBgYGBgYGBgYGBgYGBgYGBzdHA1
        QAAAAAAAAAAAAAAAAAAAAAAAAAAAAAAAAAAAAAAAAAAAAAAAAAAAAAAAAAAAAAAAAAAAAAAAAAAAAAAAAAAAAAAAAABwcm9nGgIAAHByZ3AqAAAAERBaBAABAH8AfwBA
        AAEAAAAAAAAAAAAAAH8AAAIAAAAAAAAAAAAAAAAAcGdubTAAAABSaWZmIDRrIERvd24gNCBiZWF0cwBzAAAAAAAAAAAAAAAAAAAAAAAAAAAAAAAAAABzdHAwQAAAAAAA
        AAAAAAAAAAAAAAAAAAAAAAAAAAAAAAAAAAAAAAAAAAAAAAAAAAAAAAAAAAAAAAAAAAAAAAAAAAAAAAAAAABzdHAxQAAAABAQEBAQEBAIEBAICBAICAgICAgICAgICAgI
        CAgICAgICAgICAgICAgICAgICAgICAgICAgICAgICAgICAgICAhzdHAyQAAAAAEBAQEBAQEBAQEBAQEBAQEBAQEBAQEBAQEBAQEBAQEBAQEBAQEBAQEBAQEBAQEBAQEB
        AQEBAQEBAQEBAQEBAQFzdHAzQAAAACAQCAQQCAQgCAQgEAQgEAgEBAQEBAQEBAQEBAQEBAQEBAQEBAQEBAQEBAQEBAQEBAQEBAQEBAQEBAQEBAQEBARzdHA0QAAAAGBg
        YGBgYGBgYGBgYGBgYGBgYGBgYGBgYGBgYGBgYGBgYGBgYGBgYGBgYGBgYGBgYGBgYGBgYGBgYGBgYGBgYGBzdHA1QAAAAAAAAAAAAAAAAAAAAAAAAAAAAAAAAAAAAAAA
        AAAAAAAAAAAAAAAAAAAAAAAAAAAAAAAAAAAAAAAAAAAAAAAAAABwcm9nGgIAAHByZ3AqAAAAESBaBAABAH8AfwBAAAEAAAAAAAAAAAAAAH8AAAIAAAAAAAAAAAAAAAAA
        cGdubTAAAABSaWZmIDRrIFVwLURvd24gOCBiZWF0cwByMQAAzMzMzMzMzMzMzMzMzMzMzMzMzMxzdHAwQAAAAAAAAAAAAAAAAAAAAAAAAAAAAAAAAAAAAAAAAAAAAAAA
        AAAAAAAAAAAAAAAAAAAAAAAAAAAAAAAAAAAAAAAAAABzdHAxQAAAAAgICAgICAgQCAgQEAgQEBAQEBAIEBAICBAICAgICAgICAgICAgICAgICAgICAgICAgICAgICAgI
        CAgICAgICAhzdHAyQAAAAAEBAQEBAQEBAQEBAQEBAQEBAQEBAQEBAQEBAQEBAQEBAQEBAQEBAQEBAQEBAQEBAQEBAQEBAQEBAQEBAQEBAQFzdHAzQAAAAAQIECAIECAE
        ECAECCAECBAQCAQgCAQgEAQgEAggEAgEBAQEBAQEBAQEBAQEBAQEBAQEBAQEBAQEBAQEBAQEBARzdHA0QAAAAGBgYGBgYGBgYGBgYGBgYGBgYGBgYGBgYGBgYGBgYGBg
        YGBgYGBgYGBgYGBgYGBgYGBgYGBgYGBgYGBgYGBgYGBzdHA1QAAAAAAAAAAAAAAAAAAAAAAAAAAAAAAAAAAAAAAAAAAAAAAAAAAAAAAAAAAAAAAAAAAAAAAAAAAAAAAA
        AAAAAAAAAABwcm9nGgIAAHByZ3AqAAAAEUBaBAABAH8AfwBAAAEAAAAAAAAAAAAAAH8AAAAAAAAAAAAAAAAAAAAAcGdubTAAAABSaWZmIDRrIFVwLURvd24gMTYgYmVh
        dHMAAAAAAAAAAAAAAAAAAAAAAAAAAAAAAABzdHAwQAAAAAAAAAAAAAAAAAAAAAAAAAAAAAAAAAAAAAAAAAAAAAAAAAAAAAAAAAAAAAAAAAAAAAAAAAAAAAAAAAAAAAAA
        AABzdHAxQAAAAAgICAgICAgQCAgQEAgQEBAQEBAQEBAQIBAQICAQICAgICAgICAgIBAgIBAQIBAQEBAQEBAQEBAIEBAICBAICAhzdHAyQAAAAAEBAQEBAQEBAQEBAQEB
        AQEBAQEBAQEBAQEBAQEBAQEBAQEBAQEBAQEBAQEBAQEBAQEBAQEBAQEBAQEBAQEBAQFzdHAzQAAAAAQIECAIECAEECAECCAECBAECBAgCBAgBBAgBAggBAgQIBAIBBAI
        BCAIBCAQBCAQCCAQCAQQCAQgCAQgEAQgEAhzdHA0QAAAAGBgYGBgYGBgYGBgYGBgYGBgYGBgYGBgYGBgYGBgYGBgYGBgYGBgYGBgYGBgYGBgYGBgYGBgYGBgYGBgYGBg
        YGBzdHA1QAAAAAAAAAAAAAAAAAAAAAAAAAAAAAAAAAAAAAAAAAAAAAAAAAAAAAAAAAAAAAAAAAAAAAAAAAAAAAAAAAAAAAAAAABwcm9nGgIAAHByZ3AqAAAAESBaBAAA
        AH8AfwBAAAEAAAAAAAAAAAAAAH8AAAAAAAAAAAAAAAAAAAAAcGdubTAAAABSaWZmIDNrIFVwIDggYmVhdHMAYXJzAAByMQAAAAAAAAAAAAAAAAAAAAAAAAAAAABzdHAw
        QAAAAAAAAAAAAAAAAAAAAAAAAAAAAAAAAAAAAAAAAAAAAAAAAAAAAAAAAAAAAAAAAAAAAAAAAAAAAAAAAAAAAAAAAABzdHAxQAAAAAgICAgIEAgQEBAQEBAQIBAgICAg
        ICAgQCBAQEBAQEBACAgICAgICAgICAgICAgICAgICAgICAgICAgICAgICAhzdHAyQAAAAAEBAQEBAQEBAQEBAQEBAQEBAQEBAQEBAQEBAQEBAQEBAQEBAQEBAQEBAQEB
        AQEBAQEBAQEBAQEBAQEBAQEBAQFzdHAzQAAAAAQIEAgQBBAECAQIEAgQBBAECAQIEAgQBBAECAQIEAgQBAQEBAQEBAQEBAQEBAQEBAQEBAQEBAQEBAQEBAQEBARzdHA0
        QAAAAGBgYGBgYGBgYGBgYGBgYGBgYGBgYGBgYGBgYGBgYGBgYGBgYGBgYGBgYGBgYGBgYGBgYGBgYGBgYGBgYGBgYGBzdHA1QAAAAAAAAAAAAAAAAAAAAAAAAAAAAAAA
        AAAAAAAAAAAAAAAAAAAAAAAAAAAAAAAAAAAAAAAAAAAAAAAAAAAAAAAAAABwcm9nGgIAAHByZ3AqAAAAESBaBAAAAH8AfwBAAAEAAAAAAAAAAAAAAH8AAAAAAAAAAAAA
        AAAAAAAAcGdubTAAAABSaWZmIDNrIFVwLURvd24gOCBiZWF0cwAAMQAAzMzMzMzMzMzMzMzMzMzMzMzMzMxzdHAwQAAAAAAAAAAAAAAAAAAAAAAAAAAAAAAAAAAAAAAA
        AAAAAAAAAAAAAAAAAAAAAAAAAAAAAAAAAAAAAAAAAAAAAAAAAABzdHAxQAAAAAgICAgIEAgQEBAQEBAQIBAgICAgICAgECAQEBAQEBAQCAgICAgICAgICAgICAgICAgI
        CAgICAgICAgICAgICAhzdHAyQAAAAAEBAQEBAQEBAQEBAQEBAQEBAQEBAQEBAQEBAQEBAQEBAQEBAQEBAQEBAQEBAQEBAQEBAQEBAQEBAQEBAQEBAQFzdHAzQAAAAAQI
        EAgQBBAECAQIEAgQBBAECBAIBAgEEAQQCBAIBAgEBAQEBAQEBAQEBAQEBAQEBAQEBAQEBAQEBAQEBAQEBARzdHA0QAAAAGBgYGBgYGBgYGBgYGBgYGBgYGBgYGBgYGBg
        YGBgYGBgYGBgYGBgYGBgYGBgYGBgYGBgYGBgYGBgYGBgYGBgYGBzdHA1QAAAAAAAAAAAAAAAAAAAAAAAAAAAAAAAAAAAAAAAAAAAAAAAAAAAAAAAAAAAAAAAAAAAAAAA
        AAAAAAAAAAAAAAAAAABwcm9nGgIAAHByZ3AqAAAAEUBaBAAAAH8AfwBAAAEAAAAAAAAAAAAAAH8AAAAAAAAAAAAAAAAAAAAAcGdubTAAAABSaWZmIDNrIFVwLURvd24g
        MTYgYmVhdHMAMgAAAAAAAAAAAAAAAAAAAAAAAAAAAABzdHAwQAAAAAAAAAAAAAAAAAAAAAAAAAAAAAAAAAAAAAAAAAAAAAAAAAAAAAAAAAAAAAAAAAAAAAAAAAAAAAAA
        AAAAAAAAAABzdHAxQAAAAAgICAgIEAgQEBAQEBAQIBAgICAgICAgQCBAQEBAQEBAQEBAQEAgQCAgICAgICAQIBAQEBAQEBAIEAgICAgICAhzdHAyQAAAAAEBAQEBAQEB
        AQEBAQEBAQEBAQEBAQEBAQEBAQEBAQEBAQEBAQEBAQEBAQEBAQEBAQEBAQEBAQEBAQEBAQEBAQFzdHAzQAAAAAQIEAgQBBAECAQIEAgQBBAECAQIEAgQBBAECAQIEAgQ
        EAgECAQQBBAIEAgECAQQBBAIEAgECAQQBBAIEAgECARzdHA0QAAAAGBgYGBgYGBgYGBgYGBgYGBgYGBgYGBgYGBgYGBgYGBgYGBgYGBgYGBgYGBgYGBgYGBgYGBgYGBg
        YGBgYGBgYGBzdHA1QAAAAAAAAAAAAAAAAAAAAAAAAAAAAAAAAAAAAAAAAAAAAAAAAAAAAAAAAAAAAAAAAAAAAAAAAAAAAAAAAAAAAAAAAABwcm9nGgIAAHByZ3AqAAAA
        EQhOBAADAH8AfwBAAAEAAAAAAAAAAAAAAH8AAAAAAQAAAAAAAAAAAAAAcGdubTAAAABSaWZmIEd1aXRhciAzayBUaHVuZGVyADEAMwAAzMzMzMzMzMzMzMzMzMzMzMzM
        zMxzdHAwQAAAAAAAAAAAAAAAAAAAAAAAAAAAAAAAAAAAAAAAAAAAAAAAAAAAAAAAAAAAAAAAAAAAAAAAAAAAAAAAAAAAAAAAAABzdHAxQAAAAAgECAQIBAgECAQIBAgE
        CAQICAgICAgICAgICAgICAgICAgICAgICAgICAgICAgICAgICAgICAgICAgICAgICAhzdHAyQAAAAAEBAQEBAQEBAQEBAQEBAQEBAQEBAQEBAQEBAQEBAQEBAQEBAQEB
        AQEBAQEBAQEBAQEBAQEBAQEBAQEBAQEBAQFzdHAzQAAAAAgQBBAIEAQQBBAIEAQQCBAEBAQEBAQEBAQEBAQEBAQEBAQEBAQEBAQEBAQEBAQEBAQEBAQEBAQEBAQEBAQE
        BARzdHA0QAAAAGBgYGBgYGBgYGBgYGBgYGBgYGBgYGBgYGBgYGBgYGBgYGBgYGBgYGBgYGBgYGBgYGBgYGBgYGBgYGBgYGBgYGBzdHA1QAAAAAAAAAAAAAAAAAAAAAAA
        AAAAAAAAAAAAAAAAAAAAAAAAAAAAAAAAAAAAAAAAAAAAAAAAAAAAAAAAAAAAAAAAAABwcm9nGgIAAHByZ3AqAAAAEQghBAABAH8AfwBAAAEAAAAAAAAAAAAAAH8AAAAA
        AAAAAAAAAAAAAAAAcGdubTAAAABDaHIgR2F0ZWQgY2xhc3NpYyB2YXIxADEAMwAAAAAAAAAAAAAAAAAAAAAAAAAAAABzdHAwQAAAAAAAAAAAAAAAAAAAAAAAAAAAAAAA
        AAAAAAAAAAAAAAAAAAAAAAAAAAAAAAAAAAAAAAAAAAAAAAAAAAAAAAAAAABzdHAxQAAAAAgICAgICAgICAgICAgICAgICAgICAgICAgICAgICAgICAgICAgICAgICAgI
        CAgICAgICAgICAgICAgICAgICAhzdHAyQAAAAAQEBAIEBAQCAQEBAQEBAQEBAQEBAQEBAQEBAQEBAQEBAQEBAQEBAQEBAQEBAQEBAQEBAQEBAQEBAQEBAQEBAQFzdHAz
        QAAAAAQEBAQEBAQEBAQEBAQEBAQEBAQEBAQEBAQEBAQEBAQEBAQEBAQEBAQEBAQEBAQEBAQEBAQEBAQEBAQEBAQEBARzdHA0QAAAAGBgYGBgYGBgYGBgYGBgYGBgYGBg
        YGBgYGBgYGBgYGBgYGBgYGBgYGBgYGBgYGBgYGBgYGBgYGBgYGBgYGBgYGBzdHA1QAAAAAAAAAAAAAAAAAAAAAAAAAAAAAAAAAAAAAAAAAAAAAAAAAAAAAAAAAAAAAAA
        AAAAAAAAAAAAAAAAAAAAAAAAAABwcm9nGgIAAHByZ3AqAAAAEQghBAABAH8AfwBAAAEAAAAAAAAAAAAAAH8BAAAAAAAAAAAAAAAAAAAAcGdubTAAAABDaHIgR2F0ZWQg
        Y2xhc3NpYyB2YXIyADIAMwAAzMzMzMzMzMzMzMzMzMzMzMzMzMxzdHAwQAAAAAAAAAAAAAAAAAAAAAAAAAAAAAAAAAAAAAAAAAAAAAAAAAAAAAAAAAAAAAAAAAAAAAAA
        AAAAAAAAAAAAAAAAAABzdHAxQAAAAAwMDAgMDAwICAgICAgICAgICAgICAgICAgICAgICAgICAgICAgICAgICAgICAgICAgICAgICAgICAgICAgICAhzdHAyQAAAAAQE
        BAIEBAQCAQEBAQEBAQEBAQEBAQEBAQEBAQEBAQEBAQEBAQEBAQEBAQEBAQEBAQEBAQEBAQEBAQEBAQEBAQFzdHAzQAAAAAQEBAQEBAQEBAQEBAQEBAQEBAQEBAQEBAQE
        BAQEBAQEBAQEBAQEBAQEBAQEBAQEBAQEBAQEBAQEBAQEBAQEBARzdHA0QAAAAGBgYGBgYGBgYGBgYGBgYGBgYGBgYGBgYGBgYGBgYGBgYGBgYGBgYGBgYGBgYGBgYGBg
        YGBgYGBgYGBgYGBgYGBzdHA1QAAAAAAAAAAAAAAAAAAAAAAAAAAAAAAAAAAAAAAAAAAAAAAAAAAAAAAAAAAAAAAAAAAAAAAAAAAAAAAAAAAAAAAAAABwcm9nGgIAAHBy
        Z3AqAAAAEQhfBAABAH8AfwBAAAEAAAAAAAAAAAAAAH8BAAAAAAAAAAAAAAAAAAAAcGdubTAAAABDaHIgR2F0ZWQgY2xhc3NpYyB2YXIzAGFyMwDMzMzMzMzMzMzMzMzM
        zMzMzMzMzMxzdHAwQAAAAAAAAAAAAAAAAAAAAAAAAAAAAAAAAAAAAAAAAAAAAAAAAAAAAAAAAAAAAAAAAAAAAAAAAAAAAAAAAAAAAAAAAABzdHAxQAAAAAwMDAgMDAwI
        CAgICAgICAgICAgICAgICAgICAgICAgICAgICAgICAgICAgICAgICAgICAgICAgICAgICAgICAhzdHAyQAAAAAQEBAIEBAQCAQEBAQEBAQEBAQEBAQEBAQEBAQEBAQEB
        AQEBAQEBAQEBAQEBAQEBAQEBAQEBAQEBAQEBAQEBAQFzdHAzQAAAAAQEBAQEBAQEBAQEBAQEBAQEBAQEBAQEBAQEBAQEBAQEBAQEBAQEBAQEBAQEBAQEBAQEBAQEBAQE
        BAQEBAQEBARzdHA0QAAAAGBgYGBgYGBgYGBgYGBgYGBgYGBgYGBgYGBgYGBgYGBgYGBgYGBgYGBgYGBgYGBgYGBgYGBgYGBgYGBgYGBgYGBzdHA1QAAAAAAAAAAAAAAA
        AAAAAAAAAAAAAAAAAAAAAAAAAAAAAAAAAAAAAAAAAAAAAAAAAAAAAAAAAAAAAAAAAAAAAAAAAABwcm9nGgIAAHByZ3AqAAAAERBKBAABAH8AfwBAAAEAAAAAAAAAAAAA
        AH8BAAAAAAAAAAAAAAAAAAAAcGdubTAAAABDaHIgRGFuY2Ugd2l0aCBtZSB2YXIxAAAAAAAAAAAAAAAAAAAAAAAAAAAAAAAAAABzdHAwQAAAAAAAAAAAAAAAAAAAAAAA
        AAAAAAAAAAAAAAAAAAAAAAAAAAAAAAAAAAAAAAAAAAAAAAAAAAAAAAAAAAAAAAAAAABzdHAxQAAAAAgICAwICAgICAwICAgIDAgICAgICAgICAgICAgICAgICAgICAgI
        CAgICAgICAgICAgICAgICAgICAgICAgICAhzdHAyQAAAAAQAAAQAAAQAAAQAAAQABAABAQEBAQEBAQEBAQEBAQEBAQEBAQEBAQEBAQEBAQEBAQEBAQEBAQEBAQEBAQEB
        AQFzdHAzQAAAAAQEBAQEBAQEBAQEBAQEBAQEBAQEBAQEBAQEBAQEBAQEBAQEBAQEBAQEBAQEBAQEBAQEBAQEBAQEBAQEBAQEBARzdHA0QAAAAGBgYGBgYGBgYGBgYGBg
        YGBgYGBgYGBgYGBgYGBgYGBgYGBgYGBgYGBgYGBgYGBgYGBgYGBgYGBgYGBgYGBgYGBzdHA1QAAAAAAAAAAAAAAAAAAAAAAAAAAAAAAAAAAAAAAAAAAAAAAAAAAAAAAA
        AAAAAAAAAAAAAAAAAAAAAAAAAAAAAAAAAABwcm9nGgIAAHByZ3AqAAAAERBKBAABAH8AfwBAAAEAAAAAAAAAAAAAAH8BAAAAAAAAAAAAAAAAAAAAcGdubTAAAABDaHIg
        RGFuY2Ugd2l0aCBtZSB2YXIyAABuKQDMzMzMzMzMzMzMzMzMzMzMzMzMzMxzdHAwQAAAAAAAAAAAAAAAAAAAAAAAAAAAAAAAAAAAAAAAAAAAAAAAAAAAAAAAAAAAAAAA
        AAAAAAAAAAAAAAAAAAAAAAAAAABzdHAxQAAAAA4ICA4ICA4ICA4ICA4IDggICAgICAgICAgICAgICAgICAgICAgICAgICAgICAgICAgICAgICAgICAgICAgICAhzdHAy
        QAAAAAQAAAQAAAQAAAQAAAQABAABAQEBAQEBAQEBAQEBAQEBAQEBAQEBAQEBAQEBAQEBAQEBAQEBAQEBAQEBAQEBAQFzdHAzQAAAAAQEBAQEBAQEBAQEBAQEBAQEBAQE
        BAQEBAQEBAQEBAQEBAQEBAQEBAQEBAQEBAQEBAQEBAQEBAQEBAQEBAQEBARzdHA0QAAAAGBgYGBgYGBgYGBgYGBgYGBgYGBgYGBgYGBgYGBgYGBgYGBgYGBgYGBgYGBg
        YGBgYGBgYGBgYGBgYGBgYGBgYGBzdHA1QAAAAAAAAAAAAAAAAAAAAAAAAAAAAAAAAAAAAAAAAAAAAAAAAAAAAAAAAAAAAAAAAAAAAAAAAAAAAAAAAAAAAAAAAABwcm9n
        GgIAAHByZ3AqAAAAERA0BAABAH8AfwBAAAEAAAAAAAAAAAAAAH8BAAAAAAAAAAAAAAAAAAAAcGdubTAAAABDaHIgRGFuY2Ugd2l0aCBtZSB2YXIzAAAAAAAAAAAAAAAA
        AAAAAAAAAAAAAAAAAABzdHAwQAAAAAAAAAAAAAAAAAAAAAAAAAAAAAAAAAAAAAAAAAAAAAAAAAAAAAAAAAAAAAAAAAAAAAAAAAAAAAAAAAAAAAAAAABzdHAxQAAAAA4I
        CA4ICA4ICA4ICA4IDggICAgICAgICAgICAgICAgICAgICAgICAgICAgICAgICAgICAgICAgICAgICAgICAhzdHAyQAAAAAQCAgQCAgQCAgQCAgQCBAIBAQEBAQEBAQEB
        AQEBAQEBAQEBAQEBAQEBAQEBAQEBAQEBAQEBAQEBAQEBAQEBAQFzdHAzQAAAAAQEBAQEBAQEBAQEBAQEBAQEBAQEBAQEBAQEBAQEBAQEBAQEBAQEBAQEBAQEBAQEBAQE
        BAQEBAQEBAQEBAQEBARzdHA0QAAAAGBgYGBgYGBgYGBgYGBgYGBgYGBgYGBgYGBgYGBgYGBgYGBgYGBgYGBgYGBgYGBgYGBgYGBgYGBgYGBgYGBgYGBzdHA1QAAAAAAA
        AAAAAAAAAAAAAAAAAAAAAAAAAAAAAAAAAAAAAAAAAAAAAAAAAAAAAAAAAAAAAAAAAAAAAAAAAAAAAAAAAABwcm9nGgIAAHByZ3AqAAAAERBKBAABAH8AfwBAAAEAAAAA
        AAAAAAAAAH8AAAAAAAAAAAAAAAAAAAAAcGdubTAAAABDaHIgRGFuY2Ugd2l0aCBtZSB2YXI0AAAAAAAAAAAAAAAAAAAAAAAAAAAAAAAAAABzdHAwQAAAAAAAAAAAAAAA
        AAAAAAAAAAAAAAAAAAAAAAAAAAAAAAAAAAAAAAAAAAAAAAAAAAAAAAAAAAAAAAAAAAAAAAAAAABzdHAxQAAAAAgICAgICAgICAgICAgICAgICAgICAgICAgICAgICAgI
        CAgICAgICAgICAgICAgICAgICAgICAgICAgICAgICAhzdHAyQAAAAAAABAAEBAAABAAABAAABAABAQEBAQEBAQEBAQEBAQEBAQEBAQEBAQEBAQEBAQEBAQEBAQEBAQEB
        AQEBAQEBAQFzdHAzQAAAAAQEBAQEBAQEBAQEBAQEBAQEBAQEBAQEBAQEBAQEBAQEBAQEBAQEBAQEBAQEBAQEBAQEBAQEBAQEBAQEBAQEBARzdHA0QAAAAGBgYGBgYGBg
        YGBgYGBgYGBgYGBgYGBgYGBgYGBgYGBgYGBgYGBgYGBgYGBgYGBgYGBgYGBgYGBgYGBgYGBgYGBzdHA1QAAAAAAAAAAAAAAAAAAAAAAAAAAAAAAAAAAAAAAAAAAAAAAA
        AAAAAAAAAAAAAAAAAAAAAAAAAAAAAAAAAAAAAAAAAABwcm9nGgIAAHByZ3AqAAAAERBKBAABAH8AfwBAAAEAAAAAAAAAAAAAAH8BAAAAAAAAAAAAAAAAAAAAcGdubTAA
        AABDaHIgRGFuY2Ugd2l0aCBtZSB2YXI1AAAAAAAAAAAAAAAAAAAAAAAAAAAAAAAAAABzdHAwQAAAAAAAAAAAAAAAAAAAAAAAAAAAAAAAAAAAAAAAAAAAAAAAAAAAAAAA
        AAAAAAAAAAAAAAAAAAAAAAAAAAAAAAAAAABzdHAxQAAAAAgIDAgICAwICAgMCAgIDAgICAgICAgICAgICAgICAgICAgICAgICAgICAgICAgICAgICAgICAgICAgICAgI
        CAhzdHAyQAAAAAAABAAEBAEABAABBAAABAABAQEBAQEBAQEBAQEBAQEBAQEBAQEBAQEBAQEBAQEBAQEBAQEBAQEBAQEBAQEBAQFzdHAzQAAAAAQEBAQEBAQEBAQEBAQE
        BAQEBAQEBAQEBAQEBAQEBAQEBAQEBAQEBAQEBAQEBAQEBAQEBAQEBAQEBAQEBAQEBARzdHA0QAAAAGBgYGBgYGBgYGBgYGBgYGBgYGBgYGBgYGBgYGBgYGBgYGBgYGBg
        YGBgYGBgYGBgYGBgYGBgYGBgYGBgYGBgYGBzdHA1QAAAAAAAAAAAAAAAAAAAAAAAAAAAAAAAAAAAAAAAAAAAAAAAAAAAAAAAAAAAAAAAAAAAAAAAAAAAAAAAAAAAAAAA
        AABwcm9nGgIAAHByZ3AqAAAAERAyBAABAH8AfwBAAAEAAAAAAAAAAAAAAH8BAAAAAAAAAAAAAAAAAAAAcGdubTAAAABDaG9yZCBwb2x5IG9jdC4gMDIgdmFyMQAAAAAA
        AAAAAAAAAAAAAAAAAAAAAAAAAABzdHAwQAAAAAAAAAAAAAAAAAAAAAAAAAAAAAAAAAAAAAAAAAAAAAAAAAAAAAAAAAAAAAAAAAAAAAAAAAAAAAAAAAAAAAAAAABzdHAx
        QAAAAAgICAgICAgICAgICAgICAgICAgICAgICAgICAgICAgICAgICAgICAgICAgICAgICAgICAgICAgICAgICAgICAhzdHAyQAAAAAQEAAQEAAQEAAQEAAQABAABAQEB
        AQEBAQEBAQEBAQEBAQEBAQEBAQEBAQEBAQEBAQEBAQEBAQEBAQEBAQEBAQFzdHAzQAAAAAQEBAQEBAQEBAQEBAQEBAQEBAQEBAQEBAQEBAQEBAQEBAQEBAQEBAQEBAQE
        BAQEBAQEBAQEBAQEBAQEBAQEBARzdHA0QAAAAGBgYGBgYGBgYGBgYGBgYGBgYGBgYGBgYGBgYGBgYGBgYGBgYGBgYGBgYGBgYGBgYGBgYGBgYGBgYGBgYGBgYGBzdHA1
        QAAAAAAAAAAAAAAAAAAAAAAAAAAAAAAAAAAAAAAAAAAAAAAAAAAAAAAAAAAAAAAAAAAAAAAAAAAAAAAAAAAAAAAAAABwcm9nGgIAAHByZ3AqAAAAERAyBAABAH8AfwBA
        AAEAAAAAAAAAAAAAAH8BAAAAAAAAAAAAAAAAAAAAcGdubTAAAABDaG9yZCBwb2x5IG9jdC4gMDIgdmFyMgAAAAAAAAAAAAAAAAAAAAAAAAAAAAAAAABzdHAwQAAAAAAA
        AAAAAAAAAAAAAAAAAAAAAAAAAAAAAAAAAAAAAAAAAAAAAAAAAAAAAAAAAAAAAAAAAAAAAAAAAAAAAAAAAABzdHAxQAAAAAwMBAwMCAwMCAwMCAwIDAgICAgICAgICAgI
        CAgICAgICAgICAgICAgICAgICAgICAgICAgICAgICAgICAgICAhzdHAyQAAAAAQEAQQEAAQEAAQEAAQABAABAQEBAQEBAQEBAQEBAQEBAQEBAQEBAQEBAQEBAQEBAQEB
        AQEBAQEBAQEBAQEBAQFzdHAzQAAAAAQEBAQEBAQEBAQEBAQEBAQEBAQEBAQEBAQEBAQEBAQEBAQEBAQEBAQEBAQEBAQEBAQEBAQEBAQEBAQEBAQEBARzdHA0QAAAAGBg
        YGBgYGBgYGBgYGBgYGBgYGBgYGBgYGBgYGBgYGBgYGBgYGBgYGBgYGBgYGBgYGBgYGBgYGBgYGBgYGBgYGBzdHA1QAAAAAAAAAAAAAAAAAAAAAAAAAAAAAAAAAAAAAAA
        AAAAAAAAAAAAAAAAAAAAAAAAAAAAAAAAAAAAAAAAAAAAAAAAAABwcm9nGgIAAHByZ3AqAAAAERAyBAABAH8AfwBAAAEAAAAAAAAAAAAAAH8BAAAAAAAAAAAAAAAAAAAA
        cGdubTAAAABDaG9yZCBwb2x5IG9jdC4gMDIgdmFyMwBzdGVpbikAzMzMzMzMzMzMzMzMzMzMzMxzdHAwQAAAAAAAAAAAAAAAAAAAAAAAAAAAAAAAAAAAAAAAAAAAAAAA
        AAAAAAAAAAAAAAAAAAAAAAAAAAAAAAAAAAAAAAAAAABzdHAxQAAAAA4MBgwOCA4MAgwOCA4IDggICAgICAgICAgICAgICAgICAgICAgICAgICAgICAgICAgICAgICAgI
        CAgICAgICAhzdHAyQAAAAAQEAQQEAAQEAAQEAAQABAABAQEBAQEBAQEBAQEBAQEBAQEBAQEBAQEBAQEBAQEBAQEBAQEBAQEBAQEBAQEBAQFzdHAzQAAAAAQEBAQEBAQE
        BAQEBAQEBAQEBAQEBAQEBAQEBAQEBAQEBAQEBAQEBAQEBAQEBAQEBAQEBAQEBAQEBAQEBAQEBARzdHA0QAAAAGBgYGBgYGBgYGBgYGBgYGBgYGBgYGBgYGBgYGBgYGBg
        YGBgYGBgYGBgYGBgYGBgYGBgYGBgYGBgYGBgYGBgYGBzdHA1QAAAAAAAAAAAAAAAAAAAAAAAAAAAAAAAAAAAAAAAAAAAAAAAAAAAAAAAAAAAAAAAAAAAAAAAAAAAAAAA
        AAAAAAAAAABwcm9nGgIAAHByZ3AqAAAAERAyBAABAH8AfwBAAAEAAAAAAAAAAAAAAH8BAAAAAAAAAAAAAAAAAAAAcGdubTAAAABDaG9yZCBwb2x5IG9jdC4gMDMgdmFy
        MQBzdGVpbikAzMzMzMzMzMzMzMzMzMzMzMxzdHAwQAAAAAAAAAAAAAAAAAAAAAAAAAAAAAAAAAAAAAAAAAAAAAAAAAAAAAAAAAAAAAAAAAAAAAAAAAAAAAAAAAAAAAAA
        AABzdHAxQAAAAAgICAgICAgICAgICAgICAgICAgICAgICAgICAgICAgICAgICAgICAgICAgICAgICAgICAgICAgICAgICAgICAhzdHAyQAAAAAQEBAQEAAQABAAEAAQA
        BAABAQEBAQEBAQEBAQEBAQEBAQEBAQEBAQEBAQEBAQEBAQEBAQEBAQEBAQEBAQEBAQFzdHAzQAAAAAQEBAQEBAQEBAQEBAQEBAQEBAQEBAQEBAQEBAQEBAQEBAQEBAQE
        BAQEBAQEBAQEBAQEBAQEBAQEBAQEBAQEBARzdHA0QAAAAGBgYGBgYGBgYGBgYGBgYGBgYGBgYGBgYGBgYGBgYGBgYGBgYGBgYGBgYGBgYGBgYGBgYGBgYGBgYGBgYGBg
        YGBzdHA1QAAAAAAAAAAAAAAAAAAAAAAAAAAAAAAAAAAAAAAAAAAAAAAAAAAAAAAAAAAAAAAAAAAAAAAAAAAAAAAAAAAAAAAAAABwcm9nGgIAAHByZ3AqAAAAERAyBAAB
        AH8AfwBAAAEAAAAAAAAAAAAAAH8BAAAAAAAAAAAAAAAAAAAAcGdubTAAAABDaG9yZCBwb2x5IG9jdC4gMDMgdmFyMgBuKQBpbikAzMzMzMzMzMzMzMzMzMzMzMxzdHAw
        QAAAAAAAAAAAAAAAAAAAAAAAAAAAAAAAAAAAAAAAAAAAAAAAAAAAAAAAAAAAAAAAAAAAAAAAAAAAAAAAAAAAAAAAAABzdHAxQAAAAAwIDggMCA4IDAgOCAwIDggICAgI
        CAgICAgICAgICAgICAgICAgICAgICAgICAgICAgICAgICAgICAgICAgICAhzdHAyQAAAAAQEBAQEAAQABAAEAAQABAABAQEBAQEBAQEBAQEBAQEBAQEBAQEBAQEBAQEB
        AQEBAQEBAQEBAQEBAQEBAQEBAQFzdHAzQAAAAAQEBAQEBAQEBAQEBAQEBAQEBAQEBAQEBAQEBAQEBAQEBAQEBAQEBAQEBAQEBAQEBAQEBAQEBAQEBAQEBAQEBARzdHA0
        QAAAAGBgYGBgYGBgYGBgYGBgYGBgYGBgYGBgYGBgYGBgYGBgYGBgYGBgYGBgYGBgYGBgYGBgYGBgYGBgYGBgYGBgYGBzdHA1QAAAAAAAAAAAAAAAAAAAAAAAAAAAAAAA
        AAAAAAAAAAAAAAAAAAAAAAAAAAAAAAAAAAAAAAAAAAAAAAAAAAAAAAAAAABwcm9nGgIAAHByZ3AqAAAAERBQBAAAAH8AfwBAAAEAAAAAAAAAAAAAAH8BAAAAAAAAAAAA
        AAAAAAAAcGdubTAAAABDaHIgRGVhZG1hdTUgcGx1Y2tzIHZhcjEAKQApAADMzMzMzMzMzMzMzMzMzMzMzMxzdHAwQAAAAAAAAAAAAAAAAAAAAAAAAAAAAAAAAAAAAAAA
        AAAAAAAAAAAAAAAAAAAAAAAAAAAAAAAAAAAAAAAAAAAAAAAAAABzdHAxQAAAAAgIDggICA4ICAgOCAgIDggICAgICAgICAgICAgICAgICAgICAgICAgICAgICAgICAgI
        CAgICAgICAgICAgICAhzdHAyQAAAAAQABAAEAAQABAAEAAQABAABAQEBAQEBAQEBAQEBAQEBAQEBAQEBAQEBAQEBAQEBAQEBAQEBAQEBAQEBAQEBAQFzdHAzQAAAAAQE
        BAQEBAQEBAQEBAQEBAQEBAQEBAQEBAQEBAQEBAQEBAQEBAQEBAQEBAQEBAQEBAQEBAQEBAQEBAQEBAQEBARzdHA0QAAAAHBgYGBgYGBgcGBgYGBgYGBgYGBgYGBgYGBg
        YGBgYGBgYGBgYGBgYGBgYGBgYGBgYGBgYGBgYGBgYGBgYGBgYGBzdHA1QAAAAAAAAAAAAAAAAAAAAAAAAAAAAAAAAAAAAAAAAAAAAAAAAAAAAAAAAAAAAAAAAAAAAAAA
        AAAAAAAAAAAAAAAAAABwcm9nGgIAAHByZ3AqAAAAERBQBAAAAH8AfwBAAAEAAAAAAAAAAAAAAH8BAAAAAAAAAAAAAAAAAAAAcGdubTAAAABDaHIgRGVhZG1hdTUgcGx1
        Y2tzIHZhcjIAKQApAADMzMzMzMzMzMzMzMzMzMzMzMxzdHAwQAAAAAAAAAAAAAAAAAAAAAAAAAAAAAAAAAAAAAAAAAAAAAAAAAAAAAAAAAAAAAAAAAAAAAAAAAAAAAAA
        AAAAAAAAAABzdHAxQAAAAA4IDggOCA4IDggOCA4IDggICAgICAgICAgICAgICAgICAgICAgICAgICAgICAgICAgICAgICAgICAgICAgICAhzdHAyQAAAAAQABAAEAAQA
        BAAEAAQABAABAQEBAQEBAQEBAQEBAQEBAQEBAQEBAQEBAQEBAQEBAQEBAQEBAQEBAQEBAQEBAQFzdHAzQAAAAAQEBAQEBAQEBAQEBAQEBAQEBAQEBAQEBAQEBAQEBAQE
        BAQEBAQEBAQEBAQEBAQEBAQEBAQEBAQEBAQEBAQEBARzdHA0QAAAAHBgYGBgYGBgcGBgYGBgYGBgYGBgYGBgYGBgYGBgYGBgYGBgYGBgYGBgYGBgYGBgYGBgYGBgYGBg
        YGBgYGBgYGBzdHA1QAAAAAAAAAAAAAAAAAAAAAAAAAAAAAAAAAAAAAAAAAAAAAAAAAAAAAAAAAAAAAAAAAAAAAAAAAAAAAAAAAAAAAAAAABwcm9nGgIAAHByZ3AqAAAA
        ERBQBAAAAH8AfwBAAAEAAAAAAAAAAAAAAH8BAAAAAAAAAAAAAAAAAAAAcGdubTAAAABDaHIgRGVhZG1hdTUgcGx1Y2tzIHZhcjMAKQAAAAAAAAAAAAAAAAAAAAAAAAAA
        AABzdHAwQAAAAAAAAAAAAAAAAAAAAAAAAAAAAAAAAAAAAAAAAAAAAAAAAAAAAAAAAAAAAAAAAAAAAAAAAAAAAAAAAAAAAAAAAABzdHAxQAAAAA4IDggOCA4IDggOCA4I
        DggICAgICAgICAgICAgICAgICAgICAgICAgICAgICAgICAgICAgICAgICAgICAgICAhzdHAyQAAAAAQCBAIEAgQCBAIEAgQCBAIBAQEBAQEBAQEBAQEBAQEBAQEBAQEB
        AQEBAQEBAQEBAQEBAQEBAQEBAQEBAQEBAQFzdHAzQAAAAAQEBAQEBAQEBAQEBAQEBAQEBAQEBAQEBAQEBAQEBAQEBAQEBAQEBAQEBAQEBAQEBAQEBAQEBAQEBAQEBAQE
        BARzdHA0QAAAAHBgYGBgYGBgcGBgYGBgYGBgYGBgYGBgYGBgYGBgYGBgYGBgYGBgYGBgYGBgYGBgYGBgYGBgYGBgYGBgYGBgYGBzdHA1QAAAAAAAAAAAAAAAAAAAAAAA
        AAAAAAAAAAAAAAAAAAAAAAAAAAAAAAAAAAAAAAAAAAAAAAAAAAAAAAAAAAAAAAAAAABwcm9nGgIAAHByZ3AqAAAAERAyBAADAH8AfwFAAAEAAAAAAAAAAAAAAH8AAAEA
        AQAAAAAAAAAAAAAAcGdubTAAAABBcnAgM2sgU1NhdyAwMSAoUmFtbXN0ZWluKQAAKQDMzMzMzMzMzMzMzMzMzMzMzMxzdHAwQAAAAAAAAAAAAAAAAAAAAAAAAAAAAAAA
        AAAAAAAAAAAAAAAAAAAAAAAAAAAAAAAAAAAAAAAAAAAAAAAAAAAAAAAAAABzdHAxQAAAAAQICAQICAQICAQIBAgIBAgICAgICAgICAgICAgICAgICAgICAgICAgICAgI
        CAgICAgICAgICAgICAgICAgICAhzdHAyQAAAAAEBAQEBAQEBAQEBAQEBAQEBAQEBAQEBAQEBAQEBAQEBAQEBAQEBAQEBAQEBAQEBAQEBAQEBAQEBAQEBAQEBAQFzdHAz
        QAAAABAIBBAIBBAIBBAEEAgEEAgEBAQEBAQEBAQEBAQEBAQEBAQEBAQEBAQEBAQEBAQEBAQEBAQEBAQEBAQEBAQEBARzdHA0QAAAAGBgYGBgYGBgYGBgYGBgYGBgYGBg
        YGBgYGBgYGBgYGBgYGBgYGBgYGBgYGBgYGBgYGBgYGBgYGBgYGBgYGBgYGBzdHA1QAAAAAAAAAAAAAAAAAAAAAAAAAAAAAAAAAAAAAAAAAAAAAAAAAAAAAAAAAAAAAAA
        AAAAAAAAAAAAAAAAAAAAAAAAAABwcm9nGgIAAHByZ3AqAAAAEQg6BAACAH8AfwBAAAEAAAAAAAAAAAAAAH8AAAAAAAAAAAAAAAAAAAAAcGdubTAAAABBcnAgM2sgU1Nh
        dyAwMiB2YXIxAGlvbgBpb24AKQDMzMzMzMzMzMzMzMzMzMzMzMxzdHAwQAAAAAAAAAAAAAAAAAAAAAAAAAAAAAAAAAAAAAAAAAAAAAAAAAAAAAAAAAAAAAAAAAAAAAAA
        AAAAAAAAAAAAAAAAAABzdHAxQAAAAAQICAQICAQICAgICAgICAgICAgICAgICAgICAgICAgICAgICAgICAgICAgICAgICAgICAgICAgICAgICAgICAhzdHAyQAAAAAEA
        AQEBAQEBAAAAAAAAAAABAQEBAQEBAQEBAQEBAQEBAQEBAQEBAQEBAQEBAQEBAQEBAQEBAQEBAQEBAQEBAQFzdHAzQAAAAAQEEAQECAQQBAQEBAQEBAQEBAQEBAQEBAQE
        BAQEBAQEBAQEBAQEBAQEBAQEBAQEBAQEBAQEBAQEBAQEBAQEBARzdHA0QAAAAGBgYGBgYGBgYGBgYGBgYGBgYGBgYGBgYGBgYGBgYGBgYGBgYGBgYGBgYGBgYGBgYGBg
        YGBgYGBgYGBgYGBgYGBzdHA1QAAAAAAAAAAAAAAAAAAAAAAAAAAAAAAAAAAAAAAAAAAAAAAAAAAAAAAAAAAAAAAAAAAAAAAAAAAAAAAAAAAAAAAAAABwcm9nGgIAAHBy
        Z3AqAAAAEQg6BAACAH8AfwBAAAEAAAAAAAAAAAAAAH8AAAAAAAAAAAAAAAAAAAAAcGdubTAAAABBcnAgM2sgU1NhdyAwMiB2YXIyAGlvbgApAHJvKQDMzMzMzMzMzMzM
        zMzMzMzMzMxzdHAwQAAAAAAAAAAAAAAAAAAAAAAAAAAAAAAAAAAAAAAAAAAAAAAAAAAAAAAAAAAAAAAAAAAAAAAAAAAAAAAAAAAAAAAAAABzdHAxQAAAAAQICAQIBAgI
        CAgICAgICAgICAgICAgICAgICAgICAgICAgICAgICAgICAgICAgICAgICAgICAgICAgICAgICAhzdHAyQAAAAAEBAQEBAQEBAAAAAAAAAAABAQEBAQEBAQEBAQEBAQEB
        AQEBAQEBAQEBAQEBAQEBAQEBAQEBAQEBAQEBAQEBAQFzdHAzQAAAAAQQCAQEBAgQBAQEBAQEBAQEBAQEBAQEBAQEBAQEBAQEBAQEBAQEBAQEBAQEBAQEBAQEBAQEBAQE
        BAQEBAQEBARzdHA0QAAAAGBgYGBgYGBgYGBgYGBgYGBgYGBgYGBgYGBgYGBgYGBgYGBgYGBgYGBgYGBgYGBgYGBgYGBgYGBgYGBgYGBgYGBzdHA1QAAAAAAAAAAAAAAA
        AAAAAAAAAAAAAAAAAAAAAAAAAAAAAAAAAAAAAAAAAAAAAAAAAAAAAAAAAAAAAAAAAAAAAAAAAABwcm9nGgIAAHByZ3AqAAAAERA6BAADAH8AfwBAAAEAAAAAAAAAAAAA
        AH8AAAIAAAAAAAAAAAAAAAAAcGdubTAAAABBcnAgMmsgU1NhdyAwNABhbSAtAGlvbgApAHBzKQDMzMzMzMzMzMzMzMzMzMzMzMxzdHAwQAAAAAAAAAAAAAAAAAAAAAAA
        AAEAAAAAAAAAAAAAAAAAAAAAAAAAAAAAAAAAAAAAAAAAAAAAAAAAAAAAAAAAAAAAAABzdHAxQAAAAAgIBAgECAgICAgECAgIBAgICAgICAgICAgICAgICAgICAgICAgI
        CAgICAgICAgICAgICAgICAgICAgICAgICAhzdHAyQAAAAAECAQABAAECAQIBAAECAQEBAQEBAQEBAQEBAQEBAQEBAQEBAQEBAQEBAQEBAQEBAQEBAQEBAQEBAQEBAQEB
        AQFzdHAzQAAAAAQEBAQEBAQECAQEBAQEBAQEBAQEBAQEBAQEBAQEBAQEBAQEBAQEBAQEBAQEBAQEBAQEBAQEBAQEBAQEBAQEBARzdHA0QAAAAGBgYGBgYGBgYGBgYGBg
        YGBgYGBgYGBgYGBgYGBgYGBgYGBgYGBgYGBgYGBgYGBgYGBgYGBgYGBgYGBgYGBgYGBzdHA1QAAAAAAAAAAAAAAAAAAAAAAAAAAAAAAAAAAAAAAAAAAAAAAAAAAAAAAA
        AAAAAAAAAAAAAAAAAAAAAAAAAAAAAAAAAABwcm9nGgIAAHByZ3AqAAAAERA6BAACAH8AfwBAAAEAAAAAAAAAAAAAAH8AAAIAAAAAAAAAAAAAAAAAcGdubTAAAABBcnAg
        MmsgU1NhdyAwNQBhbSAtAGlvbgApACB2MQDMzMzMzMzMzMzMzMzMzMzMzMxzdHAwQAAAAAAAAAAAAAAAAAAAAAAAAAAAAAAAAAAAAAAAAAAAAAAAAAAAAAAAAAAAAAAA
        AAAAAAAAAAAAAAAAAAAAAAAAAABzdHAxQAAAAAgECAgECAgICAQICAQICAQICAgICAgICAgICAgICAgICAgICAgICAgICAgICAgICAgICAgICAgICAgICAgICAhzdHAy
        QAAAAAEBAQEBAQEBAQEBAQEBAQEBAQEBAQEBAQEBAQEBAQEBAQEBAQEBAQEBAQEBAQEBAQEBAQEBAQEBAQEBAQEBAQFzdHAzQAAAAAgEBBAEBBAECAQEEAQEEAQEBAQE
        BAQEBAQEBAQEBAQEBAQEBAQEBAQEBAQEBAQEBAQEBAQEBAQEBAQEBAQEBARzdHA0QAAAAGBgYGBgYGBgYGBgYGBgYGBgYGBgYGBgYGBgYGBgYGBgYGBgYGBgYGBgYGBg
        YGBgYGBgYGBgYGBgYGBgYGBgYGBzdHA1QAAAAAAAAAAAAAAAAAAAAAAAAAAAAAAAAAAAAAAAAAAAAAAAAAAAAAAAAAAAAAAAAAAAAAAAAAAAAAAAAAAAAAAAAABwcm9n
        GgIAAHByZ3AqAAAAEQQ4BAABAH8AfwBAAAEAAAAAAAAAAAAAAH8AAAAAAAAAAAAAAAAAAAAAcGdubTAAAABBcnAgM2sgU1NhdyAwNiBJbGx1c2lvbgApACB2MQDMzMzM
        zMzMzMzMzMzMzMzMzMxzdHAwQAAAAAAAAAAAAAAAAAAAAAAAAAAAAAAAAAAAAAAAAAAAAAAAAAAAAAAAAAAAAAAAAAAAAAAAAAAAAAAAAAAAAAAAAABzdHAxQAAAAAgI
        CAgICAgICAgICAgICAgICAgICAgICAgICAgICAgICAgICAgICAgICAgICAgICAgICAgICAgICAgICAgICAhzdHAyQAAAAAEBBAEBAQEBAQEBAQEBAQEBAQEBAQEBAQEB
        AQEBAQEBAQEBAQEBAQEBAQEBAQEBAQEBAQEBAQEBAQEBAQEBAQFzdHAzQAAAAAQIBAgEBAQEBAQEBAQEBAQEBAQEBAQEBAQEBAQEBAQEBAQEBAQEBAQEBAQEBAQEBAQE
        BAQEBAQEBAQEBAQEBARzdHA0QAAAAGBgYGBgYGBgYGBgYGBgYGBgYGBgYGBgYGBgYGBgYGBgYGBgYGBgYGBgYGBgYGBgYGBgYGBgYGBgYGBgYGBgYGBzdHA1QAAAAAAA
        AAAAAAAAAAAAAAAAAAAAAAAAAAAAAAAAAAAAAAAAAAAAAAAAAAAAAAAAAAAAAAAAAAAAAAAAAAAAAAAAAABwcm9nGgIAAHByZ3AqAAAAERAyBAADAH8AfwBAAAEAAAAA
        AAAAAAAAAH8AAAAAAAAAAAAAAAAAAAAAcGdubTAAAABBcnAgNGsgU1NhdyAwNyAoWVQgSW50cm8pACB2MQDMzMzMzMzMzMzMzMzMzMzMzMxzdHAwQAAAAAAAAAAAAAAA
        AAAAAAAAAAAAAAAAAAAAAAAAAAAAAAAAAAAAAAAAAAAAAAAAAAAAAAAAAAAAAAAAAAAAAAAAAABzdHAxQAAAAAQICAQICAgIBAgIBAgIBAgICAgICAgICAgICAgICAgI
        CAgICAgICAgICAgICAgICAgICAgICAgICAgICAgICAhzdHAyQAAAAAEBAQEBAQEBAQEBAQEBAQEBAQEBAQEBAQEBAQEBAQEBAQEBAQEBAQEBAQEBAQEBAQEBAQEBAQEB
        AQEBAQEBAQFzdHAzQAAAAAQIEAQQCBAgBCAQBAQIBBAEBAQEBAQEBAQEBAQEBAQEBAQEBAQEBAQEBAQEBAQEBAQEBAQEBAQEBAQEBAQEBARzdHA0QAAAAGBgYGBgYGBg
        YGBgYGBgYGBgYGBgYGBgYGBgYGBgYGBgYGBgYGBgYGBgYGBgYGBgYGBgYGBgYGBgYGBgYGBgYGBzdHA1QAAAAAAAAAAAAAAAAAAAAAAAAAAAAAAAAAAAAAAAAAAAAAAA
        AAAAAAAAAAAAAAAAAAAAAAAAAAAAAAAAAAAAAAAAAABwcm9nGgIAAHByZ3AqAAAAESA9BAADAH8AfwBAAAEAAAAAAAAAAAAAAH8AAAAAAAAAAAAAAAAAAAAAcGdubTAA
        AABBcnAgM2sgU1NhdyAwOCAoMzIgc3RlcHMpACB2MQAAAAAAAAAAAAAAAAAAAAAAAABzdHAwQAAAAAAAAAAAAAAAAAAAAAAAAAAAAAAAAAAAAAAAAAAAAAAAAAAAAAAA
        AAAAAAAAAAAAAAAAAAAAAAAAAAAAAAAAAABzdHAxQAAAAAgECAQIBAgECAQIBAgECAQIBAgECAQIBAgECAQIBAgICAgICAgICAgICAgICAgICAgICAgICAgICAgICAgI
        CAhzdHAyQAAAAAEBAQEBAQEBAQEBAQEBAQEBAQEBAQEBAQEBAQEBAQEBAQEBAQEBAQEBAQEBAQEBAQEBAQEBAQEBAQEBAQEBAQFzdHAzQAAAAAQECAQQBAQECAQQBAQE
        CAQQBAQECAQQBAQECAQQBBAIBAQEBAQEBAQEBAQEBAQEBAQEBAQEBAQEBAQEBAQEBARzdHA0QAAAAGBgYGBgYGBgYGBgYGBgYGBgYGBgYGBgYGBgYGBgYGBgYGBgYGBg
        YGBgYGBgYGBgYGBgYGBgYGBgYGBgYGBgYGBzdHA1QAAAAAAAAAAAAAAAAAAAAAAAAAAAAAAAAAAAAAAAAAAAAAAAAAAAAAAAAAAAAAAAAAAAAAAAAAAAAAAAAAAAAAAA
        AABwcm9nGgIAAHByZ3AqAAAAERBaBAACAH8AfwBAAAEAAAAAAAAAAAAAAH8AAAAAAAAAAAAAAAAAAAAAcGdubTAAAABBcnAgMmsgU1MgMDkgQ29tbXVuaWNhdGlvbiB2
        MQDMzMzMzMzMzMzMzMzMzMzMzMxzdHAwQAAAAAAAAAAAAAAAAAAAAAAAAAAAAAAAAAAAAAAAAAAAAAAAAAAAAAAAAAAAAAAAAAAAAAAAAAAAAAAAAAAAAAAAAABzdHAx
        QAAAAAQECAQECAQECAQECAQECAQICAgICAgICAgICAgICAgICAgICAgICAgICAgICAgICAgICAgICAgICAgICAgICAhzdHAyQAAAAAECAQIBAQIBAQIBAQIBAQIBAQEB
        AQEBAQEBAQEBAQEBAQEBAQEBAQEBAQEBAQEBAQEBAQEBAQEBAQEBAQEBAQFzdHAzQAAAAAQECAQECAQECAQECAQECAQEBAQEBAQEBAQEBAQEBAQEBAQEBAQEBAQEBAQE
        BAQEBAQEBAQEBAQEBAQEBAQEBARzdHA0QAAAAGBgYGBgYGBgYGBgYGBgYGBgYGBgYGBgYGBgYGBgYGBgYGBgYGBgYGBgYGBgYGBgYGBgYGBgYGBgYGBgYGBgYGBzdHA1
        QAAAAAAAAQAAAQAAAQAAAQAAAQAAAAAAAAAAAAAAAAAAAAAAAAAAAAAAAAAAAAAAAAAAAAAAAAAAAAAAAAAAAAAAAABwcm9nGgIAAHByZ3AqAAAAERBQBAACAH8AfwBA
        AAEAAAAAAAAAAAAAAH8AAAAAAAAAAAAAAAAAAAAAcGdubTAAAABBcnAgMmsgU1MgMTAgQ29tbXVuaWNhdGlvbiB2MgDMzMzMzMzMzMzMzMzMzMzMzMxzdHAwQAAAAAAA
        AAAAAAAAAAAAAAAAAAAAAAAAAAAAAAAAAAAAAAAAAAAAAAAAAAAAAAAAAAAAAAAAAAAAAAAAAAAAAAAAAABzdHAxQAAAAAIECAIECAIECAIECAIECAQICAgICAgICAgI
        CAgICAgICAgICAgICAgICAgICAgICAgICAgICAgICAgICAgICAhzdHAyQAAAAAEBAQEBAQEBAQEBAQEBAQEBAQEBAQEBAQEBAQEBAQEBAQEBAQEBAQEBAQEBAQEBAQEB
        AQEBAQEBAQEBAQEBAQFzdHAzQAAAAAQECAQECAQECAQECAQECAQEBAQEBAQEBAQEBAQEBAQEBAQEBAQEBAQEBAQEBAQEBAQEBAQEBAQEBAQEBAQEBARzdHA0QAAAAGBg
        YGBgYGBgYGBgYGBgYGBgYGBgYGBgYGBgYGBgYGBgYGBgYGBgYGBgYGBgYGBgYGBgYGBgYGBgYGBgYGBgYGBzdHA1QAAAAAAAAAAAAAAAAAAAAAAAAAAAAAAAAAAAAAAA
        AAAAAAAAAAAAAAAAAAAAAAAAAAAAAAAAAAAAAAAAAAAAAAAAAABwcm9nGgIAAHByZ3AqAAAAERA9BAABAH8AfwBAAAEAAAAAAAAAAAAAAH8AAAAAAAAAAAAAAAAAAAAA
        cGdubTAAAABBcnAgMmsgU1NhdyAxMSAoU2luZ2xlIGRheSkAAAAAAAAAAAAAAAAAAAAAAAAAAABzdHAwQAAAAAAAAAAAAAAAAAAAAAAAAAAAAAAAAAAAAAAAAAAAAAAA
        AAAAAAAAAAAAAAAAAAAAAAAAAAAAAAAAAAAAAAAAAABzdHAxQAAAAAgCBAgCBAgECAIECAQCCAQIAggCCAIECAIECAIIAgQCCAgICAgICAgICAgICAgICAgICAgICAgI
        CAgICAgICAhzdHAyQAAAAAEBAQEBAQEBAQEBAQEBAQEBAQEBAQEBAQEBAQEBAQEBAQEBAQEBAQEBAQEBAQEBAQEBAQEBAQEBAQEBAQEBAQFzdHAzQAAAAAgEBBAEBBAE
        CAQEEAQEEAQIBAQQBAQQBAQEEAQEEAQEBAQEBAQEBAQEBAQEBAQEBAQEBAQEBAQEBAQEBAQEBARzdHA0QAAAAGBgYGBgYGBgYGBgYGBgYGBgYGBgYGBgYGBgYGBgYGBg
        YGBgYGBgYGBgYGBgYGBgYGBgYGBgYGBgYGBgYGBgYGBzdHA1QAAAAAAAAAAAAAAAAAAAAAAAAAAAAAAAAAAAAAAAAAAAAAAAAAAAAAAAAAAAAAAAAAAAAAAAAAAAAAAA
        AAAAAAAAAABwcm9nGgIAAHByZ3AqAAAAERA1BAADAH8AfwBAAAEAAAAAAAAAAAAAAH8AAAAAAAAAAAAAAAAAAAAAcGdubTAAAABBcnAgMmsgU3VwZXJTYXcgMTIAAGFx
        dWUpAHIxAAAAAAAAAAAAAAAAAAAAAAAAAABzdHAwQAAAAAAAAAAAAAAAAAAAAAAAAAAAAAAAAAAAAAAAAAAAAAAAAAAAAAAAAAAAAAAAAAAAAAAAAAAAAAAAAAAAAAAA
        AABzdHAxQAAAAAgCCAIIAgQIAgQIAggCBAIICAgICAgICAgICAgICAgICAgICAgICAgICAgICAgICAgICAgICAgICAgICAgICAhzdHAyQAAAAAEBAQEBAQEBAQEBAQEB
        AQEBAQEBAQEBAQEBAQEBAQEBAQEBAQEBAQEBAQEBAQEBAQEBAQEBAQEBAQEBAQEBAQFzdHAzQAAAABAECAQIBAQQBAQIBAgEBAQEBAQEBAQEBAQEBAQEBAQEBAQEBAQE
        BAQEBAQEBAQEBAQEBAQEBAQEBAQEBAQEBARzdHA0QAAAAGBgYGBgYGBgYGBgYGBgYGBgYGBgYGBgYGBgYGBgYGBgYGBgYGBgYGBgYGBgYGBgYGBgYGBgYGBgYGBgYGBg
        YGBzdHA1QAAAAAAAAAAAAAAAAAAAAAAAAAAAAAAAAAAAAAAAAAAAAAAAAAAAAAAAAAAAAAAAAAAAAAAAAAAAAAAAAAAAAAAAAABwcm9nGgIAAHByZ3AqAAAAERBkBAAC
        AH8AfwBNAAEAAAkAAAAAAAAAAH8AAAAAAAAAAAAAAAAAAAAAcGdubTAAAABBcnAgNGsgU1NhdyAxMyAocGhyZWFxdWUpAHIxAAAAAAAAAAAAAAAAAAAAAAAAAABzdHAw
        QAAAAAAAAAAAAAAAAAAAAAAAAAAAAAAAAAAAAAAAAAAAAAAAAAAAAAAAAAAAAAAAAAAAAAAAAAAAAAAAAAAAAAAAAABzdHAxQAAAAAQIBAQIBAQEBAgEBAgECAQICAgI
        CAgICAgICAgICAgICAgICAgICAgICAgICAgICAgICAgICAgICAgICAgICAhzdHAyQAAAAAEBAQEBAgEBAgEBAgEBAQEBAQEBAQEBAQEBAQEBAQEBAQEBAQEBAQEBAQEB
        AQEBAQEBAQEBAQEBAQEBAQEBAQFzdHAzQAAAAAQIBCAIBBAEBAgEBAgEEAQEBAQEBAQEBAQEBAQEBAQEBAQEBAQEBAQEBAQEBAQEBAQEBAQEBAQEBAQEBAQEBARzdHA0
        QAAAAHBQQGBQUH9gQFBgYHBgUHBgYGBgYGBgYGBgYGBgYGBgYGBgYGBgYGBgYGBgYGBgYGBgYGBgYGBgYGBgYGBgYGBzdHA1QAAAAAAAAAAAAAAAAAAAAAAAAAAAAAAA
        AAAAAAAAAAAAAAAAAAAAAAAAAAAAAAAAAAAAAAAAAAAAAAAAAAAAAAAAAABwcm9nGgIAAHByZ3AqAAAAERBBBAACAH8AfwBAAAEDAQAAAAAAAAAAAH8BAQAAAAAAAAAA
        AAAAAAAAcGdubTAAAABBcnAgM2sgU1NhdyAxNCBZVCBQZXJmMiB2YXIxAADMzMzMzMzMzMzMzMzMzMzMzMxzdHAwQAAAAAAAAAAAAAAAAAAAAAAAAAAAAAAAAAAAAAAA
        AAAAAAAAAAAAAAAAAAAAAAAAAAAAAAAAAAAAAAAAAAAAAAAAAABzdHAxQAAAAAQIBAQECAQIBAgEBAQIBAgICAgICAgICAgICAgICAgICAgICAgICAgICAgICAgICAgI
        CAgICAgICAgICAgICAhzdHAyQAAAAAEAAQABAQEBAQEBAAEBAQEBAQEBAQEBAQEBAQEBAQEBAQEBAQEBAQEBAQEBAQEBAQEBAQEBAQEBAQEBAQEBAQFzdHAzQAAAABQE
        DAQECAQQBAgEBAQIBAgEBAQEBAQEBAQEBAQEBAQEBAQEBAQEBAQEBAQEBAQEBAQEBAQEBAQEBAQEBAQEBARzdHA0QAAAAGBgYGBgYGBgYGBgYGBgYGBgYGBgYGBgYGBg
        YGBgYGBgYGBgYGBgYGBgYGBgYGBgYGBgYGBgYGBgYGBgYGBgYGBzdHA1QAAAAAAAAAAAAAAAAAAAAAAAAAAAAAAAAAAAAAAAAAAAAAAAAAAAAAAAAAAAAAAAAAAAAAAA
        AAAAAAAAAAAAAAAAAABwcm9nGgIAAHByZ3AqAAAAERBCBAACAH8AfwBAAAEDAQAAAAAAAAAAAH8AAAAAAAAAAAAAAAAAAAAAcGdubTAAAABBcnAgM2sgU1NhdyAxNCBZ
        VCBQZXJmMiB2YXIyAAAAAAAAAAAAAAAAAAAAAAAAAABzdHAwQAAAAAAAAAAAAAAAAAAAAAAAAAAAAAAAAAAAAAAAAAAAAAAAAAAAAAAAAAAAAAAAAAAAAAAAAAAAAAAA
        AAAAAAAAAABzdHAxQAAAAAgECAIECAIIBAgCBAgIAggICAgICAgICAgICAgICAgICAgICAgICAgICAgICAgICAgICAgICAgICAgICAgICAhzdHAyQAAAAAEBAQEBAQEB
        AQEBAQEBAQEBAQEBAQEBAQEBAQEBAQEBAQEBAQEBAQEBAQEBAQEBAQEBAQEBAQEBAQEBAQEBAQFzdHAzQAAAABAECAQECAQQBAgEBAgIBAgEBAQEBAQEBAQEBAQEBAQE
        BAQEBAQEBAQEBAQEBAQEBAQEBAQEBAQEBAQEBAQEBARzdHA0QAAAAGBgYGBgYGBgYGBgYGBgYGBgYGBgYGBgYGBgYGBgYGBgYGBgYGBgYGBgYGBgYGBgYGBgYGBgYGBg
        YGBgYGBgYGBzdHA1QAAAAAAAAAAAAAAAAAAAAAAAAAAAAAAAAAAAAAAAAAAAAAAAAAAAAAAAAAAAAAAAAAAAAAAAAAAAAAAAAAAAAAAAAABwcm9nGgIAAHByZ3AqAAAA
        EQhSBgABAH8AfwBAAAEAAAAACwMAAAAAAH8AAAAAAAAAAAAAAAAAAAAAcGdubTAAAABBcnAgM2sgUGlhbm8gWVQgUGVyZjIAZXllcyB2MQDMzMzMzMzMzMzMzMzMzMzM
        zMxzdHAwQAAAAAAAAAAAAAABAAAAAAAAAAAAAAAAAAAAAAAAAAAAAAAAAAAAAAAAAAAAAAAAAAAAAAAAAAAAAAAAAAAAAAAAAABzdHAxQAAAAAQICAgECAgICAgICAgI
        CAgICAgICAgICAgICAgICAgICAgICAgICAgICAgICAgICAgICAgICAgICAgICAgICAhzdHAyQAAAAAEBAQEBAQEBAQEBAQEBAQEBAQEBAQEBAQEBAQEBAQEBAQEBAQEB
        AQEBAQEBAQEBAQEBAQEBAQEBAQEBAQEBAQFzdHAzQAAAAAQECBAEBAgQBAQEBAQEBAQEBAQEBAQEBAQEBAQEBAQEBAQEBAQEBAQEBAQEBAQEBAQEBAQEBAQEBAQEBAQE
        BARzdHA0QAAAAGBgYGBgYGBgYGBgYGBgYGBgYGBgYGBgYGBgYGBgYGBgYGBgYGBgYGBgYGBgYGBgYGBgYGBgYGBgYGBgYGBgYGBzdHA1QAAAAAIBAQECAQEBAAAAAAAA
        AAAAAAAAAAAAAAAAAAAAAAAAAAAAAAAAAAAAAAAAAAAAAAAAAAAAAAAAAAAAAAAAAABwcm9nGgIAAHByZ3AqAAAAERBGBAADAH8AfwFFAAEAAAAACwMAAAAAAH8AAAAA
        AAAAAAAAAAAAAAAAcGdubTAAAABBcnAgMmsgMTUgU3VuIGluIHlvdXIgZXllcyB2MQAAAAAAAAAAAAAAAAAAAAAAAABzdHAwQAAAAAAEAAAGAAQAAAAAAAAABgAAAAAA
        AAAAAAAAAAAAAAAAAAAAAAAAAAAAAAAAAAAAAAAAAAAAAAAAAAAAAAAAAABzdHAxQAAAAAQIBAQIBAgECAQECAQECAQICAgICAgICAgICAgICAgICAgICAgICAgICAgI
        CAgICAgICAgICAgICAgICAgICAhzdHAyQAAAAAABAAABAAEAAQAAAQAAAQABAQEBAQEBAQEBAQEBAQEBAQEBAQEBAQEBAQEBAQEBAQEBAQEBAQEBAQEBAQEBAQFzdHAz
        QAAAAAgBCAgBCAEIBAgIBAgIAQgEBAQEBAQEBAQEBAQEBAQEBAQEBAQEBAQEBAQEBAQEBAQEBAQEBAQEBAQEBAQEBARzdHA0QAAAAGBgYGBgYGBgYGBgYGBgYGBgYGBg
        YGBgYGBgYGBgYGBgYGBgYGBgYGBgYGBgYGBgYGBgYGBgYGBgYGBgYGBgYGBzdHA1QAAAAAAAAAAAAAAAAAAAAAAAAAAAAAAAAAAAAAAAAAAAAAAAAAAAAAAAAAAAAAAA
        AAAAAAAAAAAAAAAAAAAAAAAAAABwcm9nGgIAAHByZ3AqAAAAERBGBAACAH8AfwBFAAEAAAAACwMAAAAAAH8AAAAAAAAAAAAAAAAAAAAAcGdubTAAAABBcnAgMmsgMTUg
        U3VuIGluIHlvdXIgZXllcyB2MgDMzMzMzMzMzMzMzMzMzMzMzMxzdHAwQAAAAAAEAAAGAAQAAAAAAAAABgAAAAAAAAAAAAAAAAAAAAAAAAAAAAAAAAAAAAAAAAAAAAAA
        AAAAAAAAAAAAAAAAAABzdHAxQAAAAAQIAgQIAggECAIECAIECAIICAgICAgICAgICAgICAgICAgICAgICAgICAgICAgICAgICAgICAgICAgICAgICAhzdHAyQAAAAAEB
        AQEBAQEBAQEBAQEBAQEBAQEBAQEBAQEBAQEBAQEBAQEBAQEBAQEBAQEBAQEBAQEBAQEBAQEBAQEBAQEBAQFzdHAzQAAAAAQBBAQBBAEECAQECAQEAQQEBAQEBAQEBAQE
        BAQEBAQEBAQEBAQEBAQEBAQEBAQEBAQEBAQEBAQEBAQEBAQEBARzdHA0QAAAAGBgYGBgYGBgYGBgYGBgYGBgYGBgYGBgYGBgYGBgYGBgYGBgYGBgYGBgYGBgYGBgYGBg
        YGBgYGBgYGBgYGBgYGBzdHA1QAAAAAAAAAAAAAAAAAAAAAAAAAAAAAAAAAAAAAAAAAAAAAAAAAAAAAAAAAAAAAAAAAAAAAAAAAAAAAAAAAAAAAAAAABwcm9nGgIAAHBy
        Z3AqAAAAEQhQBAAAAH8AfwBAAAEAAAAAAAAAAAAAAH8AAAAAAAAAAAAAAAAAAAAAcGdubTAAAABBcmsgM2sgQXZCIFN0YXJkdXN0AHZhcjIAcjEAzMzMzMzMzMzMzMzM
        zMzMzMzMzMxzdHAwQAAAAAAAAAAAAAAAAAAAAAAAAAAAAAAAAAAAAAAAAAAAAAAAAAAAAAAAAAAAAAAAAAAAAAAAAAAAAAAAAAAAAAAAAABzdHAxQAAAAAgICAgECAgI
        CAgICAgICAgICAgICAgICAgICAgICAgICAgICAgICAgICAgICAgICAgICAgICAgICAgICAgICAhzdHAyQAAAAAEBAQEBAAEAAAAAAAAAAAABAQEBAQEBAQEBAQEBAQEB
        AQEBAQEBAQEBAQEBAQEBAQEBAQEBAQEBAQEBAQEBAQFzdHAzQAAAAAQQCAQEBBAEBAQEBAQEBAQEBAQEBAQEBAQEBAQEBAQEBAQEBAQEBAQEBAQEBAQEBAQEBAQEBAQE
        BAQEBAQEBARzdHA0QAAAAEBgYGBgYGBgYGBgYGBgYGBgYGBgYGBgYGBgYGBgYGBgYGBgYGBgYGBgYGBgYGBgYGBgYGBgYGBgYGBgYGBgYGBzdHA1QAAAAAAAAAAAAAAA
        AAAAAAAAAAAAAAAAAAAAAAAAAAAAAAAAAAAAAAAAAAAAAAAAAAAAAAAAAAAAAAAAAAAAAAAAAABwcm9nGgIAAHByZ3AqAAAAERBQBAEDADUAfwBAAQMDAQAACwMAAAAA
        AH8AAAAAAAAAAAAAAAAAAAAAcGdubTAAAABBcnAgQW0gTWFnaWNTY2FsZXMxIHAxIHZhcjEAAAAAAAAAAAAAAAAAAAAAAAAAAABzdHAwQAAAAAACAwAFBAAAAgAAAgAB
        AAAAAAAAAAAAAAAAAAAAAAAAAAAAAAAAAAAAAAAAAAAAAAAAAAAAAAAAAAAAAAAAAABzdHAxQAAAAAQICAQICAQICAQICAQIBAgICAgICAgICAgICAgICAgICAgICAgI
        CAgICAgICAgICAgICAgICAgICAgICAgICAhzdHAyQAAAAAABAQABAQABAQABAQABAAEBAQEBAQEBAQEBAQEBAQEBAQEBAQEBAQEBAQEBAQEBAQEBAQEBAQEBAQEBAQEB
        AQFzdHAzQAAAAAQICAQICAQICAQICAQIBAgEBAQEBAQEBAQEBAQEBAQEBAQEBAQEBAQEBAQEBAQEBAQEBAQEBAQEBAQEBAQEBARzdHA0QAAAAFxgZGBgYGFhYWFhYV9c
        XGRgYGBgYGBgYGBgYGBgYGBgYGBgYGBgYGBgYGBgYGBgYGBgYGBgYGBgYGBgYGBgYGBzdHA1QAAAAAAAAAAAAAAAAAAAAAAAAAAAAAAAAAAAAAAAAAAAAAAAAAAAAAAA
        AAAAAAAAAAAAAAAAAAAAAAAAAAAAAAAAAABwcm9nGgIAAHByZ3AqAAAAERBGBAEDADUAfwBAAQMDAQAACwMAAAAAAH8AAAAAAAAAAAAAAAAAAAAAcGdubTAAAABBcnAg
        QW0gTWFnaWNTY2FsZXMxIHAxIHZhcjIAAAAAAAAAAAAAAAAAAAAAAAAAAABzdHAwQAAAAAACAwAFBAAAAgAAAgABAAAAAAAAAAAAAAAAAAAAAAAAAAAAAAAAAAAAAAAA
        AAAAAAAAAAAAAAAAAAAAAAAAAABzdHAxQAAAAAQICAQICAQICAQICAQIBAgICAgICAgICAgICAgICAgICAgICAgICAgICAgICAgICAgICAgICAgICAgICAgICAhzdHAy
        QAAAAAEBAQEBAQEBAQEBAQEBAQEBAQEBAQEBAQEBAQEBAQEBAQEBAQEBAQEBAQEBAQEBAQEBAQEBAQEBAQEBAQEBAQFzdHAzQAAAAAQICAQICAQICAQICAQIBAgEBAQE
        BAQEBAQEBAQEBAQEBAQEBAQEBAQEBAQEBAQEBAQEBAQEBAQEBAQEBAQEBARzdHA0QAAAAFxgZGBgYGFhYWFhYV9cXGRgYGBgYGBgYGBgYGBgYGBgYGBgYGBgYGBgYGBg
        YGBgYGBgYGBgYGBgYGBgYGBgYGBzdHA1QAAAAAAAAAAAAAAAAAAAAAAAAAAAAAAAAAAAAAAAAAAAAAAAAAAAAAAAAAAAAAAAAAAAAAAAAAAAAAAAAAAAAAAAAABwcm9n
        GgIAAHByZ3AqAAAAERBKBAECADUAfwBAAQMDAQAACwMAAAAAAH8AAAAAAAAAAAAAAAAAAAAAcGdubTAAAABBcnAgQW0gTWFnaWNTY2FsZXMxIHAyIHZhcjEAAAAAAAAA
        AAAAAAAAAAAAAAAAAABzdHAwQAAAAAAABQAFAAAEAAAFAAcAAAQAAAAAAAAAAAAAAAAAAAAAAAAAAAAAAAAAAAAAAAAAAAAAAAAAAAAAAAAAAAAAAABzdHAxQAAAAAgE
        CAQICAQIBAgIBAgECAgICAgICAgICAgICAgICAgICAgICAgICAgICAgICAgICAgICAgICAgICAgICAgICAhzdHAyQAAAAAEAAQABAQABAAEBAAEAAQEBAQEBAQEBAQEB
        AQEBAQEBAQEBAQEBAQEBAQEBAQEBAQEBAQEBAQEBAQEBAQEBAQFzdHAzQAAAAAQECAQIBAQIBAQIBAgEBAgEBAQEBAQEBAQEBAQEBAQEBAQEBAQEBAQEBAQEBAQEBAQE
        BAQEBAQEBAQEBAQEBARzdHA0QAAAAGBgYWBgXmBgZGBgYGBeYGBgYGBgYGBgYGBgYGBgYGBgYGBgYGBgYGBgYGBgYGBgYGBgYGBgYGBgYGBgYGBgYGBzdHA1QAAAAAAA
        AAAAAAAAAAAAAAAAAAAAAAAAAAAAAAAAAAAAAAAAAAAAAAAAAAAAAAAAAAAAAAAAAAAAAAAAAAAAAAAAAABwcm9nGgIAAHByZ3AqAAAAERBKBAECADUAfwBAAQMDAQAA
        CwMAAAAAAH8AAAAAAAAAAAAAAAAAAAAAcGdubTAAAABBcnAgQW0gTWFnaWNTY2FsZXMxIHAyIHZhcjIAAAB3bmS6GAD4OLQLqDe0C5SysQtzdHAwQAAAAAAABQAFAAAE
        AAAFAAcAAAQAAAAAAAAAAAAAAAAAAAAAAAAAAAAAAAAAAAAAAAAAAAAAAAAAAAAAAAAAAAAAAABzdHAxQAAAAAQECAQIBAQIBAQIBAgEBAgICAgICAgICAgICAgICAgI
        CAgICAgICAgICAgICAgICAgICAgICAgICAgICAgICAhzdHAyQAAAAAEBAQEBAQEBAQEBAQEBAQEBAQEBAQEBAQEBAQEBAQEBAQEBAQEBAQEBAQEBAQEBAQEBAQEBAQEB
        AQEBAQEBAQFzdHAzQAAAAAQECAQIBAQIBAQIBAgEBAgEBAQEBAQEBAQEBAQEBAQEBAQEBAQEBAQEBAQEBAQEBAQEBAQEBAQEBAQEBAQEBARzdHA0QAAAAGBgYWBgXmBg
        ZGBgYGBeYGBgYGBgYGBgYGBgYGBgYGBgYGBgYGBgYGBgYGBgYGBgYGBgYGBgYGBgYGBgYGBgYGBzdHA1QAAAAAAAAAAAAAAAAAAAAAAAAAAAAAAAAAAAAAAAAAAAAAAA
        AAAAAAAAAAAAAAAAAAAAAAAAAAAAAAAAAAAAAAAAAABwcm9nGgIAAHByZ3AqAAAAERBKBAECADUAfwBAAQMDAQAACwMAAAAAAH8AAAAAAAAAAAAAAAAAAAAAcGdubTAA
        AABBcnAgQW0gTWFnaWNTY2FsZXMxIHAzIHZhcjEAAAB3bmS6GAAcQrQLqDe0C5SysQtzdHAwQAAAAAIAAgAGAAUAAAAAAAUAAAAAAAAAAAAAAAAAAAAAAAAAAAAAAAAA
        AAAAAAAAAAAAAAAAAAAAAAAAAAAAAAAAAABzdHAxQAAAAAQICAQIBAgIBAgECAgECAgICAgICAgICAgICAgICAgICAgICAgICAgICAgICAgICAgICAgICAgICAgICAgI
        CAhzdHAyQAAAAAABAQABAAEBAAEAAQEAAQEBAQEBAQEBAQEBAQEBAQEBAQEBAQEBAQEBAQEBAQEBAQEBAQEBAQEBAQEBAQEBAQFzdHAzQAAAAAQECAQIBAgEBAgEBAgE
        BAgEBAQEBAQEBAQEBAQEBAQEBAQEBAQEBAQEBAQEBAQEBAQEBAQEBAQEBAQEBAQEBARzdHA0QAAAAGBgYGBgYGBgYGBgYGBgYGBgYGBgYGBgYGBgYGBgYGBgYGBgYGBg
        YGBgYGBgYGBgYGBgYGBgYGBgYGBgYGBgYGBzdHA1QAAAAAAAAAAAAAAAAAAAAAAAAAAAAAAAAAAAAAAAAAAAAAAAAAAAAAAAAAAAAAAAAAAAAAAAAAAAAAAAAAAAAAAA
        AABwcm9nGgIAAHByZ3AqAAAAERBKBAECADUAfwBAAQMDAQAACwMAAAAAAH8AAAAAAAAAAAAAAAAAAAAAcGdubTAAAABBcnAgQW0gTWFnaWNTY2FsZXMxIHAzIHZhcjIA
        KQB3bmS6GAA9e7QLqDe0C5SysQtzdHAwQAAAAAAAAgAGAAUAAAAAAAUAAAAAAAAAAAAAAAAAAAAAAAAAAAAAAAAAAAAAAAAAAAAAAAAAAAAAAAAAAAAAAAAAAABzdHAx
        QAAAAAQICAQIBAgIBAgECAgECAgICAgICAgICAgICAgICAgICAgICAgICAgICAgICAgICAgICAgICAgICAgICAgICAhzdHAyQAAAAAEBAQEBAQEBAQEBAQEBAQEBAQEB
        AQEBAQEBAQEBAQEBAQEBAQEBAQEBAQEBAQEBAQEBAQEBAQEBAQEBAQEBAQFzdHAzQAAAAAQECAQIBAgEBAgEBAgEBAgEBAQEBAQEBAQEBAQEBAQEBAQEBAQEBAQEBAQE
        BAQEBAQEBAQEBAQEBAQEBAQEBARzdHA0QAAAAGBgYGBgYGBgYGBgYGBgYGBgYGBgYGBgYGBgYGBgYGBgYGBgYGBgYGBgYGBgYGBgYGBgYGBgYGBgYGBgYGBgYGBzdHA1
        QAAAAAAAAAAAAAAAAAAAAAAAAAAAAAAAAAAAAAAAAAAAAAAAAAAAAAAAAAAAAAAAAAAAAAAAAAAAAAAAAAAAAAAAAABwcm9nGgIAAHByZ3AqAAAAERBaBAEDADEAfwAt
        AgEAAAAACwMAAAAAAH8AAAAAAAAAAAAAAAAAAAAAcGdubTAAAABGaXggQW0gTWFnaWNTY2FsZXMyIFNlcTEAcjIAAAB3bmS6GADST7QLqDe0C5SysQtzdHAwQAAAAAUA
        AAADAAQAAAAAAAMABAAAAAAAAAAAAAAAAAAAAAAAAAAAAAAAAAAAAAAAAAAAAAAAAAAAAAAAAAAAAAAAAABzdHAxQAAAAAgICAgICAgICAgICAgICAgICAgICAgICAgI
        CAgICAgICAgICAgICAgICAgICAgICAgICAgICAgICAgICAgICARzdHAyQAAAAAEAAAABAAEAAAABAAEAAQABAQEBAQEBAQEBAQEBAQEBAQEBAQEBAQEBAQEBAQEBAQEB
        AQEBAQEBAQEBAQEBAQFzdHAzQAAAAAEBAQEBAQEBAQEBAQEBAQEEBAQEBAQEBAQEBAQEBAQEBAQEBAQEBAQEBAQEBAQEBAQEBAQEBAQEBAQEBAQEBARzdHA0QAAAAGBg
        YGBgYGBgYGBgYGBgYGBgYGBgYGBgYGBgYGBgYGBgYGBgYGBgYGBgYGBgYGBgYGBgYGBgYGBgYGBgYGBgYGBzdHA1QAAAAAAAAAAAAAAAAAAAAAAAAAAAAAAAAAAAAAAA
        AAAAAAAAAAAAAAAAAAAAAAAAAAAAAAAAAAAAAAAAAAAAAAAAAABwcm9nGgIAAHByZ3AqAAAAESBaBAEBADEAfwAtAgEAAAAACwAAAAAAAH8AAAAAAAAAAAAAAAAAAAAA
        cGdubTAAAABGaXggQW0gTWFnaWNTY2FsZXMyIFNlcTIAcjIAAAAAAAAAAAAAAAAAAAAAAAAAAABzdHAwQAAAAP4AAAADAAMAAAAFAAMA/gD+AAAAAwAAAP7+/gAAAAAA
        AAAAAAAAAAAAAAAAAAAAAAAAAAAAAAAAAAAAAAAAAABzdHAxQAAAAAgICAgICAgICAgICAgICAgICAgICAgICBAQCAgICAgICAgICAgICAgICAgICAgICAgICAgICAgI
        CAgICAgICAhzdHAyQAAAAAEAAQABAAAAAQABAAEAAAABAAEAAQABAAAAAQABAAAAAQEBAQEBAQEBAQEBAQEBAQEBAQEBAQEBAQEBAQEBAQFzdHAzQAAAAAEBAQEBAQEB
        AQEBAQEBAQEBAQEBAQEBAQEBAQEBAQEBBAQEBAQEBAQEBAQEBAQEBAQEBAQEBAQEBAQEBAQEBARzdHA0QAAAAGBgYGBgYGBgYGBgYGBgYGBgYGBgYGBgYGBgYGBgcGBg
        YGBgYGBgYGBgYGBgYGBgYGBgYGBgYGBgYGBgYGBgYGBzdHA1QAAAAAAAAAAAAAAAAAAAAAAAAAAAAAAAAAAAAAAAAAAAAAAAAAAAAAAAAAAAAAAAAAAAAAAAAAAAAAAA
        AAAAAAAAAABwcm9nGgIAAHByZ3AqAAAAERA/BAEBADEAfwA5AAEAAAAACwAAAAAAAH8AAAAAAAAAAAAAAAAAAAAAcGdubTAAAABBcnAgMWsgTWFnaWNTY2FsZXMyIFNl
        cTMAcjIAAG93bgDMzMzMzMzMzMzMzMzMzMxzdHAwQAAAAAAAAAAAAAAAAAAAAAAAAQAAAAAAAAAAAAAAAAAAAAAAAAAAAAAAAAAAAAAAAAAAAAAAAAAAAAAAAAAAAAAA
        AABzdHAxQAAAAAgQEAgICAgQEAgQEAgIEBAICAgICAgICAgICAgICAgICAgICAgICAgICAgICAgICAgICAgICAgICAgICAgICAhzdHAyQAAAAAECAgABAAECAQABAgEA
        AQABAQEBAQEBAQEBAQEBAQEBAQEBAQEBAQEBAQEBAQEBAQEBAQEBAQEBAQEBAQEBAQFzdHAzQAAAAAQEBAQEBAQEBAQEBAQEBAQEBAQEBAQEBAQEBAQEBAQEBAQEBAQE
        BAQEBAQEBAQEBAQEBAQEBAQEBAQEBAQEBARzdHA0QAAAAGBgYGBgYGBgYGBgYGBgYGBgYGBgYGBgYGBgYGBgYGBgYGBgYGBgYGBgYGBgYGBgYGBgYGBgYGBgYGBgYGBg
        YGBzdHA1QAAAAAAAAAAAAAAAAAAAAAAAAAAAAAAAAAAAAAAAAAAAAAAAAAAAAAAAAAAAAAAAAAAAAAAAAAAAAAAAAAAAAAAAAABwcm9nGgIAAHByZ3AqAAAAERBKBAED
        ADEAfwAtAAEAAAAACwMAAAAAAH8AAAAAAAAAAAAAAAAAAAAAcGdubTAAAABBcnAgQW0gTWFnaWNTY2FsZXMyIFNlcTQAcjIAAG93bgDMzMzMzMzMzMzMzMzMzMxzdHAw
        QAAAAAAAAgAA/wMAAAUEAgIAAgAAAAAAAAAAAAAAAAAAAAAAAAAAAAAAAAAAAAAAAAAAAAAAAAAAAAAAAAAAAAAAAABzdHAxQAAAAAgICAgICAgICAgICAgICAgICAgI
        CAgICAgICAgICAgICAgICAgICAgICAgICAgICAgICAgICAgICAgICAgICAJzdHAyQAAAAAEAAQABAAEAAAABAAEAAAABAQEBAQEBAQEBAQEBAQEBAQEBAQEBAQEBAQEB
        AQEBAQEBAQEBAQEBAQEBAQEBAQFzdHAzQAAAAAQEBAQEBAgICAgICAgEBAQEBAQEBAQEBAQEBAQEBAQEBAQEBAQEBAQEBAQEBAQEBAQEBAQEBAQEBAQEBAQEBARzdHA0
        QAAAAGBgYGBgYGBgYGBgYGBgYGBgYGBgYGBgYGBgYGBgYGBgYGBgYGBgYGBgYGBgYGBgYGBgYGBgYGBgYGBgYGBgYGBzdHA1QAAAAAAAAAAAAAAAAAAAAAAAAAAAAAAA
        AAAAAAAAAAAAAAAAAAAAAAAAAAAAAAAAAAAAAAAAAAAAAAAAAAAAAAAAAABwcm9nGgIAAHByZ3AqAAAAESBJBAEDADUAfwBAAQMDAAAACwMBAAEAAH8AAAAAAAAAAAAA
        AAAAAAAAcGdubTAAAABBcnAgQW0gTVNjYWxlczMgcDEgdmFyMQBhcjIAAG93bgDMzMzMzMzMzMzMzMzMzMxzdHAwQAAAAAEAAgAA/gABAAACAAAA/gABAgD+AP4A/gEA
        Av4AAAD+AAAAAAAAAAAAAAAAAAAAAAAAAAAAAAAAAAAAAAAAAABzdHAxQAAAAAgECAgECAQIBAQIBAgECAQICAQIBAgICAgECAgECAQICAgICAgICAgICAgICAgICAgI
        CAgICAgICAgICAgICAhzdHAyQAAAAAEAAQEAAQABAAABAAEAAQABAQABAAEBAQEAAQEAAQABAQEBAQEBAQEBAQEBAQEBAQEBAQEBAQEBAQEBAQEBAQFzdHAzQAAAABAE
        EAgECAQQBAQQBAgECAQQEAQIBAgICBAEEAgECAQIBAQEBAQEBAQEBAQEBAQEBAQEBAQEBAQEBAQEBAQEBARzdHA0QAAAAFFdW2ZOW05fRFNpaltqX1NgYGdcZWJgYFtb
        XU5iYV5mYGBgYGBgYGBgYGBgYGBgYGBgYGBgYGBgYGBgYGBgYGBzdHA1QAAAAAAAAAAAAAAAAAAAAAAAAAAAAAAAAAAAAAAAAAAAAAAAAAAAAAAAAAAAAAAAAAAAAAAA
        AAAAAAAAAAAAAAAAAABwcm9nGgIAAHByZ3AqAAAAESBJBAEDADUAfwBAAQMDAAAACwMBAAEAAH8AAAAAAAAAAAAAAAAAAAAAcGdubTAAAABBcnAgQW0gTVNjYWxlczMg
        cDEgdmFyMgBhcjIAAG93bgDMzMzMzMzMzMzMzMzMzMxzdHAwQAAAAAEAAgAA/gABAAACAAAA/gABAgD+AP4A/gEAAv4AAAD+AAAAAAAAAAAAAAAAAAAAAAAAAAAAAAAA
        AAAAAAAAAABzdHAxQAAAAAgECAgECAQIBAQIBAgECAQICAQIBAgICAgECAgECAQICAgICAgICAgICAgICAgICAgICAgICAgICAgICAgICAhzdHAyQAAAAAEBAQEBAQEB
        AQEBAQEBAQEBAQEBAQEBAQEBAQEBAQEBAQEBAQEBAQEBAQEBAQEBAQEBAQEBAQEBAQEBAQEBAQFzdHAzQAAAABAEEAgECAQQBAQQBAgECAQQEAQIBAgICBAEEAgECAQI
        BAQEBAQEBAQEBAQEBAQEBAQEBAQEBAQEBAQEBAQEBARzdHA0QAAAAFFdW2ZOW05fRFNpaltqX1NgYGdcZWJgYFtbXU5iYV5mYGBgYGBgYGBgYGBgYGBgYGBgYGBgYGBg
        YGBgYGBgYGBzdHA1QAAAAAAAAAAAAAAAAAAAAAAAAAAAAAAAAAAAAAAAAAAAAAAAAAAAAAAAAAAAAAAAAAAAAAAAAAAAAAAAAAAAAAAAAABwcm9nGgIAAHByZ3AqAAAA
        EQxFBAEBADUAfwA5AAMDAAAACwMAAAEAAH8AAAAAAAAAAAAAAAAAAAAAcGdubTAAAABBcnAgQW0gTVNjYWxlczMgcDIgRml4ZWRTZXEAAMzMzMzMzMzMzMzMzMzMzMzM
        zMxzdHAwQAAAAAQFBAIAAAQFBAIAAAAAAAAAAAAAAAAAAAAAAAAAAAAAAAAAAAAAAAAAAAAAAAAAAAAAAAAAAAAAAAAAAAAAAABzdHAxQAAAAAgICAgICAgICAgICAgI
        CAgICAgICAgICAgICAgICAgICAgICAgICAgICAgICAgICAgICAgICAgICAgICAgICAhzdHAyQAAAAAEBAQEBAQEBAQEBAQEBAQEBAQEBAQEBAQEBAQEBAQEBAQEBAQEB
        AQEBAQEBAQEBAQEBAQEBAQEBAQEBAQEBAQFzdHAzQAAAAAEBAQEBBAEBAQEBBAQEBAQEBAQEBAQEBAQEBAQEBAQEBAQEBAQEBAQEBAQEBAQEBAQEBAQEBAQEBAQEBAQE
        BARzdHA0QAAAAGBgUmBgbGBrYGVgU2BgYGBgYGBgYGBgYGBgYGBgYGBgYGBgYGBgYGBgYGBgYGBgYGBgYGBgYGBgYGBgYGBgYGBzdHA1QAAAAAAAAAAAAAAAAAAAAAAA
        AAAAAAAAAAAAAAAAAAAAAAAAAAAAAAAAAAAAAAAAAAAAAAAAAAAAAAAAAAAAAAAAAABwcm9nGgIAAHByZ3AqAAAAESBRBAEDADUAfwAwAQMDAAAACwMBAAEAAH8AAAAA
        AAAAAAAAAAAAAAAAcGdubTAAAABBcnAgQW0gTVNjYWxlczMgRml4ZWRTZXEyADIAAMzMzMzMzMzMzMzMzMzMzMzMzMxzdHAwQAAAAAIABP4AAAD+/wAF/gAAAAQAAAUA
        AAD/AgUCAP4A/gD/AAAAAAAAAAAAAAAAAAAAAAAAAAAAAAAAAAAAAAAAAABzdHAxQAAAAAgECAgECAQICAQICAQIBAgIBAgECAQIBAgIBAgECAgICAgICAgICAgICAgI
        CAgICAgICAgICAgICAgICAgICAhzdHAyQAAAAAEAAQAAAQABAQABAAABAAEAAAEAAQABAAEBAAEAAQEBAQEBAQEBAQEBAQEBAQEBAQEBAQEBAQEBAQEBAQEBAQFzdHAz
        QAAAAAEEAQEEAQQBAQQBAQQBBAEIBAEEAQQBCAEBBAEEAQEBBAQEBAQEBAQEBAQEBAQEBAQEBAQEBAQEBAQEBAQEBARzdHA0QAAAAD9TUkBQTk5NU1NCU1NTR1NEUz5R
        PlFRUFA7UFJSUkRTYGBgYGBgYGBgYGBgYGBgYGBgYGBgYGBgYGBgYGBgYGBzdHA1QAAAAAAAAAAAAAAAAAAAAAAAAAAAAAAAAAAAAAAAAAAAAAAAAAAAAAAAAAAAAAAA
        AAAAAAAAAAAAAAAAAAAAAAAAAABwcm9nGgIAAHByZ3AqAAAAERBaBAEDADUAfwA5AQMDAAAACwMBAAEAAH8AAAAAAAAAAAAAAAAAAAAAcGdubTAAAABBcnAgQW0gTVNj
        YWxlczMgR3VpdGFyU2VxMQAAAMzMzMzMzMzMzMzMzMzMzMzMzMxzdHAwQAAAAAAAAAAAAAACAAD/AAACAgAAAgAAAgICAgEBAQACAgAAAAAAAAAAAAAAAAAAAAAAAAAA
        AAAAAAAAAAAAAAAAAABzdHAxQAAAAAgECAQIBAgECAQIBAgECAQIEAgIEAgQCAgICAgICAgICAgICAgICAgICAgICAgICAgICAgICAgICAgICAgICAhzdHAyQAAAAAEA
        AQABAAEAAQABAAEAAQAAAAAAAAABAgIAAQIBAAAAAQEBAQEBAQEBAQEBAQEBAQEBAQEBAQEBAQEBAQEBAQFzdHAzQAAAAAQECAQEBAgEBAQIBAgEEAQECAEECAEIAQEB
        AQEBAQEEBAQEBAQEBAQEBAQEBAQEBAQEBAQEBAQEBAQEBAQEBARzdHA0QAAAAF1gUWBeYHNgUGBiUWBXa2BgYF5gXVFzYGtgV1FiYFBgYGBgYGBgYGBgYGBgYGBgYGBg
        YGBgYGBgYGBgYGBgYGBzdHA1QAAAAAAAAAAAAAAAAAAAAAAAAAAAAAAAAAAAAAAAAAAAAAAAAAAAAAAAAAAAAAAAAAAAAAAAAAAAAAAAAAAAAAAAAABwcm9nGgIAAHBy
        Z3AqAAAAERAyBgEEADUAfwAtAQMDAAAACwMBAAEAAH8AAAAAAAAAAAAAAAAAAAAAcGdubTAAAABBcnAgQW0gTVNjYWxlczMgR3VpdGFyU2VxMgAAAG93bgDMzMzMzMzM
        zMzMzMzMzMxzdHAwQAAAAAAABAAAAAAAAAAEAAAEAAAAAAAAAAAAAAAAAAAAAAAAAAAAAAAAAAAAAAAAAAAAAAAAAAAAAAAAAAAAAAAAAABzdHAxQAAAAAgQCAgIEAgQ
        EAgIEAgICAgICAgICAgICAgICAgICAgICAgICAgICAgICAgICAgICAgICAgICAgICAgICAgICAhzdHAyQAAAAAEBAQEBAQEBAQEBAQEBAgEBAQEBAQEBAQEBAQEBAQEB
        AQEBAQEBAQEBAQEBAQEBAQEBAQEBAQEBAQEBAQEBAQFzdHAzQAAAAAQIAQQBCAQECAQBCAQBBAQEBAQEBAQEBAQEBAQEBAQEBAQEBAQEBAQEBAQEBAQEBAQEBAQEBAQE
        BAQEBAQEBARzdHA0QAAAAERTTThgSD9WVzpRSTtROU1gYGBgYGBgYGBgYGBgYGBgYGBgYGBgYGBgYGBgYGBgYGBgYGBgYGBgYGBgYGBgYGBzdHA1QAAAAAAAAAAAAAAA
        AAAAAAAAAAAAAAAAAAAAAAAAAAAAAAAAAAAAAAAAAAAAAAAAAAAAAAAAAAAAAAAAAAAAAAAAAABwcm9nGgIAAHByZ3AqAAAAESBaBAEDADUAfwAwAQMDAAAACwMBAAEA
        AH8AAAAAAAAAAAAAAAAAAAAAcGdubTAAAABBcnAgQW0gTVNjYWxlczMgcDQgdmFyMQBhcjIAAG93bgDMzMzMzMzMzMzMzMzMzMxzdHAwQAAAAAIABAAAAAAAAAAFAAAA
        AAQAAAUAAAAAAAUAAP4A/gAAAAAAAAAAAAAAAAAAAAAAAAAAAAAAAAAAAAAAAAAAAABzdHAxQAAAAAgICAgICAgICAgICAgICAgICAgICAgICAgICAgICAgICAgICAgI
        CAgICAgICAgICAgICAgICAgICAgICAgICAhzdHAyQAAAAAEAAQABAAEAAQABAAEAAAEBAAEAAQABAAEAAQAAAQEAAQEBAQEBAQEBAQEBAQEBAQEBAQEBAQEBAQEBAQEB
        AQFzdHAzQAAAAAEEAQQEBAQEAQQBBAQEBAEBBAEEAQQEBAEEBAEEAQQEBAQEBAQEBAQEBAQEBAQEBAQEBAQEBAQEBAQEBAQEBARzdHA0QAAAAFxTY0BcQlxXTlNNU1FT
        R1lhU1NRXFFiUF07XUlSW1JTYGBgYGBgYGBgYGBgYGBgYGBgYGBgYGBgYGBgYGBgYGBzdHA1QAAAAAAAAAAAAAAAAAAAAAAAAAAAAAAAAAAAAAAAAAAAAAAAAAAAAAAA
        AAAAAAAAAAAAAAAAAAAAAAAAAAAAAAAAAABwcm9nGgIAAHByZ3AqAAAAESBaBAEDADUAfwAwAQMDAAAACwMBAAEAAH8AAAAAAAAAAAAAAAAAAAAAcGdubTAAAABBcnAg
        QW0gTVNjYWxlczMgcDQgdmFyMgBhcjIAAG93bgDMzMzMzMzMzMzMzMzMzMxzdHAwQAAAAAIABAAAAAAAAAAFAAAAAAQAAAUAAAAAAAUAAAAA/gAAAAAAAAAAAAAAAAAA
        AAAAAAAAAAAAAAAAAAAAAAAAAABzdHAxQAAAAAgECAQIBAgECAQIBAgEBAgIBAgECAQIBAgECAQECAgECAgICAgICAgICAgICAgICAgICAgICAgICAgICAgICAhzdHAy
        QAAAAAEBAQEBAQEBAQEBAQEBAQEBAQEBAQEBAQEBAQEBAQEBAQEBAQEBAQEBAQEBAQEBAQEBAQEBAQEBAQEBAQEBAQFzdHAzQAAAAAEEAQQEBAQEAQQBBAQEBAEBBAEE
        AQQEBAEEBAQEAQQEBAQEBAQEBAQEBAQEBAQEBAQEBAQEBAQEBAQEBAQEBARzdHA0QAAAAFw/XzRNMUk5XTZbMU47R2NbNVMwWzNXMl0tRTM/YlY6YGBgYGBgYGBgYGBg
        YGBgYGBgYGBgYGBgYGBgYGBgYGBzdHA1QAAAAAAAAAAAAAAAAAAAAAAAAAAAAAAAAAAAAAAAAAAAAAAAAAAAAAAAAAAAAAAAAAAAAAAAAAAAAAAAAAAAAAAAAABwcm9n
        GgIAAHByZ3AqAAAAEQgfBgABAH8AfwBAAAEAAAAAAAAAAAAAAH8AAAAAAAAAAAAAAAAAAAAAcGdubTAAAABBcnAgM2sgQmVsbHMgMDEAZXMxIHA0IHZhcjIAAG93bgDM
        zMzMzMzMzMzMzMzMzMxzdHAwQAAAAAAAAAAAAAAAAAAAAAAAAAAAAAAAAAAAAAAAAAAAAAAAAAAAAAAAAAAAAAAAAAAAAAAAAAAAAAAAAAAAAAAAAABzdHAxQAAAAAgI
        CAgICAgICAgICAgICAgICAgICAgICAgICAgICAgICAgICAgICAgICAgICAgICAgICAgICAgICAgICAgICAhzdHAyQAAAAAEBAQEBAQEBAQEBAQEBAQEBAQEBAQEBAQEB
        AQEBAQEBAQEBAQEBAQEBAQEBAQEBAQEBAQEBAQEBAQEBAQEBAQFzdHAzQAAAABAECAQQBAgEBAQEBAQEBAQEBAQEBAQEBAQEBAQEBAQEBAQEBAQEBAQEBAQEBAQEBAQE
        BAQEBAQEBAQEBAQEBARzdHA0QAAAAGBgYFBgYGBQYGBgYGBgYGBgYGBgYGBgYGBgYGBgYGBgYGBgYGBgYGBgYGBgYGBgYGBgYGBgYGBgYGBgYGBgYGBzdHA1QAAAAAAA
        AAAAAAAAAAAAAAAAAAAAAAAAAAAAAAAAAAAAAAAAAAAAAAAAAAAAAAAAAAAAAAAAAAAAAAAAAAAAAAAAAABwcm9nGgIAAHByZ3AqAAAAEQgfBgABAH8AfwBAAAEAAAAA
        AAAAAAAAAH8AAAAAAAAAAAAAAAAAAAAAcGdubTAAAABBcnAgM2sgQmVsbHMgMDIAZXMxIHA0IHZhcjIAAG93bgDMzMzMzMzMzMzMzMzMzMxzdHAwQAAAAAAAAAAAAAAA
        AAAAAAAAAAAAAAAAAAAAAAAAAAAAAAAAAAAAAAAAAAAAAAAAAAAAAAAAAAAAAAAAAAAAAAAAAABzdHAxQAAAAAgICAgICAgICAgICAgICAgICAgICAgICAgICAgICAgI
        CAgICAgICAgICAgICAgICAgICAgICAgICAgICAgICAhzdHAyQAAAAAEBAQEBAQEBAQEBAQEBAQEBAQEBAQEBAQEBAQEBAQEBAQEBAQEBAQEBAQEBAQEBAQEBAQEBAQEB
        AQEBAQEBAQFzdHAzQAAAABAIBBAIBBAIBAQEBAQEBAQEBAQEBAQEBAQEBAQEBAQEBAQEBAQEBAQEBAQEBAQEBAQEBAQEBAQEBAQEBAQEBARzdHA0QAAAAGBgYGBgYGBg
        YGBgYGBgYGBgYGBgYGBgYGBgYGBgYGBgYGBgYGBgYGBgYGBgYGBgYGBgYGBgYGBgYGBgYGBgYGBzdHA1QAAAAAAAAAAAAAAAAAAAAAAAAAAAAAAAAAAAAAAAAAAAAAAA
        AAAAAAAAAAAAAAAAAAAAAAAAAAAAAAAAAAAAAAAAAABwcm9nGgIAAHByZ3AqAAAAEQhNBgADAH8AfwBNAAEAAAAAAAAAAAAAAH8AAAIAAAAAAAAAAAAAAAAAcGdubTAA
        AABBcnAgMmsgU29mdEJlbGxzIDAxAHA0IHZhcjIAAG93bgDMzMzMzMzMzMzMzMzMzMxzdHAwQAAAAAAAAAAAAAAAAAAAAAAAAAAAAAAAAAAAAAAAAAAAAAAAAAAAAAAA
        AAAAAAAAAAAAAAAAAAAAAAAAAAAAAAAAAABzdHAxQAAAAAQICAgECAgQCAgICAgICAgICAgICAgICAgICAgICAgICAgICAgICAgICAgICAgICAgICAgICAgICAgICAgI
        CAhzdHAyQAAAAAEBAQEBAQEBAQEBAQEBAQEBAQEBAQEBAQEBAQEBAQEBAQEBAQEBAQEBAQEBAQEBAQEBAQEBAQEBAQEBAQEBAQFzdHAzQAAAAAQECBAEBAgEBAQEBAQE
        BAQEBAQEBAQEBAQEBAQEBAQEBAQEBAQEBAQEBAQEBAQEBAQEBAQEBAQEBAQEBAQEBARzdHA0QAAAAGBgYGBgYGBgYGBgYGBgYGBgYGBgYGBgYGBgYGBgYGBgYGBgYGBg
        YGBgYGBgYGBgYGBgYGBgYGBgYGBgYGBgYGBzdHA1QAAAAAAAAAAAAAAAAAAAAAAAAAAAAAAAAAAAAAAAAAAAAAAAAAAAAAAAAAAAAAAAAAAAAAAAAAAAAAAAAAAAAAAA
        AABwcm9nGgIAAHByZ3AqAAAAEQhCBgADAH8AfwBAAAEAAAAAAAAAAAAAAH8AAAIAAAAAAAAAAAAAAAAAcGdubTAAAABBcnAgMmsgU29mdEJlbGxzIDAyAHA0IHZhcjIA
        AG93bgDMzMzMzMzMzMzMzMzMzMxzdHAwQAAAAAAAAAAAAAAAAAAAAAAAAAAAAAAAAAAAAAAAAAAAAAAAAAAAAAAAAAAAAAAAAAAAAAAAAAAAAAAAAAAAAAAAAABzdHAx
        QAAAAAQQCAgEEAgICAgICAgICAgICAgICAgICAgICAgICAgICAgICAgICAgICAgICAgICAgICAgICAgICAgICAgICAhzdHAyQAAAAAEBAQEBAQEBAQEBAQEBAQEBAQEB
        AQEBAQEBAQEBAQEBAQEBAQEBAQEBAQEBAQEBAQEBAQEBAQEBAQEBAQEBAQFzdHAzQAAAAAQEBAgEBAQQBAQEBAQEBAQEBAQEBAQEBAQEBAQEBAQEBAQEBAQEBAQEBAQE
        BAQEBAQEBAQEBAQEBAQEBAQEBARzdHA0QAAAAGBgYGBgYGBgYGBgYGBgYGBgYGBgYGBgYGBgYGBgYGBgYGBgYGBgYGBgYGBgYGBgYGBgYGBgYGBgYGBgYGBgYGBzdHA1
        QAAAAAAAAAAAAAAAAAAAAAAAAAAAAAAAAAAAAAAAAAAAAAAAAAAAAAAAAAAAAAAAAAAAAAAAAAAAAAAAAAAAAAAAAABwcm9nGgIAAHByZ3AqAAAAERBIBAABAH8AfwBA
        AAEAAAAAAAAAAAAAAH8AAAAAAAAAAAAAAAAAAAAAcGdubTAAAABTZXEgMmsgQWNpZE1vbm8gMDEAIHA0IHZhcjIAIDEAbgDMzMzMzMzMzMzMzMzMzMxzdHAwQAAAAAAA
        AAAAAAAAAAAAAAAAAQAAAAAAAAAAAAAAAAAAAAAAAAAAAAAAAAAAAAAAAAAAAAAAAAAAAAAAAAAAAAAAAABzdHAxQAAAAAQIBAQIBAgICAQICAgECAgICAgICAgICAgI
        CAgICAgICAgICAgICAgICAgICAgICAgICAgICAgICAgICAgICAhzdHAyQAAAAAEAAQAAAQMAAQEAAQABAwABAQEBAQEBAQEBAQEBAQEBAQEBAQEBAQEBAQEBAQEBAQEB
        AQEBAQEBAQEBAQEBAQFzdHAzQAAAAAQEBAQEBAQEBAQEBAQEBAQEBAQEBAQEBAQEBAQEBAQEBAQEBAQEBAQEBAQEBAQEBAQEBAQEBAQEBAQEBAQEBARzdHA0QAAAAGBg
        YGBgYGBgYGBgYGBgYGBgYGBgYGBgYGBgYGBgYGBgYGBgYGBgYGBgYGBgYGBgYGBgYGBgYGBgYGBgYGBgYGBzdHA1QAAAAAAAAAAAAAAAAAAAAAAAAAAAAAAAAAAAAAAA
        AAAAAAAAAAAAAAAAAAAAAAAAAAAAAAAAAAAAAAAAAAAAAAAAAABwcm9nGgIAAHByZ3AqAAAAERBCBAACAH8AfwBAAAEAAAAAAAAAAAAAAH8AAAIAAAAAAAAAAAAAAAAA
        cGdubTAAAABTZXEgMmsgQWNpZE1vbm8gMDIAIHA0IHZhcjIAIDEAAAAAAAAAAAAAAAAAAAAAAABzdHAwQAAAAAAAAAAAAAAHAAAAAAAAAAAAAAAAAAAAAAAAAAAAAAAA
        AAAAAAAAAAAAAAAAAAAAAAAAAAAAAAAAAAAAAAAAAABzdHAxQAAAAAQICAQICAgECAQECAQICAQICAgICAgICAgICAgICAgICAgICAgICAgICAgICAgICAgICAgICAgI
        CAgICAgICAhzdHAyQAAAAAEAAAEAAAEDAAEDAAECAQMBAQEBAQEBAQEBAQEBAQEBAQEBAQEBAQEBAQEBAQEBAQEBAQEBAQEBAQEBAQEBAQFzdHAzQAAAAAQEBAQEBAQE
        BAQIBAQEBAgEBAQEBAQEBAQEBAQEBAQEBAQEBAQEBAQEBAQEBAQEBAQEBAQEBAQEBAQEBAQEBARzdHA0QAAAAGBgYGBgYGBgYGBgYGBgYGBgYGBgYGBgYGBgYGBgYGBg
        YGBgYGBgYGBgYGBgYGBgYGBgYGBgYGBgYGBgYGBgYGBzdHA1QAAAAAAAAAAAAAAAAAAAAAAAAAAAAAAAAAAAAAAAAAAAAAAAAAAAAAAAAAAAAAAAAAAAAAAAAAAAAAAA
        AAAAAAAAAABwcm9nGgIAAHByZ3AqAAAAERA6BAABAH8AfwBAAAEAAAAAAAAAAAAAAH8AAAAAAAAAAAAAAAAAAAAAcGdubTAAAABTZXEgMmsgQWNpZE1vbm8gMDMAIHA0
        IHZhcjIAIDEAbgDMzMzMzMzMzMzMzMzMzMxzdHAwQAAAAAAAAAAAAAAAAAAAAAAAAAAAAAAAAAAAAAAAAAAAAAAAAAAAAAAAAAAAAAAAAAAAAAAAAAAAAAAAAAAAAAAA
        AABzdHAxQAAAAAgECBAECAgIBAgICAQIBAgICAgICAgICAgICAgICAgICAgICAgICAgICAgICAgICAgICAgICAgICAgICAgICAhzdHAyQAAAAAEBAQMBAQMDAQMBAwEC
        AQEBAQEBAQEBAQEBAQEBAQEBAQEBAQEBAQEBAQEBAQEBAQEBAQEBAQEBAQEBAQEBAQFzdHAzQAAAAAQEBAQEBAgEBAQECAQEBAgEBAQEBAQEBAQEBAQEBAQEBAQEBAQE
        BAQEBAQEBAQEBAQEBAQEBAQEBAQEBAQEBARzdHA0QAAAAGBgYGBgYGBgYGBgYGBgYGBgYGBgYGBgYGBgYGBgYGBgYGBgYGBgYGBgYGBgYGBgYGBgYGBgYGBgYGBgYGBg
        YGBzdHA1QAAAAAAAAAAAAAAAAAAAAAAAAAAAAAAAAAAAAAAAAAAAAAAAAAAAAAAAAAAAAAAAAAAAAAAAAAAAAAAAAAAAAAAAAABwcm9nGgIAAHByZ3AqAAAAERA6BAAB
        AH8AfwBAAAEAAAAAAAAAAAAAAH8AAAAAAAAAAAAAAAAAAAAAcGdubTAAAABTZXEgMmsgQWNpZE1vbm8gMDQAIHA0IHZhcjIAIDEAbgDMzMzMzMzMzMzMzMzMzMxzdHAw
        QAAAAAAAAAAAAAAAAAAAAAAAAQAAAAAAAAAAAAAAAAAAAAAAAAAAAAAAAAAAAAAAAAAAAAAAAAAAAAAAAAAAAAAAAABzdHAxQAAAAAgQCAQICAQICAgECAQICAQICAgI
        CAgICAgICAgICAgICAgICAgICAgICAgICAgICAgICAgICAgICAgICAgICAhzdHAyQAAAAAEBAwEBAwEDAQMBAQEBAQEBAQEBAQEBAQEBAQEBAQEBAQEBAQEBAQEBAQEB
        AQEBAQEBAQEBAQEBAQEBAQEBAQFzdHAzQAAAAAQEBAQIBAQEBAgEBAQIBAQEBAQEBAQEBAQEBAQEBAQEBAQEBAQEBAQEBAQEBAQEBAQEBAQEBAQEBAQEBAQEBARzdHA0
        QAAAAGBgYGBgYGBgYGBgYGBgYGBgYGBgYGBgYGBgYGBgYGBgYGBgYGBgYGBgYGBgYGBgYGBgYGBgYGBgYGBgYGBgYGBzdHA1QAAAAAAAAAAAAAAAAAAAAAAAAAAAAAAA
        AAAAAAAAAAAAAAAAAAAAAAAAAAAAAAAAAAAAAAAAAAAAAAAAAAAAAAAAAABwcm9nGgIAAHByZ3AqAAAAEQRABAAAAH8AfwBAAAEAAAAAAAAAAAAAAH8AAAAAAAAAAAAA
        AAAAAAAAcGdubTAAAABCYXNzIDFrIFNpbXBsZSAwMQAxIHA0IHZhcjIAIDEAAAAAAAAAAAAAAAAAAAAAAABzdHAwQAAAAAAAAAAAAAAAAAAAAAAAAAAAAAAAAAAAAAAA
        AAAAAAAAAAAAAAAAAAAAAAAAAAAAAAAAAAAAAAAAAAAAAAAAAABzdHAxQAAAAAgIEBAICAgICAgICAgICAgICAgICAgICAgICAgICAgICAgICAgICAgICAgICAgICAgI
        CAgICAgICAgICAgICAhzdHAyQAAAAAECAQEBAQEBAQEBAQEBAQEBAQEBAQEBAQEBAQEBAQEBAQEBAQEBAQEBAQEBAQEBAQEBAQEBAQEBAQEBAQEBAQFzdHAzQAAAAAQE
        BAQEBAQEBAQEBAQEBAQEBAQEBAQEBAQEBAQEBAQEBAQEBAQEBAQEBAQEBAQEBAQEBAQEBAQEBAQEBAQEBARzdHA0QAAAAGBgYGBgYGBgYGBgYGBgYGBgYGBgYGBgYGBg
        YGBgYGBgYGBgYGBgYGBgYGBgYGBgYGBgYGBgYGBgYGBgYGBgYGBzdHA1QAAAAAAAAAAAAAAAAAAAAAAAAAAAAAAAAAAAAAAAAAAAAAAAAAAAAAAAAAAAAAAAAAAAAAAA
        AAAAAAAAAAAAAAAAAABwcm9nGgIAAHByZ3AqAAAAEQRIBAAAAH8AfwBAAAEAAAAAAAAAAAAAAH8AAAAAAAAAAAAAAAAAAAAAcGdubTAAAABCYXNzIDFrIFNpbXBsZSAw
        MgAxIHA0IHZhcjIAIDEAAAAAAAAAAAAAAAAAAAAAAABzdHAwQAAAAAAAAAAAAAAAAAAAAAAAAAAAAAAAAAAAAAAAAAAAAAAAAAAAAAAAAAAAAAAAAAAAAAAAAAAAAAAA
        AAAAAAAAAABzdHAxQAAAAAgIEBAICAgICAgICAgICAgICAgICAgICAgICAgICAgICAgICAgICAgICAgICAgICAgICAgICAgICAgICAgICAhzdHAyQAAAAAEBAQEBAQEB
        AQEBAQEBAQEBAQEBAQEBAQEBAQEBAQEBAQEBAQEBAQEBAQEBAQEBAQEBAQEBAQEBAQEBAQEBAQFzdHAzQAAAAAQEBAQEBAQEBAQEBAQEBAQEBAQEBAQEBAQEBAQEBAQE
        BAQEBAQEBAQEBAQEBAQEBAQEBAQEBAQEBAQEBAQEBARzdHA0QAAAAGBgYGBgYGBgYGBgYGBgYGBgYGBgYGBgYGBgYGBgYGBgYGBgYGBgYGBgYGBgYGBgYGBgYGBgYGBg
        YGBgYGBgYGBzdHA1QAAAAAAAAAAAAAAAAAAAAAAAAAAAAAAAAAAAAAAAAAAAAAAAAAAAAAAAAAAAAAAAAAAAAAAAAAAAAAAAAAAAAAAAAABwcm9nGgIAAHByZ3AqAAAA
        EQRIBAAAAH8AfwBAAAEAAAAAAAAAAAAAAH8AAAAAAAAAAAAAAAAAAAAAcGdubTAAAABCYXNzIDFrIFNpbXBsZSAwMwAxIHA0IHZhcjIAIDEAAAAAAAAAAAAAAAAAAAAA
        AABzdHAwQAAAAAAAAAAAAAAAAAAAAAAAAAAAAAAAAAAAAAAAAAAAAAAAAAAAAAAAAAAAAAAAAAAAAAAAAAAAAAAAAAAAAAAAAABzdHAxQAAAAAgIEBAICAgICAgICAgI
        CAgICAgICAgICAgICAgICAgICAgICAgICAgICAgICAgICAgICAgICAgICAgICAgICAhzdHAyQAAAAAECAQIBAQEBAQEBAQEBAQEBAQEBAQEBAQEBAQEBAQEBAQEBAQEB
        AQEBAQEBAQEBAQEBAQEBAQEBAQEBAQEBAQFzdHAzQAAAAAQEBAQEBAQEBAQEBAQEBAQEBAQEBAQEBAQEBAQEBAQEBAQEBAQEBAQEBAQEBAQEBAQEBAQEBAQEBAQEBAQE
        BARzdHA0QAAAAGBgYGBgYGBgYGBgYGBgYGBgYGBgYGBgYGBgYGBgYGBgYGBgYGBgYGBgYGBgYGBgYGBgYGBgYGBgYGBgYGBgYGBzdHA1QAAAAAAAAAAAAAAAAAAAAAAA
        AAAAAAAAAAAAAAAAAAAAAAAAAAAAAAAAAAAAAAAAAAAAAAAAAAAAAAAAAAAAAAAAAABwcm9nGgIAAHByZ3AqAAAAEQRIBAAAAH8AfwBAAAEAAAAAAAAAAAAAAH8AAAAA
        AAAAAAAAAAAAAAAAcGdubTAAAABCYXNzIDFrIFNpbXBsZSAwNAAxIHA0IHZhcjIAIDEAbgDMzMzMzMzMzMzMzMzMzMxzdHAwQAAAAAAAAAAAAAAAAAAAAAAAAAAAAAAA
        AAAAAAAAAAAAAAAAAAAAAAAAAAAAAAAAAAAAAAAAAAAAAAAAAAAAAAAAAABzdHAxQAAAAAgICAgICAgICAgICAgICAgICAgICAgICAgICAgICAgICAgICAgICAgICAgI
        CAgICAgICAgICAgICAgICAgICAhzdHAyQAAAAAAAAQABAQEBAQEBAQEBAQEBAQEBAQEBAQEBAQEBAQEBAQEBAQEBAQEBAQEBAQEBAQEBAQEBAQEBAQEBAQEBAQFzdHAz
        QAAAAAQEBAQEBAQEBAQEBAQEBAQEBAQEBAQEBAQEBAQEBAQEBAQEBAQEBAQEBAQEBAQEBAQEBAQEBAQEBAQEBAQEBARzdHA0QAAAAGBgYGBgYGBgYGBgYGBgYGBgYGBg
        YGBgYGBgYGBgYGBgYGBgYGBgYGBgYGBgYGBgYGBgYGBgYGBgYGBgYGBgYGBzdHA1QAAAAAAAAAAAAAAAAAAAAAAAAAAAAAAAAAAAAAAAAAAAAAAAAAAAAAAAAAAAAAAA
        AAAAAAAAAAAAAAAAAAAAAAAAAABwcm9nGgIAAHByZ3AqAAAAEQRIBAAAAH8AfwBAAAEAAAAAAAAAAAAAAH8AAAAAAAAAAAAAAAAAAAAAcGdubTAAAABCYXNzIDFrIFNp
        bXBsZSAwNQAxIHA0IHZhcjIAIDEAbgDMzMzMzMzMzMzMzMzMzMxzdHAwQAAAAAAAAAAAAAAAAAAAAAAAAAAAAAAAAAAAAAAAAAAAAAAAAAAAAAAAAAAAAAAAAAAAAAAA
        AAAAAAAAAAAAAAAAAABzdHAxQAAAAAgICAgICAgICAgICAgICAgICAgICAgICAgICAgICAgICAgICAgICAgICAgICAgICAgICAgICAgICAgICAgICAhzdHAyQAAAAAAA
        AQEAAAEAAQEBAQEBAQEBAQEBAQEBAQEBAQEBAQEBAQEBAQEBAQEBAQEBAQEBAQEBAQEBAQEBAQEBAQEBAQFzdHAzQAAAAAQEBAQEBAQEBAQEBAQEBAQEBAQEBAQEBAQE
        BAQEBAQEBAQEBAQEBAQEBAQEBAQEBAQEBAQEBAQEBAQEBAQEBARzdHA0QAAAAGBgYGBgYGBgYGBgYGBgYGBgYGBgYGBgYGBgYGBgYGBgYGBgYGBgYGBgYGBgYGBgYGBg
        YGBgYGBgYGBgYGBgYGBzdHA1QAAAAAAAAAAAAAAAAAAAAAAAAAAAAAAAAAAAAAAAAAAAAAAAAAAAAAAAAAAAAAAAAAAAAAAAAAAAAAAAAAAAAAAAAABwcm9nGgIAAHBy
        Z3AqAAAAEQhkBAABAH8AfwBAAAEAAAAAAAAAAAAAAH8AAAAAAAAAAAAAAAAAAAAAcGdubTAAAABCYXNzIDFrIERyaWZ0IG9mZmJlYXQAIHZhcjIAIDEAAAAAAAAAAAAA
        AAAAAAAAAABzdHAwQAAAAAAAAAAAAAAAAAAAAAAAAAAAAAAAAAAAAAAAAAAAAAAAAAAAAAAAAAAAAAAAAAAAAAAAAAAAAAAAAAAAAAAAAABzdHAxQAAAAAgICAgICAgI
        CAgICAgICAgICAgICAgICAgICAgICAgICAgICAgICAgICAgICAgICAgICAgICAgICAgICAgICAhzdHAyQAAAAAAAAAEAAAECAAAAAQAAAQIBAQEBAQEBAQEBAQEBAQEB
        AQEBAQEBAQEBAQEBAQEBAQEBAQEBAQEBAQEBAQEBAQFzdHAzQAAAAAQEBAQEBAQEBAQEBAQEBAQEBAQEBAQEBAQEBAQEBAQEBAQEBAQEBAQEBAQEBAQEBAQEBAQEBAQE
        BAQEBAQEBARzdHA0QAAAAGBgYGBgYGBgYGBgYGBgYGBgYGBgYGBgYGBgYGBgYGBgYGBgYGBgYGBgYGBgYGBgYGBgYGBgYGBgYGBgYGBgYGBzdHA1QAAAAAAAAAAAAAAA
        AAAAAAAAAAAAAAAAAAAAAAAAAAAAAAAAAAAAAAAAAAAAAAAAAAAAAAAAAAAAAAAAAAAAAAAAAABwcm9nGgIAAHByZ3AqAAAAEQhfBAABAH8AfwBAAAEAAAAAAAAAAAAA
        AH8AAAAAAAAAAAAAAAAAAAAAcGdubTAAAABCYXNzIDFrIFRyaXBsZSBkcmlmdCBvZmZiZWF0IDEAbgDMzMzMzMzMzMzMzMzMzMxzdHAwQAAAAAAAAAAAAAAAAAAAAAAA
        AAAAAAAAAAAAAAAAAAAAAAAAAAAAAAAAAAAAAAAAAAAAAAAAAAAAAAAAAAAAAAAAAABzdHAxQAAAAAgICAgICAgICAgICAgICAgICAgICAgICAgICAgICAgICAgICAgI
        CAgICAgICAgICAgICAgICAgICAgICAgICAhzdHAyQAAAAAABAAEAAAECAQEBAQEBAQEBAQEBAQEBAQEBAQEBAQEBAQEBAQEBAQEBAQEBAQEBAQEBAQEBAQEBAQEBAQEB
        AQFzdHAzQAAAAAQEBAQEBAQEBAQEBAQEBAQEBAQEBAQEBAQEBAQEBAQEBAQEBAQEBAQEBAQEBAQEBAQEBAQEBAQEBAQEBAQEBARzdHA0QAAAAGBgYGBgYGBgYGBgYGBg
        YGBAQEBAQEBAQEBAQEBAQEBAQEBAQEBAQEBAQEBAQEBAQEBAQEBAQEBAQEBAQEBAQEBzdHA1QAAAAAAAAAAAAAAAAAAAAAAAAAAAAAAAAAAAAAAAAAAAAAAAAAAAAAAA
        AAAAAAAAAAAAAAAAAAAAAAAAAAAAAAAAAABwcm9nGgIAAHByZ3AqAAAAERBIBAABAH8AfwBAAAEAAAAAAAAAAAAAAH8AAAAAAAAAAAAAAAAAAAAAcGdubTAAAABCYXNz
        IDFrIFRlY2hubyAwMQBmdCBvZmZiZWF0IDIAbgDMzMzMzMzMzMzMzMzMzMxzdHAwQAAAAAAAAAAAAAAAAAAAAAAAAAAAAAAAAAAAAAAAAAAAAAAAAAAAAAAAAAAAAAAA
        AAAAAAAAAAAAAAAAAAAAAAAAAABzdHAxQAAAAAgICAgICAgICAgICAgICAgICAgICAgICAgICAgICAgICAgICAgICAgICAgICAgICAgICAgICAgICAgICAgICAhzdHAy
        QAAAAAEBAAEBAAEBAAEBAAEAAQABAQEBAQEBAQEBAQEBAQEBAQEBAQEBAQEBAQEBAQEBAQEBAQEBAQEBAQEBAQEBAQFzdHAzQAAAAAQEBAQEBAQEBAQEBAQEBAQEBAQE
        BAQEBAQEBAQEBAQEBAQEBAQEBAQEBAQEBAQEBAQEBAQEBAQEBAQEBAQEBARzdHA0QAAAAGBgYGBgYGBgYGBgYGBgYGBgYGBgYGBgYGBgYGBgYGBgYGBgYGBgYGBgYGBg
        YGBgYGBgYGBgYGBgYGBgYGBgYGBzdHA1QAAAAAAAAAAAAAAAAAAAAAAAAAAAAAAAAAAAAAAAAAAAAAAAAAAAAAAAAAAAAAAAAAAAAAAAAAAAAAAAAAAAAAAAAABwcm9n
        GgIAAHByZ3AqAAAAESBIBAABAH8AfwBAAAEAAAAAAAAAAAAAAH8AAAAAAAAAAAAAAAAAAAAAcGdubTAAAABCYXNzIDFrIFRlY2hubyAwMiAoMzIgc3RlcHMpADIAbgDM
        zMzMzMzMzMzMzMzMzMxzdHAwQAAAAAAAAAAAAAAAAAAAAAAAAAAAAAAAAAAAAAAAAAAAAAAAAAAAAAAAAAAAAAAAAAAAAAAAAAAAAAAAAAAAAAAAAABzdHAxQAAAAAgI
        CAgICAgICAgICAgICAgICAgICAgICAgICAgICAgICAgICAgICAgICAgICAgICAgICAgICAgICAgICAgICAhzdHAyQAAAAAAAAQAAAAEAAAABAAAAAQAAAAEAAAABAAAA
        AQAAAQABAQEBAQEBAQEBAQEBAQEBAQEBAQEBAQEBAQEBAQEBAQFzdHAzQAAAAAQEBAQEBAQEBAQEBAQEBAQEBAQEBAQEBAQEBAQEBAQEBAQEBAQEBAQEBAQEBAQEBAQE
        BAQEBAQEBAQEBAQEBARzdHA0QAAAAGBgYGBgYGBgYGBgYGBgYGBgYGBgYGBgYGBgYGBgYGBgYGBgYGBgYGBgYGBgYGBgYGBgYGBgYGBgYGBgYGBgYGBzdHA1QAAAAAAA
        AAAAAAAAAAAAAAAAAAAAAAAAAAAAAAAAAAAAAAAAAAAAAAAAAAAAAAAAAAAAAAAAAAAAAAAAAAAAAAAAAABwcm9nGgIAAHByZ3AqAAAAERBPBAACAH8AfwBAAAEAAAAA
        AAAAAAAAAH8AAAAAAAAAAAAAAAAAAAAAcGdubTAAAABCYXNzIDJrIFRlY2hubyAwMwBmdCBvZmZiZWF0IDIAbgDMzMzMzMzMzMzMzMzMzMxzdHAwQAAAAAAAAAAAAAAA
        AAAAAAAAAAAAAAAAAAAAAAAAAAAAAAAAAAAAAAAAAAAAAAAAAAAAAAAAAAAAAAAAAAAAAAAAAABzdHAxQAAAAAgICAgICAgICAgICAgICAgICAgICAgICAgICAgICAgI
        CAgICAgICAgICAgICAgICAgICAgICAgICAgICAgICAhzdHAyQAAAAAEBAQEBAAEAAQABAAEAAQABAQEBAQEBAQEBAQEBAQEBAQEBAQEBAQEBAQEBAQEBAQEBAQEBAQEB
        AQEBAQEBAQFzdHAzQAAAAAQEBAQEBAQEBAQEBAQECAQEBAQEBAQEBAQEBAQEBAQEBAQEBAQEBAQEBAQEBAQEBAQEBAQEBAQEBAQEBAQEBARzdHA0QAAAAGBgYGBgYGBg
        YGBgYGBgYGBgYGBgYGBgYGBgYGBgYGBgYGBgYGBgYGBgYGBgYGBgYGBgYGBgYGBgYGBgYGBgYGBzdHA1QAAAAAAAAAAAAAAAAAAAAAAAAAAAAAAAAAAAAAAAAAAAAAAA
        AAAAAAAAAAAAAAAAAAAAAAAAAAAAAAAAAAAAAAAAAABwcm9nGgIAAHByZ3AqAAAAERBBBAAAAH8AfwBAAAEAAAAAAAAAAAAAAH8AAAAAAAoAAAAAAAAAAAAAcGdubTAA
        AABCYXNzIDFrIE1hY2hpbmVndW4AdCBvZmZiZWF0IDIAbgDMzMzMzMzMzMzMzMzMzMxzdHAwQAAAAAAAAAAAAAAAAAAAAAAAAAAAAAAAAAAAAAAAAAAAAAAAAAAAAAAA
        AAAAAAAAAAAAAAAAAAAAAAAAAAAAAAAAAABzdHAxQAAAAAgICAgICAgICAgICAgICAgICAgICAgICAgICAgICAgICAgICAgICAgICAgICAgICAgICAgICAgICAgICAgI
        CAhzdHAyQAAAAAEBAQEBAQEBAAAAAAAAAAABAQEBAQEBAQEBAQEBAQEBAQEBAQEBAQEBAQEBAQEBAQEBAQEBAQEBAQEBAQEBAQFzdHAzQAAAAAQEBAQEBAQEBAQEBAQE
        BAQEBAQEBAQEBAQEBAQEBAQEBAQEBAQEBAQEBAQEBAQEBAQEBAQEBAQEBAQEBAQEBARzdHA0QAAAAHBgYFBgYHBgYGBgYGBgYGBgYGBgYGBgYGBgYGBgYGBgYGBgYGBg
        YGBgYGBgYGBgYGBgYGBgYGBgYGBgYGBgYGBzdHA1QAAAAAAAAAAAAAAAAAAAAAAAAAAAAAAAAAAAAAAAAAAAAAAAAAAAAAAAAAAAAAAAAAAAAAAAAAAAAAAAAAAAAAAA
        AABwcm9nGgIAAHByZ3AqAAAAERBGBAAAAH8AfwBAAAEAAAAAAAAAAAAAAH8AAAAAAA8AAAAAAAAAAAAAcGdubTAAAABCYXNzIDFrIEJpZyBpbiBKYXBhbgBvZmZiZWF0
        IDIAbgDMzMzMzMzMzMzMzMzMzMxzdHAwQAAAAAAAAAAAAAAAAAAAAAAAAAAAAAAAAAAAAAAAAAAAAAAAAAAAAAAAAAAAAAAAAAAAAAAAAAAAAAAAAAAAAAAAAABzdHAx
        QAAAAAgICAgICAgICAgICAgICAgICAgICAgICAgICAgICAgICAgICAgICAgICAgICAgICAgICAgICAgICAgICAgICAhzdHAyQAAAAAEBAAEBAAEBAQEAAQEAAQEBAQEB
        AQEBAQEBAQEBAQEBAQEBAQEBAQEBAQEBAQEBAQEBAQEBAQEBAQEBAQEBAQFzdHAzQAAAAAQEBAQEBAQEBAQEBAQEBAQEBAQEBAQEBAQEBAQEBAQEBAQEBAQEBAQEBAQE
        BAQEBAQEBAQEBAQEBAQEBAQEBARzdHA0QAAAAGBgYGBgYGBgYGBgYGBgYGBgYGBgYGBgYGBgYGBgYGBgYGBgYGBgYGBgYGBgYGBgYGBgYGBgYGBgYGBgYGBgYGBzdHA1
        QAAAAAAAAAAAAAAAAAAAAAAAAAAAAAAAAAAAAAAAAAAAAAAAAAAAAAAAAAAAAAAAAAAAAAAAAAAAAAAAAAAAAAAAAABwcm9nGgIAAHByZ3AqAAAAESBaBAAAAH8AfwBA
        AAEAAAAAAAAAAAAAAH8AAAAAAA8AAAAAAAAAAAAAcGdubTAAAABCYXNzIDFrIEhvdXNlIDAxAGlmdCBvZmZiZWF0IDIAbgDMzMzMzMzMzMzMzMzMzMxzdHAwQAAAAAAA
        AAAAAAAAAAAAAAAAAAAAAAAAAAAAAAAAAAAAAAAAAAAAAAAAAAAAAAAAAAAAAAAAAAAAAAAAAAAAAAAAAABzdHAxQAAAAAgICAgICAgICAgICAgICAgICAgICAgICAgI
        CAgICAgICAgICAgICAgICAgICAgICAgICAgICAgICAgICAgICAhzdHAyQAAAAAEAAAEAAAEAAAEAAAEAAQEBAAABAAABAAABAAABAAEAAQEBAQEBAQEBAQEBAQEBAQEB
        AQEBAQEBAQEBAQEBAQFzdHAzQAAAAAQEBAQEBAQEBAQEBAQEBAQEBAQEBAQEBAQEBAQEBAQEBAQEBAQEBAQEBAQEBAQEBAQEBAQEBAQEBAQEBAQEBARzdHA0QAAAAGBg
        YGBgYGBgYGBgYGBgYGBgYGBgYGBgYGBgYGBgYGBgYGBgYGBgYGBgYGBgYGBgYGBgYGBgYGBgYGBgYGBgYGBzdHA1QAAAAAAAAAAAAAAAAAAAAAAAAAAAAAAAAAAAAAAA
        AAAAAAAAAAAAAAAAAAAAAAAAAAAAAAAAAAAAAAAAAAAAAAAAAABwcm9nGgIAAHByZ3AqAAAAEQhEBgAAAH8AfwBAAAEAAAAAAAAAAAAAAH8AAAAAABcIAAAAAAAAAAAA
        cGdubTAAAABCYXNzIDFrIDh0aCA4MHMgcm5kIHZlbG9jaXR5ADIAbgDMzMzMzMzMzMzMzMzMzMxzdHAwQAAAAAAAAAAAAAAAAAAAAAAAAAAAAAAAAAAAAAAAAAAAAAAA
        AAAAAAAAAAAAAAAAAAAAAAAAAAAAAAAAAAAAAAAAAABzdHAxQAAAAAgICAgICAgICAgICAgICAgICAgICAgICAgICAgICAgICAgICAgICAgICAgICAgICAgICAgICAgI
        CAgICAgICAhzdHAyQAAAAAEBAQEBAQEBAQEBAQEBAQEBAQEBAQEBAQEBAQEBAQEBAQEBAQEBAQEBAQEBAQEBAQEBAQEBAQEBAQEBAQEBAQFzdHAzQAAAAAQEBAQEBAQE
        BAQEBAQEBAQEBAQEBAQEBAQEBAQEBAQEBAQEBAQEBAQEBAQEBAQEBAQEBAQEBAQEBAQEBAQEBARzdHA0QAAAAGBgYGBgYGBgYGBgYGBgYGBgYGBgYGBgYGBgYGBgYGBg
        YGBgYGBgYGBgYGBgYGBgYGBgYGBgYGBgYGBgYGBgYGBzdHA1QAAAAAAAAAAAAAAAAAAAAAAAAAAAAAAAAAAAAAAAAAAAAAAAAAAAAAAAAAAAAAAAAAAAAAAAAAAAAAAA
        AAAAAAAAAABwcm9nGgIAAHByZ3AqAAAAERBaBAACAH8AfwBAAAEAAAAAAAAAAAAAAH8AAAAAABUAAAAAAAAAAAAAcGdubTAAAABCYXNzIDFrIERhbmNlIHdpdGggbWUA
        ZmZiZWF0IDIAbgDMzMzMzMzMzMzMzMzMzMxzdHAwQAAAAAAAAAAAAAAAAAAAAAAAAAAAAAAAAAAAAAAAAAAAAAAAAAAAAAAAAAAAAAAAAAAAAAAAAAAAAAAAAAAAAAAA
        AABzdHAxQAAAAAgICAgICAgICAgICAgICAgICAgICAgICAgICAgICAgICAgICAgICAgICAgICAgICAgICAgICAgICAgICAgICAhzdHAyQAAAAAECAAABAgABAgEBAAEA
        AQABAQEBAQEBAQEBAQEBAQEBAQEBAQEBAQEBAQEBAQEBAQEBAQEBAQEBAQEBAQEBAQFzdHAzQAAAAAQEBAQEBAQEBAQIBAQEBAQEBAQEBAQEBAQEBAQEBAQEBAQEBAQE
        BAQEBAQEBAQEBAQEBAQEBAQEBAQEBAQEBARzdHA0QAAAAGBgYGBgYGBgcGBgYGBgcGBgYGBgYGBgYGBgYGBgYGBgYGBgYGBgYGBgYGBgYGBgYGBgYGBgYGBgYGBgYGBg
        YGBzdHA1QAAAAAAAAAAAAAAAAAAAAAAAAAAAAAAAAAAAAAAAAAAAAAAAAAAAAAAAAAAAAAAAAAAAAAAAAAAAAAAAAAAAAAAAAABwcm9nGgIAAHByZ3AqAAAAESBKBAEB
        ADYAfwBAAAMDAAAAAAAAAAAAJDIAAAAAAAAAAAAAAAAAAAAAcGdubTAAAABCYXNzIDFrIDMyc3QgTVNjYWxlczMAZmZiZWF0IDIAbgDMzMzMzMzMzMzMzMzMzMxzdHAw
        QAAAAAAAAAAAAAAAAAAAAAAAAAAAAAAAAAAAAAAAAAAAAAAAAAAAAAAAAAAAAAAAAAAAAAAAAAAAAAAAAAAAAAAAAABzdHAxQAAAAAgICAgICAgICAgICAgICAgICAgI
        CAgICAgICAgICAgICAgICAgICAgICAgICAgICAgICAgICAgICAgICAgICAhzdHAyQAAAAAEAAAEAAAEAAAEAAAEAAAEAAAEAAAEAAAEAAAEAAAEAAQEBAQEBAQEBAQEB
        AQEBAQEBAQEBAQEBAQEBAQEBAQFzdHAzQAAAAAQEBAQEBAQEBAQEBAQEBAQEBAQEBAQEBAQEBAQEBAQEBAQEBAQEBAQEBAQEBAQEBAQEBAQEBAQEBAQEBAQEBARzdHA0
        QAAAAF1kYG5gYFhgYG9dYGBgUHFgZGBgYGxYYGBga2JgYG9gYGBgYGBgYGBgYGBgYGBgYGBgYGBgYGBgYGBgYGBgYGBzdHA1QAAAAAAAAAAAAAAAAAAAAAAAAAAAAAAA
        AAAAAAAAAAAAAAAAAAAAAAAAAAAAAAAAAAAAAAAAAAAAAAAAAAAAAAAAAABwcm9nGgIAAHByZ3AqAAAAEQhNBAABAH8AfwBAAAEAAAAAAAAAAAAAAH8AAAAAAAAAAAAA
        AAAAAAAAcGdubTAAAABCYXNzIDFrIFRyYW5jZSAwMQBmdCBvZmZiZWF0IDIAAAAAAAAAAAAAAAAAAAAAAABzdHAwQAAAAAAAAAAAAAAAAAAAAAAAAAAAAAAAAAAAAAAA
        AAAAAAAAAAAAAAAAAAAAAAAAAAAAAAAAAAAAAAAAAAAAAAAAAABzdHAxQAAAAAgICAgICAgICAgICAgICAgICAgICAgICAgICAgICAgICAgICAgICAgICAgICAgICAgI
        CAgICAgICAgICAgICAhzdHAyQAAAAAAAAQEAAAEAAQEBAQEBAQEBAQEBAQEBAQEBAQEBAQEBAQEBAQEBAQEBAQEBAQEBAQEBAQEBAQEBAQEBAQEBAQFzdHAzQAAAAAQE
        BAQEBAQEBAQEBAQEBAQEBAQEBAQEBAQEBAQEBAQEBAQEBAQEBAQEBAQEBAQEBAQEBAQEBAQEBAQEBAQEBARzdHA0QAAAAGBgYGBgYGBgYGBgYGBgYGBgYGBgYGBgYGBg
        YGBgYGBgYGBgYGBgYGBgYGBgYGBgYGBgYGBgYGBgYGBgYGBgYGBzdHA1QAAAAAAAAAAAAAAAAAAAAAAAAAAAAAAAAAAAAAAAAAAAAAAAAAAAAAAAAAAAAAAAAAAAAAAA
        AAAAAAAAAAAAAAAAAABwcm9nGgIAAHByZ3AqAAAAEQhDBAABAH8AfwBAAAEAAAAAAAAAAAAAAH8AAAAAAAAAAAAAAAAAAAAAcGdubTAAAABCYXNzIDFrIFRyYW5jZSAw
        MgBmdCBvZmZiZWF0IDIAAAAAAAAAAAAAAAAAAAAAAABzdHAwQAAAAAAAAAAAAAAAAAAAAAAAAAAAAAAAAAAAAAAAAAAAAAAAAAAAAAAAAAAAAAAAAAAAAAAAAAAAAAAA
        AAAAAAAAAABzdHAxQAAAAAgQCBAICBAICAgICAgICAgICAgICAgICAgICAgICAgICAgICAgICAgICAgICAgICAgICAgICAgICAgICAgICAhzdHAyQAAAAAABAQEAAQEB
        AQEBAQEBAQEBAQEBAQEBAQEBAQEBAQEBAQEBAQEBAQEBAQEBAQEBAQEBAQEBAQEBAQEBAQEBAQFzdHAzQAAAAAQEBAQEBAQEBAQEBAQEBAQEBAQEBAQEBAQEBAQEBAQE
        BAQEBAQEBAQEBAQEBAQEBAQEBAQEBAQEBAQEBAQEBARzdHA0QAAAAGBgYGBgYGBgYGBgYGBgYGBgYGBgYGBgYGBgYGBgYGBgYGBgYGBgYGBgYGBgYGBgYGBgYGBgYGBg
        YGBgYGBgYGBzdHA1QAAAAAAAAAAAAAAAAAAAAAAAAAAAAAAAAAAAAAAAAAAAAAAAAAAAAAAAAAAAAAAAAAAAAAAAAAAAAAAAAAAAAAAAAABwcm9nGgIAAHByZ3AqAAAA
        ERAyBAABAH8AfwJAAAEAAAAAAAAAAAAAAH8AAAAAAAAAAAAAAAAAAAAAcGdubTAAAABCYXNzIDJrIFRyYW5jZSAwMwBmdCBvZmZiZWF0IDIAbgDMzMzMzMzMzMzMzMzM
        zMxzdHAwQAAAAAAAAAAAAAAAAAAAAAAAAAAAAAAAAAAAAAAAAAAAAAAAAAAAAAAAAAAAAAAAAAAAAAAAAAAAAAAAAAAAAAAAAABzdHAxQAAAABAIEBAICBAIEAgQEAgI
        EAgICAgICAgICAgICAgICAgICAgICAgICAgICAgICAgICAgICAgICAgICAgICAgICAhzdHAyQAAAAAECAQEBAgEBAQIBAQECAQEBAQEBAQEBAQEBAQEBAQEBAQEBAQEB
        AQEBAQEBAQEBAQEBAQEBAQEBAQEBAQEBAQFzdHAzQAAAAAgEBAQEBAQEBAQEBAQEBAQEBAQEBAQEBAQEBAQEBAQEBAQEBAQEBAQEBAQEBAQEBAQEBAQEBAQEBAQEBAQE
        BARzdHA0QAAAAGBgYGBgYGBgYGBgYGBgYGBgYGBgYGBgYGBgYGBgYGBgYGBgYGBgYGBgYGBgYGBgYGBgYGBgYGBgYGBgYGBgYGBzdHA1QAAAAAAAAAAAAAAAAAAAAAAA
        AAAAAAAAAAAAAAAAAAAAAAAAAAAAAAAAAAAAAAAAAAAAAAAAAAAAAAAAAAAAAAAAAABwcm9nGgIAAHByZ3AqAAAAERBaBAEAADYAfwBAAAMDAQMAAAAAAAAAJjEAAAAA
        AAAAAAAAAAAAAAAAcGdubTAAAABCYXNzIDFrIE1hZ2ljIFNjYWxlcyAxIHZhcjEAIDIAbgDMzMzMzMzMzMzMzMzMzMxzdHAwQAAAAAAAAAAAAAAAAAAAAAAAAAAAAAAA
        AAAAAAAAAAAAAAAAAAAAAAAAAAAAAAAAAAAAAAAAAAAAAAAAAAAAAAAAAABzdHAxQAAAAAgICBAICAgICAgICAgIEAgICAgICAgICAgICAgICAgICAgICAgICAgICAgI
        CAgICAgICAgICAgICAgICAgICAhzdHAyQAAAAAECAQECAAECAAECAAEAAQABAQEBAQEBAQEBAQEBAQEBAQEBAQEBAQEBAQEBAQEBAQEBAQEBAQEBAQEBAQEBAQFzdHAz
        QAAAAAQEBAQEBAQEBAQEBAQEBAQEBAQEBAQEBAQEBAQEBAQEBAQEBAQEBAQEBAQEBAQEBAQEBAQEBAQEBAQEBAQEBARzdHA0QAAAAGBgb2BgYHBgYGBlYG5wYGBgYGBg
        YGBgYGBgYGBgYGBgYGBgYGBgYGBgYGBgYGBgYGBgYGBgYGBgYGBgYGBgYGBzdHA1QAAAAAAAAAAAAAAAAAAAAAAAAAAAAAAAAAAAAAAAAAAAAAAAAAAAAAAAAAAAAAAA
        AAAAAAAAAAAAAAAAAAAAAAAAAABwcm9nGgIAAHByZ3AqAAAAERBaBAEAADYAfwBAAAMDAQAAAAAAAAAAJjEAAAAAAAAAAAAAAAAAAAAAcGdubTAAAABCYXNzIDFrIE1h
        Z2ljIFNjYWxlcyAxIHZhcjIAIDIAbgDMzMzMzMzMzMzMzMzMzMxzdHAwQAAAAAAAAAAAAAAAAAAAAAAAAAAAAAAAAAAAAAAAAAAAAAAAAAAAAAAAAAAAAAAAAAAAAAAA
        AAAAAAAAAAAAAAAAAABzdHAxQAAAAAgICAgICBAICAgICAgICBAICAgICAgICAgICAgICAgICAgICAgICAgICAgICAgICAgICAgICAgICAgICAgICAhzdHAyQAAAAAEA
        AQABAAEBAAEBAAABAAEBAQEBAQEBAQEBAQEBAQEBAQEBAQEBAQEBAQEBAQEBAQEBAQEBAQEBAQEBAQEBAQFzdHAzQAAAAAQEBAQEBAQEBAQEBAQEBAQEBAQEBAQEBAQE
        BAQEBAQEBAQEBAQEBAQEBAQEBAQEBAQEBAQEBAQEBAQEBAQEBARzdHA0QAAAAE5iZGRPYl9rTGBfZ0pgXWtgYGBgYGBgYGBgYGBgYGBgYGBgYGBgYGBgYGBgYGBgYGBg
        YGBgYGBgYGBgYGBgYGBzdHA1QAAAAAAAAAAAAAAAAAAAAAAAAAAAAAAAAAAAAAAAAAAAAAAAAAAAAAAAAAAAAAAAAAAAAAAAAAAAAAAAAAAAAAAAAABwcm9nGgIAAHBy
        Z3AqAAAAERBaBAEBADYAfwBAAAMDAQAAAAAAAAAAJjEAAAAAAAAAAAAAAAAAAAAAcGdubTAAAABCYXNzIDFrIE1hZ2ljIFNjYWxlcyAxIHZhcjMAIDIAbgDMzMzMzMzM
        zMzMzMzMzMxzdHAwQAAAAAAAAAAAAAAAAAAAAAAAAAAAAAAAAAAAAAAAAAAAAAAAAAAAAAAAAAAAAAAAAAAAAAAAAAAAAAAAAAAAAAAAAABzdHAxQAAAAAgICAgQCAgQ
        CAgICBAIEAgICAgICAgICAgICAgICAgICAgICAgICAgICAgICAgICAgICAgICAgICAgICAgICAhzdHAyQAAAAAABAAEAAAEBAAEAAQAAAQABAQEBAQEBAQEBAQEBAQEB
        AQEBAQEBAQEBAQEBAQEBAQEBAQEBAQEBAQEBAQEBAQFzdHAzQAAAAAQEBAQEBAQEBAQEBAQEBAQEBAQEBAQEBAQEBAQEBAQEBAQEBAQEBAQEBAQEBAQEBAQEBAQEBAQE
        BAQEBAQEBARzdHA0QAAAAGBkYGxgYFhgYGBrYGBgUGBgYGBgYGBgYGBgYGBgYGBgYGBgYGBgYGBgYGBgYGBgYGBgYGBgYGBgYGBgYGBgYGBzdHA1QAAAAAAAAAAAAAAA
        AAAAAAAAAAAAAAAAAAAAAAAAAAAAAAAAAAAAAAAAAAAAAAAAAAAAAAAAAAAAAAAAAAAAAAAAAABwcm9nGgIAAHByZ3AqAAAAEQxCBQAAAH8AfwBAAAEAAAAAAAAAAAAA
        AH8AAAAAAAoAAAAAAAAAAAAAcGdubTAAAABCYXNzIDFrIFRyaXBsZXRzIHYxACBvZmZiZWF0IDIAAAAAAAAAAAAAAAAAAAAAAABzdHAwQAAAAAAAAAAAAAAAAAAAAAAA
        AAAAAAAAAAAAAAAAAAAAAAAAAAAAAAAAAAAAAAAAAAAAAAAAAAAAAAAAAAAAAAAAAABzdHAxQAAAAAgICBAIEAgICBAIEAgICAgICAgICAgICAgICAgICAgICAgICAgI
        CAgICAgICAgICAgICAgICAgICAgICAgICAhzdHAyQAAAAAEAAQEAAQEAAQEBAQEBAQEBAQEBAQEBAQEBAQEBAQEBAQEBAQEBAQEBAQEBAQEBAQEBAQEBAQEBAQEBAQEB
        AQFzdHAzQAAAAAQEBAQEBAQEBAQEBAQEBAQEBAQEBAQEBAQEBAQEBAQEBAQEBAQEBAQEBAQEBAQEBAQEBAQEBAQEBAQEBAQEBARzdHA0QAAAAGBgYGBgYGBgYGBgYGBg
        YGBgYGBgYGBgYGBgYGBgYGBgYGBgYGBgYGBgYGBgYGBgYGBgYGBgYGBgYGBgYGBgYGBzdHA1QAAAAAAAAAAAAAAAAAAAAAAAAAAAAAAAAAAAAAAAAAAAAAAAAAAAAAAA
        AAAAAAAAAAAAAAAAAAAAAAAAAAAAAAAAAABwcm9nGgIAAHByZ3AqAAAAEQZCBQAAAH8AfwBAAAEAAAAAAAAAAAAAAH8AAAAAAAAAAAAAAAAAAAAAcGdubTAAAABCYXNz
        IDFrIFRyaXBsZXRzIHYyACBvZmZiZWF0IDIAbgDMzMzMzMzMzMzMzMzMzMxzdHAwQAAAAAAAAAAAAAAAAAAAAAAAAAAAAAAAAAAAAAAAAAAAAAAAAAAAAAAAAAAAAAAA
        AAAAAAAAAAAAAAAAAAAAAAAAAABzdHAxQAAAAAgICBAIEAgICAgICAgICAgICAgICAgICAgICAgICAgICAgICAgICAgICAgICAgICAgICAgICAgICAgICAgICAhzdHAy
        QAAAAAEBAQEBAQEBAQEBAQEBAQEBAQEBAQEBAQEBAQEBAQEBAQEBAQEBAQEBAQEBAQEBAQEBAQEBAQEBAQEBAQEBAQFzdHAzQAAAAAQEBAQEBAQEBAQEBAQEBAQEBAQE
        BAQEBAQEBAQEBAQEBAQEBAQEBAQEBAQEBAQEBAQEBAQEBAQEBAQEBAQEBARzdHA0QAAAAGBgYGBgYGBgYGBgYGBgYGBgYGBgYGBgYGBgYGBgYGBgYGBgYGBgYGBgYGBg
        YGBgYGBgYGBgYGBgYGBgYGBgYGBzdHA1QAAAAAAAAAAAAAAAAAAAAAAAAAAAAAAAAAAAAAAAAAAAAAAAAAAAAAAAAAAAAAAAAAAAAAAAAAAAAAAAAAAAAAAAAABwcm9n
        GgIAAHByZ3AqAAAAEQY+BQAAAH8AfwBAAAEAAAAAAAAAAAAAAH8AAAAAAAgAAAAAAAAAAAAAcGdubTAAAABCYXNzIDFrIFRyaXBsZXRzIHYzACBvZmZiZWF0IDIAbgDM
        zMzMzMzMzMzMzMzMzMxzdHAwQAAAAAAAAAAAAAAAAAAAAAAAAAAAAAAAAAAAAAAAAAAAAAAAAAAAAAAAAAAAAAAAAAAAAAAAAAAAAAAAAAAAAAAAAABzdHAxQAAAAAgI
        EAgIEAgIEAgIEAgIEAgICAgICAgICAgICAgICAgICAgICAgICAgICAgICAgICAgICAgICAgICAgICAgICAhzdHAyQAAAAAEBAQEBAQEBAQEBAQEBAQEBAQEBAQEBAQEB
        AQEBAQEBAQEBAQEBAQEBAQEBAQEBAQEBAQEBAQEBAQEBAQEBAQFzdHAzQAAAAAQEBAQEBAQEBAQEBAQEBAQEBAQEBAQEBAQEBAQEBAQEBAQEBAQEBAQEBAQEBAQEBAQE
        BAQEBAQEBAQEBAQEBARzdHA0QAAAAGBgYGBgYGBgYGBgYGBgYGBgYGBgYGBgYGBgYGBgYGBgYGBgYGBgYGBgYGBgYGBgYGBgYGBgYGBgYGBgYGBgYGBzdHA1QAAAAAAA
        AAAAAAAAAAAAAAAAAAAAAAAAAAAAAAAAAAAAAAAAAAAAAAAAAAAAAAAAAAAAAAAAAAAAAAAAAAAAAAAAAABwcm9nGgIAAHByZ3AqAAAAERBdBAACAH8AfwJAAAEAAAAA
        AAAAAAAAAH8AAAAAAAAAAAAAAAAAAAAAcGdubTAAAABCYXNzIDJrIERNIFF1ZXN0aW9uIG9mIHRpbWUAIDIAbgDMzMzMzMzMzMzMzMzMzMxzdHAwQAAAAAAAAAAAAAAA
        AAAAAAAAAAAAAAAAAAAAAAAAAAAAAAAAAAAAAAAAAAAAAAAAAAAAAAAAAAAAAAAAAAAAAAAAAABzdHAxQAAAAAgICAgICAgICAgICAgICAgICAgICAgICAgICAgICAgI
        CAgICAgICAgICAgICAgICAgICAgICAgICAgICAgICAhzdHAyQAAAAAEAAQABAAEAAQABAAEAAQABAQEBAQEBAQEBAQEBAQEBAQEBAQEBAQEBAQEBAQEBAQEBAQEBAQEB
        AQEBAQEBAQFzdHAzQAAAAAQEBAQEBAQEBAQEBAgEBAQEBAQEBAQEBAQEBAQEBAQEBAQEBAQEBAQEBAQEBAQEBAQEBAQEBAQEBAQEBAQEBARzdHA0QAAAAGBgYGBgYGBg
        YGBgYGBgYGBgYGBgYGBgYGBgYGBgYGBgYGBgYGBgYGBgYGBgYGBgYGBgYGBgYGBgYGBgYGBgYGBzdHA1QAAAAAAAAAAAAAAAAAAAAAAAAAAAAAAAAAAAAAAAAAAAAAAA
        AAAAAAAAAAAAAAAAAAAAAAAAAAAAAAAAAAAAAAAAAABwcm9nGgIAAHByZ3AqAAAAERBRBAABAH8AfwBAAAEAAAAAAAAAAAAAAH8AAAAAAAAAAAAAAAAAAAAAcGdubTAA
        AABCYXNzIDFrIEJlbmFzc2kgLSBJbGx1c2lvbgB0IDIAbgDMzMzMzMzMzMzMzMzMzMxzdHAwQAAAAAAAAAAAAAAAAAAAAAAAAAAAAAAAAAAAAAAAAAAAAAAAAAAAAAAA
        AAAAAAAAAAAAAAAAAAAAAAAAAAAAAAAAAABzdHAxQAAAAAgQCBAQEBAIEBAIEBAQCBAICAgICAgICAgICAgICAgICAgICAgICAgICAgICAgICAgICAgICAgICAgICAgI
        CAhzdHAyQAAAAAEAAQABAgABAAABAAECAQABAQEBAQEBAQEBAQEBAQEBAQEBAQEBAQEBAQEBAQEBAQEBAQEBAQEBAQEBAQEBAQFzdHAzQAAAAAQEBAQEBAQEBAQEBAQE
        BAQEBAQEBAQEBAQEBAQEBAQEBAQEBAQEBAQEBAQEBAQEBAQEBAQEBAQEBAQEBAQEBARzdHA0QAAAAGBgYGBgYGBgYGBgYGBgYGBgYGBgYGBgYGBgYGBgYGBgYGBgYGBg
        YGBgYGBgYGBgYGBgYGBgYGBgYGBgYGBgYGBzdHA1QAAAAAAAAAAAAAAAAAAAAAAAAAAAAAAAAAAAAAAAAAAAAAAAAAAAAAAAAAAAAAAAAAAAAAAAAAAAAAAAAAAAAAAA
        AABwcm9nGgIAAHByZ3AqAAAAERBUBAABAH8AfwBAAAEAAAAAAAAAAAAAAH8AAAAAAAAAAAAAAAAAAAAAcGdubTAAAABCYXNzIDFrIFF1ZWVuIC0gQnJlYWsgZnJlZQB0
        IDIAbgDMzMzMzMzMzMzMzMzMzMxzdHAwQAAAAAAAAAAAAAAAAAAAAAAAAAAAAAAAAAAAAAAAAAAAAAAAAAAAAAAAAAAAAAAAAAAAAAAAAAAAAAAAAAAAAAAAAABzdHAx
        QAAAAAgQCAgQEAgQEBAIEBAQCBAICAgICAgICAgICAgICAgICAgICAgICAgICAgICAgICAgICAgICAgICAgICAgICAhzdHAyQAAAAAEAAQEBAAEAAQABAAEAAQABAQEB
        AQEBAQEBAQEBAQEBAQEBAQEBAQEBAQEBAQEBAQEBAQEBAQEBAQEBAQEBAQFzdHAzQAAAAAQEBAQEBAQEBAQEBAQEBAQEBAQEBAQEBAQEBAQEBAQEBAQEBAQEBAQEBAQE
        BAQEBAQEBAQEBAQEBAQEBAQEBARzdHA0QAAAAGBgYGBgYGBgYGBgYGBgYGBgYGBgYGBgYGBgYGBgYGBgYGBgYGBgYGBgYGBgYGBgYGBgYGBgYGBgYGBgYGBgYGBzdHA1
        QAAAAAAAAAAAAAAAAAAAAAAAAAAAAAAAAAAAAAAAAAAAAAAAAAAAAAAAAAAAAAAAAAAAAAAAAAAAAAAAAAAAAAAAAABwcm9nGgIAAHByZ3AqAAAAESBMBAABAH8AfwBA
        AAEAAAAAAAAAAAAAAH8AAAAAAAAAAAAAAAAAAAAAcGdubTAAAABCYXNzIDFrIFF1ZWVuIC0gTGl2aW5nIG9uIG15IG93bgDMzMzMzMzMzMzMzMzMzMxzdHAwQAAAAAAA
        AAAAAAAAAAAAAAAAAAAAAAAAAAAAAAAAAAAAAAAAAAAAAAAAAAAAAAAAAAAAAAAAAAAAAAAAAAAAAAAAAABzdHAxQAAAAAgIEAgIEAgIEAgIEAgIEAgIECAIECAIECAI
        ECAIECAQCAgICAgICAgICAgICAgICAgICAgICAgICAgICAgICAhzdHAyQAAAAAEAAQABAQABAQABAQABAQABAQEBAQEBAQEBAQEBAQEBAQEBAQEBAQEBAQEBAQEBAQEB
        AQEBAQEBAQEBAQEBAQFzdHAzQAAAAAQEBAQEBAQEBAQEBAQEBAQEBAQEBAQEBAQEBAQEBAQEBAQEBAQEBAQEBAQEBAQEBAQEBAQEBAQEBAQEBAQEBARzdHA0QAAAAGBg
        YGBgYGBgYGBgYGBgYGBgYGBgYGBgYGBgYGBgYGBgYGBgYGBgYGBgYGBgYGBgYGBgYGBgYGBgYGBgYGBgYGBzdHA1QAAAAAAAAAAAAAAAAAAAAAAAAAAAAAAAAAAAAAAA
        AAAAAAAAAAAAAAAAAAAAAAAAAAAAAAAAAAAAAAAAAAAAAAAAAABwcm9nGgIAAHByZ3AqAAAAERAuBAABAH8AfwBAAAEAAAAABgMAAAAAAH8AAAAAAAAAAAAAAAAAAAAA
        cGdubTAAAABTZXEgMWsgRm9yY2VTY2FsZSBFbSAwMQBiZWF0IDIAbgDMzMzMzMzMzMzMzMzMzMxzdHAwQAAAAAAAAgAEAAMAAAIDAAMAAwQAAAAAAAAAAAAAAAAAAAAA
        AAAAAAAAAAAAAAAAAAAAAAAAAAAAAAAAAAAAAAAAAABzdHAxQAAAAAQCCAQIBAgIAggIBAgECAgICAgICAgICAgICAgICAgICAgICAgICAgICAgICAgICAgICAgICAgI
        CAgICAgICAhzdHAyQAAAAAEAAQABAAEBAAEAAQEAAAEBAQEBAQEBAQEBAQEBAQEBAQEBAQEBAQEBAQEBAQEBAQEBAQEBAQEBAQEBAQEBAQFzdHAzQAAAAAQEBAQEBAQE
        BAQEBAQEBAQEBAQEBAQEBAQEBAQEBAQEBAQEBAQEBAQEBAQEBAQEBAQEBAQEBAQEBAQEBAQEBARzdHA0QAAAAGBgYGBgYGBgYGBgYGBgYGBgYGBgYGBgYGBgYGBgYGBg
        YGBgYGBgYGBgYGBgYGBgYGBgYGBgYGBgYGBgYGBgYGBzdHA1QAAAAAAAAAAAAAAAAAAAAAAAAAAAAAAAAAAAAAAAAAAAAAAAAAAAAAAAAAAAAAAAAAAAAAAAAAAAAAAA
        AAAAAAAAAABwcm9nGgIAAHByZ3AqAAAAEQhCBAABAH8AfwBAAAEAAAAABgMAAAAAAH8AAAAAAAAAAAAAAAAAAAAAcGdubTAAAABTZXEgMWsgRm9yY2VTY2FsZSBFbSAw
        MgBiZWF0IDIAbgDMzMzMzMzMzMzMzMzMzMxzdHAwQAAAAAAAAAIAAAQAAAAAAAAAAAAAAAAAAAAAAAAAAAAAAAAAAAAAAAAAAAAAAAAAAAAAAAAAAAAAAAAAAAAAAAAA
        AABzdHAxQAAAAAgIBAgEBAgICAgICAgICAgICAgICAgICAgICAgICAgICAgICAgICAgICAgICAgICAgICAgICAgICAgICAgICAhzdHAyQAAAAAECAQEBAQECAQEBAQEB
        AQEBAQEBAQEBAQEBAQEBAQEBAQEBAQEBAQEBAQEBAQEBAQEBAQEBAQEBAQEBAQEBAQFzdHAzQAAAAAQEBAQEBAQEBAQEBAQEBAQEBAQEBAQEBAQEBAQEBAQEBAQEBAQE
        BAQEBAQEBAQEBAQEBAQEBAQEBAQEBAQEBARzdHA0QAAAAGBgYGBgYGBgYGBgYGBgYGBgYGBgYGBgYGBgYGBgYGBgYGBgYGBgYGBgYGBgYGBgYGBgYGBgYGBgYGBgYGBg
        YGBzdHA1QAAAAAAAAAAAAAAAAAAAAAAAAAAAAAAAAAAAAAAAAAAAAAAAAAAAAAAAAAAAAAAAAAAAAAAAAAAAAAAAAAAAAAAAAABwcm9nGgIAAHByZ3AqAAAAERBHBAAB
        AH8AfwBFAAEAAAAABgMAAAAAAH8AAAAAAAAAAAAAAAAAAAAAcGdubTAAAABTZXEgMWsgRm9yY2VTY2FsZSBFbSAwMwBiZWF0IDIAbgDMzMzMzMzMzMzMzMzMzMxzdHAw
        QAAAAAAAAAIABAAAAAIAAAACAAMAAAAAAAAAAAAAAAAAAAAAAAAAAAAAAAAAAAAAAAAAAAAAAAAAAAAAAAAAAAAAAABzdHAxQAAAAAgICAgICAgICAgICAgICAgICAgI
        CAgICAgICAgICAgICAgICAgICAgICAgICAgICAgICAgICAgICAgICAgICAhzdHAyQAAAAAABAAEAAQAAAQEAAAEBAAEBAQEBAQEBAQEBAQEBAQEBAQEBAQEBAQEBAQEB
        AQEBAQEBAQEBAQEBAQEBAQEBAQFzdHAzQAAAAAQEBAQEBAQEBAQEBAQEBAQEBAQEBAQEBAQEBAQEBAQEBAQEBAQEBAQEBAQEBAQEBAQEBAQEBAQEBAQEBAQEBARzdHA0
        QAAAAGBgYGBgYGBgYGBgYGBgYGBgYGBgYGBgYGBgYGBgYGBgYGBgYGBgYGBgYGBgYGBgYGBgYGBgYGBgYGBgYGBgYGBzdHA1QAAAAAAAAAAAAAAAAAAAAAAAAAAAAAAA
        AAAAAAAAAAAAAAAAAAAAAAAAAAAAAAAAAAAAAAAAAAAAAAAAAAAAAAAAAABwcm9nGgIAAHByZ3AqAAAAERBkBAACAH8AfwBAAAEAAAAABgMAAAAAAH8AAAAAAAAAAAAA
        AAAAAAAAcGdubTAAAABTZXEgMmsgRm9yY2VTY2FsZSBFbSAwNCAoRStHKQAAbgDMzMzMzMzMzMzMzMzMzMxzdHAwQAAAAAAAAAAGAAAAAAAFAAAEAAAAAAAAAAAAAAAA
        AAAAAAAAAAAAAAAAAAAAAAAAAAAAAAAAAAAAAAAAAAAAAAAAAABzdHAxQAAAAAQIBAQIBAQIBAQIBAQIBAgICAgICAgICAgICAgICAgICAgICAgICAgICAgICAgICAgI
        CAgICAgICAgICAgICAhzdHAyQAAAAAEBAAEBAAEBAAEBAAEBAAEBAQEBAQEBAQEBAQEBAQEBAQEBAQEBAQEBAQEBAQEBAQEBAQEBAQEBAQEBAQEBAQFzdHAzQAAAAAQI
        BAQEBAQIBAQIBAQIBAQEBAQEBAQEBAQEBAQEBAQEBAQEBAQEBAQEBAQEBAQEBAQEBAQEBAQEBAQEBAQEBARzdHA0QAAAAGBgYGBgYGBgYGBgYGBgYGBgYGBgYGBgYGBg
        YGBgYGBgYGBgYGBgYGBgYGBgYGBgYGBgYGBgYGBgYGBgYGBgYGBzdHA1QAAAAAAAAAAAAAAAAAAAAAAAAAAAAAAAAAAAAAAAAAAAAAAAAAAAAAAAAAAAAAAAAAAAAAAA
        AAAAAAAAAAAAAAAAAABwcm9nGgIAAHByZ3AqAAAAEQhDBAACAH8AfwBAAAEAAAAAAAAAAAAAAH8AAAAAAAAAAAAAAAAAAAAAcGdubTAAAABTZXEgMmsgSGFybW9uaWMx
        IChBK0MvQyMpAGF0IDIAzMzMzMzMzMzMzMzMzMzMzMxzdHAwQAAAAAAAAAAAAAcAAAAAAAAAAAAAAAAAAAAAAAAAAAAAAAAAAAAAAAAAAAAAAAAAAAAAAAAAAAAAAAAA
        AAAAAAAAAABzdHAxQAAAAAgICAgEBAgICAgICAgICAgICAgICAgICAgICAgICAgICAgICAgICAgICAgICAgICAgICAgICAgICAgICAgICAhzdHAyQAAAAAECAQEBAQEC
        AQEBAQEBAQEBAQEBAQEBAQEBAQEBAQEBAQEBAQEBAQEBAQEBAQEBAQEBAQEBAQEBAQEBAQEBAQFzdHAzQAAAAAQEBAgEBAQEBAQEBAQEBAQEBAQEBAQEBAQEBAQEBAQE
        BAQEBAQEBAQEBAQEBAQEBAQEBAQEBAQEBAQEBAQEBARzdHA0QAAAAGBgYGBgYGBgYGBgYGBgYGBgYGBgYGBgYGBgYGBgYGBgYGBgYGBgYGBgYGBgYGBgYGBgYGBgYGBg
        YGBgYGBgYGBzdHA1QAAAAAAAAAAAAAAAAAAAAAAAAAAAAAAAAAAAAAAAAAAAAAAAAAAAAAAAAAAAAAAAAAAAAAAAAAAAAAAAAAAAAAAAAABwcm9nGgIAAHByZ3AqAAAA
        EQhDBAABAH8AfwBAAAEAAAAAAAAAAAAAAH8AAAAAAAAAAAAAAAAAAAAAcGdubTAAAABTZXEgMmsgSGFybW9uaWMyIChBK0MvQyMpAGF0IDIAzMzMzMzMzMzMzMzMzMzM
        zMxzdHAwQAAAAAAABwUABwUAAAAAAAAAAAAAAAAAAAAAAAAAAAAAAAAAAAAAAAAAAAAAAAAAAAAAAAAAAAAAAAAAAAAAAAAAAABzdHAxQAAAAAQICAgECAgICAgICAgI
        CAgICAgICAgICAgICAgICAgICAgICAgICAgICAgICAgICAgICAgICAgICAgICAgICAhzdHAyQAAAAAEBAQEBAQEBAQEBAQEBAQEBAQEBAQEBAQEBAQEBAQEBAQEBAQEB
        AQEBAQEBAQEBAQEBAQEBAQEBAQEBAQEBAQFzdHAzQAAAAAQIBAgEBAgEBAQEBAQEBAQEBAQEBAQEBAQEBAQEBAQEBAQEBAQEBAQEBAQEBAQEBAQEBAQEBAQEBAQEBAQE
        BARzdHA0QAAAAGBgYGBgYGBgYGBgYGBgYGBgYGBgYGBgYGBgYGBgYGBgYGBgYGBgYGBgYGBgYGBgYGBgYGBgYGBgYGBgYGBgYGBzdHA1QAAAAAAAAAAAAAAAAAAAAAAA
        AAAAAAAAAAAAAAAAAAAAAAAAAAAAAAAAAAAAAAAAAAAAAAAAAAAAAAAAAAAAAAAAAABwcm9nGgIAAHByZ3AqAAAAEQhHBAABAH8AfwBAAAEAAAAAAAAAAAAAAH8AAAAA
        AAAAAAAAAAAAAAAAcGdubTAAAABTZXEgMmsgSGFybW9uaWMzIChBK0MvQyMpAGF0IDIAzMzMzMzMzMzMzMzMzMzMzMxzdHAwQAAAAAAABwcAAAAHAAAAAAAAAAAAAAAA
        AAAAAAAAAAAAAAAAAAAAAAAAAAAAAAAAAAAAAAAAAAAAAAAAAAAAAAAAAABzdHAxQAAAAAQICAgIBAgICAgICAgICAgICAgICAgICAgICAgICAgICAgICAgICAgICAgI
        CAgICAgICAgICAgICAgICAgICAhzdHAyQAAAAAEBAQEBAQEBAQEBAQEBAQEBAQEBAQEBAQEBAQEBAQEBAQEBAQEBAQEBAQEBAQEBAQEBAQEBAQEBAQEBAQEBAQFzdHAz
        QAAAAAQIBAgEBAgEBAQEBAQEBAQEBAQEBAQEBAQEBAQEBAQEBAQEBAQEBAQEBAQEBAQEBAQEBAQEBAQEBAQEBAQEBARzdHA0QAAAAGBgYGBgYGBgYGBgYGBgYGBgYGBg
        YGBgYGBgYGBgYGBgYGBgYGBgYGBgYGBgYGBgYGBgYGBgYGBgYGBgYGBgYGBzdHA1QAAAAAAAAAAAAAAAAAAAAAAAAAAAAAAAAAAAAAAAAAAAAAAAAAAAAAAAAAAAAAAA
        AAAAAAAAAAAAAAAAAAAAAAAAAABwcm9nGgIAAHByZ3AqAAAAEQhCBAABAH8AfwBAAAEAAAAAAAAAAAAAAH8AAAAAAAAAAAAAAAAAAAAAcGdubTAAAABTZXEgMmsgSGFy
        bW9uaWM0IChBK0MvQyMpAGF0IDIAzMzMzMzMzMzMzMzMzMzMzMxzdHAwQAAAAAAAAAcAAAAAAAAAAAAAAAAAAAAAAAAAAAAAAAAAAAAAAAAAAAAAAAAAAAAAAAAAAAAA
        AAAAAAAAAAAAAAAAAABzdHAxQAAAAAgECAgECAQECAgICAgICAgICAgICAgICAgICAgICAgICAgICAgICAgICAgICAgICAgICAgICAgICAgICAgICAhzdHAyQAAAAAEB
        AQEBAQEBAQEBAQEBAQEBAQEBAQEBAQEBAQEBAQEBAQEBAQEBAQEBAQEBAQEBAQEBAQEBAQEBAQEBAQEBAQFzdHAzQAAAAAQECAQECAQEBAQEBAQEBAQEBAQEBAQEBAQE
        BAQEBAQEBAQEBAQEBAQEBAQEBAQEBAQEBAQEBAQEBAQEBAQEBARzdHA0QAAAAGBgYGBgYGBgYGBgYGBgYGBgYGBgYGBgYGBgYGBgYGBgYGBgYGBgYGBgYGBgYGBgYGBg
        YGBgYGBgYGBgYGBgYGBzdHA1QAAAAAAAAAAAAAAAAAAAAAAAAAAAAAAAAAAAAAAAAAAAAAAAAAAAAAAAAAAAAAAAAAAAAAAAAAAAAAAAAAAAAAAAAABwcm9nGgIAAHBy
        Z3AqAAAAESA9BAABAH8AfwBAAAEAAAAAAAAAAAAAAH8AAAAAAAAAAAAAAAAAAAAAcGdubTAAAABTZXEgMmsgS3JhZnR3ZXJrMSAoRCtGKQBiZWF0IDIAzMzMzMzMzMzM
        zMzMzMzMzMxzdHAwQAAAAAAA/v4AAP7+AAAAAAAAAAAAAP7+AAD+/gAAAAAAAAAAAAAAAAAAAAAAAAAAAAAAAAAAAAAAAAAAAAAAAAAAAABzdHAxQAAAAAgICAgICAgI
        CAgICAgICAgICAgICAgICAgIBAQEBAQECAgICAgICAgICAgICAgICAgICAgICAgICAgICAgICAhzdHAyQAAAAAEBAQEBAQEBAQEAAAEBAAABAQEBAQEBAQEBAQEBAQAA
        AQEBAQEBAQEBAQEBAQEBAQEBAQEBAQEBAQEBAQEBAQFzdHAzQAAAAAQEBAQEBAQEBAQEBAgIBAQEBAQEBAQEBAQEBAQEBAQEBAQEBAQEBAQEBAQEBAQEBAQEBAQEBAQE
        BAQEBAQEBARzdHA0QAAAAGBgYGBgYGBgYGBgYGBgYGBgYGBgYGBgYGBgYGBgYGBgYGBgYGBgYGBgYGBgYGBgYGBgYGBgYGBgYGBgYGBgYGBzdHA1QAAAAAAAAAAAAAAA
        AAAAAAAAAAAAAAAAAAAAAAAAAAAAAAAAAAAAAAAAAAAAAAAAAAAAAAAAAAAAAAAAAAAAAAAAAABwcm9nGgIAAHByZ3AqAAAAESBkBAABAH8AfwA+AAEAAAAAAAAAAAAA
        AH8AAAAAAAAAAAAAAAAAAAAAcGdubTAAAABTZXEgMmsgS3JhZnR3ZXJrMiAoQSwgQykAZWF0IDIAzMzMzMzMzMzMzMzMzMzMzMxzdHAwQAAAAAAAAAAAAAAAAwAAAAAA
        AAADAAAABQAKAAcAAAAAAAAAAAAAAAAAAAAAAAAAAAAAAAAAAAAAAAAAAAAAAAAAAABzdHAxQAAAAAgICAgICAgICAgICAgICAgICAgICAgICAgICAgICAgICAgICAgI
        CAgICAgICAgICAgICAgICAgICAgICAgICAhzdHAyQAAAAAEAAAABAAEAAQABAAAAAAABAAAAAQABAAEAAAAAAAAAAQEBAQEBAQEBAQEBAQEBAQEBAQEBAQEBAQEBAQEB
        AQFzdHAzQAAAAAQEBAQEBAQEBAQEBAQEBAQEBAQEBAQEBAQEBAQEBAQEBAQEBAQEBAQEBAQEBAQEBAQEBAQEBAQEBAQEBAQEBARzdHA0QAAAAGBgYGBgYGBgYGBgYGBg
        YGBgYGBgYGBgYGBgYGBgYGBgYGBgYGBgYGBgYGBgYGBgYGBgYGBgYGBgYGBgYGBgYGBzdHA1QAAAAAAAAAAAAAAAAAAAAAAAAAAAAAAAAAAAAAAAAAAAAAAAAAAAAAAA
        AAAAAAAAAAAAAAAAAAAAAAAAAAAAAAAAAABwcm9nGgIAAHByZ3AqAAAAESBkBAABAH8AfwBAAAEAAAAAAAAAAAAAAH8AAAAAAAAAAAAAAAAAAAAAcGdubTAAAABTZXEg
        MmsgS3JhZnR3ZXJrMyAoQStDLCBGK0EpADIAzMzMzMzMzMzMzMzMzMzMzMxzdHAwQAAAAAAAAAAAAPsAAAD7AAAAAAAAAAAAAgAAAAAAAAAAAPsAAAAAAAAAAAAAAAAA
        AAAAAAAAAAAAAAAAAAAAAAAAAABzdHAxQAAAAAgICAgICAgICAgICAgICAgICAgICAgICAgICAgICAgICAgICAgICAgICAgICAgICAgICAgICAgICAgICAgICAhzdHAy
        QAAAAAEAAAABAAEAAQABAAAAAQABAAAAAQABAAAAAAAAAAEAAQEBAQEBAQEBAQEBAQEBAQEBAQEBAQEBAQEBAQEBAQFzdHAzQAAAAAQEBAQEBAQEBAQEBAQEBAQIBAQE
        BAQEBAQEBAQEBAQEBAQEBAQEBAQEBAQEBAQEBAQEBAQEBAQEBAQEBAQEBARzdHA0QAAAAGBgYGBgYGBgYGBgYGBgYGBgYGBgYGBgYGBgYGBgYGBgYGBgYGBgYGBgYGBg
        YGBgYGBgYGBgYGBgYGBgYGBgYGBzdHA1QAAAAAAAAAAAAAAAAAAAAAAAAAAAAAAAAAAAAAAAAAAAAAAAAAAAAAAAAAAAAAAAAAAAAAAAAAAAAAAAAAAAAAAAAABwcm9n
        GgIAAHByZ3AqAAAAEQhaBgAAAH8AfwBAAAEAAAAAAQEAAAAAAH8AAAAAAAAAAAAAAAAAAAAAcGdubTAAAAAzaysgQ2hvcmQtZGVyaXZlZCBTY2FsZSB2MQB0IDIAzMzM
        zMzMzMzMzMzMzMzMzMxzdHAwQAAAAAABAgMEBQYHAAAAAAAAAAAAAAAAAAAAAAAAAAAAAAAAAAAAAAAAAAAAAAAAAAAAAAAAAAAAAAAAAAAAAAAAAABzdHAxQAAAAAgI
        CAgICAgICAgICAgICAgICAgICAgICAgICAgICAgICAgICAgICAgICAgICAgICAgICAgICAgICAgICAgICAhzdHAyQAAAAAEBAQEBAQEBAQEBAQEBAQEBAQEBAQEBAQEB
        AQEBAQEBAQEBAQEBAQEBAQEBAQEBAQEBAQEBAQEBAQEBAQEBAQFzdHAzQAAAAAICAgICAgICAgICAgICAgIEBAQEBAQEBAQEBAQEBAQEBAQEBAQEBAQEBAQEBAQEBAQE
        BAQEBAQEBAQEBAQEBARzdHA0QAAAAGBgYGBgYGBgYGBgYGBgYGBgYGBgYGBgYGBgYGBgYGBgYGBgYGBgYGBgYGBgYGBgYGBgYGBgYGBgYGBgYGBgYGBzdHA1QAAAAAAA
        AAAAAAAAAAAAAAAAAAAAAAAAAAAAAAAAAAAAAAAAAAAAAAAAAAAAAAAAAAAAAAAAAAAAAAAAAAAAAAAAAABwcm9nGgIAAHByZ3AqAAAAERBaBAAAAH8AfwBAAAEAAAAA
        AQEAAAAAAH8AAAAAAAAAAAAAAAAAAAAAcGdubTAAAAAzaysgQ2hvcmQtZGVyaXZlZCBTY2FsZSB2MgB0IDIAzMzMzMzMzMzMzMzMzMzMzMxzdHAwQAAAAAAAAQACAAMA
        BAAFAAYABwAAAAAAAAAAAAAAAAAAAAAAAAAAAAAAAAAAAAAAAAAAAAAAAAAAAAAAAAAAAAAAAABzdHAxQAAAAAQICAgICAgICAgICAgICAgICAgICAgICAgICAgICAgI
        CAgICAgICAgICAgICAgICAgICAgICAgICAgICAgICAhzdHAyQAAAAAEBAQEBAQEBAQEBAQEBAQEBAQEBAQEBAQEBAQEBAQEBAQEBAQEBAQEBAQEBAQEBAQEBAQEBAQEB
        AQEBAQEBAQFzdHAzQAAAAAICAgICAgICAgICAgICAgIEBAQEBAQEBAQEBAQEBAQEBAQEBAQEBAQEBAQEBAQEBAQEBAQEBAQEBAQEBAQEBARzdHA0QAAAAGBgYGBgYGBg
        YGBgYGBgYGBgYGBgYGBgYGBgYGBgYGBgYGBgYGBgYGBgYGBgYGBgYGBgYGBgYGBgYGBgYGBgYGBzdHA1QAAAAAAAAAAAAAAAAAAAAAAAAAAAAAAAAAAAAAAAAAAAAAAA
        AAAAAAAAAAAAAAAAAAAAAAAAAAAAAAAAAAAAAAAAAABwcm9nGgIAAHByZ3AqAAAAERBaBAAAAH8AfwBAAAEAAAAAAQEAAAAAAH8AAAAAAAAAAAAAAAAAAAAAcGdubTAA
        AAAzaysgQ2hvcmQtZGVyaXZlZCBTZXEgMUEAZWF0IDIAzMzMzMzMzMzMzMzMzMzMzMxzdHAwQAAAAAAABQAEAAAFAAQAAAcABAAAAAAAAAAAAAAAAAAAAAAAAAAAAAAA
        AAAAAAAAAAAAAAAAAAAAAAAAAAAAAAAAAABzdHAxQAAAAAQICAQIBAgIBAgECAgECAQICAgICAgICAgICAgICAgICAgICAgICAgICAgICAgICAgICAgICAgICAgICAgI
        CAhzdHAyQAAAAAABAQABAAEBAAEAAQEAAQABAQEBAQEBAQEBAQEBAQEBAQEBAQEBAQEBAQEBAQEBAQEBAQEBAQEBAQEBAQEBAQFzdHAzQAAAAAICAgICAgICAgICAgIC
        AgIEBAQEBAQEBAQEBAQEBAQEBAQEBAQEBAQEBAQEBAQEBAQEBAQEBAQEBAQEBAQEBARzdHA0QAAAAGBgYGBgYGBgYGBgYGBgYGBgYGBgYGBgYGBgYGBgYGBgYGBgYGBg
        YGBgYGBgYGBgYGBgYGBgYGBgYGBgYGBgYGBzdHA1QAAAAAAAAAAAAAAAAAAAAAAAAAAAAAAAAAAAAAAAAAAAAAAAAAAAAAAAAAAAAAAAAAAAAAAAAAAAAAAAAAAAAAAA
        AABwcm9nGgIAAHByZ3AqAAAAERBaBAAAAH8AfwBAAAEAAAAAAQEAAAAAAH8AAAAAAAAAAAAAAAAAAAAAcGdubTAAAAAzaysgQ2hvcmQtZGVyaXZlZCBTZXEgMUIAZWF0
        IDIAzMzMzMzMzMzMzMzMzMzMzMxzdHAwQAAAAAAABQAEAAAFAAQAAAcABAAAAAAAAAAAAAAAAAAAAAAAAAAAAAAAAAAAAAAAAAAAAAAAAAAAAAAAAAAAAAAAAABzdHAx
        QAAAAAQICAQIBAgIBAgECAgECAQICAgICAgICAgICAgICAgICAgICAgICAgICAgICAgICAgICAgICAgICAgICAgICAhzdHAyQAAAAAEBAQEBAQEBAQEBAQEBAQEBAQEB
        AQEBAQEBAQEBAQEBAQEBAQEBAQEBAQEBAQEBAQEBAQEBAQEBAQEBAQEBAQFzdHAzQAAAAAICAgICAgICAgICAgICAgIEBAQEBAQEBAQEBAQEBAQEBAQEBAQEBAQEBAQE
        BAQEBAQEBAQEBAQEBAQEBAQEBARzdHA0QAAAAGBgYGBgYGBgYGBgYGBgYGBgYGBgYGBgYGBgYGBgYGBgYGBgYGBgYGBgYGBgYGBgYGBgYGBgYGBgYGBgYGBgYGBzdHA1
        QAAAAAAAAAAAAAAAAAAAAAAAAAAAAAAAAAAAAAAAAAAAAAAAAAAAAAAAAAAAAAAAAAAAAAAAAAAAAAAAAAAAAAAAAABwcm9nGgIAAHByZ3AqAAAAERBaBAAAAH8AfwBA
        AAEAAAAAAAAAAAAAAH8AAAAAAAAAAAAAAAAAAAAAcGdubTAAAAAtIEluaXRpYWwgcHJvZ3JhbSAtACBvZmZiZWF0IDIAzMzMzMzMzMzMzMzMzMzMzMxzdHAwQAAAAAAA
        AAAAAAAAAAAAAAAAAAAAAAAAAAAAAAAAAAAAAAAAAAAAAAAAAAAAAAAAAAAAAAAAAAAAAAAAAAAAAAAAAABzdHAxQAAAAAgICAgICAgICAgICAgICAgICAgICAgICAgI
        CAgICAgICAgICAgICAgICAgICAgICAgICAgICAgICAgICAgICAhzdHAyQAAAAAEBAQEBAQEBAQEBAQEBAQEBAQEBAQEBAQEBAQEBAQEBAQEBAQEBAQEBAQEBAQEBAQEB
        AQEBAQEBAQEBAQEBAQFzdHAzQAAAAAQEBAQEBAQEBAQEBAQEBAQEBAQEBAQEBAQEBAQEBAQEBAQEBAQEBAQEBAQEBAQEBAQEBAQEBAQEBAQEBAQEBARzdHA0QAAAAGBg
        YGBgYGBgYGBgYGBgYGBgYGBgYGBgYGBgYGBgYGBgYGBgYGBgYGBgYGBgYGBgYGBgYGBgYGBgYGBgYGBgYGBzdHA1QAAAAAAAAAAAAAAAAAAAAAAAAAAAAAAAAAAAAAAA
        AAAAAAAAAAAAAAAAAAAAAAAAAAAAAAAAAAAAAAAAAAAAAAAAAABwcm9nGgIAAHByZ3AqAAAAERBaBAAAAH8AfwBAAAEAAAAAAAAAAAAAAH8AAAAAAAAAAAAAAAAAAAAA
        cGdubTAAAAAtIEluaXRpYWwgcHJvZ3JhbSAtACBvZmZiZWF0IDIAzMzMzMzMzMzMzMzMzMzMzMxzdHAwQAAAAAAAAAAAAAAAAAAAAAAAAAAAAAAAAAAAAAAAAAAAAAAA
        AAAAAAAAAAAAAAAAAAAAAAAAAAAAAAAAAAAAAAAAAABzdHAxQAAAAAgICAgICAgICAgICAgICAgICAgICAgICAgICAgICAgICAgICAgICAgICAgICAgICAgICAgICAgI
        CAgICAgICAhzdHAyQAAAAAEBAQEBAQEBAQEBAQEBAQEBAQEBAQEBAQEBAQEBAQEBAQEBAQEBAQEBAQEBAQEBAQEBAQEBAQEBAQEBAQEBAQFzdHAzQAAAAAQEBAQEBAQE
        BAQEBAQEBAQEBAQEBAQEBAQEBAQEBAQEBAQEBAQEBAQEBAQEBAQEBAQEBAQEBAQEBAQEBAQEBARzdHA0QAAAAGBgYGBgYGBgYGBgYGBgYGBgYGBgYGBgYGBgYGBgYGBg
        YGBgYGBgYGBgYGBgYGBgYGBgYGBgYGBgYGBgYGBgYGBzdHA1QAAAAAAAAAAAAAAAAAAAAAAAAAAAAAAAAAAAAAAAAAAAAAAAAAAAAAAAAAAAAAAAAAAAAAAAAAAAAAAA
        AAAAAAAAAABwcm9nGgIAAHByZ3AqAAAAERBaBAAAAH8AfwBAAAEAAAAAAAAAAAAAAH8AAAAAAAAAAAAAAAAAAAAAcGdubTAAAAAtIEluaXRpYWwgcHJvZ3JhbSAtACBv
        ZmZiZWF0IDIAAAAAAAAAAAAAAAAAAAAAAABzdHAwQAAAAAAAAAAAAAAAAAAAAAAAAAAAAAAAAAAAAAAAAAAAAAAAAAAAAAAAAAAAAAAAAAAAAAAAAAAAAAAAAAAAAAAA
        AABzdHAxQAAAAAgICAgICAgICAgICAgICAgICAgICAgICAgICAgICAgICAgICAgICAgICAgICAgICAgICAgICAgICAgICAgICAhzdHAyQAAAAAEBAQEBAQEBAQEBAQEB
        AQEBAQEBAQEBAQEBAQEBAQEBAQEBAQEBAQEBAQEBAQEBAQEBAQEBAQEBAQEBAQEBAQFzdHAzQAAAAAQEBAQEBAQEBAQEBAQEBAQEBAQEBAQEBAQEBAQEBAQEBAQEBAQE
        BAQEBAQEBAQEBAQEBAQEBAQEBAQEBAQEBARzdHA0QAAAAGBgYGBgYGBgYGBgYGBgYGBgYGBgYGBgYGBgYGBgYGBgYGBgYGBgYGBgYGBgYGBgYGBgYGBgYGBgYGBgYGBg
        YGBzdHA1QAAAAAAAAAAAAAAAAAAAAAAAAAAAAAAAAAAAAAAAAAAAAAAAAAAAAAAAAAAAAAAAAAAAAAAAAAAAAAAAAAAAAAAAAABwcm9nGgIAAHByZ3AqAAAAERBaBAEA
        ADUAfwBAAAEDAQAAAAAAAAAAAH8AAAAAAAAAAAAAAAAAAAAAcGdubTAAAAAtIEluaXRpYWwgcHJvZ3JhbSAtACBvZmZiZWF0IDIAzMzMzMzMzMzMzMzMzMzMzMxzdHAw
        QAAAAAAAAAAAAAAAAAAAAAAAAAAAAAAAAAAAAAAAAAAAAAAAAAAAAAAAAAAAAAAAAAAAAAAAAAAAAAAAAAAAAAAAAABzdHAxQAAAAAgICAgICAgICAgICAgICAgICAgI
        CAgICAgICAgICAgICAgICAgICAgICAgICAgICAgICAgICAgICAgICAgICAhzdHAyQAAAAAEBAQEBAQEBAQEBAQEBAQEBAQEBAQEBAQEBAQEBAQEBAQEBAQEBAQEBAQEB
        AQEBAQEBAQEBAQEBAQEBAQEBAQFzdHAzQAAAAAQEBAQEBAQEBAQEBAQEBAQEBAQEBAQEBAQEBAQEBAQEBAQEBAQEBAQEBAQEBAQEBAQEBAQEBAQEBAQEBAQEBARzdHA0
        QAAAAGBgYGBgYGBgYGBgYGBgYGBgYGBgYGBgYGBgYGBgYGBgYGBgYGBgYGBgYGBgYGBgYGBgYGBgYGBgYGBgYGBgYGBzdHA1QAAAAAAAAAAAAAAAAAAAAAAAAAAAAAAA
        AAAAAAAAAAAAAAAAAAAAAAAAAAAAAAAAAAAAAAAAAAAAAAAAAAAAAAAAAABwcm9nGgIAAHByZ3AqAAAAERBaBAAAAH8AfwBAAAEAAAAAAAAAAAAAAH8AAAAAAAAAAAAA
        AAAAAAAAcGdubTAAAAAtIEluaXRpYWwgcHJvZ3JhbSAtACBvZmZiZWF0IDIAAAAAAAAAAAAAAAAAAAAAAABzdHAwQAAAAAAAAAAAAAAAAAAAAAAAAAAAAAAAAAAAAAAA
        AAAAAAAAAAAAAAAAAAAAAAAAAAAAAAAAAAAAAAAAAAAAAAAAAABzdHAxQAAAAAgICAgICAgICAgICAgICAgICAgICAgICAgICAgICAgICAgICAgICAgICAgICAgICAgI
        CAgICAgICAgICAgICAhzdHAyQAAAAAEBAQEBAQEBAQEBAQEBAQEBAQEBAQEBAQEBAQEBAQEBAQEBAQEBAQEBAQEBAQEBAQEBAQEBAQEBAQEBAQEBAQFzdHAzQAAAAAQE
        BAQEBAQEBAQEBAQEBAQEBAQEBAQEBAQEBAQEBAQEBAQEBAQEBAQEBAQEBAQEBAQEBAQEBAQEBAQEBAQEBARzdHA0QAAAAGBgYGBgYGBgYGBgYGBgYGBgYGBgYGBgYGBg
        YGBgYGBgYGBgYGBgYGBgYGBgYGBgYGBgYGBgYGBgYGBgYGBgYGBzdHA1QAAAAAAAAAAAAAAAAAAAAAAAAAAAAAAAAAAAAAAAAAAAAAAAAAAAAAAAAAAAAAAAAAAAAAAA
        AAAAAAAAAAAAAAAAAABwcm9nGgIAAHByZ3AqAAAAERBaBAEAADUAfwBAAAEDAQAAAAAAAAAAAH8AAAAAAAAAAAAAAAAAAAAAcGdubTAAAAAtIEluaXRpYWwgcHJvZ3Jh
        bSAtACBvZmZiZWF0IDIAzMzMzMzMzMzMzMzMzMzMzMxzdHAwQAAAAAAAAAAAAAAAAAAAAAAAAAAAAAAAAAAAAAAAAAAAAAAAAAAAAAAAAAAAAAAAAAAAAAAAAAAAAAAA
        AAAAAAAAAABzdHAxQAAAAAgICAgICAgICAgICAgICAgICAgICAgICAgICAgICAgICAgICAgICAgICAgICAgICAgICAgICAgICAgICAgICAhzdHAyQAAAAAEBAQEBAQEB
        AQEBAQEBAQEBAQEBAQEBAQEBAQEBAQEBAQEBAQEBAQEBAQEBAQEBAQEBAQEBAQEBAQEBAQEBAQFzdHAzQAAAAAQEBAQEBAQEBAQEBAQEBAQEBAQEBAQEBAQEBAQEBAQE
        BAQEBAQEBAQEBAQEBAQEBAQEBAQEBAQEBAQEBAQEBARzdHA0QAAAAGBgYGBgYGBgYGBgYGBgYGBgYGBgYGBgYGBgYGBgYGBgYGBgYGBgYGBgYGBgYGBgYGBgYGBgYGBg
        YGBgYGBgYGBzdHA1QAAAAAAAAAAAAAAAAAAAAAAAAAAAAAAAAAAAAAAAAAAAAAAAAAAAAAAAAAAAAAAAAAAAAAAAAAAAAAAAAAAAAAAAAABwcm9nGgIAAHByZ3AqAAAA
        ERBaBAAAAH8AfwBAAAEAAAAAAAAAAAAAAH8AAAAAAAAAAAAAAAAAAAAAcGdubTAAAAAtIEluaXRpYWwgcHJvZ3JhbSAtAAAAAAAAAAAAAAAAAAAAAAAAAAAAAAAAAAAA
        AABzdHAwQAAAAAAAAAAAAAAAAAAAAAAAAAAAAAAAAAAAAAAAAAAAAAAAAAAAAAAAAAAAAAAAAAAAAAAAAAAAAAAAAAAAAAAAAABzdHAxQAAAAAgICAgICAgICAgICAgI
        CAgICAgICAgICAgICAgICAgICAgICAgICAgICAgICAgICAgICAgICAgICAgICAgICAhzdHAyQAAAAAEBAQEBAQEBAQEBAQEBAQEBAQEBAQEBAQEBAQEBAQEBAQEBAQEB
        AQEBAQEBAQEBAQEBAQEBAQEBAQEBAQEBAQFzdHAzQAAAAAQEBAQEBAQEBAQEBAQEBAQEBAQEBAQEBAQEBAQEBAQEBAQEBAQEBAQEBAQEBAQEBAQEBAQEBAQEBAQEBAQE
        BARzdHA0QAAAAGBgYGBgYGBgYGBgYGBgYGBgYGBgYGBgYGBgYGBgYGBgYGBgYGBgYGBgYGBgYGBgYGBgYGBgYGBgYGBgYGBgYGBzdHA1QAAAAAAAAAAAAAAAAAAAAAAA
        AAAAAAAAAAAAAAAAAAAAAAAAAAAAAAAAAAAAAAAAAAAAAAAAAAAAAAAAAAAAAAAAAAAAU2ltcGxlIDNrIFVwLURvd24gNCBiZWF0cwAQAAAA
      >
      PRESETNAME "Simple 3k Up-Down 4 beats"
      FLOATPOS 0 0 0 0
      FXID {E0B5EE70-9C63-49E9-9038-DE1EC3FC3327}
      WAK 0 0
      BYPASS 0 0 0
      <VST "VSTi: ReaSynth (Cockos)" reasynth.dll 0 "" 1919251321<5653547265737972656173796E746800> ""
        eXNlcu9e7f4AAAAAAgAAAAEAAAAAAAAAAgAAAAAAAABEAAAAAAAAAAAAEAA=
        776t3g3wrd7iZAw/thGWPdNNIj+DwEo+IbDyPvhqvj9rIYs8AAAAAAAAAD9h4iM/nu/nPn9q/D4AAAAAjZ/0OwAAAAA=
        AFByb2dyYW0gMQAQAAAA
      >
      PRESETNAME "Program 1"
      FLOATPOS 0 0 0 0
      FXID {7BB10FFF-7F99-494D-B9A9-A186AD09E560}
      WAK 0 0
    >
    <ITEM
      POSITION 0
      SNAPOFFS 0
      LENGTH 7.22791666666667
      LOOP 1
      ALLTAKES 0
      FADEIN 1 0 0 1 0 0 0
      FADEOUT 1 0 0 1 0 0 0
      MUTE 0 0
      SEL 0
      IGUID {BD6D5222-3E77-452E-913F-DBF938D662C4}
      IID 16
      NAME "05-Piano-Recorded MIDI"
      VOLPAN 1 0 1 -1
      SOFFS 0 0
      PLAYRATE 1 1 0 -1 0 0.0025
      CHANMODE 0
      TAKECOLOR 30867176 R
      GUID {66CA49A8-6510-4A4F-9D57-22B92DA432C9}
      RECPASS 3
      <SOURCE MIDI
        HASDATA 1 960 QN
        CCINTERP 32
        POOLEDEVTS {7D259EBE-3554-4E73-BAAA-D2CE392C6CDA}
        E 1348 90 41 27
        E 11 90 3e 2d
        E 16 90 3b 20
        E 13495 90 3b 00
        E 16 90 3e 00
        E 89 90 41 00
        E 2372 b0 7b 00
        CCINTERP 32
        CHASE_CC_TAKEOFFS 1
        GUID {F40380D5-CF61-489A-A7A9-A12775844FCB}
        IGNTEMPO 0 120 4 4
        SRCCOLOR 32
        VELLANE -1 100 0
      >
    >
  >
  <TRACK {A53FD35E-31C1-4540-BA4D-0EEA853D494E}
    NAME ""
    PEAKCOL 16576
    BEAT -1
    AUTOMODE 0
    VOLPAN 1 0 -1 -1 1
    MUTESOLO 0 0 0
    IPHASE 0
    PLAYOFFS 0 1
    ISBUS 0 0
    BUSCOMP 0 0 0 0 0
    SHOWINMIX 1 0.6667 0.5 1 0.5 -1 -1 -1
    FREEMODE 0
    SEL 0
    REC 0 0 1 0 0 0 0
    VU 2
    TRACKHEIGHT 0 0 0 0 0 0
    INQ 0 0 0 0.5 100 0 0 100
    NCHAN 2
    FX 1
    TRACKID {A53FD35E-31C1-4540-BA4D-0EEA853D494E}
    PERF 0
    MIDIOUT -1
    MAINSEND 1 0
    <ITEM
      POSITION 0
      SNAPOFFS 0
      LENGTH 7.22791666666667
      LOOP 1
      ALLTAKES 0
      FADEIN 1 0 0 1 0 0 0
      FADEOUT 1 0 0 1 0 0 0
      MUTE 0 0
      SEL 0
      IGUID {5B1419C5-F688-4B54-AE32-321981945926}
      IID 15
      NAME "Piano untitled MIDI item"
      VOLPAN 1 0 1 -1
      SOFFS 0 0
      PLAYRATE 1 1 0 -1 0 0.0025
      CHANMODE 0
      GUID {364970EE-9009-47BC-AF89-DCA3FA396B83}
      <SOURCE MIDI
        HASDATA 1 960 QN
        CCINTERP 32
        POOLEDEVTS {BE33DEEC-5C3B-4DC1-94E5-95A36354B986}
        E 0 90 40 45
        E 960 80 40 00
        E 0 90 39 42
        E 960 80 39 00
        E 0 90 40 42
        E 480 80 40 00
        E 0 90 39 42
        E 480 80 39 00
        E 0 90 3e 42
        E 960 80 3e 00
        E 0 90 3d 42
        E 480 80 3d 00
        E 0 90 3b 42
        E 960 80 3b 00
        E 0 90 3b 42
        E 480 80 3b 00
        E 0 90 3e 42
        E 480 80 3e 00
        E 0 90 40 45
        E 960 80 40 00
        E 0 90 39 42
        E 960 80 39 00
        E 0 90 40 42
        E 480 80 40 00
        E 0 90 39 42
        E 480 80 39 00
        E 0 90 3e 42
        E 960 80 3e 00
        E 0 90 3d 42
        E 480 80 3d 00
        E 0 90 3b 42
        E 960 80 3b 00
        E 0 90 3b 42
        E 480 80 3b 00
        E 0 90 3e 42
        E 480 80 3e 00
        E 6714 90 4f 45
        E 479 80 4f 00
        E 30 90 4d 40
        E 447 80 4d 00
        E 29 90 4c 41
        E 1902 80 4c 00
        E 1 90 48 41
        E 444 80 48 00
        E 29 90 4c 40
        E 1463 80 4c 00
        E 1 90 4a 41
        E 452 80 4a 00
        E 21 90 48 40
        E 449 80 48 00
        E 29 90 47 43
        E 1421 80 47 00
        E 4 90 48 40
        E 447 80 48 00
        E 32 90 4a 45
        E 956 80 4a 00
        E 29 90 4c 41
        E 950 80 4c 00
        E 1 90 48 43
        E 951 80 48 00
        E 1 90 45 41
        E 948 80 45 00
        E 4 90 45 45
        E 984 80 45 00
        E 2856 90 4c 45
        E 1935 80 4c 00
        E 1 90 48 43
        E 1900 80 48 00
        E 4 90 4a 45
        E 1935 80 4a 00
        E 1 90 47 43
        E 1900 80 47 00
        E 4 90 48 45
        E 1935 80 48 00
        E 1 90 45 43
        E 1900 80 45 00
        E 4 90 44 45
        E 1935 80 44 00
        E 1 90 47 43
        E 1900 80 47 00
        E 4 90 4c 45
        E 1935 80 4c 00
        E 1 90 48 43
        E 1900 80 48 00
        E 4 90 4a 45
        E 1935 80 4a 00
        E 1 90 47 43
        E 1900 80 47 00
        E 4 90 48 45
        E 984 80 48 00
        E 1 90 4c 41
        E 950 80 4c 00
        E 1 90 51 43
        E 1900 80 51 00
        E 4 90 50 40
        E 3836 80 50 00
        E 0 b0 7b 00
        CCINTERP 32
        CHASE_CC_TAKEOFFS 1
        GUID {F68C0DF6-5677-48DF-9AC9-091239EC287E}
        IGNTEMPO 0 120 4 4
        SRCCOLOR 31
        VELLANE -1 100 0
        CFGEDITVIEW 0 0.05935 37 12 0 -1 0 0 0 0.5
        KEYSNAP 0
        TRACKSEL 0
        EVTFILTER 0 -1 -1 -1 -1 0 0 0 0 -1 -1 -1 -1 0 -1 0 -1 -1
        CFGEDIT 1 1 0 1 0 0 1 1 1 1 1 0.125 491 252 1442 1081 0 0 0 0 0 0 0 0 0 0.5 0 0 1 64
      >
    >
  >
  <TRACK {29570C6A-A281-41DE-BFD5-C725DEE239D9}
    NAME ""
    PEAKCOL 16576
    BEAT -1
    AUTOMODE 0
    VOLPAN 1 0 -1 -1 1
    MUTESOLO 0 0 0
    IPHASE 0
    PLAYOFFS 0 1
    ISBUS 0 0
    BUSCOMP 0 0 0 0 0
    SHOWINMIX 1 0.6667 0.5 1 0.5 -1 -1 -1
    FREEMODE 0
    SEL 0
    REC 0 0 1 0 0 0 0
    VU 2
    TRACKHEIGHT 0 0 0 0 0 0
    INQ 0 0 0 0.5 100 0 0 100
    NCHAN 2
    FX 1
    TRACKID {29570C6A-A281-41DE-BFD5-C725DEE239D9}
    PERF 0
    MIDIOUT -1
    MAINSEND 1 0
  >
  <TRACK {385C1BAF-7998-4B43-9440-C6C98227A510}
    NAME ""
    PEAKCOL 16576
    BEAT -1
    AUTOMODE 0
    VOLPAN 1 0 -1 -1 1
    MUTESOLO 0 0 0
    IPHASE 0
    PLAYOFFS 0 1
    ISBUS 0 0
    BUSCOMP 0 0 0 0 0
    SHOWINMIX 1 0.6667 0.5 1 0.5 -1 -1 -1
    FREEMODE 0
    SEL 0
    REC 0 4096 1 0 0 0 0
    VU 2
    TRACKHEIGHT 0 0 0 0 0 0
    INQ 0 0 0 0.5 100 0 0 100
    NCHAN 2
    FX 1
    TRACKID {385C1BAF-7998-4B43-9440-C6C98227A510}
    PERF 0
    MIDIOUT -1
    MAINSEND 1 0
    <FXCHAIN
      WNDRECT 332 334 737 624
      SHOW 0
      LASTSEL 1
      DOCKED 0
      BYPASS 1 0 0
      <VST "VSTi: sforzando (Plogue Art et Technologie, Inc)" "sforzando VST_x64.dll" 0 "" 1347176273<565354504C475173666F727A616E646F> ""
        UUdMUO5e7f4AAAAAAgAAAAEAAAAAAAAAAgAAAAAAAAD0AQAAAQAAAAAAEAA=
        Q0VHUDsFAAB4nI1UTY/TMBC9I/EfLN+3tVM3TaWGVWELyqGAlEUco2nqlgjHXhI7lH/PxNt8CFSlvsTz/ObrKTObx0upSCOrujA6pnzGKHl89/bNZlsVkEIjR2/rFafk
        pTJHl9vkCQHGBUUuwbNJpbWFPtfklwNV2D/4TEltKwklwjFdBJSUcEk9slXK5Pv3MV1yhPfJU/LF2b05Su8FzpoSLCZNlbExZWNIyUaqmBYaY7tSakuJKhr56ozMOscY
        q/YLChDh5IHItqZZnasr/AHdZBXTEPlnZQ6gnp32VSIw7zvC5KQ4elBDieHrUzBPLVTZR3PJ0s+7NEuN08eT0TbjGeNZS2BBlKXwO/uO4mXY3QH0zwSjCMYwUK8m3vMf
        oHXbzEOrq1GoWSgosUMtL4esAn2WV4pFo/YP5ehqcouphuYXiDnrgWsrvp2tu3TdNKBc+z5jImL+CL4KFsGSD+17nz0U+h+nmxQ+xL1FCaYpi2mKmKYspynhNGU1TYmm
        KetpCmd3cO7Ql98hML9DYX6HxPy2xl+hgvK/f20tRBTxNQ+ZCLkIwtGkzdtR64zd6SRzOx6+bqRfh3BbHgqpczlMlt9D4z0l1n5P5f1S6DN9+pZ0USG3uDeSYcV4e9fb
        tVRYhzw+w6GPsZl3axGNv2R8YDk=
        AGVtcHR5IHNsb3QwABAAAAA=
      >
      PRESETNAME "empty slot0"
      FLOATPOS 0 0 0 0
      FXID {6204400E-0521-4AF1-B870-2D0C913E3E28}
      WAK 0 0
      BYPASS 0 0 0
      <VST "VSTi: ReaSynth (Cockos)" reasynth.dll 0 "" 1919251321<5653547265737972656173796E746800> ""
        eXNlcu9e7f4AAAAAAgAAAAEAAAAAAAAAAgAAAAAAAABEAAAAAAAAAAAAEAA=
        776t3g3wrd4AAAAAF7fROtNNIj+DwEo+2/leP7UrWD4r+jQ8AAAAAAAAAD8MIJk+nu/nPn9q/D4AAAAAAAAAAAAAAAA=
        AFByb2dyYW0gMQAQAAAA
      >
      PRESETNAME "Program 1"
      FLOATPOS 0 0 0 0
      FXID {8A5F4287-C83D-42FB-9D9D-4F17DF5E5C49}
      WAK 0 0
    >
    <ITEM
      POSITION 0
      SNAPOFFS 0
      LENGTH 6.4
      LOOP 0
      ALLTAKES 0
      FADEIN 1 0 0 1 0 0 0
      FADEOUT 1 0 0 1 0 0 0
      MUTE 0 0
      SEL 0
      IGUID {8F9E8153-253A-4664-A871-E8067AAC8C2C}
      IID 6
      NAME "untitled MIDI item"
      VOLPAN 1 0 1 -1
      SOFFS 0 0
      PLAYRATE 1 1 0 -1 0 0.0025
      CHANMODE 0
      GUID {6BD696A5-0F50-42B0-9C7D-A9D8D80AA924}
      <SOURCE MIDI
        HASDATA 1 960 QN
        CCINTERP 32
        POOLEDEVTS {79112B2C-ECF9-41E5-81B1-09AF0B00D667}
        E 0 90 39 4f
        E 244 90 39 00
        E 236 90 38 54
        E 259 90 38 00
        E 221 90 37 51
        E 244 90 37 00
        E 236 90 3a 4d
        E 244 90 3a 00
        E 236 90 39 50
        E 244 90 39 00
        E 236 90 3b 4d
        E 240 80 3b 00
        E 240 90 39 4f
        E 244 90 39 00
        E 236 90 38 54
        E 259 90 38 00
        E 221 90 37 51
        E 244 90 37 00
        E 236 90 38 4d
        E 244 90 38 00
        E 232 90 3a 50
        E 244 90 3a 00
        E 240 90 39 4d
        E 240 80 39 00
        E 236 90 38 4f
        E 244 90 38 00
        E 240 90 35 54
        E 259 90 35 00
        E 221 90 38 51
        E 244 90 38 00
        E 236 90 3a 4d
        E 244 90 3a 00
        E 236 90 35 50
        E 240 90 35 00
        E 240 90 39 4d
        E 240 80 39 00
        E 236 90 3c 4f
        E 244 90 3c 00
        E 240 90 3a 54
        E 259 90 3a 00
        E 221 90 3b 51
        E 244 90 3b 00
        E 232 90 3d 4d
        E 244 90 3d 00
        E 236 90 33 50
        E 244 90 33 00
        E 240 90 3d 4d
        E 240 80 3d 00
        E 240 90 33 4f
        E 244 90 33 00
        E 236 90 3b 54
        E 259 90 3b 00
        E 221 90 35 51
        E 244 90 35 00
        E 236 90 39 4d
        E 244 90 39 00
        E 236 90 37 50
        E 244 90 37 00
        E 236 90 3a 4d
        E 240 80 3a 00
        E 240 90 39 4f
        E 244 90 39 00
        E 236 90 38 54
        E 259 90 38 00
        E 221 b0 7b 00
        CCINTERP 32
        CHASE_CC_TAKEOFFS 1
        GUID {AB912F2A-F004-48D6-886B-77F5043A2E42}
        IGNTEMPO 0 120 4 4
        SRCCOLOR 12
        VELLANE -1 100 0
        CFGEDITVIEW -336.761905 0.08331 58 12 0 -1 0 0 0 0.5
        KEYSNAP 0
        TRACKSEL 0
        EVTFILTER 0 -1 -1 -1 -1 0 0 0 0 -1 -1 -1 -1 0 -1 0 -1 -1
        CFGEDIT 1 1 0 1 0 0 1 1 1 1 1 0.125 825 -37 1776 792 0 0 0 0 0 0 0 1 0 0.5 0 0 1 64
      >
    >
  >
  <TRACK {3FD512DD-46FD-41EA-9836-436DFBEEA37B}
    NAME ""
    PEAKCOL 16576
    BEAT -1
    AUTOMODE 0
    VOLPAN 1 0 -1 -1 1
    MUTESOLO 0 0 0
    IPHASE 0
    PLAYOFFS 0 1
    ISBUS 0 0
    BUSCOMP 0 0 0 0 0
    SHOWINMIX 1 0.6667 0.5 1 0.5 -1 -1 -1
    FREEMODE 0
    SEL 0
    REC 0 4096 1 0 0 0 0
    VU 2
    TRACKHEIGHT 0 0 0 0 0 0
    INQ 0 0 0 0.5 100 0 0 100
    NCHAN 2
    FX 1
    TRACKID {3FD512DD-46FD-41EA-9836-436DFBEEA37B}
    PERF 0
    MIDIOUT -1
    MAINSEND 1 0
    <FXCHAIN
      WNDRECT 768 233 1108 697
      SHOW 0
      LASTSEL 0
      DOCKED 0
      BYPASS 0 0 0
      <VST "VSTi: BlueARP (graywolf2004)" BlueARP.x64.dll 0 "" 929322872<56535437645778626C75656172700000> ""
        eFdkN+5e7f4AAAAAAgAAAAEAAAAAAAAAAgAAAAAAAACMkwAAAQAAAA4AEAA=
        dGZmcAAAAQAKAAEBAQIAAAICCAAFAMzMzMzMAf////8QDw8PAAAAAMzMzMzMzAH/////FwAAAAAAAADMzMzMzMwB/////xMAAAAAAAAAzMzMzMzMAf////8KAAAAAAAA
        AMzMzMzMzAH/////NgAAAAAAAADMzMzMzMwB/////z4/AAAAAAAAzMzMzMzMAf////8hISEiAAAAAMzMzMzMzAH/////GxsAAAAAAADMzMzMzMwAAP///wAAAAAAAAAA
        zMzMzMzMAAD///8AAAAAAAAAAMzMzMzMzAAA////AAAAAAAAAADMzMzMzMwAAP///wAAAAAAAAAAzMzMzMzMAAD///8AAAAAAAAAAMzMzMzMzAAA////AAAAAAAAAADM
        zMzMzMwAAP///wAAAAAAAAAAzMzMzMzMAAD///8AAAAAAAAAAMzMzMzMzAAKEFoDAAAAfwB/AkAAAQAAAAAAAAAAAAAAfwAAAAAAAAAAAAAAAAAAAAAAAAAAAAAAAAAA
        AAAAAAAAAAAAAAAAAAAAAAAAAAAAAAAAAAAAAAAAAAAAAAAAAAAAAAAAAAAAAAAAAAAAAAAAAAAAAAAAAAAAAAAAAAAAAAAAAAAAAAAAAAAAAAAAAAAAAAAAAAAAAAAA
        AAAAAAAAAAAAAAAAAAAAAAAAAAAAAAAAAAAAAAAAAAAAAAAAAAAAAAAAAAAAAAAAAAAAAAAAAAAAAAAAAAAAAAAAAAAAAQEBAQEBAQEBAQEBAQEBAQEBAQEBAQEBAQEB
        AQEBAQEBAQEBAQEBAQEBAQEBAQEBAQEBAQEBAQEBAQEBAQEBAQEBAQEBAQEBAQEBAQEBAQEBAQEBAQEBAQEBAQEBAQEBAQEBAQEBAQEBAQEBAQEBAQEBAQEBAQEBAQEB
        AQEBAQFgYGBgYGBgYGBgYGBgYGBgYGBgYGBgYGBgYGBgYGBgYGBgYGBgYGBgYGBgYGBgYGBgYGBgYGBgYGBgYGBgYGBgAAAAAAAAAAAAAAAAAAAAAAAAAAAAAAAAAAAA
        AAAAAAAAAAAAAAAAAAAAAAAAAAAAAAAAAAAAAAAAAAAAAAAAAAAAAAAAAAAAAAAAAAAAAAAAAAAAAAAAAAAAAAAAAAAAAAAAAAAAAAAAAAAAAAAAAAAAAAAAAAAAAAAA
        AAAAAAAtIEluaXRpYWwgcHJvZ3JhbSAtAAAAAAAAAAAAAAAAAAGCEwAAAAAA2IQTAAAAAAAKEDIDAAcAfwB/AkAAAQAAAAAAAAAAAAAAfwAAAAAAAAAAAAAAAAAAAAAA
        AAAAAAAAAAAAAAAAAAAAAAAAAAAAAAAAAAAAAAAAAAAAAAAAAAAAAAAAAAAAAAAAAAAAAAAAAAAAAAAAAAAAAAAAAAAAAAAAAAAAAAAAAAAAAAAAAAAAAAAAAAAAAAAA
        AAAAAAAAAAAAAAAAAAAAAAAAAAAAAAAAAAAAAAAAAAAAAAAAAAAAAAAAAAAAAAAAAAAAAAAAAAAAAAAAAAAAAAAAAAAAAAAAAAAAAAAAAQEBAQEBAQEBAQEBAQEBAQEB
        AQEBAQEBAQEBAQEBAQEBAQEBAQEBAQEBAQEBAQEBAQEBAQEBAQEBAQEBAQEBAQECAwQBAgMEAQIDBAECAwQBAQEBAQEBAQEBAQEBAQEBAQEBAQEBAQEBAQEBAQEBAQEB
        AQEBAQEBAQEBAQEBAQFgYGBgYGBgYGBgYGBgYGBgYGBgYGBgYGBgYGBgYGBgYGBgYGBgYGBgYGBgYGBgYGBgYGBgYGBgYGBgYGBgYGBgAAAAAAAAAAAAAAAAAAAAAAAA
        AAAAAAAAAAAAAAAAAAAAAAAAAAAAAAAAAAAAAAAAAAAAAAAAAAAAAAAAAAAAAAAAAAAAAAAAAAAAAAAAAAAAAAAAAAAAAAAAAAAAAAAAAAAAAAAAAAAAAAAAAAAAAAAA
        AAAAAAAAAAAAAAAAAABTaW1wbGUgNGsgVXAAfwAAqP8jGwAAAAAAAAAAAAAAAKoDEAAAAAAAhZfyc/9/AAAKEDIDAAcAfwB/AkAAAQAAAAAAAAAAAAAAfwAAAAAAAAAA
        AAAAAAAAAAAAAAAAAAAAAAAAAAAAAAAAAAAAAAAAAAAAAAAAAAAAAAAAAAAAAAAAAAAAAAAAAAAAAAAAAAAAAAAAAAAAAAAAAAAAAAAAAAAAAAAAAAAAAAAAAAAAAAAA
        AAAAAAAAAAAAAAAAAAAAAAAAAAAAAAAAAAAAAAAAAAAAAAAAAAAAAAAAAAAAAAAAAAAAAAAAAAAAAAAAAAAAAAAAAAAAAAAAAAAAAAAAAAAAAAAAAAAAAQEBAQEBAQEB
        AQEBAQEBAQEBAQEBAQEBAQEBAQEBAQEBAQEBAQEBAQEBAQEBAQEBAQEBAQEBAQEBAQEBAQEBAQQDAgEEAwIBBAMCAQQDAgEBAQEBAQEBAQEBAQEBAQEBAQEBAQEBAQEB
        AQEBAQEBAQEBAQEBAQEBAQEBAQEBAQFgYGBgYGBgYGBgYGBgYGBgYGBgYGBgYGBgYGBgYGBgYGBgYGBgYGBgYGBgYGBgYGBgYGBgYGBgYGBgYGBgYGBgAAAAAAAAAAAA
        AAAAAAAAAAAAAAAAAAAAAAAAAAAAAAAAAAAAAAAAAAAAAAAAAAAAAAAAAAAAAAAAAAAAAAAAAAAAAAAAAAAAAAAAAAAAAAAAAAAAAAAAAAAAAAAAAAAAAAAAAAAAAAAA
        AAAAAAAAAAAAAAAAAAAAAAAAAAAAAABTaW1wbGUgNGsgRG93bgAAyPMjGwAAAAAAAAAAAAAAAKoDEAAAAAAAhZfyc/9/AAAKEDIDAAcAfwB/AkAAAQAAAAAAAAAAAAAA
        fwAAAAAAAAAAAAAAAAAAAAAAAAAAAAAAAAAAAAAAAAAAAAAAAAAAAAAAAAAAAAAAAAAAAAAAAAAAAAAAAAAAAAAAAAAAAAAAAAAAAAAAAAAAAAAAAAAAAAAAAAAAAAAA
        AAAAAAAAAAAAAAAAAAAAAAAAAAAAAAAAAAAAAAAAAAAAAAAAAAAAAAAAAAAAAAAAAAAAAAAAAAAAAAAAAAAAAAAAAAAAAAAAAAAAAAAAAAAAAAAAAAAAAAAAAAAAAAAA
        AQEBAQEBAQEBAQEBAQEBAQEBAQEBAQEBAQEBAQEBAQEBAQEBAQEBAQEBAQEBAQEBAQEBAQEBAQEBAQEBAQEBAQECAwECAwECAwECAwECAwIBAQEBAQEBAQEBAQEBAQEB
        AQEBAQEBAQEBAQEBAQEBAQEBAQEBAQEBAQEBAQEBAQFgYGBgYGBgYGBgYGBgYGBgYGBgYGBgYGBgYGBgYGBgYGBgYGBgYGBgYGBgYGBgYGBgYGBgYGBgYGBgYGBgYGBg
        AAAAAAAAAAAAAAAAAAAAAAAAAAAAAAAAAAAAAAAAAAAAAAAAAAAAAAAAAAAAAAAAAAAAAAAAAAAAAAAAAAAAAAAAAAAAAAAAAAAAAAAAAAAAAAAAAAAAAAAAAAAAAAAA
        AAAAAAAAAAAAAAAAAAAAAAAAAAAAAAAAAAAAAAAAAABTaW1wbGUgM2sgVXAAfwAA2AAkGwAAAAAAAAAAAAAAAKoDEAAAAAAAhZfyc/9/AAAKEDIDAAcAfwB/AkAAAQAA
        AAAAAAAAAAAAfwAAAAAAAAAAAAAAAAAAAAAAAAAAAAAAAAAAAAAAAAAAAAAAAAAAAAAAAAAAAAAAAAAAAAAAAAAAAAAAAAAAAAAAAAAAAAAAAAAAAAAAAAAAAAAAAAAA
        AAAAAAAAAAAAAAAAAAAAAAAAAAAAAAAAAAAAAAAAAAAAAAAAAAAAAAAAAAAAAAAAAAAAAAAAAAAAAAAAAAAAAAAAAAAAAAAAAAAAAAAAAAAAAAAAAAAAAAAAAAAAAAAA
        AAAAAAAAAAAAAQEBAQEBAQEBAQEBAQEBAQEBAQEBAQEBAQEBAQEBAQEBAQEBAQEBAQEBAQEBAQEBAQEBAQEBAQEBAQEBAQEBAQMCAQMCAQMCAQMCAQMCAQIBAQEBAQEB
        AQEBAQEBAQEBAQEBAQEBAQEBAQEBAQEBAQEBAQEBAQEBAQEBAQEBAQFgYGBgYGBgYGBgYGBgYGBgYGBgYGBgYGBgYGBgYGBgYGBgYGBgYGBgYGBgYGBgYGBgYGBgYGBg
        YGBgYGBgYGBgAAAAAAAAAAAAAAAAAAAAAAAAAAAAAAAAAAAAAAAAAAAAAAAAAAAAAAAAAAAAAAAAAAAAAAAAAAAAAAAAAAAAAAAAAAAAAAAAAAAAAAAAAAAAAAAAAAAA
        AAAAAAAAAAAAAAAAAAAAAAAAAAAAAAAAAAAAAAAAAAAAAAAAAAAAAABTaW1wbGUgM2sgRG93bgAAeP4jGwAAAAAAAAAAAAAAAKoDEAAAAAAAhZfyc/9/AAAKEDIDAAEA
        fwB/AkAAAQAAAAAAAAAAAAAAfwAAAAAAAAAAAAAAAAAAAAAAAAAAAAAAAAAAAAAAAAAAAAAAAAAAAAAAAAAAAAAAAAAAAAAAAAAAAAAAAAAAAAAAAAAAAAAAAAAAAAAA
        AAAAAAAAAAAAAAAAAAAAAAAAAAAAAAAAAAAAAAAAAAAAAAAAAAAAAAAAAAAAAAAAAAAAAAAAAAAAAAAAAAAAAAAAAAAAAAAAAAAAAAAAAAAAAAAAAAAAAAAAAAAAAAAA
        AAAAAAAAAAAAAAAAAAAAAAAAAQEBAAEAAQEAAQABAQIBAAEBAQEBAQEBAQEBAQEBAQEBAQEBAQEBAQEBAQEBAQEBAQEBAQEBAQEBAQEBAQEBAQYGBgYGBgYGBgYGBgYG
        BgYBAQEBAQEBAQEBAQEBAQEBAQEBAQEBAQEBAQEBAQEBAQEBAQEBAQEBAQEBAQEBAQFgYGBgYGBgYGBgYGBgYGBgYGBgYGBgYGBgYGBgYGBgYGBgYGBgYGBgYGBgYGBg
        YGBgYGBgYGBgYGBgYGBgYGBgAAAAAAAAAAAAAAAAAAAAAAAAAAAAAAAAAAAAAAAAAAAAAAAAAAAAAAAAAAAAAAAAAAAAAAAAAAAAAAAAAAAAAAAAAAAAAAAAAAAAAAAA
        AAAAAAAAAAAAAAAAAAAAAAAAAAAAAAAAAAAAAAAAAAAAAAAAAAAAAAAAAAAAAAAAAABBcnAgQ2hvcmQgR2F0ZWQgMDEAGwAAAAAAAAAAAAAAAKoDEAAAAAAAhZfyc/9/
        AAAKEDIDAAEAfwB/AkAAAQAAAAAAAAAAAAAAfwAAAAAAAAAAAAAAAAAAAAAAAAAAAAAAAAAAAAAAAAAAAAAAAAAAAAAAAAAAAAAAAAAAAAAAAAAAAAAAAAAAAAAAAAAA
        AAAAAAAAAAAAAAAAAAAAAAAAAAAAAAAAAAAAAAAAAAAAAAAAAAAAAAAAAAAAAAAAAAAAAAAAAAAAAAAAAAAAAAAAAAAAAAAAAAAAAAAAAAAAAAAAAAAAAAAAAAAAAAAA
        AAAAAAAAAAAAAAAAAAAAAAAAAAAAAAAAAAAAAAEBAgEAAAEAAQECAQABAAEBAQEBAQEBAQEBAQEBAQEBAQEBAQEBAQEBAQEBAQEBAQEBAQEBAQEBAQEBAQEBAQYGBgYG
        BgYGBgYGBgYGBgYBAQEBAQEBAQEBAQEBAQEBAQEBAQEBAQEBAQEBAQEBAQEBAQEBAQEBAQEBAQEBAQFgYGBgYGBgYGBgYGBgYGBgYGBgYGBgYGBgYGBgYGBgYGBgYGBg
        YGBgYGBgYGBgYGBgYGBgYGBgYGBgYGBgYGBgAAAAAAAAAAAAAAAAAAAAAAAAAAAAAAAAAAAAAAAAAAAAAAAAAAAAAAAAAAAAAAAAAAAAAAAAAAAAAAAAAAAAAAAAAAAA
        AAAAAAAAAAAAAAAAAAAAAAAAAAAAAAAAAAAAAAAAAAAAAAAAAAAAAAAAAAAAAAAAAAAAAAAAAAAAAABBcnAgQ2hvcmQgR2F0ZWQgMDIAGwAAAAAAAAAAAAAAAKoDEAAA
        AAAAhZfyc/9/AAAKEDIDAAEAfwB/AkAAAQAAAAAAAAAAAAAAfwAAAAAAAAAAAAAAAAAAAAAAAAAAAAAAAAAAAAAAAAAAAAAAAAAAAAAAAAAAAAAAAAAAAAAAAAAAAAAA
        AAAAAAAAAAAAAAAAAAAAAAAAAAAAAAAAAAAAAAAAAAAAAAAAAAAAAAAAAAAAAAAAAAAAAAAAAAAAAAAAAAAAAAAAAAAAAAAAAAAAAAAAAAAAAAAAAAAAAAAAAAAAAAAA
        AAAAAAAAAAAAAAAAAAAAAAAAAAAAAAAAAAAAAAAAAAAAAAAAAQEBAgEBAQIBAQEBAgECAQEBAQEBAQEBAQEBAQEBAQEBAQEBAQEBAQEBAQEBAQEBAQEBAQEBAQEBAQEB
        AQEBAQYGBgYGBgYGBgYGBgYGBgYBAQEBAQEBAQEBAQEBAQEBAQEBAQEBAQEBAQEBAQEBAQEBAQEBAQEBAQEBAQEBAQFgYGBgYGBgYGBgYGBgYGBgYGBgYGBgYGBgYGBg
        YGBgYGBgYGBgYGBgYGBgYGBgYGBgYGBgYGBgYGBgYGBgYGBgAAAAAAAAAAAAAAAAAAAAAAAAAAAAAAAAAAAAAAAAAAAAAAAAAAAAAAAAAAAAAAAAAAAAAAAAAAAAAAAA
        AAAAAAAAAAAAAAAAAAAAAAAAAAAAAAAAAAAAAAAAAAAAAAAAAAAAAAAAAAAAAAAAAAAAAAAAAAAAAAAAAAAAAAAAAABBcnAgQ2hvcmQgR2F0ZWQgMDMAGwAAAAAAAAAA
        AAAAAKoDEAAAAAAAhZfyc/9/AAAKEDIDAAEAfwB/AkAAAQAAAAAAAAAAAAAAfwAAAAAAAAAAAAAAAAAAAAAAAAAAAAAAAAAAAAAAAAAAAAAAAAAAAAAAAAAAAAAAAAAA
        AAAAAAAAAAAAAAAAAAAAAAAAAAAAAAAAAAAAAAAAAAAAAAAAAAAAAAAAAAAAAAAAAAAAAAAAAAAAAAAAAAAAAAAAAAAAAAAAAAAAAAAAAAAAAAAAAAAAAAAAAAAAAAAA
        AAAAAAAAAAAAAAAAAAAAAAAAAAAAAAAAAAAAAAAAAAAAAAAAAAAAAAAAAAAAAQECAQECAQECAQECAQEBAgEBAQEBAQEBAQEBAQEBAQEBAQEBAQEBAQEBAQEBAQEBAQEB
        AQEBAQEBAQEBAQEBAQYGBgYGBgYGBgYGBgYGBgYBAQEBAQEBAQEBAQEBAQEBAQEBAQEBAQEBAQEBAQEBAQEBAQEBAQEBAQEBAQEBAQFgYGBgYGBgYGBgYGBgYGBgYGBg
        YGBgYGBgYGBgYGBgYGBgYGBgYGBgYGBgYGBgYGBgYGBgYGBgYGBgYGBgYGBgAAAAAAAAAAAAAAAAAAAAAAAAAAAAAAAAAAAAAAAAAAAAAAAAAAAAAAAAAAAAAAAAAAAA
        AAAAAAAAAAAAAAAAAAAAAAAAAAAAAAAAAAAAAAAAAAAAAAAAAAAAAAAAAAAAAAAAAAAAAAAAAAAAAAAAAAAAAAAAAAAAAAAAAAAAAABBcnAgQ2hvcmQgR2F0ZWQgMDQA
        GwAAAAAAAAAAAAAAAKoDEAAAAAAAhZfyc/9/AAAKEDUDAAAAfwB/AkAAAQAAAAAAAAAAAAAAfwAAAAAAAAAAAAAAAAAAAAAAAAAAAAAAAAAAAAAAAAAAAAAAAAAAAAAA
        AAAAAAAAAAAAAAAAAAAAAAAAAAAAAAAAAAAAAAAAAAAAAAAAAAAAAAAAAAAAAAAAAAAAAAAAAAAAAAAAAAAAAAAAAAAAAAAAAAAAAAAAAAAAAAAAAAAAAAAAAAAAAAAA
        AAAAAAAAAAAAAAAAAAAAAAAAAAAAAAAAAAAAAAAAAAAAAAAAAAAAAAAAAAAAAAAAAAAAAAAAAQAAAQAAAQAAAQAAAQABAAEBAQEBAQEBAQEBAQEBAQEBAQEBAQEBAQEB
        AQEBAQEBAQEBAQEBAQEBAQEBAQEBAQYGBgYGBgYGBgYGBgYGBgYBAQEBAQEBAQEBAQEBAQEBAQEBAQEBAQEBAQEBAQEBAQEBAQEBAQEBAQEBAQEBAQFgYGBgYGBgYGBg
        YGBgYGBgYGBgYGBgYGBgYGBgYGBgYGBgYGBgYGBgYGBgYGBgYGBgYGBgYGBgYGBgYGBgYGBgAAAAAAAAAAAAAAAAAAAAAAAAAAAAAAAAAAAAAAAAAAAAAAAAAAAAAAAA
        AAAAAAAAAAAAAAAAAAAAAAAAAAAAAAAAAAAAAAAAAAAAAAAAAAAAAAAAAAAAAAAAAAAAAAAAAAAAAAAAAAAAAAAAAAAAAAAAAAAAAAAAAAAAAAAAAABBcnAgQ2hvcmQg
        R2F0ZWQgMDUAGwAAAAAAAAAAAAAAAKoDEAAAAAAAhZfyc/9/AAAKEDIDAAAAfwB/AkAAAQAAAAAAAAAAAAAAfwAAAAAAAAAAAAAAAAAAAAAAAAAAAAAAAAAAAAAAAAAA
        AAAAAAAAAAAAAAAAAAAAAAAAAAAAAAAAAAAAAAAAAAAAAAAAAAAAAAAAAAAAAAAAAAAAAAAAAAAAAAAAAAAAAAAAAAAAAAAAAAAAAAAAAAAAAAAAAAAAAAAAAAAAAAAA
        AAAAAAAAAAAAAAAAAAAAAAAAAAAAAAAAAAAAAAAAAAAAAAAAAAAAAAAAAAAAAAAAAAAAAAAAAAAAAAAAAAAAAQEAAQEAAQEAAQEAAQABAAEBAQEBAQEBAQEBAQEBAQEB
        AQEBAQEBAQEBAQEBAQEBAQEBAQEBAQEBAQEBAQEBAQYGBgYGBgYGBgYGBgYGBgYBAQEBAQEBAQEBAQEBAQEBAQEBAQEBAQEBAQEBAQEBAQEBAQEBAQEBAQEBAQEBAQFg
        YGBgYGBgYGBgYGBgYGBgYGBgYGBgYGBgYGBgYGBgYGBgYGBgYGBgYGBgYGBgYGBgYGBgYGBgYGBgYGBgYGBgAAAAAAAAAAAAAAAAAAAAAAAAAAAAAAAAAAAAAAAAAAAA
        AAAAAAAAAAAAAAAAAAAAAAAAAAAAAAAAAAAAAAAAAAAAAAAAAAAAAAAAAAAAAAAAAAAAAAAAAAAAAAAAAAAAAAAAAAAAAAAAAAAAAAAAAAAAAAAAAAAAAAAAAAAAAABB
        cnAgQ2hvcmQgR2F0ZWQgMDYAGwAAAAAAAAAAAAAAAKoDEAAAAAAAhZfyc/9/AAAKEDIDAAAAfwB/AkAAAQAAAAAAAAAAAAAAfwAAAAAAAAAAAAAAAAAAAAAAAAAAAAAA
        AAAAAAAAAAAAAAAAAAAAAAAAAAAAAAAAAAAAAAAAAAAAAAAAAAAAAAAAAAAAAAAAAAAAAAAAAAAAAAAAAAAAAAAAAAAAAAAAAAAAAAAAAAAAAAAAAAAAAAAAAAAAAAAA
        AAAAAAAAAAAAAAAAAAAAAAAAAAAAAAAAAAAAAAAAAAAAAAAAAAAAAAAAAAAAAAAAAAAAAAAAAAAAAAAAAAAAAAAAAAAAAAAAAQABAAEAAQABAAEAAAEAAQEBAQEBAQEB
        AQEBAQEBAQEBAQEBAQEBAQEBAQEBAQEBAQEBAQEBAQEBAQEBAQEBAQYGBgYGBgYGBgYGBgYGBgYBAQEBAQEBAQEBAQEBAQEBAQEBAQEBAQEBAQEBAQEBAQEBAQEBAQEB
        AQEBAQEBAQFgYGBgYGBgYGBgYGBgYGBgYGBgYGBgYGBgYGBgYGBgYGBgYGBgYGBgYGBgYGBgYGBgYGBgYGBgYGBgYGBgYGBgAAAAAAAAAAAAAAAAAAAAAAAAAAAAAAAA
        AAAAAAAAAAAAAAAAAAAAAAAAAAAAAAAAAAAAAAAAAAAAAAAAAAAAAAAAAAAAAAAAAAAAAAAAAAAAAAAAAAAAAAAAAAAAAAAAAAAAAAAAAAAAAAAAAAAAAAAAAAAAAAAA
        AAAAAAAAAABBcnAgQ2hvcmQgR2F0ZWQgMDcAGwAAAAAAAAAAAAAAAKoDEAAAAAAAhZfyc/9/AAAKEDIDAAAAfwB/AkAAAQAAAAAAAAAAAAAAfwAAAAAAAAAAAAAAAAAA
        AAAAAAAAAAAAAAAAAAAAAAAAAAAAAAAAAAAAAAAAAAAAAAAAAAAAAAAAAAAAAAAAAAAAAAAAAAAAAAAAAAAAAAAAAAAAAAAAAAAAAAAAAAAAAAAAAAAAAAAAAAAAAAAA
        AAAAAAAAAAAAAAAAAAAAAAAAAAAAAAAAAAAAAAAAAAAAAAAAAAAAAAAAAAAAAAAAAAAAAAAAAAAAAAAAAAAAAAAAAAAAAAAAAAAAAAAAAAAAAQEAAQEAAQEAAQEAAQAB
        AAEBAQEBAQEBAQEBAQEBAQEBAQEBAQEBAQEBAQEBAQEBAQEBAQEBAQEBAQEBAQEBAQYGBgYGBgYGBgYGBgYGBgYBAQEBAQEBAQEBAQEBAQEBAQEBAQEBAQEBAQEBAQEB
        AQEBAQEBAQEBAQEBAQEBAQFgYGBgYGBgYGBgYGBgYGBgYGBgYGBgYGBgYGBgYGBgYGBgYGBgYGBgYGBgYGBgYGBgYGBgYGBgYGBgYGBgYGBgAAAAAAAAAAAAAAAAAAAA
        AAAAAAAAAAAAAAAAAAAAAAAAAAAAAAAAAAAAAAAAAAAAAAAAAAAAAAAAAAAAAAAAAAAAAAAAAAAAAAAAAAAAAAAAAAAAAAAAAAAAAAAAAAAAAAAAAAAAAAAAAAAAAAAA
        AAAAAAAAAAAAAAAAAAAAAABBcnAgQ2hvcmQgR2F0ZWQgMDgAGwAAAAAAAAAAAAAAAKoDEAAAAAAAhZfyc/9/AAAKEDIDAAcAfwB/A0AAAQAAAAAAAAAAAAAAfwAAAAAA
        AAAAAAAAAAAAAAAAAAAAAAAAAAAAAAAAAAAAAAAAAAAAAAAAAAAAAAAAAAAAAAAAAAAAAAAAAAAAAAAAAAAAAAAAAAAAAAAAAAAAAAAAAAAAAAAAAAAAAAAAAAAAAAAA
        AAAAAAAAAAAAAAAAAAAAAAAAAAAAAAAAAAD/AAD/AAD/AAD/AP8AAP8AAAAAAAAAAAAAAAAAAAAAAAAAAAAAAAAAAAAAAAAAAAAAAAAAAAAAAAAAAAAAAAAAAQEBAQEB
        AQEBAQEBAQEBAQEBAQEBAQEBAQEBAQEBAQEBAQEBAQEBAQEBAQEBAQEBAQEBAQEBAQEBAQEBAQEBAQMCAQMCAQMCAQMBAwIBAwIBAQEBAQEBAQEBAQEBAQEBAQEBAQEB
        AQEBAQEBAQEBAQEBAQEBAQEBAQEBAQEBAQFgYGBgYGBgYGBgYGBgYGBgYGBgYGBgYGBgYGBgYGBgYGBgYGBgYGBgYGBgYGBgYGBgYGBgYGBgYGBgYGBgYGBgAAAAAAAA
        AAAAAAAAAAAAAAAAAAAAAAAAAAAAAAAAAAAAAAAAAAAAAAAAAAAAAAAAAAAAAAAAAAAAAAAAAAAAAAAAAAAAAAAAAAAAAAAAAAAAAAAAAAAAAAAAAAAAAAAAAAAAAAAA
        AAAAAAAAAAAAAAAAAAAAAAAAAAAAAAAAAABBcnAgM2sgU3VwZXJTYXcgMDEgKFJhbW1zdGVpbikAAKoDEAAAAAAAhZfyc/9/AAAKCD4DAAQAfwB/AkAAAQAAAAAAAQAA
        AAAAfwAAAAAAAAAAAAAAAAAAAAAAAAAAAAAAAAAAAAAAAAAAAAAAAAAAAAAAAAAAAAAAAAAAAAAAAAAAAAAAAAAAAAAAAAAAAAAAAAAAAAAAAAAAAAAAAAAAAAAAAAAA
        AAAAAAAAAAAAAAAAAAAAAAAAAAAAAAAAAAAAAAAAAAAAAAD/AAD/AAD/AAAAAAAAAAAAAAAAAAAAAAAAAAAAAAAAAAAAAAAAAAAAAAAAAAAAAAAAAAAAAAAAAAAAAAAA
        AAAAAQABAQEBAQEAAAAAAAAAAAEBAQEBAQEBAQEBAQEBAQEBAQEBAQEBAQEBAQEBAQEBAQEBAQEBAQEBAQEBAQEBAQEBAwEBAgEDAQEBAQEBAQEBAQEBAQEBAQEBAQEB
        AQEBAQEBAQEBAQEBAQEBAQEBAQEBAQEBAQEBAQEBAQEBAQFgYGBgYGBgYGBgYGBgYGBgYGBgYGBgYGBgYGBgYGBgYGBgYGBgYGBgYGBgYGBgYGBgYGBgYGBgYGBgYGBg
        YGBgAAAAAAAAAAAAAAAAAAAAAAAAAAAAAAAAAAAAAAAAAAAAAAAAAAAAAAAAAAAAAAAAAAAAAAAAAAAAAAAAAAAAAAAAAAAAAAAAAAAAAAAAAAAAAAAAAAAAAAAAAAAA
        AAAAAAAAAAAAAAAAAAAAAAAAAAAAAAAAAAAAAAAAAAAAAABBcnAgM2sgU3VwZXJTYXcgMDIAEAAAAAAAAAAAAAAAABSv6yv6fwAABAAAAAAAAAAKCDoDAAQAfwB/AkAA
        AQAAAAAAAAAAAAAAfwAAAAAAAAAAAAAAAAAAAAAAAAAAAAAAAAAAAAAAAAAAAAAAAAAAAAAAAAAAAAAAAAAAAAAAAAAAAAAAAAAAAAAAAAAAAAAAAAAAAAAAAAAAAAAA
        AAAAAAAAAAAAAAAAAAAAAAAAAAAAAAAAAAAAAAAAAAAAAAAAAAAAAAAAAAD/AAD/AP8AAAAAAAAAAAAAAAAAAAAAAAAAAAAAAAAAAAAAAAAAAAAAAAAAAAAAAAAAAAAA
        AAAAAAAAAAAAAAAAAQEBAQEBAQEAAAAAAAAAAAEBAQEBAQEBAQEBAQEBAQEBAQEBAQEBAQEBAQEBAQEBAQEBAQEBAQEBAQEBAQEBAQEDAgEBAQIDAQEBAQEBAQEBAQEB
        AQEBAQEBAQEBAQEBAQEBAQEBAQEBAQEBAQEBAQEBAQEBAQEBAQEBAQEBAQFgYGBgYGBgYGBgYGBgYGBgYGBgYGBgYGBgYGBgYGBgYGBgYGBgYGBgYGBgYGBgYGBgYGBg
        YGBgYGBgYGBgYGBgAAAAAAAAAAAAAAAAAAAAAAAAAAAAAAAAAAAAAAAAAAAAAAAAAAAAAAAAAAAAAAAAAAAAAAAAAAAAAAAAAAAAAAAAAAAAAAAAAAAAAAAAAAAAAAAA
        AAAAAAAAAAAAAAAAAAAAAAAAAAAAAAAAAAAAAAAAAAAAAAAAAAAAAAAAAABBcnAgM2sgU3VwZXJTYXcgMDMAGwAAAAAAAAAAAAAAANgDEwAAAAAAhZfyc/9/AAAKAzoD
        AAgAfwB/AkAAAQAAAAAAAAAAAAAAfwAAAAAAAAAAAAAAAAAAAAAAAAAAAAAAAAAAAAAAAAAAAAAAAAAAAAAAAAAAAAAAAAAAAAAAAAAAAAAAAAAAAAAAAAAAAAAAAAAA
        AAAAAAEAAAAAAAAAAAAAAAAAAAAAAAAAAAAAAAAAAAAAAAAAAAAAAAAAAAAAAAAAAAAAAAAAAP8A/wAAAAAA//4AAP8AAAAAAAAAAAAAAAAAAAAAAAAAAAAAAAAAAAAA
        AAAAAAAAAAAAAAAAAAAAAAAAAAAAAQIDAAEAAQIBAgEAAQIBAQEBAQEBAQEBAQEBAQEBAQEBAQEBAQEBAQEBAQEBAQEBAQEBAQEBAQEBAQEBAQEBAQIEBQEBAQEBAgEB
        AQEBAQEBAQEBAQEBAQEBAQEBAQEBAQEBAQEBAQEBAQEBAQEBAQEBAQEBAQEBAQEBAQEBAQFgYGBgYGBgYGBgYGBgYGBgYGBgYGBgYGBgYGBgYGBgYGBgYGBgYGBgYGBg
        YGBgYGBgYGBgYGBgYGBgYGBgYGBgAAAAAAAAAAAAAAAAAAAAAAAAAAAAAAAAAAAAAAAAAAAAAAAAAAAAAAAAAAAAAAAAAAAAAAAAAAAAAAAAAAAAAAAAAAAAAAAAAAAA
        AAAAAAAAAAAAAAAAAAAAAAAAAAAAAAAAAAAAAAAAAAAAAAAAAAAAAAAAAAAAAAAAAAAAAABBcnAgMmsgU3VwZXJTYXcgMDQAGwAAAAAAAAAAAAAAANgDEwAAAAAAhZfy
        c/9/AAAKEDoDAAUAfwB/AkAAAQABAAAAAAAAAAAAfwDMzMzMzMzMzMzMzH/MzMzMddko0HTpGABWHPNSNPEYAEzpGADFKAAAHdgo0HTqGABc7hgAsHM1BszMzMzMzAAA
        AAAAAAAAAAAAAAAAAAAAAAAAAAAAAAAAAAAAAAAAAAAAAAAAAAAAAAAAAAAAAAAAAAAAAAAAAAAAAAAAAAAA/wAA/wAAAAD/AAD/AAD/AAAAAAAAAAAAAAAAAAAAAAAA
        AAAAAAAAAAAAAAAAAAAAAAAAAAAAAAAAAAAAAAAAAQEBAQEBAQEBAQEBAQEBAQEBAQEBAQEBAQEBAQEBAQEBAQEBAQEBAQEBAQEBAQEBAQEBAQEBAQEBAQEBAQEBAQIB
        AQMBAQMBAgEBAwEBAwEBAQEBAQEBAQEBAQEBAQEBAQEBAQEBAQEBAQEBAQEBAQEBAQEBAQEBAQEBAQEBAQFgYGBgYGBgYGBgYGBgYGBgYGBgYGBgYGBgYGBgYGBgYGBg
        YGBgYGBgYGBgYGBgYGBgYGBgYGBgYGBgYGBgYGBgAAAAAAAAAAAAAAAAAAAAAAAAAAAAAAAAAAAAAAAAAAAAAAAAAAAAAAAAAAAAAAAAAAAAAAAAAAAAAAAAAAAAAADM
        zMzMzMzMzMzMzADMzMzMddko0HTpGABWHPNSNPEYAEzpGADFKAAAHdgo0HTqGABc7hgAsHM1BszMzMzMzMxBcnAgMmsgU3VwZXJTYXcgMDUAAAAAAAD//////////5Au
        xAAAAAAAvMp5AwAAAAAKBDgDAAAAfwB/AkAAAQABAAAAAAAAAAAAfwAAAAAAAAAAAAAAAAAAAAAAAAAAAAAAAAAAAAAAAAAAAAAAAAAAAAAAAAAAAAAAAAAAAAAAAAAA
        AAAAAAAAAAAAAAAAAAAAAAAAAAAAAAAAAAAAAAAAAAAAAAAAAAAAAAAAAAAAAAAAAAAAAAAAAAAAAAAAAAAAAAAAAAAAAAAAAAAAAAAAAAAAAAAAAAAAAAAAAAAAAAAA
        AAAAAAAAAAAAAAAAAAAAAAAAAAAAAAAAAAAAAAAAAAAAAAAAAAAAAQEBAQEBAQEBAQEBAQEBAQEBAQEBAQEBAQEBAQEBAQEBAQEBAQEBAQEBAQEBAQEBAQEBAQEBAQEB
        AQEBAQEBAQECBgIBAQEBAQEBAQEBAQEBAQEBAQEBAQEBAQEBAQEBAQEBAQEBAQEBAQEBAQEBAQEBAQEBAQEBAQEBAQEBAQFgYGBgYGBgYGBgYGBgYGBgYGBgYGBgYGBg
        YGBgYGBgYGBgYGBgYGBgYGBgYGBgYGBgYGBgYGBgYGBgYGBgYGBgAAAAAAAAAAAAAAAAAAAAAAAAAAAAAAAAAAAAAAAAAAAAAAAAAAAAAAAAAAAAAAAAAAAAAAAAAAAA
        AAAAAAAAAAAAAAAAAAAAAAAAAAAAAAAAAAAAAAAAAAAAAAAAAAAAAAAAAAAAAAAAAAAAAAAAAAAAAAAAAAAAAAAAAAAAAABBcnAgMmsgU3VwZXJTYXcgMDYAzMzMzMzM
        zMzMzMzMzMzMzMzMzMzMzMzMzMzMzMwKEDIDAAEAfwB/AkAAAQAAAAAAAAAAAAAAfwDMzMzMzMzMzMzMzH/MzMzMddko0HTpGABWHPNSNPEYAEzpGABXLQAAHdgo0HTq
        GABc7hgAsHM1BszMzMzMzAAAAAAAAAAAAAAAAAAAAAAAAAAAAAAAAAAAAAAAAAAAAAAAAAAAAAAAAAAAAAAAAAAAAAAAAAAAAAAAAAAAAAD/AAD/AAAAAP8AAP8AAP8A
        AAAAAAAAAAAAAAAAAAAAAAAAAAAAAAAAAAAAAAAAAAAAAAAAAAAAAAAAAAAAAAAAAQEBAQEBAQEBAQEBAQEBAQEBAQEBAQEBAQEBAQEBAQEBAQEBAQEBAQEBAQEBAQEB
        AQEBAQEBAQEBAQEBAQEBAQECAwEDAgMEAQQDAQECAQMBAQEBAQEBAQEBAQEBAQEBAQEBAQEBAQEBAQEBAQEBAQEBAQEBAQEBAQEBAQEBAQFgYGBgYGBgYGBgYGBgYGBg
        YGBgYGBgYGBgYGBgYGBgYGBgYGBgYGBgYGBgYGBgYGBgYGBgYGBgYGBgYGBgYGBgAAAAAAAAAAAAAAAAAAAAAAAAAAAAAAAAAAAAAAAAAAAAAAAAAAAAAAAAAAAAAAAA
        AAAAAAAAAAAAAAAAAAAAAADMzMzMzMzMzMzMzADMzMzMddko0HTpGABWHPNSNPEYAEzpGABXLQAAHdgo0HTqGABc7hgAsHM1BszMzMzMzMxBcnAgNGsgU3VwZXJTYXcg
        MDcgKFlUIDFzdCBpbnRybykAxAAAAAAAvMp5AwAAAAAKID0DAAcAfwB/AkAAAQABAAAAAAAAAQAAfwDMzMzMzMzMzMzMzH/MzMzMddko0HTpGABWHPNSNPEYAEzpGACg
        LwAAHdgo0HTqGABc7hgAsHM1BszMzMzMzAAAAAAAAAAAAAAAAAAAAAAAAAAAAAAAAAAAAAAAAAAAAAAAAAAAAAAAAAAAAAAAAAAAAAAAAAAAAAAAAAAAAAAA/wD/AP8A
        /wD/AP8A/wD/AP8A/wD/AP8A/wD/AP8AAAAAAAAAAAAAAAAAAAAAAAAAAAAAAAAAAAAAAAAAAAAAAQEBAQEBAQEBAQEBAQEBAQEBAQEBAQEBAQEBAQEBAQEBAQEBAQEB
        AQEBAQEBAQEBAQEBAQEBAQEBAQEBAQEBAQEBAgEDAQEBAgEDAQEBAgEDAQEBAgEDAQEBAgEDAQMCAQEBAQEBAQEBAQEBAQEBAQEBAQEBAQEBAQEBAQEBAQFgYGBgYGBg
        YGBgYGBgYGBgYGBgYGBgYGBgYGBgYGBgYGBgYGBgYGBgYGBgYGBgYGBgYGBgYGBgYGBgYGBgYGBgAAAAAAAAAAAAAAAAAAAAAAAAAAAAAAAAAAAAAAAAAAAAAAAAAAAA
        AAAAAAAAAAAAAAAAAAAAAAAAAAAAAAAAAADMzMzMzMzMzMzMzADMzMzMddko0HTpGABWHPNSNPEYAEzpGACgLwAAHdgo0HTqGABc7hgAsHM1BszMzMzMzMxBcnAgM2sg
        U3VwZXJTYXcgMDggKDMyIHN0ZXBzKQAAAJAuxAAAAAAAvMp5AwAAAAAKEEUDAAQAfwB/AkAAAQAAAAAAAAAAAAAAfwDMzMzMzMzMzMzMzH/MzMzMddko0HTpGABWHPNS
        NPEYAEzpGADpMQAAHdgo0HTqGABc7hgAsHM1BszMzMzMzAAAAAAAAAAAAAAAAAAAAAAAAAAAAAAAAAAAAAAAAAAAAAAAAAAAAAAAAAAAAAAAAAAAAAAAAAAAAAAAAAAA
        AAD//wD//wD//wD//wD//wD/AAAAAAAAAAAAAAAAAAAAAAAAAAAAAAAAAAAAAAAAAAAAAAAAAAAAAAAAAAAAAAAAAQABAAEBAAEBAAEBAAEBAAEBAQEBAQEBAQEBAQEB
        AQEBAQEBAQEBAQEBAQEBAQEBAQEBAQEBAQEBAQEBAQEBAQEBAgEBAgEBAgEBAgEBAgEBAQEBAQEBAQEBAQEBAQEBAQEBAQEBAQEBAQEBAQEBAQEBAQEBAQEBAQEBAQEB
        AQFgYGBgYGBgYGBgYGBgYGBgYGBgYGBgYGBgYGBgYGBgYGBgYGBgYGBgYGBgYGBgYGBgYGBgYGBgYGBgYGBgYGBgAAAAAAAAAAAAAAAAAAAAAAAAAAAAAAAAAAAAAAAA
        AAAAAAAAAAAAAAAAAAAAAAAAAAAAAAAAAAAAAAAAAAAAAADMzMzMzMzMzMzMzADMzMzMddko0HTpGABWHPNSNPEYAEzpGADpMQAAHdgo0HTqGABc7hgAsHM1BszMzMzM
        zMxBcnAgMmsgU3VwZXJTYXcgMDkgKFlUIERlbW8gPykAAJAuxAAAAAAAvMp5AwAAAAAKEDwDAAQAfwB/AkAAAQABAAAAAAAAAAAAfwAAAAAAAAAAAAAAAAAAAAAAAAAA
        AAAAAAAAAAAAAAAAAAAAAAAAAAAAAAAAAAAAAAAAAAAAAAAAAAAAAAAAAAAAAAAAAAAAAAAAAAAAAAAAAAAAAAAAAAAAAAAAAAAAAAAAAAAAAAAAAAAAAAAAAAAAAAAA
        AAAAAAAAAAAAAAD+/wD+/wD+/wD+/wD+/wD/AAAAAAAAAAAAAAAAAAAAAAAAAAAAAAAAAAAAAAAAAAAAAAAAAAAAAAAAAAAAAAAAAQEBAQEBAQEBAQEBAQEBAQEBAQEB
        AQEBAQEBAQEBAQEBAQEBAQEBAQEBAQEBAQEBAQEBAQEBAQEBAQEBAQEBAQEBAgEBAgEBAgEBAgEBAgEBAQEBAQEBAQEBAQEBAQEBAQEBAQEBAQEBAQEBAQEBAQEBAQEB
        AQEBAQEBAQEBAQFgYGBgYGBgYGBgYGBgYGBgYGBgYGBgYGBgYGBgYGBgYGBgYGBgYGBgYGBgYGBgYGBgYGBgYGBgYGBgYGBgYGBgAAAAAAAAAAAAAAAAAAAAAAAAAAAA
        AAAAAAAAAAAAAAAAAAAAAAAAAAAAAAAAAAAAAAAAAAAAAAAAAAAAAAAAAAAAAAAAAAAAAAAAAAAAAAAAAAAAAAAAAAAAAAAAAAAAAAAAAAAAAAAAAAAAAAAAAAAAAAAA
        AAAAAAAAAAAAAABBcnAgMmsgU3VwZXJTYXcgMTAgKEFybWluKQDMzMzMzMzMzMzMzMzMzMzMzMzMzMwKID0DAAAAfwB/AkAAAQAAAAAAAAAAAQAAfwDMzMzMzMzMzMzM
        zH/MzMzMddko0HTpGABWHPNSNPEYAEzpGAB7NgAAHdgo0HTqGABc7hgAsHM1BszMzMzMzAAAAAAAAAAAAAAAAAAAAAAAAAAAAAAAAAAAAAAAAAAAAAAAAAAAAAAAAAAA
        AAAAAAAAAAAAAAAAAAAAAAAAAAAA/v8A/v8A/wD+/wD//gD/AP7/AP7/AP7//gD+/wD+/wAAAAAAAAAAAAAAAAAAAAAAAAAAAAAAAAAAAAAAAAAAAQEBAQEBAQEBAQEB
        AQEBAQEBAQEBAQEBAQEBAQEBAQEBAQEBAQEBAQEBAQEBAQEBAQEBAQEBAQEBAQEBAQEBAQIBAQMBAQMBAgEBAwEBAwECAQEDAQEDAQEBAwEBAwEBAQEBAQEBAQEBAQEB
        AQEBAQEBAQEBAQEBAQEBAQEBAQFgYGBgYGBgYGBgYGBgYGBgYGBgYGBgYGBgYGBgYGBgYGBgYGBgYGBgYGBgYGBgYGBgYGBgYGBgYGBgYGBgYGBgAAAAAAAAAAAAAAAA
        AAAAAAAAAAAAAAAAAAAAAAAAAAAAAAAAAAAAAAAAAAAAAAAAAAAAAAAAAAAAAAAAAAAAAADMzMzMzMzMzMzMzADMzMzMddko0HTpGABWHPNSNPEYAEzpGAB7NgAAHdgo
        0HTqGABc7hgAsHM1BszMzMzMzMxBcnAgMmsgU3VwZXJTYXcgMTEgKEJlbmFzc2kpAP///5AuxAAAAAAAvMp5AwAAAAAKEDUDAAEAfwB/AkAAAQABAAAAAAAAAAAAfwDM
        zMzMzMzMzMzMzH/MzMzMddko0HTpGABWHPNSNPEYAEzpGADEOAAAHdgo0HTqGABc7hgAsHM1BszMzMzMzAAAAAAAAAAAAAAAAAAAAAAAAAAAAAAAAAAAAAAAAAAAAAAA
        AAAAAAAAAAAAAAAAAAAAAAAAAAAAAAAAAAAAAAAB/wH/Af8AAf8AAf8B/wD/AAAAAAAAAAAAAAAAAAAAAAAAAAAAAAAAAAAAAAAAAAAAAAAAAAAAAAAAAAAAAAAAAQEB
        AQEBAQEBAQEBAQEBAQEBAQEBAQEBAQEBAQEBAQEBAQEBAQEBAQEBAQEBAQEBAQEBAQEBAQEBAQEBAQEBAQMBAgECAQEDAQECAQIBAQEBAQEBAQEBAQEBAQEBAQEBAQEB
        AQEBAQEBAQEBAQEBAQEBAQEBAQEBAQEBAQEBAQFgYGBgYGBgYGBgYGBgYGBgYGBgYGBgYGBgYGBgYGBgYGBgYGBgYGBgYGBgYGBgYGBgYGBgYGBgYGBgYGBgYGBgAAAA
        AAAAAAAAAAAAAAAAAAAAAAAAAAAAAAAAAAAAAAAAAAAAAAAAAAAAAAAAAAAAAAAAAAAAAAAAAAAAAAAAAADMzMzMzMzMzMzMzADMzMzMddko0HTpGABWHPNSNPEYAEzp
        GADEOAAAHdgo0HTqGABc7hgAsHM1BszMzMzMzMxBcnAgMmsgU3VwZXJTYXcgMTIAAAAAAADkBPcAAAAAAJAuxAAAAAAAvMp5AwAAAAAKEGQDAAEAfxNxAk0AAQAACQAA
        AAAAAAAAfwDMzMzMzMzMzMzMzH/MzMzMddko0HTpGABWHPNSNPEYAEzpGAANOwAAHdgo0HTqGABc7hgAsHM1BszMzMzMzAAAAAAAAAAAAAAAAAAAAAAAAAAAAAAAAAAA
        AAAAAAAAAAAAAAAAAAAAAAAAAAAAAAAAAAAAAAAAAAAAAAAAAAAAAQAAAQAAAAABAAABAAEAAAAAAAAAAAAAAAAAAAAAAAAAAAAAAAAAAAAAAAAAAAAAAAAAAAAAAAAA
        AAAAAAAAAQEBAQEAAQEAAQEAAQEBAQEBAQEBAQEBAQEBAQEBAQEBAQEBAQEBAQEBAQEBAQEBAQEBAQEBAQEBAQEBAQEBAQECAQQCAQMBAQIBAQIBAwEBAQEBAQEBAQEB
        AQEBAQEBAQEBAQEBAQEBAQEBAQEBAQEBAQEBAQEBAQEBAQEBAQFwUEBgUFB/YEBQYGBwYFBwYGBgYGBgYGBgYGBgYGBgYGBgYGBgYGBgYGBgYGBgYGBgYGBgYGBgYGBg
        YGBgYGBgAAAAAAAAAAAAAAAAAAAAAAAAAAAAAAAAAAAAAAAAAAAAAAAAAAAAAAAAAAAAAAAAAAAAAAAAAAAAAAAAAAAAAADMzMzMzMzMzMzMzADMzMzMddko0HTpGABW
        HPNSNPEYAEzpGAANOwAAHdgo0HTqGABc7hgAsHM1BszMzMzMzMxBcnAgMmsgU3VwZXJTYXcgMTMgKHBocmVhcXVlKQD//5AuxAAAAAAAvMp5AwAAAAAKCB8FAAEAfwB/
        AkAAAQABAAAAAAAAAAAAfwAAAAAAAAAAAAAAAAAAAAAAAAAAAAAAAAAAAAAAAAAAAAAAAAAAAAAAAAAAAAAAAAAAAAAAAAAAAAAAAAAAAAAAAAAAAAAAAAAAAAAAAAAA
        AAAAAAAAAAAAAAAAAAAAAAAAAAAAAAAAAAAAAAAAAAAAAAAAAAAAAAAAAAAAAAAAAAAAAAAAAAAAAAAAAAAAAAAAAAAAAAAAAAAAAAAAAAAAAAAAAAAAAAAAAAAAAAAA
        AAAAAAAAAAAAAAAAAAAAAQEBAQEBAQEBAQEBAQEBAQEBAQEBAQEBAQEBAQEBAQEBAQEBAQEBAQEBAQEBAQEBAQEBAQEBAQEBAQEBAQEBAQMBAgEDAQIBAQEBAQEBAQEB
        AQEBAQEBAQEBAQEBAQEBAQEBAQEBAQEBAQEBAQEBAQEBAQEBAQEBAQEBAQEBAQFgYGBQYGBgUGBgYGBgYGBgYGBgYGBgYGBgYGBgYGBgYGBgYGBgYGBgYGBgYGBgYGBg
        YGBgYGBgYGBgYGBgYGBgAAAAAAAAAAAAAAAAAAAAAAAAAAAAAAAAAAAAAAAAAAAAAAAAAAAAAAAAAAAAAAAAAAAAAAAAAAAAAAAAAAAAAAAAAAAAAAAAAAAAAAAAAAAA
        AAAAAAAAAAAAAAAAAAAAAAAAAAAAAAAAAAAAAAAAAAAAAAAAAAAAAAAAAAAAAABBcnAgM2sgQmVsbHMgMDEAzMzMzMzMzMzMzMzMzMzMzMzMzMzMzMzMzMzMzMzMzMwK
        CB8FAAAAfwB/AkAAAQABAAAAAAAAAAAAfwDMzMzMzMzMzMzMzH/MzMzMddko0HTpGABWHPNSNPEYAEzpGACfPwAAHdgo0HTqGABc7hgAsHM1BszMzMzMzAAAAAAAAAAA
        AAAAAAAAAAAAAAAAAAAAAAAAAAAAAAAAAAAAAAAAAAAAAAAAAAAAAAAAAAAAAAAAAAAAAAAAAAAAAAAAAAAAAAAAAAAAAAAAAAAAAAAAAAAAAAAAAAAAAAAAAAAAAAAA
        AAAAAAAAAAAAAAAAAAAAAAAAAAAAAAAAAQEBAQEBAQEBAQEBAQEBAQEBAQEBAQEBAQEBAQEBAQEBAQEBAQEBAQEBAQEBAQEBAQEBAQEBAQEBAQEBAQEBAQMCAQMCAQMC
        AQEBAQEBAQEBAQEBAQEBAQEBAQEBAQEBAQEBAQEBAQEBAQEBAQEBAQEBAQEBAQEBAQEBAQEBAQFgYGBgYGBgYGBgYGBgYGBgYGBgYGBgYGBgYGBgYGBgYGBgYGBgYGBg
        YGBgYGBgYGBgYGBgYGBgYGBgYGBgYGBgAAAAAAAAAAAAAAAAAAAAAAAAAAAAAAAAAAAAAAAAAAAAAAAAAAAAAAAAAAAAAAAAAAAAAAAAAAAAAAAAAAAAAADMzMzMzMzM
        zMzMzADMzMzMddko0HTpGABWHPNSNPEYAEzpGACfPwAAHdgo0HTqGABc7hgAsHM1BszMzMzMzMxBcnAgM2sgQmVsbHMgMDIAcAAAAAAAAAD//////////5AuxAAAAAAA
        vMp5AwAAAAAKCE0FAAgAfwB/Ak0AAQAAAAAAAAAAAAAAfwDMzMzMzMzMzMzMzH/MzMzMddko0HTpGABWHPNSNPEYAEzpGADoQQAAHdgo0HTqGABc7hgAsHM1BszMzMzM
        zAAAAAAAAAAAAAAAAAAAAAAAAAAAAAAAAAAAAAAAAAAAAAAAAAAAAAAAAAAAAAAAAAAAAAAAAAAAAAAAAAAAAAD/AAAA/wAAAQAAAAAAAAAAAAAAAAAAAAAAAAAAAAAA
        AAAAAAAAAAAAAAAAAAAAAAAAAAAAAAAAAAAAAAAAAAAAAQEBAQEBAQEBAQEBAQEBAQEBAQEBAQEBAQEBAQEBAQEBAQEBAQEBAQEBAQEBAQEBAQEBAQEBAQEBAQEBAQEB
        AQEBAgMBAQIBAQEBAQEBAQEBAQEBAQEBAQEBAQEBAQEBAQEBAQEBAQEBAQEBAQEBAQEBAQEBAQEBAQEBAQEBAQFgYGBgYGBgYGBgYGBgYGBgYGBgYGBgYGBgYGBgYGBg
        YGBgYGBgYGBgYGBgYGBgYGBgYGBgYGBgYGBgYGBgYGBgAAAAAAAAAAAAAAAAAAAAAAAAAAAAAAAAAAAAAAAAAAAAAAAAAAAAAAAAAAAAAAAAAAAAAAAAAAAAAAAAAAAA
        AADMzMzMzMzMzMzMzADMzMzMddko0HTpGABWHPNSNPEYAEzpGADoQQAAHdgo0HTqGABc7hgAsHM1BszMzMzMzMxBcnAgMmsgU29mdEJlbGxzIDAxAAAAAADXBPcAAAAA
        AJAuxAAAAAAAvMp5AwAAAAAKCEIFAAgAfwB/AkAAAQABAAAAAAAAAAAAfwDMzMzMzMzMzMzMzH/MzMzMddko0HTpGABWHPNSNPEYAEzpGAAxRAAAHdgo0HTqGABc7hgA
        sHM1BszMzMzMzAAAAAAAAAAAAAAAAAAAAAAAAAAAAAAAAAAAAAAAAAAAAAAAAAAAAAAAAAAAAAAAAAAAAAAAAAAAAAAAAAAAAAD/AQAA/wEAAAAAAAAAAAAAAAAAAAAA
        AAAAAAAAAAAAAAAAAAAAAAAAAAAAAAAAAAAAAAAAAAAAAAAAAAAAAAAAAQEBAQEBAQEBAQEBAQEBAQEBAQEBAQEBAQEBAQEBAQEBAQEBAQEBAQEBAQEBAQEBAQEBAQEB
        AQEBAQEBAQEBAQEBAQIBAQEDAQEBAQEBAQEBAQEBAQEBAQEBAQEBAQEBAQEBAQEBAQEBAQEBAQEBAQEBAQEBAQEBAQEBAQEBAQFgYGBgYGBgYGBgYGBgYGBgYGBgYGBg
        YGBgYGBgYGBgYGBgYGBgYGBgYGBgYGBgYGBgYGBgYGBgYGBgYGBgYGBgAAAAAAAAAAAAAAAAAAAAAAAAAAAAAAAAAAAAAAAAAAAAAAAAAAAAAAAAAAAAAAAAAAAAAAAA
        AAAAAAAAAAAAAADMzMzMzMzMzMzMzADMzMzMddko0HTpGABWHPNSNPEYAEzpGAAxRAAAHdgo0HTqGABc7hgAsHM1BszMzMzMzMxBcnAgMmsgU29mdEJlbGxzIDAyAAAA
        AADXBPcAAAAAAJAuxAAAAAAAvMp5AwAAAAAKEEgDAAAAfwB/AkAAAQAAAAAAAAAAAAAAfwDMzMzMzMzMzMzMzH/MzMzMddko0HTpGABWHPNSNPEYAEzpGAB6RgAAHdgo
        0HTqGABc7hgAsHM1BszMzMzMzAAAAAAAAAAAAAAAAAAAAQAAAAAAAAAAAAAAAAAAAAAAAAAAAAAAAAAAAAAAAAAAAAAAAAAAAAAAAAAAAAAAAAD/AP//AP8AAAD/AAAA
        /wAAAAAAAAAAAAAAAAAAAAAAAAAAAAAAAAAAAAAAAAAAAAAAAAAAAAAAAAAAAAAAAAAAAQABAAABAwABAQABAAEDAAEBAQEBAQEBAQEBAQEBAQEBAQEBAQEBAQEBAQEB
        AQEBAQEBAQEBAQEBAQEBAQEBAQEBAQEBAQEBAQEBAQEBAQEBAQEBAQEBAQEBAQEBAQEBAQEBAQEBAQEBAQEBAQEBAQEBAQEBAQEBAQEBAQEBAQFgYGBgYGBgYGBgYGBg
        YGBgYGBgYGBgYGBgYGBgYGBgYGBgYGBgYGBgYGBgYGBgYGBgYGBgYGBgYGBgYGBgYGBgAAAAAAAAAAAAAAAAAAAAAAAAAAAAAAAAAAAAAAAAAAAAAAAAAAAAAAAAAAAA
        AAAAAAAAAAAAAAAAAAAAAAAAAADMzMzMzMzMzMzMzADMzMzMddko0HTpGABWHPNSNPEYAEzpGAB6RgAAHdgo0HTqGABc7hgAsHM1BszMzMzMzMxTZXEgMmsgQWNpZE1v
        bm8gMDEAAAAAAAD//////////5AuxAAAAAAAvMp5AwAAAAAKEEIDAAUAfwB/AkAAAQAAAAAAAAAAAAAAfwDMzMzMzMzMzMzMzH/MzMzMddko0HTpGABWHPNSNPEYAEzp
        GADDSAAAHdgo0HTqGABc7hgAsHM1BszMzMzMzAAAAAAAAAAHAAAAAAAAAAAAAAAAAAAAAAAAAAAAAAAAAAAAAAAAAAAAAAAAAAAAAAAAAAAAAAAAAAAAAAAAAAD/AAD/
        AAAA/wD//wD/AAD/AAAAAAAAAAAAAAAAAAAAAAAAAAAAAAAAAAAAAAAAAAAAAAAAAAAAAAAAAAAAAAAAAQAAAQAAAQMAAQMAAQIBAwEBAQEBAQEBAQEBAQEBAQEBAQEB
        AQEBAQEBAQEBAQEBAQEBAQEBAQEBAQEBAQEBAQEBAQEBAQEBAQECAQEBAQIBAQEBAQEBAQEBAQEBAQEBAQEBAQEBAQEBAQEBAQEBAQEBAQEBAQEBAQEBAQEBAQFgYGBg
        YGBgYGBgYGBgYGBgYGBgYGBgYGBgYGBgYGBgYGBgYGBgYGBgYGBgYGBgYGBgYGBgYGBgYGBgYGBgYGBgAAAAAAAAAAAAAAAAAAAAAAAAAAAAAAAAAAAAAAAAAAAAAAAA
        AAAAAAAAAAAAAAAAAAAAAAAAAAAAAAAAAAAAAADMzMzMzMzMzMzMzADMzMzMddko0HTpGABWHPNSNPEYAEzpGADDSAAAHdgo0HTqGABc7hgAsHM1BszMzMzMzMxTZXEg
        MmsgQWNpZE1vbm8gMDIAAAAAAAD//////////5AuxAAAAAAAvMp5AwAAAAAKEDoDAAAAfwB/AkAAAQAAAAAAAAAAAAAAfwAAAAAAAAAAAAAAAAAAAAAAAAAAAAAAAAAA
        AAAAAAAAAAAAAAAAAAAAAAAAAAAAAAAAAAAAAAAAAAAAAAAAAAAAAAAAAAAAAAAAAAAAAAAAAAAAAAAAAAAAAAAAAAAAAAAAAAAAAAAAAAAAAAAAAAAAAAAAAAAAAAAA
        AAAAAAAA/wAB/wAAAP8AAAD/AP8AAAAAAAAAAAAAAAAAAAAAAAAAAAAAAAAAAAAAAAAAAAAAAAAAAAAAAAAAAAAAAAAAAQEBAwEBAwMBAwEDAQIBAQEBAQEBAQEBAQEB
        AQEBAQEBAQEBAQEBAQEBAQEBAQEBAQEBAQEBAQEBAQEBAQEBAQEBAQEBAQIBAQEBAgEBAQIBAQEBAQEBAQEBAQEBAQEBAQEBAQEBAQEBAQEBAQEBAQEBAQEBAQEBAQEB
        AQEBAQFgYGBgYGBgYGBgYGBgYGBgYGBgYGBgYGBgYGBgYGBgYGBgYGBgYGBgYGBgYGBgYGBgYGBgYGBgYGBgYGBgYGBgAAAAAAAAAAAAAAAAAAAAAAAAAAAAAAAAAAAA
        AAAAAAAAAAAAAAAAAAAAAAAAAAAAAAAAAAAAAAAAAAAAAAAAAAAAAAAAAAAAAAAAAAAAAAAAAAAAAAAAAAAAAAAAAAAAAAAAAAAAAAAAAAAAAAAAAAAAAAAAAAAAAAAA
        AAAAAABTZXEgMmsgQWNpZE1vbm8gMDMAzMzMzMzMzMzMzMzMzMzMzMzMzMzMzMzMzMzMzMwKEDoDAAAAfwB/AkAAAQAAAAAAAAAAAAAAfwDMzMzMzMzMzMzMzH/MzMzM
        ddko0HTpGABWHPNSNPEYAEzpGABVTQAAHdgo0HTqGABc7hgAsHM1BszMzMzMzAAAAAAAAAAAAAAAAAAAAQAAAAAAAAAAAAAAAAAAAAAAAAAAAAAAAAAAAAAAAAAAAAAA
        AAAAAAAAAAAAAAAAAAAAAQD/AAD/AAAA/wD/AAD/AAAAAAAAAAAAAAAAAAAAAAAAAAAAAAAAAAAAAAAAAAAAAAAAAAAAAAAAAAAAAAAAAQEDAQEDAQMBAwEBAQEBAQEB
        AQEBAQEBAQEBAQEBAQEBAQEBAQEBAQEBAQEBAQEBAQEBAQEBAQEBAQEBAQEBAQEBAQECAQEBAQIBAQECAQEBAQEBAQEBAQEBAQEBAQEBAQEBAQEBAQEBAQEBAQEBAQEB
        AQEBAQEBAQEBAQEBAQFgYGBgYGBgYGBgYGBgYGBgYGBgYGBgYGBgYGBgYGBgYGBgYGBgYGBgYGBgYGBgYGBgYGBgYGBgYGBgYGBgYGBgAAAAAAAAAAAAAAAAAAAAAAAA
        AAAAAAAAAAAAAAAAAAAAAAAAAAAAAAAAAAAAAAAAAAAAAAAAAAAAAAAAAAAAAADMzMzMzMzMzMzMzADMzMzMddko0HTpGABWHPNSNPEYAEzpGABVTQAAHdgo0HTqGABc
        7hgAsHM1BszMzMzMzMxTZXEgMmsgQWNpZE1vbm8gMDQAAAAAAADXBPcAAAAAAJAuxAAAAAAAvMp5AwAAAAAKBEgDAAAAfwB/AkAAAQAAAAAAAAAAAAAAfwDMzMzMzMzM
        zMzMzH/MzMzMddko0HTpGABWHPNSNPEYAEzpGACeTwAAHdgo0HTqGABc7hgAsHM1BszMzMzMzAAAAAAAAAAAAAAAAAAAAAAAAAAAAAAAAAAAAAAAAAAAAAAAAAAAAAAA
        AAAAAAAAAAAAAAAAAAAAAAAAAAAAAAD//wAAAAAAAAAAAAAAAAAAAAAAAAAAAAAAAAAAAAAAAAAAAAAAAAAAAAAAAAAAAAAAAAAAAAAAAAAAAAAAAAAAAQIBAQEBAQEB
        AQEBAQEBAQEBAQEBAQEBAQEBAQEBAQEBAQEBAQEBAQEBAQEBAQEBAQEBAQEBAQEBAQEBAQEBAQEBAQEBAQEBAQEBAQEBAQEBAQEBAQEBAQEBAQEBAQEBAQEBAQEBAQEB
        AQEBAQEBAQEBAQEBAQEBAQEBAQEBAQFgYGBgYGBgYGBgYGBgYGBgYGBgYGBgYGBgYGBgYGBgYGBgYGBgYGBgYGBgYGBgYGBgYGBgYGBgYGBgYGBgYGBgAAAAAAAAAAAA
        AAAAAAAAAAAAAAAAAAAAAAAAAAAAAAAAAAAAAAAAAAAAAAAAAAAAAAAAAAAAAAAAAAAAAAAAAADMzMzMzMzMzMzMzADMzMzMddko0HTpGABWHPNSNPEYAEzpGACeTwAA
        Hdgo0HTqGABc7hgAsHM1BszMzMzMzMxCYXNzIDFrIFNpbXBsZSAwMQAAAAAAAAD//////////5AuxAAAAAAAvMp5AwAAAAAKBEgDAAAAfwB/AkAAAQAAAAAAAAAAAAAA
        fwDMzMzMzMzMzMzMzH/MzMzMddko0HTpGABWHPNSNPEYAEzpGADnUQAAHdgo0HTqGABc7hgAsHM1BszMzMzMzAAAAAAAAAAAAAAAAAAAAAAAAAAAAAAAAAAAAAAAAAAA
        AAAAAAAAAAAAAAAAAAAAAAAAAAAAAAAAAAAAAAAAAAD//wAAAAAAAAAAAAAAAAAAAAAAAAAAAAAAAAAAAAAAAAAAAAAAAAAAAAAAAAAAAAAAAAAAAAAAAAAAAAAAAAAA
        AQEBAQEBAQEBAQEBAQEBAQEBAQEBAQEBAQEBAQEBAQEBAQEBAQEBAQEBAQEBAQEBAQEBAQEBAQEBAQEBAQEBAQEBAQEBAQEBAQEBAQEBAQEBAQEBAQEBAQEBAQEBAQEB
        AQEBAQEBAQEBAQEBAQEBAQEBAQEBAQEBAQEBAQEBAQFgYGBgYGBgYGBgYGBgYGBgYGBgYGBgYGBgYGBgYGBgYGBgYGBgYGBgYGBgYGBgYGBgYGBgYGBgYGBgYGBgYGBg
        AAAAAAAAAAAAAAAAAAAAAAAAAAAAAAAAAAAAAAAAAAAAAAAAAAAAAAAAAAAAAAAAAAAAAAAAAAAAAAAAAAAAAADMzMzMzMzMzMzMzADMzMzMddko0HTpGABWHPNSNPEY
        AEzpGADnUQAAHdgo0HTqGABc7hgAsHM1BszMzMzMzMxCYXNzIDFrIFNpbXBsZSAwMgAAAAAAAADXBPcAAAAAAJAuxAAAAAAAvMp5AwAAAAAKBEgDAAAAfwB/AkAAAQAA
        AAAAAAAAAAAAfwDMzMzMzMzMzMzMzH/MzMzMddko0HTpGABWHPNSNPEYAEzpGAAwVAAAHdgo0HTqGABc7hgAsHM1BszMzMzMzAAAAAAAAAAAAAAAAAAAAAAAAAAAAAAA
        AAAAAAAAAAAAAAAAAAAAAAAAAAAAAAAAAAAAAAAAAAAAAAAAAAAAAAD//wAAAAAAAAAAAAAAAAAAAAAAAAAAAAAAAAAAAAAAAAAAAAAAAAAAAAAAAAAAAAAAAAAAAAAA
        AAAAAAAAAAAAAQIBAgEBAQEBAQEBAQEBAQEBAQEBAQEBAQEBAQEBAQEBAQEBAQEBAQEBAQEBAQEBAQEBAQEBAQEBAQEBAQEBAQEBAQEBAQEBAQEBAQEBAQEBAQEBAQEB
        AQEBAQEBAQEBAQEBAQEBAQEBAQEBAQEBAQEBAQEBAQEBAQEBAQEBAQFgYGBgYGBgYGBgYGBgYGBgYGBgYGBgYGBgYGBgYGBgYGBgYGBgYGBgYGBgYGBgYGBgYGBgYGBg
        YGBgYGBgYGBgAAAAAAAAAAAAAAAAAAAAAAAAAAAAAAAAAAAAAAAAAAAAAAAAAAAAAAAAAAAAAAAAAAAAAAAAAAAAAAAAAAAAAADMzMzMzMzMzMzMzADMzMzMddko0HTp
        GABWHPNSNPEYAEzpGAAwVAAAHdgo0HTqGABc7hgAsHM1BszMzMzMzMxCYXNzIDFrIFNpbXBsZSAwMwAAAAAAAADXBPcAAAAAAJAuxAAAAAAAvMp5AwAAAAAKBEgDAAAA
        fwB/AkAAAQAAAAAAAAAAAAAAfwDMzMzMzMzMzMzMzH/MzMzMddko0HTpGABWHPNSNPEYAEzpGAB5VgAAHdgo0HTqGABc7hgAsHM1BszMzMzMzAAAAAAAAAAAAAAAAAAA
        AAAAAAAAAAAAAAAAAAAAAAAAAAAAAAAAAAAAAAAAAAAAAAAAAAAAAAAAAAAAAAAAAAAAAAAAAAAAAAAAAAAAAAAAAAAAAAAAAAAAAAAAAAAAAAAAAAAAAAAAAAAAAAAA
        AAAAAAAAAAAAAAAAAAAAAAAAAAABAAEBAQEBAQEBAQEBAQEBAQEBAQEBAQEBAQEBAQEBAQEBAQEBAQEBAQEBAQEBAQEBAQEBAQEBAQEBAQEBAQEBAQEBAQEBAQEBAQEB
        AQEBAQEBAQEBAQEBAQEBAQEBAQEBAQEBAQEBAQEBAQEBAQEBAQEBAQEBAQEBAQEBAQFgYGBgYGBgYGBgYGBgYGBgYGBgYGBgYGBgYGBgYGBgYGBgYGBgYGBgYGBgYGBg
        YGBgYGBgYGBgYGBgYGBgYGBgAAAAAAAAAAAAAAAAAAAAAAAAAAAAAAAAAAAAAAAAAAAAAAAAAAAAAAAAAAAAAAAAAAAAAAAAAAAAAAAAAAAAAADMzMzMzMzMzMzMzADM
        zMzMddko0HTpGABWHPNSNPEYAEzpGAB5VgAAHdgo0HTqGABc7hgAsHM1BszMzMzMzMxCYXNzIDFrIFNpbXBsZSAwNAAAAAAAAADXBPcAAAAAAJAuxAAAAAAAvMp5AwAA
        AAAKCGQDAAAAfwB/AkAAAQAAAAAAAAAAAAAAfwDMzMzMzMzMzMzMzH/MzMzMddko0HTpGABWHPNSNPEYAEzpGADCWAAAHdgo0HTqGABc7hgAsHM1BszMzMzMzAAAAAAA
        AAAAAAAAAAAAAAAAAAAAAAAAAAAAAAAAAAAAAAAAAAAAAAAAAAAAAAAAAAAAAAAAAAAAAAAAAAAAAAAAAAAAAAAAAAAAAAAAAAAAAAAAAAAAAAAAAAAAAAAAAAAAAAAA
        AAAAAAAAAAAAAAAAAAAAAAAAAAAAAAAAAAAAAAAAAQAAAQIAAAABAAABAgEBAQEBAQEBAQEBAQEBAQEBAQEBAQEBAQEBAQEBAQEBAQEBAQEBAQEBAQEBAQEBAQEBAQEB
        AQEBAQEBAQEBAQEBAQEBAQEBAQEBAQEBAQEBAQEBAQEBAQEBAQEBAQEBAQEBAQEBAQEBAQEBAQEBAQFgYGBgYGBgYGBgYGBgYGBgYGBgYGBgYGBgYGBgYGBgYGBgYGBg
        YGBgYGBgYGBgYGBgYGBgYGBgYGBgYGBgYGBgAAAAAAAAAAAAAAAAAAAAAAAAAAAAAAAAAAAAAAAAAAAAAAAAAAAAAAAAAAAAAAAAAAAAAAAAAAAAAAAAAAAAAADMzMzM
        zMzMzMzMzADMzMzMddko0HTpGABWHPNSNPEYAEzpGADCWAAAHdgo0HTqGABc7hgAsHM1BszMzMzMzMxCYXNzIDFrIERyaWZ0IG9mZmJlYXQAAAD//////////5AuxAAA
        AAAAvMp5AwAAAAAKCF8DAAAAfwB/AkAAAQAAAAAAAAAAAAAAfwDMzMzMzMzMzMzMzH/MzMzMddko0HTpGABWHPNSNPEYAEzpGAALWwAAHdgo0HTqGABc7hgAsHM1BszM
        zMzMzAAAAAAAAAAAAAAAAAAAAAAAAAAAAAAAAAAAAAAAAAAAAAAAAAAAAAAAAAAAAAAAAAAAAAAAAAAAAAAAAAAAAAAAAAAAAAAAAAAAAAAAAAAAAAAAAAAAAAAAAAAA
        AAAAAAAAAAAAAAAAAAAAAAAAAAAAAAAAAAAAAAAAAAAAAAAAAAEAAQAAAQIBAQEBAQEBAQEBAQEBAQEBAQEBAQEBAQEBAQEBAQEBAQEBAQEBAQEBAQEBAQEBAQEBAQEB
        AQEBAQEBAQEBAQEBAQEBAQEBAQEBAQEBAQEBAQEBAQEBAQEBAQEBAQEBAQEBAQEBAQEBAQEBAQEBAQEBAQEBAQEBAQFgYGBgYGBgYGBgYGBgYGBgQEBAQEBAQEBAQEBA
        QEBAQEBAQEBAQEBAQEBAQEBAQEBAQEBAQEBAQEBAQEBAQEBAAAAAAAAAAAAAAAAAAAAAAAAAAAAAAAAAAAAAAAAAAAAAAAAAAAAAAAAAAAAAAAAAAAAAAAAAAAAAAAAA
        AAAAAADMzMzMzMzMzMzMzADMzMzMddko0HTpGABWHPNSNPEYAEzpGAALWwAAHdgo0HTqGABc7hgAsHM1BszMzMzMzMxCYXNzIDFrIFRyaXBsZSBkcmlmdCBvZmZiZWF0
        AP///5AuxAAAAAAAvMp5AwAAAAAKEEgDAAAAfwB/AkAAAQAAAAAAAAAAAAAAfwDMzMzMzMzMzMzMzH/MzMzMddko0HTpGABWHPNSNPEYAEzpGABUXQAAHdgo0HTqGABc
        7hgAsHM1BszMzMzMzAAAAAAAAAAAAAAAAAAAAAAAAAAAAAAAAAAAAAAAAAAAAAAAAAAAAAAAAAAAAAAAAAAAAAAAAAAAAAAAAAAAAAAAAAAAAAAAAAAAAAAAAAAAAAAA
        AAAAAAAAAAAAAAAAAAAAAAAAAAAAAAAAAAAAAAAAAAAAAAAAAAAAAAAAAAAAAQEAAQEAAQEAAQEAAQABAAEBAQEBAQEBAQEBAQEBAQEBAQEBAQEBAQEBAQEBAQEBAQEB
        AQEBAQEBAQEBAQEBAQEBAQEBAQEBAQEBAQEBAQEBAQEBAQEBAQEBAQEBAQEBAQEBAQEBAQEBAQEBAQEBAQEBAQEBAQEBAQEBAQEBAQFgYGBgYGBgYGBgYGBgYGBgYGBg
        YGBgYGBgYGBgYGBgYGBgYGBgYGBgYGBgYGBgYGBgYGBgYGBgYGBgYGBgYGBgAAAAAAAAAAAAAAAAAAAAAAAAAAAAAAAAAAAAAAAAAAAAAAAAAAAAAAAAAAAAAAAAAAAA
        AAAAAAAAAAAAAAAAAADMzMzMzMzMzMzMzADMzMzMddko0HTpGABWHPNSNPEYAEzpGABUXQAAHdgo0HTqGABc7hgAsHM1BszMzMzMzMxCYXNzIDFrIFRlY2hubyAwMQAA
        AAAAAAD//////////5AuxAAAAAAAvMp5AwAAAAAKIEgDAAAAfwB/AkAAAQABAAAAAAAAAQAAfwDMzMzMzMzMzMzMzH/MzMzMddko0HTpGABWHPNSNPEYAEzpGACdXwAA
        Hdgo0HTqGABc7hgAsHM1BszMzMzMzAAAAAAAAAAAAAAAAAAAAAAAAAAAAAAAAAAAAAAAAAAAAAAAAAAAAAAAAAAAAAAAAAAAAAAAAAAAAAAAAAAAAAAAAAAAAAAAAAAA
        AAAAAAAAAAAAAAAAAAAAAAAAAAAAAAAAAAAAAAAAAAAAAAAAAAAAAAAAAAAAAAAAAAAAAAAAAAABAAAAAQAAAAEAAAABAAAAAQAAAAEAAAABAAABAAEBAQEBAQEBAQEB
        AQEBAQEBAQEBAQEBAQEBAQEBAQEBAQEBAQEBAQEBAQEBAQEBAQEBAQEBAQEBAQEBAQEBAQEBAQEBAQEBAQEBAQEBAQEBAQEBAQEBAQEBAQEBAQEBAQFgYGBgYGBgYGBg
        YGBgYGBgYGBgYGBgYGBgYGBgYGBgYGBgYGBgYGBgYGBgYGBgYGBgYGBgYGBgYGBgYGBgYGBgAAAAAAAAAAAAAAAAAAAAAAAAAAAAAAAAAAAAAAAAAAAAAAAAAAAAAAAA
        AAAAAAAAAAAAAAAAAAAAAAAAAAAAAADMzMzMzMzMzMzMzADMzMzMddko0HTpGABWHPNSNPEYAEzpGACdXwAAHdgo0HTqGABc7hgAsHM1BszMzMzMzMxCYXNzIDFrIFRl
        Y2hubyAwMiAoMzIgc3RlcHMpAAAAAJAuxAAAAAAAvMp5AwAAAAAKEE8DAAQAfwB/AkAAAQAAAAAAAAAAAAAAfwDMzMzMzMzMzMzMzH/MzMzMddko0HTpGABWHPNSNPEY
        AEzpGADmYQAAHdgo0HTqGABc7hgAsHM1BszMzMzMzAAAAAAAAAAAAAAAAAAAAAAAAAAAAAAAAAAAAAAAAAAAAAAAAAAAAAAAAAAAAAAAAAAAAAAAAAAAAAAAAAAAAAAA
        AAAAAAAAAAAAAAAAAAAAAAAAAAAAAAAAAAAAAAAAAAAAAAAAAAAAAAAAAAAAAAAAAAAAAAAAAAAAAAAAAAAAAQEBAQEAAQABAAEAAQABAAEBAQEBAQEBAQEBAQEBAQEB
        AQEBAQEBAQEBAQEBAQEBAQEBAQEBAQEBAQEBAQEBAQEBAQEBAQEBAQEBAQEBAgEBAQEBAQEBAQEBAQEBAQEBAQEBAQEBAQEBAQEBAQEBAQEBAQEBAQEBAQEBAQEBAQFg
        YGBgYGBgYGBgYGBgYGBgYGBgYGBgYGBgYGBgYGBgYGBgYGBgYGBgYGBgYGBgYGBgYGBgYGBgYGBgYGBgYGBgAAAAAAAAAAAAAAAAAAAAAAAAAAAAAAAAAAAAAAAAAAAA
        AAAAAAAAAAAAAAAAAAAAAAAAAAAAAAAAAAAAAAAAAADMzMzMzMzMzMzMzADMzMzMddko0HTpGABWHPNSNPEYAEzpGADmYQAAHdgo0HTqGABc7hgAsHM1BszMzMzMzMxC
        YXNzIDJrIFRlY2hubyAwMwAAAAAAAAD//////////5AuxAAAAAAAvMp5AwAAAAAKEEQDAAQAfwB/AkAAAQABAAAAAAAAAAAAfwDMzMzMzMzMzMzMzH/MzMzMddko0HTp
        GABWHPNSNPEYAEzpGAAvZAAAHdgo0HTqGABc7hgAsHM1BszMzMzMzAAAAAAAAAAAAAAAAAAAAAAAAAAAAAAAAAAAAAAAAAAAAAAAAAAAAAAAAAAAAAAAAAAAAAAAAAAA
        AAAAAAAAAAAAAAAAAAAAAAAAAAEAAAAAAAAAAAAAAAAAAAAAAAAAAAAAAAAAAAAAAAAAAAAAAAAAAAAAAAAAAAAAAAAAAAAAAQABAAAAAQAAAQIBAQIAAAEBAQEBAQEB
        AQEBAQEBAQEBAQEBAQEBAQEBAQEBAQEBAQEBAQEBAQEBAQEBAQEBAQEBAQEBAQEBAQEBAQEBAQEBAQEBAQEBAQEBAQEBAQEBAQEBAQEBAQEBAQEBAQEBAQEBAQEBAQEB
        AQEBAQEBAQFgYGBgYGBgYGBgYGBgYGBgYGBgYGBgYGBgYGBgYGBgYGBgYGBgYGBgYGBgYGBgYGBgYGBgYGBgYGBgYGBgYGBgAAAAAAAAAAAAAAAAAAAAAAAAAAAAAAAA
        AAAAAAAAAAAAAAAAAAAAAAAAAAAAAAAAAAAAAAAAAAAAAAAAAAAAAADMzMzMzMzMzMzMzADMzMzMddko0HTpGABWHPNSNPEYAEzpGAAvZAAAHdgo0HTqGABc7hgAsHM1
        BszMzMzMzMxCYXNzIDNrIENvbXBsZXggMS0xAAAAAADmBPwAAAAAAJAuxAAAAAAAvMp5AwAAAAAKDEUEAAQAfwB/AkAAAQABAAAAAAAAAAAAfwDMzMzMzMzMzMzMzH/M
        zMzMddko0HTpGABWHPNSNPEYAEzpGAB4ZgAAHdgo0HTqGABc7hgAsHM1BszMzMzMzAAAAAAAAAAAAAAAAAAAAAAAAAAAAAAAAAAAAAAAAAAAAAAAAAAAAAAAAAAAAAAA
        AAAAAAAAAAAAAAAAAAAAAAAAAAAAAAAAAAAAAAAAAAAAAAAAAAAAAAAAAAAAAAAAAAAAAAAAAAAAAAAAAAAAAAAAAAAAAAAAAAAAAAAAAAAAAQIBAgECAQIBAgECAQEB
        AQEBAQEBAQEBAQEBAQEBAQEBAQEBAQEBAQEBAQEBAQEBAQEBAQEBAQEBAQEBAQEBAQICAgICAgMDAwMDAwEBAQEBAQEBAQEBAQEBAQEBAQEBAQEBAQEBAQEBAQEBAQEB
        AQEBAQEBAQEBAQEBAQEBAQFgYGBgYGBgYGBgYGBgYGBgYGBgYGBgYGBgYGBgYGBgYGBgYGBgYGBgYGBgYGBgYGBgYGBgYGBgYGBgYGBgYGBgAAAAAAAAAAAAAAAAAAAA
        AAAAAAAAAAAAAAAAAAAAAAAAAAAAAAAAAAAAAAAAAAAAAAAAAAAAAAAAAAAAAAAAAADMzMzMzMzMzMzMzADMzMzMddko0HTpGABWHPNSNPEYAEzpGAB4ZgAAHdgo0HTq
        GABc7hgAsHM1BszMzMzMzMxCYXNzIDNrIENvbXBsZXggMS0yAAAAAADmBPwAAAAAAJAuxAAAAAAAvMp5AwAAAAAKDE0EAAQAfwB/AkAAAQABAAAAAAAAAAAAfwDMzMzM
        zMzMzMzMzH/MzMzMddko0HTpGABWHPNSNPEYAEzpGADBaAAAHdgo0HTqGABc7hgAsHM1BszMzMzMzAAAAAAAAAAAAAAAAAAAAAAAAAAAAAAAAAAAAAAAAAAAAAAAAAAA
        AAAAAAAAAAAAAAAAAAAAAAAAAAAAAAAAAAAAAAAAAAAAAAAAAAAAAAAAAAAAAAAAAAAAAAAAAAAAAAAAAAAAAAAAAAAAAAAAAAAAAAAAAAAAAAAAAAAAAAAAAQEBAQEB
        AQEBAQEBAQEBAQEBAQEBAQEBAQEBAQEBAQEBAQEBAQEBAQEBAQEBAQEBAQEBAQEBAQEBAQEBAQEBAQICAgICAgMDAwMDAwEBAQEBAQEBAQEBAQEBAQEBAQEBAQEBAQEB
        AQEBAQEBAQEBAQEBAQEBAQEBAQEBAQEBAQFgYGBgYGBgYGBgYGBgYGBgYGBgYGBgYGBgYGBgYGBgYGBgYGBgYGBgYGBgYGBgYGBgYGBgYGBgYGBgYGBgYGBgAAAAAAAA
        AAAAAAAAAAAAAAAAAAAAAAAAAAAAAAAAAAAAAAAAAAAAAAAAAAAAAAAAAAAAAAAAAAAAAAAAAAAAAADMzMzMzMzMzMzMzADMzMzMddko0HTpGABWHPNSNPEYAEzpGADB
        aAAAHdgo0HTqGABc7hgAsHM1BszMzMzMzMxCYXNzIDNrIENvbXBsZXggMS0zAAAAAAD//////////5AuxAAAAAAAvMp5AwAAAAAKCE0DAAAAfwB/AkAAAQAAAAAAAAAA
        AAAAfwDMzMzMzMzMzMzMzH/MzMzMddko0HTpGABWHPNSNPEYAEzpGAAKawAAHdgo0HTqGABc7hgAsHM1BszMzMzMzAAAAAAAAAAAAAAAAAAAAAAAAAAAAAAAAAAAAAAA
        AAAAAAAAAAAAAAAAAAAAAAAAAAAAAAAAAAAAAAAAAAAAAAAAAAAAAAAAAAAAAAAAAAAAAAAAAAAAAAAAAAAAAAAAAAAAAAAAAAAAAAAAAAAAAAAAAAAAAAAAAAAAAAAA
        AAAAAAABAQAAAQABAQEBAQEBAQEBAQEBAQEBAQEBAQEBAQEBAQEBAQEBAQEBAQEBAQEBAQEBAQEBAQEBAQEBAQEBAQEBAQEBAQEBAQEBAQEBAQEBAQEBAQEBAQEBAQEB
        AQEBAQEBAQEBAQEBAQEBAQEBAQEBAQEBAQEBAQEBAQEBAQFgYGBgYGBgYGBgYGBgYGBgYGBgYGBgYGBgYGBgYGBgYGBgYGBgYGBgYGBgYGBgYGBgYGBgYGBgYGBgYGBg
        YGBgAAAAAAAAAAAAAAAAAAAAAAAAAAAAAAAAAAAAAAAAAAAAAAAAAAAAAAAAAAAAAAAAAAAAAAAAAAAAAAAAAAAAAADMzMzMzMzMzMzMzADMzMzMddko0HTpGABWHPNS
        NPEYAEzpGAAKawAAHdgo0HTqGABc7hgAsHM1BszMzMzMzMxCYXNzIDFrIFRyYW5jZSAwMQAAAAAAAADmBPwAAAAAAJAuxAAAAAAAvMp5AwAAAAAKCEMDAAAAfwB/AkAA
        AQAAAAAAAAAAAAAAfwDMzMzMzMzMzMzMzH/MzMzMddko0HTpGABWHPNSNPEYAEzpGABTbQAAHdgo0HTqGABc7hgAsHM1BszMzMzMzAAAAAAAAAAAAAAAAAAAAAAAAAAA
        AAAAAAAAAAAAAAAAAAAAAAAAAAAAAAAAAAAAAAAAAAAAAAAAAAAAAAAAAAAAAQABAAABAAAAAAAAAAAAAAAAAAAAAAAAAAAAAAAAAAAAAAAAAAAAAAAAAAAAAAAAAAAA
        AAAAAAAAAAAAAAAAAAEBAQABAQEBAQEBAQEBAQEBAQEBAQEBAQEBAQEBAQEBAQEBAQEBAQEBAQEBAQEBAQEBAQEBAQEBAQEBAQEBAQEBAQEBAQEBAQEBAQEBAQEBAQEB
        AQEBAQEBAQEBAQEBAQEBAQEBAQEBAQEBAQEBAQEBAQEBAQEBAQEBAQEBAQFgYGBgYGBgYGBgYGBgYGBgYGBgYGBgYGBgYGBgYGBgYGBgYGBgYGBgYGBgYGBgYGBgYGBg
        YGBgYGBgYGBgYGBgAAAAAAAAAAAAAAAAAAAAAAAAAAAAAAAAAAAAAAAAAAAAAAAAAAAAAAAAAAAAAAAAAAAAAAAAAAAAAAAAAAAAAADMzMzMzMzMzMzMzADMzMzMddko
        0HTpGABWHPNSNPEYAEzpGABTbQAAHdgo0HTqGABc7hgAsHM1BszMzMzMzMxCYXNzIDFrIFRyYW5jZSAwMgAAAAAAAAD//////////5AuxAAAAAAAvMp5AwAAAAAKEDID
        AAEAfwB/AEAAAQAAAAAAAAAAAAAAfwDMzMzMzMzMzMzMzH/MzMzMddko0HTpGABWHPNSNPEYAEzpGACcbwAAHdgo0HTqGABc7hgAsHM1BszMzMzMzAAAAAAAAAAAAAAA
        AAAAAAAAAAAAAAAAAAAAAAAAAAAAAAAAAAAAAAAAAAAAAAAAAAAAAAAAAAAAAAAAAAAAAAABAAEBAAABAAEAAQEAAAEAAAAAAAAAAAAAAAAAAAAAAAAAAAAAAAAAAAAA
        AAAAAAAAAAAAAAAAAAAAAAAAAAAAAQIBAQECAQEBAgEBAQIBAQEBAQEBAQEBAQEBAQEBAQEBAQEBAQEBAQEBAQEBAQEBAQEBAQEBAQEBAQEBAQEBAQIBAQEBAQEBAQEB
        AQEBAQEBAQEBAQEBAQEBAQEBAQEBAQEBAQEBAQEBAQEBAQEBAQEBAQEBAQEBAQEBAQEBAQFgYGBgYGBgYGBgYGBgYGBgYGBgYGBgYGBgYGBgYGBgYGBgYGBgYGBgYGBg
        YGBgYGBgYGBgYGBgYGBgYGBgYGBgAAAAAAAAAAAAAAAAAAAAAAAAAAAAAAAAAAAAAAAAAAAAAAAAAAAAAAAAAAAAAAAAAAAAAAAAAAAAAAAAAAAAAADMzMzMzMzMzMzM
        zADMzMzMddko0HTpGABWHPNSNPEYAEzpGACcbwAAHdgo0HTqGABc7hgAsHM1BszMzMzMzMxCYXNzIDJrIFRyYW5jZSAwMwAAAAAAAADmBPwAAAAAAJAuxAAAAAAAvMp5
        AwAAAAAKEF0DAAQAfwB/AEAAAQAAAAAAAAAAAAAAfwDMzMzMzMzMzMzMzH/MzMzMddko0HTpGABWHPNSNPEYAEzpGADlcQAAHdgo0HTqGABc7hgAsHM1BszMzMzMzAAA
        AAAAAAAAAAAAAAAAAAAAAAAAAAAAAAAAAAAAAAAAAAAAAAAAAAAAAAAAAAAAAAAAAAAAAAAAAAAAAAAAAAAAAAAAAAAAAAAAAAAAAAAAAAAAAAAAAAAAAAAAAAAAAAAA
        AAAAAAAAAAAAAAAAAAAAAAAAAAAAAAAAAAAAAAAAAQABAAEAAQABAAEAAQABAAEBAQEBAQEBAQEBAQEBAQEBAQEBAQEBAQEBAQEBAQEBAQEBAQEBAQEBAQEBAQEBAQEB
        AQEBAQEBAQEBAQIBAQEBAQEBAQEBAQEBAQEBAQEBAQEBAQEBAQEBAQEBAQEBAQEBAQEBAQEBAQEBAQEBAQFgYGBgYGBgYGBgYGBgYGBgYGBgYGBgYGBgYGBgYGBgYGBg
        YGBgYGBgYGBgYGBgYGBgYGBgYGBgYGBgYGBgYGBgAAAAAAAAAAAAAAAAAAAAAAAAAAAAAAAAAAAAAAAAAAAAAAAAAAAAAAAAAAAAAAAAAAAAAAAAAAAAAAAAAAAAAADM
        zMzMzMzMzMzMzADMzMzMddko0HTpGABWHPNSNPEYAEzpGADlcQAAHdgo0HTqGABc7hgAsHM1BszMzMzMzMxCYXNzIDJrIERNIFF1ZXN0aW9uIG9mIHRpbWUAAAAAAJAu
        xAAAAAAAvMp5AwAAAAAKEFEDAAAAfwB/AkAAAQAAAAAAAAAAAAAAfwDMzMzMzMzMzMzMzH/MzMzMddko0HTpGABWHPNSNPEYAEzpGAAudAAAHdgo0HTqGABc7hgAsHM1
        BszMzMzMzAAAAAAAAAAAAAAAAAAAAAAAAAAAAAAAAAAAAAAAAAAAAAAAAAAAAAAAAAAAAAAAAAAAAAAAAAAAAAAAAAAAAAAAAQABAQEBAAEBAAEBAQABAAAAAAAAAAAA
        AAAAAAAAAAAAAAAAAAAAAAAAAAAAAAAAAAAAAAAAAAAAAAAAAAAAAQABAAECAAEAAAEAAQIBAAEBAQEBAQEBAQEBAQEBAQEBAQEBAQEBAQEBAQEBAQEBAQEBAQEBAQEB
        AQEBAQEBAQEBAQEBAQEBAQEBAQEBAQEBAQEBAQEBAQEBAQEBAQEBAQEBAQEBAQEBAQEBAQEBAQEBAQEBAQEBAQEBAQEBAQFgYGBgYGBgYGBgYGBgYGBgYGBgYGBgYGBg
        YGBgYGBgYGBgYGBgYGBgYGBgYGBgYGBgYGBgYGBgYGBgYGBgYGBgAAAAAAAAAAAAAAAAAAAAAAAAAAAAAAAAAAAAAAAAAAAAAAAAAAAAAAAAAAAAAAAAAAAAAAAAAAAA
        AAAAAAAAAADMzMzMzMzMzMzMzADMzMzMddko0HTpGABWHPNSNPEYAEzpGAAudAAAHdgo0HTqGABc7hgAsHM1BszMzMzMzMxCYXNzIDFrIEJlbmFzc2kgLSBJbGx1c2lv
        bgD//////5AuxAAAAAAAvMp5AwAAAAAKEFQDAAAAfwB/AkAAAQAAAAAAAAAAAAAAfwDMzMzMzMzMzMzMzH/MzMzMddko0HTpGABWHPNSNPEYAEzpGAB3dgAAHdgo0HTq
        GABc7hgAsHM1BszMzMzMzAAAAAAAAAAAAAAAAAAAAAAAAAAAAAAAAAAAAAAAAAAAAAAAAAAAAAAAAAAAAAAAAAAAAAAAAAAAAAAAAAAAAAAAAQAAAQEAAQEBAAEBAQAB
        AAAAAAAAAAAAAAAAAAAAAAAAAAAAAAAAAAAAAAAAAAAAAAAAAAAAAAAAAAAAAAAAAQABAQEAAQABAAEAAQABAAEBAQEBAQEBAQEBAQEBAQEBAQEBAQEBAQEBAQEBAQEB
        AQEBAQEBAQEBAQEBAQEBAQEBAQEBAQEBAQEBAQEBAQEBAQEBAQEBAQEBAQEBAQEBAQEBAQEBAQEBAQEBAQEBAQEBAQEBAQEBAQEBAQEBAQFgYGBgYGBgYGBgYGBgYGBg
        YGBgYGBgYGBgYGBgYGBgYGBgYGBgYGBgYGBgYGBgYGBgYGBgYGBgYGBgYGBgYGBgAAAAAAAAAAAAAAAAAAAAAAAAAAAAAAAAAAAAAAAAAAAAAAAAAAAAAAAAAAAAAAAA
        AAAAAAAAAAAAAAAAAAAAAADMzMzMzMzMzMzMzADMzMzMddko0HTpGABWHPNSNPEYAEzpGAB3dgAAHdgo0HTqGABc7hgAsHM1BszMzMzMzMxCYXNzIDFrIFF1ZWVuIC0g
        QnJlYWsgZnJlZQAAAAAAAJAuxAAAAAAAvMp5AwAAAAAKIEwDAAAAfwB/AkAAAQABAAAAAAAAAQAAfwDMzMzMzMzMzMzMzH/MzMzMddko0HTpGABWHPNSNPEYAEzpGADA
        eAAAHdgo0HTqGABc7hgAsHM1BszMzMzMzAAAAAAAAAAAAAAAAAAAAAAAAAAAAAAAAAAAAAAAAAAAAAAAAAAAAAAAAAAAAAAAAAAAAAAAAAAAAAAAAAAAAAAAAAEAAAEA
        AAEAAAEAAAEAAAECAAECAAECAAECAAECAQAAAAAAAAAAAAAAAAAAAAAAAAAAAAAAAAAAAAAAAAAAAQABAAEBAAEBAAEBAAEBAAEBAQEBAQEBAQEBAQEBAQEBAQEBAQEB
        AQEBAQEBAQEBAQEBAQEBAQEBAQEBAQEBAQEBAQEBAQEBAQEBAQEBAQEBAQEBAQEBAQEBAQEBAQEBAQEBAQEBAQEBAQEBAQEBAQEBAQEBAQEBAQEBAQEBAQFgYGBgYGBg
        YGBgYGBgYGBgYGBgYGBgYGBgYGBgYGBgYGBgYGBgYGBgYGBgYGBgYGBgYGBgYGBgYGBgYGBgYGBgAAAAAAAAAAAAAAAAAAAAAAAAAAAAAAAAAAAAAAAAAAAAAAAAAAAA
        AAAAAAAAAAAAAAAAAAAAAAAAAAAAAAAAAADMzMzMzMzMzMzMzADMzMzMddko0HTpGABWHPNSNPEYAEzpGADAeAAAHdgo0HTqGABc7hgAsHM1BszMzMzMzMxCYXNzIDFr
        IFF1ZWVuIC0gTGl2aW5nIG9uIG15IG93bgAuxAAAAAAAvMp5AwAAAAAKEC4DAAAAfwB/AkAAAQAAAAAFAwAAAAAAfwAAAAAAAAAAAAAAAAAAAAAAAAAAAAAAAAAAAAAA
        AAAAAAAAAAAAAAAAAAAAAAAAAAAAAAAAAAAAAAAAAAAAAAAAAwAHAAUAAAMDAAUAAwcAAAAAAAAAAAAAAAAAAAAAAAAAAAAAAAAAAAAAAAAAAAAAAAAAAAAAAAAAAAAA
        AAD//gD/AP8AAP4AAP8A/wAAAAAAAAAAAAAAAAAAAAAAAAAAAAAAAAAAAAAAAAAAAAAAAAAAAAAAAAAAAAAAAAAAAQABAAEAAQEAAQABAQAAAQEBAQEBAQEBAQEBAQEB
        AQEBAQEBAQEBAQEBAQEBAQEBAQEBAQEBAQEBAQEBAQEBAQEBAQEBAQEBAQEBAQEBAQEBAQEBAQEBAQEBAQEBAQEBAQEBAQEBAQEBAQEBAQEBAQEBAQEBAQEBAQEBAQEB
        AQFgYGBgYGBgYGBgYGBgYGBgYGBgYGBgYGBgYGBgYGBgYGBgYGBgYGBgYGBgYGBgYGBgYGBgYGBgYGBgYGBgYGBgAAAAAAAAAAAAAAAAAAAAAAAAAAAAAAAAAAAAAAAA
        AAAAAAAAAAAAAAAAAAAAAAAAAAAAAAAAAAAAAAAAAAAAAAAAAAAAAAAAAAAAAAAAAAAAAAAAAAAAAAAAAAAAAAAAAAAAAAAAAAAAAAAAAAAAAAAAAAAAAAAAAAAAAAAA
        AABTZXEgMWsgRm9yY2VTY2FsZSBFbSAwMQDMzMzMzMzMzMzMzMzMzMzMzMzMzMzMzMwKCEIDAAAAfwB/AkAAAQABAAAFAwAAAAAAfwDMzMzMzMzMzMzMzH/MzMzMddko
        0HTpGABWHPNSNPEYAEzpGABSfQAAHdgo0HTqGABc7hgAsHM1BszMzMzMzAAAAAUAAAcAAAAAAAAAAAAAAAAAAAAAAAAAAAAAAAAAAAAAAAAAAAAAAAAAAAAAAAAAAAAA
        AAAAAAAAAAAAAAAAAP8A//8AAAAAAAAAAAAAAAAAAAAAAAAAAAAAAAAAAAAAAAAAAAAAAAAAAAAAAAAAAAAAAAAAAAAAAAAAAAAAAQIBAQEBAQIBAQEBAQEBAQEBAQEB
        AQEBAQEBAQEBAQEBAQEBAQEBAQEBAQEBAQEBAQEBAQEBAQEBAQEBAQEBAQEBAQEBAQEBAQEBAQEBAQEBAQEBAQEBAQEBAQEBAQEBAQEBAQEBAQEBAQEBAQEBAQEBAQEB
        AQEBAQEBAQEBAQFgYGBgYGBgYGBgYGBgYGBgYGBgYGBgYGBgYGBgYGBgYGBgYGBgYGBgYGBgYGBgYGBgYGBgYGBgYGBgYGBgYGBgAAAAAAAAAAAAAAAAAAAAAAAAAAAA
        AAAAAAAAAAAAAAAAAAAAAAAAAAAAAAAAAAAAAAAAAAAAAAAAAAAAAAAAAADMzMzMzMzMzMzMzADMzMzMddko0HTpGABWHPNSNPEYAEzpGABSfQAAHdgo0HTqGABc7hgA
        sHM1BszMzMzMzMxTZXEgMWsgRm9yY2VTY2FsZSBFbSAwMgD//////////5AuxAAAAAAAvMp5AwAAAAAKEEcDAAAAfwB/AkUAAQABAAAFAwEAAAAAfwDMzMzMzMzMzMzM
        zH/MzMzMddko0HTpGABWHPNSNPEYAEzpGACbfwAAHdgo0HTqGABc7hgAsHM1BszMzMzMzAAAAAMABwAAAAMAAAUDAAcAAAAAAAAAAAAAAAAAAAAAAAAAAAAAAAAAAAAA
        AAAAAAAAAAAAAAAAAAAAAAAAAAAAAAAAAAAAAAAAAAAAAAAAAAAAAAAAAAAAAAAAAAAAAAAAAAAAAAAAAAAAAAAAAAAAAAAAAAAAAAAAAAAAAAAAAAEAAQABAAABAQAA
        AQEAAQEBAQEBAQEBAQEBAQEBAQEBAQEBAQEBAQEBAQEBAQEBAQEBAQEBAQEBAQEBAQEBAQEBAQEBAQEBAQEBAQEBAQEBAQEBAQEBAQEBAQEBAQEBAQEBAQEBAQEBAQEB
        AQEBAQEBAQEBAQEBAQEBAQEBAQFgYGBgYGBgYGBgYGBgYGBgYGBgYGBgYGBgYGBgYGBgYGBgYGBgYGBgYGBgYGBgYGBgYGBgYGBgYGBgYGBgYGBgAAAAAAAAAAAAAAAA
        AAAAAAAAAAAAAAAAAAAAAAAAAAAAAAAAAAAAAAAAAAAAAAAAAAAAAAAAAAAAAAAAAAAAAADMzMzMzMzMzMzMzADMzMzMddko0HTpGABWHPNSNPEYAEzpGACbfwAAHdgo
        0HTqGABc7hgAsHM1BszMzMzMzMxTZXEgMWsgRm9yY2VTY2FsZSBFbSAwMwD//////////5AuxAAAAAAAvMp5AwAAAAAKEGQDAAQAfwB/AkAAAQABAAAFAwEAAAAAfwDM
        zMzMzMzMzMzMzH/MzMzMddko0HTpGABWHPNSNPEYAEzpGADkgQAAHdgo0HTqGABc7hgAsHM1BszMzMzMzAAAAAAFAAAAAAAIAAAHAAAAAAAAAAAAAAAAAAAAAAAAAAAA
        AAAAAAAAAAAAAAAAAAAAAAAAAAAAAAAAAAAAAAD/AP//AP//AP//AP//AP8AAAAAAAAAAAAAAAAAAAAAAAAAAAAAAAAAAAAAAAAAAAAAAAAAAAAAAAAAAAAAAAAAAAEA
        AAEAAQEAAAEAAQEAAQEBAQEBAQEBAQEBAQEBAQEBAQEBAQEBAQEBAQEBAQEBAQEBAQEBAQEBAQEBAQEBAQECAQEBAQECAQEBAQEBAQEBAQEBAQEBAQEBAQEBAQEBAQEB
        AQEBAQEBAQEBAQEBAQEBAQEBAQEBAQEBAQEBAQFgYGBgYGBgYGBgYGBgYGBgYGBgYGBgYGBgYGBgYGBgYGBgYGBgYGBgYGBgYGBgYGBgYGBgYGBgYGBgYGBgYGBgAAAA
        AAAAAAAAAAAAAAAAAAAAAAAAAAAAAAAAAAAAAAAAAAAAAAAAAAAAAAAAAAAAAAAAAAAAAAAAAAAAAAAAAADMzMzMzMzMzMzMzADMzMzMddko0HTpGABWHPNSNPEYAEzp
        GADkgQAAHdgo0HTqGABc7hgAsHM1BszMzMzMzMxTZXEgMmsgRm9yY2VTY2FsZSBFbSAwNCAoRStHKQAAAJAuxAAAAAAAvMp5AwAAAAAKCEMDAAQAfwB/AkAAAQAAAAAA
        AAAAAAAAfwDMzMzMzMzMzMzMzH/MzMzMddko0HTpGABWHPNSNPEYAEzpGAAthAAAHdgo0HTqGABc7hgAsHM1BszMzMzMzAAAAAAAAAcAAAAAAAAAAAAAAAAAAAAAAAAA
        AAAAAAAAAAAAAAAAAAAAAAAAAAAAAAAAAAAAAAAAAAAAAAAAAAAAAAAA//8AAAAAAAAAAAAAAAAAAAAAAAAAAAAAAAAAAAAAAAAAAAAAAAAAAAAAAAAAAAAAAAAAAAAA
        AAAAAAAAAQIBAQEBAQIBAQEBAQEBAQEBAQEBAQEBAQEBAQEBAQEBAQEBAQEBAQEBAQEBAQEBAQEBAQEBAQEBAQEBAQEBAQEBAQIBAQEBAQEBAQEBAQEBAQEBAQEBAQEB
        AQEBAQEBAQEBAQEBAQEBAQEBAQEBAQEBAQEBAQEBAQEBAQEBAQFgYGBgYGBgYGBgYGBgYGBgYGBgYGBgYGBgYGBgYGBgYGBgYGBgYGBgYGBgYGBgYGBgYGBgYGBgYGBg
        YGBgYGBgAAAAAAAAAAAAAAAAAAAAAAAAAAAAAAAAAAAAAAAAAAAAAAAAAAAAAAAAAAAAAAAAAAAAAAAAAAAAAAAAAAAAAADMzMzMzMzMzMzMzADMzMzMddko0HTpGABW
        HPNSNPEYAEzpGAAthAAAHdgo0HTqGABc7hgAsHM1BszMzMzMzMxTZXEgMmsgSGFybW9uaWMxIChBK0MvQyMpAPwAAAAAAJAuxAAAAAAAvMp5AwAAAAAKCEMDAAEAfwB/
        AkAAAQAAAAAAAAAAAAAAfwDMzMzMzMzMzMzMzH/MzMzMddko0HTpGABWHPNSNPEYAEzpGAB2hgAAHdgo0HTqGABc7hgAsHM1BszMzMzMzAAABwUABwUAAAAAAAAAAAAA
        AAAAAAAAAAAAAAAAAAAAAAAAAAAAAAAAAAAAAAAAAAAAAAAAAAAAAAAAAAAAAAD/AAAA/wAAAAAAAAAAAAAAAAAAAAAAAAAAAAAAAAAAAAAAAAAAAAAAAAAAAAAAAAAA
        AAAAAAAAAAAAAAAAAAAAAQEBAQEBAQEBAQEBAQEBAQEBAQEBAQEBAQEBAQEBAQEBAQEBAQEBAQEBAQEBAQEBAQEBAQEBAQEBAQEBAQEBAQECAQIBAQIBAQEBAQEBAQEB
        AQEBAQEBAQEBAQEBAQEBAQEBAQEBAQEBAQEBAQEBAQEBAQEBAQEBAQEBAQEBAQFgYGBgYGBgYGBgYGBgYGBgYGBgYGBgYGBgYGBgYGBgYGBgYGBgYGBgYGBgYGBgYGBg
        YGBgYGBgYGBgYGBgYGBgAAAAAAAAAAAAAAAAAAAAAAAAAAAAAAAAAAAAAAAAAAAAAAAAAAAAAAAAAAAAAAAAAAAAAAAAAAAAAAAAAAAAAADMzMzMzMzMzMzMzADMzMzM
        ddko0HTpGABWHPNSNPEYAEzpGAB2hgAAHdgo0HTqGABc7hgAsHM1BszMzMzMzMxTZXEgMmsgSGFybW9uaWMyIChBK0MvQyMpAPwAAAAAAJAuxAAAAAAAvMp5AwAAAAAK
        CEcDAAEAfwB/AkAAAQAAAAAAAAAAAAAAfwDMzMzMzMzMzMzMzH/MzMzMddko0HTpGABWHPNSNPEYAEzpGAC/iAAAHdgo0HTqGABc7hgAsHM1BszMzMzMzAAABwcAAAAH
        AAAAAAAAAAAAAAAAAAAAAAAAAAAAAAAAAAAAAAAAAAAAAAAAAAAAAAAAAAAAAAAAAAAAAAAAAAD/AAAAAP8AAAAAAAAAAAAAAAAAAAAAAAAAAAAAAAAAAAAAAAAAAAAA
        AAAAAAAAAAAAAAAAAAAAAAAAAAAAAAAAAQEBAQEBAQEBAQEBAQEBAQEBAQEBAQEBAQEBAQEBAQEBAQEBAQEBAQEBAQEBAQEBAQEBAQEBAQEBAQEBAQEBAQECAQIBAQIB
        AQEBAQEBAQEBAQEBAQEBAQEBAQEBAQEBAQEBAQEBAQEBAQEBAQEBAQEBAQEBAQEBAQEBAQEBAQFgYGBgYGBgYGBgYGBgYGBgYGBgYGBgYGBgYGBgYGBgYGBgYGBgYGBg
        YGBgYGBgYGBgYGBgYGBgYGBgYGBgYGBgAAAAAAAAAAAAAAAAAAAAAAAAAAAAAAAAAAAAAAAAAAAAAAAAAAAAAAAAAAAAAAAAAAAAAAAAAAAAAAAAAAAAAADMzMzMzMzM
        zMzMzADMzMzMddko0HTpGABWHPNSNPEYAEzpGAC/iAAAHdgo0HTqGABc7hgAsHM1BszMzMzMzMxTZXEgMmsgSGFybW9uaWMzIChBK0MvQyMpAP///////5AuxAAAAAAA
        vMp5AwAAAAAKCEIDAAEAfwB/AkAAAQAAAAAAAAAAAAAAfwDMzMzMzMzMzMzMzH/MzMzMddko0HTpGABWHPNSNPEYAEzpGAAIiwAAHdgo0HTqGABc7hgAsHM1BszMzMzM
        zAAAAAcAAAAAAAAAAAAAAAAAAAAAAAAAAAAAAAAAAAAAAAAAAAAAAAAAAAAAAAAAAAAAAAAAAAAAAAAAAAAAAAAA/wAA/wD//wAAAAAAAAAAAAAAAAAAAAAAAAAAAAAA
        AAAAAAAAAAAAAAAAAAAAAAAAAAAAAAAAAAAAAAAAAAAAAQEBAQEBAQIBAQEBAQEBAQEBAQEBAQEBAQEBAQEBAQEBAQEBAQEBAQEBAQEBAQEBAQEBAQEBAQEBAQEBAQEB
        AQEBAgEBAgEBAQEBAQEBAQEBAQEBAQEBAQEBAQEBAQEBAQEBAQEBAQEBAQEBAQEBAQEBAQEBAQEBAQEBAQEBAQFgYGBgYGBgYGBgYGBgYGBgYGBgYGBgYGBgYGBgYGBg
        YGBgYGBgYGBgYGBgYGBgYGBgYGBgYGBgYGBgYGBgYGBgAAAAAAAAAAAAAAAAAAAAAAAAAAAAAAAAAAAAAAAAAAAAAAAAAAAAAAAAAAAAAAAAAAAAAAAAAAAAAAAAAAAA
        AADMzMzMzMzMzMzMzADMzMzMddko0HTpGABWHPNSNPEYAEzpGAAIiwAAHdgo0HTqGABc7hgAsHM1BszMzMzMzMxTZXEgMmsgSGFybW9uaWM0IChBK0MvQyMpAP//////
        /5AuxAAAAAAAvMp5AwAAAAAKID0DAAAAfwB/AkAAAQABAAAAAAAAAQAAfwAAAAAAAAAAAAAAAAAAAAAAAAAAAAAAAAAAAAAAAAAAAAAAAAAAAAAAAAAAAAAAAAAAAAAA
        AAAAAAAAAAAAAAAA/v4AAP7+AAAAAAAAAAAAAP7+AAD+/gAAAAAAAAAAAAAAAAAAAAAAAAAAAAAAAAAAAAAAAAAAAAAAAAAAAAAAAAAAAAAAAAAAAAAAAAAAAAAAAAAA
        AAAAAP///wD//wAAAAAAAAAAAAAAAAAAAAAAAAAAAAAAAAAAAAAAAAAAAQEBAQEBAQEBAQAAAQEAAAEBAQEBAQEBAQEBAQEBAAABAQEBAQEBAQEBAQEBAQEBAQEBAQEB
        AQEBAQEBAQEBAQEBAQEBAQEBAQEBAQICAQEBAQEBAQEBAQEBAQEBAQEBAQEBAQEBAQEBAQEBAQEBAQEBAQEBAQEBAQEBAQEBAQFgYGBgYGBgYGBgYGBgYGBgYGBgYGBg
        YGBgYGBgYGBgYGBgYGBgYGBgYGBgYGBgYGBgYGBgYGBgYGBgYGBgYGBgAAAAAAAAAAAAAAAAAAAAAAAAAAAAAAAAAAAAAAAAAAAAAAAAAAAAAAAAAAAAAAAAAAAAAAAA
        AAAAAAAAAAAAAAAAAAAAAAAAAAAAAAAAAAAAAAAAAAAAAAAAAAAAAAAAAAAAAAAAAAAAAAAAAAAAAAAAAAAAAAAAAAAAAAAAAABTZXEgMmsgS3JhZnR3ZXJrMSAoRCtG
        KQDMzMzMzMzMzMzMzMzMzMzMzMzMzMzMzMwKIGQDAAAAfwB/Aj4AAQABAAAAAAAAAQAAfwDMzMzMzMzMzMzMzH/MzMzMddko0HTpGABWHPNSNPEYAEzpGACajwAAHdgo
        0HTqGABc7hgAsHM1BszMzMzMzAAAAAAAAAAAAwAAAAAAAAADAAAABQAKAAcAAAAAAAAAAAAAAAAAAAAAAAAAAAAAAAAAAAAAAAAAAAAAAAAAAAAAAAAAAAAAAAAAAAAA
        AAAAAAAAAAAAAAAAAAAAAAAAAAAAAAAAAAAAAAAAAAAAAAAAAAAAAAAAAAAAAAAAAAAAAQAAAAEAAQABAAEAAAAAAAEAAAABAAEAAQAAAAAAAAABAQEBAQEBAQEBAQEB
        AQEBAQEBAQEBAQEBAQEBAQEBAQEBAQEBAQEBAQEBAQEBAQEBAQEBAQEBAQEBAQEBAQEBAQEBAQEBAQEBAQEBAQEBAQEBAQEBAQEBAQEBAQEBAQFgYGBgYGBgYGBgYGBg
        YGBgYGBgYGBgYGBgYGBgYGBgYGBgYGBgYGBgYGBgYGBgYGBgYGBgYGBgYGBgYGBgYGBgAAAAAAAAAAAAAAAAAAAAAAAAAAAAAAAAAAAAAAAAAAAAAAAAAAAAAAAAAAAA
        AAAAAAAAAAAAAAAAAAAAAAAAAADMzMzMzMzMzMzMzADMzMzMddko0HTpGABWHPNSNPEYAEzpGACajwAAHdgo0HTqGABc7hgAsHM1BszMzMzMzMxTZXEgMmsgS3JhZnR3
        ZXJrMiAoQStDKQDgBPwAAAAAAJAuxAAAAAAAvMp5AwAAAAAKIGQDAAAAfwB/AkAAAQABAAAAAAAAAQAAfwDMzMzMzMzMzMzMzH/MzMzMddko0HTpGABWHPNSNPEYAEzp
        GADjkQAAHdgo0HTqGABc7hgAsHM1BszMzMzMzAAAAAAAAPsAAAD7AAAAAAAAAAAAAgAAAAAAAAAAAPsAAAAAAAAAAAAAAAAAAAAAAAAAAAAAAAAAAAAAAAAAAAAAAAAA
        AAAAAAAAAAAAAAAAAAAAAAAAAAAAAAAAAAAAAAAAAAAAAAAAAAAAAAAAAAAAAAAAAAAAAAAAAAAAAAAAAQAAAAEAAQABAAEAAAABAAEAAAABAAEAAAAAAAAAAQABAQEB
        AQEBAQEBAQEBAQEBAQEBAQEBAQEBAQEBAQEBAQEBAQEBAQEBAQEBAQEBAQECAQEBAQEBAQEBAQEBAQEBAQEBAQEBAQEBAQEBAQEBAQEBAQEBAQEBAQEBAQEBAQFgYGBg
        YGBgYGBgYGBgYGBgYGBgYGBgYGBgYGBgYGBgYGBgYGBgYGBgYGBgYGBgYGBgYGBgYGBgYGBgYGBgYGBgAAAAAAAAAAAAAAAAAAAAAAAAAAAAAAAAAAAAAAAAAAAAAAAA
        AAAAAAAAAAAAAAAAAAAAAAAAAAAAAAAAAAAAAADMzMzMzMzMzMzMzADMzMzMddko0HTpGABWHPNSNPEYAEzpGADjkQAAHdgo0HTqGABc7hgAsHM1BszMzMzMzMxTZXEg
        MmsgS3JhZnR3ZXJrMyAoQStDLCBGK0EpAAAAABQAAAAAAAAAaQQAAAIBAAA=
        AEFycCAzayBTdXBlclNhdyAwMgAQAAAA
      >
      PRESETNAME "Arp 3k SuperSaw 02"
      FLOATPOS 0 0 0 0
      FXID {6B62C3A0-5F06-475D-94B2-277165139841}
      WAK 0 0
      BYPASS 0 0 0
      <VST "VSTi: ReaSynth (Cockos)" reasynth.dll 0 "" 1919251321<5653547265737972656173796E746800> ""
        eXNlcu9e7f4AAAAAAgAAAAEAAAAAAAAAAgAAAAAAAABEAAAAAAAAAAAAEAA=
        776t3g3wrd4AAAAAF7fROtNNIj+DwEo+2/leP7UrWD4r+jQ8AAAAAAAAAD8MIJk+nu/nPn9q/D4AAAAAAAAAAAAAAAA=
        AFByb2dyYW0gMQAQAAAA
      >
      PRESETNAME "Program 1"
      FLOATPOS 0 0 0 0
      FXID {5317BEF1-4EE2-423F-92FE-7DCF5B713160}
      WAK 0 0
    >
    <ITEM
      POSITION 0
      SNAPOFFS 0
      LENGTH 29.5775
      LOOP 1
      ALLTAKES 0
      FADEIN 1 0 0 1 0 0 0
      FADEOUT 1 0 0 1 0 0 0
      MUTE 0 0
      SEL 0
      IGUID {0B5ABA68-2881-46B3-868D-AC7CBE1AA4A6}
      IID 8
      NAME "05-Recorded MIDI"
      VOLPAN 1 0 1 -1
      SOFFS 0 0
      PLAYRATE 1 1 0 -1 0 0.0025
      CHANMODE 0
      GUID {F037D0AD-55CD-46F9-991A-17FF7CEAB9C5}
      RECPASS 2
      <SOURCE MIDI
        HASDATA 1 960 QN
        CCINTERP 32
        POOLEDEVTS {D6746D2E-4404-42E8-9E4A-853999868199}
        E 1762 90 39 48
        e 518 90 2d 05
        E 1397 90 38 0c
        e 523 80 2d 00
        E 582 90 39 00
        E 1322 90 37 08
        E 1635 90 38 00
        E 1277 90 36 05
        E 1896 90 37 00
        E 1095 90 3b 18
        E 1247 90 36 00
        E 4421 90 38 16
        E 274 90 3b 00
        E 1342 90 39 15
        E 3344 90 3a 05
        E 173 90 38 00
        E 1738 90 39 00
        E 3175 90 35 13
        E 1936 90 37 05
        E 1198 90 35 00
        E 615 90 3a 00
        E 3517 90 36 22
        E 2249 90 37 00
        E 2433 90 3a 05
        E 496 90 36 00
        E 2924 90 39 05
        E 1534 90 3a 00
        E 2804 90 3a 0a
        E 1413 90 39 00
        E 3596 90 37 05
        E 354 90 3a 00
        E 2950 90 3a 05
        E 1290 90 37 00
        E 2918 80 3a 00
        E 11038 b0 7b 00
        CCINTERP 32
        CHASE_CC_TAKEOFFS 1
        GUID {41B95449-7F77-4529-8469-D0067A536933}
        IGNTEMPO 0 120 4 4
        SRCCOLOR 18
        VELLANE -1 100 0
        CFGEDITVIEW 0 0.009658 66 12 0 -1 0 0 0 0.5
        KEYSNAP 0
        TRACKSEL 0
        EVTFILTER 0 -1 -1 -1 -1 0 0 0 0 -1 -1 -1 -1 0 -1 0 -1 -1
        CFGEDIT 1 1 0 1 0 0 1 1 1 1 1 0.125 752 269 1703 1098 0 0 0 0 0 0 0 0 0 0.5 0 0 1 64
      >
    >
  >
  <TRACK {BA71463B-E70A-4C3A-BD10-D56E984846D5}
    NAME ""
    PEAKCOL 16576
    BEAT -1
    AUTOMODE 0
    VOLPAN 0.32759970788183 0 -1 -1 1
    MUTESOLO 0 0 0
    IPHASE 0
    PLAYOFFS 0 1
    ISBUS 0 0
    BUSCOMP 0 0 0 0 0
    SHOWINMIX 1 0.6667 0.5 1 0.5 -1 -1 -1
    FREEMODE 0
    SEL 0
    REC 0 4096 1 0 0 0 0
    VU 2
    TRACKHEIGHT 0 0 0 0 0 0
    INQ 0 0 0 0.5 100 0 0 100
    NCHAN 2
    FX 1
    TRACKID {BA71463B-E70A-4C3A-BD10-D56E984846D5}
    PERF 0
    MIDIOUT -1
    MAINSEND 1 0
    <FXCHAIN
      WNDRECT 249 250 737 624
      SHOW 0
      LASTSEL 0
      DOCKED 0
      BYPASS 0 0 0
      <VST "VSTi: ReaSynth (Cockos)" reasynth.dll 0 "" 1919251321<5653547265737972656173796E746800> ""
        eXNlcu9e7f4AAAAAAgAAAAEAAAAAAAAAAgAAAAAAAABEAAAAAAAAAAAAEAA=
        776t3g3wrd4AAAAA6qxdPAAAAAAAAAAATmJQP85NAD8sgW89NV66PrgeJT8AAAAApHD9Pn9q/D4AAAAAAAAAAAAAAAA=
        AFByb2dyYW0gMQAQAAAA
      >
      PRESETNAME "Program 1"
      FLOATPOS 0 0 0 0
      FXID {DA68C048-7BB3-4CAD-8CB4-F7C97D98F1A2}
      WAK 0 0
    >
    <ITEM
      POSITION 0
      SNAPOFFS 0
      LENGTH 27.2
      LOOP 1
      ALLTAKES 0
      FADEIN 1 0 0 1 0 0 0
      FADEOUT 1 0 0 1 0 0 0
      MUTE 0 0
      SEL 0
      IGUID {BDF075C6-EF98-40EB-8060-13F47083BBB4}
      IID 1
      NAME "Piano - Tetris - Tetris Main Theme.mid"
      VOLPAN 1 0 1 -1
      SOFFS 0 0
      PLAYRATE 1 1 0 -1 0 0.0025
      CHANMODE 0
      GUID {4F9F32C8-CF68-4E21-939F-9C40B3536B95}
      <SOURCE MIDI
        HASDATA 1 1024 QN
        CCINTERP 32
        POOLEDEVTS {77D32D5F-8B62-4347-9FF0-CFE0251022D6}
        <X 0 0 0 0 3 Piano
          /wNQaWFubw==
        >
        <X 0 0
          /1kCAAA=
        >
        <X 0 0 0 0 9 "Default MIDI Output Device"
          /wlEZWZhdWx0IE1JREkgT3V0cHV0IERldmljZQ==
        >
        E 0 c0 00 00
        E 0 b0 0a 40
        E 0 b0 07 66
        E 0 90 3c 60
        E 3 b0 65 00
        E 0 b0 64 00
        E 1 b0 06 0c
        E 1 b0 26 00
        E 507 80 3c 00
        E 0 90 37 60
        E 512 b0 0a 40
        E 0 b0 07 66
        E 0 80 37 00
        E 0 90 3c 60
        E 3 b0 65 00
        E 0 b0 64 00
        E 1 b0 06 0c
        E 1 b0 26 00
        E 507 80 3c 00
        E 0 90 37 60
        E 512 b0 0a 40
        E 0 b0 07 66
        E 0 80 37 00
        E 0 90 3c 60
        E 3 b0 65 00
        E 0 b0 64 00
        E 1 b0 06 0c
        E 1 b0 26 00
        E 507 80 3c 00
        E 0 90 37 60
        E 512 b0 0a 40
        E 0 b0 07 66
        E 0 80 37 00
        E 0 90 3c 60
        E 3 b0 65 00
        E 0 b0 64 00
        E 1 b0 06 0c
        E 1 b0 26 00
        E 507 80 3c 00
        E 0 90 37 60
        E 512 80 37 00
        E 0 90 39 34
        E 512 90 45 39
        E 26 80 39 00
        E 486 80 45 00
        E 0 90 39 34
        E 512 90 45 39
        E 26 80 39 00
        E 486 80 45 00
        E 0 90 39 34
        E 512 90 45 39
        E 26 80 39 00
        E 486 80 45 00
        e 0 90 39 34
        e 512 90 45 39
        e 26 80 39 00
        e 486 80 45 00
        E 4 90 2c 39
        E 542 90 38 34
        E 30 80 2c 00
        E 478 90 2c 35
        E 30 80 38 00
        E 475 90 38 34
        E 30 80 2c 00
        E 480 90 2c 37
        E 30 80 38 00
        E 480 90 38 34
        E 30 80 2c 00
        E 475 90 2c 35
        E 30 80 38 00
        E 475 90 38 34
        E 30 80 2c 00
        E 481 90 2d 39
        E 26 80 38 00
        E 516 90 39 34
        E 30 80 2d 00
        E 478 90 2d 35
        E 30 80 39 00
        E 475 90 39 34
        E 30 80 2d 00
        E 480 90 2d 37
        E 30 80 39 00
        E 480 90 39 34
        E 30 80 2d 00
        E 475 90 2f 2d
        E 0 90 3b 3b
        E 30 80 39 00
        E 183 b0 07 6e
        E 229 80 3b 00
        E 63 90 30 2c
        E 0 90 3c 3a
        E 30 80 2f 00
        E 414 80 3c 00
        E 67 90 32 39
        E 26 80 30 00
        E 516 90 3e 34
        E 30 80 32 00
        E 478 90 32 35
        E 30 80 3e 00
        E 475 90 3e 34
        E 30 80 32 00
        E 480 90 32 37
        E 30 80 3e 00
        E 480 90 3e 34
        E 30 80 32 00
        E 475 90 32 35
        E 30 80 3e 00
        E 475 90 3e 34
        E 30 80 32 00
        E 481 90 32 39
        E 26 80 3e 00
        E 516 90 3e 34
        E 30 80 32 00
        E 478 90 30 35
        E 30 80 3e 00
        E 475 90 3c 34
        E 30 80 30 00
        E 480 90 30 37
        E 30 80 3c 00
        E 480 90 3c 34
        E 30 80 30 00
        E 475 90 30 35
        E 30 80 3c 00
        E 475 90 3c 34
        E 30 80 30 00
        E 481 90 30 39
        E 26 80 3c 00
        E 516 90 3c 34
        E 30 80 30 00
        E 478 90 30 35
        E 30 80 3c 00
        E 475 90 3c 34
        E 30 80 30 00
        E 480 90 2c 37
        E 30 80 3c 00
        E 480 90 38 34
        E 30 80 2c 00
        E 475 90 2c 35
        E 30 80 38 00
        E 475 90 38 34
        E 30 80 2c 00
        E 481 90 2c 39
        E 26 80 38 00
        E 516 90 38 34
        E 30 80 2c 00
        E 478 90 2c 35
        E 30 80 38 00
        E 475 90 38 34
        E 30 80 2c 00
        E 480 90 2d 37
        E 30 80 38 00
        E 480 90 39 34
        E 30 80 2d 00
        E 475 90 2d 35
        E 30 80 39 00
        E 475 90 39 34
        E 30 80 2d 00
        E 481 90 2d 39
        E 26 80 39 00
        E 516 90 39 34
        E 30 80 2d 00
        E 478 90 2d 35
        E 30 80 39 00
        E 475 90 39 34
        E 30 80 2d 00
        E 510 80 39 00
        E 174 b0 07 66
        E 1827 90 2d 39
        E 542 90 39 34
        E 30 80 2d 00
        E 478 90 2d 35
        E 30 80 39 00
        E 475 90 39 34
        E 30 80 2d 00
        E 480 90 2d 37
        E 30 80 39 00
        E 480 90 39 34
        E 30 80 2d 00
        E 475 90 2d 35
        E 30 80 39 00
        E 475 90 39 34
        E 30 80 2d 00
        E 481 90 2c 39
        E 26 80 39 00
        E 516 90 38 34
        E 30 80 2c 00
        E 478 90 2c 35
        E 30 80 38 00
        E 475 90 38 34
        E 30 80 2c 00
        E 480 90 2c 37
        E 30 80 38 00
        E 480 90 38 34
        E 30 80 2c 00
        E 475 90 2c 35
        E 30 80 38 00
        E 475 90 38 34
        E 30 80 2c 00
        E 481 90 2d 39
        E 26 80 38 00
        E 516 90 39 34
        E 30 80 2d 00
        E 478 90 2d 35
        E 30 80 39 00
        E 475 90 39 34
        E 30 80 2d 00
        E 480 90 2d 37
        E 30 80 39 00
        E 480 90 39 34
        E 30 80 2d 00
        E 475 90 2d 35
        E 30 80 39 00
        E 475 90 39 34
        E 30 80 2d 00
        E 481 90 2c 39
        E 26 80 39 00
        E 516 90 38 34
        E 30 80 2c 00
        E 478 90 2c 35
        E 30 80 38 00
        E 475 90 38 34
        E 30 80 2c 00
        E 480 90 2c 37
        E 30 80 38 00
        E 480 90 38 34
        E 30 80 2c 00
        E 475 90 2c 35
        E 30 80 38 00
        E 475 90 38 34
        E 30 80 2c 00
        E 481 90 2d 39
        E 26 80 38 00
        E 516 90 39 34
        E 30 80 2d 00
        E 478 90 2d 35
        E 30 80 39 00
        E 475 90 39 34
        E 30 80 2d 00
        E 480 90 2d 37
        E 30 80 39 00
        E 480 90 39 34
        E 30 80 2d 00
        E 475 90 2d 35
        E 30 80 39 00
        E 475 90 39 34
        E 30 80 2d 00
        E 481 90 2c 39
        E 26 80 39 00
        E 516 90 38 34
        E 30 80 2c 00
        E 478 90 2c 35
        E 30 80 38 00
        E 475 90 38 34
        E 30 80 2c 00
        E 480 90 2c 37
        E 30 80 38 00
        E 480 90 38 34
        E 30 80 2c 00
        E 475 90 2c 35
        E 30 80 38 00
        E 475 90 38 34
        E 30 80 2c 00
        E 481 90 2d 39
        E 26 80 38 00
        E 516 90 39 34
        E 30 80 2d 00
        E 478 90 2d 35
        E 30 80 39 00
        E 475 90 39 34
        E 30 80 2d 00
        E 480 90 2d 37
        E 30 80 39 00
        E 480 90 39 34
        E 30 80 2d 00
        E 475 90 2d 35
        E 30 80 39 00
        E 475 90 39 34
        E 30 80 2d 00
        E 481 90 2c 39
        E 26 80 39 00
        E 516 90 38 34
        E 30 80 2c 00
        E 478 90 2c 35
        E 30 80 38 00
        E 475 90 38 34
        E 30 80 2c 00
        E 480 90 2c 37
        E 30 80 38 00
        E 480 90 38 34
        E 30 80 2c 00
        E 475 90 2c 35
        E 30 80 38 00
        E 475 90 38 34
        E 30 80 2c 00
        E 507 80 38 00
        E 195 b0 07 66
        E 799 b0 7b 00
        CCINTERP 32
        CHASE_CC_TAKEOFFS 1
        GUID {3822175B-79E0-4FCF-94B5-BC0E9BC88E21}
        IGNTEMPO 0 120 4 4
        SRCCOLOR 5
        VELLANE -1 100 0
        CFGEDITVIEW 4840.020351 0.054132 51 12 0 -1 0 0 0 0.5
        KEYSNAP 0
        TRACKSEL 0
        EVTFILTER 0 -1 -1 -1 -1 0 0 0 0 -1 -1 -1 -1 0 -1 0 -1 -1
        CFGEDIT 1 1 0 1 0 0 1 1 1 1 1 0.125 697 289 1648 1118 0 0 0 0 0 0 0 0 0 0.5 0 0 1 64
      >
    >
  >
>
